#N canvas 736 33 539 729 10;
#X declare -lib mrpeach;
#X declare -path child;
#X declare -path moving;
#X declare -path GLSL;
#X declare -path space;
#X declare -path ../k_obj;
#X declare -path ../Pd-VJ;
#X declare -path ../pd-tweener;
#X declare -path ../diy2;
#X declare -path ../syphonserver;
#X declare -path ../pmpd;
#X declare -path ../netsend~;
#X declare -path ../leapmotion;
#X declare -lib mrpeach;
#X obj 10 420 k_udp;
#X obj -5 -219 k_ui;
#N canvas 422 289 793 332 meta 0;
#X obj 165 125 declare -path child;
#X obj 166 148 declare -path moving;
#X obj 166 173 loadbang;
#X msg 166 196 \; pd dsp 1;
#X obj 327 191 makefilename pd-%s;
#X msg 327 214 \; \$1 menuclose \;;
#X obj 327 169 symbol;
#X obj 403 142 symbol;
#X msg 504 223 \; pd open \$1 \$2;
#X obj 549 158 getdir;
#X obj 504 200 pack s s;
#X obj 504 158 symbol;
#X obj 334 112 t b a;
#X obj 392 27 sel 0 1;
#X msg 461 67 0.note.pd;
#X msg 334 87 0.note.pd;
#X obj 461 92 t a b;
#X obj 165 100 declare -path GLSL;
#X obj 166 78 declare -path space;
#X obj 392 -9 tgl 30 0 empty empty empty 17 7 0 10 -262144 -1 -1 0
1;
#X text 389 -38 leapmotion;
#X obj 212 -37 loadbang;
#X msg 213 -15 0;
#X obj 213 26 tgl 15 0 empty empty empty 17 7 0 10 -262144 -1 -1 0
1;
#X obj 240 7 inlet;
#X obj 235 26 gemhead 99999;
#X obj 235 51 syphonserver aluan_pd;
#X obj -125 97 declare -path ../k_obj;
#X obj -125 120 declare -path ../Pd-VJ;
#X obj -125 143 declare -path ../pd-tweener;
#X obj -128 175 declare -path ../diy2;
#X obj -128 198 declare -path ../syphonserver;
#X obj -128 221 declare -path ../pmpd;
#X obj -127 245 declare -path ../netsend~;
#X obj -149 70 declare -path ../leapmotion;
#X connect 2 0 3 0;
#X connect 4 0 5 0;
#X connect 6 0 4 0;
#X connect 7 0 6 1;
#X connect 9 0 10 1;
#X connect 10 0 8 0;
#X connect 11 0 10 0;
#X connect 12 0 6 0;
#X connect 12 1 7 0;
#X connect 13 0 15 0;
#X connect 13 1 14 0;
#X connect 14 0 16 0;
#X connect 15 0 12 0;
#X connect 16 0 11 0;
#X connect 16 1 9 0;
#X connect 19 0 13 0;
#X connect 21 0 22 0;
#X connect 22 0 23 0;
#X connect 23 0 25 0;
#X connect 24 0 23 0;
#X connect 25 0 26 0;
#X restore -186 486 pd meta;
#X obj -5 -144 k_mic;
#X obj -29 278 k_leap;
#X obj -198 282 planet;
#X obj -281 282 ship;
#X obj -114 282 ball;
#X obj -145 359 s_motion-s;
#X obj 10 358 k_cpu;
#X obj -395 -205 s_motion-u;
#X obj -269 358 s_motion-r;
#X obj -394 359 s_motion-b;
#X obj -111 10 k_effect;
#N canvas 299 287 631 403 (subpatch) 0;
#X obj 34 35 r hid;
#X obj 100 72 zexy/list2symbol;
#N canvas 365 22 342 273 convert_pointer_to_anything 0;
#X obj 169 102 symbol;
#X obj 169 224 t a;
#X obj 104 177 spigot;
#X obj 137 147 0;
#X obj 232 169 b;
#X obj 232 192 1;
#X obj 104 8 inlet;
#X obj 104 246 outlet;
#X obj 104 35 t a a;
#X obj 169 58 list append foo;
#X obj 169 124 sel if(pointer);
#X msg 169 80 if\$1;
#X text 204 76 (hack to get pointer;
#X text 220 88 to substitute);
#X text 8 38 enormous;
#X text 14 60 hack;
#X text 15 84 to;
#X text 11 104 keep;
#X text 16 125 pointer;
#X text 14 144 from;
#X text 12 203 and crashing;
#X text 13 222 pd;
#X text 10 162 passing thru;
#X text 13 184 [route] and;
#X msg 169 146 (pointer);
#X connect 0 0 10 0;
#X connect 1 0 7 0;
#X connect 2 0 7 0;
#X connect 3 0 2 1;
#X connect 4 0 5 0;
#X connect 5 0 2 1;
#X connect 6 0 8 0;
#X connect 8 0 2 0;
#X connect 8 1 9 0;
#X connect 9 0 11 0;
#X connect 10 0 24 0;
#X connect 10 0 3 0;
#X connect 10 1 4 0;
#X connect 11 0 0 0;
#X connect 24 0 1 0;
#X restore 100 48 pd convert_pointer_to_anything;
#X symbolatom 100 102 28 0 0 0 - - -;
#X obj 144 25 r displayipad;
#X connect 0 0 2 0;
#X connect 1 0 3 0;
#X connect 2 0 1 0;
#X connect 4 0 2 0;
#X coords 0 -1 1 1 200 20 2 100 100;
#X restore -393 485 pd;
#X obj -394 277 vj_worm;
#X obj -394 237 vj_ocean;
#X obj -393 39 k_win;
#X obj -394 315 vj_sun 15;
#X obj -278 243 vj_nebulas 16;
