#N canvas 839 65 539 729 10;
#X declare -lib mrpeach;
#X declare -lib mrpeach;
#X declare -path child;
#X declare -path moving;
#X declare -path GLSL;
#X declare -path space;
#X declare -lib mrpeach;
#X obj 10 420 k_udp;
#X obj -5 -219 k_ui;
#N canvas 843 421 793 332 meta 0;
#X obj 165 125 declare -path child;
#X obj 166 148 declare -path moving;
#X obj 166 173 loadbang;
#X msg 166 196 \; pd dsp 1;
#X obj 327 191 makefilename pd-%s;
#X msg 327 214 \; \$1 menuclose \;;
#X obj 327 169 symbol;
#X obj 403 142 symbol;
#X msg 504 223 \; pd open \$1 \$2;
#X obj 549 158 getdir;
#X obj 504 200 pack s s;
#X obj 504 158 symbol;
#X obj 334 112 t b a;
#X obj 392 27 sel 0 1;
#X msg 461 67 0.note.pd;
#X msg 334 87 0.note.pd;
#X obj 461 92 t a b;
#X obj 165 100 declare -path GLSL;
#X obj 166 78 declare -path space;
#X obj 392 -9 tgl 30 0 empty empty empty 17 7 0 10 -262144 -1 -1 0
1;
#X text 173 33 leapmotion;
#X obj 25 -9 loadbang;
#X msg 26 13 0;
#X obj 57 17 tgl 15 0 empty empty empty 17 7 0 10 -262144 -1 -1 0 1
;
#X obj 84 -2 inlet;
#X obj 26 45 gemhead 99999;
#X obj 26 70 syphonserver aluan_pd;
#X connect 2 0 3 0;
#X connect 4 0 5 0;
#X connect 6 0 4 0;
#X connect 7 0 6 1;
#X connect 9 0 10 1;
#X connect 10 0 8 0;
#X connect 11 0 10 0;
#X connect 12 0 6 0;
#X connect 12 1 7 0;
#X connect 13 0 15 0;
#X connect 13 1 14 0;
#X connect 14 0 16 0;
#X connect 15 0 12 0;
#X connect 16 0 11 0;
#X connect 16 1 9 0;
#X connect 19 0 13 0;
#X connect 21 0 22 0;
#X connect 22 0 23 0;
#X connect 23 0 25 0;
#X connect 24 0 23 0;
#X connect 25 0 26 0;
#X restore -198 240 pd meta;
#X obj -5 -144 k_mic;
#X obj -111 276 k_leap;
#X obj -281 280 planet;
#X obj -281 206 ship;
#X obj -197 280 ball;
#X obj -145 359 s_motion-s;
#X obj 10 358 k_cpu;
#X obj -394 277 vj_worm;
#X obj -394 315 vj_sun;
#X obj -395 -205 s_motion-u;
#X obj -269 359 s_motion-r;
#X obj -198 221 tgl 15 0 empty empty empty 17 7 0 10 -262144 -1 -1
0 1;
#X obj -394 237 vj_ocean;
#X obj -111 10 k_effect;
#X obj -394 10 k_win;
#X obj -394 359 s_motion-b;
#X connect 1 0 3 0;
#X connect 1 1 3 1;
#X connect 14 0 2 0;
