#N canvas 730 22 539 720 10;
#X declare -lib mrpeach;
#X declare -lib mrpeach;
#X declare -path child;
#X declare -path moving;
#X declare -path GLSL;
#X declare -path space;
#X declare -path ../k_obj;
#X declare -path ../Pd-VJ;
#X declare -path ../pd-tweener;
#X declare -path ../diy2;
#X declare -path ../syphonserver;
#X declare -path ../pmpd;
#X declare -path ../netsend~;
#X declare -path ../leapmotion;
#X obj 10 420 k_udp;
#X obj -5 -219 k_ui;
#X obj -5 -144 k_mic;
#X obj -29 278 k_leap;
#X obj -199 254 planet;
#X obj -282 254 ship;
#X obj -114 282 ball;
#X obj -145 359 s_motion-s;
#X obj 10 358 k_cpu;
#X obj -395 -205 s_motion-u;
#X obj -269 358 s_motion-r;
#X obj -394 359 s_motion-b;
#X obj -111 10 k_effect;
#X obj -395 249 vj_worm;
#X obj -395 209 vj_ocean;
#X obj -394 11 k_win;
#X obj -279 208 vj_nebulas 16;
#X obj -395 287 vj_sun 14;
#N canvas 485 458 793 332 meta 0;
#X obj 165 125 declare -path child;
#X obj 166 148 declare -path moving;
#X obj 166 173 loadbang;
#X msg 166 196 \; pd dsp 1;
#X obj 327 191 makefilename pd-%s;
#X msg 327 214 \; \$1 menuclose \;;
#X obj 327 169 symbol;
#X obj 403 142 symbol;
#X msg 504 223 \; pd open \$1 \$2;
#X obj 549 158 getdir;
#X obj 504 200 pack s s;
#X obj 504 158 symbol;
#X obj 334 112 t b a;
#X obj 392 27 sel 0 1;
#X msg 461 67 0.note.pd;
#X msg 334 87 0.note.pd;
#X obj 461 92 t a b;
#X obj 165 100 declare -path GLSL;
#X obj 166 78 declare -path space;
#X obj 392 -9 tgl 30 0 empty empty empty 17 7 0 10 -262144 -1 -1 0
1;
#X text 389 -38 leapmotion;
#X obj 212 -37 loadbang;
#X msg 213 -15 0;
#X obj 213 26 tgl 15 0 empty empty empty 17 7 0 10 -262144 -1 -1 0
1;
#X obj 240 7 inlet;
#X obj 235 51 syphonserver aluan_pd;
#X obj -125 97 declare -path ../k_obj;
#X obj -125 120 declare -path ../Pd-VJ;
#X obj -125 143 declare -path ../pd-tweener;
#X obj -128 175 declare -path ../diy2;
#X obj -128 198 declare -path ../syphonserver;
#X obj -128 221 declare -path ../pmpd;
#X obj -127 245 declare -path ../netsend~;
#X obj -149 70 declare -path ../leapmotion;
#X obj 235 26 gemhead 100000;
#N canvas 785 261 613 487 ruler 0;
#X obj -515 66 metro 1000;
#X obj -514 95 f;
#X obj -486 96 + 1;
#X obj -514 39 tgl 15 0 empty empty empty 17 7 0 10 -262144 -1 -1 1
1;
#X obj -513 12 loadbang;
#X obj -856 297 gemhead;
#X obj -798 147 line;
#X obj -798 170 inoutexpo;
#X obj -736 117 t b b b b b;
#X obj -798 66 bng 15 250 50 0 empty empty empty 17 7 0 10 -262144
-1 -1;
#X obj -855 270 > 0;
#X obj -795 234 *;
#X obj -758 232 *;
#X obj -715 232 *;
#X obj -795 263 +;
#X obj -760 264 +;
#X obj -717 265 +;
#X msg -697 62 1 \, 0 500;
#X obj -795 303 pack f f f;
#X obj -836 384 list;
#X obj -794 335 t b a;
#X msg -798 117 0 \, 1 2000;
#X obj -697 41 bng 15 250 50 0 empty empty empty 17 7 0 10 -262144
-1 -1;
#X obj -798 87 t b b b b;
#X obj -986 76 r targetpoint;
#X obj -986 101 unpack f f f;
#X obj -899 99 unpack f f f;
#X obj -947 150 +;
#X obj -910 152 +;
#X obj -876 153 +;
#X obj -943 210 pack f f f;
#X obj -458 96 % 5;
#X obj -516 130 sel 0 1 2 3 4;
#X obj -899 76 tripleRand 0.2;
#X obj -736 169 randomF 5;
#X obj -674 168 randomF 5;
#X obj -613 168 randomF 5;
#X obj -648 248 part_info;
#X msg -623 369 x y z;
#X msg -636 390 ID;
#X obj -855 437 vj_ruler3d;
#X connect 0 0 1 0;
#X connect 1 0 2 0;
#X connect 1 0 32 0;
#X connect 2 0 31 0;
#X connect 4 0 3 0;
#X connect 6 0 7 0;
#X connect 6 0 10 0;
#X connect 7 0 11 0;
#X connect 7 0 12 0;
#X connect 7 0 13 0;
#X connect 8 0 34 0;
#X connect 8 1 35 0;
#X connect 8 2 36 0;
#X connect 9 0 23 0;
#X connect 10 0 5 0;
#X connect 11 0 14 0;
#X connect 12 0 15 0;
#X connect 13 0 16 0;
#X connect 14 0 18 0;
#X connect 15 0 18 1;
#X connect 16 0 18 2;
#X connect 17 0 6 0;
#X connect 18 0 20 0;
#X connect 19 0 40 1;
#X connect 20 0 19 0;
#X connect 20 1 40 2;
#X connect 21 0 6 0;
#X connect 22 0 17 0;
#X connect 23 0 21 0;
#X connect 23 1 33 0;
#X connect 23 2 8 0;
#X connect 24 0 25 0;
#X connect 25 0 27 1;
#X connect 25 1 28 1;
#X connect 25 2 29 1;
#X connect 26 0 27 0;
#X connect 26 1 28 0;
#X connect 26 2 29 0;
#X connect 27 0 30 0;
#X connect 27 0 14 1;
#X connect 28 0 30 1;
#X connect 28 0 15 1;
#X connect 29 0 30 2;
#X connect 29 0 16 1;
#X connect 30 0 19 1;
#X connect 31 0 1 1;
#X connect 32 0 9 0;
#X connect 32 3 22 0;
#X connect 33 0 26 0;
#X connect 34 0 11 1;
#X connect 35 0 12 1;
#X connect 36 0 13 1;
#X connect 37 1 39 0;
#X connect 37 2 38 0;
#X restore -124 40 pd ruler;
#X connect 2 0 3 0;
#X connect 4 0 5 0;
#X connect 6 0 4 0;
#X connect 7 0 6 1;
#X connect 9 0 10 1;
#X connect 10 0 8 0;
#X connect 11 0 10 0;
#X connect 12 0 6 0;
#X connect 12 1 7 0;
#X connect 13 0 15 0;
#X connect 13 1 14 0;
#X connect 14 0 16 0;
#X connect 15 0 12 0;
#X connect 16 0 11 0;
#X connect 16 1 9 0;
#X connect 19 0 13 0;
#X connect 21 0 22 0;
#X connect 22 0 23 0;
#X connect 23 0 34 0;
#X connect 24 0 23 0;
#X connect 34 0 25 0;
#X restore -186 332 pd meta;
#N canvas 299 287 631 403 (subpatch) 0;
#X obj 34 35 r hid;
#X obj 100 72 zexy/list2symbol;
#N canvas 365 22 342 273 convert_pointer_to_anything 0;
#X obj 169 102 symbol;
#X obj 169 224 t a;
#X obj 104 177 spigot;
#X obj 137 147 0;
#X obj 232 169 b;
#X obj 232 192 1;
#X obj 104 8 inlet;
#X obj 104 246 outlet;
#X obj 104 35 t a a;
#X obj 169 58 list append foo;
#X obj 169 124 sel if(pointer);
#X msg 169 80 if\$1;
#X text 204 76 (hack to get pointer;
#X text 220 88 to substitute);
#X text 8 38 enormous;
#X text 14 60 hack;
#X text 15 84 to;
#X text 11 104 keep;
#X text 16 125 pointer;
#X text 14 144 from;
#X text 12 203 and crashing;
#X text 13 222 pd;
#X text 10 162 passing thru;
#X text 13 184 [route] and;
#X msg 169 146 (pointer);
#X connect 0 0 10 0;
#X connect 1 0 7 0;
#X connect 2 0 7 0;
#X connect 3 0 2 1;
#X connect 4 0 5 0;
#X connect 5 0 2 1;
#X connect 6 0 8 0;
#X connect 8 0 2 0;
#X connect 8 1 9 0;
#X connect 9 0 11 0;
#X connect 10 0 24 0;
#X connect 10 0 3 0;
#X connect 10 1 4 0;
#X connect 11 0 0 0;
#X connect 24 0 1 0;
#X restore 100 48 pd convert_pointer_to_anything;
#X symbolatom 100 102 28 0 0 0 - - -;
#X obj 144 25 r displayipad;
#X connect 0 0 2 0;
#X connect 1 0 3 0;
#X connect 2 0 1 0;
#X connect 4 0 2 0;
#X coords 0 -1 1 1 200 20 2 100 100;
#X restore -393 331 pd;
