#N canvas 705 101 638 625 10;
#X declare -lib mrpeach;
#X declare -path child;
#X declare -path moving;
#X declare -path GLSL;
#X declare -path space;
#X declare -path ../k_obj;
#X declare -path ../Pd-VJ;
#X declare -path ../pd-tweener;
#X declare -path ../diy2;
#X declare -path ../syphonserver;
#X declare -path ../pmpd;
#X declare -path ../netsend~;
#X declare -path ../leapmotion;
#X declare -lib mrpeach;
#X obj -5 -115 k_mic;
#X obj 2 281 ball;
#X obj 111 242 s_motion-s;
#X obj 110 -135 k_cpu;
#X obj -395 -205 s_motion-u;
#X obj 111 -6 s_motion-b;
#N canvas 373 214 712 538 (subpatch) 0;
#X obj 71 -87 r hid;
#X obj 100 72 zexy/list2symbol;
#N canvas 365 22 342 273 convert_pointer_to_anything 0;
#X obj 169 102 symbol;
#X obj 169 224 t a;
#X obj 104 177 spigot;
#X obj 137 147 0;
#X obj 232 169 b;
#X obj 232 192 1;
#X obj 104 8 inlet;
#X obj 104 246 outlet;
#X obj 104 35 t a a;
#X obj 169 58 list append foo;
#X obj 169 124 sel if(pointer);
#X msg 169 80 if\$1;
#X text 204 76 (hack to get pointer;
#X text 220 88 to substitute);
#X text 8 38 enormous;
#X text 14 60 hack;
#X text 15 84 to;
#X text 11 104 keep;
#X text 16 125 pointer;
#X text 14 144 from;
#X text 12 203 and crashing;
#X text 13 222 pd;
#X text 10 162 passing thru;
#X text 13 184 [route] and;
#X msg 169 146 (pointer);
#X connect 0 0 10 0;
#X connect 1 0 7 0;
#X connect 2 0 7 0;
#X connect 3 0 2 1;
#X connect 4 0 5 0;
#X connect 5 0 2 1;
#X connect 6 0 8 0;
#X connect 8 0 2 0;
#X connect 8 1 9 0;
#X connect 9 0 11 0;
#X connect 10 0 24 0;
#X connect 10 0 3 0;
#X connect 10 1 4 0;
#X connect 11 0 0 0;
#X connect 24 0 1 0;
#X restore 102 -32 pd convert_pointer_to_anything;
#X symbolatom 100 102 16 0 0 0 - - -;
#X obj 102 -66 r displayipad;
#X obj 194 191 unpack f f f;
#X obj 194 169 spigot;
#X floatatom 228 268 5 0 0 0 - - -;
#X floatatom 276 190 5 0 0 0 - - -;
#X obj 201 103 tgl 15 0 empty empty empty 17 7 0 10 -4034 -262144 -262144
0 1;
#X obj 74 1 route /accxyz;
#X obj 426 327 s toudp;
#X obj 426 300 packOSC;
#X msg 383 235 send /effect /5 /l \$1;
#X obj 323 131 del 100;
#X msg 324 154 0;
#X obj 399 92 sel 0;
#X msg 456 257 send /effect /5 /r \$1;
#X msg 491 54 send /effect /5 \$1;
#X obj 399 66 t f f f;
#X obj 491 29 change;
#X obj 194 233 k_speed 100;
#X floatatom 194 211 5 0 0 0 - - -;
#X obj 228 294 k_speed 100;
#X obj 145 349 s roXX;
#X obj 254 352 s roYY;
#X obj 244 146 s ipodRO;
#X obj 145 326 k_range -1 1 0 1;
#X obj 254 325 k_range -1 1 0 1;
#X obj 305 264 k_range -1 1 0 1;
#X obj 305 290 s roZZ;
#X obj 263 7 r touchosc;
#X obj 263 31 routeOSC /vj/xyz;
#X obj 263 55 tgl 15 0 empty empty empty 17 7 0 10 -262144 -1 -1 0
1;
#X obj 34 -107 r showipod;
#X obj 149 36 route /eq/25 /1/a1;
#X msg 497 195 send /effect /5 /c \$1;
#X obj 276 221 k_speed 100;
#X obj 403 -104 r hid;
#X obj 403 -84 t a a;
#X obj 403 -39 spigot;
#X obj 383 116 r t-mouse-x;
#X obj 497 77 r t-mouse-y;
#X floatatom 383 140 5 0 0 0 - - -;
#X floatatom 497 102 5 0 0 0 - - -;
#X obj 383 208 spigot;
#X obj 383 160 moses 1;
#X obj 497 124 moses 1;
#X obj 497 172 spigot;
#X msg 405 41 1;
#X obj 403 17 sel 1 0;
#X msg 441 39 0;
#X obj 504 -23 sel 0;
#X obj 119 196 s trigger3d;
#X text 548 -61 option+shift;
#X obj 436 -61 route key_226;
#X obj 119 174 change;
#X obj 383 185 k_range 0 1 -1 1;
#X obj 497 148 k_range 0 1 -1 1;
#X obj 403 -14 route key_224;
#X connect 0 0 2 0;
#X connect 1 0 3 0;
#X connect 2 0 10 0;
#X connect 4 0 2 0;
#X connect 5 0 22 0;
#X connect 5 1 7 0;
#X connect 5 2 8 0;
#X connect 6 0 5 0;
#X connect 7 0 23 0;
#X connect 7 0 28 0;
#X connect 8 0 29 0;
#X connect 8 0 37 0;
#X connect 9 0 19 0;
#X connect 9 0 26 0;
#X connect 9 0 45 1;
#X connect 9 0 48 1;
#X connect 9 0 56 0;
#X connect 10 0 6 0;
#X connect 10 1 1 0;
#X connect 10 1 35 0;
#X connect 12 0 11 0;
#X connect 13 0 12 0;
#X connect 14 0 15 0;
#X connect 15 0 13 0;
#X connect 15 0 17 0;
#X connect 15 0 36 0;
#X connect 16 0 14 0;
#X connect 17 0 12 0;
#X connect 18 0 12 0;
#X connect 19 0 16 0;
#X connect 19 1 6 1;
#X connect 19 2 20 0;
#X connect 20 0 18 0;
#X connect 21 0 13 0;
#X connect 22 0 21 0;
#X connect 22 0 27 0;
#X connect 23 0 17 0;
#X connect 27 0 24 0;
#X connect 28 0 25 0;
#X connect 29 0 30 0;
#X connect 31 0 32 0;
#X connect 32 0 33 0;
#X connect 33 0 9 0;
#X connect 34 0 2 0;
#X connect 35 0 9 0;
#X connect 35 1 9 0;
#X connect 36 0 12 0;
#X connect 37 0 36 0;
#X connect 38 0 39 0;
#X connect 39 0 40 0;
#X connect 39 1 55 0;
#X connect 40 0 59 0;
#X connect 41 0 43 0;
#X connect 42 0 44 0;
#X connect 43 0 46 0;
#X connect 44 0 47 0;
#X connect 45 0 13 0;
#X connect 45 0 17 0;
#X connect 46 0 57 0;
#X connect 47 0 58 0;
#X connect 48 0 36 0;
#X connect 49 0 9 0;
#X connect 50 0 49 0;
#X connect 50 1 51 0;
#X connect 51 0 9 0;
#X connect 52 0 51 0;
#X connect 55 0 40 1;
#X connect 55 0 52 0;
#X connect 56 0 53 0;
#X connect 57 0 45 0;
#X connect 58 0 48 0;
#X connect 59 0 50 0;
#X coords 0 -1 1 1 120 20 2 100 100;
#X restore 110 -158 pd;
#N canvas 338 85 656 671 friend 0;
#X obj -303 167 text2d;
#X obj -303 113 alpha;
#X obj -256 382 text2d;
#X obj -256 311 alpha;
#X msg -210 347 text Sheng-Po 1980-2014;
#X msg -234 136 text In memory of our best friend.;
#X obj -267 -27 loadbang;
#X obj -268 -53 bng 15 250 50 0 empty empty empty 17 7 0 10 -262144
-1 -1;
#X obj 22 41 bng 15 250 50 0 empty empty empty 17 7 0 10 -262144 -1
-1;
#X obj 22 69 t b b b b b b b;
#X obj 22 126 line;
#X obj -303 87 colorRGB 1 1 1 0;
#X obj -256 284 colorRGB 1 1 1 0;
#X msg 22 99 0 \, 1 5000;
#X obj 36 217 line;
#X msg 36 190 0 \, 1 5000;
#X obj 36 167 del 3000;
#X obj 102 149 line;
#X msg 102 126 1 \, 0 3000;
#X obj -115 281 loadbang;
#X msg -115 310 font ACaslonPro-BoldItalic.otf;
#X msg -267 134 30;
#X msg -191 385 28;
#X obj 22 -122 r hid;
#X obj 55 -63 route key_227;
#X obj 22 -11 route key_10;
#X obj 22 13 sel 1;
#X obj 22 -95 t a a;
#X obj 22 -37 spigot;
#X obj -256 246 translateXYZ 0 0 0;
#X obj -303 57 translateXYZ 0 0.8 0;
#X text 27 257 command+g;
#X text 26 279 menu eclipse;
#X obj 105 -20 r touchosc;
#X obj 105 4 routeOSC /gemctl/51;
#X obj 102 101 del 20000;
#X obj 116 278 tgl 15 0 empty empty empty 17 7 0 10 -262144 -1 -1 0
1;
#X obj 111 333 f;
#X obj 142 334 + 1;
#X obj 117 303 metro 1000;
#X obj 179 336 % 60;
#X obj 208 431 f;
#X obj 241 432 + 1;
#X obj 269 432 % 60;
#X obj 168 392 sel 0;
#X obj 141 366 t f f;
#X obj -97 484 packOSC;
#X obj -98 517 s totouch;
#X msg -96 460 send /eq/min \$1;
#X msg 34 480 send /eq/sec \$1;
#X obj 140 213 t b b;
#X msg 185 268 0;
#X msg 134 244 1;
#X floatatom 92 397 5 0 0 0 - - -;
#X floatatom 185 471 5 0 0 0 - - -;
#X obj -303 15 gemhead -5;
#X obj -256 219 gemhead -5;
#X connect 1 0 0 0;
#X connect 3 0 2 0;
#X connect 4 0 2 0;
#X connect 5 0 0 0;
#X connect 6 0 21 0;
#X connect 6 0 5 0;
#X connect 6 0 4 0;
#X connect 6 0 22 0;
#X connect 7 0 6 0;
#X connect 8 0 9 0;
#X connect 8 0 50 0;
#X connect 9 0 13 0;
#X connect 9 1 16 0;
#X connect 9 2 35 0;
#X connect 10 0 11 4;
#X connect 11 0 1 0;
#X connect 12 0 3 0;
#X connect 13 0 10 0;
#X connect 14 0 12 4;
#X connect 15 0 14 0;
#X connect 16 0 15 0;
#X connect 17 0 12 4;
#X connect 17 0 11 4;
#X connect 18 0 17 0;
#X connect 19 0 20 0;
#X connect 20 0 2 0;
#X connect 20 0 0 0;
#X connect 21 0 0 1;
#X connect 22 0 2 1;
#X connect 23 0 27 0;
#X connect 24 0 28 1;
#X connect 25 0 26 0;
#X connect 26 0 8 0;
#X connect 27 0 28 0;
#X connect 27 1 24 0;
#X connect 28 0 25 0;
#X connect 29 0 12 0;
#X connect 30 0 11 0;
#X connect 33 0 34 0;
#X connect 34 0 8 0;
#X connect 35 0 18 0;
#X connect 36 0 39 0;
#X connect 37 0 38 0;
#X connect 37 0 45 0;
#X connect 37 0 49 0;
#X connect 37 0 53 0;
#X connect 38 0 40 0;
#X connect 39 0 37 0;
#X connect 40 0 37 1;
#X connect 41 0 42 0;
#X connect 41 0 48 0;
#X connect 41 0 54 0;
#X connect 42 0 43 0;
#X connect 43 0 41 1;
#X connect 44 0 41 0;
#X connect 45 1 44 0;
#X connect 46 0 47 0;
#X connect 48 0 46 0;
#X connect 49 0 46 0;
#X connect 50 0 52 0;
#X connect 50 1 51 0;
#X connect 51 0 37 1;
#X connect 51 0 41 1;
#X connect 52 0 36 0;
#X connect 55 0 30 0;
#X connect 56 0 29 0;
#X restore 172 -177 pd friend;
#X obj -83 281 planet;
#X obj -395 13 k_win;
#X obj -167 281 ship;
#X obj 109 -196 tgl 15 0 empty empty empty 17 7 0 10 -262144 -1 -1
1 1;
#X text -158 246 832 665;
#X text -158 261 480 384;
#N canvas 190 587 793 332 syphon 0;
#X obj 165 125 declare -path child;
#X obj 166 148 declare -path moving;
#X obj 166 173 loadbang;
#X msg 166 196 \; pd dsp 1;
#X obj 327 191 makefilename pd-%s;
#X msg 327 214 \; \$1 menuclose \;;
#X obj 327 169 symbol;
#X obj 403 142 symbol;
#X msg 504 223 \; pd open \$1 \$2;
#X obj 549 158 getdir;
#X obj 504 200 pack s s;
#X obj 504 158 symbol;
#X obj 334 112 t b a;
#X obj 392 27 sel 0 1;
#X msg 461 67 0.note.pd;
#X msg 334 87 0.note.pd;
#X obj 461 92 t a b;
#X obj 165 100 declare -path GLSL;
#X obj 166 78 declare -path space;
#X obj 392 -9 tgl 30 0 empty empty empty 17 7 0 10 -262144 -1 -1 0
1;
#X text 389 -38 leapmotion;
#X obj 235 -69 loadbang;
#X msg 235 -47 0;
#X obj 235 -6 tgl 15 0 empty empty empty 17 7 0 10 -262144 -1 -1 1
1;
#X obj 263 -46 inlet;
#X obj 235 51 syphonserver aluan_pd;
#X obj -125 97 declare -path ../k_obj;
#X obj -125 120 declare -path ../Pd-VJ;
#X obj -125 143 declare -path ../pd-tweener;
#X obj -128 175 declare -path ../diy2;
#X obj -128 198 declare -path ../syphonserver;
#X obj -128 221 declare -path ../pmpd;
#X obj -127 245 declare -path ../netsend~;
#X obj -149 70 declare -path ../leapmotion;
#N canvas 785 261 613 487 ruler 0;
#X obj -515 66 metro 1000;
#X obj -514 95 f;
#X obj -486 96 + 1;
#X obj -514 39 tgl 15 0 empty empty empty 17 7 0 10 -262144 -1 -1 1
1;
#X obj -513 12 loadbang;
#X obj -856 297 gemhead;
#X obj -798 147 line;
#X obj -798 170 inoutexpo;
#X obj -736 117 t b b b b b;
#X obj -798 66 bng 15 250 50 0 empty empty empty 17 7 0 10 -262144
-1 -1;
#X obj -855 270 > 0;
#X obj -795 234 *;
#X obj -758 232 *;
#X obj -715 232 *;
#X obj -795 263 +;
#X obj -760 264 +;
#X obj -717 265 +;
#X msg -697 62 1 \, 0 500;
#X obj -795 303 pack f f f;
#X obj -836 384 list;
#X obj -794 335 t b a;
#X msg -798 117 0 \, 1 2000;
#X obj -697 41 bng 15 250 50 0 empty empty empty 17 7 0 10 -262144
-1 -1;
#X obj -798 87 t b b b b;
#X obj -986 76 r targetpoint;
#X obj -986 101 unpack f f f;
#X obj -899 99 unpack f f f;
#X obj -947 150 +;
#X obj -910 152 +;
#X obj -876 153 +;
#X obj -943 210 pack f f f;
#X obj -458 96 % 5;
#X obj -516 130 sel 0 1 2 3 4;
#X obj -899 76 tripleRand 0.2;
#X obj -736 169 randomF 5;
#X obj -674 168 randomF 5;
#X obj -613 168 randomF 5;
#X obj -648 248 part_info;
#X msg -623 369 x y z;
#X msg -636 390 ID;
#X obj -855 437 vj_ruler3d;
#X connect 0 0 1 0;
#X connect 1 0 2 0;
#X connect 1 0 32 0;
#X connect 2 0 31 0;
#X connect 4 0 3 0;
#X connect 6 0 7 0;
#X connect 6 0 10 0;
#X connect 7 0 11 0;
#X connect 7 0 12 0;
#X connect 7 0 13 0;
#X connect 8 0 34 0;
#X connect 8 1 35 0;
#X connect 8 2 36 0;
#X connect 9 0 23 0;
#X connect 10 0 5 0;
#X connect 11 0 14 0;
#X connect 12 0 15 0;
#X connect 13 0 16 0;
#X connect 14 0 18 0;
#X connect 15 0 18 1;
#X connect 16 0 18 2;
#X connect 17 0 6 0;
#X connect 18 0 20 0;
#X connect 19 0 40 1;
#X connect 20 0 19 0;
#X connect 20 1 40 2;
#X connect 21 0 6 0;
#X connect 22 0 17 0;
#X connect 23 0 21 0;
#X connect 23 1 33 0;
#X connect 23 2 8 0;
#X connect 24 0 25 0;
#X connect 25 0 27 1;
#X connect 25 1 28 1;
#X connect 25 2 29 1;
#X connect 26 0 27 0;
#X connect 26 1 28 0;
#X connect 26 2 29 0;
#X connect 27 0 30 0;
#X connect 27 0 14 1;
#X connect 28 0 30 1;
#X connect 28 0 15 1;
#X connect 29 0 30 2;
#X connect 29 0 16 1;
#X connect 30 0 19 1;
#X connect 31 0 1 1;
#X connect 32 0 9 0;
#X connect 32 3 22 0;
#X connect 33 0 26 0;
#X connect 34 0 11 1;
#X connect 35 0 12 1;
#X connect 36 0 13 1;
#X connect 37 1 39 0;
#X connect 37 2 38 0;
#X restore -124 40 pd ruler;
#X obj 235 26 gemhead 99999;
#X msg 312 3 set \$1;
#X obj 312 -89 r gemlayer;
#X obj 312 -67 sel 0 1;
#X msg 312 -43 10000;
#X msg 331 -19 -1;
#X connect 2 0 3 0;
#X connect 4 0 5 0;
#X connect 6 0 4 0;
#X connect 7 0 6 1;
#X connect 9 0 10 1;
#X connect 10 0 8 0;
#X connect 11 0 10 0;
#X connect 12 0 6 0;
#X connect 12 1 7 0;
#X connect 13 0 15 0;
#X connect 13 1 14 0;
#X connect 14 0 16 0;
#X connect 15 0 12 0;
#X connect 16 0 11 0;
#X connect 16 1 9 0;
#X connect 19 0 13 0;
#X connect 21 0 22 0;
#X connect 22 0 23 0;
#X connect 23 0 35 0;
#X connect 24 0 23 0;
#X connect 35 0 25 0;
#X connect 36 0 35 0;
#X connect 37 0 38 0;
#X connect 38 0 39 0;
#X connect 38 1 40 0;
#X connect 39 0 36 0;
#X connect 40 0 36 0;
#X restore 109 -177 pd syphon;
#X obj -5 -192 k_ui;
#X obj -107 14 k_effect;
#X obj 111 -70 k_udp;
#X obj -164 362 vj_spacedot;
#X obj 111 118 s_motion-r;
#X obj -281 323 vj_maze;
#X obj -395 246 vj_worm;
#X obj -396 208 vj_ocean;
#X obj -395 323 vj_nebulas 16;
#X obj -280 362 vj_drawmodel;
#X obj -281 246 vj_neontrails;
#X obj -395 284 vj_sun 14;
#X obj -282 206 vj_cloud;
#X obj -394 362 vj_drawmodel_2;
#X obj -281 284 vj_grid 16;
#X connect 11 0 14 0;
