#N canvas 107 416 291 316 10;
#N canvas 489 225 712 517 midi 0;
#X text 104 220 1.用File開啓程式 記得開提示 k_gui;
#X text 104 236 2.[midi]&[sound] 輸出選擇 [udp]連線;
#X text 104 252 3.[nedsent~]連線麥克風偵測[tgl];
#X text 104 267 4.計時開關 影像Fade in;
#X text 105 283 5.打開子母畫面 k_gui;
#X obj 156 42 loadbang;
#X obj 239 162 image midi.gif;
#X msg 156 67 open midi.gif;
#X text 105 348 9.[space] change mouse mode;
#X text 105 331 8.[option+12345] Post Effect;
#X text 105 316 7.[shift+asdwxe] Camera Control;
#X text 105 364 10.[option+enter]end;
#X text 105 300 6.[shift+num12345] Show Gui;
#X connect 5 0 7 0;
#X connect 7 0 6 0;
#X coords 0 -1 1 1 280 300 1 100 100;
#X restore -43 5 pd midi;
