#N canvas 204 72 402 561 10;
#X declare -lib mrpeach;
#X declare -lib mrpeach;
#X declare -path child;
#X declare -path ../k_obj;
#X declare -path ../diy2;
#X declare -path ../pmpd;
#X declare -path ../netsend~;
#X declare -path ../pd-tweener;
#X declare -path ../outerspace;
#N canvas 461 22 634 553 fader 0;
#X obj 500 84 r 3d;
#N canvas 664 326 648 429 3d-sound&k_vol_l====================== 0
;
#X obj 85 270 outlet~;
#X obj 152 269 outlet~;
#X obj 207 21 loadbang;
#X obj 81 -68 inlet~;
#X obj 138 -73 inlet~;
#X obj 480 -138 inlet;
#X obj 100 100 st-peakfilter /key;
#X obj -3 175 catch~ no-effect-l;
#X obj 203 -26 line~;
#X obj 497 25 line~;
#X obj 112 -5 *~;
#X obj 164 -4 *~;
#X obj 74 221 *~;
#X obj 126 222 *~;
#X obj 231 -74 invert;
#X msg 497 -1 \$1 100;
#X msg 204 -51 \$1 100;
#X obj 204 -97 t f f;
#X msg 207 41 0 0.6 \, 2 0.33 \, 1 0.8;
#X obj 155 180 catch~ no-effect-r;
#X connect 2 0 18 0;
#X connect 3 0 12 0;
#X connect 3 0 10 0;
#X connect 4 0 13 0;
#X connect 4 0 11 0;
#X connect 5 0 17 0;
#X connect 6 0 0 0;
#X connect 6 1 1 0;
#X connect 7 0 0 0;
#X connect 8 0 10 1;
#X connect 8 0 11 1;
#X connect 9 0 12 1;
#X connect 9 0 13 1;
#X connect 10 0 6 0;
#X connect 11 0 6 1;
#X connect 12 0 0 0;
#X connect 13 0 1 0;
#X connect 14 0 15 0;
#X connect 15 0 9 0;
#X connect 16 0 8 0;
#X connect 17 0 16 0;
#X connect 17 1 14 0;
#X connect 18 0 6 2;
#X connect 19 0 1 0;
#X coords 0 -1 1 1 180 65 2 100 100;
#X restore 292 271 pd 3d-sound&k_vol_l======================;
#X obj 478 261 r e-bloom-tgl;
#X obj 478 284 tgl 30 0 empty empty bloom 0 15 0 10 -262144 -1 -1 0
1;
#X obj 500 106 tgl 30 0 empty empty 3d 5 15 0 10 -262144 -1 -1 1 1
;
#N canvas 804 117 636 641 e-bloom===================== 0;
#X obj 363 -290 inlet;
#X obj 69 -11 inlet~;
#X obj 134 -11 inlet~;
#X obj 100 100 st-shaper /key;
#X obj 69 258 outlet~;
#X obj 263 259 outlet~;
#X obj 115 -162 loadbang;
#X obj 363 -193 line~;
#X obj 390 -128 line~;
#X obj 69 42 *~;
#X obj 390 -241 invert;
#X obj 363 -264 t f f;
#X obj 161 42 *~;
#X obj 97 42 *~;
#X obj 134 42 *~;
#X msg 390 -153 \$1 200;
#X msg 363 -219 \$1 200;
#X msg 115 -139 0 0.6 \, 1 0.5 \, 2 0 \, 3 0.1;
#X connect 0 0 11 0;
#X connect 1 0 9 0;
#X connect 1 0 13 0;
#X connect 2 0 12 0;
#X connect 2 0 14 0;
#X connect 3 0 4 0;
#X connect 3 1 5 0;
#X connect 6 0 17 0;
#X connect 7 0 13 1;
#X connect 7 0 12 1;
#X connect 8 0 9 1;
#X connect 8 0 14 1;
#X connect 9 0 4 0;
#X connect 10 0 15 0;
#X connect 11 0 16 0;
#X connect 11 1 10 0;
#X connect 12 0 3 1;
#X connect 13 0 3 0;
#X connect 14 0 5 0;
#X connect 15 0 8 0;
#X connect 16 0 7 0;
#X connect 17 0 3 2;
#X coords 0 -1 1 1 180 65 2 100 100;
#X restore 294 106 pd e-bloom=====================;
#N canvas 169 216 873 507 dir-vector========== 0;
#X obj 103 57 *~;
#X obj 146 58 *~;
#X obj 100 176 outlet~;
#X obj 217 176 outlet~;
#X obj 100 100 st-bitcrusher /key;
#N canvas 749 71 540 723 4-channel========================== 0;
#X obj -4 -483 expr 1-$f1;
#X obj -48 -506 t f f;
#X floatatom -48 -482 5 0 0 0 - - -;
#X obj -114 47 sig~;
#X obj -3 55 sig~;
#X obj 238 -478 expr 1-$f1;
#X obj 194 -504 t f f;
#X obj 164 49 sig~;
#X obj 274 43 sig~;
#X obj 16 -367 +;
#X obj 16 -341 +;
#X obj 16 -318 +;
#X floatatom 16 -297 5 0 0 0 - - -;
#X obj 16 -430 expr if($f1>$f2 && $f1>$f3 && $f1>$f4 \, 1 \, 0) \;
if($f2>$f1 && $f2>$f3 && $f2>$f4 \, 2 \, 0) \; if($f3>$f1 && $f3>$f2
&& $f3>$f4 \, 3 \, 0) \; if($f4>$f1 && $f4>$f2 && $f4>$f3 \, 4 \, 0)
\;;
#X obj -114 -112 spigot;
#X obj 16 -275 sel 0 1 2 3 4;
#X msg 16 -249 1 1 1 1;
#X msg 80 -158 0 0 0 1;
#X msg 65 -181 0 0 1 0;
#X msg 51 -204 0 1 0 0;
#X msg 30 -226 1 0 0 0;
#X obj -3 -101 spigot;
#X obj 164 -97 spigot;
#X obj 274 -101 spigot;
#X obj -87 -60 expr 1-$f1;
#X obj -114 -88 t f f;
#X obj -114 25 line;
#X obj -3 33 line;
#X obj 164 23 line;
#X obj 274 20 line;
#X obj 15 -129 unpack f f f f;
#X obj 24 -53 expr 1-$f1;
#X obj -3 -75 t f f;
#X obj 191 -52 expr 1-$f1;
#X obj 164 -74 t f f;
#X obj 301 -56 expr 1-$f1;
#X obj 274 -78 t f f;
#X obj -48 -459 t f f;
#X obj -4 -458 t f f;
#X obj 194 -455 t f f;
#X obj 238 -454 t f f;
#X obj -114 72 outlet~;
#X obj -3 77 outlet~;
#X obj 164 74 outlet~;
#X obj 273 71 outlet~;
#X obj 102 109 nbx 4 14 -1e+37 1e+37 0 0 empty empty empty 0 -8 0 10
-262144 -1 -1 0.398192 256;
#X obj 151 109 nbx 4 14 -1e+37 1e+37 0 0 empty empty empty 0 -8 0 10
-262144 -1 -1 0.398192 256;
#X obj 103 139 nbx 4 14 -1e+37 1e+37 0 0 empty empty empty 0 -8 0 10
-262144 -1 -1 0.398192 256;
#X obj 153 139 nbx 4 14 -1e+37 1e+37 0 0 empty empty empty 0 -8 0 10
-262144 -1 -1 0.601808 256;
#X obj -81 -133 tgl 15 0 empty empty empty 17 7 0 10 -262144 -1 -1
0 1;
#X obj 44 -98 tgl 15 0 empty empty empty 17 7 0 10 -262144 -1 -1 0
1;
#X obj 196 -117 tgl 15 0 empty empty empty 17 7 0 10 -262144 -1 -1
0 1;
#X obj 307 -121 tgl 15 0 empty empty empty 17 7 0 10 -262144 -1 -1
1 1;
#X msg -114 2 \$1 300;
#X msg -3 7 \$1 300;
#X msg 164 -5 \$1 300;
#X msg 275 -9 \$1 300;
#X obj -48 -654 r fader;
#X floatatom -48 -582 5 0 0 0 - - -;
#X floatatom -48 -629 5 0 0 0 - - -;
#X obj 93 -650 r v-distance;
#X floatatom 93 -628 5 0 0 0 - - -;
#X obj -48 -606 expr (($f1+$f2))/($f2*2);
#X obj -48 -532 expr if($f1<0.5 \, ($f1/0.5)*-0.5+1 \, 1-$f1 );
#X floatatom 223 -624 5 0 0 0 - - -;
#X obj 223 -601 expr (($f1+$f2))/($f2*2);
#X floatatom 223 -577 5 0 0 0 - - -;
#X obj 223 -531 expr if($f1<0.5 \, ($f1/0.5)*-0.5+1 \, 1-$f1 );
#X obj 223 -648 r fadery;
#X obj 364 -648 r v-distance;
#X floatatom 364 -625 5 0 0 0 - - -;
#X obj -48 -564 k_range 0 1 0.3 0.7;
#X obj 223 -553 k_range 0 1 0.3 0.7;
#X connect 0 0 38 0;
#X connect 1 0 2 0;
#X connect 1 1 0 0;
#X connect 2 0 37 0;
#X connect 3 0 41 0;
#X connect 4 0 42 0;
#X connect 5 0 40 0;
#X connect 6 0 39 0;
#X connect 6 1 5 0;
#X connect 7 0 43 0;
#X connect 8 0 44 0;
#X connect 9 0 10 0;
#X connect 10 0 11 0;
#X connect 11 0 12 0;
#X connect 12 0 15 0;
#X connect 13 0 9 0;
#X connect 13 1 9 1;
#X connect 13 2 10 1;
#X connect 13 3 11 1;
#X connect 14 0 25 0;
#X connect 15 0 16 0;
#X connect 15 1 20 0;
#X connect 15 2 19 0;
#X connect 15 3 18 0;
#X connect 15 4 17 0;
#X connect 16 0 30 0;
#X connect 17 0 30 0;
#X connect 18 0 30 0;
#X connect 19 0 30 0;
#X connect 20 0 30 0;
#X connect 21 0 32 0;
#X connect 22 0 34 0;
#X connect 23 0 36 0;
#X connect 24 0 54 0;
#X connect 24 0 55 0;
#X connect 24 0 56 0;
#X connect 25 0 53 0;
#X connect 25 1 24 0;
#X connect 26 0 3 0;
#X connect 26 0 45 0;
#X connect 27 0 4 0;
#X connect 27 0 46 0;
#X connect 28 0 7 0;
#X connect 28 0 47 0;
#X connect 29 0 8 0;
#X connect 29 0 48 0;
#X connect 30 0 49 0;
#X connect 30 1 50 0;
#X connect 30 2 51 0;
#X connect 30 3 52 0;
#X connect 31 0 53 0;
#X connect 31 0 55 0;
#X connect 31 0 56 0;
#X connect 32 0 54 0;
#X connect 32 1 31 0;
#X connect 33 0 56 0;
#X connect 33 0 54 0;
#X connect 33 0 53 0;
#X connect 34 0 55 0;
#X connect 34 1 33 0;
#X connect 35 0 55 0;
#X connect 35 0 54 0;
#X connect 35 0 53 0;
#X connect 36 0 56 0;
#X connect 36 1 35 0;
#X connect 37 0 14 0;
#X connect 37 1 13 0;
#X connect 38 0 21 0;
#X connect 38 1 13 1;
#X connect 39 0 13 2;
#X connect 39 1 22 0;
#X connect 40 0 13 3;
#X connect 40 1 23 0;
#X connect 49 0 14 1;
#X connect 50 0 21 1;
#X connect 51 0 22 1;
#X connect 52 0 23 1;
#X connect 53 0 26 0;
#X connect 54 0 27 0;
#X connect 55 0 28 0;
#X connect 56 0 29 0;
#X connect 57 0 59 0;
#X connect 58 0 71 0;
#X connect 59 0 62 0;
#X connect 60 0 61 0;
#X connect 61 0 62 1;
#X connect 62 0 58 0;
#X connect 63 0 1 0;
#X connect 64 0 65 0;
#X connect 65 0 66 0;
#X connect 66 0 72 0;
#X connect 67 0 6 0;
#X connect 68 0 64 0;
#X connect 69 0 70 0;
#X connect 70 0 65 1;
#X connect 71 0 63 0;
#X connect 72 0 67 0;
#X coords 0 -1 1 1 100 60 2 100 100;
#X restore 119 -83 pd 4-channel==========================;
#X obj 445 19 inlet;
#X obj 11 8 inlet~;
#X obj 54 7 inlet~;
#X obj 103 7 inlet~;
#X obj 146 30 inlet~;
#X connect 0 0 4 0;
#X connect 1 0 4 1;
#X connect 4 0 2 0;
#X connect 4 1 3 0;
#X connect 5 0 0 1;
#X connect 5 1 1 1;
#X connect 6 0 4 2;
#X connect 7 0 4 0;
#X connect 8 0 4 1;
#X connect 9 0 0 0;
#X connect 10 0 1 0;
#X coords 0 -1 1 1 180 65 2 100 100;
#X restore 105 105 pd dir-vector==========;
#N canvas 288 332 726 325 midi 0;
#X obj 288 50 loadbang;
#X msg 288 77 0 0.5 \, 1 0.5 \, 2 0.5 \, 3 0.5;
#X obj 142 205 outlet;
#X obj 52 -66 r smidi-16;
#X obj 78 -40 r smidi-17;
#X obj 116 -15 r smidi-18;
#X obj 144 11 r smidi-19;
#X msg 86 178 0 \$1;
#X msg 138 166 1 \$1;
#X msg 178 157 2 \$1;
#X msg 222 176 3 \$1;
#X obj 53 144 line;
#X obj 100 144 line;
#X obj 154 134 line;
#X obj 201 134 line;
#X msg 52 112 \$1 2000;
#X msg 99 112 \$1 2000;
#X msg 153 102 \$1 2000;
#X msg 200 102 \$1 2000;
#X obj 419 -10 r eq;
#X obj 410 23 sel 1;
#X msg 343 126 0.5;
#X connect 0 0 1 0;
#X connect 1 0 2 0;
#X connect 3 0 15 0;
#X connect 4 0 16 0;
#X connect 5 0 17 0;
#X connect 6 0 18 0;
#X connect 7 0 2 0;
#X connect 8 0 2 0;
#X connect 9 0 2 0;
#X connect 10 0 2 0;
#X connect 11 0 7 0;
#X connect 12 0 8 0;
#X connect 13 0 9 0;
#X connect 14 0 10 0;
#X connect 15 0 11 0;
#X connect 16 0 12 0;
#X connect 17 0 13 0;
#X connect 18 0 14 0;
#X connect 19 0 20 0;
#X connect 20 0 21 0;
#X connect 21 0 18 0;
#X connect 21 0 17 0;
#X connect 21 0 16 0;
#X connect 21 0 15 0;
#X restore -3 346 pd midi;
#X obj 503 152 r e-wave-tgl;
#X obj 503 176 tgl 30 0 empty empty wave 5 15 0 10 -262144 -1 -1 0
1;
#N canvas 176 198 784 524 e-wave===================== 0;
#X obj 383 -268 inlet;
#X obj 51 -58 inlet~;
#X obj 106 -59 inlet~;
#X obj 82 293 outlet~;
#X obj 142 292 outlet~;
#X obj 100 100 st-phaser /key;
#X obj 193 -158 loadbang;
#X msg 193 -132 0 0.9 \, 1 0.9;
#X obj 383 -173 line~;
#X obj 410 -108 line~;
#X obj 117 48 *~;
#X obj 383 -244 t f f;
#X obj 86 -2 *~;
#X obj 38 2 *~;
#X obj 154 48 *~;
#X msg 410 -133 \$1 200;
#X msg 383 -198 \$1 200;
#X obj 382 -222 invert;
#X connect 0 0 11 0;
#X connect 1 0 13 0;
#X connect 1 0 10 0;
#X connect 2 0 12 0;
#X connect 2 0 14 0;
#X connect 5 0 3 0;
#X connect 5 1 4 0;
#X connect 6 0 7 0;
#X connect 7 0 5 2;
#X connect 8 0 13 1;
#X connect 8 0 12 1;
#X connect 9 0 10 1;
#X connect 9 0 14 1;
#X connect 10 0 5 0;
#X connect 11 0 17 0;
#X connect 11 1 15 0;
#X connect 12 0 4 0;
#X connect 13 0 3 0;
#X connect 14 0 5 1;
#X connect 15 0 9 0;
#X connect 16 0 8 0;
#X connect 17 0 16 0;
#X coords 0 -1 1 1 180 89 2 100 100;
#X restore 294 176 pd e-wave=====================;
#N canvas 803 220 358 372 (subpatch) 0;
#X obj 4 0 hsl 174 40 0 1 0 0 empty empty main_1 5 18 0 16 -1 -258113
-262144 17300 1;
#X obj -102 -134 r u-all-vol;
#X obj 1 109 s ctl-all;
#X obj 1 -38 t f f;
#X floatatom 1 -93 5 0 0 0 - - -;
#X msg 75 -43 label main_\$1;
#X obj 81 -119 r universe-tgl;
#X obj 1 86 line;
#X msg 1 62 \$1 500;
#X obj 1 -199 r gem-fade;
#X floatatom 1 -175 5 0 0 0 - - -;
#X msg 1 -153 \$1 500;
#X obj 1 -128 line;
#X connect 0 0 8 0;
#X connect 3 0 0 0;
#X connect 3 1 5 0;
#X connect 4 0 3 0;
#X connect 5 0 0 0;
#X connect 7 0 2 0;
#X connect 8 0 7 0;
#X connect 9 0 10 0;
#X connect 10 0 11 0;
#X connect 11 0 12 0;
#X connect 12 0 4 0;
#X coords 0 1 100 -1 180 40 1 0 0;
#X restore 211 466 graph;
#N canvas 581 48 646 588 ctl-stetro 0;
#X obj 117 -69 r 1-metro;
#X obj 116 42 line;
#X obj 137 -199 r 1-metro;
#X obj 74 -146 spigot;
#X obj 74 -204 r 6-mono;
#X obj 74 -179 unpack;
#X obj 74 -121 sel 1;
#X obj 137 -172 > 40;
#X msg 74 -42 \$1 50;
#X msg 117 -14 0.1 0;
#X msg 158 -17 0.5 5000;
#X obj 74 -91 randomF 0.3;
#X obj 74 -67 + 0.3;
#X msg 189 27 0.1 5000;
#X msg 140 7 0.8 5000;
#X obj 154 172 outlet;
#X floatatom 154 115 5 0 0 0 - - -;
#X obj 117 -47 sel 0 15 25 55 70;
#X obj 220 100 spigot;
#X obj 253 78 tgl 15 0 empty empty empty 17 7 0 10 -262144 -1 -1 1
1;
#X obj 253 45 loadbang;
#X msg 220 -18 1;
#X msg 159 60 0;
#X obj 23 49 r smidi-20;
#X msg 25 81 \$1 2000;
#X obj 24 105 line;
#X connect 0 0 17 0;
#X connect 1 0 16 0;
#X connect 2 0 7 0;
#X connect 3 0 6 0;
#X connect 4 0 5 0;
#X connect 5 0 3 0;
#X connect 6 0 11 0;
#X connect 7 0 3 1;
#X connect 8 0 1 0;
#X connect 9 0 1 0;
#X connect 10 0 1 0;
#X connect 11 0 12 0;
#X connect 12 0 8 0;
#X connect 13 0 1 0;
#X connect 14 0 1 0;
#X connect 16 0 15 0;
#X connect 17 0 9 0;
#X connect 17 0 22 0;
#X connect 17 1 14 0;
#X connect 17 2 10 0;
#X connect 17 3 13 0;
#X connect 17 4 21 0;
#X connect 18 0 16 0;
#X connect 19 0 18 1;
#X connect 20 0 19 0;
#X connect 21 0 19 0;
#X connect 22 0 19 0;
#X connect 23 0 24 0;
#X connect 24 0 25 0;
#X connect 25 0 16 0;
#X restore 10 415 pd ctl-stetro;
#N canvas 187 138 591 628 e-bloom===================== 0;
#X obj 382 -278 inlet;
#X obj 77 -28 inlet~;
#X obj 132 -29 inlet~;
#X obj 67 224 outlet~;
#X obj 177 229 outlet~;
#X obj 208 33 loadbang;
#X obj 100 100 st-flanger /key;
#X msg 208 58 0 0.9 \, 1 0.5 2 0.7 \, 3 1 \, 4 0.5;
#X obj 382 -180 line~;
#X obj 409 -115 line~;
#X obj 88 55 *~;
#X obj 409 -228 invert;
#X obj 382 -251 t f f;
#X obj 180 55 *~;
#X obj 116 55 *~;
#X obj 153 55 *~;
#X msg 409 -140 \$1 200;
#X msg 382 -205 \$1 200;
#X connect 0 0 12 0;
#X connect 1 0 10 0;
#X connect 1 0 14 0;
#X connect 2 0 15 0;
#X connect 2 0 13 0;
#X connect 5 0 7 0;
#X connect 6 0 3 0;
#X connect 6 1 4 0;
#X connect 7 0 6 2;
#X connect 8 0 14 1;
#X connect 8 0 13 1;
#X connect 9 0 10 1;
#X connect 9 0 15 1;
#X connect 10 0 3 0;
#X connect 11 0 16 0;
#X connect 12 0 17 0;
#X connect 12 1 11 0;
#X connect 13 0 6 1;
#X connect 14 0 6 0;
#X connect 15 0 4 0;
#X connect 16 0 9 0;
#X connect 17 0 8 0;
#X coords 0 -1 1 1 180 89 2 100 100;
#X restore 105 176 pd e-bloom=====================;
#X obj 4 158 tgl 30 0 empty empty time 5 15 0 10 -262144 -1 -1 0 1
;
#X obj 4 137 r e-time-tgl;
#X obj 115 22 catch~ ch1;
#X obj 188 24 catch~ ch2;
#X obj 163 81 catch~ u-all-r;
#X obj 105 59 catch~ u-all-l;
#N canvas 130 364 774 356 flash 0;
#X obj 218 249 outlet;
#X msg 186 124 0 \$1;
#X floatatom 186 103 5 0 0 0 - - -;
#X obj 347 -30 r 1-metro;
#X msg 347 128 0 \$1;
#X obj 347 58 expr 1-((($f1-20)/10)*0.5);
#X obj 347 -3 expr if($f1<20 \, 20 \, $f1);
#X obj 347 28 expr if($f1>30 \, 30 \, $f1);
#X obj 476 105 r 1-metro;
#X obj 408 83 r 6-mono;
#X obj 441 154 spigot;
#X obj 441 178 sel 1;
#X obj 441 204 randomF 1;
#X msg 441 229 1 \$1;
#X obj 537 120 r 1-metro;
#X msg 537 171 1;
#X msg 347 84 \$1 1600;
#X obj 347 107 line;
#X obj 476 128 > 35;
#X obj 408 107 unpack;
#X obj 537 148 sel 0 70;
#X msg 560 213 1;
#X msg 518 214 0;
#X obj 218 197 spigot;
#X obj 251 174 tgl 15 0 empty empty empty 17 7 0 10 -262144 -1 -1 1
1;
#X obj 251 127 loadbang;
#X msg 251 148 1;
#X obj 109 -43 r v-distance;
#X floatatom 109 -16 5 0 0 0 - - -;
#X obj 109 11 k_event 1.7 4;
#X obj 183 40 k_event 4 13;
#X msg 50 91 1 \$1;
#X floatatom 50 68 5 0 0 0 - - -;
#X obj 50 42 k_range 1.7 4 0.7 1;
#X obj 183 72 k_range 4 13 1 0.7;
#X obj -18 129 r smidi-23;
#X obj 97 150 r smidi-24;
#X obj -19 157 k_range 0 1 1 0.6;
#X msg -19 237 0 \$1;
#X obj -17 209 line;
#X obj 100 185 k_range 0 1 1 0.6;
#X obj 102 237 line;
#X msg 100 265 1 \$1;
#X obj 45 206 loadbang;
#X msg 44 229 set 1;
#X msg 102 214 \$1 1000;
#X msg -17 186 \$1 1000;
#X connect 2 0 1 0;
#X connect 3 0 6 0;
#X connect 4 0 0 0;
#X connect 5 0 16 0;
#X connect 6 0 7 0;
#X connect 7 0 5 0;
#X connect 8 0 18 0;
#X connect 9 0 19 0;
#X connect 10 0 11 0;
#X connect 11 0 12 0;
#X connect 12 0 13 0;
#X connect 13 0 0 0;
#X connect 14 0 20 0;
#X connect 15 0 13 0;
#X connect 16 0 17 0;
#X connect 17 0 4 0;
#X connect 18 0 10 1;
#X connect 19 0 10 0;
#X connect 20 0 15 0;
#X connect 20 0 22 0;
#X connect 20 1 21 0;
#X connect 21 0 24 0;
#X connect 22 0 24 0;
#X connect 23 0 0 0;
#X connect 24 0 23 1;
#X connect 25 0 26 0;
#X connect 26 0 24 0;
#X connect 27 0 28 0;
#X connect 28 0 29 0;
#X connect 29 0 33 0;
#X connect 29 1 30 0;
#X connect 30 0 34 0;
#X connect 32 0 31 0;
#X connect 33 0 32 0;
#X connect 34 0 2 0;
#X connect 35 0 37 0;
#X connect 36 0 40 0;
#X connect 37 0 46 0;
#X connect 38 0 0 0;
#X connect 39 0 38 0;
#X connect 40 0 45 0;
#X connect 41 0 42 0;
#X connect 42 0 0 0;
#X connect 43 0 44 0;
#X connect 44 0 39 0;
#X connect 44 0 41 0;
#X connect 45 0 41 0;
#X connect 46 0 39 0;
#X restore 278 -5 pd flash;
#X obj 395 544 k_cpu;
#X obj 395 484 k_udp-2;
#N canvas 803 220 358 372 (subpatch) 0;
#X obj 4 0 hsl 174 20 0 2 0 0 empty empty gain_1 5 11 0 10 -1 -258113
-262144 8650 1;
#X obj 1 48 line;
#X obj 1 71 s ctl-gain;
#X obj 1 -49 loadbang;
#X msg 81 33 label gain_\$1;
#X msg 1 -26 1;
#X obj 181 -44 r smidi-21;
#X obj 200 5 k_range 0 1 0 2;
#X msg 1 26 \$1 1000;
#X connect 0 0 8 0;
#X connect 0 0 4 0;
#X connect 1 0 2 0;
#X connect 3 0 5 0;
#X connect 4 0 0 0;
#X connect 5 0 0 0;
#X connect 6 0 7 0;
#X connect 7 0 0 0;
#X connect 8 0 1 0;
#X coords 0 1 100 -1 180 20 1 0 0;
#X restore 205 650 graph;
#X obj 485 446 r~ \$0-l;
#X obj 542 447 r~ \$0-r;
#X obj 105 466 k_stereo;
#X obj 2 257 r e-focus-tgl;
#X obj 2 279 tgl 30 0 empty empty focus 0 15 0 10 -262144 -1 -1 0 1
;
#N canvas 396 273 648 429 3d-sound&k_vol_l====================== 0
;
#X obj 85 270 outlet~;
#X obj 152 269 outlet~;
#X obj 207 21 loadbang;
#X obj 81 -68 inlet~;
#X obj 138 -73 inlet~;
#X obj 480 -138 inlet;
#X obj 203 -26 line~;
#X obj 497 25 line~;
#X obj 112 -5 *~;
#X obj 164 -4 *~;
#X obj 74 221 *~;
#X obj 126 222 *~;
#X obj 231 -74 invert;
#X msg 497 -1 \$1 100;
#X msg 204 -51 \$1 100;
#X obj 204 -97 t f f;
#X obj 100 100 st-wavedistort /key;
#X msg 207 40 0 0.7 \, 1 0.49;
#X connect 2 0 17 0;
#X connect 3 0 10 0;
#X connect 3 0 8 0;
#X connect 4 0 11 0;
#X connect 4 0 9 0;
#X connect 5 0 15 0;
#X connect 6 0 8 1;
#X connect 6 0 9 1;
#X connect 7 0 10 1;
#X connect 7 0 11 1;
#X connect 8 0 16 0;
#X connect 9 0 16 1;
#X connect 10 0 0 0;
#X connect 11 0 1 0;
#X connect 12 0 13 0;
#X connect 13 0 7 0;
#X connect 14 0 6 0;
#X connect 15 0 14 0;
#X connect 15 1 12 0;
#X connect 16 0 0 0;
#X connect 16 1 1 0;
#X connect 17 0 16 2;
#X coords 0 -1 1 1 180 45 2 100 100;
#X restore 105 270 pd 3d-sound&k_vol_l======================;
#N canvas 166 239 467 266 four 0;
#X obj 188 55 s~ \$0-l;
#X obj 253 53 s~ \$0-r;
#N canvas 725 231 668 527 ctl-4-chl--------------------- 0;
#X obj -163 360 outlet~;
#X obj -109 358 outlet~;
#X obj -160 171 *~;
#X obj -106 173 *~;
#X obj -160 110 inlet~;
#X obj -106 113 inlet~;
#X obj -47 34 r ctl-all;
#X obj -106 145 *~;
#X msg 73 7 1;
#X msg 122 7 -1;
#X obj 74 -45 r 2window;
#X obj 73 -23 sel 0 1;
#X floatatom 73 55 5 0 0 0 - - -;
#X obj 73 77 line~;
#X msg 73 29 \$1 1500;
#X obj -162 303 *~ 1;
#X obj -108 305 *~ 1;
#X obj 222 167 r short;
#X obj 222 261 line;
#X obj 222 291 outelastic;
#X obj 222 199 sel 0 1;
#X obj 296 260 line;
#X obj 296 290 outelastic;
#X floatatom 222 386 10 0 0 0 - - -;
#X obj 222 319 expr 1-$f1;
#X obj 129 70 st-pureverb /key;
#X obj 162 10 noise~;
#X obj 331 53 line;
#X obj 331 101 outelastic;
#X obj 162 34 bp~ 4000 2;
#X obj 218 -1 osc~ 70;
#X obj 134 203 *~;
#X obj 66 165 *~;
#X obj 331 153 sig~ 0;
#X msg 222 235 0 \, 1 1000;
#X msg 296 234 0 \, 1 1000;
#X msg 331 27 0 \, 1 10000;
#X obj -47 63 sig~ 0;
#X obj 222 348 * 1;
#X obj 331 125 expr (1-$f1)*0.5;
#X obj 331 -19 t b b;
#X obj 413 44 line;
#X obj 331 79 *;
#X obj 331 -41 bng 15 250 50 0 empty empty empty 17 7 0 10 -262144
-1 -1;
#X msg 413 18 0 \, 1 1000;
#X obj -112 271 *~;
#X obj -162 269 *~;
#X obj -97 244 sig~ 1;
#X obj -97 215 r ctl-gain;
#X connect 2 0 46 0;
#X connect 3 0 45 0;
#X connect 4 0 2 0;
#X connect 5 0 7 0;
#X connect 6 0 37 0;
#X connect 7 0 3 0;
#X connect 8 0 14 0;
#X connect 9 0 14 0;
#X connect 10 0 11 0;
#X connect 11 0 8 0;
#X connect 11 1 9 0;
#X connect 12 0 13 0;
#X connect 13 0 7 1;
#X connect 14 0 12 0;
#X connect 15 0 0 0;
#X connect 16 0 1 0;
#X connect 17 0 20 0;
#X connect 18 0 19 0;
#X connect 19 0 24 0;
#X connect 20 0 35 0;
#X connect 20 1 34 0;
#X connect 20 1 40 0;
#X connect 21 0 22 0;
#X connect 22 0 38 0;
#X connect 23 0 16 1;
#X connect 23 0 15 1;
#X connect 24 0 38 0;
#X connect 25 0 32 0;
#X connect 25 1 31 0;
#X connect 26 0 29 0;
#X connect 27 0 42 0;
#X connect 28 0 39 0;
#X connect 29 0 25 0;
#X connect 29 0 25 1;
#X connect 30 0 25 0;
#X connect 30 0 25 1;
#X connect 31 0 1 0;
#X connect 32 0 0 0;
#X connect 33 0 31 1;
#X connect 33 0 32 1;
#X connect 34 0 18 0;
#X connect 35 0 21 0;
#X connect 36 0 27 0;
#X connect 37 0 3 1;
#X connect 37 0 2 1;
#X connect 38 0 23 0;
#X connect 39 0 33 0;
#X connect 40 0 36 0;
#X connect 40 1 44 0;
#X connect 41 0 42 1;
#X connect 42 0 28 0;
#X connect 43 0 40 0;
#X connect 44 0 41 0;
#X connect 45 0 16 0;
#X connect 46 0 15 0;
#X connect 47 0 45 1;
#X connect 47 0 46 1;
#X connect 48 0 47 0;
#X restore 188 28 pd ctl-4-chl---------------------;
#X obj 104 106 k_vol;
#X obj 227 106 k_vol;
#X obj 186 -30 inlet~;
#X obj 242 -32 inlet~;
#X obj 393 91 dac~;
#X obj 331 -35 sound_out;
#X obj 331 -9 *~ 10;
#X obj 383 -8 *~ 10;
#X connect 2 0 3 0;
#X connect 2 0 0 0;
#X connect 2 0 7 0;
#X connect 2 1 4 0;
#X connect 2 1 1 0;
#X connect 2 1 7 1;
#X connect 5 0 2 0;
#X connect 6 0 2 1;
#X connect 8 0 9 0;
#X connect 8 1 10 0;
#X connect 9 0 2 0;
#X connect 10 0 2 1;
#X coords 0 -1 1 1 250 100 2 100 100;
#X restore 104 516 pd four;
#X obj 105 319 st-EQ3 /key;
#N canvas 62 94 829 595 leap 0;
#X obj 102 281 outlet~;
#X obj 292 298 outlet~;
#X obj 304 -72 line~;
#X obj 507 35 line~;
#X obj 122 5 *~;
#X obj 174 6 *~;
#X obj 166 201 *~;
#X obj 291 205 *~;
#X obj 465 -51 invert;
#X obj 436 -109 t f f;
#X obj 189 -56 inlet~;
#X obj 115 -66 inlet~;
#X obj 434 -134 tgl 15 0 empty empty empty 17 7 0 10 -262144 -1 -1
0 1;
#X obj 435 -160 r e-leap-tgl;
#X obj 532 81 r leap;
#X obj 523 112 route /effect;
#X obj 523 143 route /5;
#X obj 523 168 route /l /r;
#X obj 491 207 unpack f f;
#X floatatom 494 240 5 0 0 0 - - -;
#X floatatom 543 243 5 0 0 0 - - -;
#X obj 594 206 unpack f f;
#X floatatom 597 239 5 0 0 0 - - -;
#X floatatom 646 242 5 0 0 0 - - -;
#X msg 469 374 0 \$1;
#X msg 542 384 1 \$1;
#X msg 667 392 0 \$1;
#X msg 714 417 1 \$1;
#X obj 280 100 mono-vibrato /a2;
#X obj 100 100 mono-vibrato /a1;
#X obj 542 307 k_range 0 1 0.6 0;
#X obj 709 305 k_range 0 1 0.6 0;
#X obj 496 276 k_range 0 1 0.5 0;
#X obj 667 342 line;
#X obj 474 328 line;
#X obj 377 34 loadbang;
#X msg 377 59 1 0.3;
#X obj 663 274 k_range 0 1 0.5 0;
#X msg 507 9 \$1 4000;
#X msg 305 -97 \$1 4000;
#X msg 469 301 \$1 50;
#X msg 662 315 \$1 50;
#X connect 2 0 4 1;
#X connect 2 0 5 1;
#X connect 3 0 6 1;
#X connect 3 0 7 1;
#X connect 4 0 0 0;
#X connect 5 0 1 0;
#X connect 6 0 0 0;
#X connect 7 0 1 0;
#X connect 8 0 39 0;
#X connect 9 0 38 0;
#X connect 9 1 8 0;
#X connect 10 0 5 0;
#X connect 10 0 28 0;
#X connect 11 0 4 0;
#X connect 11 0 29 0;
#X connect 12 0 9 0;
#X connect 13 0 12 0;
#X connect 14 0 15 0;
#X connect 15 0 16 0;
#X connect 16 0 17 0;
#X connect 17 0 18 0;
#X connect 17 1 21 0;
#X connect 18 0 19 0;
#X connect 18 1 20 0;
#X connect 19 0 32 0;
#X connect 20 0 30 0;
#X connect 21 0 22 0;
#X connect 21 1 23 0;
#X connect 22 0 37 0;
#X connect 23 0 31 0;
#X connect 24 0 29 1;
#X connect 26 0 28 1;
#X connect 28 0 7 0;
#X connect 29 0 6 0;
#X connect 30 0 25 0;
#X connect 31 0 27 0;
#X connect 32 0 40 0;
#X connect 33 0 26 0;
#X connect 34 0 24 0;
#X connect 35 0 36 0;
#X connect 36 0 28 1;
#X connect 36 0 29 1;
#X connect 37 0 41 0;
#X connect 38 0 3 0;
#X connect 39 0 2 0;
#X connect 40 0 34 0;
#X connect 41 0 33 0;
#X coords 0 -1 1 1 360 70 2 100 100;
#X restore 105 391 pd leap;
#X connect 0 0 4 0;
#X connect 1 0 31 0;
#X connect 1 1 31 1;
#X connect 2 0 3 0;
#X connect 3 0 1 2;
#X connect 4 0 5 2;
#X connect 5 0 13 0;
#X connect 5 1 13 1;
#X connect 6 0 5 0;
#X connect 6 1 5 1;
#X connect 7 0 31 2;
#X connect 8 0 9 0;
#X connect 9 0 10 2;
#X connect 10 0 29 0;
#X connect 10 1 29 1;
#X connect 12 0 26 2;
#X connect 13 0 10 0;
#X connect 13 1 10 1;
#X connect 14 0 13 2;
#X connect 15 0 14 0;
#X connect 16 0 6 2;
#X connect 17 0 6 3;
#X connect 18 0 6 1;
#X connect 19 0 6 0;
#X connect 20 0 6 4;
#X connect 24 0 22 0;
#X connect 25 0 22 1;
#X connect 26 0 30 0;
#X connect 26 1 30 1;
#X connect 27 0 28 0;
#X connect 28 0 29 2;
#X connect 29 0 1 0;
#X connect 29 1 1 1;
#X connect 31 0 32 0;
#X connect 31 1 32 1;
#X connect 32 0 26 0;
#X connect 32 1 26 1;
#X coords 0 -1 1 1 380 520 2 100 100;
#X restore 7 14 pd fader;
#N canvas 623 169 490 348 synthesizer 0;
#N canvas 880 250 399 476 Universe-hole 0;
#X floatatom 161 -96 5 0 0 0 - - -;
#X obj 161 -141 r black;
#X obj -31 73 perk-bassdrum /key;
#X obj 112 -171 loadbang;
#X obj 99 7 loadbang;
#X obj -31 241 throw~ u-all-l;
#X obj 66 239 throw~ u-all-r;
#X msg 112 -147 0.1;
#X obj 219 -126 r hole-tgl;
#X obj -31 -34 tgl 15 0 empty empty empty 17 7 0 10 -262144 -1 -1 0
1;
#X obj -31 14 t b b;
#X msg 12 51 0 \$1;
#X obj 12 10 randomF 0.1;
#X obj 12 30 + 0.2;
#X obj -31 -11 metro 150;
#X msg 99 30 7 0.3 \, 1 0.25 \, 3 0.6;
#X obj 161 -12 *~;
#X obj -31 202 *~;
#X obj 66 206 *~;
#X obj 161 -71 k_range 0.1 1.947 0.2 0.8;
#X obj 235 28 line~;
#X msg 235 -2 \$1 1000;
#X obj 219 -99 t b f f;
#X obj 74 -42 sig~;
#X connect 0 0 19 0;
#X connect 1 0 0 0;
#X connect 2 0 17 0;
#X connect 2 0 18 0;
#X connect 3 0 7 0;
#X connect 4 0 15 0;
#X connect 7 0 0 0;
#X connect 8 0 22 0;
#X connect 9 0 14 0;
#X connect 10 0 2 0;
#X connect 10 1 12 0;
#X connect 11 0 2 1;
#X connect 12 0 13 0;
#X connect 13 0 11 0;
#X connect 14 0 10 0;
#X connect 15 0 2 1;
#X connect 16 0 17 1;
#X connect 16 0 18 1;
#X connect 17 0 5 0;
#X connect 18 0 6 0;
#X connect 19 0 23 0;
#X connect 20 0 16 1;
#X connect 21 0 20 0;
#X connect 22 0 0 0;
#X connect 22 1 9 0;
#X connect 22 2 21 0;
#X connect 23 0 16 0;
#X restore 25 131 pd Universe-hole;
#N canvas 579 71 637 704 Universe-particle 0;
#X obj 116 -130 osc~;
#X obj 62 -122 osc~;
#X obj 120 -64 loadbang;
#X obj 0 -114 osc~;
#X obj -62 -112 osc~;
#X obj -47 0 loadbang;
#X msg -47 25 linear 8 75 100;
#X obj 105 9 +~;
#X msg 120 -41 lines 50 700 500 1500;
#X obj 62 -97 +~;
#X obj -15 -82 +~;
#X obj -62 -265 expr~ abs($v1-0.5)*2;
#X obj -62 -289 phasor~ 0.125;
#X obj -62 -335 *~ 60;
#X obj -62 -312 expr~ 1/$v1;
#X obj 105 32 *~;
#X obj 167 29 *~;
#X obj -62 -205 expr~ (($v1)%3)+1;
#X floatatom 264 -24 5 0 0 0 - - -;
#X obj -62 -238 expr~ floor($v1*8 \, 0);
#X obj -62 -357 sig~ 0.1;
#X obj 208 -84 expr~ (1-$v1);
#X floatatom -62 -379 5 0 0 0 - - -;
#X obj -62 -431 r part-speed;
#X obj -62 -404 expr ((($f1-0.1)/0.4)*-0.99+1)/2;
#X obj 264 -57 r part-tgl;
#X obj 105 77 *~;
#X obj 167 77 *~;
#X obj 208 -150 phasor~ 0.1;
#X obj -62 -144 *~ 70.1;
#X obj 0 -144 *~ 70;
#X obj 62 -152 *~ 140;
#X obj 116 -151 *~ 140.1;
#X obj 371 -87 syn-wind /key;
#X obj 371 -137 loadbang;
#X msg 371 -114 0 1 \, 1 0.49;
#X obj 105 264 throw~ u-all-l;
#X obj 167 201 throw~ u-all-r;
#X obj 305 43 r part-speed;
#X floatatom 305 69 5 0 0 0 - - -;
#X obj 305 91 - 0.1;
#X obj 62 -69 *~ 0.1;
#X obj -15 -61 *~ 0.1;
#X obj -15 -33 fdn~ 64 40000;
#X obj 120 -14 fdn~ 64 40000;
#X obj 371 -27 *~ 0.25;
#X msg 305 135 \$1 500;
#X obj 305 159 line~;
#X obj 167 172 *~;
#X obj 105 218 *~;
#X obj 305 113 * 0.7;
#X msg 264 2 \$1 500;
#X obj 264 26 line~;
#X obj 208 -107 expr~ (abs($v1-0.5)*1.5);
#X connect 0 0 9 1;
#X connect 1 0 9 0;
#X connect 2 0 8 0;
#X connect 3 0 10 1;
#X connect 4 0 10 0;
#X connect 5 0 6 0;
#X connect 6 0 43 0;
#X connect 7 0 15 0;
#X connect 7 0 16 0;
#X connect 8 0 44 0;
#X connect 9 0 41 0;
#X connect 10 0 42 0;
#X connect 11 0 19 0;
#X connect 12 0 11 0;
#X connect 13 0 14 0;
#X connect 14 0 12 0;
#X connect 15 0 26 0;
#X connect 16 0 27 0;
#X connect 17 0 29 0;
#X connect 17 0 30 0;
#X connect 17 0 31 0;
#X connect 17 0 32 0;
#X connect 18 0 51 0;
#X connect 19 0 17 0;
#X connect 20 0 13 0;
#X connect 21 0 16 1;
#X connect 22 0 20 0;
#X connect 23 0 24 0;
#X connect 24 0 22 0;
#X connect 25 0 18 0;
#X connect 26 0 49 0;
#X connect 27 0 48 0;
#X connect 28 0 53 0;
#X connect 29 0 4 0;
#X connect 30 0 3 0;
#X connect 31 0 1 0;
#X connect 32 0 0 0;
#X connect 33 0 45 0;
#X connect 34 0 35 0;
#X connect 35 0 33 0;
#X connect 38 0 39 0;
#X connect 39 0 40 0;
#X connect 40 0 50 0;
#X connect 41 0 44 0;
#X connect 42 0 43 0;
#X connect 43 0 7 0;
#X connect 44 0 7 1;
#X connect 45 0 26 0;
#X connect 45 0 27 0;
#X connect 46 0 47 0;
#X connect 47 0 48 1;
#X connect 47 0 49 1;
#X connect 48 0 37 0;
#X connect 49 0 36 0;
#X connect 50 0 46 0;
#X connect 51 0 52 0;
#X connect 52 0 27 1;
#X connect 52 0 26 1;
#X connect 53 0 15 1;
#X connect 53 0 21 0;
#X coords 0 0 1 1 190 90 0;
#X restore 25 105 pd Universe-particle;
#N canvas 612 72 700 721 Universe-line 0;
#X obj 43 -195 osc~ 2000;
#X obj 43 -270 bng 15 250 50 0 empty empty empty 17 7 0 10 -262144
-1 -1;
#X obj 121 -272 bng 15 250 50 0 empty empty empty 17 7 0 10 -262144
-1 -1;
#X obj 209 -194 osc~ 2000;
#X obj 209 -271 bng 15 250 50 0 empty empty empty 17 7 0 10 -262144
-1 -1;
#X obj 291 -273 bng 15 250 50 0 empty empty empty 17 7 0 10 -262144
-1 -1;
#X obj 43 -124 *~;
#X obj 121 -120 *~;
#X obj 136 -145 expr~ fmod($v1+0.1 \, 1);
#X obj 209 -87 *~;
#X obj 291 -151 *~;
#X obj 306 -176 expr~ fmod($v1+0.3 \, 1);
#X obj 58 -431 r line-num;
#X obj 58 -323 phasor~ 4;
#X obj 141 -359 loadbang;
#X obj 141 -327 t b b b b;
#X obj 455 -262 r part-ch;
#X obj 455 -205 sel 0 1;
#X obj 43 -45 *~ 0;
#X obj 122 -68 *~ 0;
#X obj 209 -36 *~ 0;
#X obj 257 -31 *~ 0;
#X floatatom 58 -381 5 0 0 0 - - -;
#X obj 93 36 r partline-tgl;
#X floatatom 252 141 5 0 0 0 - - -;
#X obj 252 71 r s-alpha;
#X obj 252 120 expr abs(1-$f1);
#X obj 252 97 expr $f1/0.7;
#X obj -61 -100 expr~ fmod($v1*2 \, 1);
#X obj 39 197 throw~ u-all-l;
#X obj 82 162 throw~ u-all-r;
#X obj 121 -197 phasor~ 2000;
#X obj 291 -198 phasor~ 2000;
#X obj 455 -239 t f b;
#X obj 58 -408 expr (($f1-2)/10)*0.5+0.1;
#X obj 121 -251 random 600;
#X obj 121 -230 + 500;
#X obj 291 -251 random 600;
#X obj 291 -231 + 500;
#X obj 58 -356 *~ 20;
#X obj 209 -248 random 500;
#X obj 44 -249 random 500;
#X obj 43 -228 + 1000;
#X obj 209 -228 + 1000;
#X obj 58 -165 expr~ if($v1>0.5 \, 1 \, 0);
#X obj 224 -112 expr~ if($v1>0.5 \, 1 \, 0);
#X obj 454 -145 unpack f f f f;
#X msg 455 -183 0 1 0 1;
#X msg 539 -185 1 0 1 0;
#X obj 122 -44 *~;
#X obj 256 -9 *~;
#X obj -61 -77 expr~ pow(1-$v1 \, 2)*2;
#X obj 191 51 *~ 0.08;
#X obj 39 77 *~ 0.08;
#X obj 93 93 line~;
#X obj 39 108 *~;
#X obj 191 77 *~;
#X msg 93 63 \$1 5000;
#X connect 0 0 6 0;
#X connect 1 0 41 0;
#X connect 2 0 35 0;
#X connect 3 0 9 0;
#X connect 4 0 40 0;
#X connect 5 0 37 0;
#X connect 6 0 18 0;
#X connect 7 0 19 0;
#X connect 8 0 7 1;
#X connect 9 0 20 0;
#X connect 10 0 21 0;
#X connect 11 0 10 1;
#X connect 12 0 34 0;
#X connect 13 0 8 0;
#X connect 13 0 11 0;
#X connect 13 0 28 0;
#X connect 13 0 44 0;
#X connect 13 0 45 0;
#X connect 14 0 15 0;
#X connect 14 0 47 0;
#X connect 15 0 1 0;
#X connect 15 1 2 0;
#X connect 15 2 4 0;
#X connect 15 3 5 0;
#X connect 16 0 33 0;
#X connect 17 0 47 0;
#X connect 17 1 48 0;
#X connect 18 0 53 0;
#X connect 19 0 49 0;
#X connect 20 0 52 0;
#X connect 21 0 50 0;
#X connect 22 0 39 0;
#X connect 23 0 57 0;
#X connect 25 0 27 0;
#X connect 26 0 24 0;
#X connect 27 0 26 0;
#X connect 28 0 51 0;
#X connect 31 0 7 0;
#X connect 32 0 10 0;
#X connect 33 0 17 0;
#X connect 33 1 15 0;
#X connect 34 0 22 0;
#X connect 35 0 36 0;
#X connect 36 0 31 0;
#X connect 37 0 38 0;
#X connect 38 0 32 0;
#X connect 39 0 13 0;
#X connect 40 0 43 0;
#X connect 41 0 42 0;
#X connect 42 0 0 0;
#X connect 43 0 3 0;
#X connect 44 0 6 1;
#X connect 45 0 9 1;
#X connect 46 0 18 1;
#X connect 46 1 19 1;
#X connect 46 2 20 1;
#X connect 46 3 21 1;
#X connect 47 0 46 0;
#X connect 48 0 46 0;
#X connect 49 0 53 0;
#X connect 50 0 52 0;
#X connect 51 0 49 1;
#X connect 51 0 50 1;
#X connect 52 0 56 0;
#X connect 53 0 55 0;
#X connect 54 0 55 1;
#X connect 54 0 56 1;
#X connect 55 0 29 0;
#X connect 56 0 30 0;
#X connect 57 0 54 0;
#X coords 0 0 1 1 200 90 0;
#X restore 25 79 pd Universe-line;
#X obj 25 157 s-sun;
#X obj 27 223 s-planet;
#N canvas 276 371 450 300 meta 0;
#X obj 37 89 loadbang;
#X msg 37 114 \; pd dsp 1;
#X obj 37 60 import mrpeach;
#X obj 37 37 declare -path child;
#X obj 120 145 print;
#X obj 120 88 del 500;
#X msg 120 114 ----------Sound----------;
#X obj 38 -17 declare -path ../k_obj;
#X obj 37 12 declare -path ../diy2;
#X obj 72 192 declare -path ../pmpd;
#X obj 71 221 declare -path ../netsend~;
#X obj 72 245 declare -path ../pd-tweener;
#X obj 74 173 declare -path ../outerspace;
#X connect 0 0 1 0;
#X connect 0 0 5 0;
#X connect 5 0 6 0;
#X connect 6 0 4 0;
#X restore 165 161 pd meta;
#N canvas 609 237 821 584 scroll-bomb 0;
#X obj 99 -7 r sx;
#X obj 213 -8 r sy;
#X floatatom 99 19 5 0 0 0 - - -;
#X floatatom 213 15 5 0 0 0 - - -;
#X obj 128 135 osc~;
#X obj 128 89 mtof~;
#X obj 154 112 +~ 1;
#X obj 128 220 *~;
#X obj 213 84 mtof~;
#X obj 238 107 +~ 1;
#X obj 213 215 *~;
#X obj 213 130 phasor~;
#X obj 349 172 line;
#X msg 349 140 1 500;
#X msg 308 140 0 500;
#X obj 308 113 sel 0 1;
#X obj 128 327 st-FFTreverb /key;
#X obj 213 38 *~ 40;
#X obj 100 60 expr~ int($v1);
#X obj 213 59 expr~ int($v1);
#X obj 213 153 *~ 0.3;
#X obj 128 159 *~ 0.3;
#X obj 378 230 *~;
#X obj 483 143 line~;
#X obj 213 176 *~;
#X obj 128 182 *~;
#X obj 378 253 *~;
#X obj 415 229 *~;
#X obj 415 252 *~;
#X obj 99 39 *~ 30;
#X obj 264 199 loadbang;
#X obj 301 414 throw~ no-effect-r;
#X obj 128 409 throw~ no-effect-l;
#X obj 308 88 r scrollvol;
#X obj 483 71 tgl 15 0 empty empty empty 17 7 0 10 -262144 -1 -1 0
1;
#X obj 462 291 *~;
#X obj 462 314 *~;
#X obj 499 290 *~;
#X obj 499 313 *~;
#X obj 483 43 r mouseleft3;
#X obj 557 100 r mouseright3;
#X obj 557 199 line~;
#X obj 557 127 tgl 15 0 empty empty empty 17 7 0 10 -262144 -1 -1 0
1;
#X obj 557 149 sel 1;
#X obj 483 94 sel 1;
#X obj 378 165 osc~ 3000;
#N canvas 329 191 208 358 fireball 0;
#X obj -36 130 noise~;
#X obj -36 256 *~;
#X obj 39 -52 inlet trigger;
#X obj -36 276 outlet~;
#X obj -36 172 lop~ 70;
#X obj -36 193 lop~ 70;
#X obj -36 151 bp~ 70 1;
#X obj 71 102 *~;
#X obj -36 235 hip~ 5;
#X obj 71 58 line;
#X obj 71 79 sig~;
#X obj 71 144 lop~ 5;
#X obj 39 -31 trigger b b;
#X obj 31 123 + 40;
#X msg 111 28 1 100;
#X obj 39 -8 del 100;
#X obj 31 102 * 100;
#X obj 71 124 *~;
#X obj -36 214 *~ 10;
#X msg 40 29 0 3000;
#X connect 0 0 6 0;
#X connect 1 0 3 0;
#X connect 2 0 12 0;
#X connect 4 0 5 0;
#X connect 5 0 18 0;
#X connect 6 0 4 0;
#X connect 7 0 17 0;
#X connect 7 0 17 1;
#X connect 8 0 1 0;
#X connect 9 0 10 0;
#X connect 9 0 16 0;
#X connect 10 0 7 0;
#X connect 10 0 7 1;
#X connect 11 0 1 1;
#X connect 12 0 15 0;
#X connect 12 1 14 0;
#X connect 13 0 5 1;
#X connect 13 0 4 1;
#X connect 13 0 6 1;
#X connect 14 0 9 0;
#X connect 15 0 19 0;
#X connect 16 0 13 0;
#X connect 17 0 11 0;
#X connect 18 0 8 0;
#X connect 19 0 9 0;
#X restore -10 77 pd fireball;
#N canvas 585 385 245 430 blast 0;
#X obj 16 111 / 200;
#X obj 44 -71 del 80;
#X obj 120 11 random 5;
#X obj 120 33 + 25;
#X obj 120 -15 del 80;
#X obj 16 -131 random 8;
#X obj 16 -109 + 8;
#X obj 44 -48 random 10;
#X obj 44 -26 + 15;
#X obj 157 -132 random 100;
#X obj 81 -131 random 50;
#X obj 75 -173 t b b b b b;
#X obj 16 135 outlet noiseval;
#X obj 75 -214 inlet trigger;
#X connect 0 0 12 0;
#X connect 1 0 4 0;
#X connect 1 0 7 0;
#X connect 2 0 3 0;
#X connect 3 0 0 0;
#X connect 4 0 2 0;
#X connect 5 0 6 0;
#X connect 6 0 0 0;
#X connect 7 0 8 0;
#X connect 8 0 0 0;
#X connect 9 0 4 1;
#X connect 10 0 1 1;
#X connect 11 0 1 0;
#X connect 11 1 5 0;
#X connect 11 2 10 0;
#X connect 11 3 9 0;
#X connect 13 0 11 0;
#X restore -66 53 pd blast control;
#N canvas 143 170 222 478 blast 0;
#X obj 3 -21 noise~;
#X obj 4 211 *~;
#X obj 4 90 clip~ -1 1;
#X obj 4 46 hip~ 20;
#X obj 4 191 bp~ 6000 1;
#X obj 105 97 *~;
#X obj 4 171 cos~;
#X obj 76 -67 -;
#X obj 28 -62 * 7000;
#X obj 76 -94 swap 1;
#X obj 4 271 hip~ 20;
#X obj 4 251 hip~ 20;
#X obj 4 231 hip~ 20;
#X obj 4 151 *~;
#X obj 20 131 +~ 0.5;
#X obj 4 24 vcf~ 7000 2;
#X obj 40 0 line~;
#X obj 6 -145 inlet;
#X obj 6 -124 t b f f;
#X msg 28 -41 \$1 30;
#X obj 4 68 *~ 50;
#X obj 76 -22 + 1.5;
#X obj 76 -43 * 3.5;
#X obj 4 311 outlet~;
#X obj 4 291 *~ 0.3;
#X obj 105 71 vline~;
#X msg 105 48 1 \, 0 \$1;
#X obj 105 24 f;
#X obj 28 -92 pow 2;
#X obj 121 2 * 5000;
#X connect 0 0 15 0;
#X connect 1 0 12 0;
#X connect 2 0 13 0;
#X connect 3 0 20 0;
#X connect 4 0 1 0;
#X connect 5 0 1 1;
#X connect 5 0 14 0;
#X connect 6 0 4 0;
#X connect 7 0 22 0;
#X connect 7 0 29 0;
#X connect 8 0 19 0;
#X connect 9 0 7 0;
#X connect 9 1 7 1;
#X connect 10 0 24 0;
#X connect 11 0 10 0;
#X connect 12 0 11 0;
#X connect 13 0 6 0;
#X connect 14 0 13 1;
#X connect 15 0 3 0;
#X connect 16 0 15 1;
#X connect 17 0 18 0;
#X connect 18 0 27 0;
#X connect 18 1 28 0;
#X connect 18 2 9 0;
#X connect 19 0 16 0;
#X connect 20 0 2 0;
#X connect 21 0 15 2;
#X connect 22 0 21 0;
#X connect 24 0 23 0;
#X connect 25 0 5 0;
#X connect 25 0 5 1;
#X connect 26 0 25 0;
#X connect 27 0 26 0;
#X connect 28 0 8 0;
#X connect 29 0 27 1;
#X restore -66 77 pd blast;
#X obj -66 162 st-delayfb /key;
#X obj -66 1 r bomb-effect;
#X obj -10 104 *~ 0.8;
#X obj -66 102 *~ 0.8;
#X obj -66 126 *~ 0.6;
#X obj -44 -57 bng 15 250 50 0 empty empty empty 17 7 0 10 -262144
-1 -1;
#X msg 16 441 open 2;
#X msg -75 416 digital 13 \$1;
#X obj 16 414 loadbang;
#X msg -62 368 1;
#X obj -66 29 t b b b b;
#X obj -75 394 tgl 15 0 empty empty empty 17 7 0 10 -262144 -1 -1 0
1;
#X msg -105 354 0;
#X obj -154 238 t b b b b b b b b;
#X obj -70 260 del 30;
#X obj -83 306 del 50;
#X obj -98 281 del 100;
#X obj -122 324 del 150;
#X obj -126 262 del 200;
#X obj -23 355 r tolight;
#X obj -154 210 spigot;
#X obj -136 142 tgl 15 0 empty empty empty 17 7 0 10 -262144 -1 -1
0 1;
#X obj -136 100 loadbang;
#X msg -136 122 0;
#X obj -152 71 r tgl-light;
#X obj 409 66 sig~ 1;
#X msg 264 221 3 0.2;
#X obj 462 225 osc~ 1500;
#X obj 499 260 osc~ 1501;
#X obj 415 198 osc~ 3001;
#X msg 483 119 0.7 \, 0 600;
#X msg 557 175 0.8 \, 0 600;
#X obj 462 342 *~ 0.35;
#X obj 378 281 *~ 0.35;
#X connect 0 0 2 0;
#X connect 1 0 3 0;
#X connect 2 0 29 0;
#X connect 3 0 17 0;
#X connect 4 0 21 0;
#X connect 5 0 4 0;
#X connect 5 0 6 0;
#X connect 6 0 4 0;
#X connect 7 0 16 0;
#X connect 7 0 16 1;
#X connect 8 0 9 0;
#X connect 8 0 11 0;
#X connect 9 0 11 0;
#X connect 10 0 16 1;
#X connect 10 0 16 0;
#X connect 11 0 20 0;
#X connect 12 0 10 1;
#X connect 12 0 7 1;
#X connect 13 0 12 0;
#X connect 14 0 12 0;
#X connect 15 0 14 0;
#X connect 15 1 13 0;
#X connect 16 0 32 0;
#X connect 16 1 31 0;
#X connect 17 0 19 0;
#X connect 18 0 5 0;
#X connect 19 0 8 0;
#X connect 20 0 24 0;
#X connect 21 0 25 0;
#X connect 22 0 26 0;
#X connect 23 0 22 1;
#X connect 23 0 27 1;
#X connect 24 0 10 0;
#X connect 25 0 7 0;
#X connect 26 0 82 0;
#X connect 27 0 28 0;
#X connect 28 0 82 0;
#X connect 29 0 18 0;
#X connect 30 0 75 0;
#X connect 33 0 15 0;
#X connect 34 0 44 0;
#X connect 35 0 36 0;
#X connect 36 0 81 0;
#X connect 37 0 38 0;
#X connect 38 0 81 0;
#X connect 39 0 34 0;
#X connect 40 0 42 0;
#X connect 41 0 35 1;
#X connect 41 0 37 1;
#X connect 42 0 43 0;
#X connect 43 0 80 0;
#X connect 44 0 79 0;
#X connect 45 0 22 0;
#X connect 46 0 51 0;
#X connect 47 0 48 0;
#X connect 48 0 52 0;
#X connect 49 0 16 0;
#X connect 49 1 16 1;
#X connect 50 0 59 0;
#X connect 51 0 53 0;
#X connect 52 0 53 0;
#X connect 53 0 49 0;
#X connect 53 0 49 1;
#X connect 54 0 59 0;
#X connect 57 0 55 0;
#X connect 58 0 60 0;
#X connect 59 1 47 0;
#X connect 59 2 46 0;
#X connect 59 3 69 0;
#X connect 60 0 56 0;
#X connect 61 0 60 0;
#X connect 62 2 67 0;
#X connect 62 3 66 0;
#X connect 62 4 65 0;
#X connect 62 5 64 0;
#X connect 62 6 63 0;
#X connect 62 7 58 0;
#X connect 63 0 61 0;
#X connect 64 0 58 0;
#X connect 65 0 61 0;
#X connect 66 0 58 0;
#X connect 67 0 61 0;
#X connect 68 0 60 0;
#X connect 69 0 62 0;
#X connect 70 0 69 1;
#X connect 71 0 72 0;
#X connect 72 0 70 0;
#X connect 73 0 70 0;
#X connect 74 0 26 1;
#X connect 74 0 25 1;
#X connect 74 0 24 1;
#X connect 74 0 28 1;
#X connect 74 0 36 1;
#X connect 74 0 38 1;
#X connect 75 0 16 2;
#X connect 76 0 35 0;
#X connect 77 0 37 0;
#X connect 78 0 27 0;
#X connect 79 0 23 0;
#X connect 80 0 41 0;
#X connect 81 0 16 0;
#X connect 81 0 16 1;
#X connect 82 0 16 0;
#X connect 82 0 16 1;
#X restore 166 110 pd scroll-bomb;
#N canvas 279 23 1089 646 space 0;
#X obj 87 375 noise~;
#X obj 87 428 sound_gen;
#X obj 246 422 vsl 15 128 0 3000 0 0 OS_revgain0 OS_revgain0 empty
0 -8 0 8 -233017 -1 -1 4233 1;
#X obj 302 422 vsl 15 128 0 100 0 0 OS_WetDry0 OS_WetDry0 empty 0 -8
0 8 -233017 -1 -1 2286 1;
#X obj 32 139 vsl 15 128 100 13000 0 0 OS_f00 OS_f00 empty 0 -8 0 8
-233017 -1 -1 3840 1;
#X floatatom 30 278 5 0 0 0 - OS_f0 -;
#X obj 220 140 vsl 15 128 0 100 0 0 OS_LFO_f0 OS_LFO_f0 empty 0 -8
0 8 -233017 -1 -1 2540 1;
#X floatatom 220 278 5 0 0 0 - OS_LFO_f -;
#X obj 119 141 vsl 15 128 50 5000 0 0 OS_f_offset0 OS_f_offset0 empty
0 -8 0 8 -233017 -1 -1 3207 1;
#X floatatom 114 279 5 0 0 0 - OS_f_offset -;
#X obj 332 143 vsl 15 128 30 10000 0 0 OS_attack_t OS_attack_t empty
0 -8 0 8 -233017 -1 -1 89 1;
#X floatatom 332 280 5 0 0 0 - OS_attack_t -;
#X obj 392 142 vsl 15 128 30 10000 0 0 OS_decay_t OS_decay_t empty
0 -8 0 8 -233017 -1 -1 217 1;
#X floatatom 392 279 5 0 0 0 - OS_decay_t -;
#X obj 453 141 vsl 15 128 50 200 0 0 OS_damp0 OS_damp0 empty 0 -8 0
8 -233017 -1 -1 5927 1;
#X floatatom 453 279 5 0 0 0 - OS_damp -;
#X obj 515 142 vsl 15 128 500 2000 0 0 OS_retrigg OS_retrigg empty
0 -8 0 8 -233017 -1 -1 1693 1;
#X floatatom 515 279 5 0 0 0 - OS_retrigg -;
#X obj 515 94 tgl 15 0 OS_retr_onoff OS_retr_onoff empty 0 -6 0 8 -195568
-1 -1 0 1;
#X obj 76 140 vsl 15 128 5 130 0 0 OS_Q OS_Q empty 0 -8 0 8 -233017
-1 -1 2540 1;
#X floatatom 71 279 5 0 0 0 - OS_Q -;
#X obj 276 141 vsl 15 128 0 100 0 0 OS_LFOspread OS_LFOspread empty
0 -8 0 8 -233017 -1 -1 8890 1;
#X floatatom 278 279 5 0 0 0 - OS_LFOspread -;
#X text 538 94 ON/OFF;
#X text 31 116 f0;
#X text 69 117 Res;
#X text 209 116 PAN LFO;
#X text 256 116 LFO spr;
#X text 315 116 Attack;
#X text 375 116 Decay;
#X text 424 116 Hi-fr Damp;
#X text 506 117 Retrigg;
#X obj 360 422 vsl 15 128 0 100 0 0 OS_RevSize0 OS_RevSize0 empty 0
-8 0 8 -233017 -1 -1 7112 1;
#X obj 419 424 vsl 15 128 0 100 0 0 OS_RevDamp0 OS_RevDamp0 empty 0
-8 0 8 -233017 -1 -1 3810 1;
#X text 413 395 Damp;
#X obj 460 421 vsl 15 128 0 100 0 0 OS_RevWidth0 OS_RevWidth0 empty
0 -8 0 8 -233017 -1 -1 4191 1;
#X text 456 394 StereoWidth;
#X text 239 397 Gain;
#X text 283 396 Wet/Dry;
#X text 340 396 Room Size;
#X text 671 226 Preset;
#X obj 675 166 hsl 128 15 1 128 0 0 OS_polyphony OS_polyphony empty
-2 -6 0 8 -260818 -1 -1 12700 1;
#X obj 675 207 hsl 128 15 0 100 0 0 OS_v_dens OS_v_dens empty -2 -6
0 8 -260818 -1 -1 127 1;
#X text 671 186 Voice density;
#X text 99 116 Fr spac;
#X obj 169 140 vsl 15 128 0 12 0 0 OS_freq_detune OS_freq_detune empty
0 -8 0 8 -233017 -1 -1 0 1;
#X floatatom 169 278 5 0 0 0 - OS_freq_detune -;
#X text 148 117 Fr detune;
#X obj 610 368 preset;
#X obj 610 420 save_load_par;
#X obj 610 394 random_preset;
#X obj 610 343 norm_val;
#X obj 672 288 bng 15 250 50 0 OS_ParSave OS_ParSave empty 0 -6 0 8
-260818 -1 -1;
#X text 669 265 Save;
#X obj 712 288 bng 15 250 50 0 OS_ParLoad OS_ParLoad empty 0 -6 0 8
-260818 -1 -1;
#X text 709 265 Load;
#X obj 750 288 bng 15 250 50 0 OS_random OS_random empty 0 -6 0 8 -260818
-1 -1;
#X text 747 265 Randomize;
#X floatatom 245 570 5 0 0 0 - OS_reverbgain -;
#X text 333 299 ms;
#X text 394 299 ms;
#X text 30 299 Hz;
#X text 224 299 Hz;
#X text 161 300 halftones;
#X text 278 299 %;
#X text 517 298 ms;
#X symbolatom 778 288 12 0 0 0 - OS_pres_name -;
#X obj 616 -29 r g12;
#X obj 727 19 > 0;
#X floatatom 667 82 5 0 0 0 - - -;
#X obj 667 104 s OS_Amp;
#X obj 771 495 r fadery;
#X obj 633 482 r fader;
#X obj 534 478 r v-distance;
#X floatatom 534 502 5 0 0 0 - - -;
#X floatatom 627 506 5 0 0 0 - - -;
#X floatatom 770 516 5 0 0 0 - - -;
#X obj 622 540 autoscale;
#X floatatom 624 562 5 0 0 0 - - -;
#X obj 619 592 k_range 0 1 1300 2000;
#X obj 620 615 s OS_f_offset0;
#X obj 770 540 autoscale;
#X floatatom 772 562 5 0 0 0 - - -;
#X obj 768 615 s OS_freq_detune;
#X obj 767 592 k_range 0 1 0 12;
#X floatatom 459 566 5 0 0 0 - - -;
#X obj 499 535 autoscale;
#X floatatom 499 562 5 0 0 0 - - -;
#X obj 496 587 k_range 0 1 0 100;
#X obj 497 610 s OS_RevWidth0;
#X obj 844 247 s OS_preset;
#X obj 616 -9 t f f;
#X obj 824 104 loadbang;
#X floatatom 727 76 5 0 0 0 - - -;
#X obj 727 104 s OS_trigger;
#X obj 727 49 change;
#X msg 616 14 \$1 500;
#X obj 616 43 line;
#X obj 875 83 r g13;
#X obj 875 105 change;
#X floatatom 875 155 5 0 0 0 - - -;
#X msg 824 128 7;
#X connect 0 0 1 0;
#X connect 35 0 85 0;
#X connect 67 0 91 0;
#X connect 68 0 95 0;
#X connect 69 0 70 0;
#X connect 71 0 76 0;
#X connect 72 0 75 0;
#X connect 73 0 74 0;
#X connect 76 0 81 0;
#X connect 77 0 78 0;
#X connect 78 0 79 0;
#X connect 79 0 80 0;
#X connect 82 0 84 0;
#X connect 84 0 83 0;
#X connect 86 0 87 0;
#X connect 87 0 88 0;
#X connect 88 0 89 0;
#X connect 91 0 96 0;
#X connect 91 1 68 0;
#X connect 92 0 101 0;
#X connect 93 0 94 0;
#X connect 95 0 93 0;
#X connect 96 0 97 0;
#X connect 97 0 69 0;
#X connect 98 0 99 0;
#X connect 99 0 100 0;
#X connect 100 0 90 0;
#X connect 101 0 99 0;
#X restore 164 192 pd space;
#N canvas 247 192 369 620 udpreceive 0;
#X obj -22 -22 unpackOSC;
#N canvas 310 440 572 316 gem-effect 0;
#X obj 144 -43 inlet;
#X obj 144 -12 route /effect;
#X obj 110 154 s e-bloom-tgl;
#X obj 110 127 tgl 15 0 empty empty empty 17 7 0 10 -262144 -1 -1 0
1;
#X obj 199 127 tgl 15 0 empty empty empty 17 7 0 10 -262144 -1 -1 0
1;
#X obj 199 154 s e-wave-tgl;
#X obj 286 127 tgl 15 0 empty empty empty 17 7 0 10 -262144 -1 -1 0
1;
#X obj 286 154 s e-time-tgl;
#X obj 316 17 loadbang;
#X msg 316 40 0;
#X obj 230 189 tgl 15 0 empty empty empty 17 7 0 10 -262144 -1 -1 0
1;
#X obj 230 216 s e-focus-tgl;
#X obj 144 19 route /1 /2 /3 /4 /5;
#X obj 340 90 tgl 15 0 empty empty empty 17 7 0 10 -262144 -1 -1 0
1;
#X obj 340 117 s e-leap-tgl;
#X obj 415 -2 route /l /r;
#X connect 0 0 1 0;
#X connect 1 0 12 0;
#X connect 3 0 2 0;
#X connect 4 0 5 0;
#X connect 6 0 7 0;
#X connect 8 0 9 0;
#X connect 9 0 3 0;
#X connect 9 0 4 0;
#X connect 9 0 6 0;
#X connect 9 0 10 0;
#X connect 9 0 13 0;
#X connect 10 0 11 0;
#X connect 12 0 3 0;
#X connect 12 1 4 0;
#X connect 12 2 6 0;
#X connect 12 3 10 0;
#X connect 12 4 15 0;
#X connect 13 0 14 0;
#X connect 15 2 13 0;
#X restore 31 114 pd gem-effect;
#N canvas 687 160 545 397 route 0;
#X obj -65 36 inlet;
#X floatatom -44 288 5 0 0 0 - - -;
#X floatatom -23 238 5 0 0 0 - - -;
#X obj -23 263 s fader;
#X obj -44 355 s v-distance;
#X obj -44 334 line;
#X msg -44 310 \$1 2000;
#X floatatom -1 185 5 0 0 0 - - -;
#X obj -1 207 s fadery;
#X obj 24 133 s 3d;
#X obj 46 174 s sx;
#X obj 68 149 s sy;
#X obj 91 129 s scrollvol;
#X obj -117 195 s v-speed;
#X obj -117 174 line;
#X msg -117 149 \$1 1000;
#X obj -65 70 route /gem;
#X obj 113 12 loadbang;
#X msg 113 35 0;
#X obj 135 156 s bomb-effect;
#X obj 113 182 tgl 15 0 empty empty empty 17 7 0 10 -262144 -1 -1 0
1;
#X obj 113 213 s mouseleft;
#X obj 180 264 tgl 15 0 empty empty empty 17 7 0 10 -262144 -1 -1 0
1;
#X obj 202 215 tgl 15 0 empty empty empty 17 7 0 10 -262144 -1 -1 0
1;
#X obj 180 295 s mouseleft3;
#X obj 202 246 s mouseright3;
#X obj 225 189 s gem-flash;
#X obj 247 147 s 2window;
#X obj 269 169 s gem-fade;
#X obj 113 60 t f f f;
#X obj -65 102 route /1 /2 /3 /4 /8 /5 /6 /7 /9 /10 /11 /12 /13 /14
/15 /16;
#X obj 319 120 route /17;
#X obj 319 145 s short;
#X connect 0 0 16 0;
#X connect 1 0 6 0;
#X connect 2 0 3 0;
#X connect 5 0 4 0;
#X connect 6 0 5 0;
#X connect 7 0 8 0;
#X connect 14 0 13 0;
#X connect 15 0 14 0;
#X connect 16 0 30 0;
#X connect 17 0 18 0;
#X connect 18 0 29 0;
#X connect 20 0 21 0;
#X connect 22 0 24 0;
#X connect 23 0 25 0;
#X connect 29 0 9 0;
#X connect 29 1 26 0;
#X connect 29 2 27 0;
#X connect 30 0 15 0;
#X connect 30 1 1 0;
#X connect 30 2 2 0;
#X connect 30 3 7 0;
#X connect 30 4 9 0;
#X connect 30 5 10 0;
#X connect 30 6 11 0;
#X connect 30 7 12 0;
#X connect 30 8 20 0;
#X connect 30 9 19 0;
#X connect 30 11 22 0;
#X connect 30 12 23 0;
#X connect 30 13 26 0;
#X connect 30 14 27 0;
#X connect 30 15 28 0;
#X connect 30 16 31 0;
#X connect 31 0 32 0;
#X restore -9 31 pd route gem-midi;
#N canvas 388 152 886 414 universe 0;
#X obj 3 77 inlet;
#X floatatom 2 143 5 0 0 0 - - -;
#X obj 2 166 s part-ch;
#X floatatom 72 144 5 0 0 0 - - -;
#X obj 72 210 s part-tgl;
#X obj 72 188 line;
#X floatatom 145 144 5 0 0 0 - - -;
#X obj 145 188 line;
#X obj 145 210 s partline-tgl;
#X msg 72 167 \$1 10000;
#X msg 145 167 \$1 10000;
#X floatatom 336 146 5 0 0 0 - - -;
#X obj 336 190 line;
#X obj 336 212 s hole-tgl;
#X obj 2 120 route /part-ch /part-tgl /partline-tgl /sphere-vol /hole-tgl
;
#X obj 330 26 loadbang;
#X obj 419 154 tgl 15 0 empty empty empty 17 7 0 10 -262144 -1 -1 0
1;
#X obj 419 223 s universe-tgl;
#X obj 474 264 tgl 15 0 empty empty empty 17 7 0 10 -262144 -1 -1 1
1;
#X obj 474 334 s u-all-vol;
#X obj 520 251 loadbang;
#X msg 520 271 0 0;
#X obj 419 198 line;
#X msg 419 175 \$1 30000;
#X obj 330 46 del 200;
#X msg 330 67 0 0;
#X floatatom 530 195 5 0 0 0 - - -;
#X obj 530 216 s s-alpha;
#X msg 496 171 0;
#X obj 496 145 loadbang;
#X obj 419 100 route /universe-tgl /u-all-vol /alpha /black /part-speed
/line-num;
#X obj 585 170 s black;
#X floatatom 641 182 5 0 0 0 - - -;
#X obj 641 201 s part-speed;
#X obj 696 163 s line-num;
#X floatatom 696 139 5 0 0 0 - - -;
#X floatatom 585 141 5 0 0 0 - - -;
#X obj 474 308 line;
#X msg 474 286 \$1 15000;
#X msg 336 169 \$1 10000;
#X connect 0 0 14 0;
#X connect 1 0 2 0;
#X connect 3 0 9 0;
#X connect 5 0 4 0;
#X connect 6 0 10 0;
#X connect 7 0 8 0;
#X connect 9 0 5 0;
#X connect 10 0 7 0;
#X connect 11 0 39 0;
#X connect 12 0 13 0;
#X connect 14 0 1 0;
#X connect 14 1 3 0;
#X connect 14 2 6 0;
#X connect 14 4 11 0;
#X connect 14 5 30 0;
#X connect 15 0 24 0;
#X connect 16 0 23 0;
#X connect 18 0 38 0;
#X connect 20 0 21 0;
#X connect 21 0 19 0;
#X connect 22 0 17 0;
#X connect 23 0 22 0;
#X connect 24 0 25 0;
#X connect 25 0 22 0;
#X connect 26 0 27 0;
#X connect 28 0 26 0;
#X connect 29 0 28 0;
#X connect 30 0 16 0;
#X connect 30 1 18 0;
#X connect 30 2 26 0;
#X connect 30 3 36 0;
#X connect 30 4 32 0;
#X connect 30 5 35 0;
#X connect 32 0 33 0;
#X connect 35 0 34 0;
#X connect 36 0 31 0;
#X connect 37 0 19 0;
#X connect 38 0 37 0;
#X connect 39 0 12 0;
#X restore 4 55 pd universe;
#N canvas 160 288 613 398 s_m-b 0;
#X floatatom -217 68 5 0 0 0 - - -;
#X floatatom -137 97 5 0 0 0 - - -;
#X floatatom -97 183 5 0 0 0 - - -;
#X obj -218 20 inlet;
#X floatatom -56 82 5 0 0 0 - - -;
#X floatatom -16 150 5 0 0 0 - - -;
#X obj -217 91 s mb-1;
#X obj -230 354 s mb-2;
#X obj -137 119 s mb-3;
#X obj -97 234 s mb-4;
#X obj -56 103 s mb-5;
#X obj -16 173 s mb-6;
#X obj 18 109 s mb-7;
#X obj -97 208 / 0.4;
#X floatatom -200 152 5 0 0 0 - - -;
#X floatatom -230 283 5 0 0 0 - - -;
#X obj -230 225 k_range 0.01 2.5 0 1;
#X msg -171 203 2.5;
#X obj 18 81 unpack f f;
#X floatatom 75 107 5 0 0 0 - - -;
#X obj 75 135 s mb-8;
#X obj -230 254 k_spring 0.5;
#X obj -218 47 route /mb-1 /mb-2 /mb-3 /mb-4 /mb-5 /mb-6 /mb-7 /mb-9
;
#X obj 127 97 s mb-9;
#X obj -230 308 abs;
#X obj -201 304 moses 1;
#X floatatom -201 328 5 0 0 0 - - -;
#X obj -252 181 k_event 0.01 6;
#X connect 0 0 6 0;
#X connect 1 0 8 0;
#X connect 2 0 13 0;
#X connect 3 0 22 0;
#X connect 4 0 10 0;
#X connect 5 0 11 0;
#X connect 13 0 9 0;
#X connect 14 0 27 0;
#X connect 15 0 24 0;
#X connect 16 0 21 0;
#X connect 17 0 16 0;
#X connect 18 0 12 0;
#X connect 18 1 19 0;
#X connect 19 0 20 0;
#X connect 21 0 15 0;
#X connect 22 0 0 0;
#X connect 22 1 14 0;
#X connect 22 2 1 0;
#X connect 22 3 2 0;
#X connect 22 4 4 0;
#X connect 22 5 5 0;
#X connect 22 6 18 0;
#X connect 22 7 23 0;
#X connect 24 0 25 0;
#X connect 25 0 26 0;
#X connect 26 0 7 0;
#X connect 27 0 16 0;
#X connect 27 1 17 0;
#X restore 44 154 pd s_m-b;
#N canvas 557 206 596 450 s_m-r 0;
#X floatatom 50 90 5 0 0 0 - - -;
#X floatatom 39 204 5 0 0 0 - - -;
#X floatatom 161 267 5 0 0 0 - - -;
#X floatatom 169 152 5 0 0 0 - - -;
#X obj 49 42 inlet;
#X floatatom 231 155 5 0 0 0 - - -;
#X floatatom 327 175 5 0 0 0 - - -;
#X obj 327 198 s mr-6;
#X obj 231 227 s mr-5;
#X obj 169 222 s mr-4;
#X obj 161 333 s mr-3;
#X obj 13 383 s mr-2;
#X obj -9 180 s mr-1;
#X obj 277 103 s mr;
#X obj 49 69 route /mr-1 /mr-2 /mr-3 /mr-4 /mr-5 /mr-6 /mr /mr-7;
#X floatatom 319 109 5 0 0 0 - - -;
#X obj 319 134 s mr-7;
#X obj -2 152 line;
#X msg -2 130 \$1 4000;
#X obj 14 334 line;
#X floatatom 13 361 5 0 0 0 - - -;
#X obj 161 312 line;
#X obj 169 197 line;
#X msg 169 175 \$1 1000;
#X obj 231 202 line;
#X msg 231 180 \$1 1000;
#X obj -8 279 k_range 0.01 7.345 0.1 0.9;
#X msg 161 290 \$1 1000;
#X msg 14 312 \$1 500;
#X connect 0 0 18 0;
#X connect 1 0 26 0;
#X connect 2 0 27 0;
#X connect 3 0 23 0;
#X connect 4 0 14 0;
#X connect 5 0 25 0;
#X connect 6 0 7 0;
#X connect 14 0 0 0;
#X connect 14 1 1 0;
#X connect 14 2 2 0;
#X connect 14 3 3 0;
#X connect 14 4 5 0;
#X connect 14 5 6 0;
#X connect 14 6 13 0;
#X connect 14 7 15 0;
#X connect 15 0 16 0;
#X connect 17 0 12 0;
#X connect 18 0 17 0;
#X connect 19 0 20 0;
#X connect 20 0 11 0;
#X connect 21 0 10 0;
#X connect 22 0 9 0;
#X connect 23 0 22 0;
#X connect 24 0 8 0;
#X connect 25 0 24 0;
#X connect 26 0 28 0;
#X connect 27 0 21 0;
#X connect 28 0 19 0;
#X restore 58 184 pd s_m-r;
#N canvas 88 130 796 368 midi 0;
#X obj 169 31 inlet;
#X obj 165 128 s smidi-16;
#X obj 191 154 s smidi-17;
#X obj 229 179 s smidi-18;
#X obj 258 205 s smidi-19;
#X obj 291 232 s smidi-20;
#X obj 167 60 route /midi;
#X obj 376 162 s smidi-0;
#X obj 403 187 s smidi-1;
#X obj 441 213 s smidi-2;
#X obj 470 239 s smidi-3;
#X obj 503 266 s smidi-4;
#X obj 165 92 route /16 /17 /18 /19 /20 /21;
#X obj 308 261 s smidi-21;
#X floatatom 560 194 5 0 0 0 - - -;
#X obj 560 222 sel 1;
#X obj 559 247 s smidi-100;
#X obj 377 126 route /0 /1 /2 /3 /4 /100 /23 /24;
#X obj 595 159 s smidi-23;
#X obj 620 184 s smidi-24;
#X connect 0 0 6 0;
#X connect 6 0 12 0;
#X connect 12 0 1 0;
#X connect 12 1 2 0;
#X connect 12 2 3 0;
#X connect 12 3 4 0;
#X connect 12 4 5 0;
#X connect 12 5 13 0;
#X connect 12 6 17 0;
#X connect 14 0 15 0;
#X connect 15 0 16 0;
#X connect 17 0 7 0;
#X connect 17 1 8 0;
#X connect 17 2 9 0;
#X connect 17 3 10 0;
#X connect 17 4 11 0;
#X connect 17 5 14 0;
#X connect 17 6 18 0;
#X connect 17 7 19 0;
#X restore 71 205 pd midi;
#X obj -22 -1 t a a a a a a a a a a a a;
#N canvas 424 152 651 525 graphic 0;
#X obj 148 62 inlet;
#X obj 148 96 route /gh;
#X obj 114 189 s graphic-2;
#X obj 145 164 s graphic-7;
#X obj 163 239 s g8;
#X obj 237 188 s g9;
#X obj 148 127 route /2 /7 /8;
#X obj 239 150 route /9 /9-1 /9-2 /9-3;
#X obj 255 211 s g9-1;
#X obj 293 229 s g9-2;
#X obj 336 246 s g9-3;
#X obj 423 148 route /10 /10-1 /10-2 /10-3;
#X obj 421 186 s g10;
#X obj 439 209 s g10-1;
#X obj 477 227 s g10-2;
#X obj 520 244 s g10-3;
#X obj 206 343 s g11;
#X obj 224 366 s g11-1;
#X obj 262 384 s g11-2;
#X obj 305 401 s g11-3;
#X obj 468 402 s g12;
#X obj 468 371 route /12 /13;
#X obj 510 402 s g13;
#X obj 208 305 route /11 /11-1 /11-2 /11-3 /14 /15 /16 /17;
#X obj 345 433 s g14;
#X obj 363 456 s g15;
#X obj 401 474 s g16;
#X obj 444 491 s g17;
#X connect 0 0 1 0;
#X connect 1 0 6 0;
#X connect 6 0 2 0;
#X connect 6 1 3 0;
#X connect 6 2 4 0;
#X connect 6 3 7 0;
#X connect 6 3 11 0;
#X connect 6 3 23 0;
#X connect 7 0 5 0;
#X connect 7 1 8 0;
#X connect 7 2 9 0;
#X connect 7 3 10 0;
#X connect 11 0 12 0;
#X connect 11 1 13 0;
#X connect 11 2 14 0;
#X connect 11 3 15 0;
#X connect 21 0 20 0;
#X connect 21 1 22 0;
#X connect 23 0 16 0;
#X connect 23 1 17 0;
#X connect 23 2 18 0;
#X connect 23 3 19 0;
#X connect 23 4 24 0;
#X connect 23 5 25 0;
#X connect 23 6 26 0;
#X connect 23 7 27 0;
#X connect 23 8 21 0;
#X restore 84 65 pd graphic;
#X text 214 287 click;
#X obj 3 482 st-pureverb /key;
#X obj 114 372 loadbang;
#X obj 3 569 throw~ u-all-l;
#X obj 176 567 throw~ u-all-r;
#X msg 201 396 2 0.49;
#X msg 152 395 1 0.49;
#X msg 114 395 0 0.6;
#X obj -22 235 route /0 /1 /2 /3 /4 /5 /6 /7;
#X obj -22 259 s_track 0;
#X obj -22 -42 udpreceive 13000;
#N canvas 681 350 561 300 s_m-s 0;
#X floatatom 183 77 5 0 0 0 - - -;
#X floatatom 230 77 5 0 0 0 - - -;
#X obj 183 100 s s-a1;
#X obj 230 254 s s-a2;
#X floatatom 281 122 5 0 0 0 - - -;
#X floatatom 332 120 5 0 0 0 - - -;
#X obj 332 142 s s-a4;
#X obj 281 144 s s-a3;
#X obj 332 95 - 1;
#X obj 281 97 - 1;
#X obj 183 20 inlet;
#X obj 382 141 s s-a5;
#X msg 434 115 \$1 5000;
#X obj 434 136 line;
#X floatatom 434 93 5 0 0 0 - - -;
#X obj 182 56 route /s-a1 /s-a2 /s-a3 /s-a4 /s-a5 /s-a6;
#X obj 434 158 s s-a6;
#X obj 230 188 k_spring 0.5;
#X obj 448 44 loadbang;
#X msg 448 66 0 0;
#X floatatom 383 106 5 0 0 0 - - -;
#X msg 230 210 \$1 1000;
#X obj 230 231 line;
#X connect 0 0 2 0;
#X connect 1 0 17 0;
#X connect 4 0 7 0;
#X connect 5 0 6 0;
#X connect 8 0 5 0;
#X connect 9 0 4 0;
#X connect 10 0 15 0;
#X connect 12 0 13 0;
#X connect 13 0 16 0;
#X connect 14 0 12 0;
#X connect 15 0 0 0;
#X connect 15 1 1 0;
#X connect 15 2 9 0;
#X connect 15 3 8 0;
#X connect 15 4 20 0;
#X connect 15 5 14 0;
#X connect 17 0 21 0;
#X connect 18 0 19 0;
#X connect 19 0 13 0;
#X connect 20 0 11 0;
#X connect 21 0 22 0;
#X connect 22 0 3 0;
#X restore 18 83 pd s_m-s;
#X obj 165 67 s leap;
#X obj 147 449 catch~ sun_l;
#X obj 236 451 catch~ sun_r;
#X msg 243 398 3 0.35;
#X obj 20 316 s_track 2;
#X obj -1 286 s_track 1;
#X obj 62 287 s_track 4;
#X obj 41 262 s_track 3;
#X obj 83 315 s_track 5;
#X obj 104 262 s_track 6;
#X obj 125 290 s_track 7;
#X connect 0 0 7 0;
#X connect 7 0 17 0;
#X connect 7 1 2 0;
#X connect 7 2 3 0;
#X connect 7 3 20 0;
#X connect 7 4 1 0;
#X connect 7 5 4 0;
#X connect 7 6 5 0;
#X connect 7 7 6 0;
#X connect 7 8 8 0;
#X connect 7 9 21 0;
#X connect 10 0 12 0;
#X connect 10 1 13 0;
#X connect 11 0 16 0;
#X connect 11 0 15 0;
#X connect 11 0 14 0;
#X connect 11 0 24 0;
#X connect 14 0 10 2;
#X connect 15 0 10 2;
#X connect 16 0 10 2;
#X connect 17 0 18 0;
#X connect 17 1 26 0;
#X connect 17 2 25 0;
#X connect 17 3 28 0;
#X connect 17 4 27 0;
#X connect 17 5 29 0;
#X connect 17 6 30 0;
#X connect 17 7 31 0;
#X connect 18 0 10 0;
#X connect 18 1 10 1;
#X connect 19 0 0 0;
#X connect 22 0 10 0;
#X connect 23 0 10 1;
#X connect 24 0 10 2;
#X connect 25 0 10 0;
#X connect 25 1 10 1;
#X connect 26 0 10 0;
#X connect 26 1 10 1;
#X connect 27 0 10 0;
#X connect 27 1 10 1;
#X connect 28 0 10 0;
#X connect 28 1 10 1;
#X connect 29 0 10 0;
#X connect 29 1 10 1;
#X connect 30 0 10 0;
#X connect 30 1 10 1;
#X connect 31 0 10 0;
#X connect 31 1 10 1;
#X restore 166 134 pd udpreceive;
#N canvas 257 99 704 764 Motion-s 0;
#X obj 145 17 phasor~;
#X obj 145 46 expr~ fmod($v1*4 \, 1);
#X obj 145 74 expr~ fmod($v1*2 \, 1);
#X obj 297 101 expr~ fmod($v1+$v2 \, 1);
#X obj 290 193 r s-a2;
#X obj 426 77 sig~ 0.5;
#X floatatom 290 265 5 0 0 0 - - -;
#X obj 145 -43 sig~ 1;
#X obj 145 -16 expr~ 1/$v1;
#X floatatom 145 -81 5 0 0 0 - - -;
#X floatatom 290 311 5 0 0 0 - - -;
#X text 435 285 radius;
#X obj 78 409 *~;
#X obj 177 408 *~;
#X obj 78 443 throw~ u-all-l;
#X obj 177 444 throw~ u-all-r;
#X obj 78 309 st-pureverb /key;
#X obj -78 169 r s-a5;
#X floatatom -78 194 5 0 0 0 - - -;
#X obj -78 260 line~;
#X text -33 166 point;
#N canvas 136 292 261 479 burn 0;
#X obj 0 44 noise~;
#X obj 73 -18 loadbang;
#X msg 102 17 0.6;
#X obj 0 149 clip~ -1 1;
#X obj 32 -52 inlet~;
#X obj 2 316 outlet~;
#X obj 0 128 *~ 120;
#X obj 25 -4 *~;
#X obj 0 65 bp~ 8000 0.5;
#X obj 33 231 *~ 12000;
#X msg 73 17 1;
#X obj 0 86 vcf~ 0 1;
#X obj 2 254 vcf~ 0 0.6;
#X obj 135 150 inlet;
#X obj 130 189 sig~;
#X obj 0 107 hip~ 150;
#X obj 25 17 *~ 250;
#X obj 2 286 *~ 0.25;
#X connect 0 0 8 0;
#X connect 1 0 2 0;
#X connect 1 0 10 0;
#X connect 2 0 12 2;
#X connect 3 0 12 0;
#X connect 4 0 7 0;
#X connect 4 0 7 1;
#X connect 6 0 3 0;
#X connect 7 0 16 0;
#X connect 8 0 11 0;
#X connect 9 0 12 1;
#X connect 10 0 11 2;
#X connect 11 0 15 0;
#X connect 12 0 17 0;
#X connect 13 0 14 0;
#X connect 14 0 9 0;
#X connect 15 0 6 0;
#X connect 16 0 11 1;
#X connect 17 0 5 0;
#X restore -78 324 pd burn;
#X obj 53 -204 r s-a1;
#X text 100 -203 noise;
#X floatatom 53 -177 5 0 0 0 - - -;
#X obj 53 -131 t f f f;
#X obj 78 281 *~;
#X obj 123 280 *~;
#X obj 332 314 r s-a6;
#X floatatom 332 337 5 0 0 0 - - -;
#X obj 332 363 sig~;
#X obj 290 365 *~;
#X obj 290 335 sig~;
#N canvas 0 22 1084 579 point 0;
#X obj 192 185 square~;
#X obj 162 323 outlet~;
#X obj 123 92 random 10;
#X obj 123 119 + 30;
#X obj 123 60 bng 15 250 50 0 empty empty empty 17 7 0 10 -262144 -1
-1;
#X obj 192 92 random 10;
#X obj 192 119 + 30;
#X obj 192 60 bng 15 250 50 0 empty empty empty 17 7 0 10 -262144 -1
-1;
#X obj 123 147 mtof;
#X obj 192 150 mtof;
#X obj 329 186 square~;
#X obj 260 93 random 10;
#X obj 260 120 + 30;
#X obj 260 61 bng 15 250 50 0 empty empty empty 17 7 0 10 -262144 -1
-1;
#X obj 329 93 random 10;
#X obj 329 120 + 30;
#X obj 329 61 bng 15 250 50 0 empty empty empty 17 7 0 10 -262144 -1
-1;
#X obj 260 148 mtof;
#X obj 329 151 mtof;
#X obj 399 94 random 10;
#X obj 399 121 + 30;
#X obj 399 62 bng 15 250 50 0 empty empty empty 17 7 0 10 -262144 -1
-1;
#X obj 399 152 mtof;
#X obj 177 23 t b b b b b;
#X obj 177 -5 inlet;
#X obj 539 183 square~;
#X obj 509 321 outlet~;
#X obj 470 90 random 10;
#X obj 470 117 + 30;
#X obj 470 58 bng 15 250 50 0 empty empty empty 17 7 0 10 -262144 -1
-1;
#X obj 539 90 random 10;
#X obj 539 117 + 30;
#X obj 539 58 bng 15 250 50 0 empty empty empty 17 7 0 10 -262144 -1
-1;
#X obj 470 145 mtof;
#X obj 539 148 mtof;
#X obj 676 184 square~;
#X obj 607 91 random 10;
#X obj 607 118 + 30;
#X obj 607 59 bng 15 250 50 0 empty empty empty 17 7 0 10 -262144 -1
-1;
#X obj 676 91 random 10;
#X obj 676 118 + 30;
#X obj 676 59 bng 15 250 50 0 empty empty empty 17 7 0 10 -262144 -1
-1;
#X obj 607 146 mtof;
#X obj 676 149 mtof;
#X obj 746 92 random 10;
#X obj 746 119 + 30;
#X obj 746 60 bng 15 250 50 0 empty empty empty 17 7 0 10 -262144 -1
-1;
#X obj 746 150 mtof;
#X obj 524 21 t b b b b b;
#X obj 490 -171 r s-a3;
#X obj 347 -171 r s-a4;
#X floatatom 347 -139 5 0 0 0 - - -;
#X floatatom 490 -139 5 0 0 0 - - -;
#X text 347 -194 two;
#X obj 347 -87 int;
#X obj 490 -91 int;
#X obj 260 186 triangle~;
#X obj 607 184 triangle~;
#X obj 347 -116 k_range 0 1 2 50;
#X obj 123 185 osc~;
#X obj 470 183 osc~;
#X obj 746 185 osc~;
#X obj 399 187 osc~;
#X obj 490 -116 k_range 0 1 60 90;
#X obj 123 215 *~ 0.1;
#X obj 192 215 *~ 0.1;
#X obj 260 216 *~ 0.1;
#X obj 329 216 *~ 0.1;
#X obj 399 217 *~ 0.1;
#X obj 470 213 *~ 0.1;
#X obj 539 213 *~ 0.1;
#X obj 607 214 *~ 0.1;
#X obj 676 214 *~ 0.1;
#X obj 746 215 *~ 0.1;
#X connect 0 0 65 0;
#X connect 2 0 3 0;
#X connect 3 0 8 0;
#X connect 4 0 2 0;
#X connect 5 0 6 0;
#X connect 6 0 9 0;
#X connect 7 0 5 0;
#X connect 8 0 59 0;
#X connect 9 0 0 0;
#X connect 10 0 67 0;
#X connect 11 0 12 0;
#X connect 12 0 17 0;
#X connect 13 0 11 0;
#X connect 14 0 15 0;
#X connect 15 0 18 0;
#X connect 16 0 14 0;
#X connect 17 0 56 0;
#X connect 18 0 10 0;
#X connect 19 0 20 0;
#X connect 20 0 22 0;
#X connect 21 0 19 0;
#X connect 22 0 62 0;
#X connect 23 0 4 0;
#X connect 23 1 7 0;
#X connect 23 2 13 0;
#X connect 23 3 16 0;
#X connect 23 4 21 0;
#X connect 24 0 23 0;
#X connect 24 0 48 0;
#X connect 25 0 70 0;
#X connect 27 0 28 0;
#X connect 28 0 33 0;
#X connect 29 0 27 0;
#X connect 30 0 31 0;
#X connect 31 0 34 0;
#X connect 32 0 30 0;
#X connect 33 0 60 0;
#X connect 34 0 25 0;
#X connect 35 0 72 0;
#X connect 36 0 37 0;
#X connect 37 0 42 0;
#X connect 38 0 36 0;
#X connect 39 0 40 0;
#X connect 40 0 43 0;
#X connect 41 0 39 0;
#X connect 42 0 57 0;
#X connect 43 0 35 0;
#X connect 44 0 45 0;
#X connect 45 0 47 0;
#X connect 46 0 44 0;
#X connect 47 0 61 0;
#X connect 48 0 29 0;
#X connect 48 1 32 0;
#X connect 48 2 38 0;
#X connect 48 3 41 0;
#X connect 48 4 46 0;
#X connect 49 0 52 0;
#X connect 50 0 51 0;
#X connect 51 0 58 0;
#X connect 52 0 63 0;
#X connect 54 0 2 1;
#X connect 54 0 5 1;
#X connect 54 0 11 1;
#X connect 54 0 14 1;
#X connect 54 0 19 1;
#X connect 54 0 27 1;
#X connect 54 0 30 1;
#X connect 54 0 36 1;
#X connect 54 0 39 1;
#X connect 54 0 44 1;
#X connect 55 0 3 1;
#X connect 55 0 6 1;
#X connect 55 0 12 1;
#X connect 55 0 15 1;
#X connect 55 0 20 1;
#X connect 55 0 28 1;
#X connect 55 0 31 1;
#X connect 55 0 37 1;
#X connect 55 0 40 1;
#X connect 55 0 45 1;
#X connect 56 0 66 0;
#X connect 57 0 71 0;
#X connect 58 0 54 0;
#X connect 59 0 64 0;
#X connect 60 0 69 0;
#X connect 61 0 73 0;
#X connect 62 0 68 0;
#X connect 63 0 55 0;
#X connect 64 0 1 0;
#X connect 65 0 1 0;
#X connect 66 0 1 0;
#X connect 67 0 1 0;
#X connect 68 0 1 0;
#X connect 69 0 26 0;
#X connect 70 0 26 0;
#X connect 71 0 26 0;
#X connect 72 0 26 0;
#X connect 73 0 26 0;
#X restore 78 235 pd point;
#X obj 78 94 unsig~ 1;
#X obj 78 173 change;
#X obj 78 197 sel 1;
#X obj 78 147 expr if($f1>0.9 \, 1 \, 0);
#X obj 72 -107 k_range 0 2 1 0.5;
#X obj 78 121 * 1;
#X obj 290 215 k_event 0.05 4;
#X msg 371 238 4;
#X obj -78 303 lop~ 0.5;
#X msg -78 236 \$1 200;
#X obj 290 284 k_range 0.05 4 0.01 0.4;
#X obj -45 -69 t f b;
#X obj -26 6 +;
#X floatatom 3 40 5 0 0 0 - - -;
#X obj -46 -155 t f f;
#X obj -4 -121 > 0;
#X obj 3 -70 gate 2;
#X obj 3 -92 + 1;
#X msg 11 -45 0;
#X obj -11 -27 randomF 0.3;
#X obj -39 279 k_range 0.01 2.5 0 1;
#X obj 145 126 expr~ if($v1<0.5 \, 0.5 \, 0);
#X obj 297 125 expr~ if($v1<0.5 \, 0.5 \, 0);
#X connect 0 0 1 0;
#X connect 1 0 2 0;
#X connect 2 0 3 0;
#X connect 2 0 34 0;
#X connect 2 0 55 0;
#X connect 3 0 56 0;
#X connect 4 0 40 0;
#X connect 5 0 3 1;
#X connect 6 0 44 0;
#X connect 7 0 8 0;
#X connect 8 0 0 0;
#X connect 9 0 7 0;
#X connect 10 0 32 0;
#X connect 12 0 14 0;
#X connect 13 0 15 0;
#X connect 16 0 12 0;
#X connect 16 1 13 0;
#X connect 17 0 18 0;
#X connect 18 0 43 0;
#X connect 19 0 42 0;
#X connect 21 0 16 0;
#X connect 21 0 16 1;
#X connect 22 0 24 0;
#X connect 24 0 25 0;
#X connect 25 0 48 0;
#X connect 25 1 38 0;
#X connect 26 0 16 0;
#X connect 27 0 16 1;
#X connect 28 0 29 0;
#X connect 29 0 30 0;
#X connect 29 0 39 1;
#X connect 30 0 31 1;
#X connect 31 0 13 1;
#X connect 31 0 12 1;
#X connect 32 0 31 0;
#X connect 33 0 26 0;
#X connect 33 1 27 0;
#X connect 34 0 39 0;
#X connect 35 0 36 0;
#X connect 36 0 33 0;
#X connect 37 0 35 0;
#X connect 38 0 9 0;
#X connect 39 0 37 0;
#X connect 40 0 6 0;
#X connect 40 1 41 0;
#X connect 41 0 6 0;
#X connect 42 0 21 0;
#X connect 43 0 19 0;
#X connect 44 0 10 0;
#X connect 45 0 46 0;
#X connect 45 1 53 0;
#X connect 46 0 47 0;
#X connect 46 0 54 0;
#X connect 48 0 50 1;
#X connect 48 1 49 0;
#X connect 49 0 51 0;
#X connect 50 0 52 0;
#X connect 50 1 45 0;
#X connect 51 0 50 0;
#X connect 52 0 54 0;
#X connect 53 0 46 1;
#X connect 54 0 21 1;
#X connect 55 0 26 1;
#X connect 56 0 27 1;
#X restore 167 40 pd Motion-s;
#N canvas 413 159 833 517 Motion-r 0;
#X obj 394 -33 r mr-7;
#X floatatom 394 -8 5 0 0 0 - - -;
#X obj 394 109 phasor~;
#X obj 394 86 sig~;
#X obj 284 134 *~;
#X obj 394 18 t f f;
#X obj 483 59 > 0;
#X obj 483 81 \$1 100;
#X obj 483 103 line~;
#X obj 284 160 *~;
#X obj 544 68 r mr-2;
#X text 595 67 radius;
#X obj 299 352 catch~ cha1;
#X obj 284 425 *~;
#X obj 370 425 *~;
#X obj 284 389 +~;
#X obj 370 395 +~;
#X obj 385 352 catch~ cha2;
#X obj 577 158 sig~;
#X obj 394 44 moses 100;
#X msg 445 68 100;
#X text 441 -33 link num;
#X obj 284 184 mono-delayfb /key;
#X obj 480 234 expr~ fmod($v1+0.5 \, 1);
#X obj 284 299 *~;
#X obj 314 299 *~;
#X obj 544 0 split 0 400;
#X obj 544 26 k_range 0 400 1 40;
#X msg 711 135 \$1 10000;
#X obj 711 161 line;
#X obj 711 110 r mr-1;
#X msg 755 110 0 0;
#X obj 755 86 loadbang;
#X obj 480 185 osc~ 1;
#X obj 480 208 abs~;
#X obj 358 302 *~;
#X obj 388 302 *~;
#X obj 503 262 expr~ fmod($v1+0.7 \, 1);
#X obj 528 287 expr~ fmod($v1+0.9 \, 1);
#X obj 284 446 throw~ ch1;
#X obj 370 451 throw~ ch2;
#X obj 141 213 mr 39;
#X obj 8 20 mr 0;
#X obj 93 149 mr 26;
#X obj 92 104 mr 24;
#X obj 9 41 mr 1;
#X obj 9 63 mr 2;
#X obj 10 84 mr 3;
#X obj 10 105 mr 4;
#X obj 11 126 mr 5;
#X obj 11 149 mr 6;
#X obj 11 170 mr 7;
#X obj 11 190 mr 8;
#X obj 11 212 mr 9;
#X obj 45 21 mr 10;
#X obj 46 43 mr 11;
#X obj 46 65 mr 12;
#X obj 47 86 mr 13;
#X obj 47 107 mr 14;
#X obj 48 128 mr 15;
#X obj 48 151 mr 16;
#X obj 48 172 mr 17;
#X obj 48 192 mr 18;
#X obj 48 214 mr 19;
#X obj 90 18 mr 20;
#X obj 91 41 mr 21;
#X obj 91 63 mr 22;
#X obj 92 84 mr 23;
#X obj 93 126 mr 25;
#X obj 93 170 mr 27;
#X obj 93 190 mr 28;
#X obj 93 212 mr 29;
#X obj 138 20 mr 30;
#X obj 139 42 mr 31;
#X obj 139 64 mr 32;
#X obj 140 85 mr 33;
#X obj 140 106 mr 34;
#X obj 141 127 mr 35;
#X obj 141 150 mr 36;
#X obj 141 171 mr 37;
#X obj 141 191 mr 38;
#X msg 536 124 0 \$1;
#X obj 544 93 t f b;
#X obj 610 91 k_random 0.5 0.7;
#X msg 577 122 1 \$1;
#X obj 284 97 phasor~ 1500;
#X obj 235 76 osc~ 2000;
#X obj 235 13 expr 4000+($f1*5);
#X obj 284 44 expr 3001+($f1*5);
#X obj 284 269 *~ 0.08;
#X connect 0 0 1 0;
#X connect 1 0 5 0;
#X connect 1 0 26 0;
#X connect 1 0 87 0;
#X connect 1 0 88 0;
#X connect 2 0 4 1;
#X connect 3 0 2 0;
#X connect 4 0 9 0;
#X connect 5 0 19 0;
#X connect 5 1 6 0;
#X connect 6 0 7 0;
#X connect 7 0 8 0;
#X connect 8 0 9 1;
#X connect 9 0 22 0;
#X connect 10 0 82 0;
#X connect 12 0 15 1;
#X connect 13 0 39 0;
#X connect 14 0 40 0;
#X connect 15 0 13 0;
#X connect 16 0 14 0;
#X connect 17 0 16 1;
#X connect 18 0 13 1;
#X connect 18 0 14 1;
#X connect 19 0 3 0;
#X connect 19 1 20 0;
#X connect 20 0 3 0;
#X connect 22 0 89 0;
#X connect 23 0 25 1;
#X connect 24 0 15 0;
#X connect 25 0 16 0;
#X connect 26 0 27 0;
#X connect 27 0 33 0;
#X connect 28 0 29 0;
#X connect 29 0 18 0;
#X connect 30 0 28 0;
#X connect 31 0 29 0;
#X connect 32 0 31 0;
#X connect 33 0 34 0;
#X connect 34 0 23 0;
#X connect 34 0 24 1;
#X connect 34 0 37 0;
#X connect 34 0 38 0;
#X connect 37 0 35 1;
#X connect 38 0 36 1;
#X connect 81 0 22 1;
#X connect 82 0 81 0;
#X connect 82 1 83 0;
#X connect 83 0 84 0;
#X connect 84 0 22 1;
#X connect 85 0 4 0;
#X connect 86 0 4 0;
#X connect 87 0 86 0;
#X connect 88 0 85 0;
#X connect 89 0 24 0;
#X connect 89 0 25 0;
#X connect 89 0 35 0;
#X connect 89 0 36 0;
#X restore 167 64 pd Motion-r;
#N canvas 165 96 739 696 Motion-b 0;
#X obj 59 -99 r mb-7;
#X floatatom 242 72 5 0 0 0 - - -;
#X obj 242 43 r mb-2;
#X obj 86 -23 f;
#X obj 115 -22 + 1;
#X obj 59 -48 t f b;
#X floatatom 86 6 5 0 0 0 - - -;
#X obj 147 -23 % 6;
#X obj 86 32 + 1;
#X obj 49 70 gate 6 5 4 3 2 1 0;
#X obj 185 0 f;
#X obj 214 1 + 1;
#X obj 184 -20 sel 0;
#X obj 185 24 sel 0;
#X obj 246 0 % 4;
#X obj 126 -295 r mb-8;
#X floatatom 126 -268 5 0 0 0 - - -;
#X obj 126 -216 perk-hihat;
#X obj 126 -242 sel 0;
#X obj 183 -278 loadbang;
#X obj 474 -104 sel 0;
#X obj 565 -242 r mb-9;
#X obj 565 -201 sel 0 1;
#X msg 596 -176 1 0;
#X obj 623 -230 loadbang;
#X msg 565 -174 4 3;
#X obj 474 -125 expr if($f1%$f2==$f3 \, 0 \, 1);
#X obj 501 -54 f;
#X obj 530 -53 + 1;
#X floatatom 501 -25 5 0 0 0 - - -;
#X obj 501 1 + 1;
#X obj 474 -79 t b b;
#N canvas 0 22 422 311 sound 0;
#X obj 48 55 perk-cowbell /key;
#X obj 105 -19 loadbang;
#X obj 48 14 inlet;
#X obj 48 157 outlet~;
#X msg 105 7 1 0.45 \, 2 0.6 \, 3 0.5 \, 4 0.1 \, 50.49;
#X obj 189 -62 randomF 0.05;
#X obj 191 -34 + 0.3;
#X msg 178 28 0 \$1;
#X obj 189 -95 inlet;
#X connect 0 0 3 0;
#X connect 1 0 4 0;
#X connect 2 0 0 0;
#X connect 4 0 0 1;
#X connect 5 0 6 0;
#X connect 6 0 7 0;
#X connect 7 0 0 1;
#X connect 8 0 5 0;
#X restore 389 5 pd sound;
#X floatatom 565 -221 5 0 0 0 - - -;
#X obj 564 -150 unpack f f;
#X obj 604 -40 f;
#X obj 633 -39 + 1;
#X obj 603 -60 sel 0;
#X obj 604 -16 sel 0;
#X obj 665 -40 % 4;
#N canvas 0 22 647 339 sound 0;
#X obj 48 55 perk-cowbell /key;
#X obj 104 -27 loadbang;
#X obj 52 -2 inlet;
#X obj 55 165 outlet~;
#X msg 104 -1 1 0.45 \, 2 0.6 \, 3 0.5 \, 4 0.1 \, 50.49;
#X obj 189 -62 randomF 0.05;
#X obj 191 -34 + 0.3;
#X msg 178 28 0 \$1;
#X obj 189 -95 inlet;
#X connect 0 0 3 0;
#X connect 1 0 4 0;
#X connect 2 0 0 0;
#X connect 4 0 0 1;
#X connect 5 0 6 0;
#X connect 6 0 7 0;
#X connect 7 0 0 1;
#X connect 8 0 5 0;
#X restore 407 26 pd sound;
#N canvas 0 22 647 339 sound 0;
#X obj 48 55 perk-cowbell /key;
#X obj 104 -27 loadbang;
#X obj 52 -2 inlet;
#X obj 55 165 outlet~;
#X msg 104 -1 1 0.45 \, 2 0.6 \, 3 0.5 \, 4 0.1 \, 50.49;
#X obj 189 -62 randomF 0.05;
#X obj 191 -34 + 0.3;
#X msg 178 28 0 \$1;
#X obj 189 -95 inlet;
#X connect 0 0 3 0;
#X connect 1 0 4 0;
#X connect 2 0 0 0;
#X connect 4 0 0 1;
#X connect 5 0 6 0;
#X connect 6 0 7 0;
#X connect 7 0 0 1;
#X connect 8 0 5 0;
#X restore 429 48 pd sound;
#X obj 308 -3 r mb-1;
#X obj 308 48 line;
#X obj 81 294 throw~ u-all-l;
#X obj 217 294 throw~ u-all-r;
#X msg 326 -24 0 0;
#X obj 326 -48 loadbang;
#X obj 242 211 line~;
#X floatatom 59 -74 5 0 0 0 - - -;
#N canvas 0 22 647 339 sound 0;
#X obj 48 55 perk-cowbell /key;
#X obj 104 -27 loadbang;
#X obj 52 -2 inlet;
#X obj 55 165 outlet~;
#X msg 104 -1 1 0.45 \, 2 0.6 \, 3 0.5 \, 4 0.1 \, 50.49;
#X obj 189 -62 randomF 0.05;
#X obj 191 -34 + 0.3;
#X msg 178 28 0 \$1;
#X obj 189 -95 inlet;
#X connect 0 0 3 0;
#X connect 1 0 4 0;
#X connect 2 0 0 0;
#X connect 4 0 0 1;
#X connect 5 0 6 0;
#X connect 6 0 7 0;
#X connect 7 0 0 1;
#X connect 8 0 5 0;
#X restore 450 70 pd sound;
#X obj 389 -20 gate 4 3 2 1;
#X obj 562 -54 % 4;
#X obj 49 97 mb 0;
#X obj 217 267 *~;
#X obj 81 264 *~;
#X msg 241 98 \$1 100;
#X obj 241 119 line;
#X msg 241 144 3 \$1;
#X floatatom 301 88 5 0 0 0 - - -;
#X msg 183 -255 0 0.3 \, 1 0.4 \, 2 0.4 \, 3 0.2 \, 4 0.7 \, 5 0.6
\, 6 0.8 \, 7 0.8 \, 8 0.65 \, 9 0.4 \, 10 0.8 \, 11 0.49;
#X obj 44 168 st-pureverb /key;
#X obj 389 111 *~ 0.45;
#X obj 454 136 *~ 0.45;
#X obj 133 95 mb 4;
#X obj 70 127 mb 1;
#X obj 91 97 mb 2;
#X obj 112 127 mb 3;
#X obj 153 125 mb 5;
#X obj 352 60 tgl 15 0 empty empty empty 17 7 0 10 -262144 -1 -1 0
1;
#X msg 308 22 \$1 20000;
#X connect 0 0 49 0;
#X connect 1 0 56 0;
#X connect 2 0 1 0;
#X connect 3 0 4 0;
#X connect 3 0 6 0;
#X connect 4 0 7 0;
#X connect 5 0 9 1;
#X connect 5 1 3 0;
#X connect 6 0 8 0;
#X connect 6 0 12 0;
#X connect 7 0 3 1;
#X connect 8 0 9 0;
#X connect 9 0 53 0;
#X connect 9 1 65 0;
#X connect 9 2 66 0;
#X connect 9 3 67 0;
#X connect 9 4 64 0;
#X connect 9 5 68 0;
#X connect 10 0 11 0;
#X connect 10 0 13 0;
#X connect 11 0 14 0;
#X connect 12 0 10 0;
#X connect 13 0 53 1;
#X connect 13 0 64 1;
#X connect 13 0 65 1;
#X connect 13 0 66 1;
#X connect 13 0 67 1;
#X connect 13 0 68 1;
#X connect 14 0 10 1;
#X connect 15 0 16 0;
#X connect 16 0 18 0;
#X connect 17 0 61 0;
#X connect 17 0 61 1;
#X connect 18 0 17 0;
#X connect 18 1 26 0;
#X connect 19 0 60 0;
#X connect 20 0 31 0;
#X connect 21 0 33 0;
#X connect 22 0 25 0;
#X connect 22 1 23 0;
#X connect 23 0 34 0;
#X connect 24 0 25 0;
#X connect 25 0 34 0;
#X connect 26 0 20 0;
#X connect 27 0 28 0;
#X connect 27 0 29 0;
#X connect 28 0 52 0;
#X connect 29 0 30 0;
#X connect 29 0 37 0;
#X connect 30 0 51 0;
#X connect 31 0 51 1;
#X connect 31 1 27 0;
#X connect 32 0 62 0;
#X connect 33 0 22 0;
#X connect 34 0 26 1;
#X connect 34 1 26 2;
#X connect 35 0 36 0;
#X connect 35 0 38 0;
#X connect 36 0 39 0;
#X connect 37 0 35 0;
#X connect 38 0 32 1;
#X connect 38 0 40 1;
#X connect 38 0 41 1;
#X connect 38 0 50 1;
#X connect 39 0 35 1;
#X connect 40 0 63 0;
#X connect 41 0 62 0;
#X connect 42 0 70 0;
#X connect 42 0 69 0;
#X connect 43 0 59 0;
#X connect 46 0 43 0;
#X connect 47 0 46 0;
#X connect 48 0 55 1;
#X connect 48 0 54 1;
#X connect 49 0 5 0;
#X connect 50 0 63 0;
#X connect 51 0 32 0;
#X connect 51 1 40 0;
#X connect 51 2 41 0;
#X connect 51 3 50 0;
#X connect 52 0 27 1;
#X connect 53 0 61 0;
#X connect 53 1 61 1;
#X connect 54 0 45 0;
#X connect 55 0 44 0;
#X connect 56 0 57 0;
#X connect 57 0 58 0;
#X connect 59 0 48 0;
#X connect 60 0 17 1;
#X connect 61 0 55 0;
#X connect 61 1 54 0;
#X connect 62 0 61 0;
#X connect 63 0 61 1;
#X connect 64 0 61 0;
#X connect 64 1 61 1;
#X connect 65 0 61 0;
#X connect 65 1 61 1;
#X connect 66 0 61 0;
#X connect 66 1 61 1;
#X connect 67 0 61 0;
#X connect 67 1 61 1;
#X connect 68 0 61 0;
#X connect 68 1 61 1;
#X connect 70 0 43 0;
#X restore 167 86 pd Motion-b;
#N canvas 388 386 842 321 ocean 0;
#X obj -1 33 noise~;
#N canvas 0 22 175 257 windspeed 0;
#X obj 13 41 +~ 1;
#X obj 12 151 +~;
#X obj 13 64 *~ 0.25;
#X obj 28 129 +~;
#X obj 13 173 clip~ 0 1;
#N canvas 0 22 184 221 squall 0;
#X obj 78 41 noise~;
#X obj 77 108 hip~ 0;
#X obj 78 64 lop~ 3;
#X obj 78 85 lop~ 3;
#X obj 17 112 *~;
#X obj 38 160 *~;
#X obj 16 42 max~ 0.4;
#X obj 16 64 -~ 0.4;
#X obj 16 87 *~ 8;
#X obj 78 129 *~ 20;
#X obj 16 14 inlet~;
#X obj 40 184 outlet~;
#X connect 0 0 2 0;
#X connect 1 0 9 0;
#X connect 2 0 3 0;
#X connect 3 0 1 0;
#X connect 4 0 5 0;
#X connect 5 0 11 0;
#X connect 6 0 7 0;
#X connect 7 0 8 0;
#X connect 8 0 4 0;
#X connect 8 0 4 1;
#X connect 9 0 5 1;
#X connect 10 0 6 0;
#X restore 83 98 pd squall;
#N canvas 0 22 190 244 gust 0;
#X obj 9 15 noise~;
#X obj 8 82 hip~ 0;
#X obj 8 157 *~;
#X obj 76 72 *~;
#X obj 75 49 +~ 0.5;
#X obj 76 96 -~ 0.125;
#X obj 9 59 lop~ 0.5;
#X obj 9 38 lop~ 0.5;
#X obj 9 103 *~ 50;
#X obj 75 9 inlet~;
#X obj 8 182 outlet~;
#X connect 0 0 7 0;
#X connect 1 0 8 0;
#X connect 2 0 10 0;
#X connect 3 0 5 0;
#X connect 4 0 3 0;
#X connect 4 0 3 1;
#X connect 5 0 2 1;
#X connect 6 0 1 0;
#X connect 7 0 6 0;
#X connect 8 0 2 0;
#X connect 9 0 4 0;
#X restore 27 98 pd gust;
#X obj 13 199 outlet~;
#X obj 13 19 osc~ 0.1;
#X connect 0 0 2 0;
#X connect 1 0 4 0;
#X connect 2 0 5 0;
#X connect 2 0 1 0;
#X connect 2 0 6 0;
#X connect 3 0 1 1;
#X connect 4 0 7 0;
#X connect 5 0 3 1;
#X connect 6 0 3 0;
#X connect 8 0 0 0;
#X restore -2 84 pd windspeed;
#X obj -2 106 delwrite~ a 3000;
#X obj -1 55 s~ white;
#X obj 156 -2 vd~ a 0;
#X obj 213 -2 r~ white;
#X obj 156 43 *~;
#X obj 156 125 fcpan 0.51;
#X obj 213 19 bp~ 800 1;
#X obj 156 211 throw~ u-all-l;
#X obj 213 151 throw~ u-all-r;
#X obj 156 64 *~ 0;
#X obj 244 107 line;
#X floatatom 194 65 5 0 0 0 - - -;
#X obj 244 60 r graphic-2;
#N canvas 567 146 873 675 noise-bg 0;
#X obj 178 334 osc~;
#X obj 167 213 mtof;
#X obj 167 126 vsl 15 66 0 127 0 0 empty sl2 empty 0 -9 0 10 -4034
-1 -1 1331 1;
#X obj 178 305 +~;
#X obj 196 238 osc~;
#X obj 196 212 mtof;
#X obj 196 126 vsl 15 66 0 127 0 0 empty sl3 empty 0 -9 0 10 -260097
-1 -1 1382 1;
#X obj 211 270 *~ 0;
#X obj 228 126 vsl 15 66 0 1000 0 0 empty sl4 empty 0 -9 0 10 -4160
-1 -1 5076 1;
#X obj 163 419 osc~;
#X obj 164 392 +~;
#X obj 179 363 *~ 0;
#X obj 138 213 mtof;
#X obj 165 465 +~;
#X obj 368 334 osc~;
#X obj 340 211 mtof;
#X obj 368 305 +~;
#X obj 372 236 osc~;
#X obj 372 210 mtof;
#X obj 381 267 *~ 0;
#X obj 250 399 osc~;
#X obj 251 372 +~;
#X obj 369 363 *~ 0;
#X obj 312 211 mtof;
#X obj 166 488 *~ 0;
#X obj 150 536 osc~;
#X obj 150 512 +~;
#X obj 109 213 mtof;
#X obj 189 534 line~;
#X msg 189 514 \$1 50;
#X obj 340 127 vsl 15 66 0 127 0 0 empty sl7 empty 0 -9 0 10 -4034
-1 -1 870 1;
#X obj 372 126 vsl 15 66 0 127 0 0 empty sl8 empty 0 -9 0 10 -260097
-1 -1 1535 1;
#X obj 404 127 vsl 15 66 0 1000 0 0 empty sl9 empty 0 -9 0 10 -4160
-1 -1 4147 1;
#X obj 434 127 vsl 15 66 0 1000 0 0 empty sl10 empty 0 -9 0 10 -4160
-1 -1 4413 1;
#X obj 312 126 vsl 15 66 0 127 0 0 empty sl6 empty 0 -9 0 10 -4034
-1 -1 2457 1;
#X obj 258 126 vsl 15 66 0 1000 0 0 empty sl5 empty 0 -9 0 10 -4160
-1 -1 942 1;
#X obj 138 126 vsl 15 66 0 127 0 0 empty sl1 empty 0 -9 0 10 -4034
-1 -1 0 1;
#X obj 285 126 vsl 15 66 0 1000 0 0 empty sl12 empty 0 -9 0 10 -4160
-1 -1 1397 1;
#X obj 109 128 vsl 15 66 0 127 0 0 empty sl11 empty 0 -9 0 10 -4034
-1 -1 717 1;
#N canvas 274 188 888 541 rand 0;
#X obj 403 253 random 1000;
#X obj 196 347 s sl1;
#X obj 327 152 bng 15 250 50 0 empty empty empty 17 7 0 10 -262144
-1 -1;
#X obj 479 252 random 1000;
#X obj 597 389 random 1000;
#X obj 673 388 random 1000;
#X obj 715 243 random 1000;
#X obj 325 102 loadbang;
#X obj 427 82 inlet;
#X obj 196 303 line;
#X msg 196 281 \$1 1000;
#X obj 267 300 line;
#X msg 267 278 \$1 1000;
#X obj 337 299 line;
#X msg 337 277 \$1 1000;
#X obj 402 299 line;
#X msg 402 277 \$1 1000;
#X obj 477 299 line;
#X msg 477 277 \$1 1000;
#X obj 268 344 s sl2;
#X obj 337 343 s sl3;
#X obj 402 343 s sl4;
#X obj 476 344 s sl5;
#X obj 391 439 line;
#X msg 391 417 \$1 1000;
#X obj 462 436 line;
#X msg 462 414 \$1 1000;
#X obj 532 435 line;
#X msg 532 413 \$1 1000;
#X obj 597 435 line;
#X msg 597 413 \$1 1000;
#X obj 672 435 line;
#X msg 672 413 \$1 1000;
#X obj 392 483 s sl6;
#X obj 463 480 s sl7;
#X obj 532 479 s sl8;
#X obj 597 479 s sl9;
#X obj 671 480 s sl10;
#X obj 643 321 s sl11;
#X obj 715 315 s sl12;
#X obj 643 289 line;
#X msg 643 267 \$1 1000;
#X obj 718 289 line;
#X msg 718 267 \$1 1000;
#X obj 267 254 random 50;
#X obj 335 254 random 50;
#X obj 390 391 random 50;
#X obj 461 390 random 50;
#X obj 529 390 random 50;
#X obj 644 243 random 50;
#X obj 196 255 random 50;
#X connect 0 0 16 0;
#X connect 2 0 0 0;
#X connect 2 0 3 0;
#X connect 2 0 4 0;
#X connect 2 0 5 0;
#X connect 2 0 6 0;
#X connect 2 0 44 0;
#X connect 2 0 45 0;
#X connect 2 0 46 0;
#X connect 2 0 47 0;
#X connect 2 0 48 0;
#X connect 2 0 49 0;
#X connect 2 0 50 0;
#X connect 3 0 18 0;
#X connect 4 0 30 0;
#X connect 5 0 32 0;
#X connect 6 0 43 0;
#X connect 7 0 2 0;
#X connect 8 0 2 0;
#X connect 9 0 1 0;
#X connect 10 0 9 0;
#X connect 11 0 19 0;
#X connect 12 0 11 0;
#X connect 13 0 20 0;
#X connect 14 0 13 0;
#X connect 15 0 21 0;
#X connect 16 0 15 0;
#X connect 17 0 22 0;
#X connect 18 0 17 0;
#X connect 23 0 33 0;
#X connect 24 0 23 0;
#X connect 25 0 34 0;
#X connect 26 0 25 0;
#X connect 27 0 35 0;
#X connect 28 0 27 0;
#X connect 29 0 36 0;
#X connect 30 0 29 0;
#X connect 31 0 37 0;
#X connect 32 0 31 0;
#X connect 40 0 38 0;
#X connect 41 0 40 0;
#X connect 42 0 39 0;
#X connect 43 0 42 0;
#X connect 44 0 12 0;
#X connect 45 0 14 0;
#X connect 46 0 24 0;
#X connect 47 0 26 0;
#X connect 48 0 28 0;
#X connect 49 0 41 0;
#X connect 50 0 10 0;
#X restore 458 203 pd rand;
#X obj 458 165 bng 30 250 50 0 empty empty empty 17 7 0 10 -262144
-1 -1;
#X obj 164 442 *~ 0.5;
#X obj 251 422 *~ 0.5;
#X obj 150 563 *~;
#X obj 150 586 outlet~;
#X obj 458 111 vsl 30 40 0 1 0 0 empty empty empty 0 -9 0 10 -262144
-1 -1 0 1;
#X obj 138 55 inlet;
#X obj 458 69 r lvl;
#X obj 528 68 inlet;
#X msg 42 339 \$1 100;
#X obj 41 367 line~;
#X msg 93 325 \$1 100;
#X obj 92 353 line~;
#X msg 135 256 \$1 100;
#X obj 134 284 line~;
#X msg 282 261 \$1 100;
#X obj 281 289 line~;
#X msg 328 254 \$1 100;
#X obj 327 282 line~;
#X connect 0 0 11 0;
#X connect 1 0 53 0;
#X connect 2 0 1 0;
#X connect 3 0 0 0;
#X connect 4 0 7 0;
#X connect 5 0 4 0;
#X connect 6 0 5 0;
#X connect 7 0 3 1;
#X connect 8 0 7 1;
#X connect 9 0 41 0;
#X connect 10 0 9 0;
#X connect 11 0 10 1;
#X connect 12 0 51 0;
#X connect 13 0 24 0;
#X connect 14 0 22 0;
#X connect 15 0 57 0;
#X connect 16 0 14 0;
#X connect 17 0 19 0;
#X connect 18 0 17 0;
#X connect 19 0 16 1;
#X connect 20 0 42 0;
#X connect 21 0 20 0;
#X connect 22 0 21 1;
#X connect 23 0 55 0;
#X connect 24 0 26 1;
#X connect 25 0 43 0;
#X connect 26 0 25 0;
#X connect 27 0 49 0;
#X connect 28 0 43 1;
#X connect 29 0 28 0;
#X connect 30 0 15 0;
#X connect 31 0 18 0;
#X connect 32 0 19 1;
#X connect 33 0 22 1;
#X connect 34 0 23 0;
#X connect 35 0 11 1;
#X connect 36 0 12 0;
#X connect 37 0 24 1;
#X connect 38 0 27 0;
#X connect 40 0 39 0;
#X connect 41 0 13 0;
#X connect 42 0 13 1;
#X connect 43 0 44 0;
#X connect 45 0 29 0;
#X connect 46 0 40 0;
#X connect 47 0 45 0;
#X connect 48 0 45 0;
#X connect 49 0 50 0;
#X connect 50 0 26 0;
#X connect 51 0 52 0;
#X connect 52 0 10 0;
#X connect 53 0 54 0;
#X connect 54 0 3 0;
#X connect 55 0 56 0;
#X connect 56 0 21 0;
#X connect 57 0 58 0;
#X connect 58 0 16 0;
#X coords 0 -1 1 1 400 100 1 100 100;
#X restore 330 38 pd noise-bg;
#X obj 723 3 line;
#X obj 330 7 r bomb-effect;
#X obj 441 -14 r mb-8;
#X obj 441 11 sel 0;
#X obj 619 -36 r graphic-7;
#X floatatom 619 -2 5 0 0 0 - - -;
#X msg 244 83 \$1 1500;
#X msg 723 -23 \$1 1500;
#X obj 156 20 +~ 0.1;
#X obj 497 -6 bng 15 250 50 0 empty empty empty 17 7 0 10 -262144 -1
-1;
#X obj 330 148 *~ 0.14;
#X connect 0 0 3 0;
#X connect 1 0 2 0;
#X connect 4 0 24 0;
#X connect 5 0 8 0;
#X connect 6 0 11 0;
#X connect 7 0 9 0;
#X connect 7 1 10 0;
#X connect 8 0 6 1;
#X connect 11 0 7 0;
#X connect 12 0 13 0;
#X connect 13 0 11 1;
#X connect 14 0 22 0;
#X connect 15 0 26 0;
#X connect 16 0 15 1;
#X connect 17 0 15 0;
#X connect 18 0 19 0;
#X connect 19 0 15 0;
#X connect 20 0 21 0;
#X connect 21 0 23 0;
#X connect 22 0 12 0;
#X connect 23 0 16 0;
#X connect 24 0 6 0;
#X connect 25 0 15 0;
#X connect 26 0 10 0;
#X connect 26 0 9 0;
#X restore 162 10 pd ocean & WormHole;
#N canvas 567 238 528 581 drawmodel 0;
#X obj 103 57 nbx 5 14 1 10 0 1 empty empty pulsewidth 0 -6 1 8 -262144
-1 -1 8 256;
#X obj 68 434 throw~ u-all-l;
#X obj 107 461 throw~ u-all-r;
#X obj 251 47 nbx 5 14 1 10 0 1 empty empty pulsewidth 0 -6 1 8 -262144
-1 -1 7 256;
#X obj 251 82 t b;
#X obj 369 62 nbx 5 14 1 10 0 1 empty empty pulsewidth 0 -6 1 8 -262144
-1 -1 5 256;
#X obj 372 92 t b;
#X obj 102 223 r g17;
#X msg 102 246 \$1 1000;
#X obj 102 272 line~;
#X obj 95 355 *~;
#X obj 103 17 r g14;
#X obj 251 10 r g15;
#X obj 369 26 r g16;
#X obj 100 111 tgl 15 0 empty empty empty 17 7 0 10 -262144 -1 -1 2
2;
#X obj 102 83 t b;
#X obj 53 208 *~;
#X obj 181 207 *~;
#X obj 251 106 tgl 15 0 empty empty empty 17 7 0 10 -262144 -1 -1 0
2;
#X obj 300 225 *~;
#X obj 372 118 tgl 15 0 empty empty empty 17 7 0 10 -262144 -1 -1 2
2;
#X obj 140 123 line~;
#X obj 285 133 line~;
#X obj 372 165 line~;
#X obj 16 156 osc~ 70;
#X obj 164 155 osc~ 120;
#X obj 263 192 osc~ 240;
#X obj 223 154 osc~ 126;
#X obj 322 191 osc~ 246;
#X obj 75 155 osc~ 78;
#X obj 342 217 osc~ 1200;
#X msg 372 143 \$1 20;
#X msg 140 101 \$1 15;
#X msg 285 111 \$1 50;
#X obj 22 115 osc~ 800;
#X obj 96 390 *~ 0.2;
#X obj 53 260 *~ 0.25;
#X obj 299 287 *~ 0.15;
#X obj 181 270 *~ 0.3;
#X connect 0 0 15 0;
#X connect 3 0 4 0;
#X connect 4 0 18 0;
#X connect 5 0 6 0;
#X connect 6 0 20 0;
#X connect 7 0 8 0;
#X connect 8 0 9 0;
#X connect 9 0 10 1;
#X connect 10 0 35 0;
#X connect 11 0 0 0;
#X connect 12 0 3 0;
#X connect 13 0 5 0;
#X connect 14 0 32 0;
#X connect 15 0 14 0;
#X connect 16 0 36 0;
#X connect 17 0 38 0;
#X connect 18 0 33 0;
#X connect 19 0 37 0;
#X connect 20 0 31 0;
#X connect 21 0 16 1;
#X connect 22 0 17 1;
#X connect 23 0 19 1;
#X connect 24 0 16 0;
#X connect 25 0 17 0;
#X connect 26 0 19 0;
#X connect 27 0 17 0;
#X connect 28 0 19 0;
#X connect 29 0 16 0;
#X connect 30 0 19 0;
#X connect 31 0 23 0;
#X connect 32 0 21 0;
#X connect 33 0 22 0;
#X connect 34 0 16 0;
#X connect 35 0 1 0;
#X connect 35 0 2 0;
#X connect 36 0 10 0;
#X connect 37 0 10 0;
#X connect 38 0 10 0;
#X restore 163 223 pd drawmodel;
#N canvas 266 240 394 478 sound 0;
#X floatatom 152 10 5 0 0 0 - - -;
#X obj 152 -16 r gem-flash;
#X obj 123 113 noise~;
#X obj 192 106 phasor~ 0;
#X obj 123 193 *~;
#X obj 192 84 * 40;
#X obj 123 225 *~;
#X obj 192 144 *~ 0.3;
#X obj 152 33 t f f f;
#X obj 123 143 bp~ 1000 5;
#X obj 123 253 st-delayfb /key;
#X msg 209 226 1 1;
#X obj 209 204 loadbang;
#X obj 121 325 throw~ u-all-l;
#X obj 218 325 throw~ u-all-r;
#X obj 171 58 k_range 0 1 50 4000;
#X connect 0 0 8 0;
#X connect 1 0 0 0;
#X connect 2 0 9 0;
#X connect 3 0 4 1;
#X connect 4 0 6 0;
#X connect 5 0 3 0;
#X connect 6 0 10 0;
#X connect 6 0 10 1;
#X connect 7 0 6 1;
#X connect 8 0 7 0;
#X connect 8 1 15 0;
#X connect 8 2 5 0;
#X connect 9 0 4 0;
#X connect 10 0 13 0;
#X connect 10 1 14 0;
#X connect 11 0 10 2;
#X connect 12 0 11 0;
#X connect 15 0 9 1;
#X restore 27 50 pd sound flash;
#X obj 25 178 s-ball;
#X obj 27 201 s-ship;
#X obj 331 132 k_slider;
#X obj 269 260 dac~;
#X obj 345 162 k_slider;
#X obj 272 215 *~ 0;
#X obj 304 217 *~ 0;
#X obj 276 170 osc~ 60;
#X connect 17 0 20 1;
#X connect 19 0 21 1;
#X connect 20 0 18 0;
#X connect 21 0 18 1;
#X connect 22 0 20 0;
#X connect 22 0 21 0;
#X restore 8 -10 pd synthesizer;
#X text 175 -3 1280 550;
