#N canvas 877 25 409 466 10;
#X declare -lib mrpeach;
#X declare -path child;
#X declare -path moving;
#X declare -path GLSL;
#X declare -path space;
#X obj -286 -20 k_win;
#X obj -285 178 k_leap;
#N canvas 601 413 793 332 meta 0;
#X obj 165 125 declare -path child;
#X obj 166 148 declare -path moving;
#X obj 166 173 loadbang;
#X msg 166 196 \; pd dsp 1;
#X obj 392 -1 inlet;
#X obj 327 191 makefilename pd-%s;
#X msg 327 214 \; \$1 menuclose \;;
#X obj 327 169 symbol;
#X obj 403 142 symbol;
#X msg 504 223 \; pd open \$1 \$2;
#X obj 549 158 getdir;
#X obj 504 200 pack s s;
#X obj 504 158 symbol;
#X obj 334 112 t b a;
#X obj 392 27 sel 0 1;
#X msg 461 67 0.note.pd;
#X msg 334 87 0.note.pd;
#X obj 461 92 t a b;
#X obj 165 100 declare -path GLSL;
#X obj 166 78 declare -path space;
#X connect 2 0 3 0;
#X connect 4 0 14 0;
#X connect 5 0 6 0;
#X connect 7 0 5 0;
#X connect 8 0 7 1;
#X connect 10 0 11 1;
#X connect 11 0 9 0;
#X connect 12 0 11 0;
#X connect 13 0 7 0;
#X connect 13 1 8 0;
#X connect 14 0 16 0;
#X connect 14 1 15 0;
#X connect 15 0 17 0;
#X connect 16 0 13 0;
#X connect 17 0 12 0;
#X connect 17 1 10 0;
#X restore -116 268 pd meta;
#X obj -116 234 tgl 30 0 empty empty empty 17 7 0 10 -262144 -1 -1
0 1;
#X connect 3 0 2 0;
