#N canvas 667 -1057 632 398 10;
#X msg 14 20 destroy;
#X obj 49 135 gemhead;
#X obj 48 309 pix_texture;
#X obj 48 96 gemwin 60;
#X obj 49 185 syphonclient;
#X obj 48 223 gemhead 58;
#N canvas 0 22 701 378 abstract 0;
#X msg 216 231 id \$1;
#X msg 195 205 toPost;
#X obj 124 103 tof/menubutton 124 25 empty empty 0 grey90 black grey95
black -1;
#X msg 217 305 add \$1;
#X msg 209 326 symbol \$2/\$1;
#X obj 357 169 t b b b b;
#X msg 417 220 clear;
#X obj 104 107 bng 15 250 50 0 empty empty empty 17 7 0 10 -262144
-1 -1;
#X obj 250 220 unpack f s;
#X obj 252 258 t b f;
#X obj 198 180 gembang;
#X obj 96 227 inlet;
#X obj 92 355 outlet;
#X connect 0 0 12 0;
#X connect 1 0 12 0;
#X connect 2 0 8 0;
#X connect 3 0 2 0;
#X connect 4 0 3 0;
#X connect 5 2 1 0;
#X connect 5 3 6 0;
#X connect 6 0 2 0;
#X connect 7 0 5 0;
#X connect 8 0 9 0;
#X connect 9 0 5 0;
#X connect 9 1 0 0;
#X connect 10 0 1 0;
#X connect 11 0 4 0;
#X coords 0 -1 1 1 150 30 2 100 100;
#X restore 149 174 pd abstract;
#X text 141 148 bang at first to search avaible servers;
#X obj 48 379 rectangle 6.92 4;
#X obj 48 249 translateXYZ -6.92 0 0;
#X obj 194 336 pix_texture;
#X obj 194 224 gemhead 58;
#X obj 194 249 translateXYZ 6.92 0 0;
#X msg 367 223 1 \, 0 \$1;
#X msg 367 176 1000;
#X msg 416 176 100;
#X obj 367 245 line;
#X obj 367 312 k_range 0 1 -6.92 6.92;
#X obj 367 288 t f f;
#X obj 394 357 k_range 0 1 -6.92 6.92;
#X obj 394 333 expr 1-$f1;
#X msg 422 209 0 \, 1 \$1;
#X msg 448 177 1000;
#X msg 497 177 100;
#X obj 418 106 sel 0 1;
#X obj 418 81 tgl 15 0 empty empty empty 17 7 0 10 -262144 -1 -1 0
1;
#X obj 367 266 inoutcirc;
#X msg 391 155 1000;
#X msg 472 156 1000;
#X obj 201 296 alpha 1;
#X obj 49 281 alpha 1;
#X obj 127 268 loadbang;
#X obj 494 52 k_cpu;
#X msg 130 291 auto 0;
#X msg 84 22 destroy \, reset \, border 0 \, dimen 1664 480 \, offset
-112 -50 \, create \, 1;
#X msg 45 59 destroy \, reset \, border 0 \, dimen 1664 480 \, offset
100 -600 \, create \, 1;
#X obj 194 360 rectangle -6.92 4;
#X connect 0 0 3 0;
#X connect 1 0 4 0;
#X connect 2 0 8 0;
#X connect 4 1 2 1;
#X connect 4 1 10 1;
#X connect 4 2 6 0;
#X connect 5 0 9 0;
#X connect 6 0 4 0;
#X connect 9 0 30 0;
#X connect 10 0 36 0;
#X connect 11 0 12 0;
#X connect 12 0 29 0;
#X connect 13 0 16 0;
#X connect 14 0 13 0;
#X connect 15 0 13 0;
#X connect 16 0 26 0;
#X connect 17 0 9 1;
#X connect 18 0 17 0;
#X connect 18 1 20 0;
#X connect 19 0 12 1;
#X connect 20 0 19 0;
#X connect 21 0 16 0;
#X connect 22 0 21 0;
#X connect 23 0 21 0;
#X connect 24 0 27 0;
#X connect 24 1 28 0;
#X connect 25 0 24 0;
#X connect 26 0 18 0;
#X connect 27 0 13 0;
#X connect 28 0 21 0;
#X connect 29 0 10 0;
#X connect 30 0 2 0;
#X connect 31 0 33 0;
#X connect 33 0 30 0;
#X connect 33 0 29 0;
#X connect 34 0 3 0;
#X connect 35 0 3 0;
