#N canvas 445 219 806 432 10;
#X msg 79 42 destroy;
#X obj 126 277 pix_texture;
#X msg 283 250 set coucou;
#X msg 58 252 mode 1;
#X obj 126 241 pix_video;
#X obj 126 313 square 4;
#X obj 306 131 rotateXYZ;
#X obj 448 223 pix_texture;
#X obj 448 161 gemhead 55;
#X obj 126 135 gemhead 50;
#X obj 264 278 syphonserver2 sdoi;
#X obj 264 206 gemhead 53;
#X obj 306 158 pix_image moon.jpg;
#X msg 251 156 mode 1;
#X obj 306 97 gemhead 54;
#X obj 448 198 pix_image stenope1.jpg;
#X obj 306 183 pix_texture;
#X obj 126 169 gemframebuffer;
#X obj 126 212 translateXYZ 0 0 -4;
#X msg 22 140 rectangle 1;
#X msg 462 278 set coucou;
#X obj 443 251 gemhead 53;
#X obj 443 306 syphonserver2 sd;
#X obj 240 315 gemhead 53;
#X msg 259 346 set nono;
#X obj 93 348 gemhead 55;
#X obj 22 116 loadbang;
#X obj 93 374 syphonserver2 bufferin;
#X obj 240 374 syphonserver2 bufferout;
#X msg 203 109 dimen 500 500;
#X msg 29 201 dimen 480 640;
#X obj 419 59 gemhead 9999;
#X obj 544 -27 gemhead;
#X obj 571 79 k_MoveCircle;
#X obj 544 111 translateXYZ;
#X obj 544 1 t a b;
#X obj 571 27 k_count 1 100;
#X obj 571 53 / 100;
#X obj 544 138 circle 0.3;
#X obj 419 84 syphonserver geo;
#X obj 51 88 gemwin 60;
#X msg 51 64 reset \, frame 60 \, dimen 300 200 \, create \, 1;
#X connect 0 0 40 0;
#X connect 1 0 5 0;
#X connect 1 1 27 1;
#X connect 2 0 10 0;
#X connect 3 0 1 0;
#X connect 4 0 1 0;
#X connect 6 0 12 0;
#X connect 7 1 22 1;
#X connect 8 0 15 0;
#X connect 9 0 17 0;
#X connect 11 0 10 0;
#X connect 12 0 16 0;
#X connect 13 0 16 0;
#X connect 14 0 6 0;
#X connect 15 0 7 0;
#X connect 16 1 10 1;
#X connect 17 0 18 0;
#X connect 17 1 28 1;
#X connect 18 0 4 0;
#X connect 19 0 17 0;
#X connect 20 0 22 0;
#X connect 21 0 22 0;
#X connect 23 0 28 0;
#X connect 24 0 28 0;
#X connect 25 0 27 0;
#X connect 26 0 19 0;
#X connect 29 0 17 0;
#X connect 30 0 4 0;
#X connect 31 0 39 0;
#X connect 32 0 35 0;
#X connect 33 0 34 1;
#X connect 33 1 34 2;
#X connect 34 0 38 0;
#X connect 35 0 34 0;
#X connect 35 1 36 0;
#X connect 36 0 37 0;
#X connect 37 0 33 0;
#X connect 41 0 40 0;
