#N canvas 166 453 450 300 10;
#X obj 132 146 *~;
#X obj 147 118 k_slider;
#X obj 159 174 *~;
#X obj 191 196 *~;
#X obj 218 224 *~;
#X obj 132 261 dac~ 1 2 3 4;
#X obj 174 146 k_slider;
#X obj 206 168 k_slider;
#X obj 233 196 k_slider;
#X obj 210 88 k_slider;
#X msg 268 32 \; pd dsp 1;
#X obj 268 2 loadbang;
#X obj 194 25 osc~ 440;
#X obj 133 37 osc~ 440;
#X connect 0 0 5 0;
#X connect 1 0 0 1;
#X connect 2 0 5 1;
#X connect 3 0 5 2;
#X connect 4 0 5 3;
#X connect 6 0 2 1;
#X connect 7 0 3 1;
#X connect 8 0 4 1;
#X connect 9 0 1 0;
#X connect 9 0 6 0;
#X connect 9 0 7 0;
#X connect 9 0 8 0;
#X connect 11 0 10 0;
#X connect 12 0 3 0;
#X connect 12 0 4 0;
#X connect 13 0 0 0;
#X connect 13 0 2 0;
