#N canvas 592 105 623 624 10;
#X obj 229 -55 loadbang;
#X msg 229 -35 0;
#X obj 229 -14 + \$1;
#X msg 229 7 set \$1;
#X msg 163 31 0;
#X obj 163 -38 inlet;
#X obj 163 7 metro 100;
#X obj 190 134 tabread phi_end;
#X obj 311 132 tabread theta_end;
#X obj 116 316 tabwrite phi_end;
#X obj 312 308 tabwrite theta_end;
#X obj 189 203 expr $f1*100;
#X obj 311 198 expr $f1*100;
#X obj 311 223 + 1;
#X obj 188 225 + 1;
#X floatatom 188 284 5 0 0 0 - - -;
#X floatatom 312 285 5 0 0 0 - - -;
#X obj 188 254 / 100;
#X obj 312 251 / 100;
#X obj 188 373 *;
#X floatatom 188 396 5 0 0 0 - - -;
#X obj 190 77 t f f f;
#X obj 203 340 t b f;
#X msg 233 441 0;
#X obj 95 170 print;
#X obj 233 466 outlet;
#X obj 188 418 moses 50;
#X obj -63 468 tabwrite dis_size;
#X floatatom -63 397 10 0 0 0 - - -;
#X floatatom -63 357 10 0 0 0 - - -;
#X floatatom -48 329 5 0 0 0 - - -;
#X obj -63 378 *;
#X obj -82 214 tabread theta_start;
#X obj 2 261 tabread phi_start;
#X obj -97 239 tabread theta_end;
#X obj -13 283 tabread phi_end;
#X obj -13 304 -;
#X obj -97 186 t f f f f f;
#X obj -97 261 -;
#X floatatom -63 441 5 0 0 0 - - -;
#X obj -63 419 expr abs(20-$f1);
#X obj 163 51 t f f;
#X connect 0 0 1 0;
#X connect 1 0 2 0;
#X connect 2 0 3 0;
#X connect 3 0 4 0;
#X connect 4 0 41 0;
#X connect 5 0 6 0;
#X connect 6 0 4 0;
#X connect 7 0 11 0;
#X connect 8 0 12 0;
#X connect 11 0 14 0;
#X connect 12 0 13 0;
#X connect 13 0 18 0;
#X connect 14 0 17 0;
#X connect 15 0 9 0;
#X connect 15 0 19 0;
#X connect 16 0 10 0;
#X connect 16 0 22 0;
#X connect 17 0 15 0;
#X connect 18 0 16 0;
#X connect 19 0 20 0;
#X connect 20 0 26 0;
#X connect 21 0 7 0;
#X connect 21 0 8 0;
#X connect 21 1 9 1;
#X connect 21 2 10 1;
#X connect 22 0 19 0;
#X connect 22 1 19 1;
#X connect 23 0 25 0;
#X connect 26 1 23 0;
#X connect 28 0 40 0;
#X connect 29 0 31 0;
#X connect 30 0 31 1;
#X connect 31 0 28 0;
#X connect 32 0 38 1;
#X connect 33 0 36 1;
#X connect 34 0 38 0;
#X connect 35 0 36 0;
#X connect 36 0 30 0;
#X connect 37 0 34 0;
#X connect 37 1 32 0;
#X connect 37 2 35 0;
#X connect 37 3 33 0;
#X connect 37 4 27 1;
#X connect 38 0 29 0;
#X connect 39 0 27 0;
#X connect 40 0 39 0;
#X connect 41 0 37 0;
#X connect 41 1 21 0;
