#N canvas 0 22 929 621 10;
#X obj 202 459 alpha;
#X obj 203 180 t a b;
#X obj 202 327 separator;
#X obj 230 201 f;
#X obj 260 201 + 1;
#N canvas 0 22 450 300 (subpatch) 0;
#X array \$0-z 4 float 3;
#A 0 15.3433 3.34334 7.34334 11.3433;
#X coords 0 16 4 0 200 140 1;
#X restore 531 123 graph;
#X obj 683 353 bng 15 250 50 0 empty empty empty 17 7 0 10 -262144
-1 -1;
#X obj 683 398 f;
#X obj 712 397 + 1;
#X obj 683 420 t f f;
#X obj 683 327 loadbang;
#X obj 127 396 loadbang;
#X msg 127 418 auto 1;
#X obj 202 411 rotateXYZ 0 0 0;
#X obj 203 46 t a b;
#X obj 291 63 f;
#X obj 321 63 + 1;
#X obj 203 106 rotateXYZ 0 0 0;
#X obj 230 225 t f f f f f f;
#X obj 291 84 / 10;
#X obj 683 489 tabwrite \$0-z;
#X obj 318 327 tabwrite \$0-z;
#X obj 230 271 tabread \$0-z;
#X obj 350 63 % 3600;
#X obj 202 356 translateXYZ 0 0 0;
#X obj 152 360 tgl 15 0 empty empty empty 17 7 0 10 -262144 -1 -1 0
1;
#X obj 202 484 colorRGB 1 1 1 0;
#X obj 203 145 repeat 4;
#X obj 289 202 % 4;
#X obj 683 376 repeat 4;
#X obj 747 397 % 4;
#X obj 203 -24 tgl 15 0 empty empty empty 17 7 0 10 -262144 -1 -1 0
1;
#X obj 683 443 / 4;
#X obj 203 -56 inlet;
#X obj 202 596 pix_texture;
#X obj 202 534 pix_image img/cloud-2.jpg;
#X obj 202 566 pix_rgba;
#X obj 334 455 * 1;
#X obj 388 469 hsl 128 15 0 1 0 0 empty empty empty -2 -8 0 10 -262144
-1 -1 0 1;
#X floatatom 385 492 5 0 0 0 - - -;
#X obj 203 0 gemhead -100;
#X obj 202 648 square 4;
#X obj 683 467 * 16;
#X obj 230 294 expr fmod($f1+0.02 \, 16);
#X obj 334 433 expr 2*(0.5-abs(($f1/16)-0.5));
#X obj 203 22 translateXYZ 0 0 -16;
#X obj 202 623 scale 8;
#X obj 289 386 expr ($f1/4)*360;
#X connect 0 0 26 0;
#X connect 1 0 2 0;
#X connect 1 1 3 0;
#X connect 2 0 24 0;
#X connect 3 0 4 0;
#X connect 3 0 18 0;
#X connect 4 0 28 0;
#X connect 6 0 29 0;
#X connect 7 0 8 0;
#X connect 7 0 9 0;
#X connect 8 0 30 0;
#X connect 9 0 32 0;
#X connect 9 1 20 1;
#X connect 10 0 6 0;
#X connect 11 0 12 0;
#X connect 11 0 25 0;
#X connect 12 0 0 0;
#X connect 13 0 0 0;
#X connect 14 0 17 0;
#X connect 14 1 15 0;
#X connect 15 0 16 0;
#X connect 15 0 19 0;
#X connect 16 0 23 0;
#X connect 17 0 27 0;
#X connect 18 0 22 0;
#X connect 18 2 21 1;
#X connect 18 3 47 0;
#X connect 19 0 17 3;
#X connect 22 0 43 0;
#X connect 23 0 15 1;
#X connect 24 0 13 0;
#X connect 25 0 0 1;
#X connect 26 0 35 0;
#X connect 27 0 1 0;
#X connect 28 0 3 1;
#X connect 29 0 7 0;
#X connect 30 0 7 1;
#X connect 31 0 40 0;
#X connect 32 0 42 0;
#X connect 33 0 31 0;
#X connect 34 0 46 0;
#X connect 35 0 36 0;
#X connect 36 0 34 0;
#X connect 37 0 26 4;
#X connect 38 0 39 0;
#X connect 39 0 37 1;
#X connect 40 0 45 0;
#X connect 42 0 20 0;
#X connect 43 0 21 0;
#X connect 43 0 24 3;
#X connect 43 0 44 0;
#X connect 44 0 37 0;
#X connect 45 0 14 0;
#X connect 46 0 41 0;
#X connect 47 0 13 3;
