#N canvas 421 168 1019 646 10;
#X obj 463 52 outlet count;
#X obj 436 2 inlet count;
#X obj 436 27 t f f;
#X obj 78 284 invert;
#X obj 51 236 t f f;
#X floatatom 118 37 5 0 0 0 - - -;
#N canvas 638 266 610 383 (subpatch) 0;
#X obj 112 -200 inlet;
#X obj -56 127 outlet;
#X floatatom 50 125 5 0 1023 0 - - -;
#X floatatom 112 -169 5 0 0 0 - - -;
#X obj 3 2 o-bit;
#X obj 116 2 o-bit;
#X obj 133 2 o-bit;
#X obj 20 2 o-bit;
#X obj 37 2 o-bit;
#X obj 54 2 o-bit;
#X obj 82 2 o-bit;
#X obj 99 2 o-bit;
#X floatatom 353 1 5 0 65535 0 - - -;
#X obj 197 2 o-bit;
#X obj 214 2 o-bit;
#X obj 163 2 o-bit;
#X obj 180 2 o-bit;
#X obj 277 2 o-bit;
#X obj 294 2 o-bit;
#X obj 243 2 o-bit;
#X obj 260 2 o-bit;
#X obj 112 -143 sel 0 1 2 3 4 5 6 7 8 9 10 11 12 13 14 15;
#N canvas 236 86 492 635 ooooooooooooooooooooooooooooooooooooooooooooooo
0;
#X obj 234 78 & 1;
#X obj 221 106 & 2;
#X obj 208 133 & 4;
#X obj 195 158 & 8;
#X obj 182 185 & 16;
#X obj 169 79 & 32;
#X obj 156 104 & 64;
#X obj 143 130 & 128;
#X obj 130 155 & 256;
#X obj 117 181 & 512;
#X obj 39 54 t f f f f f f f f f f f f f f f f;
#X obj 38 30 inlet;
#X obj 104 87 & 1024;
#X obj 91 114 & 2048;
#X obj 78 141 & 4096;
#X obj 65 176 & 8192;
#X obj 52 204 & 16384;
#X obj 39 230 & 32768;
#X obj 39 265 outlet;
#X obj 52 294 outlet;
#X obj 65 318 outlet;
#X obj 78 347 outlet;
#X obj 91 379 outlet;
#X obj 104 408 outlet;
#X obj 117 216 outlet;
#X obj 130 245 outlet;
#X obj 143 269 outlet;
#X obj 157 298 outlet;
#X obj 169 330 outlet;
#X obj 182 359 outlet;
#X obj 195 226 outlet;
#X obj 208 255 outlet;
#X obj 221 287 outlet;
#X obj 234 316 outlet;
#X connect 0 0 33 0;
#X connect 1 0 32 0;
#X connect 2 0 31 0;
#X connect 3 0 30 0;
#X connect 4 0 29 0;
#X connect 5 0 28 0;
#X connect 6 0 27 0;
#X connect 7 0 26 0;
#X connect 8 0 25 0;
#X connect 9 0 24 0;
#X connect 10 0 17 0;
#X connect 10 1 16 0;
#X connect 10 2 15 0;
#X connect 10 3 14 0;
#X connect 10 4 13 0;
#X connect 10 5 12 0;
#X connect 10 6 9 0;
#X connect 10 7 8 0;
#X connect 10 8 7 0;
#X connect 10 9 6 0;
#X connect 10 10 5 0;
#X connect 10 11 4 0;
#X connect 10 12 3 0;
#X connect 10 13 2 0;
#X connect 10 14 1 0;
#X connect 10 15 0 0;
#X connect 11 0 10 0;
#X connect 12 0 23 0;
#X connect 13 0 22 0;
#X connect 14 0 21 0;
#X connect 15 0 20 0;
#X connect 16 0 19 0;
#X connect 17 0 18 0;
#X restore 11 -69 pd ooooooooooooooooooooooooooooooooooooooooooooooo
;
#N canvas 276 234 1164 456 pack 0;
#X obj -114 49 inlet;
#X obj 301 19 inlet;
#X obj 339 19 inlet;
#X obj 339 49 t b f;
#X obj 384 19 inlet;
#X obj 384 49 t b f;
#X obj 425 19 inlet;
#X obj 425 49 t b f;
#X obj 517 17 inlet;
#X obj 517 50 t b f;
#X obj 560 18 inlet;
#X obj 560 51 t b f;
#X obj 603 18 inlet;
#X obj 603 51 t b f;
#X obj 646 19 inlet;
#X obj 646 52 t b f;
#X obj 118 302 expr $f1+$f2;
#X floatatom 118 330 5 0 0 0 - - -;
#X obj 118 362 outlet;
#X obj 299 175 expr $f1*pow(2 \, 7) + $f2*pow(2 \, 6) + $f3*pow(2 \,
5) +$f4*pow(2 \, 4) + $f5*pow(2 \, 3) + $f6*pow(2 \, 2) + $f7*2 + $f8
;
#X obj 299 243 t b f;
#X floatatom 299 217 5 0 0 0 - - -;
#X floatatom 301 48 5 0 0 0 - - -;
#X obj -72 48 inlet;
#X obj -72 78 t b f;
#X obj -27 48 inlet;
#X obj -27 78 t b f;
#X obj 14 48 inlet;
#X obj 14 78 t b f;
#X obj 106 46 inlet;
#X obj 106 79 t b f;
#X obj 149 47 inlet;
#X obj 149 80 t b f;
#X obj 192 47 inlet;
#X obj 192 80 t b f;
#X obj 235 48 inlet;
#X obj 235 81 t b f;
#X obj -114 120 expr $f1*pow(2 \, 15) + $f2*pow(2 \, 14) + $f3*pow(2
\, 13) +$f4*pow(2 \, 12) + $f5*pow(2 \, 11) + $f6*pow(2 \, 10) + $f7*pow(2
\, 9) + $f8*pow(2 \, 8);
#X connect 0 0 37 0;
#X connect 1 0 22 0;
#X connect 2 0 3 0;
#X connect 3 0 19 0;
#X connect 3 1 19 1;
#X connect 4 0 5 0;
#X connect 5 0 19 0;
#X connect 5 1 19 2;
#X connect 6 0 7 0;
#X connect 7 0 19 0;
#X connect 7 1 19 3;
#X connect 8 0 9 0;
#X connect 9 0 19 0;
#X connect 9 1 19 4;
#X connect 10 0 11 0;
#X connect 11 0 19 0;
#X connect 11 1 19 5;
#X connect 12 0 13 0;
#X connect 13 0 19 0;
#X connect 13 1 19 6;
#X connect 14 0 15 0;
#X connect 15 0 19 0;
#X connect 15 1 19 7;
#X connect 16 0 17 0;
#X connect 17 0 18 0;
#X connect 19 0 21 0;
#X connect 20 0 16 0;
#X connect 20 1 16 1;
#X connect 21 0 20 0;
#X connect 22 0 19 0;
#X connect 23 0 24 0;
#X connect 24 0 37 0;
#X connect 24 1 37 1;
#X connect 25 0 26 0;
#X connect 26 0 37 0;
#X connect 26 1 37 2;
#X connect 27 0 28 0;
#X connect 28 0 37 0;
#X connect 28 1 37 3;
#X connect 29 0 30 0;
#X connect 30 0 37 0;
#X connect 30 1 37 4;
#X connect 31 0 32 0;
#X connect 32 0 37 0;
#X connect 32 1 37 5;
#X connect 33 0 34 0;
#X connect 34 0 37 0;
#X connect 34 1 37 6;
#X connect 35 0 36 0;
#X connect 36 0 37 0;
#X connect 36 1 37 7;
#X connect 37 0 16 0;
#X restore 50 94 pd pack 0 0 0 0 0 0 0 0 0 0 0 0 0 0 0 0 0 0 0 0 0
0;
#X floatatom 318 1 5 0 65535 0 - - -;
#X obj 318 -24 inlet;
#X connect 0 0 3 0;
#X connect 2 0 12 0;
#X connect 3 0 21 0;
#X connect 4 0 1 0;
#X connect 4 1 23 0;
#X connect 5 0 1 0;
#X connect 5 1 23 6;
#X connect 6 0 1 0;
#X connect 6 1 23 7;
#X connect 7 0 1 0;
#X connect 7 1 23 1;
#X connect 8 0 1 0;
#X connect 8 1 23 2;
#X connect 9 0 1 0;
#X connect 9 1 23 3;
#X connect 10 0 1 0;
#X connect 10 1 23 4;
#X connect 11 0 1 0;
#X connect 11 1 23 5;
#X connect 13 0 1 0;
#X connect 13 1 23 10;
#X connect 14 0 1 0;
#X connect 14 1 23 11;
#X connect 15 0 1 0;
#X connect 15 1 23 8;
#X connect 16 0 1 0;
#X connect 16 1 23 9;
#X connect 17 0 1 0;
#X connect 17 1 23 14;
#X connect 18 0 1 0;
#X connect 18 1 23 15;
#X connect 19 0 1 0;
#X connect 19 1 23 12;
#X connect 20 0 1 0;
#X connect 20 1 23 13;
#X connect 21 0 4 0;
#X connect 21 1 7 0;
#X connect 21 2 8 0;
#X connect 21 3 9 0;
#X connect 21 4 10 0;
#X connect 21 5 11 0;
#X connect 21 6 5 0;
#X connect 21 7 6 0;
#X connect 21 8 15 0;
#X connect 21 9 16 0;
#X connect 21 10 13 0;
#X connect 21 11 14 0;
#X connect 21 12 19 0;
#X connect 21 13 20 0;
#X connect 21 14 17 0;
#X connect 21 15 18 0;
#X connect 22 0 4 1;
#X connect 22 1 7 1;
#X connect 22 2 8 1;
#X connect 22 3 9 1;
#X connect 22 4 10 1;
#X connect 22 5 11 1;
#X connect 22 6 5 1;
#X connect 22 7 6 1;
#X connect 22 8 15 1;
#X connect 22 9 16 1;
#X connect 22 10 13 1;
#X connect 22 11 14 1;
#X connect 22 12 19 1;
#X connect 22 13 20 1;
#X connect 22 14 17 1;
#X connect 22 15 18 1;
#X connect 23 0 2 0;
#X connect 24 0 22 0;
#X connect 25 0 24 0;
#X coords 0 1 100 -1 388 19 1 0 0;
#X restore 102 114 graph;
#X obj 118 69 t f f;
#X obj 51 310 pack f f f f;
#X obj 128 284 invert;
#X obj 101 236 t f f;
#X obj 51 338 s \$1-stetro;
#X obj 366 58 unpack f f;
#X obj 366 32 inlet;
#X obj 125 338 outlet;
#N canvas 638 266 610 383 (subpatch) 0;
#X obj 112 -200 inlet;
#X obj -56 127 outlet;
#X floatatom 50 125 5 0 1023 0 - - -;
#X floatatom 112 -169 5 0 0 0 - - -;
#X obj 3 2 o-bit;
#X obj 116 2 o-bit;
#X obj 133 2 o-bit;
#X obj 20 2 o-bit;
#X obj 37 2 o-bit;
#X obj 54 2 o-bit;
#X obj 82 2 o-bit;
#X obj 99 2 o-bit;
#X floatatom 353 1 5 0 65535 0 - - -;
#X obj 197 2 o-bit;
#X obj 214 2 o-bit;
#X obj 163 2 o-bit;
#X obj 180 2 o-bit;
#X obj 277 2 o-bit;
#X obj 294 2 o-bit;
#X obj 243 2 o-bit;
#X obj 260 2 o-bit;
#X obj 112 -143 sel 0 1 2 3 4 5 6 7 8 9 10 11 12 13 14 15;
#N canvas 236 86 492 635 ooooooooooooooooooooooooooooooooooooooooooooooo
0;
#X obj 234 78 & 1;
#X obj 221 106 & 2;
#X obj 208 133 & 4;
#X obj 195 158 & 8;
#X obj 182 185 & 16;
#X obj 169 79 & 32;
#X obj 156 104 & 64;
#X obj 143 130 & 128;
#X obj 130 155 & 256;
#X obj 117 181 & 512;
#X obj 39 54 t f f f f f f f f f f f f f f f f;
#X obj 38 30 inlet;
#X obj 104 87 & 1024;
#X obj 91 114 & 2048;
#X obj 78 141 & 4096;
#X obj 65 176 & 8192;
#X obj 52 204 & 16384;
#X obj 39 230 & 32768;
#X obj 39 265 outlet;
#X obj 52 294 outlet;
#X obj 65 318 outlet;
#X obj 78 347 outlet;
#X obj 91 379 outlet;
#X obj 104 408 outlet;
#X obj 117 216 outlet;
#X obj 130 245 outlet;
#X obj 143 269 outlet;
#X obj 157 298 outlet;
#X obj 169 330 outlet;
#X obj 182 359 outlet;
#X obj 195 226 outlet;
#X obj 208 255 outlet;
#X obj 221 287 outlet;
#X obj 234 316 outlet;
#X connect 0 0 33 0;
#X connect 1 0 32 0;
#X connect 2 0 31 0;
#X connect 3 0 30 0;
#X connect 4 0 29 0;
#X connect 5 0 28 0;
#X connect 6 0 27 0;
#X connect 7 0 26 0;
#X connect 8 0 25 0;
#X connect 9 0 24 0;
#X connect 10 0 17 0;
#X connect 10 1 16 0;
#X connect 10 2 15 0;
#X connect 10 3 14 0;
#X connect 10 4 13 0;
#X connect 10 5 12 0;
#X connect 10 6 9 0;
#X connect 10 7 8 0;
#X connect 10 8 7 0;
#X connect 10 9 6 0;
#X connect 10 10 5 0;
#X connect 10 11 4 0;
#X connect 10 12 3 0;
#X connect 10 13 2 0;
#X connect 10 14 1 0;
#X connect 10 15 0 0;
#X connect 11 0 10 0;
#X connect 12 0 23 0;
#X connect 13 0 22 0;
#X connect 14 0 21 0;
#X connect 15 0 20 0;
#X connect 16 0 19 0;
#X connect 17 0 18 0;
#X restore 11 -69 pd ooooooooooooooooooooooooooooooooooooooooooooooo
;
#N canvas 276 234 1164 456 pack 0;
#X obj -114 49 inlet;
#X obj 301 19 inlet;
#X obj 339 19 inlet;
#X obj 339 49 t b f;
#X obj 384 19 inlet;
#X obj 384 49 t b f;
#X obj 425 19 inlet;
#X obj 425 49 t b f;
#X obj 517 17 inlet;
#X obj 517 50 t b f;
#X obj 560 18 inlet;
#X obj 560 51 t b f;
#X obj 603 18 inlet;
#X obj 603 51 t b f;
#X obj 646 19 inlet;
#X obj 646 52 t b f;
#X obj 118 302 expr $f1+$f2;
#X floatatom 118 330 5 0 0 0 - - -;
#X obj 118 362 outlet;
#X obj 299 175 expr $f1*pow(2 \, 7) + $f2*pow(2 \, 6) + $f3*pow(2 \,
5) +$f4*pow(2 \, 4) + $f5*pow(2 \, 3) + $f6*pow(2 \, 2) + $f7*2 + $f8
;
#X obj 299 243 t b f;
#X floatatom 299 217 5 0 0 0 - - -;
#X floatatom 301 48 5 0 0 0 - - -;
#X obj -72 48 inlet;
#X obj -72 78 t b f;
#X obj -27 48 inlet;
#X obj -27 78 t b f;
#X obj 14 48 inlet;
#X obj 14 78 t b f;
#X obj 106 46 inlet;
#X obj 106 79 t b f;
#X obj 149 47 inlet;
#X obj 149 80 t b f;
#X obj 192 47 inlet;
#X obj 192 80 t b f;
#X obj 235 48 inlet;
#X obj 235 81 t b f;
#X obj -114 120 expr $f1*pow(2 \, 15) + $f2*pow(2 \, 14) + $f3*pow(2
\, 13) +$f4*pow(2 \, 12) + $f5*pow(2 \, 11) + $f6*pow(2 \, 10) + $f7*pow(2
\, 9) + $f8*pow(2 \, 8);
#X connect 0 0 37 0;
#X connect 1 0 22 0;
#X connect 2 0 3 0;
#X connect 3 0 19 0;
#X connect 3 1 19 1;
#X connect 4 0 5 0;
#X connect 5 0 19 0;
#X connect 5 1 19 2;
#X connect 6 0 7 0;
#X connect 7 0 19 0;
#X connect 7 1 19 3;
#X connect 8 0 9 0;
#X connect 9 0 19 0;
#X connect 9 1 19 4;
#X connect 10 0 11 0;
#X connect 11 0 19 0;
#X connect 11 1 19 5;
#X connect 12 0 13 0;
#X connect 13 0 19 0;
#X connect 13 1 19 6;
#X connect 14 0 15 0;
#X connect 15 0 19 0;
#X connect 15 1 19 7;
#X connect 16 0 17 0;
#X connect 17 0 18 0;
#X connect 19 0 21 0;
#X connect 20 0 16 0;
#X connect 20 1 16 1;
#X connect 21 0 20 0;
#X connect 22 0 19 0;
#X connect 23 0 24 0;
#X connect 24 0 37 0;
#X connect 24 1 37 1;
#X connect 25 0 26 0;
#X connect 26 0 37 0;
#X connect 26 1 37 2;
#X connect 27 0 28 0;
#X connect 28 0 37 0;
#X connect 28 1 37 3;
#X connect 29 0 30 0;
#X connect 30 0 37 0;
#X connect 30 1 37 4;
#X connect 31 0 32 0;
#X connect 32 0 37 0;
#X connect 32 1 37 5;
#X connect 33 0 34 0;
#X connect 34 0 37 0;
#X connect 34 1 37 6;
#X connect 35 0 36 0;
#X connect 36 0 37 0;
#X connect 36 1 37 7;
#X connect 37 0 16 0;
#X restore 50 94 pd pack 0 0 0 0 0 0 0 0 0 0 0 0 0 0 0 0 0 0 0 0 0
0;
#X floatatom 318 1 5 0 65535 0 - - -;
#X obj 318 -24 inlet;
#X connect 0 0 3 0;
#X connect 2 0 12 0;
#X connect 3 0 21 0;
#X connect 4 0 1 0;
#X connect 4 1 23 0;
#X connect 5 0 1 0;
#X connect 5 1 23 6;
#X connect 6 0 1 0;
#X connect 6 1 23 7;
#X connect 7 0 1 0;
#X connect 7 1 23 1;
#X connect 8 0 1 0;
#X connect 8 1 23 2;
#X connect 9 0 1 0;
#X connect 9 1 23 3;
#X connect 10 0 1 0;
#X connect 10 1 23 4;
#X connect 11 0 1 0;
#X connect 11 1 23 5;
#X connect 13 0 1 0;
#X connect 13 1 23 10;
#X connect 14 0 1 0;
#X connect 14 1 23 11;
#X connect 15 0 1 0;
#X connect 15 1 23 8;
#X connect 16 0 1 0;
#X connect 16 1 23 9;
#X connect 17 0 1 0;
#X connect 17 1 23 14;
#X connect 18 0 1 0;
#X connect 18 1 23 15;
#X connect 19 0 1 0;
#X connect 19 1 23 12;
#X connect 20 0 1 0;
#X connect 20 1 23 13;
#X connect 21 0 4 0;
#X connect 21 1 7 0;
#X connect 21 2 8 0;
#X connect 21 3 9 0;
#X connect 21 4 10 0;
#X connect 21 5 11 0;
#X connect 21 6 5 0;
#X connect 21 7 6 0;
#X connect 21 8 15 0;
#X connect 21 9 16 0;
#X connect 21 10 13 0;
#X connect 21 11 14 0;
#X connect 21 12 19 0;
#X connect 21 13 20 0;
#X connect 21 14 17 0;
#X connect 21 15 18 0;
#X connect 22 0 4 1;
#X connect 22 1 7 1;
#X connect 22 2 8 1;
#X connect 22 3 9 1;
#X connect 22 4 10 1;
#X connect 22 5 11 1;
#X connect 22 6 5 1;
#X connect 22 7 6 1;
#X connect 22 8 15 1;
#X connect 22 9 16 1;
#X connect 22 10 13 1;
#X connect 22 11 14 1;
#X connect 22 12 19 1;
#X connect 22 13 20 1;
#X connect 22 14 17 1;
#X connect 22 15 18 1;
#X connect 23 0 2 0;
#X connect 24 0 22 0;
#X connect 25 0 24 0;
#X coords 0 1 100 -1 388 19 1 0 0;
#X restore 102 133 graph;
#X connect 1 0 2 0;
#X connect 2 0 5 0;
#X connect 2 1 0 0;
#X connect 3 0 8 1;
#X connect 4 0 8 0;
#X connect 4 1 3 0;
#X connect 5 0 7 0;
#X connect 6 0 4 0;
#X connect 7 0 6 0;
#X connect 7 1 15 0;
#X connect 8 0 11 0;
#X connect 8 0 14 0;
#X connect 9 0 8 3;
#X connect 10 0 8 2;
#X connect 10 1 9 0;
#X connect 12 0 6 1;
#X connect 12 1 15 1;
#X connect 13 0 12 0;
#X connect 15 0 10 0;
#X coords 0 -1 1 1 390 55 1 100 100;
