#N canvas 637 140 695 598 10;
#X obj 113 -23 loadbang;
#X msg 113 4 0;
#X obj 113 24 + \$1;
#X msg 113 46 set \$1;
#X msg 174 48 0;
#X obj 174 -21 inlet;
#X obj 174 24 metro 100;
#X obj 239 248 expr $f1*100;
#X obj 341 244 expr $f1*100;
#X floatatom 239 319 5 0 0 0 - - -;
#X floatatom 341 321 5 0 0 0 - - -;
#X obj 239 294 / 100;
#X obj 341 297 / 100;
#X obj 341 269 - 1;
#X obj 239 270 - 1;
#X msg 150 239 0;
#X floatatom 200 165 5 0 0 0 - - -;
#X floatatom 303 165 5 0 0 0 - - -;
#X obj 150 264 outlet;
#X floatatom 323 86 5 0 0 0 - - -;
#X floatatom 442 83 5 0 0 0 - - -;
#X obj 200 143 tabread phi_end;
#X obj 303 144 tabread theta_end;
#X obj 101 481 tabwrite phi_end;
#X obj 388 480 tabwrite theta_end;
#X obj 323 62 tabread phi_start;
#X obj 442 61 tabread theta_start;
#X obj 200 102 t f f f f;
#X obj 200 203 moses 1;
#X obj 302 201 moses 1;
#X obj 323 112 + 0.1;
#X obj 442 109 + 0.1;
#X obj 323 29 t f f;
#X obj -53 478 tabwrite dis_size;
#X floatatom -53 407 10 0 0 0 - - -;
#X floatatom -53 367 10 0 0 0 - - -;
#X floatatom -38 339 5 0 0 0 - - -;
#X obj -53 388 *;
#X obj -72 224 tabread theta_start;
#X obj 12 271 tabread phi_start;
#X obj -87 249 tabread theta_end;
#X obj -3 293 tabread phi_end;
#X obj -3 314 -;
#X obj -87 196 t f f f f f;
#X obj -87 271 -;
#X floatatom -53 451 5 0 0 0 - - -;
#X obj -53 429 expr abs(20-$f1);
#X obj 174 78 t f f;
#X connect 0 0 1 0;
#X connect 1 0 2 0;
#X connect 2 0 3 0;
#X connect 3 0 4 0;
#X connect 4 0 47 0;
#X connect 5 0 6 0;
#X connect 6 0 4 0;
#X connect 7 0 14 0;
#X connect 8 0 13 0;
#X connect 9 0 23 0;
#X connect 10 0 24 0;
#X connect 11 0 9 0;
#X connect 12 0 10 0;
#X connect 13 0 12 0;
#X connect 14 0 11 0;
#X connect 15 0 18 0;
#X connect 16 0 28 0;
#X connect 17 0 29 0;
#X connect 19 0 30 0;
#X connect 20 0 31 0;
#X connect 21 0 16 0;
#X connect 22 0 17 0;
#X connect 25 0 19 0;
#X connect 26 0 20 0;
#X connect 27 0 21 0;
#X connect 27 0 22 0;
#X connect 27 1 23 1;
#X connect 27 1 24 1;
#X connect 27 3 32 0;
#X connect 28 0 15 0;
#X connect 28 1 7 0;
#X connect 29 1 8 0;
#X connect 30 0 28 1;
#X connect 31 0 29 1;
#X connect 32 0 25 0;
#X connect 32 1 26 0;
#X connect 34 0 46 0;
#X connect 35 0 37 0;
#X connect 36 0 37 1;
#X connect 37 0 34 0;
#X connect 38 0 44 1;
#X connect 39 0 42 1;
#X connect 40 0 44 0;
#X connect 41 0 42 0;
#X connect 42 0 36 0;
#X connect 43 0 40 0;
#X connect 43 1 38 0;
#X connect 43 2 41 0;
#X connect 43 3 39 0;
#X connect 43 4 33 1;
#X connect 44 0 35 0;
#X connect 45 0 33 0;
#X connect 46 0 45 0;
#X connect 47 0 43 0;
#X connect 47 1 27 0;
