#N canvas 260 431 578 317 10;
#X obj 94 140 t f b;
#X msg 205 150 6;
#X obj 205 8 loadbang;
#X msg 205 36 0;
#X obj 205 60 + \$1;
#X msg 205 86 set \$1;
#X obj 94 173 tabwrite each-radius;
#X obj 94 67 line;
#X obj 94 18 inlet;
#X msg 94 42 \$1 2000;
#X obj 171 232 tabwrite each-res;
#X obj 94 114 expr (($f1/100+0.1)*3);
#X msg 240 36 10;
#X floatatom 306 86 5 0 0 0 - - -;
#X floatatom 306 162 5 0 0 0 - - -;
#X obj 306 112 expr if($f1>5 \, $f1 \, 5);
#X obj 306 137 expr if($f1<40 \, int($f1) \, 40);
#X connect 0 0 6 0;
#X connect 0 1 1 0;
#X connect 1 0 6 1;
#X connect 1 0 10 1;
#X connect 2 0 3 0;
#X connect 2 0 12 0;
#X connect 3 0 4 0;
#X connect 4 0 5 0;
#X connect 5 0 1 0;
#X connect 7 0 11 0;
#X connect 7 0 13 0;
#X connect 8 0 9 0;
#X connect 9 0 7 0;
#X connect 11 0 0 0;
#X connect 13 0 15 0;
#X connect 14 0 10 0;
#X connect 15 0 16 0;
#X connect 16 0 14 0;
