#N canvas 0 22 450 300 10;
#X msg 164 187 0;
#X obj 205 199 tabwrite each-color;
#X obj 234 17 loadbang;
#X msg 234 40 0;
#X obj 234 63 + \$1;
#X msg 234 88 set \$1;
#X obj 115 50 inlet;
#X obj 115 130 sel 0;
#X obj 115 75 repeat 9;
#X obj 115 98 f;
#X obj 144 98 + 1;
#X obj 175 98 % 9;
#X obj 53 215 tabwrite each-color;
#X obj 205 148 t f f;
#X msg 205 172 0;
#X msg 53 186 1;
#X obj 53 151 t b b;
#X connect 0 0 12 1;
#X connect 2 0 3 0;
#X connect 3 0 4 0;
#X connect 4 0 5 0;
#X connect 4 0 7 1;
#X connect 5 0 0 0;
#X connect 6 0 8 0;
#X connect 7 0 16 0;
#X connect 7 1 13 0;
#X connect 8 0 9 0;
#X connect 9 0 10 0;
#X connect 9 0 7 0;
#X connect 10 0 11 0;
#X connect 11 0 9 1;
#X connect 13 0 14 0;
#X connect 13 1 1 1;
#X connect 14 0 1 0;
#X connect 15 0 12 0;
#X connect 16 0 15 0;
#X connect 16 1 0 0;
