#N canvas 438 317 450 300 10;
#X obj 84 71 inlet;
#X obj 84 130 t f b;
#X msg 195 140 0;
#X obj 213 36 loadbang;
#X msg 213 64 0;
#X obj 213 88 + \$1;
#X msg 213 114 set \$1;
#X obj 84 163 tabwrite each-alpha;
#X obj 84 105 expr ($f1/40);
#X connect 0 0 8 0;
#X connect 1 0 7 0;
#X connect 1 1 2 0;
#X connect 2 0 7 1;
#X connect 3 0 4 0;
#X connect 4 0 5 0;
#X connect 5 0 6 0;
#X connect 6 0 2 0;
#X connect 8 0 1 0;
