#N canvas 318 71 1064 665 10;
#X obj 59 216 bng 15 250 50 0 empty empty empty 17 7 0 10 -262144 -1
-1;
#X obj 103 121 tgl 30 0 empty empty empty 17 7 0 10 -262144 -1 -1 0
1;
#X obj 59 241 leapmotion;
#X obj 87 281 route hand tool;
#X obj 87 307 route 0 1;
#X obj 87 334 route palm_position;
#X obj 87 390 unpack f f f;
#X obj 141 116 hsl 50 15 0 1 0 0 empty empty 0-x 10 7 0 10 -262144
-1 -1 1853 1;
#X obj 141 136 hsl 50 15 0 1 0 0 empty empty 0-y 10 7 0 10 -262144
-1 -1 4168 1;
#X obj 142 156 hsl 50 15 0 1 0 0 empty empty 0-z 10 7 0 10 -262144
-1 -1 1913 1;
#X obj 200 116 hsl 50 15 0 1 0 0 empty empty 1-x 10 7 0 10 -262144
-1 -1 4878 1;
#X obj 200 136 hsl 50 15 0 1 0 0 empty empty 1-y 10 7 0 10 -262144
-1 -1 4385 1;
#X obj 201 156 hsl 50 15 0 1 0 0 empty empty 1-z 10 7 0 10 -262144
-1 -1 173 1;
#X obj 150 216 pack f f f;
#X obj 150 240 s 0-leap;
#X obj 286 229 pack f f f;
#X obj 285 256 s 1-leap;
#X obj -83 241 unpack 0 0 0 0 0 0;
#X floatatom -83 288 10 0 0 0 frameID - -;
#X floatatom -83 308 10 0 0 0 timestamp - -;
#X floatatom -88 352 5 0 0 0 hands - -;
#X floatatom -35 331 5 0 0 0 fingers - -;
#X floatatom 73 424 5 0 0 0 - - -;
#X obj -35 392 change;
#X obj -129 466 change;
#X floatatom 135 419 5 0 0 0 - - -;
#X obj 139 574 / 100;
#X obj 139 474 k_range 100 350 100 0;
#X floatatom 287 456 5 0 0 0 - - -;
#X obj 286 570 / 100;
#X obj 452 334 route palm_position;
#X obj 452 390 unpack f f f;
#X floatatom 438 424 5 0 0 0 - - -;
#X floatatom 500 419 5 0 0 0 - - -;
#X obj 504 574 / 100;
#X obj 505 486 k_range 100 350 100 0;
#X floatatom 652 456 5 0 0 0 - - -;
#X obj 651 570 / 100;
#X obj -33 174 s gemleft;
#X obj -46 208 s gemright;
#X msg 71 570 \$1 100;
#X obj 71 592 line;
#X msg 191 572 \$1 100;
#X obj 191 594 line;
#X msg 334 563 \$1 100;
#X obj 334 585 line;
#X msg 435 562 \$1 100;
#X obj 435 584 line;
#X msg 560 554 \$1 100;
#X obj 560 576 line;
#X msg 693 552 \$1 100;
#X obj 693 574 line;
#X obj 64 516 / 100;
#X obj 436 523 / 100;
#X obj -35 365 > 2;
#X obj 59 190 metro 50;
#X obj 73 449 k_range -180 180 0 100;
#X obj 438 449 k_range -180 180 0 100;
#X obj 287 479 k_range -10 200 0 100;
#X obj 651 479 k_range -10 200 0 100;
#X obj -129 437 expr if($f1==2 && $f2>=6 \, 1 \, 0);
#X obj 290 108 spigot;
#X obj 294 25 r hid;
#X obj 296 63 t a a a;
#X obj 289 127 route key_40;
#X obj 297 160 sel 1;
#X obj 323 86 route key_225;
#X obj 68 28 r touchosc;
#X obj 68 75 route /16;
#X obj 68 52 routeOSC /eq;
#X obj -132 177 s totouch;
#X obj -132 154 packOSC;
#X msg -132 130 send /eq/16 \$1;
#X obj -128 202 s ch-mode-m;
#X obj 410 250 s toudp;
#X obj 410 223 packOSC;
#X msg 410 190 send /effect /5 \$1;
#X msg 479 228 send /effect /5 /l \$1 \$2;
#X msg 481 264 send /effect /5 /r \$1 \$2;
#X obj 453 105 pack f f;
#X obj 554 167 pack f f;
#X obj -40 616 s totouch;
#X obj -40 593 packOSC;
#X msg -40 569 send /eq/17 \$1;
#X msg -20 542 send /eq/18 \$1;
#X msg 93 539 send /eq/19 \$1;
#X obj 760 617 s totouch;
#X obj 760 594 packOSC;
#X msg 760 570 send /eq/20 \$1;
#X msg 779 547 send /eq/21 \$1;
#X msg 801 525 send /eq/22 \$1;
#N canvas 839 200 450 300 tgl 0;
#X obj 100 100 cnv 15 15 15 empty empty empty 20 12 0 14 -1 -66577
0;
#X obj 102 102 tgl 11 0 empty empty empty 17 7 0 10 -1 -1 -262144 0
1;
#X obj 204 26 sel 0 1;
#X msg 228 52 13;
#X msg 198 52 -1;
#X obj 206 -34 inlet;
#X obj 200 -6 t f f;
#X obj 203 154 outlet;
#X msg 200 97 color \$1 \$1 0;
#X obj 103 135 sel 1 0;
#X connect 1 0 9 0;
#X connect 2 0 4 0;
#X connect 2 1 3 0;
#X connect 3 0 8 0;
#X connect 4 0 8 0;
#X connect 5 0 6 0;
#X connect 6 0 2 0;
#X connect 6 1 7 0;
#X connect 8 0 1 0;
#X connect 9 0 3 0;
#X connect 9 1 4 0;
#X coords 0 -1 1 1 15 15 2 100 100;
#X restore 102 156 pd tgl;
#N canvas 839 200 450 300 tgl 0;
#X obj 100 100 cnv 15 15 15 empty empty empty 20 12 0 14 -1 -66577
0;
#X obj 102 102 tgl 11 0 empty empty empty 17 7 0 10 -1 -1 -262144 0
1;
#X obj 204 26 sel 0 1;
#X msg 198 52 -1;
#X obj 206 -34 inlet;
#X obj 200 -6 t f f;
#X obj 203 154 outlet;
#X msg 200 97 color \$1 \$1 0;
#X obj 103 135 sel 1 0;
#X msg 228 52 18;
#X connect 1 0 8 0;
#X connect 2 0 3 0;
#X connect 2 1 9 0;
#X connect 3 0 7 0;
#X connect 4 0 5 0;
#X connect 5 0 2 0;
#X connect 5 1 6 0;
#X connect 7 0 1 0;
#X connect 8 0 9 0;
#X connect 8 1 3 0;
#X connect 9 0 7 0;
#X coords 0 -1 1 1 15 15 2 100 100;
#X restore 120 156 pd tgl;
#X text 377 127 enter;
#X text 409 86 shift;
#X connect 0 0 2 0;
#X connect 1 0 55 0;
#X connect 1 0 72 0;
#X connect 1 0 73 0;
#X connect 1 0 76 0;
#X connect 2 0 17 0;
#X connect 2 1 3 0;
#X connect 3 0 4 0;
#X connect 4 0 5 0;
#X connect 4 1 30 0;
#X connect 5 0 6 0;
#X connect 6 0 22 0;
#X connect 6 1 25 0;
#X connect 6 2 28 0;
#X connect 7 0 13 0;
#X connect 8 0 13 1;
#X connect 9 0 13 2;
#X connect 10 0 15 0;
#X connect 11 0 15 1;
#X connect 12 0 15 2;
#X connect 13 0 14 0;
#X connect 15 0 16 0;
#X connect 17 0 18 0;
#X connect 17 1 19 0;
#X connect 17 2 20 0;
#X connect 17 3 21 0;
#X connect 20 0 60 0;
#X connect 21 0 54 0;
#X connect 21 0 60 1;
#X connect 22 0 56 0;
#X connect 23 0 91 0;
#X connect 24 0 92 0;
#X connect 25 0 27 0;
#X connect 26 0 42 0;
#X connect 26 0 79 1;
#X connect 26 0 84 0;
#X connect 27 0 26 0;
#X connect 28 0 58 0;
#X connect 29 0 44 0;
#X connect 29 0 85 0;
#X connect 30 0 31 0;
#X connect 31 0 32 0;
#X connect 31 1 33 0;
#X connect 31 2 36 0;
#X connect 32 0 57 0;
#X connect 33 0 35 0;
#X connect 34 0 48 0;
#X connect 34 0 80 1;
#X connect 34 0 89 0;
#X connect 35 0 34 0;
#X connect 36 0 59 0;
#X connect 37 0 50 0;
#X connect 37 0 90 0;
#X connect 40 0 41 0;
#X connect 41 0 7 0;
#X connect 42 0 43 0;
#X connect 43 0 8 0;
#X connect 44 0 45 0;
#X connect 45 0 9 0;
#X connect 46 0 47 0;
#X connect 47 0 10 0;
#X connect 48 0 49 0;
#X connect 49 0 11 0;
#X connect 50 0 51 0;
#X connect 51 0 12 0;
#X connect 52 0 40 0;
#X connect 52 0 79 0;
#X connect 52 0 83 0;
#X connect 53 0 46 0;
#X connect 53 0 80 0;
#X connect 53 0 88 0;
#X connect 54 0 23 0;
#X connect 55 0 0 0;
#X connect 56 0 52 0;
#X connect 57 0 53 0;
#X connect 58 0 29 0;
#X connect 59 0 37 0;
#X connect 60 0 24 0;
#X connect 61 0 64 0;
#X connect 62 0 63 0;
#X connect 63 1 61 0;
#X connect 63 2 66 0;
#X connect 64 0 65 0;
#X connect 65 0 1 0;
#X connect 66 0 61 1;
#X connect 67 0 69 0;
#X connect 68 0 1 0;
#X connect 69 0 68 0;
#X connect 71 0 70 0;
#X connect 72 0 71 0;
#X connect 75 0 74 0;
#X connect 76 0 75 0;
#X connect 77 0 75 0;
#X connect 78 0 75 0;
#X connect 79 0 77 0;
#X connect 80 0 78 0;
#X connect 82 0 81 0;
#X connect 83 0 82 0;
#X connect 84 0 82 0;
#X connect 85 0 82 0;
#X connect 87 0 86 0;
#X connect 88 0 87 0;
#X connect 89 0 87 0;
#X connect 90 0 87 0;
#X connect 91 0 38 0;
#X connect 92 0 39 0;
#X coords 0 -1 1 1 155 75 1 100 100;
