#N canvas 775 231 747 540 10;
#X obj 256 -99 loadbang;
#X msg 256 -75 0;
#X obj 256 -53 + \$1;
#X msg 256 -27 set \$1;
#X msg 256 -2 0;
#X obj 304 143 deg2rad;
#X obj 304 120 * 360;
#X obj 375 96 * 360;
#X obj 375 118 deg2rad;
#X obj 453 114 t f f;
#X obj 304 218 line;
#X obj 375 193 line;
#X obj 13 226 deg2rad;
#X obj 13 255 / 2;
#X obj 81 242 * 360;
#X obj 81 264 deg2rad;
#X obj 81 356 tabwrite phi_end;
#X obj 13 383 tabwrite theta_end;
#X obj 81 290 +;
#X obj 13 285 +;
#X floatatom 108 63 5 0 0 0 - - -;
#X obj 13 203 * 360;
#X obj 13 332 line;
#X obj 81 330 line;
#X obj 309 31 t b b b b f b b f;
#X obj 147 130 t f f;
#X obj -175 370 tabwrite dis_size;
#X floatatom -175 299 10 0 0 0 - - -;
#X floatatom -175 259 10 0 0 0 - - -;
#X floatatom -160 231 5 0 0 0 - - -;
#X obj -175 280 *;
#X obj -194 116 tabread theta_start;
#X obj -110 163 tabread phi_start;
#X obj -209 141 tabread theta_end;
#X obj -125 185 tabread phi_end;
#X obj -125 206 -;
#X obj -209 88 t f f f f f;
#X obj -209 163 -;
#X floatatom -175 343 5 0 0 0 - - -;
#X obj -175 321 expr abs(20-$f1);
#X obj -209 24 t b;
#X obj -14 357 t b f;
#X msg -209 53 0;
#X obj 309 -39 inlet;
#X obj 192 -100 r allbang;
#X floatatom 304 241 5 0 0 0 - - -;
#X floatatom 375 217 5 0 0 0 - - -;
#X obj 304 264 tabwrite theta_start;
#X obj 375 239 tabwrite phi_start;
#X obj 375 139 / 2;
#X obj 305 99 randomF 1;
#X obj 375 66 randomF 1;
#X obj 108 32 inlet;
#X msg 13 311 \$1 2000;
#X msg 81 310 \$1 2000;
#X msg 304 186 \$1 2000;
#X msg 375 170 \$1 2000;
#X obj 13 173 t f f;
#X floatatom -56 -35 5 0 0 0 - - -;
#X obj -56 58 tabwrite tempo;
#X msg 25 32 0;
#X obj -56 -5 t f b;
#X obj -56 -60 expr 20-(($f1-0.05)/0.85)*20;
#X connect 0 0 1 0;
#X connect 1 0 2 0;
#X connect 2 0 3 0;
#X connect 3 0 4 0;
#X connect 3 0 42 0;
#X connect 3 0 60 0;
#X connect 4 0 24 0;
#X connect 5 0 55 0;
#X connect 5 0 19 1;
#X connect 6 0 5 0;
#X connect 7 0 8 0;
#X connect 8 0 49 0;
#X connect 9 0 47 1;
#X connect 9 1 48 1;
#X connect 10 0 45 0;
#X connect 11 0 46 0;
#X connect 12 0 13 0;
#X connect 13 0 19 0;
#X connect 14 0 15 0;
#X connect 15 0 18 0;
#X connect 18 0 54 0;
#X connect 19 0 53 0;
#X connect 20 0 57 0;
#X connect 20 0 62 0;
#X connect 21 0 12 0;
#X connect 22 0 41 0;
#X connect 23 0 16 0;
#X connect 24 4 25 0;
#X connect 24 5 50 0;
#X connect 24 6 51 0;
#X connect 24 7 9 0;
#X connect 25 0 17 1;
#X connect 25 1 16 1;
#X connect 27 0 39 0;
#X connect 28 0 30 0;
#X connect 29 0 30 1;
#X connect 30 0 27 0;
#X connect 31 0 37 1;
#X connect 32 0 35 1;
#X connect 33 0 37 0;
#X connect 34 0 35 0;
#X connect 35 0 29 0;
#X connect 36 0 33 0;
#X connect 36 1 31 0;
#X connect 36 2 34 0;
#X connect 36 3 32 0;
#X connect 36 4 26 1;
#X connect 37 0 28 0;
#X connect 38 0 26 0;
#X connect 39 0 38 0;
#X connect 40 0 42 0;
#X connect 41 0 40 0;
#X connect 41 1 17 0;
#X connect 42 0 36 0;
#X connect 43 0 4 0;
#X connect 44 0 1 0;
#X connect 45 0 47 0;
#X connect 46 0 48 0;
#X connect 49 0 18 1;
#X connect 49 0 56 0;
#X connect 50 0 6 0;
#X connect 51 0 7 0;
#X connect 52 0 20 0;
#X connect 53 0 22 0;
#X connect 54 0 23 0;
#X connect 55 0 10 0;
#X connect 56 0 11 0;
#X connect 57 0 21 0;
#X connect 57 1 14 0;
#X connect 58 0 61 0;
#X connect 60 0 59 1;
#X connect 61 0 59 0;
#X connect 61 1 60 0;
#X connect 62 0 58 0;
