#N canvas 394 232 984 553 10;
#X obj 498 244 perk-bassdrum /key;
#X obj 498 379 dac~;
#X obj 110 210 c-bit;
#X obj 475 168 sel 1;
#X obj 498 218 bng 15 250 50 0 empty empty empty 17 7 0 10 -262144
-1 -1;
#X obj 475 144 unpack;
#X obj 110 243 g-bit;
#X msg 591 62 476;
#X msg 576 80 877;
#X obj 194 413 osc~ 5000;
#X obj 202 527 dac~;
#X obj 194 450 *~ 0.5;
#X obj 182 115 g-bit;
#X obj 10 324 g-bit;
#X obj 403 302 sel 1;
#X msg 381 358 1 \, 0 100;
#X obj 381 380 line;
#X obj 403 275 unpack;
#X obj 381 332 bng 15 250 50 0 empty empty empty 17 7 0 10 -262144
-1 -1;
#X obj 318 313 sel 0 1;
#X obj 318 286 % 2;
#X msg 318 360 1023;
#X obj 282 385 unpack;
#X obj 261 438 *~ 1;
#X obj 298 468 *~ 1;
#X obj 194 480 *~;
#X obj 227 481 *~;
#X msg 337 335 0;
#X obj 319 437 k_spigot;
#X obj 416 244 % 2;
#X msg 607 109 1023;
#X obj 576 34 sel 0 1 2 3;
#X obj 576 7 % 4;
#X obj 428 173 t b;
#X msg 428 197 1023;
#X obj 182 84 c-bit;
#X obj 10 291 c-bit;
#X connect 0 0 1 0;
#X connect 0 0 1 1;
#X connect 2 0 36 0;
#X connect 2 1 6 1;
#X connect 2 2 29 0;
#X connect 2 2 33 0;
#X connect 3 0 4 0;
#X connect 4 0 0 0;
#X connect 5 0 3 0;
#X connect 6 1 17 0;
#X connect 7 0 12 2;
#X connect 8 0 12 2;
#X connect 9 0 11 0;
#X connect 11 0 25 0;
#X connect 11 0 26 0;
#X connect 12 1 5 0;
#X connect 13 1 22 0;
#X connect 14 0 18 0;
#X connect 15 0 16 0;
#X connect 16 0 23 0;
#X connect 16 0 24 0;
#X connect 17 0 14 0;
#X connect 18 0 15 0;
#X connect 19 0 21 0;
#X connect 19 1 27 0;
#X connect 20 0 19 0;
#X connect 21 0 13 2;
#X connect 22 0 28 0;
#X connect 22 0 23 1;
#X connect 22 1 28 1;
#X connect 23 0 25 1;
#X connect 24 0 26 1;
#X connect 25 0 10 0;
#X connect 26 0 10 1;
#X connect 27 0 13 2;
#X connect 28 0 24 1;
#X connect 29 0 28 2;
#X connect 30 0 12 2;
#X connect 31 0 8 0;
#X connect 31 1 7 0;
#X connect 31 2 30 0;
#X connect 31 3 7 0;
#X connect 32 0 31 0;
#X connect 33 0 34 0;
#X connect 34 0 6 2;
#X connect 35 0 2 0;
#X connect 35 1 12 1;
#X connect 35 2 32 0;
#X connect 36 1 13 1;
#X connect 36 2 20 0;
