#N canvas 415 210 486 529 10;
#X floatatom -24 -74 5 0 0 0 - - -;
#X obj 114 -22 loadbang;
#X obj -24 -109 inlet;
#X obj -23 275 outlet~;
#X obj 150 278 outlet~;
#X obj -24 35 perk-bassdrum /key;
#X obj -23 250 *~ 1;
#X obj 150 250 *~ 1;
#X msg 3 -19 0 \$1;
#X msg 46 1 1 \$1;
#X msg 126 -44 2 \$1;
#X msg 244 1 3 \$1;
#X obj 126 -93 bng 15 250 50 0 empty empty empty 17 7 0 10 -262144
-1 -1;
#X obj 126 -117 inlet;
#X obj 126 -68 randomF 0.5;
#X floatatom 244 -91 5 0 0 0 - - -;
#X obj 244 -115 r mb-3;
#X obj 244 -70 / 5;
#X msg 244 -47 \$1 200;
#X obj 244 -23 line;
#X obj -24 -49 t b f;
#X obj 46 -32 expr 1-$f1;
#X obj 173 73 perk-lowtom /key;
#X msg 200 43 0 \$1;
#X obj 173 13 t b f;
#X floatatom 305 -91 5 0 0 0 - - -;
#X msg 305 -58 \$1 200;
#X obj 305 -34 line;
#X obj 305 -115 r mb-4;
#X msg 305 19 1 \$1;
#X obj 305 -11 * 0.25;
#X msg 114 2 7 0.2;
#X connect 0 0 20 0;
#X connect 0 0 24 0;
#X connect 1 0 31 0;
#X connect 2 0 0 0;
#X connect 5 0 6 0;
#X connect 5 0 7 0;
#X connect 6 0 3 0;
#X connect 7 0 4 0;
#X connect 8 0 5 1;
#X connect 9 0 5 1;
#X connect 10 0 5 1;
#X connect 11 0 5 1;
#X connect 12 0 14 0;
#X connect 13 0 12 0;
#X connect 14 0 10 0;
#X connect 15 0 17 0;
#X connect 16 0 15 0;
#X connect 17 0 18 0;
#X connect 18 0 19 0;
#X connect 19 0 11 0;
#X connect 20 0 5 0;
#X connect 20 1 8 0;
#X connect 20 1 21 0;
#X connect 21 0 9 0;
#X connect 22 0 6 0;
#X connect 22 0 7 0;
#X connect 23 0 22 1;
#X connect 24 0 22 0;
#X connect 24 1 23 0;
#X connect 25 0 26 0;
#X connect 26 0 27 0;
#X connect 27 0 30 0;
#X connect 28 0 25 0;
#X connect 29 0 22 1;
#X connect 30 0 29 0;
#X connect 31 0 5 1;
