#N canvas 461 534 1131 703 10;
#X obj -366 194 r mr;
#X obj -366 225 route \$1;
#X obj -384 585 r mr-1;
#X obj 124 183 r mr-3;
#X obj 265 448 r mr-6;
#X text -313 568 gemhead;
#X text 264 430 track-num;
#X obj 213 431 init \$1;
#X obj 213 512 <=;
#X floatatom -396 422 5 0 0 0 - - -;
#X floatatom -396 375 5 0 0 0 - - -;
#X floatatom -255 376 5 0 0 0 - - -;
#X obj -396 398 expr (($f1+$f2))/($f2*2);
#X floatatom -125 380 5 0 0 0 - - -;
#X obj -125 403 expr (($f1+$f2))/($f2*2);
#X floatatom -125 427 5 0 0 0 - - -;
#X floatatom 16 379 5 0 0 0 - - -;
#X obj -396 441 clip 0.15 0.85;
#X obj -125 451 clip 0.15 0.85;
#X text 167 183 legnth;
#X obj -366 249 unpack f f f f;
#X obj -366 275 s \$0-x;
#X obj -339 297 s \$0-y;
#X obj -312 273 s \$0-z;
#X obj -285 298 s \$0-r;
#N canvas 508 71 540 723 4-channel========================== 0;
#X obj -4 -483 expr 1-$f1;
#X obj -48 -506 t f f;
#X floatatom -48 -482 5 0 0 0 - - -;
#X obj 238 -478 expr 1-$f1;
#X obj 194 -504 t f f;
#X obj 16 -367 +;
#X obj 16 -341 +;
#X obj 16 -318 +;
#X floatatom 16 -297 5 0 0 0 - - -;
#X obj 16 -430 expr if($f1>$f2 && $f1>$f3 && $f1>$f4 \, 1 \, 0) \;
if($f2>$f1 && $f2>$f3 && $f2>$f4 \, 2 \, 0) \; if($f3>$f1 && $f3>$f2
&& $f3>$f4 \, 3 \, 0) \; if($f4>$f1 && $f4>$f2 && $f4>$f3 \, 4 \, 0)
\;;
#X obj -114 -112 spigot;
#X obj 16 -275 sel 0 1 2 3 4;
#X msg 16 -249 1 1 1 1;
#X msg 80 -158 0 0 0 1;
#X msg 65 -181 0 0 1 0;
#X msg 51 -204 0 1 0 0;
#X msg 30 -226 1 0 0 0;
#X obj -3 -101 spigot;
#X obj -87 -60 expr 1-$f1;
#X obj -114 -88 t f f;
#X obj 15 -129 unpack f f f f;
#X obj 24 -53 expr 1-$f1;
#X obj -3 -75 t f f;
#X obj -48 -459 t f f;
#X obj -4 -458 t f f;
#X obj 194 -455 t f f;
#X obj 238 -454 t f f;
#X obj -113 51 outlet~;
#X obj -3 60 outlet~;
#X obj -48 -536 inlet;
#X obj 194 -532 inlet;
#X msg -114 1 \$1 400;
#X msg -3 5 \$1 400;
#X obj -3 32 line~;
#X obj -113 23 line~;
#X connect 0 0 24 0;
#X connect 1 0 2 0;
#X connect 1 1 0 0;
#X connect 2 0 23 0;
#X connect 3 0 26 0;
#X connect 4 0 25 0;
#X connect 4 1 3 0;
#X connect 5 0 6 0;
#X connect 6 0 7 0;
#X connect 7 0 8 0;
#X connect 8 0 11 0;
#X connect 9 0 5 0;
#X connect 9 1 5 1;
#X connect 9 2 6 1;
#X connect 9 3 7 1;
#X connect 10 0 19 0;
#X connect 11 0 12 0;
#X connect 11 1 16 0;
#X connect 11 2 15 0;
#X connect 11 3 14 0;
#X connect 11 4 13 0;
#X connect 12 0 20 0;
#X connect 13 0 20 0;
#X connect 14 0 20 0;
#X connect 15 0 20 0;
#X connect 16 0 20 0;
#X connect 17 0 22 0;
#X connect 18 0 32 0;
#X connect 19 0 31 0;
#X connect 19 1 18 0;
#X connect 20 0 10 1;
#X connect 20 1 17 1;
#X connect 21 0 31 0;
#X connect 22 0 32 0;
#X connect 22 1 21 0;
#X connect 23 0 10 0;
#X connect 23 1 9 0;
#X connect 24 0 17 0;
#X connect 24 1 9 1;
#X connect 25 0 9 2;
#X connect 26 0 9 3;
#X connect 29 0 1 0;
#X connect 30 0 4 0;
#X connect 31 0 34 0;
#X connect 32 0 33 0;
#X connect 33 0 28 0;
#X connect 34 0 27 0;
#X restore -396 502 pd 4-channel==========================;
#X obj -396 348 r \$0-x;
#X obj -255 350 r \$0-r;
#X obj -125 353 r \$0-y;
#X obj 16 353 r \$0-r;
#X obj -128 234 osc~;
#X obj -173 153 mtof;
#X obj -173 52 loadbang;
#X obj 74 573 *~;
#X obj 74 532 line~;
#X obj 74 283 r \$0-z;
#X floatatom 74 310 5 0 0 0 - - -;
#X obj 74 333 expr (($f1+$f2))/($f2*2);
#X floatatom 74 357 5 0 0 0 - - -;
#X obj 74 403 expr if($f1<0.5 \, ($f1/0.5)*-0.5+1 \, 1-$f1 );
#X floatatom 215 309 5 0 0 0 - - -;
#X obj 74 381 clip 0.15 0.85;
#X obj 215 281 r \$0-r;
#X obj -411 540 *~;
#X obj -316 595 *~;
#X floatatom 213 481 5 0 0 0 - - -;
#X obj 265 474 t b f f;
#X floatatom -173 178 5 0 0 0 - - -;
#X obj -405 619 *~ 0;
#X obj -316 625 *~ 0;
#X obj 213 537 tgl 15 0 empty empty empty 17 7 0 10 -262144 -1 -1 1
1;
#X floatatom 124 206 5 0 0 0 - - -;
#X obj 126 15 init \$1;
#X obj 126 121 expr~ if($v1>$f2 \, 1 \, 0);
#X obj 261 61 loadbang;
#X obj 261 86 randomF 1;
#X obj -104 151 mtof;
#X obj -405 643 throw~ cha1;
#X obj -316 648 throw~ cha2;
#X obj 2 150 *~;
#X obj 126 101 phasor~;
#X obj 126 56 * 5;
#X obj -78 237 r mr-4;
#X text -81 215 face-size;
#X floatatom -78 263 5 0 0 0 - - -;
#X obj -173 104 random 30;
#X obj 212 584 / 1;
#X floatatom -105 175 5 0 0 0 - - -;
#X obj 74 598 *~;
#X obj 244 534 t b f;
#X msg 212 607 \$1 200;
#X floatatom 212 561 5 0 0 0 - - -;
#X obj 212 632 line~;
#X obj 2 118 square~ 8000;
#X obj -173 79 bng 15 250 50 0 empty empty empty 17 7 0 10 -262144
-1 -1;
#X obj -104 101 random 20;
#X obj -104 123 + 70;
#X obj -173 127 + 25;
#X obj 2 224 *~ 0.1;
#X obj 35 575 *~;
#X floatatom 74 434 5 0 0 0 - - -;
#X msg 74 506 \$1 100;
#X obj 126 35 + 1;
#X floatatom 126 79 5 0 0 0 - - -;
#X obj 244 509 expr if($f1<5 \, 1 \, 2);
#X obj -396 472 k_range 0.185 0.85 0.7 0.3;
#X obj -125 473 k_range 0.185 0.85 0.7 0.3;
#X obj 2 190 *~ 0.06;
#X obj -128 261 *~ 0.1;
#X obj -287 214 unpack f f f f;
#X floatatom -260 244 5 0 0 0 - - -;
#X floatatom -219 245 5 0 0 0 - - -;
#X floatatom -231 279 5 0 0 0 - - -;
#X floatatom -179 284 5 0 0 0 - - -;
#X floatatom -366 618 5 0 0 0 - - -;
#X connect 0 0 1 0;
#X connect 1 0 20 0;
#X connect 1 0 89 0;
#X connect 2 0 48 1;
#X connect 2 0 49 1;
#X connect 2 0 94 0;
#X connect 3 0 51 0;
#X connect 4 0 46 0;
#X connect 7 0 45 0;
#X connect 8 0 50 0;
#X connect 9 0 17 0;
#X connect 10 0 12 0;
#X connect 11 0 12 1;
#X connect 12 0 9 0;
#X connect 13 0 14 0;
#X connect 14 0 15 0;
#X connect 15 0 18 0;
#X connect 16 0 14 1;
#X connect 17 0 85 0;
#X connect 18 0 86 0;
#X connect 20 0 21 0;
#X connect 20 1 22 0;
#X connect 20 2 23 0;
#X connect 20 3 24 0;
#X connect 25 0 43 1;
#X connect 25 1 44 1;
#X connect 26 0 10 0;
#X connect 27 0 11 0;
#X connect 28 0 13 0;
#X connect 29 0 16 0;
#X connect 30 0 88 0;
#X connect 31 0 47 0;
#X connect 32 0 74 0;
#X connect 33 0 68 0;
#X connect 34 0 33 0;
#X connect 34 0 79 0;
#X connect 35 0 36 0;
#X connect 36 0 37 0;
#X connect 37 0 38 0;
#X connect 38 0 41 0;
#X connect 39 0 80 0;
#X connect 40 0 37 1;
#X connect 41 0 39 0;
#X connect 42 0 40 0;
#X connect 43 0 48 0;
#X connect 44 0 49 0;
#X connect 45 0 8 0;
#X connect 46 0 45 0;
#X connect 46 1 8 1;
#X connect 46 2 84 0;
#X connect 47 0 30 0;
#X connect 48 0 57 0;
#X connect 49 0 58 0;
#X connect 50 0 71 0;
#X connect 51 0 78 1;
#X connect 52 0 82 0;
#X connect 53 0 59 1;
#X connect 54 0 55 0;
#X connect 55 0 53 1;
#X connect 56 0 67 0;
#X connect 59 0 87 0;
#X connect 60 0 53 0;
#X connect 61 0 83 0;
#X connect 62 0 64 0;
#X connect 64 0 88 1;
#X connect 65 0 77 0;
#X connect 66 0 70 0;
#X connect 67 0 73 0;
#X connect 68 0 43 0;
#X connect 68 0 44 0;
#X connect 69 0 71 0;
#X connect 69 1 66 1;
#X connect 70 0 72 0;
#X connect 71 0 66 0;
#X connect 72 0 68 1;
#X connect 73 0 59 0;
#X connect 74 0 75 0;
#X connect 74 0 65 0;
#X connect 74 0 52 0;
#X connect 75 0 76 0;
#X connect 76 0 56 0;
#X connect 77 0 31 0;
#X connect 78 0 79 1;
#X connect 79 0 68 0;
#X connect 80 0 81 0;
#X connect 81 0 34 0;
#X connect 82 0 61 0;
#X connect 83 0 60 0;
#X connect 84 0 69 0;
#X connect 85 0 25 0;
#X connect 86 0 25 1;
#X connect 87 0 78 0;
#X connect 88 0 33 1;
#X connect 89 0 90 0;
#X connect 89 1 92 0;
#X connect 89 2 91 0;
#X connect 89 3 93 0;
