#N canvas 155 50 1222 628 10;
#N canvas 759 87 597 674 control 0;
#X obj 200 124 tgl 15 0 empty empty empty 17 7 0 10 -262144 -1 -1 0
1;
#X obj 223 189 f;
#X obj 254 190 + 1;
#X obj 286 189 %;
#X obj -104 413 translateXYZ;
#N canvas 229 263 450 300 pos 1;
#X obj 85 116 t f f f f=======================;
#X obj 85 174 outlet;
#X obj 193 178 outlet;
#X obj 300 184 outlet;
#X floatatom 85 87 5 0 0 0 - - -;
#X obj 85 63 inlet;
#X obj 85 142 tabread \$0-x;
#X obj 300 149 tabread \$0-z;
#X obj 193 147 tabread \$0-y;
#X connect 0 0 6 0;
#X connect 0 1 8 0;
#X connect 0 2 7 0;
#X connect 4 0 0 0;
#X connect 5 0 4 0;
#X connect 6 0 1 0;
#X connect 7 0 3 0;
#X connect 8 0 2 0;
#X restore -133 194 pd pos;
#X obj 113 104 hsl 80 15 -30 30 0 0 empty empty X 10 7 0 10 -258113
-1 -1 0 1;
#X obj 112 122 hsl 80 15 -30 30 0 0 empty empty Y 10 7 0 10 -4034 -1
-1 0 1;
#X obj 112 140 hsl 80 15 -30 30 0 0 empty empty Z 10 7 0 10 -4160 -1
-1 0 1;
#X floatatom 201 105 5 0 600 0 - - -;
#X floatatom -133 168 5 0 0 0 - - -;
#X obj 204 324 t f f f;
#X floatatom 57 45 5 0 0 0 - - -;
#X floatatom 57 68 5 0 0 0 - - -;
#X floatatom 57 87 5 0 0 0 - - -;
#X msg -174 425 draw line;
#X obj -174 397 loadbang;
#X obj -103 445 separator;
#X obj -9 437 separator;
#X obj 147 489 separator;
#X obj -36 567 separator;
#X obj -9 530 cube 0.1;
#X obj 148 554 cube 0.1;
#X obj -36 635 cube 0.1;
#X obj 147 511 scaleXYZ 0.05 200 0.05;
#X obj -9 482 scaleXYZ 0.05 0.05 200;
#X obj -36 591 scaleXYZ 200 0.05 0.05;
#X obj 220 124 tgl 15 0 empty empty empty 17 7 0 10 -262144 -1 -1 0
1;
#X obj 301 157 r vertex-num;
#X obj 223 240 +;
#X obj 238 211 r vertex;
#X obj 303 281 outlet;
#X obj 262 32 loadbang;
#X msg 262 55 0;
#X obj 223 166 metro 500;
#X obj -149 307 line;
#X obj -104 308 line;
#X obj -55 305 line;
#X obj -102 356 inlet;
#X obj -104 382 spigot;
#X obj -36 611 color 1 1 1;
#X obj 148 531 color 1 1 1;
#X obj -9 505 color 1 1 1;
#X obj -103 517 cube 0.08;
#X obj -103 484 color 1 1 1;
#X obj 153 255 t f f;
#X obj -155 251 t f b;
#X floatatom 200 141 5 0 0 0 - - -;
#X msg 278 93 500;
#X floatatom -128 274 5 0 0 0 - - -;
#X obj -102 248 t f b;
#X floatatom -75 271 5 0 0 0 - - -;
#X obj -53 248 t f b;
#X floatatom -26 271 5 0 0 0 - - -;
#X obj -1 209 t f f f;
#X obj 32 116 s \$0-x;
#X obj 31 161 s \$0-z;
#X obj 31 139 s \$0-y;
#X obj -156 225 r \$0-x;
#X obj -104 225 r \$0-y;
#X obj -54 226 r \$0-z;
#X obj 141 293 r \$0-x;
#X obj 157 320 r \$0-y;
#X obj 169 347 r \$0-z;
#X obj 141 380 tabwrite \$0-x;
#X obj 157 406 tabwrite \$0-y;
#X obj 169 434 tabwrite \$0-z;
#X connect 0 0 34 0;
#X connect 1 0 2 0;
#X connect 1 0 29 0;
#X connect 1 0 31 0;
#X connect 2 0 3 0;
#X connect 3 0 1 1;
#X connect 4 0 17 0;
#X connect 4 0 18 0;
#X connect 4 0 19 0;
#X connect 4 0 20 0;
#X connect 5 0 4 1;
#X connect 5 0 6 0;
#X connect 5 1 4 2;
#X connect 5 1 7 0;
#X connect 5 2 4 3;
#X connect 5 2 8 0;
#X connect 6 0 12 0;
#X connect 7 0 13 0;
#X connect 8 0 14 0;
#X connect 9 0 45 0;
#X connect 10 0 5 0;
#X connect 11 0 64 1;
#X connect 11 1 65 1;
#X connect 11 2 66 1;
#X connect 12 0 55 0;
#X connect 13 0 57 0;
#X connect 14 0 56 0;
#X connect 15 0 43 0;
#X connect 16 0 15 0;
#X connect 17 0 44 0;
#X connect 18 0 25 0;
#X connect 19 0 24 0;
#X connect 20 0 26 0;
#X connect 24 0 41 0;
#X connect 25 0 42 0;
#X connect 26 0 40 0;
#X connect 27 0 39 1;
#X connect 28 0 3 1;
#X connect 29 0 9 0;
#X connect 30 0 29 1;
#X connect 32 0 33 0;
#X connect 32 0 48 0;
#X connect 33 0 27 0;
#X connect 34 0 1 0;
#X connect 35 0 4 1;
#X connect 36 0 4 2;
#X connect 37 0 4 3;
#X connect 38 0 39 0;
#X connect 39 0 4 0;
#X connect 40 0 23 0;
#X connect 41 0 22 0;
#X connect 42 0 21 0;
#X connect 44 0 43 0;
#X connect 45 0 10 0;
#X connect 45 1 11 0;
#X connect 46 0 35 0;
#X connect 46 1 49 0;
#X connect 47 0 34 1;
#X connect 47 0 54 0;
#X connect 48 0 47 0;
#X connect 49 0 35 1;
#X connect 50 0 36 0;
#X connect 50 1 51 0;
#X connect 51 0 36 1;
#X connect 52 0 37 0;
#X connect 52 1 53 0;
#X connect 53 0 37 1;
#X connect 54 0 49 0;
#X connect 54 1 51 0;
#X connect 54 2 53 0;
#X connect 58 0 46 0;
#X connect 59 0 50 0;
#X connect 60 0 52 0;
#X connect 61 0 64 0;
#X connect 62 0 65 0;
#X connect 63 0 66 0;
#X coords 0 -1 1 1 140 60 2 100 100;
#X restore 104 195 pd control;
#X obj 253 114 tgl 15 0 empty empty noise 17 7 0 10 -258113 -1 -1 0
1;
#X obj 254 191 tgl 15 0 empty empty bird 17 7 0 10 -258113 -1 -1 0
1;
#X obj 320 218 hsl 50 15 0.01 0.1 0 0 empty empty empty -2 -8 0 10
-262144 -1 -1 0 1;
#N canvas 713 69 462 686 any-bird 0;
#X obj 58 -139 inlet;
#X obj 58 101 t f f;
#X obj 58 131 t f f f f=======================;
#X obj 58 205 -;
#X obj 121 208 -;
#X obj 184 209 -;
#X obj 58 231 * 0.1;
#X obj 121 231 * 0.1;
#X obj 184 231 * 0.1;
#X obj 58 260 +;
#X obj 121 260 +;
#X obj 184 259 +;
#X obj 132 76 t f f f;
#X obj 195 95 t f f f;
#X obj 275 96 t f f f;
#X obj 300 129 inlet;
#X obj 58 -27 t b b;
#X obj 58 7 f 0;
#X obj 88 7 + 1;
#X msg 98 -26 0;
#X floatatom 58 34 5 0 0 0 - - -;
#X obj 58 -87 t b b;
#X obj 132 27 t f f f f f;
#X obj 253 233 t f f f;
#X obj 58 157 tabread x-bird;
#X obj 121 175 tabread y-bird;
#X obj 184 161 tabread z-bird;
#X obj 300 180 line;
#X msg 300 154 \$1 2000;
#X obj 115 -247 t f f;
#X obj 115 -103 -;
#X floatatom 115 -79 5 0 0 0 - - -;
#X floatatom 115 -199 5 0 0 0 - - -;
#X obj 156 -177 - 1;
#X obj 156 -131 t f f;
#X floatatom 156 -95 5 0 0 0 - - -;
#X obj 115 -268 r frame;
#X obj 58 -58 repeat 100;
#X obj 58 67 +;
#X obj 156 -153 tabread num-2;
#X obj 115 -224 tabread num-2;
#X obj 132 53 tabread \$0-x;
#X obj 195 72 tabread \$0-y;
#X obj 275 72 tabread \$0-z;
#X obj 58 297 tabwrite \$0-x;
#X obj 121 320 tabwrite \$0-y;
#X obj 184 294 tabwrite \$0-z;
#X connect 0 0 21 0;
#X connect 1 0 2 0;
#X connect 1 1 22 0;
#X connect 2 0 24 0;
#X connect 2 1 25 0;
#X connect 2 2 26 0;
#X connect 3 0 6 0;
#X connect 4 0 7 0;
#X connect 5 0 8 0;
#X connect 6 0 9 0;
#X connect 7 0 10 0;
#X connect 8 0 11 0;
#X connect 9 0 44 0;
#X connect 10 0 45 0;
#X connect 11 0 46 0;
#X connect 12 0 3 1;
#X connect 12 1 9 1;
#X connect 13 0 4 1;
#X connect 13 1 10 1;
#X connect 14 0 5 1;
#X connect 14 1 11 1;
#X connect 15 0 28 0;
#X connect 16 0 17 0;
#X connect 17 0 18 0;
#X connect 17 0 20 0;
#X connect 18 0 17 1;
#X connect 19 0 17 1;
#X connect 20 0 38 0;
#X connect 21 0 37 0;
#X connect 21 1 19 0;
#X connect 22 0 41 0;
#X connect 22 1 42 0;
#X connect 22 2 43 0;
#X connect 22 4 23 0;
#X connect 23 0 44 1;
#X connect 23 1 45 1;
#X connect 23 2 46 1;
#X connect 24 0 3 0;
#X connect 25 0 4 0;
#X connect 26 0 5 0;
#X connect 27 0 8 1;
#X connect 27 0 7 1;
#X connect 27 0 6 1;
#X connect 28 0 27 0;
#X connect 29 0 40 0;
#X connect 29 1 33 0;
#X connect 30 0 31 0;
#X connect 31 0 37 1;
#X connect 32 0 30 0;
#X connect 33 0 39 0;
#X connect 34 0 35 0;
#X connect 34 1 30 1;
#X connect 35 0 38 1;
#X connect 36 0 29 0;
#X connect 37 0 16 0;
#X connect 38 0 1 0;
#X connect 39 0 34 0;
#X connect 40 0 32 0;
#X connect 41 0 12 0;
#X connect 42 0 13 0;
#X connect 43 0 14 0;
#X restore 254 239 pd any-bird;
#X obj 325 140 hsl 50 15 0.01 0.5 0 0 empty empty empty -2 -8 0 10
-262144 -1 -1 0 1;
#X obj 253 138 metro 50;
#X obj 254 215 metro 50;
#N canvas 190 39 496 627 noise-pos 0;
#X obj 162 43 inlet;
#X obj 64 336 t f b;
#X obj 64 411 +;
#X obj 213 342 t f b;
#X obj 213 417 +;
#X obj 362 344 t f b;
#X obj 362 419 +;
#X obj 162 125 t b b;
#X obj 162 159 f 0;
#X obj 192 159 + 1;
#X msg 202 126 0;
#X obj 296 63 inlet;
#X obj 296 93 t f f;
#X obj 323 137 / 2;
#X obj 240 365 randomF 0.01;
#X obj 389 367 randomF 0.01;
#X obj 91 359 randomF 0.01;
#X obj 91 382 - 0.005;
#X obj 240 388 - 0.005;
#X obj 390 390 - 0.005;
#X obj 162 94 repeat 13;
#X floatatom 162 186 5 0 0 0 - - -;
#X obj 162 65 t b b;
#X obj 162 250 t f f f f f;
#X obj 269 239 t f f f;
#X obj 352 197 t f f f;
#X obj 296 195 t f f f;
#X obj 210 -73 t f f;
#X obj 210 44 -;
#X floatatom 210 68 5 0 0 0 - - -;
#X floatatom 210 -25 5 0 0 0 - - -;
#X obj 251 -30 - 1;
#X obj 251 16 t f f;
#X floatatom 251 52 5 0 0 0 - - -;
#X obj 210 -94 r frame;
#X obj 251 -6 tabread num-2;
#X obj 210 -50 tabread num-2;
#X obj 162 214 +;
#X obj 64 312 tabread \$0-x;
#X obj 362 320 tabread \$0-z;
#X obj 213 316 tabread \$0-y;
#X obj 64 447 tabwrite \$0-x;
#X obj 213 446 tabwrite \$0-y;
#X obj 362 449 tabwrite \$0-z;
#X connect 0 0 22 0;
#X connect 1 0 2 0;
#X connect 1 1 16 0;
#X connect 2 0 41 0;
#X connect 3 0 4 0;
#X connect 3 1 14 0;
#X connect 4 0 42 0;
#X connect 5 0 6 0;
#X connect 5 1 15 0;
#X connect 6 0 43 0;
#X connect 7 0 8 0;
#X connect 8 0 9 0;
#X connect 8 0 21 0;
#X connect 9 0 8 1;
#X connect 10 0 8 1;
#X connect 11 0 12 0;
#X connect 12 0 26 0;
#X connect 12 1 13 0;
#X connect 13 0 25 0;
#X connect 14 0 18 0;
#X connect 15 0 19 0;
#X connect 16 0 17 0;
#X connect 17 0 2 1;
#X connect 18 0 4 1;
#X connect 19 0 6 1;
#X connect 20 0 7 0;
#X connect 21 0 37 0;
#X connect 22 0 20 0;
#X connect 22 1 10 0;
#X connect 23 0 38 0;
#X connect 23 1 40 0;
#X connect 23 2 39 0;
#X connect 23 4 24 0;
#X connect 24 0 41 1;
#X connect 24 1 42 1;
#X connect 24 2 43 1;
#X connect 25 0 17 1;
#X connect 25 1 18 1;
#X connect 25 2 19 1;
#X connect 26 0 16 1;
#X connect 26 1 14 1;
#X connect 26 2 15 1;
#X connect 27 0 36 0;
#X connect 27 1 31 0;
#X connect 28 0 29 0;
#X connect 29 0 20 1;
#X connect 30 0 28 0;
#X connect 31 0 35 0;
#X connect 32 0 33 0;
#X connect 32 1 28 1;
#X connect 33 0 37 1;
#X connect 34 0 27 0;
#X connect 35 0 32 0;
#X connect 36 0 30 0;
#X connect 37 0 23 0;
#X connect 38 0 1 0;
#X connect 39 0 5 0;
#X connect 40 0 3 0;
#X restore 253 162 pd noise-pos;
#N canvas 655 50 700 663 polygon 0;
#X obj 165 -282 gemhead;
#X obj 168 165 t a b;
#X obj 263 178 + 1;
#N canvas 885 191 292 403 shape-line 0;
#X obj 100 213 inlet;
#X obj 145 182 inlet;
#X obj 192 184 inlet;
#X obj 67 189 inlet;
#X obj 67 251 gate 2;
#X obj 145 214 t f f;
#X obj 192 221 t f f;
#N canvas 412 215 885 478 quads 0;
#X obj -207 64 tabread a1;
#X obj -163 88 tabread a2;
#X obj -119 119 tabread a3;
#X obj -409 183 loadbang;
#X obj -345 187 alpha;
#X obj -345 124 separator;
#X msg -409 206 draw fill;
#X obj -258 278 loadbang;
#X obj -191 337 alpha;
#X msg -258 302 draw line;
#X obj -191 247 separator;
#X obj -191 367 polygon 4;
#X obj -345 245 polygon 4;
#X obj -11 35 t f f f f;
#N canvas 718 236 528 521 xyz 0;
#X obj 169 44 inlet;
#X obj 168 283 pack f f f;
#X obj 168 315 outlet;
#X obj 168 114 t f f f b;
#X obj 168 236 + 0;
#X obj 198 249 + 0;
#X obj 230 250 + 0;
#X obj 350 85 inlet;
#N canvas 423 167 450 300 ranfomf 0;
#X obj 158 49 inlet;
#X obj 155 87 t b b b;
#X obj 156 211 outlet;
#X obj 209 220 outlet;
#X obj 278 220 outlet;
#X obj 264 106 / 2;
#X obj 236 55 t f f;
#X obj 235 29 inlet;
#X obj 151 126 randomF 0.01;
#X obj 202 150 randomF 0.01;
#X obj 281 145 randomF 0.01;
#X obj 151 155 - 0.005;
#X obj 202 179 - 0.005;
#X obj 281 174 - 0.005;
#X connect 0 0 1 0;
#X connect 1 0 8 0;
#X connect 1 1 9 0;
#X connect 1 2 10 0;
#X connect 5 0 11 1;
#X connect 5 0 12 1;
#X connect 5 0 13 1;
#X connect 6 0 8 1;
#X connect 6 0 9 1;
#X connect 6 0 10 1;
#X connect 6 1 5 0;
#X connect 7 0 6 0;
#X connect 8 0 11 0;
#X connect 9 0 12 0;
#X connect 10 0 13 0;
#X connect 11 0 2 0;
#X connect 12 0 3 0;
#X connect 13 0 4 0;
#X restore 245 153 pd ranfomf;
#X obj 206 42 r vertex;
#X obj 169 67 + 0;
#X floatatom 169 90 5 0 0 0 - - -;
#X obj 230 206 tabread \$0-z;
#X obj 198 179 tabread \$0-y;
#X obj 168 153 tabread \$0-x;
#X connect 0 0 10 0;
#X connect 1 0 2 0;
#X connect 3 0 14 0;
#X connect 3 1 13 0;
#X connect 3 2 12 0;
#X connect 3 3 8 0;
#X connect 4 0 1 0;
#X connect 5 0 1 1;
#X connect 6 0 1 2;
#X connect 7 0 8 1;
#X connect 8 0 4 1;
#X connect 8 1 5 1;
#X connect 8 2 6 1;
#X connect 9 0 10 1;
#X connect 10 0 11 0;
#X connect 11 0 3 0;
#X connect 12 0 6 0;
#X connect 13 0 5 0;
#X connect 14 0 4 0;
#X restore -207 112 pd xyz;
#N canvas 245 209 528 521 xyz 0;
#X obj 169 44 inlet;
#X obj 168 283 pack f f f;
#X obj 168 315 outlet;
#X obj 168 114 t f f f b;
#X obj 168 236 + 0;
#X obj 198 249 + 0;
#X obj 230 250 + 0;
#X obj 350 85 inlet;
#N canvas 423 167 450 300 ranfomf 0;
#X obj 158 49 inlet;
#X obj 155 87 t b b b;
#X obj 156 211 outlet;
#X obj 209 220 outlet;
#X obj 278 220 outlet;
#X obj 264 106 / 2;
#X obj 236 55 t f f;
#X obj 235 29 inlet;
#X obj 151 126 randomF 0.01;
#X obj 202 150 randomF 0.01;
#X obj 281 145 randomF 0.01;
#X obj 151 155 - 0.005;
#X obj 202 179 - 0.005;
#X obj 281 174 - 0.005;
#X connect 0 0 1 0;
#X connect 1 0 8 0;
#X connect 1 1 9 0;
#X connect 1 2 10 0;
#X connect 5 0 11 1;
#X connect 5 0 12 1;
#X connect 5 0 13 1;
#X connect 6 0 8 1;
#X connect 6 0 9 1;
#X connect 6 0 10 1;
#X connect 6 1 5 0;
#X connect 7 0 6 0;
#X connect 8 0 11 0;
#X connect 9 0 12 0;
#X connect 10 0 13 0;
#X connect 11 0 2 0;
#X connect 12 0 3 0;
#X connect 13 0 4 0;
#X restore 253 153 pd ranfomf;
#X obj 206 42 r vertex;
#X obj 169 67 + 0;
#X floatatom 169 90 5 0 0 0 - - -;
#X obj 198 179 tabread \$0-y;
#X obj 230 206 tabread \$0-z;
#X obj 168 153 tabread \$0-x;
#X connect 0 0 10 0;
#X connect 1 0 2 0;
#X connect 3 0 14 0;
#X connect 3 1 12 0;
#X connect 3 2 13 0;
#X connect 3 3 8 0;
#X connect 4 0 1 0;
#X connect 5 0 1 1;
#X connect 6 0 1 2;
#X connect 7 0 8 1;
#X connect 8 0 4 1;
#X connect 8 1 5 1;
#X connect 8 2 6 1;
#X connect 9 0 10 1;
#X connect 10 0 11 0;
#X connect 11 0 3 0;
#X connect 12 0 5 0;
#X connect 13 0 6 0;
#X connect 14 0 4 0;
#X restore -163 137 pd xyz;
#N canvas 668 216 528 521 xyz 0;
#X obj 169 44 inlet;
#X obj 168 283 pack f f f;
#X obj 168 315 outlet;
#X obj 168 114 t f f f b;
#X obj 168 236 + 0;
#X obj 198 249 + 0;
#X obj 230 250 + 0;
#X obj 350 85 inlet;
#N canvas 423 167 450 300 ranfomf 0;
#X obj 158 49 inlet;
#X obj 155 87 t b b b;
#X obj 156 211 outlet;
#X obj 209 220 outlet;
#X obj 278 220 outlet;
#X obj 264 106 / 2;
#X obj 236 55 t f f;
#X obj 235 29 inlet;
#X obj 151 126 randomF 0.01;
#X obj 202 150 randomF 0.01;
#X obj 281 145 randomF 0.01;
#X obj 151 155 - 0.005;
#X obj 202 179 - 0.005;
#X obj 281 174 - 0.005;
#X connect 0 0 1 0;
#X connect 1 0 8 0;
#X connect 1 1 9 0;
#X connect 1 2 10 0;
#X connect 5 0 11 1;
#X connect 5 0 12 1;
#X connect 5 0 13 1;
#X connect 6 0 8 1;
#X connect 6 0 9 1;
#X connect 6 0 10 1;
#X connect 6 1 5 0;
#X connect 7 0 6 0;
#X connect 8 0 11 0;
#X connect 9 0 12 0;
#X connect 10 0 13 0;
#X connect 11 0 2 0;
#X connect 12 0 3 0;
#X connect 13 0 4 0;
#X restore 245 153 pd ranfomf;
#X obj 206 42 r vertex;
#X obj 169 67 + 0;
#X floatatom 169 90 5 0 0 0 - - -;
#X obj 168 153 tabread \$0-x;
#X obj 230 206 tabread \$0-z;
#X obj 198 179 tabread \$0-y;
#X connect 0 0 10 0;
#X connect 1 0 2 0;
#X connect 3 0 12 0;
#X connect 3 1 14 0;
#X connect 3 2 13 0;
#X connect 3 3 8 0;
#X connect 4 0 1 0;
#X connect 5 0 1 1;
#X connect 6 0 1 2;
#X connect 7 0 8 1;
#X connect 8 0 4 1;
#X connect 8 1 5 1;
#X connect 8 2 6 1;
#X connect 9 0 10 1;
#X connect 10 0 11 0;
#X connect 11 0 3 0;
#X connect 12 0 4 0;
#X connect 13 0 6 0;
#X connect 14 0 5 0;
#X restore -119 166 pd xyz;
#N canvas 677 183 528 521 xyz 0;
#X obj 169 44 inlet;
#X obj 168 283 pack f f f;
#X obj 168 315 outlet;
#X obj 168 114 t f f f b;
#X obj 168 236 + 0;
#X obj 198 249 + 0;
#X obj 230 250 + 0;
#X obj 350 85 inlet;
#N canvas 423 167 450 300 ranfomf 0;
#X obj 158 49 inlet;
#X obj 155 87 t b b b;
#X obj 156 211 outlet;
#X obj 209 220 outlet;
#X obj 278 220 outlet;
#X obj 264 106 / 2;
#X obj 236 55 t f f;
#X obj 235 29 inlet;
#X obj 151 126 randomF 0.01;
#X obj 202 150 randomF 0.01;
#X obj 281 145 randomF 0.01;
#X obj 151 155 - 0.005;
#X obj 202 179 - 0.005;
#X obj 281 174 - 0.005;
#X connect 0 0 1 0;
#X connect 1 0 8 0;
#X connect 1 1 9 0;
#X connect 1 2 10 0;
#X connect 5 0 11 1;
#X connect 5 0 12 1;
#X connect 5 0 13 1;
#X connect 6 0 8 1;
#X connect 6 0 9 1;
#X connect 6 0 10 1;
#X connect 6 1 5 0;
#X connect 7 0 6 0;
#X connect 8 0 11 0;
#X connect 9 0 12 0;
#X connect 10 0 13 0;
#X connect 11 0 2 0;
#X connect 12 0 3 0;
#X connect 13 0 4 0;
#X restore 247 155 pd ranfomf;
#X obj 206 42 r vertex;
#X obj 169 67 + 0;
#X floatatom 169 90 5 0 0 0 - - -;
#X obj 168 153 tabread \$0-x;
#X obj 198 179 tabread \$0-y;
#X obj 230 206 tabread \$0-z;
#X connect 0 0 10 0;
#X connect 1 0 2 0;
#X connect 3 0 12 0;
#X connect 3 1 13 0;
#X connect 3 2 14 0;
#X connect 3 3 8 0;
#X connect 4 0 1 0;
#X connect 5 0 1 1;
#X connect 6 0 1 2;
#X connect 7 0 8 1;
#X connect 8 0 4 1;
#X connect 8 1 5 1;
#X connect 8 2 6 1;
#X connect 9 0 10 1;
#X connect 10 0 11 0;
#X connect 11 0 3 0;
#X connect 12 0 4 0;
#X connect 13 0 5 0;
#X connect 14 0 6 0;
#X restore -75 194 pd xyz;
#X obj -207 29 t f f f f f f;
#X obj -75 153 tabread a4;
#X obj -346 91 inlet;
#X obj -206 6 inlet;
#X obj -14 9 inlet;
#X obj -191 278 colorRGB 1 1 1 1;
#X obj -387 103 tgl 15 0 empty empty empty 17 7 0 10 -262144 -1 -1
1 1;
#X obj -387 75 loadbang;
#X obj -345 158 colorRGB 0.2 0.4 0.8 0.2;
#X obj -73 366 sphere 0.02 10;
#X obj -73 336 color 1 1 1;
#X obj -73 307 translateXYZ;
#X obj -74 276 separator;
#X obj -62 238 unpack f f f;
#X obj 29 367 sphere 0.02 10;
#X obj 29 337 color 1 1 1;
#X obj 29 308 translateXYZ;
#X obj 28 277 separator;
#X obj 40 239 unpack f f f;
#X obj 140 369 sphere 0.02 10;
#X obj 140 339 color 1 1 1;
#X obj 140 310 translateXYZ;
#X obj 139 279 separator;
#X obj 151 241 unpack f f f;
#X obj 242 370 sphere 0.02 10;
#X obj 242 340 color 1 1 1;
#X obj 242 311 translateXYZ;
#X obj 241 280 separator;
#X obj 253 242 unpack f f f;
#X connect 0 0 14 0;
#X connect 1 0 15 0;
#X connect 2 0 16 0;
#X connect 3 0 6 0;
#X connect 4 0 12 0;
#X connect 5 0 26 0;
#X connect 6 0 12 0;
#X connect 7 0 9 0;
#X connect 8 0 11 0;
#X connect 9 0 11 0;
#X connect 10 0 23 0;
#X connect 13 0 14 1;
#X connect 13 1 15 1;
#X connect 13 2 16 1;
#X connect 13 3 17 1;
#X connect 14 0 12 1;
#X connect 14 0 11 1;
#X connect 14 0 31 0;
#X connect 15 0 12 2;
#X connect 15 0 11 2;
#X connect 15 0 36 0;
#X connect 16 0 12 3;
#X connect 16 0 11 3;
#X connect 16 0 41 0;
#X connect 17 0 12 4;
#X connect 17 0 11 4;
#X connect 17 0 46 0;
#X connect 18 0 0 0;
#X connect 18 1 1 0;
#X connect 18 2 2 0;
#X connect 18 3 19 0;
#X connect 19 0 17 0;
#X connect 20 0 5 0;
#X connect 20 0 10 0;
#X connect 20 0 30 0;
#X connect 20 0 35 0;
#X connect 20 0 40 0;
#X connect 20 0 45 0;
#X connect 21 0 18 0;
#X connect 22 0 13 0;
#X connect 23 0 8 0;
#X connect 24 0 4 1;
#X connect 24 0 4 0;
#X connect 25 0 24 0;
#X connect 26 0 4 0;
#X connect 28 0 27 0;
#X connect 29 0 28 0;
#X connect 30 0 29 0;
#X connect 31 0 29 1;
#X connect 31 1 29 2;
#X connect 31 2 29 3;
#X connect 33 0 32 0;
#X connect 34 0 33 0;
#X connect 35 0 34 0;
#X connect 36 0 34 1;
#X connect 36 1 34 2;
#X connect 36 2 34 3;
#X connect 38 0 37 0;
#X connect 39 0 38 0;
#X connect 40 0 39 0;
#X connect 41 0 39 1;
#X connect 41 1 39 2;
#X connect 41 2 39 3;
#X connect 43 0 42 0;
#X connect 44 0 43 0;
#X connect 45 0 44 0;
#X connect 46 0 44 1;
#X connect 46 1 44 2;
#X connect 46 2 44 3;
#X restore 100 328 pd quads;
#N canvas 741 184 511 431 tri 0;
#X obj -207 64 tabread a1;
#X obj -163 88 tabread a2;
#X obj -119 119 tabread a3;
#X obj -389 179 loadbang;
#X obj -325 183 alpha;
#X obj -325 120 separator;
#X msg -389 202 draw fill;
#X obj -258 278 loadbang;
#X obj -191 337 alpha;
#X msg -258 302 draw line;
#X obj -191 247 separator;
#X obj -11 35 t f f f f;
#N canvas 805 212 528 521 xyz 0;
#X obj 169 44 inlet;
#X obj 168 283 pack f f f;
#X obj 168 315 outlet;
#X obj 168 114 t f f f b;
#X obj 168 236 + 0;
#X obj 198 249 + 0;
#X obj 230 250 + 0;
#X obj 350 85 inlet;
#N canvas 423 167 450 300 ranfomf 0;
#X obj 158 49 inlet;
#X obj 155 87 t b b b;
#X obj 156 211 outlet;
#X obj 209 220 outlet;
#X obj 278 220 outlet;
#X obj 264 106 / 2;
#X obj 236 55 t f f;
#X obj 235 29 inlet;
#X obj 151 126 randomF 0.01;
#X obj 202 150 randomF 0.01;
#X obj 281 145 randomF 0.01;
#X obj 151 155 - 0.005;
#X obj 202 179 - 0.005;
#X obj 281 174 - 0.005;
#X connect 0 0 1 0;
#X connect 1 0 8 0;
#X connect 1 1 9 0;
#X connect 1 2 10 0;
#X connect 5 0 11 1;
#X connect 5 0 12 1;
#X connect 5 0 13 1;
#X connect 6 0 8 1;
#X connect 6 0 9 1;
#X connect 6 0 10 1;
#X connect 6 1 5 0;
#X connect 7 0 6 0;
#X connect 8 0 11 0;
#X connect 9 0 12 0;
#X connect 10 0 13 0;
#X connect 11 0 2 0;
#X connect 12 0 3 0;
#X connect 13 0 4 0;
#X restore 251 151 pd ranfomf;
#X obj 206 42 r vertex;
#X obj 169 67 + 0;
#X floatatom 169 90 5 0 0 0 - - -;
#X obj 168 153 tabread \$0-x;
#X obj 198 179 tabread \$0-y;
#X obj 230 206 tabread \$0-z;
#X connect 0 0 10 0;
#X connect 1 0 2 0;
#X connect 3 0 12 0;
#X connect 3 1 13 0;
#X connect 3 2 14 0;
#X connect 3 3 8 0;
#X connect 4 0 1 0;
#X connect 5 0 1 1;
#X connect 6 0 1 2;
#X connect 7 0 8 1;
#X connect 8 0 4 1;
#X connect 8 1 5 1;
#X connect 8 2 6 1;
#X connect 9 0 10 1;
#X connect 10 0 11 0;
#X connect 11 0 3 0;
#X connect 12 0 4 0;
#X connect 13 0 5 0;
#X connect 14 0 6 0;
#X restore -207 112 pd xyz;
#N canvas 463 364 528 521 xyz 0;
#X obj 169 44 inlet;
#X obj 168 283 pack f f f;
#X obj 168 315 outlet;
#X obj 168 114 t f f f b;
#X obj 168 236 + 0;
#X obj 198 249 + 0;
#X obj 230 250 + 0;
#X obj 350 85 inlet;
#N canvas 423 167 450 300 ranfomf 0;
#X obj 158 49 inlet;
#X obj 155 87 t b b b;
#X obj 156 211 outlet;
#X obj 209 220 outlet;
#X obj 278 220 outlet;
#X obj 264 106 / 2;
#X obj 236 55 t f f;
#X obj 235 29 inlet;
#X obj 151 126 randomF 0.01;
#X obj 202 150 randomF 0.01;
#X obj 281 145 randomF 0.01;
#X obj 151 155 - 0.005;
#X obj 202 179 - 0.005;
#X obj 281 174 - 0.005;
#X connect 0 0 1 0;
#X connect 1 0 8 0;
#X connect 1 1 9 0;
#X connect 1 2 10 0;
#X connect 5 0 11 1;
#X connect 5 0 12 1;
#X connect 5 0 13 1;
#X connect 6 0 8 1;
#X connect 6 0 9 1;
#X connect 6 0 10 1;
#X connect 6 1 5 0;
#X connect 7 0 6 0;
#X connect 8 0 11 0;
#X connect 9 0 12 0;
#X connect 10 0 13 0;
#X connect 11 0 2 0;
#X connect 12 0 3 0;
#X connect 13 0 4 0;
#X restore 250 153 pd ranfomf;
#X obj 206 42 r vertex;
#X obj 169 67 + 0;
#X floatatom 169 90 5 0 0 0 - - -;
#X obj 168 153 tabread \$0-x;
#X obj 198 179 tabread \$0-y;
#X obj 230 206 tabread \$0-z;
#X connect 0 0 10 0;
#X connect 1 0 2 0;
#X connect 3 0 12 0;
#X connect 3 1 13 0;
#X connect 3 2 14 0;
#X connect 3 3 8 0;
#X connect 4 0 1 0;
#X connect 5 0 1 1;
#X connect 6 0 1 2;
#X connect 7 0 8 1;
#X connect 8 0 4 1;
#X connect 8 1 5 1;
#X connect 8 2 6 1;
#X connect 9 0 10 1;
#X connect 10 0 11 0;
#X connect 11 0 3 0;
#X connect 12 0 4 0;
#X connect 13 0 5 0;
#X connect 14 0 6 0;
#X restore -163 137 pd xyz;
#N canvas 463 364 528 521 xyz 0;
#X obj 169 44 inlet;
#X obj 168 283 pack f f f;
#X obj 168 315 outlet;
#X obj 168 114 t f f f b;
#X obj 168 236 + 0;
#X obj 198 249 + 0;
#X obj 230 250 + 0;
#X obj 350 85 inlet;
#N canvas 423 167 450 300 ranfomf 0;
#X obj 158 49 inlet;
#X obj 155 87 t b b b;
#X obj 156 211 outlet;
#X obj 209 220 outlet;
#X obj 278 220 outlet;
#X obj 264 106 / 2;
#X obj 236 55 t f f;
#X obj 235 29 inlet;
#X obj 151 126 randomF 0.01;
#X obj 202 150 randomF 0.01;
#X obj 281 145 randomF 0.01;
#X obj 151 155 - 0.005;
#X obj 202 179 - 0.005;
#X obj 281 174 - 0.005;
#X connect 0 0 1 0;
#X connect 1 0 8 0;
#X connect 1 1 9 0;
#X connect 1 2 10 0;
#X connect 5 0 11 1;
#X connect 5 0 12 1;
#X connect 5 0 13 1;
#X connect 6 0 8 1;
#X connect 6 0 9 1;
#X connect 6 0 10 1;
#X connect 6 1 5 0;
#X connect 7 0 6 0;
#X connect 8 0 11 0;
#X connect 9 0 12 0;
#X connect 10 0 13 0;
#X connect 11 0 2 0;
#X connect 12 0 3 0;
#X connect 13 0 4 0;
#X restore 252 151 pd ranfomf;
#X obj 206 42 r vertex;
#X obj 169 67 + 0;
#X floatatom 169 90 5 0 0 0 - - -;
#X obj 168 153 tabread \$0-x;
#X obj 198 179 tabread \$0-y;
#X obj 230 206 tabread \$0-z;
#X connect 0 0 10 0;
#X connect 1 0 2 0;
#X connect 3 0 12 0;
#X connect 3 1 13 0;
#X connect 3 2 14 0;
#X connect 3 3 8 0;
#X connect 4 0 1 0;
#X connect 5 0 1 1;
#X connect 6 0 1 2;
#X connect 7 0 8 1;
#X connect 8 0 4 1;
#X connect 8 1 5 1;
#X connect 8 2 6 1;
#X connect 9 0 10 1;
#X connect 10 0 11 0;
#X connect 11 0 3 0;
#X connect 12 0 4 0;
#X connect 13 0 5 0;
#X connect 14 0 6 0;
#X restore -119 166 pd xyz;
#X obj -207 29 t f f f f f f;
#X obj -326 87 inlet;
#X obj -206 6 inlet;
#X obj -14 9 inlet;
#X obj -191 367 polygon 3;
#X obj -325 241 polygon 3;
#X obj -325 154 colorRGB 1 0 0 0.5;
#X obj -191 278 colorRGB 1 1 1 1;
#X connect 0 0 12 0;
#X connect 1 0 13 0;
#X connect 2 0 14 0;
#X connect 3 0 6 0;
#X connect 4 0 20 0;
#X connect 5 0 21 0;
#X connect 6 0 20 0;
#X connect 7 0 9 0;
#X connect 8 0 19 0;
#X connect 9 0 19 0;
#X connect 10 0 22 0;
#X connect 11 0 12 1;
#X connect 11 1 13 1;
#X connect 11 2 14 1;
#X connect 12 0 19 1;
#X connect 12 0 20 1;
#X connect 13 0 19 2;
#X connect 13 0 20 2;
#X connect 14 0 19 3;
#X connect 14 0 20 3;
#X connect 15 0 0 0;
#X connect 15 1 1 0;
#X connect 15 2 2 0;
#X connect 16 0 5 0;
#X connect 16 0 10 0;
#X connect 17 0 15 0;
#X connect 18 0 11 0;
#X connect 21 0 4 0;
#X connect 22 0 8 0;
#X restore 67 290 pd tri;
#X connect 0 0 4 1;
#X connect 1 0 5 0;
#X connect 2 0 6 0;
#X connect 3 0 4 0;
#X connect 4 0 8 0;
#X connect 4 1 7 0;
#X connect 5 0 8 1;
#X connect 5 1 7 1;
#X connect 6 0 8 2;
#X connect 6 1 7 2;
#X restore 166 303 pd shape-line;
#X obj 168 192 separator;
#X obj 168 99 separator;
#X obj 234 237 + 0;
#X obj 320 -86 t f f;
#X obj 320 58 -;
#X floatatom 320 82 5 0 0 0 - - -;
#X obj 320 -63 tabread num;
#X floatatom 320 -38 5 0 0 0 - - -;
#X obj 361 8 tabread num;
#X obj 361 -16 - 1;
#X obj 361 30 t f f;
#X floatatom 361 66 5 0 0 0 - - -;
#X obj 234 178 f 0;
#X obj 320 -111 r frame;
#X obj 238 -12 + 1;
#X obj 212 -11 f 0;
#X obj 212 77 s frame;
#X obj 168 -123 t a b;
#X obj 212 -90 spigot;
#X obj 245 -113 tgl 15 0 empty empty empty 17 7 0 10 -262144 -1 -1
1 1;
#X obj 238 -67 + 1;
#X obj 212 -66 f 0;
#X obj 212 31 abs;
#X obj 212 53 + 1;
#X obj 245 -134 inlet;
#X obj 438 -82 t f f;
#X obj 438 62 -;
#X floatatom 438 86 5 0 0 0 - - -;
#X floatatom 438 -34 5 0 0 0 - - -;
#X obj 479 -12 - 1;
#X obj 479 34 t f f;
#X floatatom 479 70 5 0 0 0 - - -;
#X obj 479 12 tabread num-2;
#X obj 438 -58 tabread num-2;
#X obj 353 161 inlet;
#X obj 479 96 s vertex;
#X obj 438 124 s vertex-num;
#X obj 168 121 repeat 184;
#X obj 293 178 % 184;
#X obj 286 124 s face-num;
#X obj 361 98 s face-add;
#X msg 268 332 1;
#X msg 287 360 2;
#X obj 234 205 t f f f;
#X obj 268 278 tabread num-3;
#X obj 268 303 sel 6 8;
#X obj 212 -41 sel 0;
#X obj 265 -12 % 18;
#X obj 212 10 - 9;
#X msg 247 45 10;
#X obj 250 19 loadbang;
#X obj 265 -66 % 10;
#X obj 165 -257 t a b;
#X obj 218 -235 + 1;
#X obj 192 -234 f 0;
#X obj 245 -234 % 3600;
#X obj 191 -213 / 10;
#X obj 167 -183 rotateXYZ;
#X obj 168 -160 separator;
#X obj 82 -158 separator;
#X obj 83 -131 outlet;
#X obj 168 144 separator;
#X connect 0 0 56 0;
#X connect 1 0 4 0;
#X connect 1 1 16 0;
#X connect 2 0 42 0;
#X connect 4 0 3 1;
#X connect 5 0 41 0;
#X connect 6 0 3 2;
#X connect 6 0 48 0;
#X connect 7 0 10 0;
#X connect 7 1 13 0;
#X connect 8 0 9 0;
#X connect 9 0 41 1;
#X connect 9 0 42 1;
#X connect 9 0 43 0;
#X connect 10 0 11 0;
#X connect 11 0 8 0;
#X connect 12 0 14 0;
#X connect 13 0 12 0;
#X connect 14 0 15 0;
#X connect 14 1 8 1;
#X connect 15 0 6 1;
#X connect 15 0 44 0;
#X connect 16 0 2 0;
#X connect 16 0 47 0;
#X connect 17 0 7 0;
#X connect 17 0 29 0;
#X connect 18 0 51 0;
#X connect 19 0 18 0;
#X connect 19 0 52 0;
#X connect 21 0 5 0;
#X connect 21 1 22 0;
#X connect 22 0 25 0;
#X connect 23 0 22 1;
#X connect 24 0 55 0;
#X connect 25 0 24 0;
#X connect 25 0 50 0;
#X connect 26 0 27 0;
#X connect 27 0 20 0;
#X connect 28 0 23 0;
#X connect 29 0 37 0;
#X connect 29 1 33 0;
#X connect 30 0 31 0;
#X connect 31 0 40 0;
#X connect 32 0 30 0;
#X connect 33 0 36 0;
#X connect 34 0 35 0;
#X connect 34 1 30 1;
#X connect 35 0 39 0;
#X connect 36 0 34 0;
#X connect 37 0 32 0;
#X connect 38 0 3 3;
#X connect 41 0 65 0;
#X connect 42 0 16 1;
#X connect 45 0 3 0;
#X connect 46 0 3 0;
#X connect 47 0 6 0;
#X connect 48 0 49 0;
#X connect 49 0 45 0;
#X connect 49 1 46 0;
#X connect 50 0 19 0;
#X connect 51 0 19 1;
#X connect 52 0 26 0;
#X connect 53 0 20 0;
#X connect 55 0 25 1;
#X connect 56 0 61 0;
#X connect 56 1 58 0;
#X connect 57 0 59 0;
#X connect 58 0 57 0;
#X connect 58 0 60 0;
#X connect 59 0 58 1;
#X connect 60 0 61 1;
#X connect 60 0 61 2;
#X connect 61 0 62 0;
#X connect 61 0 63 0;
#X connect 62 0 21 0;
#X connect 63 0 64 0;
#X connect 65 0 1 0;
#X restore 104 173 pd polygon;
#X obj 104 152 tgl 15 0 empty empty empty 17 7 0 10 -258113 -1 -1 1
1;
#X obj 175 175 hsl 50 15 0.001 5 0 0 empty empty empty -2 -8 0 10 -262144
-1 -1 0 1;
#X obj 172 151 r bomb-noise;
#N canvas 326 22 923 780 data 0;
#X obj 37 434 f;
#X floatatom 37 457 10 0 0 0 - - -;
#X obj 0 519 unpack f f f;
#X obj 69 434 + 1;
#X obj 361 434 t a b;
#X obj 388 458 f;
#X obj 418 457 + 1;
#X floatatom 388 478 5 0 0 0 - - -;
#X obj 572 560 + 1;
#X obj 388 622 tabwrite a2;
#X obj 415 648 tabwrite a3;
#X obj 361 569 - 1;
#X obj 388 571 - 1;
#X obj 415 570 - 1;
#X obj 361 602 tabwrite a1;
#X obj 0 371 t a b;
#X obj 172 438 qlist;
#X msg 141 366 bang;
#X msg 295 367 clear;
#X obj 129 222 + 1;
#X floatatom 172 384 5 0 0 0 - - -;
#X obj 103 286 + 1;
#X obj 103 223 f 0;
#X floatatom 572 581 5 0 0 0 - - -;
#X obj 572 601 v num;
#X obj 572 631 tabwrite num;
#X obj 169 490 + 1;
#X floatatom 169 511 5 0 0 0 - - -;
#X obj 169 531 v num-2;
#X obj 169 555 tabwrite num-2;
#X obj 361 290 spigot;
#X obj 0 317 r v;
#X obj 361 260 r f;
#X obj 0 341 spigot;
#X obj 132 120 tgl 15 0 empty empty empty 17 7 0 10 -262144 -1 -1 0
1;
#X obj 361 543 unpack f f f f;
#X obj 469 690 tabwrite a4;
#X obj 469 594 - 1;
#X obj 361 365 unpack f f f f f f f f;
#X obj 361 396 pack 0 0 0 0;
#X msg 164 192 0;
#X obj 103 332 t b b f f f b b========================;
#X obj 27 668 tabwrite x-bird;
#X obj 0 583 t f f;
#X obj 34 705 t f f;
#X obj 69 581 t f f;
#X obj 61 766 tabwrite y-bird;
#X obj 96 642 tabwrite z-bird;
#X obj 37 481 t f f;
#X obj 105 121 bng 15 250 50 0 empty empty empty 17 7 0 10 -262144
-1 -1;
#X obj 105 140 t b b b;
#X msg 105 164 0;
#X obj 0 550 * 1;
#X obj 34 548 * 1;
#X obj 69 548 * 1;
#X msg 101 513 0.25;
#X obj 548 358 list-drip;
#X obj 548 332 t a b;
#X obj 548 406 f;
#X obj 578 407 + 1;
#X obj 548 382 t b;
#X floatatom 548 431 5 0 0 0 - - -;
#X obj 361 320 t a a;
#X obj 548 481 tabwrite num-3;
#X msg 579 383 1;
#X obj 388 507 t f f f f f b f;
#X obj 548 451 v num-3;
#X obj 103 485 loadbang;
#X obj 636 196 r vt;
#X obj 638 220 r vn;
#X obj 639 245 r s;
#X obj 639 271 r g;
#X obj 636 174 r usemtl;
#X obj 640 294 r #;
#X obj 434 249 table x-bird 2300;
#X obj 434 271 table y-bird 2300;
#X obj 434 292 table z-bird 2300;
#X obj 542 170 table a1 4400;
#X obj 542 193 table a2 4400;
#X obj 542 216 table a3 4400;
#X obj 542 239 table a4 5000;
#X msg 172 407 read f\$1.txt;
#X obj 103 192 repeat 10;
#X obj 156 222 % 10;
#X obj 102 36 loadbang;
#X obj 103 57 t b b;
#X msg 130 78 1;
#X obj 76 361 t b b b;
#X obj 87 413 outlet;
#X msg 87 391 1;
#X obj 723 294 table num-3 2300;
#X obj 723 272 table num-2 100;
#X obj 724 248 table num 100;
#X obj 0 639 tabwrite \$0-x;
#X obj 69 610 tabwrite \$0-z;
#X obj 34 736 tabwrite \$0-y;
#X obj 434 172 table \$0-x 2300;
#X obj 434 195 table \$0-y 2300;
#X obj 435 218 table \$0-z 2300;
#X connect 0 0 1 0;
#X connect 0 0 3 0;
#X connect 1 0 48 0;
#X connect 2 0 52 0;
#X connect 2 1 53 0;
#X connect 2 2 54 0;
#X connect 3 0 0 1;
#X connect 4 0 35 0;
#X connect 4 1 5 0;
#X connect 5 0 6 0;
#X connect 5 0 7 0;
#X connect 6 0 5 1;
#X connect 7 0 65 0;
#X connect 8 0 23 0;
#X connect 11 0 14 0;
#X connect 12 0 9 0;
#X connect 13 0 10 0;
#X connect 15 0 2 0;
#X connect 15 1 0 0;
#X connect 17 0 16 0;
#X connect 18 0 16 0;
#X connect 19 0 83 0;
#X connect 20 0 81 0;
#X connect 21 0 41 0;
#X connect 22 0 19 0;
#X connect 22 0 21 0;
#X connect 23 0 24 0;
#X connect 24 0 25 0;
#X connect 26 0 27 0;
#X connect 27 0 28 0;
#X connect 28 0 29 0;
#X connect 30 0 62 0;
#X connect 31 0 33 0;
#X connect 32 0 30 0;
#X connect 33 0 15 0;
#X connect 34 0 33 1;
#X connect 34 0 30 1;
#X connect 35 0 11 0;
#X connect 35 1 12 0;
#X connect 35 2 13 0;
#X connect 35 3 37 0;
#X connect 37 0 36 0;
#X connect 38 0 39 0;
#X connect 38 2 39 1;
#X connect 38 4 39 2;
#X connect 38 6 39 3;
#X connect 39 0 4 0;
#X connect 40 0 22 1;
#X connect 40 0 0 1;
#X connect 40 0 5 1;
#X connect 41 0 87 0;
#X connect 41 1 17 0;
#X connect 41 2 20 0;
#X connect 41 3 29 1;
#X connect 41 4 25 1;
#X connect 41 5 18 0;
#X connect 43 0 93 0;
#X connect 43 1 42 0;
#X connect 44 0 95 0;
#X connect 44 1 46 0;
#X connect 45 0 94 0;
#X connect 45 1 47 0;
#X connect 48 0 47 1;
#X connect 48 0 42 1;
#X connect 48 0 46 1;
#X connect 48 0 93 1;
#X connect 48 0 94 1;
#X connect 48 0 95 1;
#X connect 48 1 26 0;
#X connect 49 0 50 0;
#X connect 50 0 51 0;
#X connect 50 1 82 0;
#X connect 50 2 40 0;
#X connect 51 0 34 0;
#X connect 52 0 43 0;
#X connect 53 0 44 0;
#X connect 54 0 45 0;
#X connect 55 0 52 1;
#X connect 55 0 54 1;
#X connect 55 0 53 1;
#X connect 56 0 60 0;
#X connect 57 0 56 0;
#X connect 57 1 64 0;
#X connect 58 0 59 0;
#X connect 58 0 61 0;
#X connect 59 0 58 1;
#X connect 60 0 58 0;
#X connect 61 0 66 0;
#X connect 62 0 38 0;
#X connect 62 1 57 0;
#X connect 64 0 58 1;
#X connect 65 0 14 1;
#X connect 65 1 9 1;
#X connect 65 2 10 1;
#X connect 65 3 36 1;
#X connect 65 4 8 0;
#X connect 65 5 66 0;
#X connect 65 6 63 1;
#X connect 66 0 63 0;
#X connect 67 0 55 0;
#X connect 81 0 16 0;
#X connect 82 0 22 0;
#X connect 83 0 22 1;
#X connect 84 0 85 0;
#X connect 85 0 49 0;
#X connect 85 1 86 0;
#X connect 86 0 34 0;
#X connect 87 0 89 0;
#X connect 87 1 28 0;
#X connect 87 2 24 0;
#X connect 89 0 88 0;
#X coords 0 -1 1 1 60 40 1 100 100;
#X restore 173 107 pd data;
#X connect 1 0 6 0;
#X connect 2 0 7 0;
#X connect 3 0 4 1;
#X connect 5 0 8 1;
#X connect 6 0 8 0;
#X connect 7 0 4 0;
#X connect 9 0 0 0;
#X connect 10 0 9 0;
#X connect 11 0 9 1;
#X connect 12 0 11 0;
#X connect 13 0 10 0;
#X coords 0 -1 1 1 280 160 1 100 100;
