#N canvas 385 22 842 726 10;
#X obj 409 70 *;
#X obj 409 90 *;
#X obj 409 110 *;
#X obj 409 130 *;
#X msg 409 29 466.164;
#X obj 409 150 *;
#X obj 409 170 *;
#X obj 409 190 *;
#X obj 409 210 *;
#X obj 264 299 hip~ 100;
#X obj 409 230 *;
#X obj 409 250 *;
#X obj 409 269 *;
#X msg 470 28 1.12247;
#X obj 317 361 bp~ 1 620;
#X obj 318 383 bp~ 1 640;
#X obj 317 403 bp~ 1 680;
#X obj 318 423 bp~ 1 720;
#X obj 318 444 bp~ 1 760;
#X obj 317 465 bp~ 1 800;
#X obj 237 465 bp~ 1 840;
#X obj 236 442 bp~ 1 880;
#X obj 236 417 bp~ 1 910;
#X obj 236 394 bp~ 1 930;
#X obj 235 371 bp~ 1 1100;
#X obj 235 346 bp~ 1 1200;
#X obj 193 165 vd~ x;
#X obj 235 164 vd~ x;
#X obj 281 164 vd~ x;
#X obj 74 277 delwrite~ x 120;
#X obj 124 241 r~ fb;
#X obj 209 275 s~ fb;
#X obj 440 -21 loadbang;
#X obj 262 62 *~ 12;
#X obj 440 -1 t b b;
#X obj 90 17 wrap~;
#X obj 74 -10 -~ 0.5;
#X obj 90 38 -~ 0.5;
#X obj 74 60 -~;
#X obj 106 177 wrap~;
#X obj 90 149 -~ 0.5;
#X obj 106 198 -~ 0.5;
#X obj 90 222 -~;
#X obj 74 248 *~;
#X obj 90 127 phasor~;
#X obj 74 -33 phasor~ 467.1;
#X obj 90 107 +~ 277;
#X obj 262 84 +~ 1;
#X obj 90 87 *~ 6500;
#X obj 262 107 +~ 12;
#X obj 281 139 +~ 12;
#X obj 262 36 sig~ 1;
#X obj 209 251 *~ 0.1;
#X obj 235 194 *~ 0.3;
#X obj 272 534 rev3~ 100 95 5000 1;
#X floatatom 178 20 5 0 0 0 - - -;
#X obj 490 327 noise~;
#X floatatom 491 429 5 0 0 0 - - -;
#X obj 271 707 throw~ u-all-l;
#X obj 374 706 throw~ u-all-r;
#X obj 276 613 *~;
#X obj 314 616 *~;
#X obj 426 551 line~;
#X floatatom 427 504 5 0 0 0 - - -;
#X obj 426 478 r g11;
#X floatatom 547 292 5 0 0 0 - - -;
#X obj 546 266 r g11-1;
#X obj 490 358 *~ 0;
#X obj 272 508 *~ 6;
#X obj 498 498 r g11-2;
#X obj 491 450 expr $f1*60+100;
#X obj 490 382 unsig~ 20;
#X obj 490 409 abs;
#X obj 677 397 r g11-3;
#X floatatom 677 420 5 0 0 0 - - -;
#X obj 605 475 metro 100;
#X obj 605 451 tgl 15 0 empty empty empty 17 7 0 10 -262144 -1 -1 1
1;
#X obj 606 428 loadbang;
#X obj 278 648 *~;
#X obj 316 651 *~;
#X obj 604 498 t b b;
#X obj 601 529 randomF 1;
#X obj 642 550 randomF 1;
#X obj 599 576 t f b;
#X obj 647 578 t f b;
#X msg 711 491 set \$1;
#X msg 627 604 89.8936;
#X msg 671 604 89.8936;
#X obj 672 445 k_range 1 0 50 300;
#X obj 598 640 line~;
#X obj 643 639 line~;
#X msg 427 529 \$1 10000;
#X obj 269 679 *~ 0.25;
#X obj 335 675 *~ 0.25;
#X floatatom 509 568 5 0 0 0 - - -;
#X obj 313 571 *~ 0;
#X obj 275 568 *~ 0;
#X connect 0 0 1 0;
#X connect 0 0 24 1;
#X connect 1 0 2 0;
#X connect 1 0 23 1;
#X connect 2 0 3 0;
#X connect 2 0 22 1;
#X connect 3 0 5 0;
#X connect 3 0 21 1;
#X connect 4 0 0 0;
#X connect 4 0 25 1;
#X connect 5 0 6 0;
#X connect 5 0 20 1;
#X connect 6 0 7 0;
#X connect 6 0 19 1;
#X connect 7 0 8 0;
#X connect 7 0 18 1;
#X connect 8 0 10 0;
#X connect 8 0 17 1;
#X connect 9 0 14 0;
#X connect 9 0 15 0;
#X connect 9 0 16 0;
#X connect 9 0 17 0;
#X connect 9 0 18 0;
#X connect 9 0 19 0;
#X connect 9 0 20 0;
#X connect 9 0 21 0;
#X connect 9 0 22 0;
#X connect 9 0 23 0;
#X connect 9 0 24 0;
#X connect 9 0 25 0;
#X connect 10 0 11 0;
#X connect 10 0 16 1;
#X connect 11 0 12 0;
#X connect 11 0 15 1;
#X connect 12 0 14 1;
#X connect 13 0 0 1;
#X connect 13 0 1 1;
#X connect 13 0 2 1;
#X connect 13 0 3 1;
#X connect 13 0 5 1;
#X connect 13 0 6 1;
#X connect 13 0 7 1;
#X connect 13 0 8 1;
#X connect 13 0 10 1;
#X connect 13 0 11 1;
#X connect 13 0 12 1;
#X connect 14 0 68 0;
#X connect 15 0 68 0;
#X connect 16 0 68 0;
#X connect 17 0 68 0;
#X connect 18 0 68 0;
#X connect 19 0 68 0;
#X connect 20 0 68 0;
#X connect 21 0 68 0;
#X connect 22 0 68 0;
#X connect 23 0 68 0;
#X connect 24 0 68 0;
#X connect 25 0 68 0;
#X connect 26 0 53 0;
#X connect 27 0 53 0;
#X connect 28 0 53 0;
#X connect 30 0 29 0;
#X connect 32 0 34 0;
#X connect 33 0 47 0;
#X connect 34 0 4 0;
#X connect 34 1 13 0;
#X connect 35 0 37 0;
#X connect 36 0 35 0;
#X connect 36 0 38 0;
#X connect 37 0 38 1;
#X connect 38 0 43 0;
#X connect 38 0 48 0;
#X connect 39 0 41 0;
#X connect 40 0 39 0;
#X connect 40 0 42 0;
#X connect 41 0 42 1;
#X connect 42 0 43 1;
#X connect 43 0 29 0;
#X connect 44 0 40 0;
#X connect 45 0 36 0;
#X connect 46 0 44 0;
#X connect 47 0 26 0;
#X connect 47 0 49 0;
#X connect 48 0 46 0;
#X connect 49 0 27 0;
#X connect 49 0 50 0;
#X connect 50 0 28 0;
#X connect 51 0 33 0;
#X connect 52 0 31 0;
#X connect 53 0 52 0;
#X connect 53 0 9 0;
#X connect 54 0 96 0;
#X connect 54 1 95 0;
#X connect 55 0 45 0;
#X connect 56 0 67 0;
#X connect 57 0 70 0;
#X connect 60 0 78 0;
#X connect 61 0 79 0;
#X connect 62 0 61 1;
#X connect 62 0 60 1;
#X connect 63 0 91 0;
#X connect 64 0 63 0;
#X connect 65 0 67 1;
#X connect 66 0 65 0;
#X connect 67 0 71 0;
#X connect 68 0 54 0;
#X connect 69 0 94 0;
#X connect 70 0 54 2;
#X connect 71 0 72 0;
#X connect 72 0 57 0;
#X connect 73 0 74 0;
#X connect 74 0 88 0;
#X connect 75 0 80 0;
#X connect 76 0 75 0;
#X connect 77 0 76 0;
#X connect 78 0 92 0;
#X connect 79 0 93 0;
#X connect 80 0 81 0;
#X connect 80 1 82 0;
#X connect 81 0 83 0;
#X connect 82 0 84 0;
#X connect 83 0 89 0;
#X connect 83 1 86 0;
#X connect 84 0 90 0;
#X connect 84 1 87 0;
#X connect 85 0 86 0;
#X connect 85 0 87 0;
#X connect 86 0 89 1;
#X connect 87 0 90 1;
#X connect 88 0 85 0;
#X connect 89 0 78 1;
#X connect 90 0 79 1;
#X connect 91 0 62 0;
#X connect 92 0 58 0;
#X connect 93 0 59 0;
#X connect 94 0 95 1;
#X connect 94 0 96 1;
#X connect 95 0 61 0;
#X connect 96 0 60 0;
