#N canvas 370 209 481 465 10;
#X obj 35 98 osc~;
#X obj 99 99 osc~;
#X obj 99 79 +~ 1390;
#X obj 177 98 osc~;
#X obj 177 79 +~ 2446;
#X obj 237 99 osc~;
#X obj 237 79 +~ 2586;
#X obj 35 78 +~ 1360;
#X obj 177 39 osc~ 47;
#X obj 99 38 osc~ 28;
#X obj 35 38 osc~ 32;
#X obj 66 128 *~ 0.3;
#X obj 205 128 *~ 0.7;
#X obj 99 58 *~ 200;
#X obj 35 58 *~ 80;
#X obj 236 40 osc~ 36;
#X obj 177 59 *~ 443;
#X obj 237 59 *~ 346;
#X obj 148 182 noise~;
#X obj 132 161 +~;
#X obj 144 290 clip~ -1 1;
#X obj 133 222 +~;
#X obj 144 433 throw~ u-all-l;
#X obj 237 432 throw~ u-all-r;
#X obj 279 196 r g10;
#X obj 145 390 *~;
#X obj 267 322 line~;
#X obj 362 233 r g10-1;
#X floatatom 191 230 5 0 0 0 - - -;
#X obj 361 262 k_range 0 1 1 0;
#X obj 318 174 r g10-3;
#X msg 270 294 \$1 10000;
#X obj 145 312 hip~ 500;
#X obj 148 202 hip~ 800;
#X obj 95 263 bp~ 1100 7;
#X obj 173 263 bp~ 2000 7;
#X obj 144 367 *~ 0.7;
#X msg 361 290 \$1 2000;
#X obj 364 318 line;
#X msg 380 170 \$1 2000;
#X obj 383 198 line;
#X obj 297 233 * 0.1;
#X obj 297 259 + 0.025;
#X obj 145 339 *~ 0;
#X connect 0 0 11 0;
#X connect 1 0 11 0;
#X connect 2 0 1 0;
#X connect 3 0 12 0;
#X connect 4 0 3 0;
#X connect 5 0 12 0;
#X connect 6 0 5 0;
#X connect 7 0 0 0;
#X connect 8 0 16 0;
#X connect 9 0 13 0;
#X connect 10 0 14 0;
#X connect 11 0 19 0;
#X connect 12 0 19 1;
#X connect 13 0 2 0;
#X connect 14 0 7 0;
#X connect 15 0 17 0;
#X connect 16 0 4 0;
#X connect 17 0 6 0;
#X connect 18 0 33 0;
#X connect 19 0 21 0;
#X connect 20 0 32 0;
#X connect 21 0 34 0;
#X connect 21 0 35 0;
#X connect 24 0 31 0;
#X connect 25 0 22 0;
#X connect 25 0 23 0;
#X connect 26 0 25 1;
#X connect 27 0 29 0;
#X connect 28 0 34 2;
#X connect 28 0 35 2;
#X connect 29 0 37 0;
#X connect 30 0 39 0;
#X connect 31 0 26 0;
#X connect 32 0 43 0;
#X connect 33 0 21 1;
#X connect 34 0 20 0;
#X connect 35 0 20 0;
#X connect 36 0 25 0;
#X connect 37 0 38 0;
#X connect 38 0 28 0;
#X connect 39 0 40 0;
#X connect 40 0 41 0;
#X connect 41 0 42 0;
#X connect 42 0 43 1;
#X connect 43 0 36 0;
