#N canvas 479 101 902 689 10;
#X obj 92 21 osc~;
#X obj 156 22 osc~;
#X obj 156 2 +~ 1390;
#X obj 167 135 osc~;
#X obj 167 116 +~ 2446;
#X obj 227 136 osc~;
#X obj 227 116 +~ 2586;
#X obj 92 1 +~ 1360;
#X obj 167 76 osc~ 47;
#X obj 156 -39 osc~ 28;
#X obj 92 -39 osc~ 32;
#X obj 123 51 *~ 0.3;
#X obj 195 165 *~ 0.7;
#X obj 156 -19 *~ 200;
#X obj 92 -19 *~ 80;
#X obj 226 77 osc~ 36;
#X obj 167 96 *~ 443;
#X obj 227 96 *~ 346;
#X obj 140 215 noise~;
#X obj 123 198 +~;
#X obj 134 327 clip~ -1 1;
#X obj 123 259 +~;
#X obj 134 470 throw~ u-all-l;
#X obj 227 469 throw~ u-all-r;
#X obj 260 232 r g10;
#X obj 134 428 *~;
#X obj 260 359 line~;
#X obj 352 270 r g10-1;
#X floatatom 220 271 5 0 0 0 - - -;
#X obj 352 325 k_range 0 1 1 0;
#X obj 317 61 r g10-3;
#X obj 85 300 bp~ 1100 7;
#X obj 163 300 bp~ 2000 7;
#X msg 352 353 \$1 2000;
#X obj 352 381 line;
#X obj 370 235 line;
#X floatatom 317 88 5 0 0 0 - - -;
#X floatatom 352 298 5 0 0 0 - - -;
#X obj 370 160 r g10-2;
#X floatatom 370 184 5 0 0 0 - - -;
#X obj 317 114 k_range 0 1 800 6000;
#X obj 352 404 * 7;
#X floatatom 209 210 5 0 0 0 - - -;
#X obj 140 239 bp~ 100 2;
#X msg 236 -49 32 28 47 36;
#X obj 236 -25 unpack f f f f;
#X obj 13 201 unpack f f;
#X msg 13 177 1100 2000;
#X msg 32 157 700 1300;
#X obj 134 403 *~;
#X obj 45 406 sig~ 0.5;
#X obj 236 -92 sel 0 1;
#X obj 236 -113 r type;
#X obj 13 137 sel 0 1;
#X obj 13 116 r type;
#X obj -14 295 sel 0 1;
#X obj -14 274 r type;
#X obj -6 369 unpack f f;
#X obj 438 -8 s type;
#X obj 438 -34 tgl 15 0 empty empty empty 17 7 0 10 -262144 -1 -1 1
1;
#X obj -27 453 *~ 0;
#X obj 45 457 *~ 1;
#X msg -14 318 0 1;
#X msg 5 342 1 0;
#X obj 260 267 tgl 15 0 empty empty empty 17 7 0 10 -262144 -1 -1 1
1;
#X obj 438 -71 r g10-4;
#X obj -27 403 osc~ 4;
#X obj 407 17 sel 1;
#X obj 407 66 unpack f f f;
#X obj -178 3 noise~;
#X obj -115 299 *~;
#X obj -165 267 *~;
#X obj -178 185 *~ 0.8;
#X obj -165 291 *~ 0.2;
#X obj -165 234 ead~ 1 800;
#X obj -363 111 *~ 0.1;
#X obj -153 117 bp~ 700 10;
#X obj -178 83 bp~ 2500 4;
#X obj -115 267 ead~ 3 50;
#X obj -363 84 lop~ 8000;
#X obj -178 43 hip~ 300;
#X obj -73 151 bng 15 250 50 0 empty empty empty 17 7 0 10 -262144
-1 -1;
#X obj -73 49 r g10-4;
#X obj -73 80 tgl 15 0 empty empty empty 17 7 0 10 -262144 -1 -1 1
1;
#X obj -115 343 bp~ 1500 2;
#X obj -73 123 k_count 1 16;
#X obj -73 173 t b b b;
#X msg 254 -71 55 67 83 71;
#X obj -121 26 random 4;
#X obj -265 114 bp~ 1300 10;
#X obj -256 40 random 4;
#X obj -256 65 + 6;
#X obj -96 4 + 7;
#X obj -96 -21 random 3;
#X msg 407 44 0.2 0.6 0.15;
#X msg 370 207 \$1 3000;
#X obj -27 426 *~ 0.3;
#X msg 260 331 \$1 10000;
#X msg 220 413 \$1 100;
#X obj 220 440 line~;
#X obj 134 449 *~;
#X obj 287 270 * 0.2;
#X obj -115 367 *~ 1.4;
#X obj -59 300 + 1;
#X obj -59 249 random 3;
#X obj 134 350 hip~ 500;
#X obj -73 100 metro 125;
#X connect 0 0 11 0;
#X connect 1 0 11 0;
#X connect 2 0 1 0;
#X connect 3 0 12 0;
#X connect 4 0 3 0;
#X connect 5 0 12 0;
#X connect 6 0 5 0;
#X connect 7 0 0 0;
#X connect 8 0 16 0;
#X connect 9 0 13 0;
#X connect 10 0 14 0;
#X connect 11 0 19 0;
#X connect 12 0 19 1;
#X connect 13 0 2 0;
#X connect 14 0 7 0;
#X connect 15 0 17 0;
#X connect 16 0 4 0;
#X connect 17 0 6 0;
#X connect 18 0 43 0;
#X connect 19 0 21 0;
#X connect 20 0 105 0;
#X connect 21 0 31 0;
#X connect 21 0 32 0;
#X connect 24 0 64 0;
#X connect 25 0 100 0;
#X connect 26 0 25 1;
#X connect 27 0 37 0;
#X connect 28 0 31 2;
#X connect 28 0 32 2;
#X connect 29 0 33 0;
#X connect 30 0 36 0;
#X connect 31 0 20 0;
#X connect 32 0 20 0;
#X connect 33 0 34 0;
#X connect 34 0 41 0;
#X connect 35 0 96 1;
#X connect 35 0 101 0;
#X connect 36 0 40 0;
#X connect 37 0 29 0;
#X connect 38 0 39 0;
#X connect 39 0 95 0;
#X connect 40 0 42 0;
#X connect 41 0 28 0;
#X connect 42 0 43 1;
#X connect 43 0 21 1;
#X connect 44 0 45 0;
#X connect 45 0 10 0;
#X connect 45 1 9 0;
#X connect 45 2 8 0;
#X connect 45 3 15 0;
#X connect 46 0 31 1;
#X connect 46 1 32 1;
#X connect 47 0 46 0;
#X connect 48 0 46 0;
#X connect 49 0 25 0;
#X connect 50 0 61 0;
#X connect 51 0 44 0;
#X connect 51 1 87 0;
#X connect 52 0 51 0;
#X connect 53 0 47 0;
#X connect 53 1 48 0;
#X connect 54 0 53 0;
#X connect 55 0 62 0;
#X connect 55 1 63 0;
#X connect 56 0 55 0;
#X connect 57 0 60 1;
#X connect 57 1 61 1;
#X connect 59 0 58 0;
#X connect 59 0 67 0;
#X connect 60 0 49 1;
#X connect 61 0 49 1;
#X connect 62 0 57 0;
#X connect 63 0 57 0;
#X connect 64 0 97 0;
#X connect 64 0 83 0;
#X connect 65 0 59 0;
#X connect 66 0 96 0;
#X connect 67 0 94 0;
#X connect 68 0 36 0;
#X connect 68 2 37 0;
#X connect 69 0 79 0;
#X connect 69 0 80 0;
#X connect 70 0 84 0;
#X connect 71 0 70 1;
#X connect 71 0 73 0;
#X connect 72 0 71 1;
#X connect 73 0 84 0;
#X connect 74 0 71 0;
#X connect 75 0 72 0;
#X connect 76 0 72 0;
#X connect 77 0 72 0;
#X connect 78 0 70 0;
#X connect 79 0 75 0;
#X connect 80 0 76 0;
#X connect 80 0 77 0;
#X connect 80 0 89 0;
#X connect 81 0 86 0;
#X connect 82 0 83 0;
#X connect 83 0 106 0;
#X connect 84 0 102 0;
#X connect 85 0 81 0;
#X connect 86 0 74 0;
#X connect 86 1 78 0;
#X connect 86 2 88 0;
#X connect 86 2 90 0;
#X connect 86 2 93 0;
#X connect 86 2 104 0;
#X connect 87 0 45 0;
#X connect 88 0 77 2;
#X connect 89 0 72 0;
#X connect 90 0 91 0;
#X connect 91 0 89 2;
#X connect 92 0 76 2;
#X connect 93 0 92 0;
#X connect 94 0 68 0;
#X connect 95 0 35 0;
#X connect 96 0 60 0;
#X connect 97 0 26 0;
#X connect 98 0 99 0;
#X connect 99 0 100 1;
#X connect 100 0 22 0;
#X connect 100 0 23 0;
#X connect 101 0 98 0;
#X connect 102 0 25 0;
#X connect 103 0 84 2;
#X connect 104 0 103 0;
#X connect 105 0 49 0;
#X connect 106 0 85 0;
