#N canvas 158 47 842 726 10;
#X floatatom 247 435 5 0 0 0 - - -;
#X floatatom 418 188 5 0 0 0 - - -;
#X floatatom 346 321 5 0 0 0 - - -;
#X obj 247 412 r g9;
#X obj 346 290 r g9-2;
#X obj 418 163 r g9-3;
#X floatatom 368 106 5 0 0 0 - - -;
#X obj 367 83 r g9-1;
#X obj 139 635 throw~ u-all-l;
#X obj 236 637 throw~ u-all-r;
#N canvas 0 25 1268 653 Oupapo3 1;
#X obj 121 56 inlet~;
#X obj 179 55 inlet~;
#X text 151 34 audio;
#X text 168 628 audio;
#X obj 138 605 outlet~;
#X obj 196 604 outlet~;
#X obj 422 443 *~;
#X obj 487 443 *~;
#X obj 571 184 loadbang;
#X obj 635 322 s bang;
#X obj 653 109 r bang;
#X obj 653 144 random 2000;
#X obj 474 165 bng 15 250 50 0 empty empty empty 17 7 0 10 -262144
-1 -1;
#X floatatom 629 476 5 1 1000 1 attack_time - -;
#X floatatom 646 499 5 1 1000 1 decay_time - -;
#X floatatom 706 538 5 1 1000 1 release_time - -;
#X obj 588 309 bng 15 250 50 0 empty empty empty 17 7 0 10 -258699
-1 -1;
#X msg 607 457 127;
#X msg 552 481 0;
#X obj 552 456 del 700;
#N canvas 0 22 450 300 adsr 0;
#X obj 88 97 sel 0;
#X obj 278 70 / 127;
#X obj 45 30 inlet;
#X obj 382 21 inlet;
#X obj 582 34 loadbang;
#X obj 582 84 unpack f f f f;
#X obj 431 20 inlet;
#X obj 476 20 inlet;
#X obj 523 20 inlet;
#X obj 161 444 outlet~;
#X text 154 52 TODO: handle original velocity better;
#X obj 306 131 * 0.5;
#X obj 96 166 f 250;
#X obj 728 441 outlet release_done;
#X obj 105 129 t b b;
#X msg 512 317 1;
#X obj 278 93 t f f b;
#X msg 488 262 0;
#X obj 262 447 outlet attack_started;
#X obj 457 229 t b b;
#X obj 123 322 vline~;
#X msg 97 246 0 \$1;
#X obj 258 186 pack f f 250 250;
#X msg 280 259 \$3 \$4;
#X obj 285 316 delay;
#X obj 123 198 t f f;
#X obj 283 286 +;
#X obj 491 440 outlet attack+decay_done;
#X msg 143 284 \$1 \$3 \, \$2 \$4 \$3;
#X obj 582 60 iemlib/dollarg;
#X obj 436 370 zexy/demultiplex 0 1;
#X obj 175 379 iemlib/fade~ _sin;
#X connect 0 0 14 0;
#X connect 0 1 1 0;
#X connect 1 0 16 0;
#X connect 2 0 0 0;
#X connect 3 0 22 2;
#X connect 4 0 29 0;
#X connect 5 0 22 2;
#X connect 5 1 22 3;
#X connect 5 2 11 1;
#X connect 5 3 12 1;
#X connect 6 0 22 3;
#X connect 7 0 11 1;
#X connect 8 0 12 1;
#X connect 11 0 22 1;
#X connect 12 0 25 0;
#X connect 14 0 12 0;
#X connect 14 1 15 0;
#X connect 15 0 30 1;
#X connect 16 0 22 0;
#X connect 16 1 11 0;
#X connect 16 2 19 0;
#X connect 17 0 30 1;
#X connect 19 0 18 0;
#X connect 19 1 17 0;
#X connect 20 0 31 0;
#X connect 21 0 20 0;
#X connect 22 0 28 0;
#X connect 22 0 23 0;
#X connect 23 0 26 0;
#X connect 24 0 30 0;
#X connect 25 0 24 0;
#X connect 25 1 21 0;
#X connect 26 0 24 0;
#X connect 28 0 20 0;
#X connect 29 0 5 0;
#X connect 30 0 27 0;
#X connect 30 1 13 0;
#X connect 31 0 9 0;
#X restore 552 575 pd adsr _ _ _ _ _ __;
#X obj 627 400 random 250;
#X obj 729 439 random 250;
#X obj 816 435 random 250;
#X text 763 313 comment;
#X obj 577 351 t b b b b b;
#X obj 577 248 metro 200000;
#X obj 636 436 + 1000;
#N canvas 0 25 1272 692 kick 0;
#X obj 848 474 +~;
#X obj 872 334 bng 15 100 50 0 empty empty empty 17 7 0 10 -262144
-1 -1;
#X obj 795 550 *~;
#X obj 783 440 noise~;
#X obj 812 499 +~;
#X obj 783 466 vcf~ 10;
#X obj 695 438 +~;
#X obj 794 524 +~;
#X obj 872 309 inlet;
#N canvas 0 25 1272 692 env 0;
#X obj 289 341 pack 1 f;
#X obj 304 312 delay;
#X obj 304 370 pack 0 f;
#X obj 289 400 line~;
#X obj 339 282 + 3;
#X obj 292 226 inlet bang;
#X obj 311 456 outlet~;
#X obj 290 427 expr~ pow($v1 \, 4);
#X obj 405 264 + 1;
#X obj 404 239 * 300;
#X obj 455 325 + 1;
#X obj 454 300 * 300;
#X obj 486 189 tof/param /decay 0.2 /g slider 0 1;
#X obj 435 152 tof/param /attack 0.2 /g slider 0 1;
#X connect 0 0 3 0;
#X connect 1 0 2 0;
#X connect 2 0 3 0;
#X connect 3 0 7 0;
#X connect 4 0 1 1;
#X connect 5 0 0 0;
#X connect 5 0 1 0;
#X connect 7 0 6 0;
#X connect 8 0 4 0;
#X connect 8 0 0 1;
#X connect 9 0 8 0;
#X connect 10 0 2 1;
#X connect 11 0 10 0;
#X connect 12 0 11 0;
#X connect 13 0 9 0;
#X restore 872 354 pd env;
#X obj 808 352 /~ 2;
#X obj 807 408 +~;
#X obj 827 379 *~;
#X obj 868 421 osc~ 80;
#X obj 849 447 osc~ 30;
#X obj 696 463 *~ 0.05;
#X obj 713 386 phasor~ 34;
#X obj 696 411 phasor~ 45;
#X obj 808 305 * 500;
#X obj 808 328 + 5;
#X obj 766 615 outlet~;
#X obj 804 186 loadbang;
#X msg 797 229 45;
#X connect 0 0 4 1;
#X connect 1 0 9 0;
#X connect 2 0 20 0;
#X connect 3 0 5 0;
#X connect 4 0 7 1;
#X connect 5 0 4 0;
#X connect 6 0 15 0;
#X connect 7 0 2 0;
#X connect 8 0 1 0;
#X connect 9 0 2 1;
#X connect 9 0 12 1;
#X connect 10 0 11 0;
#X connect 10 0 12 0;
#X connect 11 0 5 1;
#X connect 12 0 11 1;
#X connect 13 0 0 1;
#X connect 14 0 0 0;
#X connect 15 0 7 0;
#X connect 16 0 6 1;
#X connect 17 0 6 0;
#X connect 18 0 19 0;
#X connect 19 0 10 0;
#X connect 21 0 22 0;
#X connect 22 0 18 0;
#X restore 475 396 pd kick;
#X obj 422 480 freeverb~;
#X obj 652 196 + 10000;
#X connect 0 0 4 0;
#X connect 1 0 5 0;
#X connect 6 0 29 0;
#X connect 7 0 29 1;
#X connect 8 0 26 0;
#X connect 10 0 11 0;
#X connect 11 0 30 0;
#X connect 12 0 26 0;
#X connect 13 0 20 1;
#X connect 14 0 20 2;
#X connect 15 0 20 4;
#X connect 16 0 25 0;
#X connect 16 0 28 0;
#X connect 17 0 20 0;
#X connect 18 0 20 0;
#X connect 19 0 18 0;
#X connect 20 0 7 1;
#X connect 20 0 6 1;
#X connect 21 0 27 0;
#X connect 22 0 14 0;
#X connect 23 0 15 0;
#X connect 25 0 19 0;
#X connect 25 1 17 0;
#X connect 25 2 21 0;
#X connect 25 3 22 0;
#X connect 25 4 23 0;
#X connect 26 0 9 0;
#X connect 26 0 16 0;
#X connect 27 0 13 0;
#X connect 28 0 6 0;
#X connect 28 0 7 0;
#X connect 29 0 4 0;
#X connect 29 1 5 0;
#X connect 30 0 26 1;
#X restore 153 277 pd Oupapo3;
#N canvas 0 25 527 608 Oupapo6 0;
#X obj 121 56 inlet~;
#X obj 179 55 inlet~;
#X text 151 34 audio;
#X text 149 599 audio;
#X obj 121 577 outlet~;
#X obj 179 576 outlet~;
#X obj 341 229 +~;
#X obj 364 191 osc~ 81;
#X obj 311 204 osc~ 83;
#N canvas 0 25 1272 717 granular 0;
#N canvas 175 62 1105 717 process 0;
#X obj 107 314 phasor~;
#X obj 107 391 *~ -1;
#X obj 108 416 +~ 1;
#X obj 125 561 sig~ 1;
#X obj 190 560 cos~;
#X obj 126 585 -~;
#X obj 127 610 *~ 0.5;
#X obj 106 639 *~;
#X obj 142 473 samphold~;
#X obj 108 500 *~;
#X obj 143 445 sig~;
#X floatatom 135 260 10 0 0 0 - - -;
#X floatatom 266 218 5 0 0 0 - - -;
#X obj 249 253 t b f;
#X obj 229 371 / 44.1;
#X obj 342 392 *~ -1;
#X obj 343 417 +~ 1;
#X obj 360 562 sig~ 1;
#X obj 424 562 cos~;
#X obj 361 586 -~;
#X obj 362 611 *~ 0.5;
#X obj 343 636 *~;
#X obj 377 474 samphold~;
#X obj 343 501 *~;
#X obj 378 446 sig~;
#X obj 339 344 +~ 0.5;
#X obj 339 366 wrap~;
#X obj 144 288 expr (pow(2 \, ($f2/12)) - 1) * 44100/$f1;
#X obj 102 97 vsl 15 128 100 30000 0 0 empty empty empty 0 -8 0 8 -262144
-1 -1 0 1;
#X obj 102 235 t b f;
#X obj 266 138 vsl 15 73 -36 36 0 0 empty empty empty 0 -8 0 8 -262144
-1 -1 0 1;
#X obj 484 348 *~ 0;
#X obj 517 107 vsl 15 128 0.01 1 1 0 empty empty empty 0 -8 0 8 -262144
-1 -1 0 1;
#X obj 517 267 sel 0.01;
#X msg 515 294 0;
#X floatatom 515 323 5 0 0 0 - - -;
#X text 520 79 feedback;
#X text 269 114 transposition;
#X text 37 71 window-width (samples);
#X obj 494 376 inlet~;
#X obj 105 698 outlet~;
#X obj 586 46 inlet;
#X obj 675 46 inlet;
#X obj 629 46 inlet;
#X obj 485 408 delwrite~ \$0-delay 5000;
#X obj 344 527 vd~ \$0-delay;
#X obj 109 526 vd~ \$0-delay;
#X connect 0 0 1 0;
#X connect 0 0 4 0;
#X connect 0 0 8 1;
#X connect 0 0 25 0;
#X connect 1 0 2 0;
#X connect 2 0 9 0;
#X connect 3 0 5 0;
#X connect 4 0 5 1;
#X connect 5 0 6 0;
#X connect 6 0 7 1;
#X connect 7 0 31 0;
#X connect 7 0 40 0;
#X connect 8 0 9 1;
#X connect 9 0 46 0;
#X connect 10 0 8 0;
#X connect 11 0 27 0;
#X connect 12 0 13 0;
#X connect 13 0 11 0;
#X connect 13 1 27 1;
#X connect 14 0 10 0;
#X connect 14 0 24 0;
#X connect 15 0 16 0;
#X connect 16 0 23 0;
#X connect 17 0 19 0;
#X connect 18 0 19 1;
#X connect 19 0 20 0;
#X connect 20 0 21 1;
#X connect 21 0 31 0;
#X connect 21 0 40 0;
#X connect 22 0 23 1;
#X connect 23 0 45 0;
#X connect 24 0 22 0;
#X connect 25 0 26 0;
#X connect 26 0 15 0;
#X connect 26 0 22 1;
#X connect 26 0 18 0;
#X connect 27 0 0 0;
#X connect 28 0 29 0;
#X connect 29 0 12 0;
#X connect 29 1 14 0;
#X connect 29 1 11 0;
#X connect 30 0 12 0;
#X connect 31 0 44 0;
#X connect 32 0 33 0;
#X connect 33 0 34 0;
#X connect 33 1 35 0;
#X connect 34 0 35 0;
#X connect 35 0 31 1;
#X connect 39 0 44 0;
#X connect 41 0 29 0;
#X connect 42 0 33 0;
#X connect 43 0 12 0;
#X connect 45 0 21 0;
#X connect 46 0 7 0;
#X restore 158 128 pd process;
#X obj 66 75 inlet~;
#X obj 110 270 outlet~;
#X obj 161 248 outlet~;
#X obj 111 76 inlet~;
#X obj 546 248 inlet params;
#X obj 546 294 print PARAM_NOTFOUND;
#X obj 220 262 line~;
#X msg 220 241 \$1 5;
#X obj 112 218 tof/crossfade~ 2;
#N canvas 292 102 1105 738 process 0;
#X obj 107 314 phasor~;
#X obj 107 391 *~ -1;
#X obj 108 416 +~ 1;
#X obj 125 561 sig~ 1;
#X obj 190 560 cos~;
#X obj 126 585 -~;
#X obj 127 610 *~ 0.5;
#X obj 106 639 *~;
#X obj 142 473 samphold~;
#X obj 108 500 *~;
#X obj 143 445 sig~;
#X floatatom 135 260 10 0 0 0 - - -;
#X floatatom 266 218 5 0 0 0 - - -;
#X obj 249 253 t b f;
#X obj 229 371 / 44.1;
#X obj 342 392 *~ -1;
#X obj 343 417 +~ 1;
#X obj 360 562 sig~ 1;
#X obj 424 562 cos~;
#X obj 361 586 -~;
#X obj 362 611 *~ 0.5;
#X obj 343 636 *~;
#X obj 377 474 samphold~;
#X obj 343 501 *~;
#X obj 378 446 sig~;
#X obj 339 344 +~ 0.5;
#X obj 339 366 wrap~;
#X obj 144 288 expr (pow(2 \, ($f2/12)) - 1) * 44100/$f1;
#X obj 102 97 vsl 15 128 100 30000 0 0 empty empty empty 0 -8 0 8 -262144
-1 -1 0 1;
#X obj 102 235 t b f;
#X obj 266 138 vsl 15 73 -36 36 0 0 empty empty empty 0 -8 0 8 -262144
-1 -1 0 1;
#X obj 484 348 *~ 0;
#X obj 517 107 vsl 15 128 0.01 1 1 0 empty empty empty 0 -8 0 8 -262144
-1 -1 0 1;
#X obj 517 267 sel 0.01;
#X msg 515 294 0;
#X floatatom 515 323 5 0 0 0 - - -;
#X text 520 79 feedback;
#X text 269 114 transposition;
#X text 37 71 window-width (samples);
#X obj 494 376 inlet~;
#X obj 105 698 outlet~;
#X obj 586 46 inlet;
#X obj 675 46 inlet;
#X obj 629 46 inlet;
#X obj 485 408 delwrite~ \$0-delayr 5000;
#X obj 344 527 vd~ \$0-delayr;
#X obj 109 526 vd~ \$0-delayr;
#X connect 0 0 1 0;
#X connect 0 0 4 0;
#X connect 0 0 8 1;
#X connect 0 0 25 0;
#X connect 1 0 2 0;
#X connect 2 0 9 0;
#X connect 3 0 5 0;
#X connect 4 0 5 1;
#X connect 5 0 6 0;
#X connect 6 0 7 1;
#X connect 7 0 31 0;
#X connect 7 0 40 0;
#X connect 8 0 9 1;
#X connect 9 0 46 0;
#X connect 10 0 8 0;
#X connect 11 0 27 0;
#X connect 12 0 13 0;
#X connect 13 0 11 0;
#X connect 13 1 27 1;
#X connect 14 0 10 0;
#X connect 14 0 24 0;
#X connect 15 0 16 0;
#X connect 16 0 23 0;
#X connect 17 0 19 0;
#X connect 18 0 19 1;
#X connect 19 0 20 0;
#X connect 20 0 21 1;
#X connect 21 0 31 0;
#X connect 21 0 40 0;
#X connect 22 0 23 1;
#X connect 23 0 45 0;
#X connect 24 0 22 0;
#X connect 25 0 26 0;
#X connect 26 0 15 0;
#X connect 26 0 22 1;
#X connect 26 0 18 0;
#X connect 27 0 0 0;
#X connect 28 0 29 0;
#X connect 29 0 12 0;
#X connect 29 1 14 0;
#X connect 29 1 11 0;
#X connect 30 0 12 0;
#X connect 31 0 44 0;
#X connect 32 0 33 0;
#X connect 33 0 34 0;
#X connect 33 1 35 0;
#X connect 34 0 35 0;
#X connect 35 0 31 1;
#X connect 39 0 44 0;
#X connect 41 0 29 0;
#X connect 42 0 33 0;
#X connect 43 0 12 0;
#X connect 45 0 21 0;
#X connect 46 0 7 0;
#X restore 238 128 pd process;
#X obj 546 270 tof/param route;
#X obj 344 338 iemguts/propertybang;
#X obj 341 364 tof/param gui;
#X obj 220 219 tof/param /wet 1 /g slider 0 1;
#X obj 410 8 tof/param /windowleft 13916 /g nbx;
#X obj 439 68 tof/param /windowright 15273 /g nbx;
#X obj 419 26 tof/param /transpositionleft 149 /g nbx;
#X obj 450 85 tof/param /transpositionright 109 /g nbx;
#X obj 429 48 tof/param /feedbackleft 0.85 /g slider 0 1;
#X obj 458 104 tof/param /feedbackright 0.45 /g slider 0 1;
#X connect 0 0 9 2;
#X connect 1 0 9 0;
#X connect 1 0 0 0;
#X connect 4 0 9 1;
#X connect 4 0 10 0;
#X connect 5 0 11 0;
#X connect 7 0 9 4;
#X connect 8 0 7 0;
#X connect 9 0 2 0;
#X connect 9 1 3 0;
#X connect 10 0 9 3;
#X connect 11 0 6 0;
#X connect 12 0 13 0;
#X connect 14 0 8 0;
#X connect 15 0 0 1;
#X connect 16 0 10 1;
#X connect 17 0 0 2;
#X connect 18 0 10 2;
#X connect 19 0 0 3;
#X connect 20 0 10 3;
#X restore 216 281 pd granular;
#X obj 320 447 *~ 0.1;
#N canvas 0 22 1272 714 reverb 0;
#N canvas 549 339 890 407 processing 0;
#X obj 420 84 inlet;
#X obj 420 190 pack 0 50;
#X obj 75 250 outlet~;
#X obj 144 250 outlet~;
#X obj 420 141 clip 0 100;
#X obj 212 250 outlet~;
#X obj 280 250 outlet~;
#X obj 605 172 clip 0 100;
#X obj 518 84 inlet;
#X obj 596 88 inlet;
#X obj 605 195 f;
#X obj 605 218 * 0.01;
#X obj 605 242 pack 0 50;
#X text 433 275 control inlets:;
#X obj 516 221 s \$0-lop;
#N canvas 170 57 919 783 doit 0;
#X obj 218 386 *~;
#X obj 341 396 *~;
#X obj 267 389 *~;
#X obj 305 392 *~;
#X obj 28 175 lop~;
#X obj 27 204 -~;
#X obj 27 291 *~;
#X obj 16 319 +~;
#X obj 75 182 lop~;
#X obj 76 214 -~;
#X obj 77 294 *~;
#X obj 67 318 +~;
#X obj 124 187 lop~;
#X obj 124 214 -~;
#X obj 125 297 *~;
#X obj 116 322 +~;
#X obj 176 191 lop~;
#X obj 175 218 -~;
#X obj 175 301 *~;
#X obj 168 326 +~;
#X obj 15 372 *~;
#X obj 169 383 *~;
#X obj 67 376 *~;
#X obj 115 380 *~;
#X obj 207 160 r \$0-lop;
#X obj 183 246 r \$0-damp;
#X obj 183 271 line~;
#X obj 17 14 delread~ \$0-del1 10;
#X obj 117 56 delread~ \$0-del3 13.4567;
#X obj 68 35 delread~ \$0-del2 11.6356;
#X obj 171 77 delread~ \$0-del4 16.7345;
#X obj 524 407 *~;
#X obj 631 409 *~;
#X obj 560 408 *~;
#X obj 595 409 *~;
#X obj 377 399 *~;
#X obj 488 406 *~;
#X obj 414 402 *~;
#X obj 451 405 *~;
#X obj 654 354 line~;
#X obj 708 387 r \$0-fb;
#X obj 218 100 delread~ \$0-del5 20.1862;
#X obj 267 121 delread~ \$0-del6 25.7417;
#X obj 304 142 delread~ \$0-del7 31.4693;
#X obj 341 163 delread~ \$0-del8 38.2944;
#X obj 376 184 delread~ \$0-del9 46.6838;
#X obj 414 205 delread~ \$0-del10 55.4567;
#X obj 488 247 delread~ \$0-del12 76.8243;
#X obj 524 268 delread~ \$0-del13 88.5623;
#X obj 561 289 delread~ \$0-del14 101.278;
#X obj 595 310 delread~ \$0-del15 115.397;
#X obj 632 331 delread~ \$0-del16 130.502;
#X obj 25 346 inlet~;
#X obj 87 346 inlet~;
#X obj 69 440 +~;
#X obj 105 440 -~;
#X obj 141 440 +~;
#X obj 177 440 -~;
#X obj 214 440 +~;
#X obj 250 440 -~;
#X obj 286 440 +~;
#X obj 322 440 -~;
#X obj 359 440 +~;
#X obj 395 440 -~;
#X obj 431 440 +~;
#X obj 467 440 -~;
#X obj 504 440 +~;
#X obj 540 440 -~;
#X obj 576 440 +~;
#X obj 612 440 -~;
#X obj 69 474 +~;
#X obj 177 474 -~;
#X obj 105 474 +~;
#X obj 141 474 -~;
#X obj 214 474 +~;
#X obj 322 474 -~;
#X obj 250 474 +~;
#X obj 286 474 -~;
#X obj 359 474 +~;
#X obj 467 474 -~;
#X obj 395 474 +~;
#X obj 431 474 -~;
#X obj 504 474 +~;
#X obj 612 474 -~;
#X obj 540 474 +~;
#X obj 576 474 -~;
#X obj 69 518 +~;
#X obj 105 518 +~;
#X obj 322 518 -~;
#X obj 286 518 -~;
#X obj 141 518 +~;
#X obj 177 518 +~;
#X obj 214 518 -~;
#X obj 250 518 -~;
#X obj 360 518 +~;
#X obj 396 518 +~;
#X obj 613 518 -~;
#X obj 577 518 -~;
#X obj 432 518 +~;
#X obj 468 518 +~;
#X obj 505 518 -~;
#X obj 541 518 -~;
#X obj 70 575 +~;
#X obj 106 575 +~;
#X obj 469 575 -~;
#X obj 433 575 -~;
#X obj 142 575 +~;
#X obj 178 575 +~;
#X obj 361 575 -~;
#X obj 397 575 -~;
#X obj 215 575 +~;
#X obj 251 575 +~;
#X obj 287 575 +~;
#X obj 323 575 +~;
#X obj 614 575 -~;
#X obj 578 575 -~;
#X obj 506 575 -~;
#X obj 542 575 -~;
#X obj 628 606 outlet~;
#X obj 698 606 outlet~;
#X obj 768 607 outlet~;
#X obj 838 607 outlet~;
#X obj 451 226 delread~ \$0-del11 65.1755;
#X obj 614 629 delwrite~ \$0-del16 130.502;
#X obj 361 776 delwrite~ \$0-del9 46.6838;
#X obj 398 755 delwrite~ \$0-del10 55.4567;
#X obj 434 734 delwrite~ \$0-del11 65.1755;
#X obj 470 713 delwrite~ \$0-del12 76.8243;
#X obj 506 692 delwrite~ \$0-del13 88.5623;
#X obj 542 671 delwrite~ \$0-del14 101.278;
#X obj 579 650 delwrite~ \$0-del15 115.397;
#X obj 323 606 delwrite~ \$0-del8 38.2944;
#X obj 287 628 delwrite~ \$0-del7 31.4693;
#X obj 252 650 delwrite~ \$0-del6 25.7417;
#X obj 215 672 delwrite~ \$0-del5 20.1862;
#X obj 71 761 delwrite~ \$0-del1 10;
#X obj 106 737 delwrite~ \$0-del2 11.6356;
#X obj 141 715 delwrite~ \$0-del3 13.4567;
#X obj 179 693 delwrite~ \$0-del4 16.7345;
#X connect 0 0 58 0;
#X connect 0 0 59 0;
#X connect 1 0 60 1;
#X connect 1 0 61 1;
#X connect 2 0 58 1;
#X connect 2 0 59 1;
#X connect 3 0 60 0;
#X connect 3 0 61 0;
#X connect 4 0 5 0;
#X connect 5 0 6 0;
#X connect 6 0 7 1;
#X connect 7 0 20 0;
#X connect 8 0 9 0;
#X connect 9 0 10 0;
#X connect 10 0 11 1;
#X connect 11 0 22 0;
#X connect 12 0 13 0;
#X connect 13 0 14 0;
#X connect 14 0 15 1;
#X connect 15 0 23 0;
#X connect 16 0 17 0;
#X connect 17 0 18 0;
#X connect 18 0 19 1;
#X connect 19 0 21 0;
#X connect 20 0 54 0;
#X connect 20 0 55 0;
#X connect 21 0 56 1;
#X connect 21 0 57 1;
#X connect 22 0 55 1;
#X connect 22 0 54 1;
#X connect 23 0 56 0;
#X connect 23 0 57 0;
#X connect 24 0 16 1;
#X connect 24 0 12 1;
#X connect 24 0 8 1;
#X connect 24 0 4 1;
#X connect 25 0 26 0;
#X connect 26 0 18 1;
#X connect 26 0 14 1;
#X connect 26 0 10 1;
#X connect 26 0 6 1;
#X connect 27 0 4 0;
#X connect 27 0 5 1;
#X connect 27 0 7 0;
#X connect 28 0 15 0;
#X connect 28 0 12 0;
#X connect 28 0 13 1;
#X connect 29 0 8 0;
#X connect 29 0 9 1;
#X connect 29 0 11 0;
#X connect 30 0 19 0;
#X connect 30 0 17 1;
#X connect 30 0 16 0;
#X connect 31 0 66 0;
#X connect 31 0 67 0;
#X connect 32 0 68 1;
#X connect 32 0 69 1;
#X connect 33 0 66 1;
#X connect 33 0 67 1;
#X connect 34 0 68 0;
#X connect 34 0 69 0;
#X connect 35 0 62 0;
#X connect 35 0 63 0;
#X connect 36 0 64 1;
#X connect 36 0 65 1;
#X connect 37 0 62 1;
#X connect 37 0 63 1;
#X connect 38 0 64 0;
#X connect 38 0 65 0;
#X connect 39 0 2 1;
#X connect 39 0 0 1;
#X connect 39 0 3 1;
#X connect 39 0 1 1;
#X connect 39 0 21 1;
#X connect 39 0 23 1;
#X connect 39 0 22 1;
#X connect 39 0 20 1;
#X connect 39 0 35 1;
#X connect 39 0 38 1;
#X connect 39 0 36 1;
#X connect 39 0 31 1;
#X connect 39 0 33 1;
#X connect 39 0 34 1;
#X connect 39 0 32 1;
#X connect 39 0 37 1;
#X connect 40 0 39 0;
#X connect 41 0 0 0;
#X connect 42 0 2 0;
#X connect 43 0 3 0;
#X connect 44 0 1 0;
#X connect 45 0 35 0;
#X connect 46 0 37 0;
#X connect 47 0 36 0;
#X connect 48 0 31 0;
#X connect 49 0 33 0;
#X connect 50 0 34 0;
#X connect 51 0 32 0;
#X connect 52 0 20 0;
#X connect 53 0 22 0;
#X connect 54 0 70 0;
#X connect 54 0 73 0;
#X connect 55 0 72 0;
#X connect 55 0 71 0;
#X connect 56 0 70 1;
#X connect 56 0 73 1;
#X connect 57 0 72 1;
#X connect 57 0 71 1;
#X connect 58 0 74 0;
#X connect 58 0 77 0;
#X connect 59 0 76 0;
#X connect 59 0 75 0;
#X connect 60 0 74 1;
#X connect 60 0 77 1;
#X connect 61 0 76 1;
#X connect 61 0 75 1;
#X connect 62 0 78 0;
#X connect 62 0 81 0;
#X connect 63 0 80 0;
#X connect 63 0 79 0;
#X connect 64 0 78 1;
#X connect 64 0 81 1;
#X connect 65 0 80 1;
#X connect 65 0 79 1;
#X connect 66 0 82 0;
#X connect 66 0 85 0;
#X connect 67 0 84 0;
#X connect 67 0 83 0;
#X connect 68 0 82 1;
#X connect 68 0 85 1;
#X connect 69 0 84 1;
#X connect 69 0 83 1;
#X connect 70 0 86 0;
#X connect 70 0 92 0;
#X connect 71 0 91 0;
#X connect 71 0 88 0;
#X connect 72 0 87 0;
#X connect 72 0 93 0;
#X connect 73 0 90 0;
#X connect 73 0 89 0;
#X connect 74 0 86 1;
#X connect 74 0 92 1;
#X connect 75 0 91 1;
#X connect 75 0 88 1;
#X connect 76 0 87 1;
#X connect 76 0 93 1;
#X connect 77 0 90 1;
#X connect 77 0 89 1;
#X connect 78 0 94 0;
#X connect 78 0 100 0;
#X connect 79 0 99 0;
#X connect 79 0 96 0;
#X connect 80 0 95 0;
#X connect 80 0 101 0;
#X connect 81 0 98 0;
#X connect 81 0 97 0;
#X connect 82 0 94 1;
#X connect 82 0 100 1;
#X connect 83 0 99 1;
#X connect 83 0 96 1;
#X connect 84 0 95 1;
#X connect 84 0 101 1;
#X connect 85 0 98 1;
#X connect 85 0 97 1;
#X connect 86 0 102 0;
#X connect 86 0 108 0;
#X connect 87 0 103 0;
#X connect 87 0 109 0;
#X connect 88 0 113 0;
#X connect 88 0 114 0;
#X connect 89 0 112 0;
#X connect 89 0 115 0;
#X connect 90 0 106 0;
#X connect 90 0 105 0;
#X connect 91 0 107 0;
#X connect 91 0 104 0;
#X connect 92 0 110 0;
#X connect 92 0 116 0;
#X connect 93 0 111 0;
#X connect 93 0 117 0;
#X connect 94 0 108 1;
#X connect 94 0 102 1;
#X connect 95 0 109 1;
#X connect 95 0 103 1;
#X connect 96 0 114 1;
#X connect 96 0 113 1;
#X connect 97 0 115 1;
#X connect 97 0 112 1;
#X connect 98 0 105 1;
#X connect 98 0 106 1;
#X connect 99 0 104 1;
#X connect 99 0 107 1;
#X connect 100 0 116 1;
#X connect 100 0 110 1;
#X connect 101 0 117 1;
#X connect 101 0 111 1;
#X connect 102 0 135 0;
#X connect 103 0 136 0;
#X connect 104 0 127 0;
#X connect 105 0 126 0;
#X connect 106 0 137 0;
#X connect 107 0 138 0;
#X connect 108 0 124 0;
#X connect 109 0 125 0;
#X connect 110 0 134 0;
#X connect 111 0 133 0;
#X connect 112 0 132 0;
#X connect 113 0 131 0;
#X connect 114 0 121 0;
#X connect 114 0 123 0;
#X connect 115 0 120 0;
#X connect 115 0 130 0;
#X connect 116 0 118 0;
#X connect 116 0 128 0;
#X connect 117 0 119 0;
#X connect 117 0 129 0;
#X connect 122 0 38 0;
#X restore 75 158 pd doit;
#X obj 76 96 inlet~;
#X obj 133 96 inlet~;
#X obj 420 220 s \$0-fb;
#X obj 605 269 s \$0-damp;
#X obj 420 166 / 400;
#X text 430 310 1: liveness \, 0-100 \, usually between 85 and 100
;
#X text 430 327 2: crossover frequency in Hz. (3000 default);
#X text 429 344 3: high frequency damping \, 0-100;
#X obj 517 167 mtof;
#X connect 0 0 4 0;
#X connect 1 0 18 0;
#X connect 4 0 20 0;
#X connect 7 0 10 0;
#X connect 8 0 24 0;
#X connect 9 0 7 0;
#X connect 10 0 11 0;
#X connect 11 0 12 0;
#X connect 12 0 19 0;
#X connect 15 0 2 0;
#X connect 15 1 3 0;
#X connect 15 2 5 0;
#X connect 15 3 6 0;
#X connect 16 0 15 0;
#X connect 17 0 15 1;
#X connect 20 0 1 0;
#X connect 24 0 14 0;
#X restore 209 185 pd processing;
#X obj 67 36 inlet~;
#X obj 124 36 inlet~;
#X obj 60 441 outlet~;
#X obj 118 441 outlet~;
#X obj 176 442 outlet~;
#X obj 234 442 outlet~;
#X text 489 497 Version: 2008-03-05;
#X text 489 481 Author: Miller Puckette;
#X obj 583 13 inlet params;
#X obj 583 59 print PARAM_NOTFOUND;
#X obj 299 285 line~;
#X msg 299 264 \$1 5;
#X obj 53 304 tof/crossfade~ 2;
#X obj 286 59 tof/param /damp 80 /g slider 0 100;
#X obj 252 -11 tof/param /liveness 90 /g slider 0 100;
#X obj 255 20 tof/param /crossover 80 /g slider 0 127;
#X obj 583 35 tof/param route;
#X obj 299 242 tof/param /wet3 1 /g slider 0 1;
#X connect 0 0 13 2;
#X connect 0 1 13 3;
#X connect 0 2 5 0;
#X connect 0 3 6 0;
#X connect 1 0 0 0;
#X connect 1 0 13 0;
#X connect 2 0 0 1;
#X connect 2 0 13 1;
#X connect 9 0 17 0;
#X connect 11 0 13 4;
#X connect 12 0 11 0;
#X connect 13 0 3 0;
#X connect 13 1 4 0;
#X connect 14 0 0 4;
#X connect 15 0 0 2;
#X connect 16 0 0 3;
#X connect 17 0 10 0;
#X connect 18 0 12 0;
#X restore 315 257 pd reverb;
#X obj 361 350 random 100;
#X obj 363 295 loadbang;
#X obj 399 269 bng 15 250 50 0 empty empty empty 17 7 0 10 -262144
-1 -1;
#X obj 359 329 metro 10000;
#X floatatom 397 449 5 0 0 0 - - -;
#X obj 364 416 line;
#X msg 360 392 \$1 10000;
#X obj 361 371 / 1000;
#X connect 0 0 9 0;
#X connect 1 0 9 1;
#X connect 6 0 11 0;
#X connect 7 0 6 1;
#X connect 8 0 6 0;
#X connect 9 0 4 0;
#X connect 9 1 5 0;
#X connect 10 0 5 0;
#X connect 10 0 4 0;
#X connect 11 0 10 0;
#X connect 12 0 19 0;
#X connect 13 0 15 0;
#X connect 14 0 15 0;
#X connect 15 0 12 0;
#X connect 17 0 10 1;
#X connect 17 0 16 0;
#X connect 18 0 17 0;
#X connect 19 0 18 0;
#X restore 155 376 pd Oupapo6;
#N canvas 0 25 1272 653 Oupapo7 0;
#X obj 377 53 inlet;
#X obj 844 179 inlet;
#X obj 121 56 inlet~;
#X obj 179 55 inlet~;
#X text 151 34 audio;
#X text 375 31 gemlist;
#X text 841 159 autres;
#X text 150 224 audio;
#X text 375 620 gemlist;
#X text 841 343 autres;
#X obj 120 201 outlet~;
#X obj 178 200 outlet~;
#X obj 377 598 outlet;
#X obj 844 324 outlet;
#X obj 433 347 range 0 2000 0 360;
#X obj 404 210 until;
#X obj 404 232 gemlist;
#X obj 404 156 t b a;
#X obj 404 449 alpha;
#X obj 404 261 scale 1.08;
#X obj 404 549 sphere;
#X obj 404 425 rotateXYZ 0 0 0;
#X obj 509 258 range 2000 0 0.1 0.7;
#X obj 433 397 line;
#X msg 433 374 \$1 2000;
#X obj 377 95 t a a;
#X obj 404 127 separator;
#X obj 404 182 f;
#X obj 494 165 int;
#X obj 494 134 range 0 2000 3 9;
#X obj 420 509 init 0.85;
#X obj 502 532 int;
#X obj 494 97 r nb-oli-1;
#X obj 502 457 r nb-oli-1;
#X obj 509 228 r nb-oli-2;
#X obj 433 321 r nb-oli-2;
#X obj 760 232 s nb-oli-1;
#X obj 733 259 s nb-oli-2;
#X obj 733 196 t f f;
#X obj 404 287 colorRGB 1 0 0 0.3;
#X obj 502 493 range 0 2000 3 8;
#X connect 0 0 25 0;
#X connect 1 0 13 0;
#X connect 1 0 38 0;
#X connect 2 0 10 0;
#X connect 3 0 11 0;
#X connect 14 0 24 0;
#X connect 15 0 16 0;
#X connect 16 0 19 0;
#X connect 17 0 27 0;
#X connect 17 1 16 1;
#X connect 18 0 20 0;
#X connect 19 0 39 0;
#X connect 21 0 18 0;
#X connect 22 0 39 4;
#X connect 23 0 21 1;
#X connect 24 0 23 0;
#X connect 25 0 12 0;
#X connect 25 1 26 0;
#X connect 26 0 17 0;
#X connect 27 0 15 0;
#X connect 28 0 27 1;
#X connect 29 0 28 0;
#X connect 30 0 20 1;
#X connect 31 0 20 2;
#X connect 32 0 29 0;
#X connect 33 0 40 0;
#X connect 34 0 22 0;
#X connect 35 0 14 0;
#X connect 38 0 37 0;
#X connect 38 1 36 0;
#X connect 39 0 21 0;
#X connect 40 0 31 0;
#X restore 156 444 pd Oupapo7;
#N canvas 0 22 1251 693 Oupapo8 0;
#X obj 377 53 inlet;
#X obj 512 53 inlet;
#X obj 121 56 inlet~;
#X obj 179 55 inlet~;
#X text 151 34 audio;
#X text 375 31 gemlist;
#X text 509 33 autres;
#X text 150 224 audio;
#X text 375 220 gemlist;
#X text 509 217 autres;
#X obj 120 201 outlet~;
#X obj 178 200 outlet~;
#X obj 377 198 outlet;
#X obj 512 198 outlet;
#X obj 665 -5 osc~;
#X obj 604 -82 sig~;
#X obj 665 -34 +~;
#X obj 697 -100 osc~;
#X obj 650 80 osc~;
#X obj 651 53 +~;
#X obj 598 17 sig~;
#X obj 717 135 +~;
#X obj 855 -5 osc~;
#X obj 828 -82 sig~;
#X obj 855 -34 +~;
#X obj 887 -100 osc~;
#X obj 840 80 osc~;
#X obj 841 53 +~;
#X obj 811 -8 sig~;
#X obj 727 72 * -1;
#X obj 727 97 + 1;
#X obj 702 206 osc~;
#X obj 702 182 +~;
#X obj 606 226 sig~;
#X obj 702 239 *~;
#X obj 841 103 *~ 0.5;
#X obj 651 103 *~ 0.5;
#X msg 599 199 23.11;
#X msg 597 -6 2777;
#X msg 594 -107 698.5;
#X msg 807 -47 34.66;
#X msg 818 -108 261.6;
#X msg 879 -137 1396;
#N canvas 0 22 450 300 varia 0;
#X obj 113 170 +;
#X obj 114 94 random 3;
#X obj 113 117 - 1;
#X obj 113 219 max 0;
#X obj 63 172 float;
#X obj 50 262 outlet;
#X obj 53 199 hsl 50 10 0 1 0 0 empty empty empty -2 -6 0 8 -262144
-1 -1 303 1;
#X obj 113 55 tgl 10 0 empty empty empty 0 -6 1 6 -262144 -1 -1 1 1
;
#X obj 114 195 min 1;
#X obj 229 25 inlet;
#X text 52 305 outputs continuously varying numbers;
#X text 50 324 between 0 and 1 creation argument;
#X text 51 344 sets depth of variation.;
#X text 51 371 Les Objets Volants 2008;
#X obj 50 238 line;
#X msg 50 214 \$1 1;
#X obj 110 25 loadbang;
#X obj 114 144 / 200;
#X msg 71 37 start;
#X obj 113 70 metro 200;
#X connect 0 0 8 0;
#X connect 1 0 2 0;
#X connect 2 0 17 0;
#X connect 3 0 4 1;
#X connect 4 0 6 0;
#X connect 6 0 0 0;
#X connect 6 0 15 0;
#X connect 7 0 19 0;
#X connect 8 0 3 0;
#X connect 9 0 17 1;
#X connect 14 0 5 0;
#X connect 15 0 14 0;
#X connect 16 0 7 0;
#X connect 17 0 0 1;
#X connect 18 0 19 0;
#X connect 19 0 1 0;
#X connect 19 0 4 0;
#X restore 818 145 pd varia;
#N canvas 0 22 450 300 varia 0;
#X obj 113 170 +;
#X obj 114 94 random 3;
#X obj 113 117 - 1;
#X obj 113 219 max 0;
#X obj 63 172 float;
#X obj 50 262 outlet;
#X obj 53 199 hsl 50 10 0 1 0 0 empty empty empty -2 -6 0 8 -262144
-1 -1 1470 1;
#X obj 113 55 tgl 10 0 empty empty empty 0 -6 1 6 -262144 -1 -1 1 1
;
#X obj 114 195 min 1;
#X obj 229 25 inlet;
#X text 52 305 outputs continuously varying numbers;
#X text 50 324 between 0 and 1 creation argument;
#X text 51 344 sets depth of variation.;
#X text 51 371 Les Objets Volants 2008;
#X obj 50 238 line;
#X msg 50 214 \$1 1;
#X obj 110 25 loadbang;
#X msg 71 37 start;
#X obj 114 70 metro 200;
#X obj 113 144 / 20;
#X connect 0 0 8 0;
#X connect 1 0 2 0;
#X connect 2 0 19 0;
#X connect 3 0 4 1;
#X connect 4 0 6 0;
#X connect 6 0 0 0;
#X connect 6 0 15 0;
#X connect 7 0 18 0;
#X connect 8 0 3 0;
#X connect 9 0 19 1;
#X connect 14 0 5 0;
#X connect 15 0 14 0;
#X connect 16 0 7 0;
#X connect 17 0 18 0;
#X connect 18 0 1 0;
#X connect 18 0 4 0;
#X connect 19 0 0 1;
#X restore 743 -31 pd varia;
#N canvas 0 22 450 300 varia 0;
#X obj 113 170 +;
#X obj 114 94 random 3;
#X obj 113 117 - 1;
#X obj 113 219 max 0;
#X obj 63 172 float;
#X obj 50 262 outlet;
#X obj 53 199 hsl 50 10 0 1 0 0 empty empty empty -2 -6 0 8 -262144
-1 -1 3185 1;
#X obj 113 55 tgl 10 0 empty empty empty 0 -6 1 6 -262144 -1 -1 1 1
;
#X obj 114 195 min 1;
#X obj 229 25 inlet;
#X text 52 305 outputs continuously varying numbers;
#X text 50 324 between 0 and 1 creation argument;
#X text 51 344 sets depth of variation.;
#X text 51 371 Les Objets Volants 2008;
#X obj 50 238 line;
#X msg 50 214 \$1 1;
#X obj 110 25 loadbang;
#X msg 71 37 start;
#X obj 113 70 metro 200;
#X obj 114 144 / 20;
#X connect 0 0 8 0;
#X connect 1 0 2 0;
#X connect 2 0 19 0;
#X connect 3 0 4 1;
#X connect 4 0 6 0;
#X connect 6 0 0 0;
#X connect 6 0 15 0;
#X connect 7 0 18 0;
#X connect 8 0 3 0;
#X connect 9 0 19 1;
#X connect 14 0 5 0;
#X connect 15 0 14 0;
#X connect 16 0 7 0;
#X connect 17 0 18 0;
#X connect 18 0 1 0;
#X connect 18 0 4 0;
#X connect 19 0 0 1;
#X restore 1101 116 pd varia;
#X obj 829 227 hsl 128 15 0 1 0 0 empty empty empty -2 -8 0 10 -262144
-1 -1 785 1;
#X obj 1201 254 hsl 128 15 0 1 0 0 empty empty empty -2 -8 0 10 -262144
-1 -1 8255 1;
#X obj 749 32 hsl 128 15 0 1 0 0 empty empty empty -2 -8 0 10 -262144
-1 -1 3810 1;
#X obj 758 368 *~;
#X obj 830 349 hsl 128 15 0 1 0 0 empty empty empty -2 -8 0 10 -262144
-1 -1 319 1;
#X msg 1104 250 /roomsize 1;
#X obj 594 -149 loadbang;
#X obj 678 -167 loadbang;
#X obj 698 -69 *~ 563.9;
#X obj 888 -69 *~ 336.9;
#X obj 872 -192 loadbang;
#X obj 810 -150 loadbang;
#X obj 856 24 *~ 358;
#X obj 666 24 *~ 354;
#X obj 594 -37 loadbang;
#X obj 718 158 *~ 290.9;
#X obj 597 166 loadbang;
#X obj 1103 213 loadbang;
#N canvas 0 22 1272 714 reverbFree 0;
#X obj 52 464 outlet~ left;
#X obj 144 464 outlet~ right;
#X obj 54 81 inlet~ left;
#X obj 141 81 inlet~ right;
#N canvas 2 89 1012 443 freeverb 0;
#X obj 43 16 inlet~;
#X obj 39 414 outlet~;
#X obj 154 412 outlet~;
#X obj 283 8 inlet;
#X obj 350 7 inlet;
#X obj 410 8 inlet;
#X msg 110 63 roomsize \$1;
#X msg 110 108 damping \$1;
#X msg 110 152 width \$1;
#X msg 120 206 wet \$1;
#X msg 124 229 dry \$1;
#X msg 163 302 freeze \$1;
#X msg 209 346 bypass \$1;
#X obj 481 6 inlet;
#X msg 198 155 1;
#X msg 230 156 0;
#X obj 221 131 loadbang;
#X obj 92 381 freeverb~;
#X connect 0 0 17 0;
#X connect 3 0 6 0;
#X connect 4 0 7 0;
#X connect 5 0 8 0;
#X connect 6 0 17 0;
#X connect 7 0 17 0;
#X connect 8 0 17 0;
#X connect 9 0 17 0;
#X connect 10 0 17 0;
#X connect 11 0 17 0;
#X connect 12 0 17 0;
#X connect 13 0 11 0;
#X connect 14 0 9 0;
#X connect 15 0 10 0;
#X connect 15 0 12 0;
#X connect 16 0 14 0;
#X connect 16 0 15 0;
#X connect 17 0 1 0;
#X connect 17 1 2 0;
#X restore 110 324 pd freeverb;
#X obj 53 392 tof/crossfade~ 2;
#X obj 752 140 inlet params;
#X obj 752 186 print PARAM_NOTFOUND;
#X obj 204 378 line~;
#X msg 204 357 \$1 5;
#X obj 370 167 tof/param /width 1 /g slider 0 1;
#X obj 370 127 tof/param /roomsize 0.3 /g slider 0.11 1.6;
#X obj 370 187 tof/param /freeze 0 /g tgl;
#X obj 370 147 tof/param /damping 0.4 /g slider 0 2;
#X obj 751 162 tof/param route;
#X obj 204 335 tof/param /wet2 0 /g slider 0 1;
#X connect 2 0 4 0;
#X connect 2 0 5 0;
#X connect 3 0 5 1;
#X connect 4 0 5 2;
#X connect 4 1 5 3;
#X connect 5 0 0 0;
#X connect 5 1 1 0;
#X connect 6 0 14 0;
#X connect 8 0 5 4;
#X connect 9 0 8 0;
#X connect 10 0 4 3;
#X connect 11 0 4 1;
#X connect 12 0 4 4;
#X connect 13 0 4 2;
#X connect 14 0 7 0;
#X connect 15 0 9 0;
#X restore 710 290 pd reverbFree;
#N canvas 0 22 450 300 varia 0;
#X obj 113 170 +;
#X obj 114 94 random 3;
#X obj 113 117 - 1;
#X obj 113 219 max 0;
#X obj 63 172 float;
#X obj 50 262 outlet;
#X obj 53 199 hsl 50 10 0 1 0 0 empty empty empty -2 -6 0 8 -262144
-1 -1 246 1;
#X obj 113 55 tgl 10 0 empty empty empty 0 -6 1 6 -262144 -1 -1 1 1
;
#X obj 114 195 min 1;
#X obj 229 25 inlet;
#X text 52 305 outputs continuously varying numbers;
#X text 50 324 between 0 and 1 creation argument;
#X text 51 344 sets depth of variation.;
#X text 51 371 Les Objets Volants 2008;
#X obj 50 238 line;
#X msg 50 214 \$1 1;
#X obj 110 25 loadbang;
#X msg 71 37 start;
#X obj 113 70 metro 200;
#X obj 114 144 / 60;
#X connect 0 0 8 0;
#X connect 1 0 2 0;
#X connect 2 0 19 0;
#X connect 3 0 4 1;
#X connect 4 0 6 0;
#X connect 6 0 0 0;
#X connect 6 0 15 0;
#X connect 7 0 18 0;
#X connect 8 0 3 0;
#X connect 9 0 19 1;
#X connect 14 0 5 0;
#X connect 15 0 14 0;
#X connect 16 0 7 0;
#X connect 17 0 18 0;
#X connect 18 0 1 0;
#X connect 18 0 4 0;
#X connect 19 0 0 1;
#X restore 836 290 pd varia;
#X floatatom 747 -105 5 0 0 0 - - -;
#X msg 676 -135 22;
#X msg 1033 242 /wet2 \$1;
#X obj 835 317 / 2;
#N canvas 0 22 450 300 varia 0;
#X obj 113 170 +;
#X obj 114 94 random 3;
#X obj 113 117 - 1;
#X obj 113 219 max 0;
#X obj 63 172 float;
#X obj 50 262 outlet;
#X obj 53 199 hsl 50 10 0 1 0 0 empty empty empty -2 -6 0 8 -262144
-1 -1 820 1;
#X obj 113 55 tgl 10 0 empty empty empty 0 -6 1 6 -262144 -1 -1 1 1
;
#X obj 114 195 min 1;
#X obj 229 25 inlet;
#X text 52 305 outputs continuously varying numbers;
#X text 50 324 between 0 and 1 creation argument;
#X text 51 344 sets depth of variation.;
#X text 51 371 Les Objets Volants 2008;
#X obj 50 238 line;
#X msg 50 214 \$1 1;
#X obj 110 25 loadbang;
#X msg 71 37 start;
#X obj 113 70 metro 200;
#X obj 114 144 / 60;
#X connect 0 0 8 0;
#X connect 1 0 2 0;
#X connect 2 0 19 0;
#X connect 3 0 4 1;
#X connect 4 0 6 0;
#X connect 6 0 0 0;
#X connect 6 0 15 0;
#X connect 7 0 18 0;
#X connect 8 0 3 0;
#X connect 9 0 19 1;
#X connect 14 0 5 0;
#X connect 15 0 14 0;
#X connect 16 0 7 0;
#X connect 17 0 18 0;
#X connect 18 0 1 0;
#X connect 18 0 4 0;
#X connect 19 0 0 1;
#X restore 816 376 pd varia;
#X obj 813 406 * 25;
#X obj 928 393 vsl 15 128 0 1 0 0 empty empty empty 0 -9 0 10 -262144
-1 -1 2125 1;
#X obj 746 418 bp~ 800 1;
#X msg 1110 293 /damping 1;
#N canvas 0 22 450 300 varia 0;
#X obj 113 170 +;
#X obj 114 94 random 3;
#X obj 113 117 - 1;
#X obj 113 219 max 0;
#X obj 63 172 float;
#X obj 50 262 outlet;
#X obj 53 199 hsl 50 10 0 1 0 0 empty empty empty -2 -6 0 8 -262144
-1 -1 2296 1;
#X obj 113 55 tgl 10 0 empty empty empty 0 -6 1 6 -262144 -1 -1 1 1
;
#X obj 114 195 min 1;
#X obj 229 25 inlet;
#X text 52 305 outputs continuously varying numbers;
#X text 50 324 between 0 and 1 creation argument;
#X text 51 344 sets depth of variation.;
#X text 51 371 Les Objets Volants 2008;
#X obj 50 238 line;
#X msg 50 214 \$1 1;
#X obj 110 25 loadbang;
#X msg 71 37 start;
#X obj 113 70 metro 200;
#X obj 114 144 / 60;
#X connect 0 0 8 0;
#X connect 1 0 2 0;
#X connect 2 0 19 0;
#X connect 3 0 4 1;
#X connect 4 0 6 0;
#X connect 6 0 0 0;
#X connect 6 0 15 0;
#X connect 7 0 18 0;
#X connect 8 0 3 0;
#X connect 9 0 19 1;
#X connect 14 0 5 0;
#X connect 15 0 14 0;
#X connect 16 0 7 0;
#X connect 17 0 18 0;
#X connect 18 0 1 0;
#X connect 18 0 4 0;
#X connect 19 0 0 1;
#X restore 1036 363 pd varia;
#X obj 1033 393 * 25;
#X obj 1148 380 vsl 15 128 0 1 0 0 empty empty empty 0 -9 0 10 -262144
-1 -1 5951 1;
#X obj 966 405 bp~ 2000 1;
#X connect 0 0 12 0;
#X connect 1 0 13 0;
#X connect 2 0 10 0;
#X connect 3 0 11 0;
#X connect 14 0 59 0;
#X connect 15 0 16 0;
#X connect 16 0 14 0;
#X connect 17 0 54 0;
#X connect 18 0 36 0;
#X connect 19 0 18 0;
#X connect 20 0 19 0;
#X connect 21 0 61 0;
#X connect 22 0 58 0;
#X connect 23 0 24 0;
#X connect 24 0 22 0;
#X connect 25 0 55 0;
#X connect 26 0 35 0;
#X connect 27 0 26 0;
#X connect 28 0 27 0;
#X connect 29 0 30 0;
#X connect 30 0 36 1;
#X connect 31 0 34 0;
#X connect 32 0 31 0;
#X connect 33 0 32 0;
#X connect 34 0 64 0;
#X connect 35 0 21 1;
#X connect 36 0 21 0;
#X connect 37 0 33 0;
#X connect 38 0 20 0;
#X connect 39 0 15 0;
#X connect 40 0 28 0;
#X connect 41 0 23 0;
#X connect 42 0 25 0;
#X connect 43 0 46 0;
#X connect 43 0 34 1;
#X connect 44 0 48 0;
#X connect 45 0 47 0;
#X connect 45 0 68 0;
#X connect 48 0 29 0;
#X connect 49 0 73 0;
#X connect 49 0 78 0;
#X connect 50 0 49 1;
#X connect 51 0 64 2;
#X connect 52 0 39 0;
#X connect 53 0 67 0;
#X connect 54 0 16 1;
#X connect 55 0 24 1;
#X connect 56 0 42 0;
#X connect 57 0 41 0;
#X connect 58 0 27 1;
#X connect 59 0 19 1;
#X connect 60 0 38 0;
#X connect 61 0 32 1;
#X connect 62 0 37 0;
#X connect 63 0 51 0;
#X connect 63 0 74 0;
#X connect 64 0 49 0;
#X connect 65 0 69 0;
#X connect 67 0 17 0;
#X connect 68 0 64 2;
#X connect 69 0 50 0;
#X connect 70 0 71 0;
#X connect 70 0 72 0;
#X connect 71 0 73 2;
#X connect 73 0 11 0;
#X connect 73 0 10 0;
#X connect 74 0 64 2;
#X connect 75 0 76 0;
#X connect 75 0 77 0;
#X connect 76 0 78 2;
#X connect 78 0 11 0;
#X connect 78 0 10 0;
#X restore 156 481 pd Oupapo8;
#X obj 264 302 noise~;
#X obj 264 326 bp~ 440 8;
#X msg 247 460 \$1 10000;
#X obj 247 483 line~;
#X obj 194 533 *~;
#X obj 157 535 *~;
#X obj 345 345 * 0.2;
#X obj 264 349 *~ 0;
#X obj 154 112 loadbang;
#X obj 211 112 r bang;
#X obj 154 185 metro 2000;
#X obj 211 147 random 2000;
#N canvas 0 22 450 300 dirac 0;
#X obj 115 177 vline~;
#X obj 159 42 samplerate~;
#X msg 159 65 1000 \$1;
#X obj 159 87 /;
#X msg 115 155 1 \, 0 0 \$1;
#X obj 115 133 f;
#X text 199 88 1000 / sr = sampleperiod (ms);
#X obj 115 86 b;
#X obj 159 18 loadbang;
#X obj 115 19 inlet;
#X obj 116 241 outlet~;
#X text 225 206 Author: Roman Haefeli;
#X text 225 223 Version: 2007-11-18;
#X connect 0 0 10 0;
#X connect 1 0 2 0;
#X connect 2 0 3 0;
#X connect 3 0 5 1;
#X connect 4 0 0 0;
#X connect 5 0 4 0;
#X connect 7 0 5 0;
#X connect 8 0 1 0;
#X connect 9 0 7 0;
#X restore 154 211 pd dirac;
#N canvas 20 25 919 653 reverb 0;
#X obj 258 53 inlet~;
#X obj 258 112 +~;
#X obj 330 142 +~;
#X obj 259 215 +~;
#X obj 316 215 -~;
#X obj 436 217 +~;
#X obj 495 217 -~;
#X obj 258 397 +~;
#X obj 317 397 +~;
#X obj 422 395 -~;
#X obj 481 397 -~;
#X obj 18 129 outlet~ l;
#X obj 89 160 outlet~ r;
#X obj 257 459 *~ 0.4;
#X obj 316 459 *~ 0.37;
#X obj 421 459 *~ 0.33;
#X obj 481 461 *~ 0.3;
#X text 573 293 Recirculating schroeder reverb extract from the book
Designing Sound Andy Farnell Page 85;
#X obj 338 30 delread~ \$0-A 101;
#X obj 413 57 delread~ \$0-B 143;
#X obj 437 114 delread~ \$0-C 165;
#X obj 510 141 delread~ \$0-D 177;
#X obj 481 497 delwrite~ \$0-D 1000;
#X obj 420 532 delwrite~ \$0-C 1000;
#X obj 316 569 delwrite~ \$0-B 1000;
#X obj 257 606 delwrite~ \$0-A 1000;
#X connect 0 0 1 0;
#X connect 0 0 2 0;
#X connect 1 0 3 0;
#X connect 1 0 11 0;
#X connect 1 0 4 0;
#X connect 2 0 3 1;
#X connect 2 0 12 0;
#X connect 2 0 4 1;
#X connect 3 0 7 0;
#X connect 3 0 9 0;
#X connect 4 0 8 0;
#X connect 4 0 10 0;
#X connect 5 0 7 1;
#X connect 5 0 9 1;
#X connect 6 0 10 1;
#X connect 6 0 8 1;
#X connect 7 0 13 0;
#X connect 8 0 14 0;
#X connect 9 0 15 0;
#X connect 10 0 16 0;
#X connect 13 0 25 0;
#X connect 14 0 24 0;
#X connect 15 0 23 0;
#X connect 16 0 22 0;
#X connect 18 0 1 1;
#X connect 19 0 2 1;
#X connect 20 0 5 0;
#X connect 20 0 6 0;
#X connect 21 0 5 1;
#X connect 21 0 6 1;
#X restore 154 239 pd reverb;
#X connect 0 0 16 0;
#X connect 2 0 20 0;
#X connect 3 0 0 0;
#X connect 4 0 2 0;
#X connect 5 0 1 0;
#X connect 7 0 6 0;
#X connect 10 0 11 0;
#X connect 10 1 11 1;
#X connect 11 0 12 0;
#X connect 11 1 12 1;
#X connect 12 0 13 0;
#X connect 12 1 13 1;
#X connect 13 0 19 0;
#X connect 13 1 18 0;
#X connect 14 0 15 0;
#X connect 15 0 21 0;
#X connect 16 0 17 0;
#X connect 17 0 19 1;
#X connect 17 0 18 1;
#X connect 18 0 9 0;
#X connect 19 0 8 0;
#X connect 20 0 21 1;
#X connect 21 0 11 0;
#X connect 21 0 11 1;
#X connect 22 0 24 0;
#X connect 23 0 25 0;
#X connect 24 0 26 0;
#X connect 25 0 24 1;
#X connect 26 0 27 0;
#X connect 27 0 10 0;
#X connect 27 1 10 1;
