#N canvas 721 161 470 566 10;
#X obj 103 236 *~;
#X obj 104 198 *~;
#X obj 104 162 *~;
#X obj 136 56 unpack 1 2 3 4;
#X obj 105 117 cos~;
#X obj 168 116 cos~;
#X obj 243 115 cos~;
#X obj 313 115 cos~;
#X obj 313 85 phasor~;
#X obj 244 85 phasor~;
#X obj 168 86 phasor~;
#X obj 106 86 phasor~;
#X obj 136 9 loadbang;
#X obj 101 305 *~;
#X obj 105 480 throw~ u-all-l;
#X obj 208 479 throw~ u-all-r;
#X floatatom 208 338 5 0 0 0 - - -;
#X obj 209 393 line~;
#X obj 105 426 *~;
#X obj 102 263 hip~ 20;
#X obj 118 280 osc~ 0.1;
#X obj 207 312 r g9;
#X obj 0 233 noise~;
#X obj 0 305 *~ 0;
#X obj 103 330 +~;
#X obj 177 286 expr ($f1)*2+0.3;
#X obj 0 257 lop~ 1200;
#X msg 136 33 400 4 20 2;
#X obj 108 393 *~ 0.5;
#X obj 0 281 *~ 0.6;
#X obj 53 210 r g9-1;
#X obj 177 259 r g9-3;
#X floatatom 71 244 5 0 0 0 - - -;
#X obj 101 357 *~ 0;
#X msg 209 363 \$1 10000;
#X msg 33 371 \$1 3000;
#X obj 34 399 line;
#X msg 145 324 \$1 3000;
#X obj 146 352 line;
#X connect 0 0 19 0;
#X connect 1 0 0 0;
#X connect 2 0 1 0;
#X connect 3 0 11 0;
#X connect 3 1 10 0;
#X connect 3 2 9 0;
#X connect 3 3 8 0;
#X connect 4 0 2 0;
#X connect 5 0 2 1;
#X connect 6 0 1 1;
#X connect 7 0 0 1;
#X connect 8 0 7 0;
#X connect 9 0 6 0;
#X connect 10 0 5 0;
#X connect 11 0 4 0;
#X connect 12 0 27 0;
#X connect 13 0 24 0;
#X connect 16 0 34 0;
#X connect 17 0 18 1;
#X connect 18 0 14 0;
#X connect 18 0 15 0;
#X connect 19 0 13 0;
#X connect 20 0 13 1;
#X connect 21 0 16 0;
#X connect 22 0 26 0;
#X connect 23 0 24 1;
#X connect 24 0 33 0;
#X connect 25 0 37 0;
#X connect 26 0 29 0;
#X connect 27 0 3 0;
#X connect 28 0 18 0;
#X connect 29 0 23 0;
#X connect 30 0 32 0;
#X connect 31 0 25 0;
#X connect 32 0 35 0;
#X connect 33 0 28 0;
#X connect 34 0 17 0;
#X connect 35 0 36 0;
#X connect 36 0 23 1;
#X connect 37 0 38 0;
#X connect 38 0 33 1;
