#N canvas 539 170 705 495 10;
#X obj 149 214 *~;
#X obj 230 211 *~;
#X obj 67 213 *~;
#X obj 127 90 t b b b;
#X obj 126 10 tgl 15 0 empty empty empty 17 7 0 10 -262144 -1 -1 1
1;
#X obj 221 65 noise~;
#X obj 165 141 hip~ 200;
#X obj 403 223 *~;
#X obj 484 220 *~;
#X obj 321 222 *~;
#X obj 381 99 t b b b;
#X obj 475 74 noise~;
#X obj 419 150 hip~ 200;
#X obj 126 57 t b b b b;
#X obj 126 34 metro 100;
#X obj 82 178 bp~ 6543 30;
#X obj 67 116 sqdec 30;
#X obj 149 116 sqdec 20;
#X obj 230 116 sqdec 10;
#X obj 484 125 sqdec 10;
#X obj 403 125 sqdec 20;
#X obj 321 125 sqdec 30;
#X obj 164 176 bp~ 3245 30;
#X obj 246 175 bp~ 1356 30;
#X obj 500 184 bp~ 1356 30;
#X obj 418 185 bp~ 3245 30;
#X obj 336 187 bp~ 6543 30;
#X obj 126 -13 loadbang;
#X obj 516 240 r g8;
#X obj 237 452 throw~ sun_l;
#X obj 405 451 throw~ sun_r;
#X msg 511 289 \$1 500;
#X obj 517 321 line~;
#X floatatom 516 264 5 0 0 0 - - -;
#X obj 409 291 *~;
#X obj 148 298 *~;
#X obj 152 340 *~ 0.2;
#X obj 402 333 *~ 0.2;
#X obj 208 257 randomF 0.15;
#X obj 289 259 randomF 0.15;
#X obj 149 245 *~ 4;
#X obj 403 255 *~ 4;
#X connect 0 0 40 0;
#X connect 1 0 40 0;
#X connect 2 0 40 0;
#X connect 3 0 16 0;
#X connect 3 1 17 0;
#X connect 3 2 18 0;
#X connect 4 0 14 0;
#X connect 5 0 6 0;
#X connect 6 0 15 0;
#X connect 6 0 22 0;
#X connect 6 0 23 0;
#X connect 7 0 41 0;
#X connect 8 0 41 0;
#X connect 9 0 41 0;
#X connect 10 0 21 0;
#X connect 10 1 20 0;
#X connect 10 2 19 0;
#X connect 11 0 12 0;
#X connect 12 0 24 0;
#X connect 12 0 25 0;
#X connect 12 0 26 0;
#X connect 13 0 3 0;
#X connect 13 1 10 0;
#X connect 13 2 38 0;
#X connect 13 3 39 0;
#X connect 14 0 13 0;
#X connect 15 0 2 1;
#X connect 16 0 2 0;
#X connect 17 0 0 0;
#X connect 18 0 1 0;
#X connect 19 0 8 0;
#X connect 20 0 7 0;
#X connect 21 0 9 0;
#X connect 22 0 0 1;
#X connect 23 0 1 1;
#X connect 24 0 8 1;
#X connect 25 0 7 1;
#X connect 26 0 9 1;
#X connect 27 0 4 0;
#X connect 28 0 33 0;
#X connect 31 0 32 0;
#X connect 32 0 34 1;
#X connect 32 0 35 1;
#X connect 33 0 31 0;
#X connect 34 0 37 0;
#X connect 35 0 36 0;
#X connect 36 0 29 0;
#X connect 37 0 30 0;
#X connect 38 0 36 1;
#X connect 39 0 37 1;
#X connect 40 0 35 0;
#X connect 41 0 34 0;
