#N canvas 282 234 705 495 10;
#X obj 149 214 *~;
#X obj 230 211 *~;
#X obj 67 213 *~;
#X obj 127 90 t b b b;
#X obj 126 10 tgl 15 0 empty empty empty 17 7 0 10 -262144 -1 -1 1
1;
#X obj 221 65 noise~;
#X obj 165 141 hip~ 200;
#X obj 152 340 *~ 0.3;
#X obj 403 223 *~;
#X obj 484 220 *~;
#X obj 321 222 *~;
#X obj 381 99 t b b b;
#X obj 475 74 noise~;
#X obj 419 150 hip~ 200;
#X obj 402 332 *~ 0.3;
#X obj 126 57 t b b b b;
#X obj 126 34 metro 100;
#X floatatom 222 280 5 0 0 0 - - -;
#X obj 82 178 bp~ 6543 30;
#X obj 67 116 sqdec 30;
#X obj 149 116 sqdec 20;
#X obj 230 116 sqdec 10;
#X obj 484 125 sqdec 10;
#X obj 403 125 sqdec 20;
#X obj 321 125 sqdec 30;
#X obj 164 176 bp~ 3245 30;
#X obj 246 175 bp~ 1356 30;
#X obj 500 184 bp~ 1356 30;
#X obj 418 185 bp~ 3245 30;
#X obj 336 187 bp~ 6543 30;
#X obj 126 -13 loadbang;
#X obj 403 255 *~ 10;
#X obj 149 245 *~ 10;
#X obj 446 261 r g8;
#X obj 208 257 randomF 0.2;
#X obj 289 259 randomF 0.2;
#X obj 237 452 throw~ sun_l;
#X obj 405 451 throw~ sun_r;
#X msg 461 290 \$1 500;
#X obj 467 322 line~;
#X floatatom 521 278 5 0 0 0 - - -;
#X obj 409 291 *~;
#X obj 148 298 *~;
#X connect 0 0 32 0;
#X connect 1 0 32 0;
#X connect 2 0 32 0;
#X connect 3 0 19 0;
#X connect 3 1 20 0;
#X connect 3 2 21 0;
#X connect 4 0 16 0;
#X connect 5 0 6 0;
#X connect 6 0 18 0;
#X connect 6 0 25 0;
#X connect 6 0 26 0;
#X connect 7 0 36 0;
#X connect 8 0 31 0;
#X connect 9 0 31 0;
#X connect 10 0 31 0;
#X connect 11 0 24 0;
#X connect 11 1 23 0;
#X connect 11 2 22 0;
#X connect 12 0 13 0;
#X connect 13 0 27 0;
#X connect 13 0 28 0;
#X connect 13 0 29 0;
#X connect 14 0 37 0;
#X connect 15 0 3 0;
#X connect 15 1 11 0;
#X connect 15 2 34 0;
#X connect 15 3 35 0;
#X connect 16 0 15 0;
#X connect 18 0 2 1;
#X connect 19 0 2 0;
#X connect 20 0 0 0;
#X connect 21 0 1 0;
#X connect 22 0 9 0;
#X connect 23 0 8 0;
#X connect 24 0 10 0;
#X connect 25 0 0 1;
#X connect 26 0 1 1;
#X connect 27 0 9 1;
#X connect 28 0 8 1;
#X connect 29 0 10 1;
#X connect 30 0 4 0;
#X connect 31 0 41 0;
#X connect 32 0 42 0;
#X connect 33 0 40 0;
#X connect 34 0 7 1;
#X connect 34 0 17 0;
#X connect 35 0 14 1;
#X connect 38 0 39 0;
#X connect 39 0 41 1;
#X connect 39 0 42 1;
#X connect 40 0 38 0;
#X connect 41 0 14 0;
#X connect 42 0 7 0;
