#N canvas 498 250 702 484 10;
#X obj 1 19 cnv 15 148 100 empty empty empty 20 12 0 14 -83269 -66577
0;
#X obj 279 201 s \$0-div;
#X obj -148 195 bng 15 250 50 0 empty empty empty 17 7 0 10 -262144
-1 -1;
#X obj -44 154 tgl 15 0 empty empty not 16 7 0 10 -262144 -1 -162280
0 1;
#N canvas 625 130 726 763 (subpatch) 0;
#X obj 104 324 s \$0-pos;
#X obj 3 0 hsl 100 15 0 2 0 0 empty empty Vel=0.24 8 8 0 10 -262144
-1 -1 1200 1;
#X obj 77 370 s \$0-pos;
#X obj 115 0 tgl 15 0 empty empty empty 17 7 0 10 -262144 -1 -1 1 1
;
#X floatatom 196 28 10 0 0 0 - - -;
#X obj 77 275 t b b;
#X obj -138 234 s \$0-bangbang;
#X obj 76 254 r \$0-bangbang;
#X obj -138 210 metro 20;
#N canvas 310 45 541 719 random-pos-go 0;
#X obj 31 -205 inlet;
#X obj -75 420 pack f f f f f;
#X msg -75 442 setCartesian \$1 \$2 \$3 \$4 \$5;
#X obj -75 464 outlet;
#X obj 55 235 t f b;
#X obj 55 310 +;
#X obj 163 240 t f b;
#X obj 163 315 +;
#X obj 270 243 t f b;
#X obj 270 318 +;
#X obj 93 -182 r \$0-div;
#X obj 31 -154 repeat 10;
#X obj 31 -23 t b f;
#X obj 31 5 repeat 10;
#X obj 114 -50 r \$0-div;
#X obj 114 -27 + 1;
#X obj 31 -123 t b b;
#X obj 31 73 pack f f;
#X obj 31 -89 f 0;
#X obj 59 -90 + 1;
#X msg 71 -122 0;
#X obj 31 38 f 0;
#X obj 59 38 + 1;
#X msg 95 5 0;
#X msg 31 95 \$2 \$1;
#X obj 31 115 unpack;
#X obj 125 51 *;
#X obj 140 0 r \$0-div;
#X obj 140 23 + 1;
#X obj 62 139 t f f;
#X obj 124 81 +;
#X obj 11 141 t f f;
#X obj 89 -90 t b;
#X obj 31 -183 t b b b b;
#X obj 271 45 inlet;
#X obj 271 76 t f f;
#X obj 294 103 / 2;
#X obj 190 263 randomF 0.01;
#X obj 297 266 randomF 0.01;
#X obj 82 258 randomF 0.01;
#X obj 82 281 - 0.005;
#X obj 191 286 - 0.005;
#X obj 298 289 - 0.005;
#X obj 52 185 t f f f f;
#X obj 44 389 + 0;
#X obj 16 379 + 0;
#X obj -27 385 + 0;
#X obj 160 154 tabread \$0-y;
#X obj 267 219 tabread \$0-z;
#X obj 268 348 tabwrite \$0-z;
#X obj 160 344 tabwrite \$0-y;
#X obj 52 347 tabwrite \$0-x;
#X obj 52 211 tabread \$0-x;
#X connect 0 0 33 0;
#X connect 1 0 2 0;
#X connect 2 0 3 0;
#X connect 4 0 5 0;
#X connect 4 1 39 0;
#X connect 5 0 51 0;
#X connect 6 0 7 0;
#X connect 6 1 37 0;
#X connect 7 0 50 0;
#X connect 8 0 9 0;
#X connect 8 1 38 0;
#X connect 9 0 49 0;
#X connect 10 0 11 1;
#X connect 11 0 16 0;
#X connect 12 0 13 0;
#X connect 12 1 17 1;
#X connect 13 0 21 0;
#X connect 14 0 15 0;
#X connect 15 0 13 1;
#X connect 16 0 18 0;
#X connect 16 1 23 0;
#X connect 17 0 24 0;
#X connect 18 0 19 0;
#X connect 18 0 12 0;
#X connect 19 0 18 1;
#X connect 20 0 18 1;
#X connect 21 0 22 0;
#X connect 21 0 17 0;
#X connect 22 0 21 1;
#X connect 23 0 21 1;
#X connect 24 0 25 0;
#X connect 25 0 31 0;
#X connect 25 1 29 0;
#X connect 26 0 30 0;
#X connect 27 0 28 0;
#X connect 28 0 26 1;
#X connect 29 0 1 1;
#X connect 29 1 30 1;
#X connect 30 0 43 0;
#X connect 31 0 1 0;
#X connect 31 1 26 0;
#X connect 33 0 11 0;
#X connect 33 2 20 0;
#X connect 34 0 35 0;
#X connect 35 0 37 1;
#X connect 35 0 38 1;
#X connect 35 0 39 1;
#X connect 35 1 36 0;
#X connect 36 0 40 1;
#X connect 36 0 41 1;
#X connect 36 0 42 1;
#X connect 37 0 41 0;
#X connect 38 0 42 0;
#X connect 39 0 40 0;
#X connect 40 0 5 1;
#X connect 41 0 7 1;
#X connect 42 0 9 1;
#X connect 43 0 52 0;
#X connect 43 1 47 0;
#X connect 43 2 48 0;
#X connect 43 3 49 1;
#X connect 43 3 50 1;
#X connect 43 3 51 1;
#X connect 44 0 1 4;
#X connect 45 0 1 3;
#X connect 46 0 1 2;
#X connect 47 0 6 0;
#X connect 47 0 45 0;
#X connect 48 0 8 0;
#X connect 48 0 44 0;
#X connect 52 0 4 0;
#X connect 52 0 46 0;
#X restore 104 302 pd random-pos-go;
#N canvas 716 22 521 757 random-pos-back 0;
#X obj 31 -205 inlet;
#X obj 6 457 pack f f f f f;
#X msg 6 479 setCartesian \$1 \$2 \$3 \$4 \$5;
#X obj 6 501 outlet;
#X obj 107 -170 r \$0-div;
#X obj 31 -154 repeat 10;
#X obj 31 -23 t b f;
#X obj 31 5 repeat 10;
#X obj 114 -50 r \$0-div;
#X obj 114 -27 + 1;
#X obj 31 -123 t b b;
#X obj 31 73 pack f f;
#X obj 31 -89 f 0;
#X obj 59 -90 + 1;
#X msg 71 -122 0;
#X obj 31 38 f 0;
#X obj 59 38 + 1;
#X msg 95 5 0;
#X msg 31 95 \$2 \$1;
#X obj 31 115 unpack;
#X obj 107 114 *;
#X obj 122 63 r \$0-div;
#X obj 122 86 + 1;
#X obj 62 139 t f f;
#X obj 107 139 +;
#X obj 11 141 t f f;
#X obj 89 -90 t b;
#X obj 31 -183 t b b b b;
#X obj 133 168 t f f;
#X obj 133 272 -;
#X obj 196 275 -;
#X obj 259 276 -;
#X obj 133 327 +;
#X obj 196 327 +;
#X obj 259 326 +;
#X obj 207 143 t f f f;
#X obj 270 162 t f f f;
#X obj 333 149 t f f f;
#X obj 207 95 t f f f f;
#X obj 133 198 t f f f;
#X obj 133 298 * 0.1;
#X obj 196 298 * 0.1;
#X obj 259 298 * 0.1;
#X obj 119 437 + 0;
#X obj 83 435 + 0;
#X obj 52 432 + 0;
#X obj 196 387 tabwrite \$0-y;
#X obj 259 361 tabwrite \$0-z;
#X obj 133 361 tabwrite \$0-x;
#X obj 259 227 tabread \$0-zz;
#X obj 196 242 tabread \$0-yy;
#X obj 133 224 tabread \$0-xx;
#X obj 207 121 tabread \$0-x;
#X obj 333 125 tabread \$0-z;
#X obj 270 139 tabread \$0-y;
#X connect 0 0 27 0;
#X connect 1 0 2 0;
#X connect 2 0 3 0;
#X connect 4 0 5 1;
#X connect 5 0 10 0;
#X connect 6 0 7 0;
#X connect 6 1 11 1;
#X connect 7 0 15 0;
#X connect 8 0 9 0;
#X connect 9 0 7 1;
#X connect 10 0 12 0;
#X connect 10 1 17 0;
#X connect 11 0 18 0;
#X connect 12 0 13 0;
#X connect 12 0 6 0;
#X connect 13 0 12 1;
#X connect 14 0 12 1;
#X connect 15 0 16 0;
#X connect 15 0 11 0;
#X connect 16 0 15 1;
#X connect 17 0 15 1;
#X connect 18 0 19 0;
#X connect 19 0 25 0;
#X connect 19 1 23 0;
#X connect 20 0 24 0;
#X connect 21 0 22 0;
#X connect 22 0 20 1;
#X connect 23 0 1 1;
#X connect 23 1 24 1;
#X connect 24 0 28 0;
#X connect 25 0 1 0;
#X connect 25 1 20 0;
#X connect 27 0 5 0;
#X connect 27 2 14 0;
#X connect 28 0 39 0;
#X connect 28 1 38 0;
#X connect 29 0 40 0;
#X connect 30 0 41 0;
#X connect 31 0 42 0;
#X connect 32 0 48 0;
#X connect 33 0 46 0;
#X connect 34 0 47 0;
#X connect 35 0 29 1;
#X connect 35 1 32 1;
#X connect 35 2 45 0;
#X connect 36 0 30 1;
#X connect 36 1 33 1;
#X connect 36 2 44 0;
#X connect 37 0 31 1;
#X connect 37 1 34 1;
#X connect 37 2 43 0;
#X connect 38 0 52 0;
#X connect 38 1 54 0;
#X connect 38 2 53 0;
#X connect 38 3 46 1;
#X connect 38 3 47 1;
#X connect 38 3 48 1;
#X connect 39 0 51 0;
#X connect 39 1 50 0;
#X connect 39 2 49 0;
#X connect 40 0 32 0;
#X connect 41 0 33 0;
#X connect 42 0 34 0;
#X connect 43 0 1 4;
#X connect 44 0 1 3;
#X connect 45 0 1 2;
#X connect 49 0 31 0;
#X connect 50 0 30 0;
#X connect 51 0 29 0;
#X connect 52 0 35 0;
#X connect 53 0 37 0;
#X connect 54 0 36 0;
#X restore 77 348 pd random-pos-back;
#X obj 215 187 s sphere-go;
#X obj 30 223 s toudp;
#X obj 30 197 packOSC;
#X msg 30 171 send /s-a1 \$1;
#X msg 215 155 0;
#X obj 196 50 t f b f;
#X obj 235 81 sel 0;
#X msg 235 105 0;
#X msg 262 105 1;
#X floatatom 163 -103 5 0 0 0 - - -;
#X obj 163 -79 expr (int($f1*100))/100;
#X obj 115 -134 r \$0-stop-noise;
#X obj 25 -58 inlet;
#X msg 163 -53 label Vel=\$1;
#X floatatom 25 -32 5 0 0 0 - - -;
#X obj -105 56 r sphere-signal;
#X obj -138 186 spigot;
#X msg -105 131 1;
#X obj -105 81 sel 1 0;
#X obj -105 159 pipe 100;
#X msg -86 106 0;
#X obj 130 -51 inlet;
#X obj 132 99 outlet;
#X obj -2 38 outlet;
#X obj 59 80 sel 1 0;
#X msg 79 102 0;
#X obj 51 128 v \$0-s-vel;
#X obj 112 234 s ms-5;
#X connect 1 0 14 0;
#X connect 1 0 20 0;
#X connect 1 0 34 0;
#X connect 1 0 37 0;
#X connect 1 0 38 0;
#X connect 3 0 27 0;
#X connect 3 0 33 0;
#X connect 3 0 35 0;
#X connect 4 0 16 0;
#X connect 5 0 10 0;
#X connect 5 1 9 0;
#X connect 7 0 5 0;
#X connect 8 0 6 0;
#X connect 9 0 0 0;
#X connect 10 0 2 0;
#X connect 13 0 12 0;
#X connect 14 0 13 0;
#X connect 15 0 11 0;
#X connect 16 0 9 1;
#X connect 16 1 15 0;
#X connect 16 2 17 0;
#X connect 17 0 18 0;
#X connect 17 1 19 0;
#X connect 18 0 3 0;
#X connect 19 0 3 0;
#X connect 20 0 21 0;
#X connect 21 0 24 0;
#X connect 21 0 4 0;
#X connect 22 0 3 0;
#X connect 23 0 25 0;
#X connect 24 0 1 0;
#X connect 25 0 1 0;
#X connect 26 0 29 0;
#X connect 27 0 8 0;
#X connect 28 0 30 0;
#X connect 29 0 28 0;
#X connect 29 1 31 0;
#X connect 30 0 27 1;
#X connect 31 0 27 0;
#X connect 32 0 3 0;
#X connect 35 0 37 0;
#X connect 35 1 36 0;
#X connect 36 0 14 0;
#X connect 37 0 14 0;
#X coords 0 1 100 -1 130 15 2 0 0;
#X restore 10 101 graph;
#X floatatom 279 177 3 0 0 0 - - -;
#X obj 279 155 expr (($f1+1)*3)+5;
#X obj 69 -147 r sphere-go;
#N canvas 223 32 906 789 (subpatch) 0;
#X obj 328 191 t a a a;
#X obj 229 357 sphere3d 1 10;
#X obj 328 168 r \$0-div;
#X obj 100 169 r \$0-pos;
#N canvas 335 252 524 416 line 0;
#X obj 157 -65 inlet;
#X obj 157 271 outlet;
#X obj 157 194 alpha;
#X obj 155 72 separator;
#X msg 75 238 draw line;
#X obj 298 -83 r \$0-u-r;
#X obj 297 43 unpack f f f f;
#X obj 356 120 t b f;
#X obj 317 152 * 1;
#X obj 356 89 inlet;
#X obj 317 117 f;
#X obj 75 216 loadbang;
#X obj 156 -44 t a b;
#X obj 183 -21 f;
#X obj 208 -22 + 1;
#X obj 183 2 sel 0;
#X obj 302 177 *;
#X obj 379 -78 loadbang;
#X obj 157 241 GEMglLineWidth 1;
#X obj 183 23 randomF 0.3;
#X obj 157 215 colorRGB 1 1 1 0.2;
#X msg 298 16 1 1 1 0.3;
#X obj 184 151 tgl 15 0 empty empty empty 17 7 0 10 -262144 -1 -1 1
1;
#X msg 98 151 auto \$1;
#X obj 301 -60 sel 0 1;
#X msg 100 124 1;
#X msg 321 -12 1 0 0 0.7;
#X obj 90 60 loadbang;
#X obj 183 47 + 0.3;
#X obj 235 -21 % 5;
#X connect 0 0 12 0;
#X connect 2 0 20 0;
#X connect 3 0 2 0;
#X connect 4 0 1 0;
#X connect 5 0 24 0;
#X connect 6 0 20 1;
#X connect 6 1 20 2;
#X connect 6 2 20 3;
#X connect 6 3 10 0;
#X connect 7 0 10 0;
#X connect 7 1 8 1;
#X connect 8 0 16 1;
#X connect 9 0 7 0;
#X connect 10 0 8 0;
#X connect 11 0 4 0;
#X connect 11 0 22 0;
#X connect 12 0 3 0;
#X connect 12 1 13 0;
#X connect 13 0 14 0;
#X connect 13 0 15 0;
#X connect 14 0 29 0;
#X connect 15 0 19 0;
#X connect 16 0 20 4;
#X connect 17 0 21 0;
#X connect 18 0 1 0;
#X connect 19 0 28 0;
#X connect 20 0 18 0;
#X connect 21 0 6 0;
#X connect 22 0 2 1;
#X connect 23 0 2 0;
#X connect 24 0 21 0;
#X connect 24 0 25 0;
#X connect 24 1 26 0;
#X connect 25 0 23 0;
#X connect 26 0 6 0;
#X connect 27 0 25 0;
#X connect 28 0 16 0;
#X connect 29 0 13 1;
#X restore 229 326 pd line;
#X obj -97 351 sphere3d 1 10;
#N canvas 496 225 689 551 fill 0;
#X obj 100 -75 inlet;
#X obj 149 198 outlet;
#X obj 149 125 alpha;
#X obj 149 103 separator;
#X msg 67 169 draw fill;
#X msg -11 65 auto 1;
#X obj 183 -126 s \$0-u-r;
#X obj 379 36 t b f;
#X obj 357 105 * 1;
#X obj 379 5 inlet;
#X obj 357 70 f;
#X obj 263 -240 r reset-sphere;
#X msg 263 -216 0;
#X msg 222 11 \$1 500;
#X obj 222 31 line;
#X obj 263 -154 tgl 15 0 empty empty empty 17 7 0 10 -262144 -1 -1
1 1;
#X obj 67 147 loadbang;
#X obj -11 15 loadbang;
#X obj 222 -11 unpack f f f f;
#X msg 249 59 \$1 500;
#X obj 249 79 line;
#X msg 276 17 \$1 500;
#X obj 276 37 line;
#X obj 101 -45 t a b;
#X obj 128 -22 f;
#X obj 153 -23 + 1;
#X obj 182 -21 % 5;
#X obj 128 1 sel 0;
#X obj 342 127 *;
#X obj 326 -122 loadbang;
#X obj 403 -147 r \$0-u-r;
#X msg 403 -72 \; show-tgl color \$1;
#X obj 403 -122 sel 0 1;
#X msg 435 -101 13;
#X msg 403 -99 22;
#X obj 367 -245 r \$0-data;
#X msg 367 -190 1;
#X obj 367 -221 sel 0 1 2 4;
#X obj 129 22 randomF 0.7;
#X obj 330 27 t b f;
#X floatatom 342 153 5 0 0 0 - - -;
#X obj 263 -121 sel 0 1;
#X obj 46 68 tgl 15 0 empty empty empty 17 7 0 10 -262144 -1 -1 1 1
;
#X msg 256 -67 1 1 1 0.05;
#X obj 149 146 colorRGB 1 1 1 0.05;
#X msg 402 -31 0.1 0.25 0.5 0.3;
#X msg 272 -47 0.05 0.4 0.7 0.5;
#X connect 0 0 23 0;
#X connect 2 0 44 0;
#X connect 3 0 2 0;
#X connect 4 0 1 0;
#X connect 5 0 2 0;
#X connect 7 0 10 0;
#X connect 7 1 8 1;
#X connect 8 0 28 1;
#X connect 9 0 7 0;
#X connect 10 0 8 0;
#X connect 11 0 12 0;
#X connect 12 0 15 0;
#X connect 13 0 14 0;
#X connect 14 0 44 1;
#X connect 15 0 6 0;
#X connect 15 0 41 0;
#X connect 16 0 4 0;
#X connect 17 0 5 0;
#X connect 17 0 42 0;
#X connect 18 0 13 0;
#X connect 18 1 19 0;
#X connect 18 2 21 0;
#X connect 18 3 39 0;
#X connect 19 0 20 0;
#X connect 20 0 44 2;
#X connect 21 0 22 0;
#X connect 22 0 44 3;
#X connect 23 0 3 0;
#X connect 23 1 24 0;
#X connect 24 0 25 0;
#X connect 24 0 27 0;
#X connect 25 0 26 0;
#X connect 26 0 24 1;
#X connect 27 0 38 0;
#X connect 28 0 40 0;
#X connect 28 0 44 4;
#X connect 29 0 43 0;
#X connect 30 0 32 0;
#X connect 32 0 34 0;
#X connect 32 1 33 0;
#X connect 33 0 31 0;
#X connect 34 0 31 0;
#X connect 35 0 37 0;
#X connect 36 0 15 0;
#X connect 37 0 36 0;
#X connect 37 1 36 0;
#X connect 37 2 36 0;
#X connect 37 3 36 0;
#X connect 38 0 28 0;
#X connect 39 0 28 0;
#X connect 39 1 10 0;
#X connect 41 0 43 0;
#X connect 41 1 46 0;
#X connect 42 0 2 1;
#X connect 43 0 18 0;
#X connect 44 0 1 0;
#X connect 46 0 18 0;
#X restore -97 318 pd fill;
#X obj 168 116 k_tgl;
#X obj 0 0 tgl 20 0 empty empty H 6 10 0 14 -258113 -1 -1 1 1;
#X obj 17 100 line;
#X obj -148 168 s toudp;
#X obj -148 142 packOSC;
#X obj 0 38 t f f f f;
#X obj -148 86 s sphere-signal;
#X obj -97 293 scale;
#X obj 229 292 scale;
#X msg 0 -39 0;
#X obj 193 -155 f;
#X obj 149 -156 t a b;
#X obj 192 -131 expr fmod($f1 \, 360);
#X floatatom 192 -109 5 0 0 0 - - -;
#X obj 219 -156 + 0.2;
#X obj 201 116 k_tgl;
#X obj 235 116 k_tgl;
#X obj 17 122 s \$0-sphere-show;
#X obj -58 269 r \$0-sphere-show;
#X obj 268 258 r \$0-sphere-show;
#X obj 149 -52 t a a a a;
#X obj 53 342 separator;
#N canvas 792 153 659 572 pos_1 0;
#X obj 54 481 outlet;
#X obj 328 405 outlet;
#X obj 69 206 tabread \$0-x;
#X obj 96 244 tabread \$0-y;
#X obj 123 275 tabread \$0-z;
#X obj 212 378 tabread \$0-r1;
#X obj 328 336 tabread \$0-r2;
#X obj 356 356 tabread \$0-r3;
#X obj 328 381 pack f f 0;
#X obj 212 408 outlet;
#X obj 107 116 t f f f f f f;
#X obj 54 444 pack f f f;
#X obj 107 80 t f f;
#X obj 107 51 inlet;
#N canvas 366 338 450 300 tran 0;
#X obj -15 132 r \$0-radius;
#X obj -114 87 inlet;
#X obj -104 231 outlet;
#X obj -56 233 outlet;
#X obj -15 231 outlet;
#X obj -76 88 inlet;
#X obj -30 94 inlet;
#X obj -36 181 * 1;
#X obj -84 180 * 1;
#X obj -115 179 * 1;
#X connect 0 0 7 1;
#X connect 0 0 8 1;
#X connect 0 0 9 1;
#X connect 1 0 9 0;
#X connect 5 0 8 0;
#X connect 6 0 7 0;
#X connect 7 0 4 0;
#X connect 8 0 3 0;
#X connect 9 0 2 0;
#X restore 69 351 pd tran;
#X obj 40 389 / 1.5;
#X obj 91 389 / 1.5;
#X obj 136 391 / 1.5;
#X floatatom 139 329 5 0 0 0 - - -;
#X obj 138 305 r \$0-radius;
#X connect 2 0 14 0;
#X connect 3 0 14 1;
#X connect 4 0 14 2;
#X connect 5 0 9 0;
#X connect 6 0 8 0;
#X connect 7 0 8 1;
#X connect 8 0 1 0;
#X connect 10 0 2 0;
#X connect 10 1 3 0;
#X connect 10 2 4 0;
#X connect 10 3 5 0;
#X connect 10 4 6 0;
#X connect 10 5 7 0;
#X connect 11 0 0 0;
#X connect 12 0 10 0;
#X connect 13 0 12 0;
#X connect 14 0 15 0;
#X connect 14 1 16 0;
#X connect 14 2 17 0;
#X connect 15 0 11 0;
#X connect 16 0 11 1;
#X connect 17 0 11 2;
#X connect 18 0 15 1;
#X connect 18 0 16 1;
#X connect 18 0 17 1;
#X connect 19 0 18 0;
#X restore 117 359 pd pos_1;
#X floatatom 219 460 5 0 0 0 - - -;
#X obj 53 465 rotate 0 0 0 0;
#X obj 53 439 translateXYZ;
#X obj 219 436 r \$0-face;
#N canvas 929 207 337 540 counter 0;
#X obj -144 61 t a b;
#X obj -144 33 repeat 10;
#X obj -117 84 f 0;
#X obj -89 85 + 1;
#X obj -153 152 repeat 11;
#X obj -126 201 f 0;
#X obj -99 201 + 1;
#X obj -153 177 t a b;
#X obj -126 225 pack f f;
#X msg -126 252 \$2 \$1;
#X obj -126 272 unpack;
#X obj -91 335 *;
#X obj -76 284 r \$0-div;
#X obj -76 307 + 1;
#X obj -91 360 +;
#X obj -146 -66 inlet;
#X obj -192 352 separator;
#X obj -192 377 outlet;
#X obj -91 410 outlet;
#X obj -93 8 r \$0-div;
#X obj -64 83 r \$0-div;
#X obj -64 106 + 1;
#X msg -79 32 0;
#X obj -145 -21 t a b;
#X obj -151 115 t a b;
#X msg -87 151 0;
#X connect 0 0 24 0;
#X connect 0 1 2 0;
#X connect 1 0 0 0;
#X connect 2 0 3 0;
#X connect 2 0 8 1;
#X connect 3 0 2 1;
#X connect 4 0 7 0;
#X connect 5 0 6 0;
#X connect 5 0 8 0;
#X connect 6 0 5 1;
#X connect 7 0 16 0;
#X connect 7 1 5 0;
#X connect 8 0 9 0;
#X connect 9 0 10 0;
#X connect 10 0 11 0;
#X connect 10 1 14 1;
#X connect 11 0 14 0;
#X connect 12 0 13 0;
#X connect 13 0 11 1;
#X connect 14 0 18 0;
#X connect 15 0 23 0;
#X connect 16 0 17 0;
#X connect 19 0 1 1;
#X connect 20 0 21 0;
#X connect 21 0 4 1;
#X connect 22 0 2 1;
#X connect 23 0 1 0;
#X connect 23 1 22 0;
#X connect 24 0 4 0;
#X connect 24 1 25 0;
#X connect 25 0 5 1;
#X restore 53 304 pd counter;
#X obj 117 332 t f f;
#X obj 76 413 unpack f f f;
#X obj 53 265 separator;
#N canvas 132 77 707 543 rectaangle=============== 0;
#X obj 95 269 alpha;
#X obj 303 41 inlet;
#X floatatom 303 69 5 0 0 0 - - -;
#X obj 76 29 inlet;
#X msg 1 118 auto 1;
#X obj 95 134 separator;
#X obj 48 119 tgl 15 0 empty empty empty 17 7 0 10 -262144 -1 -1 1
1;
#X obj 148 324 * 1;
#X obj 1 78 loadbang;
#X obj 237 35 inlet;
#X obj 149 31 r \$0-c-face;
#X obj 149 58 sel 0 1;
#X obj 121 187 unpack f f f;
#X msg 167 105 0.1 0.4 0.9;
#X obj 76 52 t a a b;
#X obj 148 273 randomF 0.4;
#X obj 148 295 + 0.6;
#X msg 149 82 0.3 0.3 0.3;
#X obj 303 94 / 10;
#X obj 95 344 facing;
#X obj 95 375 pix_image ../img/dot.png;
#X obj 95 404 pix_texture;
#X obj 95 434 scale 1;
#X obj 95 459 square 1;
#X obj 200 219 * 0.9;
#X obj 95 244 colorRGB 1 1 1 0.9;
#X connect 0 0 19 0;
#X connect 1 0 2 0;
#X connect 2 0 18 0;
#X connect 3 0 14 0;
#X connect 4 0 0 0;
#X connect 5 0 25 0;
#X connect 6 0 0 1;
#X connect 7 0 22 1;
#X connect 8 0 4 0;
#X connect 8 0 6 0;
#X connect 9 0 24 0;
#X connect 10 0 11 0;
#X connect 11 0 17 0;
#X connect 11 1 13 0;
#X connect 12 0 25 1;
#X connect 12 1 25 2;
#X connect 12 2 25 3;
#X connect 13 0 12 0;
#X connect 14 1 5 0;
#X connect 14 2 15 0;
#X connect 15 0 16 0;
#X connect 16 0 7 0;
#X connect 17 0 12 0;
#X connect 18 0 7 1;
#X connect 19 0 20 0;
#X connect 20 0 21 0;
#X connect 21 0 22 0;
#X connect 22 0 23 0;
#X connect 24 0 25 4;
#X connect 25 0 0 0;
#X restore 53 488 pd rectaangle===============;
#X obj 282 429 loadbang;
#X obj 178 396 r \$0-sphere-show;
#X msg 283 452 0.1;
#X obj 0 -69 loadbang;
#X obj 200 -26 s \$0-gemhead;
#X obj 149 -78 rotateXYZ 0 0 0;
#X msg 17 76 \$1 5000;
#X obj 83 -32 t f f f;
#X obj 12 -244 sel 0 1;
#X obj 12 -169 del 6000;
#X obj 12 -127 v \$0-tgl-gem;
#X obj 89 -177 t b b;
#X obj 12 -215 t b b;
#X msg 116 -157 1;
#X msg 39 -195 0;
#X msg -148 117 send /s-a6 \$1;
#X obj 149 -180 gemhead 2;
#X obj -107 -95 s \$0-stop-noise;
#X msg -107 -125 0;
#X obj 100 194 t a a;
#X obj -71 -39 inlet;
#X obj -29 166 outlet;
#X connect 0 0 5 2;
#X connect 0 2 1 2;
#X connect 2 0 0 0;
#X connect 3 0 58 0;
#X connect 4 0 1 0;
#X connect 6 0 5 0;
#X connect 7 0 14 0;
#X connect 8 0 12 0;
#X connect 8 0 60 0;
#X connect 9 0 24 0;
#X connect 11 0 10 0;
#X connect 12 0 13 0;
#X connect 12 1 45 0;
#X connect 12 2 54 0;
#X connect 12 3 47 0;
#X connect 14 0 6 0;
#X connect 15 0 4 0;
#X connect 16 0 8 0;
#X connect 17 0 19 0;
#X connect 17 0 21 0;
#X connect 18 0 44 0;
#X connect 18 1 17 0;
#X connect 19 0 20 0;
#X connect 20 0 44 1;
#X connect 20 0 44 2;
#X connect 20 0 44 3;
#X connect 21 0 17 1;
#X connect 22 0 37 0;
#X connect 23 0 15 0;
#X connect 25 0 14 1;
#X connect 25 0 6 1;
#X connect 26 0 15 1;
#X connect 26 0 4 1;
#X connect 27 0 7 0;
#X connect 27 1 22 0;
#X connect 27 2 23 0;
#X connect 27 3 43 0;
#X connect 28 0 32 0;
#X connect 29 0 36 0;
#X connect 29 1 31 1;
#X connect 29 2 31 2;
#X connect 30 0 38 2;
#X connect 31 0 38 0;
#X connect 32 0 31 0;
#X connect 33 0 30 0;
#X connect 34 0 28 0;
#X connect 34 1 35 0;
#X connect 35 0 29 0;
#X connect 36 0 32 1;
#X connect 36 1 32 2;
#X connect 36 2 32 3;
#X connect 37 0 34 0;
#X connect 39 0 41 0;
#X connect 40 0 38 1;
#X connect 41 0 30 0;
#X connect 42 0 16 0;
#X connect 44 0 27 0;
#X connect 45 0 9 0;
#X connect 46 0 7 1;
#X connect 46 1 22 1;
#X connect 46 2 23 1;
#X connect 47 0 51 0;
#X connect 47 1 50 0;
#X connect 48 0 49 0;
#X connect 48 0 57 0;
#X connect 49 0 46 0;
#X connect 50 0 49 0;
#X connect 50 1 52 0;
#X connect 51 0 48 0;
#X connect 51 1 53 0;
#X connect 52 0 49 0;
#X connect 53 0 49 0;
#X connect 54 0 11 0;
#X connect 55 0 18 0;
#X connect 57 0 56 0;
#X connect 58 0 5 0;
#X connect 58 1 1 0;
#X connect 59 0 8 0;
#X coords 0 1 100 -1 20 20 1 0 0;
#X restore 122 22 graph;
#N canvas 613 175 525 516 set-origon 0;
#X obj -84 -223 r \$0-div;
#X obj -150 -194 repeat 10;
#X obj -187 191 s \$0-pos;
#X obj -150 -95 t b f;
#X obj -150 -67 repeat 10;
#X obj -67 -122 r \$0-div;
#X obj -67 -99 + 1;
#X obj -150 -163 t b b;
#X obj -150 1 pack f f;
#X obj -150 -129 f 0;
#X obj -122 -130 + 1;
#X msg -110 -162 0;
#X obj -150 -34 f 0;
#X obj -122 -34 + 1;
#X msg -86 -67 0;
#X msg -150 23 \$2 \$1;
#X obj -150 43 unpack;
#X obj -66 0 *;
#X obj -51 -51 r \$0-div;
#X obj -51 -28 + 1;
#X obj -119 67 t f f;
#X obj -66 25 +;
#X obj -170 69 t f f;
#X floatatom -66 48 5 0 0 0 - - -;
#X floatatom -119 91 5 0 0 0 - - -;
#X floatatom -170 91 5 0 0 0 - - -;
#N canvas 9 166 1217 623 math-pos======== 0;
#X obj 108 69 inlet;
#X obj 224 66 inlet;
#X obj 332 41 r \$0-div;
#X obj 332 66 expr 1/ $f1;
#X floatatom 332 91 5 0 0 0 - - -;
#X obj 263 120 expr $f1*$f2;
#X obj 234 154 f;
#X obj 354 147 expr ($f1+1)*$f2;
#X obj 354 174 f;
#X obj 450 351 expr cos($f1);
#X obj 252 310 expr sin($f1)*sin($f2);
#X obj 233 348 expr sin($f1)*cos($f2);
#X obj 101 560 outlet;
#X obj 234 220 deg2rad;
#X obj 234 247 / 2;
#X obj 234 197 * 360;
#X obj 354 217 * 360;
#X obj 354 239 deg2rad;
#X floatatom 354 194 5 0 0 0 - - -;
#X floatatom 234 176 5 0 0 0 - - -;
#X obj 448 377 * 1;
#X obj 344 371 * 1;
#X obj 233 379 * 1;
#X msg 101 522 setCartesian \$1 \$2 \$3 \$4 \$5;
#X obj 233 403 t f f;
#X obj 344 399 t f f;
#X obj 448 406 t f f;
#X obj 108 91 t f b f;
#X obj 224 90 t f b f;
#X obj 101 496 pack f f f f f f;
#X obj 494 421 buddy 2;
#X obj 372 424 buddy 2;
#X obj 260 427 buddy 2;
#X obj 676 155 inlet radius;
#X obj 473 147 inlet index;
#X obj 745 470 expr -1*sin($f1);
#X obj 865 465 expr 1*cos($f1);
#X obj 649 455 rad2deg;
#X obj 745 431 t f f;
#X obj 649 482 buddy 2;
#X obj 649 513 tabwrite \$0-r1;
#X obj 745 503 buddy 2;
#X obj 865 504 buddy 2;
#X obj 745 531 tabwrite \$0-r2;
#X obj 865 533 tabwrite \$0-r3;
#X obj 473 197 t f f f f f f f;
#X obj 676 178 t f f f;
#X obj 354 273 t f f f;
#X text 257 245 \$0-theta_motion;
#X text 398 218 \$0-phi_motion;
#X obj 233 274 t f f f f;
#X obj 260 452 t f f;
#X obj 304 449 t f f;
#X obj 287 511 tabwrite \$0-xx;
#X obj 260 485 tabwrite \$0-x;
#X obj 375 461 t f f;
#X obj 419 458 t f f;
#X obj 494 447 t f f;
#X obj 538 444 t f f;
#X obj 375 494 tabwrite \$0-y;
#X obj 402 520 tabwrite \$0-yy;
#X obj 494 480 tabwrite \$0-z;
#X obj 521 506 tabwrite \$0-zz;
#X connect 0 0 27 0;
#X connect 1 0 28 0;
#X connect 2 0 3 0;
#X connect 3 0 4 0;
#X connect 4 0 5 1;
#X connect 4 0 7 1;
#X connect 5 0 6 0;
#X connect 6 0 19 0;
#X connect 7 0 8 0;
#X connect 8 0 18 0;
#X connect 9 0 20 0;
#X connect 10 0 21 0;
#X connect 11 0 22 0;
#X connect 13 0 14 0;
#X connect 14 0 50 0;
#X connect 15 0 13 0;
#X connect 16 0 17 0;
#X connect 17 0 47 0;
#X connect 18 0 16 0;
#X connect 19 0 15 0;
#X connect 20 0 26 0;
#X connect 21 0 25 0;
#X connect 22 0 24 0;
#X connect 23 0 12 0;
#X connect 24 0 29 2;
#X connect 24 1 32 0;
#X connect 25 0 29 3;
#X connect 25 1 31 0;
#X connect 26 0 29 4;
#X connect 26 1 30 0;
#X connect 27 0 29 0;
#X connect 27 2 7 0;
#X connect 28 0 29 1;
#X connect 28 2 5 0;
#X connect 29 0 23 0;
#X connect 30 0 57 0;
#X connect 30 1 58 0;
#X connect 31 0 55 0;
#X connect 31 1 56 0;
#X connect 32 0 51 0;
#X connect 32 1 52 0;
#X connect 33 0 46 0;
#X connect 34 0 45 0;
#X connect 35 0 41 0;
#X connect 36 0 42 0;
#X connect 37 0 39 0;
#X connect 38 0 35 0;
#X connect 38 1 36 0;
#X connect 39 0 40 0;
#X connect 39 1 40 1;
#X connect 41 0 43 0;
#X connect 41 1 43 1;
#X connect 42 0 44 0;
#X connect 42 1 44 1;
#X connect 45 0 29 5;
#X connect 45 1 32 1;
#X connect 45 2 31 1;
#X connect 45 3 30 1;
#X connect 45 4 39 1;
#X connect 45 5 41 1;
#X connect 45 6 42 1;
#X connect 46 0 22 1;
#X connect 46 1 21 1;
#X connect 46 2 20 1;
#X connect 47 0 11 1;
#X connect 47 1 10 1;
#X connect 47 2 38 0;
#X connect 50 0 11 0;
#X connect 50 1 10 0;
#X connect 50 2 9 0;
#X connect 50 3 37 0;
#X connect 51 0 54 0;
#X connect 51 1 53 0;
#X connect 52 0 54 1;
#X connect 52 1 53 1;
#X connect 55 0 59 0;
#X connect 55 1 60 0;
#X connect 56 0 59 1;
#X connect 56 1 60 1;
#X connect 57 0 61 0;
#X connect 57 1 62 0;
#X connect 58 0 61 1;
#X connect 58 1 62 1;
#X restore -187 153 pd math-pos========;
#X obj -150 -223 t b b;
#X obj -66 68 t f f;
#X obj -150 -256 inlet;
#N canvas 690 160 609 414 radius==== 0;
#X obj 79 -15 inlet;
#X obj 79 368 outlet;
#X obj 160 48 r \$0-div;
#X obj 137 153 % 4;
#X obj 160 98 + 1;
#X floatatom 137 178 5 0 0 0 - - -;
#X obj 79 58 t f f f;
#X obj 97 145 > 5;
#X obj 79 168 *;
#X obj 79 190 i;
#X floatatom 79 212 5 0 0 0 - - -;
#X obj 79 305 *;
#X obj 245 52 inlet;
#X floatatom 245 79 5 0 0 0 - - -;
#X obj 302 54 inlet;
#X floatatom 302 81 5 0 0 0 - - -;
#X obj 378 57 inlet;
#X obj 136 200 expr if($f1%2==0 \, 1 \, $f2);
#X floatatom 378 83 5 0 0 0 - - -;
#X obj 79 336 * 1;
#X floatatom 160 73 5 0 0 0 - - -;
#X obj 79 122 / 4;
#X obj 79 242 expr if($f1%2==0 \, 1 \, $f2);
#X connect 0 0 6 0;
#X connect 2 0 20 0;
#X connect 3 0 5 0;
#X connect 4 0 3 1;
#X connect 4 0 21 1;
#X connect 5 0 17 0;
#X connect 6 0 21 0;
#X connect 6 1 3 0;
#X connect 6 2 7 0;
#X connect 7 0 8 1;
#X connect 8 0 9 0;
#X connect 9 0 10 0;
#X connect 10 0 22 0;
#X connect 11 0 19 0;
#X connect 12 0 13 0;
#X connect 13 0 22 1;
#X connect 14 0 15 0;
#X connect 15 0 17 1;
#X connect 16 0 18 0;
#X connect 17 0 11 1;
#X connect 18 0 19 1;
#X connect 19 0 1 0;
#X connect 20 0 4 0;
#X connect 20 0 7 1;
#X connect 21 0 8 0;
#X connect 22 0 11 0;
#X restore -39 108 pd radius====;
#X obj 36 84 r \$0-radius;
#X obj 55 60 s sphere-go;
#X obj 45 -40 r \$0-one;
#X obj -14 -13 r \$0-two;
#X floatatom -14 10 5 0 0 0 - - -;
#X floatatom 45 -16 5 0 0 0 - - -;
#X obj -14 33 k_spring 0.6;
#X obj 45 10 k_spring 0.6;
#X connect 0 0 1 1;
#X connect 1 0 7 0;
#X connect 3 0 4 0;
#X connect 3 1 8 1;
#X connect 4 0 12 0;
#X connect 5 0 6 0;
#X connect 6 0 4 1;
#X connect 7 0 9 0;
#X connect 7 1 14 0;
#X connect 8 0 15 0;
#X connect 9 0 10 0;
#X connect 9 0 3 0;
#X connect 10 0 9 1;
#X connect 11 0 9 1;
#X connect 12 0 13 0;
#X connect 12 0 8 0;
#X connect 13 0 12 1;
#X connect 14 0 12 1;
#X connect 15 0 16 0;
#X connect 16 0 22 0;
#X connect 16 1 20 0;
#X connect 17 0 21 0;
#X connect 18 0 19 0;
#X connect 19 0 17 1;
#X connect 20 0 24 0;
#X connect 20 1 21 1;
#X connect 21 0 23 0;
#X connect 22 0 25 0;
#X connect 22 1 17 0;
#X connect 23 0 28 0;
#X connect 24 0 26 1;
#X connect 25 0 26 0;
#X connect 26 0 2 0;
#X connect 27 0 1 0;
#X connect 27 1 11 0;
#X connect 28 0 26 2;
#X connect 28 1 30 0;
#X connect 29 0 27 0;
#X connect 30 0 26 3;
#X connect 31 0 30 3;
#X connect 33 0 36 0;
#X connect 34 0 35 0;
#X connect 35 0 37 0;
#X connect 36 0 38 0;
#X connect 37 0 30 1;
#X connect 37 1 32 0;
#X connect 38 0 30 2;
#X connect 38 1 32 0;
#X restore -148 214 pd set-origon;
#N canvas 378 401 557 348 (subpatch) 0;
#X obj 3 0 hsl 100 15 0.05 6 0 0 empty empty num=1 8 8 0 10 -262144
-1 -1 1581 1;
#X floatatom 0 22 5 0 0 0 - - -;
#X obj -77 161 s toudp;
#X obj -77 135 packOSC;
#X msg -77 109 send /s-a2 \$1;
#X obj 86 129 s sphere-go;
#X msg 28 71 1;
#X floatatom 17 131 5 0 0 0 - - -;
#X obj 17 95 k_spring 0.6;
#X obj 0 -99 inlet;
#X floatatom 0 -75 5 0 0 0 - - -;
#X obj -103 -42 expr int($f1*100)/100;
#X obj 17 155 s \$0-radius;
#X msg -103 20 label num=\$1;
#X obj 1 44 t f b f;
#X obj 180 139 outlet;
#X obj 72 194 s ms-1;
#X connect 0 0 1 0;
#X connect 1 0 14 0;
#X connect 3 0 2 0;
#X connect 4 0 3 0;
#X connect 6 0 5 0;
#X connect 7 0 12 0;
#X connect 8 0 7 0;
#X connect 8 1 5 0;
#X connect 9 0 10 0;
#X connect 10 0 0 0;
#X connect 11 0 13 0;
#X connect 13 0 0 0;
#X connect 14 0 4 0;
#X connect 14 0 8 0;
#X connect 14 0 11 0;
#X connect 14 1 6 0;
#X connect 14 2 15 0;
#X connect 14 2 16 0;
#X coords 0 1 100 -1 105 15 1 0 0;
#X restore 10 24 graph;
#X obj -4 154 tgl 15 0 empty show-tgl sel 16 7 0 10 -258699 -99865
-262144 0 1;
#X obj 117 -125 r sphere-signal;
#X obj 69 -99 change;
#X obj 166 27 table \$0-x 3000;
#X obj 167 51 table \$0-y 3000;
#X obj 168 73 table \$0-z 3000;
#X obj 168 99 table \$0-xx 3000;
#X obj 169 121 table \$0-yy 3000;
#X obj 170 144 table \$0-zz 3000;
#X obj 276 32 table \$0-r1 1000;
#X obj 278 51 table \$0-r2 1000;
#X obj 279 74 table \$0-r3 1000;
#X obj 279 101 loadbang;
#X obj 69 -124 spigot;
#X obj 170 -28 spigot;
#X obj 203 -48 tgl 15 0 empty empty empty 17 7 0 10 -262144 -1 -1 1
1;
#X obj 170 -76 r hid;
#X obj 222 -49 r sphere-signal;
#X obj 170 -3 s \$0-gemkey;
#N canvas 784 240 656 425 (subpatch) 0;
#X obj 3 0 hsl 100 15 0.01 1 0 0 empty empty point=1 5 7 0 10 -262144
-1 -1 9900 1;
#X obj -31 1 tgl 14 0 empty show-tgl2 empty 0 -6 0 10 -1 -1 -262144
0 1;
#X floatatom 126 103 5 0 0 0 - - -;
#X obj 126 152 s \$0-face;
#X obj 29 154 s toudp;
#X obj 29 128 packOSC;
#X msg 29 99 send /s-a5 \$1;
#X obj -151 101 expr (int($f1*100))/100;
#X obj 69 -186 r reset-sphere;
#X msg 69 -161 0;
#X obj 69 -120 tgl 15 0 empty empty empty 17 7 0 10 -262144 -1 -1 0
1;
#X obj 157 -102 sel 0 1;
#X msg 189 -80 13;
#X msg 157 -79 22;
#X msg 157 -52 \; show-tgl2 color \$1;
#X obj 69 -86 s \$0-c-face;
#X obj 126 76 k_spring 0.6;
#X obj -20 -80 inlet;
#X msg -151 130 label point=\$1;
#X obj 171 -190 r \$0-data;
#X msg 171 -137 1;
#X obj 171 -166 sel 3;
#X obj -19 169 outlet;
#X obj 0 28 t f f f;
#X obj 94 182 s ms-4;
#X connect 0 0 23 0;
#X connect 2 0 3 0;
#X connect 5 0 4 0;
#X connect 6 0 5 0;
#X connect 7 0 18 0;
#X connect 8 0 9 0;
#X connect 9 0 10 0;
#X connect 10 0 11 0;
#X connect 10 0 15 0;
#X connect 11 0 13 0;
#X connect 11 1 12 0;
#X connect 12 0 14 0;
#X connect 13 0 14 0;
#X connect 16 0 2 0;
#X connect 17 0 0 0;
#X connect 18 0 0 0;
#X connect 19 0 21 0;
#X connect 20 0 10 0;
#X connect 21 0 20 0;
#X connect 23 0 7 0;
#X connect 23 1 6 0;
#X connect 23 1 16 0;
#X connect 23 2 22 0;
#X connect 23 2 24 0;
#X coords 0 1 100 -1 105 15 1 0 0;
#X restore 10 81 graph;
#X obj -148 174 metro 50;
#X obj -115 -4 r sphere-signal;
#X obj -148 126 spigot;
#X msg -115 71 1;
#X obj -115 21 sel 1 0;
#X msg -96 46 0;
#N canvas 264 22 1176 795 tempo 0;
#X obj 407 129 outlet;
#X obj 468 131 outlet;
#X obj 522 136 outlet;
#X obj 583 136 outlet;
#X obj 192 218 text2d;
#X obj 192 77 colorRGB 1 1 1 0;
#X obj 192 28 gemhead -1;
#X obj 192 129 alpha;
#X obj -107 -316 t a a;
#X obj -113 -271 spigot;
#X obj -113 -225 change;
#X obj -113 -203 sel 1;
#X obj -80 -293 route key_226;
#X obj -68 -225 change;
#X obj -68 -203 sel 1;
#X obj -22 -225 change;
#X obj -22 -203 sel 1;
#X obj 24 -225 change;
#X obj 24 -203 sel 1;
#X msg -139 -133 0;
#X msg -100 -131 1;
#X msg -59 -132 2;
#X msg -9 -132 3;
#X obj -139 -100 s \$0-data;
#X obj 142 -369 r \$0-data;
#X obj -42 4 spigot;
#X obj 57 -62 spigot;
#X obj 121 -12 spigot;
#X obj 174 -58 spigot;
#X floatatom 46 -321 5 0 0 0 - - -;
#X obj 332 -516 r mouseright;
#X obj 332 -437 sel 0;
#X obj 46 -301 moses 0.0001;
#X floatatom 153 -276 5 0 0 0 - - -;
#X floatatom 217 -413 5 0 0 0 - - -;
#X obj 217 -389 moses 0.0001;
#X floatatom 286 -367 5 0 0 0 - - -;
#X obj 286 -347 / 4;
#X floatatom 153 -154 5 0 0 0 - - -;
#X obj 155 -251 / 2;
#X floatatom 142 -349 5 0 0 0 - - -;
#X obj 46 -367 r forceytext;
#X obj 217 -458 r forcextext;
#X obj 441 -462 v forcey;
#X obj 359 -384 v forcex;
#X obj 359 -361 / 2;
#X obj 580 -340 r \$0-data;
#X floatatom 580 -320 5 0 0 0 - - -;
#X floatatom 526 -222 5 0 0 0 - - -;
#X obj 539 -125 spigot;
#X obj 582 -71 spigot;
#X obj 634 -68 spigot;
#X obj 690 -62 spigot;
#X obj 322 -136 s \$0-data;
#X obj 356 33 r \$0-data;
#X msg 356 87 0;
#X msg 384 87 1;
#X obj 192 159 k_tgl;
#X floatatom 539 -49 5 0 0 0 - - -;
#X floatatom 582 -41 5 0 0 0 - - -;
#X floatatom 634 -40 5 0 0 0 - - -;
#X floatatom 690 -37 5 0 0 0 - - -;
#X obj 322 -187 del 100;
#X obj 332 -415 t b b b;
#X obj 363 -274 spigot;
#X obj 396 -294 tgl 15 0 empty empty empty 17 7 0 10 -262144 -1 -1
1 1;
#X obj 359 -338 t f f;
#X floatatom 363 -248 5 0 0 0 - - -;
#X obj 445 -359 spigot;
#X obj 478 -376 tgl 15 0 empty empty empty 17 7 0 10 -262144 -1 -1
0 1;
#X obj 441 -420 t f f;
#X floatatom 445 -337 5 0 0 0 - - -;
#X obj 142 -326 t b f;
#X obj 478 -397 expr if(abs($f1)>0.01 \, 1 \, 0);
#X obj 386 -316 expr if(abs($f1)>0.01 \, 1 \, 0);
#X obj 442 -52 sel 1;
#X obj 332 -483 spigot;
#X obj 766 -235 s mousestate;
#X obj 767 -280 t b;
#X msg 767 -258 1;
#X obj 507 -492 r x_size;
#X obj 507 -470 / 2;
#X floatatom 507 -447 5 0 0 0 - - -;
#X obj 441 -440 / 2;
#X obj 71 -222 change;
#X obj 71 -200 sel 1;
#X msg 29 -132 4;
#X obj 194 -155 unpack f f f f f;
#X obj 246 -92 spigot;
#X obj 194 -288 sel 0 1 2 3 4 5;
#X msg 284 -253 0 0 0 0 0;
#X msg 194 -264 1 0 0 0 0;
#X msg 209 -239 0 1 0 0 0;
#X msg 225 -216 0 0 1 0 0;
#X msg 241 -191 0 0 0 1 0;
#X msg 287 -226 0 0 0 0 1;
#X msg 322 -163 5;
#X obj 442 -76 r sphere-signal;
#X obj 677 136 outlet;
#X obj 442 -26 t b b b b b;
#X obj -139 -21 s data-info;
#X obj -139 -72 r \$0-data;
#X obj 388 -136 s reset-sphere;
#X obj 580 -164 unpack f f f f f;
#X obj 580 -297 sel 0 1 2 3 4 5;
#X msg 658 -270 0 0 0 0 1;
#X msg 580 -273 1 0 0 0 0;
#X msg 595 -248 0 1 0 0 0;
#X msg 611 -225 0 0 1 0 0;
#X msg 627 -200 0 0 0 1 0;
#X msg 689 -241 0 0 0 0 0;
#X obj 753 -89 spigot;
#X floatatom 753 -38 5 0 0 0 - - -;
#X obj 753 -62 * 2;
#X obj 311 -19 r \$0-sphere-show;
#X obj 356 63 sel 5;
#X obj -107 -367 r \$0-gemkey;
#X obj 381 -484 r sphere-signal;
#X msg -139 -46 8;
#X text 589 -17 two;
#X text 633 -15 one;
#X text 751 -16 vel;
#X text 688 -14 point;
#X text 535 -20 radius;
#X obj 583 57 + 1;
#X obj 634 57 + 1;
#X msg 174 -36 text StarPoint=\$1;
#X msg 246 -70 text StarVel=\$1;
#X msg 528 19 1;
#X msg 489 -6 1.1;
#X msg 474 17 1.1;
#X msg 457 46 0.03;
#X obj 192 53 translateXYZ 0 -1.5 0;
#X obj -113 -247 route key_17 key_26 key_11 key_19 key_25;
#X msg -42 30 text StarNum=\$1;
#X obj -17 156 loadbang;
#X msg -25 192 font ACaslonPro-BoldItalic.otf;
#X msg 57 -38 text StarW=\$1;
#X msg 121 8 text StarH=\$1;
#X msg 442 69 0.04;
#X obj 539 -79 * 6;
#N canvas 493 477 623 295 control-in 0;
#X msg 168 -27 0;
#X obj 141 -57 t f b;
#X obj 203 -53 t f b;
#X obj 249 -52 t f b;
#X obj 298 -51 t f b;
#X obj 231 60 outlet;
#X floatatom 143 34 5 0 0 0 - - -;
#X obj 142 58 outlet;
#X msg 323 -22 3;
#X msg 274 -23 2;
#X msg 230 -23 1;
#X obj 141 -79 r ms-1;
#X obj 352 -51 t f b;
#X msg 377 -22 4;
#X obj 203 -75 r ms-2;
#X obj 249 -74 r ms-3;
#X obj 298 -73 r ms-4;
#X obj 352 -73 r ms-5;
#X obj 305 165 s \$0-showtxt;
#X obj 306 55 t b b;
#X msg 333 80 1;
#X msg 303 131 0;
#X obj 303 108 del 500;
#X connect 0 0 5 0;
#X connect 1 0 6 0;
#X connect 1 1 0 0;
#X connect 2 0 6 0;
#X connect 2 1 10 0;
#X connect 3 0 6 0;
#X connect 3 1 9 0;
#X connect 4 0 6 0;
#X connect 4 1 8 0;
#X connect 6 0 7 0;
#X connect 6 0 19 0;
#X connect 8 0 5 0;
#X connect 9 0 5 0;
#X connect 10 0 5 0;
#X connect 11 0 1 0;
#X connect 12 0 6 0;
#X connect 12 1 13 0;
#X connect 13 0 5 0;
#X connect 14 0 2 0;
#X connect 15 0 3 0;
#X connect 16 0 4 0;
#X connect 17 0 12 0;
#X connect 19 0 22 0;
#X connect 19 1 20 0;
#X connect 20 0 18 0;
#X connect 21 0 18 0;
#X connect 22 0 21 0;
#X restore 92 -415 pd control-in;
#N canvas 761 260 641 524 scale 0;
#X obj 355 151 sel 0 1;
#X obj 352 208 line;
#X obj 359 120 change;
#X floatatom 351 268 5 0 0 0 - - -;
#X obj 352 345 > 0;
#X obj 351 382 outlet;
#X obj 363 72 r \$0-showtxt;
#X obj 353 300 * 25;
#X obj 437 381 outlet;
#X msg 355 179 1 \, 0 300;
#X msg 437 178 0 \, 1 300;
#X obj 433 206 line;
#X obj 432 236 outbounce;
#X obj 351 238 inbounce;
#X connect 0 0 9 0;
#X connect 0 1 10 0;
#X connect 1 0 13 0;
#X connect 2 0 0 0;
#X connect 3 0 7 0;
#X connect 4 0 5 0;
#X connect 6 0 2 0;
#X connect 7 0 4 0;
#X connect 7 0 8 0;
#X connect 9 0 1 0;
#X connect 10 0 11 0;
#X connect 11 0 12 0;
#X connect 12 0 3 0;
#X connect 13 0 3 0;
#X restore 305 158 pd scale;
#X connect 5 0 7 0;
#X connect 6 0 132 0;
#X connect 7 0 57 0;
#X connect 8 0 9 0;
#X connect 8 1 12 0;
#X connect 9 0 133 0;
#X connect 10 0 11 0;
#X connect 11 0 19 0;
#X connect 12 0 9 1;
#X connect 13 0 14 0;
#X connect 14 0 20 0;
#X connect 15 0 16 0;
#X connect 16 0 21 0;
#X connect 17 0 18 0;
#X connect 18 0 22 0;
#X connect 19 0 23 0;
#X connect 20 0 23 0;
#X connect 21 0 23 0;
#X connect 22 0 23 0;
#X connect 24 0 40 0;
#X connect 25 0 134 0;
#X connect 26 0 137 0;
#X connect 27 0 138 0;
#X connect 28 0 126 0;
#X connect 29 0 32 0;
#X connect 30 0 76 0;
#X connect 31 0 63 0;
#X connect 32 1 33 0;
#X connect 33 0 39 0;
#X connect 34 0 35 0;
#X connect 35 1 36 0;
#X connect 36 0 37 0;
#X connect 37 0 38 0;
#X connect 38 0 25 0;
#X connect 38 0 26 0;
#X connect 38 0 27 0;
#X connect 38 0 28 0;
#X connect 38 0 88 0;
#X connect 39 0 38 0;
#X connect 40 0 72 0;
#X connect 41 0 29 0;
#X connect 42 0 34 0;
#X connect 43 0 83 0;
#X connect 44 0 45 0;
#X connect 45 0 66 0;
#X connect 46 0 47 0;
#X connect 46 0 78 0;
#X connect 47 0 104 0;
#X connect 48 0 49 0;
#X connect 48 0 50 0;
#X connect 48 0 51 0;
#X connect 48 0 52 0;
#X connect 48 0 111 0;
#X connect 49 0 140 0;
#X connect 50 0 59 0;
#X connect 51 0 60 0;
#X connect 52 0 61 0;
#X connect 54 0 115 0;
#X connect 55 0 57 1;
#X connect 56 0 57 1;
#X connect 57 0 4 0;
#X connect 58 0 98 0;
#X connect 59 0 124 0;
#X connect 60 0 125 0;
#X connect 61 0 1 0;
#X connect 62 0 96 0;
#X connect 62 0 102 0;
#X connect 63 0 62 0;
#X connect 63 1 44 0;
#X connect 63 2 43 0;
#X connect 64 0 67 0;
#X connect 65 0 64 1;
#X connect 66 0 64 0;
#X connect 66 1 74 0;
#X connect 67 0 48 0;
#X connect 68 0 71 0;
#X connect 69 0 68 1;
#X connect 70 0 68 0;
#X connect 70 1 73 0;
#X connect 71 0 48 0;
#X connect 72 0 38 0;
#X connect 72 1 89 0;
#X connect 73 0 69 0;
#X connect 74 0 65 0;
#X connect 75 0 99 0;
#X connect 76 0 31 0;
#X connect 78 0 79 0;
#X connect 79 0 77 0;
#X connect 80 0 81 0;
#X connect 81 0 82 0;
#X connect 82 0 45 1;
#X connect 83 0 70 0;
#X connect 84 0 85 0;
#X connect 85 0 86 0;
#X connect 86 0 23 0;
#X connect 87 0 25 1;
#X connect 87 1 26 1;
#X connect 87 2 27 1;
#X connect 87 3 28 1;
#X connect 87 4 88 1;
#X connect 88 0 127 0;
#X connect 89 0 91 0;
#X connect 89 1 92 0;
#X connect 89 2 93 0;
#X connect 89 3 94 0;
#X connect 89 4 95 0;
#X connect 89 5 90 0;
#X connect 90 0 87 0;
#X connect 91 0 87 0;
#X connect 92 0 87 0;
#X connect 93 0 87 0;
#X connect 94 0 87 0;
#X connect 95 0 87 0;
#X connect 96 0 53 0;
#X connect 97 0 75 0;
#X connect 99 0 139 0;
#X connect 99 1 131 0;
#X connect 99 2 130 0;
#X connect 99 3 129 0;
#X connect 99 4 128 0;
#X connect 101 0 118 0;
#X connect 103 0 49 1;
#X connect 103 1 50 1;
#X connect 103 2 51 1;
#X connect 103 3 52 1;
#X connect 103 4 111 1;
#X connect 104 0 106 0;
#X connect 104 1 107 0;
#X connect 104 2 108 0;
#X connect 104 3 109 0;
#X connect 104 4 105 0;
#X connect 104 5 110 0;
#X connect 105 0 103 0;
#X connect 106 0 103 0;
#X connect 107 0 103 0;
#X connect 108 0 103 0;
#X connect 109 0 103 0;
#X connect 110 0 103 0;
#X connect 111 0 113 0;
#X connect 112 0 0 0;
#X connect 113 0 112 0;
#X connect 114 0 5 4;
#X connect 115 0 55 0;
#X connect 115 1 56 0;
#X connect 116 0 8 0;
#X connect 117 0 76 1;
#X connect 118 0 100 0;
#X connect 124 0 3 0;
#X connect 125 0 2 0;
#X connect 126 0 4 0;
#X connect 127 0 4 0;
#X connect 128 0 98 0;
#X connect 129 0 3 0;
#X connect 130 0 2 0;
#X connect 131 0 1 0;
#X connect 132 0 5 0;
#X connect 133 0 10 0;
#X connect 133 1 13 0;
#X connect 133 2 15 0;
#X connect 133 3 17 0;
#X connect 133 4 84 0;
#X connect 134 0 4 0;
#X connect 135 0 136 0;
#X connect 136 0 4 0;
#X connect 137 0 4 0;
#X connect 138 0 4 0;
#X connect 139 0 0 0;
#X connect 140 0 58 0;
#X connect 141 0 38 0;
#X connect 141 1 89 0;
#X connect 142 0 57 1;
#X connect 142 1 4 1;
#X restore -114 -76 pd tempo;
#N canvas 155 413 450 300 (subpatch) 0;
#X obj 3 0 hsl 100 15 1 2 0 0 empty empty width 8 8 0 10 -262144 -1
-1 6690 1;
#X obj -25 106 s toudp;
#X obj -25 80 packOSC;
#X msg -25 53 send /s-a4 \$1;
#X obj 83 55 s \$0-two;
#X obj 0 -51 inlet;
#X floatatom 65 90 5 0 0 0 - - -;
#X obj 8 143 outlet;
#X obj 82 205 s ms-2;
#X connect 0 0 3 0;
#X connect 0 0 4 0;
#X connect 0 0 6 0;
#X connect 2 0 1 0;
#X connect 3 0 2 0;
#X connect 5 0 0 0;
#X connect 6 0 7 0;
#X connect 6 0 8 0;
#X coords 0 1 100 -1 105 15 1 0 0;
#X restore 10 43 graph;
#N canvas 0 22 450 300 (subpatch) 0;
#X obj 0 -51 inlet;
#X obj 3 0 hsl 100 15 1 2 0 0 empty empty hight 8 8 0 10 -262144 -1
-1 1490 1;
#X obj 76 130 s toudp;
#X obj 76 104 packOSC;
#X msg 76 78 send /s-a3 \$1;
#X obj -26 103 s \$0-one;
#X floatatom 160 135 5 0 0 0 - - -;
#X obj -2 133 outlet;
#X obj 92 214 s ms-3;
#X connect 0 0 1 0;
#X connect 1 0 4 0;
#X connect 1 0 5 0;
#X connect 1 0 6 0;
#X connect 1 0 7 0;
#X connect 3 0 2 0;
#X connect 4 0 3 0;
#X connect 6 0 8 0;
#X coords 0 1 100 -1 105 15 1 0 0;
#X restore 10 61 graph;
#X obj -148 153 tgl 15 0 empty empty empty 17 7 0 10 -262144 -1 -1
0 1;
#X obj -115 99 pipe 100;
#X obj 122 -16 > 0;
#X obj 122 -42 ctlin 64;
#N canvas 218 83 512 573 touchosc======= 0;
#X obj 76 108 r touchosc;
#X floatatom 76 188 5 0 0 0 - - -;
#X floatatom 112 190 5 0 0 0 - - -;
#X floatatom 148 189 5 0 0 0 - - -;
#X floatatom 188 191 5 0 0 0 - - -;
#X floatatom 224 191 5 0 0 0 - - -;
#X floatatom 76 271 5 0 0 0 - - -;
#X floatatom 118 295 5 0 0 0 - - -;
#X floatatom 161 320 5 0 0 0 - - -;
#X floatatom 207 345 5 0 0 0 - - -;
#X floatatom 259 370 5 0 0 0 - - -;
#X obj 105 426 outlet;
#X obj 162 445 outlet;
#X obj 191 478 outlet;
#X obj 243 500 outlet;
#X floatatom 280 226 5 0 0 0 - - -;
#X obj 280 252 outlet;
#X obj 328 252 outlet;
#X obj 76 132 routeOSC /m-s;
#X obj 76 223 k_range 0 1 0.05 6;
#X obj 57 423 outlet;
#X obj 118 247 k_range 0 1 1 2;
#X obj 161 272 k_range 0 1 1 2;
#X obj 207 297 k_range 0 1 0.01 1;
#X obj 76 156 route /1 /2 /3 /4 /5 /6 /7;
#X obj 259 322 k_range 0 1 0 2;
#X connect 0 0 18 0;
#X connect 1 0 19 0;
#X connect 2 0 21 0;
#X connect 3 0 22 0;
#X connect 4 0 23 0;
#X connect 5 0 25 0;
#X connect 6 0 20 0;
#X connect 7 0 11 0;
#X connect 8 0 12 0;
#X connect 9 0 13 0;
#X connect 10 0 14 0;
#X connect 15 0 16 0;
#X connect 18 0 24 0;
#X connect 19 0 6 0;
#X connect 21 0 7 0;
#X connect 22 0 8 0;
#X connect 23 0 9 0;
#X connect 24 0 1 0;
#X connect 24 1 2 0;
#X connect 24 2 3 0;
#X connect 24 3 4 0;
#X connect 24 4 5 0;
#X connect 24 5 15 0;
#X connect 24 6 17 0;
#X connect 25 0 10 0;
#X restore 4 -65 pd touchosc=======;
#N canvas 116 232 757 485 sendtouchosc 0;
#X obj 93 351 s totouch;
#X obj 93 328 packOSC;
#X obj 87 44 inlet;
#X obj 128 49 inlet;
#X obj 174 50 inlet;
#X obj 215 55 inlet;
#X obj 273 67 inlet;
#X obj 86 85 k_range 0.05 6 0 1;
#X obj 128 109 k_range 1 2 0 1;
#X obj 171 134 k_range 1 2 0 1;
#X obj 217 159 k_range 0.01 1 0 1;
#X obj 269 184 k_range 0 2 0 1;
#X msg 263 271 send /m-s/5 \$1;
#X msg 210 231 send /m-s/4 \$1;
#X msg 178 255 send /m-s/3 \$1;
#X msg 125 281 send /m-s/2 \$1;
#X msg 93 304 send /m-s/1 \$1;
#X obj 446 84 inlet;
#X msg 444 265 send /m-s/7 \$1;
#X obj 384 138 inlet;
#X msg 382 319 send /m-s/6 \$1;
#X connect 1 0 0 0;
#X connect 2 0 7 0;
#X connect 3 0 8 0;
#X connect 4 0 9 0;
#X connect 5 0 10 0;
#X connect 6 0 11 0;
#X connect 7 0 16 0;
#X connect 8 0 15 0;
#X connect 9 0 14 0;
#X connect 10 0 13 0;
#X connect 11 0 12 0;
#X connect 12 0 1 0;
#X connect 13 0 1 0;
#X connect 14 0 1 0;
#X connect 15 0 1 0;
#X connect 16 0 1 0;
#X connect 17 0 18 0;
#X connect 18 0 1 0;
#X connect 19 0 20 0;
#X connect 20 0 1 0;
#X restore 33 230 pd sendtouchosc;
#X msg 279 128 1;
#X connect 2 0 9 0;
#X connect 3 0 33 0;
#X connect 4 0 45 4;
#X connect 4 1 45 6;
#X connect 5 0 1 0;
#X connect 6 0 5 0;
#X connect 7 0 24 0;
#X connect 8 0 45 5;
#X connect 10 0 45 0;
#X connect 12 0 24 1;
#X connect 13 0 3 0;
#X connect 23 0 46 0;
#X connect 24 0 13 0;
#X connect 25 0 29 0;
#X connect 26 0 25 1;
#X connect 27 0 25 0;
#X connect 28 0 26 0;
#X connect 30 0 45 3;
#X connect 31 0 2 0;
#X connect 32 0 35 0;
#X connect 33 0 40 0;
#X connect 34 0 41 0;
#X connect 35 0 34 0;
#X connect 35 1 36 0;
#X connect 36 0 33 1;
#X connect 37 0 4 0;
#X connect 37 1 30 0;
#X connect 37 2 39 0;
#X connect 37 3 38 0;
#X connect 37 4 10 0;
#X connect 38 0 45 1;
#X connect 39 0 45 2;
#X connect 40 0 31 0;
#X connect 41 0 33 1;
#X connect 42 0 8 0;
#X connect 43 0 42 0;
#X connect 44 0 10 0;
#X connect 44 1 38 0;
#X connect 44 2 39 0;
#X connect 44 3 30 0;
#X connect 44 4 4 0;
#X connect 44 5 8 0;
#X connect 44 6 4 1;
#X connect 46 0 6 0;
#X coords 0 -1 1 1 150 120 1 0 0;
