#N canvas 584 40 770 686 10;
#X text 289 352 x = x0 + rsin(theta)*cos(phi);
#X text 289 362 y = y0 + rsin(theta)*sin(phi);
#X text 289 372 z = z0 + rcos(theta);
#X text 289 382 0 <= phi <= 2pi;
#X text 289 392 0 <= theta <= pi;
#X text 270 18 2.H = gemhead;
#X text 270 4 1.S = start;
#N canvas 531 159 428 648 point-start 0;
#X obj 23 402 translateXYZ;
#X obj 304 244 expr cos($f1);
#X obj 286 119 t f f;
#X obj 154 263 expr sin($f1)*sin($f2);
#X obj 48 232 expr sin($f1)*cos($f2);
#X obj 48 328 * 2;
#X obj 78 328 * 2;
#X obj 103 328 * 2;
#X obj 23 2 t a b b b;
#X obj 159 -21 f 1;
#X obj 159 -1 +;
#X obj 286 93 tabread phi_start;
#X obj 48 190 tabread theta_start;
#X obj 23 42 separator;
#X obj 23 69 alpha;
#X obj 48 211 t f f f=============================;
#X obj 22 -84 inlet;
#X obj 102 360 * 1;
#X obj 77 360 * 1;
#X obj 47 360 * 1;
#X msg 199 360 \$1 \$1 \$1;
#X obj 199 381 unpack f f f;
#X obj 200 -104 r \$0-track;
#X obj 144 430 tabread start_size;
#X text 251 302 ******;
#X msg 94 43 auto 1;
#X obj 94 20 loadbang;
#X obj 63 296 tabread each-radius;
#X obj 199 335 expr if($f1>5 \, 1.6 \, 1);
#X obj 22 -18 repeat 10;
#X obj 159 28 % 10;
#X obj 292 15 * 3;
#X obj 292 -7 tabread start_size;
#X obj 265 -50 tabread each-alpha;
#X obj 160 51 t f f f f f f f;
#X obj 237 -88 r \$0-alpha;
#X obj 237 -21 *;
#X obj 22 -53 separator;
#X obj 62 80 tabread each-color;
#X obj 62 107 expr 1-$f1;
#X obj 23 155 colorRGB 1 0 0 0;
#X obj 63 28 tgl 15 0 empty empty empty 17 7 0 10 -262144 -1 -1 1 1
;
#X obj 32 457 pix_image ../img/dot.png;
#X obj 32 486 pix_texture;
#X obj 32 516 scale 1;
#X obj 32 541 square 1;
#X obj 42 430 facing;
#X obj 121 510 scale 1;
#X obj 121 535 circle;
#X connect 0 0 46 0;
#X connect 1 0 7 0;
#X connect 2 0 4 1;
#X connect 2 1 3 1;
#X connect 3 0 6 0;
#X connect 4 0 5 0;
#X connect 5 0 19 0;
#X connect 6 0 18 0;
#X connect 7 0 17 0;
#X connect 8 0 13 0;
#X connect 8 1 9 0;
#X connect 9 0 10 0;
#X connect 10 0 30 0;
#X connect 11 0 2 0;
#X connect 12 0 15 0;
#X connect 13 0 14 0;
#X connect 14 0 40 0;
#X connect 15 0 4 0;
#X connect 15 1 3 0;
#X connect 15 2 1 0;
#X connect 16 0 37 0;
#X connect 17 0 0 3;
#X connect 18 0 0 2;
#X connect 19 0 0 1;
#X connect 20 0 21 0;
#X connect 21 0 19 1;
#X connect 21 1 18 1;
#X connect 21 2 17 1;
#X connect 22 0 29 1;
#X connect 22 0 30 1;
#X connect 23 0 47 1;
#X connect 25 0 14 0;
#X connect 26 0 25 0;
#X connect 26 0 41 0;
#X connect 27 0 5 1;
#X connect 27 0 6 1;
#X connect 27 0 7 1;
#X connect 28 0 20 0;
#X connect 29 0 8 0;
#X connect 30 0 10 1;
#X connect 30 0 34 0;
#X connect 32 0 31 0;
#X connect 33 0 36 1;
#X connect 34 0 12 0;
#X connect 34 0 38 0;
#X connect 34 1 11 0;
#X connect 34 2 28 0;
#X connect 34 3 23 0;
#X connect 34 4 27 0;
#X connect 34 5 32 0;
#X connect 34 6 33 0;
#X connect 35 0 36 0;
#X connect 36 0 40 4;
#X connect 37 0 29 0;
#X connect 38 0 39 0;
#X connect 40 0 0 0;
#X connect 41 0 14 1;
#X connect 42 0 43 0;
#X connect 43 0 44 0;
#X connect 44 0 45 0;
#X connect 46 0 47 0;
#X connect 47 0 48 0;
#X restore 101 599 pd point-start;
#N canvas 553 40 451 666 point-end 0;
#X obj -137 424 translateXYZ;
#X obj -114 298 t f f f;
#X obj 44 296 t f f;
#X obj 28 330 expr sin($f1)*sin($f2);
#X obj -114 331 expr sin($f1)*cos($f2);
#X obj -114 366 * 2;
#X obj -84 366 * 2;
#X obj -59 366 * 2;
#X obj -137 218 t a b b;
#X obj 28 116 f 1;
#X obj 28 136 +;
#X obj -11 224 tabread phi_end;
#X obj -114 247 tabread theta_end;
#X obj -137 102 separator;
#X obj -137 131 alpha;
#X obj -138 -20 inlet;
#X obj -59 397 * 1;
#X obj -84 397 * 1;
#X obj -114 397 * 1;
#X msg 89 251 \$1 \$1 \$1;
#X obj 89 272 unpack f f f;
#X obj -19 -29 r \$0-track;
#X obj -97 474 tabread end_size;
#X obj -65 68 loadbang;
#X text 184 209 ******;
#X obj -43 276 tabread each-radius;
#X obj 89 224 expr if($f1>5 \, 1.6 \, 1);
#X obj 114 60 * 3;
#X obj -137 76 t a b b b;
#X obj 114 38 tabread end_size;
#X obj 60 -16 tabread each-alpha;
#X obj 28 187 t f f f f f f;
#X obj -138 52 repeat 10;
#X obj 28 164 % 10;
#X obj 13 367 expr cos($f1);
#X obj 45 -33 r \$0-alpha;
#X obj 45 8 *;
#X floatatom 43 46 5 0 0 0 - - -;
#X msg -65 92 auto 1;
#X obj -138 9 separator;
#X obj -84 137 tabread each-color;
#X obj -84 163 expr 1-$f1;
#X obj -137 193 colorRGB 1 0 0 0;
#X obj -51 115 tgl 15 0 empty empty empty 17 7 0 10 -262144 -1 -1 1
1;
#X obj -1 504 sphere 0.02 20;
#X obj -165 506 pix_image ../img/dot.png;
#X obj -165 535 pix_texture;
#X obj -165 565 scale 1;
#X obj -165 590 square 1;
#X obj -154 466 facing;
#X obj -63 567 scale 1;
#X obj -63 592 circle 1;
#X connect 0 0 49 0;
#X connect 1 0 4 0;
#X connect 1 1 3 0;
#X connect 1 2 34 0;
#X connect 2 0 4 1;
#X connect 2 1 3 1;
#X connect 3 0 6 0;
#X connect 4 0 5 0;
#X connect 5 0 18 0;
#X connect 6 0 17 0;
#X connect 7 0 16 0;
#X connect 8 0 0 0;
#X connect 9 0 10 0;
#X connect 10 0 33 0;
#X connect 11 0 2 0;
#X connect 12 0 1 0;
#X connect 13 0 14 0;
#X connect 14 0 42 0;
#X connect 15 0 39 0;
#X connect 16 0 0 3;
#X connect 17 0 0 2;
#X connect 18 0 0 1;
#X connect 19 0 20 0;
#X connect 20 0 18 1;
#X connect 20 1 17 1;
#X connect 20 2 16 1;
#X connect 21 0 32 1;
#X connect 21 0 33 1;
#X connect 22 0 50 1;
#X connect 23 0 38 0;
#X connect 23 0 43 0;
#X connect 25 0 5 1;
#X connect 25 0 6 1;
#X connect 25 0 7 1;
#X connect 26 0 19 0;
#X connect 28 0 13 0;
#X connect 28 1 9 0;
#X connect 29 0 27 0;
#X connect 30 0 36 1;
#X connect 31 0 12 0;
#X connect 31 0 40 0;
#X connect 31 1 11 0;
#X connect 31 2 26 0;
#X connect 31 3 22 0;
#X connect 31 4 25 0;
#X connect 31 4 29 0;
#X connect 31 5 30 0;
#X connect 32 0 28 0;
#X connect 33 0 10 1;
#X connect 33 0 31 0;
#X connect 34 0 7 0;
#X connect 35 0 36 0;
#X connect 36 0 37 0;
#X connect 37 0 42 4;
#X connect 38 0 14 0;
#X connect 39 0 32 0;
#X connect 40 0 41 0;
#X connect 42 0 8 0;
#X connect 43 0 14 1;
#X connect 45 0 46 0;
#X connect 46 0 47 0;
#X connect 47 0 48 0;
#X connect 49 0 50 0;
#X connect 50 0 51 0;
#X restore 120 622 pd point-end;
#N canvas 203 358 377 318 (subpatch) 0;
#X obj 192 118 s toudp;
#X obj 192 92 packOSC;
#X obj 3 0 hsl 128 15 0 0.7 0 0 empty empty track-alpha 2 8 0 10 -262144
-1 -1 12700 1;
#X obj 92 85 line;
#X msg 92 63 \$1 2000;
#X obj 21 161 s \$0-alpha;
#X msg 192 67 send /alpha \$1;
#X obj 92 109 f;
#X floatatom 92 40 5 0 0 0 - - -;
#X obj 145 -23 loadbang;
#X obj 145 -2 del 300;
#X obj 92 161 s particle-alpha;
#X obj 92 218 s gem-bgcolor;
#X obj 0 -25 * 0.7;
#X obj 92 189 expr ($f1/0.7)*0.5;
#X msg 145 18 0;
#X obj 0 -76 r midi-4;
#X obj 0 -50 / 127;
#X obj -50 -52 inlet;
#X connect 1 0 0 0;
#X connect 2 0 8 0;
#X connect 3 0 7 0;
#X connect 4 0 3 0;
#X connect 6 0 1 0;
#X connect 7 0 6 0;
#X connect 7 0 5 0;
#X connect 7 0 11 0;
#X connect 8 0 4 0;
#X connect 9 0 10 0;
#X connect 10 0 15 0;
#X connect 13 0 2 0;
#X connect 14 0 12 0;
#X connect 15 0 2 0;
#X connect 16 0 17 0;
#X connect 17 0 13 0;
#X connect 18 0 13 0;
#X coords 0 1 100 -1 133 15 2 0 0;
#X restore 157 172 graph;
#N canvas 788 315 487 360 (subpatch) 0;
#X floatatom 1 50 3 0 0 0 - - -;
#X obj 55 88 s \$0-track;
#X obj 1 -50 loadbang;
#X obj 0 0 hradio 15 1 0 8 empty empty empty 0 -8 0 10 -258113 -262144
-1 7;
#X msg 1 -25 0;
#X obj 0 27 + 1;
#X obj 9 194 s toudp;
#X obj 9 168 packOSC;
#X msg 9 134 send /track \$1;
#X floatatom 100 176 5 0 0 0 - - -;
#X obj 100 197 s totrack;
#X obj 57 60 t f f f;
#X obj 223 77 + 1;
#X floatatom 223 126 5 0 0 0 - - -;
#X obj 188 23 t b b;
#X msg 216 45 1;
#X obj 232 21 t b b;
#X msg 260 43 -1;
#X obj 204 155 change;
#X obj 173 80 f 0;
#X obj 187 -32 route key_82 key_81;
#X obj 187 -3 sel 1;
#X obj 242 -3 sel 1;
#X text 285 -3 up down;
#X obj 223 103 split 0 7;
#X obj 187 -58 r gemkey;
#X obj 88 -46 inlet;
#X connect 0 0 8 0;
#X connect 0 0 11 0;
#X connect 2 0 4 0;
#X connect 3 0 5 0;
#X connect 4 0 3 0;
#X connect 5 0 0 0;
#X connect 7 0 6 0;
#X connect 8 0 7 0;
#X connect 9 0 10 0;
#X connect 11 0 1 0;
#X connect 11 2 9 0;
#X connect 12 0 24 0;
#X connect 13 0 18 0;
#X connect 14 0 19 0;
#X connect 14 1 15 0;
#X connect 15 0 12 1;
#X connect 16 0 19 0;
#X connect 16 1 17 0;
#X connect 17 0 12 1;
#X connect 19 0 12 0;
#X connect 20 0 21 0;
#X connect 20 1 22 0;
#X connect 21 0 14 0;
#X connect 22 0 16 0;
#X connect 24 0 13 0;
#X connect 24 0 19 1;
#X connect 25 0 20 0;
#X connect 26 0 3 0;
#X coords 0 1 100 -1 120 15 1 0 0;
#X restore 156 258 graph;
#N canvas 692 122 398 349 (subpatch) 0;
#X obj 0 0 tgl 30 0 empty empty H 11 15 0 15 -258113 -1 -1 1 1;
#X obj 0 47 s \$0-gemhead-tgl;
#X obj 116 46 sel 1;
#X obj 116 122 s data-info;
#X obj 116 71 t b b;
#X msg 116 98 3;
#X msg 191 98 2;
#X obj 191 123 s gem-drop;
#X obj -63 140 s toudp;
#X obj -63 116 packOSC;
#X msg -63 92 send /universe-tgl \$1;
#X obj 0 -60 loadbang;
#X msg 0 -30 0;
#X obj 57 -31 inlet;
#X connect 0 0 1 0;
#X connect 0 0 2 0;
#X connect 0 0 10 0;
#X connect 2 0 4 0;
#X connect 4 0 5 0;
#X connect 4 1 6 0;
#X connect 5 0 3 0;
#X connect 6 0 7 0;
#X connect 9 0 8 0;
#X connect 10 0 9 0;
#X connect 11 0 12 0;
#X connect 12 0 0 0;
#X connect 13 0 0 0;
#X coords 0 1 100 -1 30 30 1 0 0;
#X restore 140 130 graph;
#N canvas 638 222 450 300 (subpatch) 0;
#X obj 0 0 tgl 30 0 empty empty S 11 15 0 15 -258113 -1 -1 1 1;
#X obj 0 47 s \$0-start;
#X obj 0 -40 r \$0-gemhead-tgl;
#X connect 0 0 1 0;
#X connect 2 0 0 0;
#X coords 0 1 100 -1 30 30 1 0 0;
#X restore 177 130 graph;
#X obj 349 458 s stopkick;
#N canvas 822 94 576 543 (subpatch) 0;
#X obj -132 -23 r ch-viewpoint;
#X obj -132 2 t b;
#X obj -132 32 f;
#X obj -9 156 expr cos($f1);
#X obj -33 54 t f f;
#X obj -132 188 expr sin($f1)*sin($f2);
#X obj -162 161 expr sin($f1)*cos($f2);
#X obj -162 265 * 2;
#X obj -132 265 * 2;
#X obj -107 265 * 2;
#X obj -33 30 tabread phi_motion;
#X obj -162 104 tabread theta_motion;
#X obj -162 133 t f f f===================;
#X obj -163 288 * 1;
#X obj -133 288 * 1;
#X obj -108 288 * 1;
#X msg 88 172 \$1 \$1 \$1;
#X obj 88 193 unpack f f f;
#X obj -163 317 pack f f f;
#X obj -163 341 spigot;
#X obj -75 388 s fix-view;
#X obj -76 360 t b;
#X floatatom 103 71 5 0 0 0 - - -;
#X obj -46 318 sel 0;
#X msg -45 339 0 0 0;
#X obj -50 295 t f f;
#X obj 0 0 hradio 15 1 0 8 empty empty empty 0 -8 0 10 -228856 -1 -1
0;
#X obj -131 -97 tgl 15 0 empty empty empty 17 7 0 10 -258113 -1 -1
0 1;
#X obj 103 98 s ch-targat;
#X obj -112 221 tabread each-radius;
#X obj 87 135 expr if($f1>5 \, 1.6 \, 1);
#X floatatom -49 251 5 0 0 0 - - -;
#X obj 1 -58 loadbang;
#X msg 1 -36 0;
#X obj -131 -73 sel 1;
#X obj 109 23 r \$0-track;
#X obj 109 47 t b;
#X obj -131 -123 r sel-camera;
#X obj 61 -58 inlet;
#X obj -163 389 s targetpoint;
#X connect 0 0 1 0;
#X connect 1 0 2 0;
#X connect 2 0 11 0;
#X connect 2 0 10 0;
#X connect 2 0 29 0;
#X connect 2 0 30 0;
#X connect 3 0 9 0;
#X connect 4 0 6 1;
#X connect 4 1 5 1;
#X connect 5 0 8 0;
#X connect 6 0 7 0;
#X connect 7 0 13 0;
#X connect 8 0 14 0;
#X connect 9 0 15 0;
#X connect 10 0 4 0;
#X connect 11 0 12 0;
#X connect 12 0 6 0;
#X connect 12 1 5 0;
#X connect 12 2 3 0;
#X connect 13 0 18 0;
#X connect 14 0 18 1;
#X connect 15 0 18 2;
#X connect 16 0 17 0;
#X connect 17 0 13 1;
#X connect 17 1 14 1;
#X connect 17 2 15 1;
#X connect 18 0 19 0;
#X connect 19 0 21 0;
#X connect 19 0 39 0;
#X connect 21 0 20 0;
#X connect 22 0 2 0;
#X connect 22 0 28 0;
#X connect 23 0 24 0;
#X connect 25 0 19 1;
#X connect 25 1 23 0;
#X connect 26 0 22 0;
#X connect 27 0 25 0;
#X connect 27 0 34 0;
#X connect 29 0 7 1;
#X connect 29 0 8 1;
#X connect 29 0 9 1;
#X connect 29 0 31 0;
#X connect 30 0 16 0;
#X connect 32 0 33 0;
#X connect 33 0 26 0;
#X connect 34 0 22 0;
#X connect 35 0 36 0;
#X connect 36 0 22 0;
#X connect 37 0 27 0;
#X connect 38 0 26 0;
#X coords 0 1 100 -1 120 15 1 0 0;
#X restore 156 290 graph;
#X obj -87 14 table theta_start 20;
#X obj -87 34 table theta_end 20;
#X obj -87 54 table phi_start 20;
#X obj -87 75 table phi_end 20;
#X obj -87 96 table phi_motion 20;
#X obj -87 117 table theta_motion 20;
#X obj -87 138 table dis_size 20;
#X obj -86 159 table pos 20;
#X obj -85 181 table end_size 20;
#X obj -85 204 table start_size 20;
#X text 270 33 3.P = reset track-pos;
#X text 270 47 4.A = reset all-track-pos;
#N canvas 634 302 450 300 (subpatch) 0;
#X obj 0 0 tgl 15 0 empty empty view 17 7 0 10 -228856 -1 -162280 0
1;
#X obj -1 -46 loadbang;
#X msg 0 -23 0;
#X obj 0 25 s sel-camera;
#X obj 84 25 s target-color;
#X obj 60 -46 inlet;
#X connect 0 0 3 0;
#X connect 0 0 4 0;
#X connect 1 0 2 0;
#X connect 2 0 0 0;
#X connect 5 0 0 0;
#X coords 0 1 100 -1 15 15 1 0 0;
#X restore 108 289 graph;
#N canvas 246 479 450 300 (subpatch) 0;
#X obj 0 0 bng 30 250 50 0 empty empty Ra-rad 0 -10 0 10 -191407 -262144
-162280;
#X obj 0 38 s all-radius;
#X obj 149 50 r toallcolor;
#X obj 101 72 spigot;
#X obj 101 -77 r gemkey;
#X obj 101 22 route key_18;
#X obj 101 47 sel 1;
#X obj 0 -32 loadbang;
#X msg -43 62 0;
#X obj -43 88 s resetcolor;
#X obj 101 -51 t a a;
#X obj 101 -9 spigot;
#X text 222 -31 shift;
#X text 181 23 key o;
#X obj 136 -30 route key_226;
#X text 4 6 [o];
#X connect 0 0 1 0;
#X connect 0 0 8 0;
#X connect 2 0 3 1;
#X connect 3 0 0 0;
#X connect 4 0 10 0;
#X connect 5 0 6 0;
#X connect 6 0 3 0;
#X connect 7 0 0 0;
#X connect 8 0 9 0;
#X connect 10 0 11 0;
#X connect 10 1 14 0;
#X connect 11 0 5 0;
#X connect 14 0 11 1;
#X coords 0 1 100 -1 30 30 1 0 0;
#X restore 257 130 graph;
#X text 270 62 5.R = random all-radius;
#X obj -84 226 table each-radius 20;
#X obj -84 251 table each-alpha 20;
#N canvas 678 164 615 584 radius 0;
#N canvas 257 348 450 300 (subpatch) 0;
#X obj 3 0 hsl 60 15 0 100 0 0 empty empty radius 2 8 0 10 -262144
-1 -1 0 1;
#X obj 2 42 line;
#X obj 2 63 f;
#X obj 2 88 outlet;
#X obj 108 -48 r touchosc;
#X obj 108 -24 routeOSC /m-u;
#X floatatom 110 23 5 0 0 0 - - -;
#X obj 108 -1 route /16/9;
#X obj 111 44 * 100;
#X msg 1 21 \$1 500;
#X connect 0 0 9 0;
#X connect 1 0 2 0;
#X connect 2 0 3 0;
#X connect 4 0 5 0;
#X connect 5 0 7 0;
#X connect 6 0 8 0;
#X connect 7 0 6 0;
#X connect 8 0 0 0;
#X connect 9 0 1 0;
#X coords 0 1 100 -1 65 15 1 0 0;
#X restore 106 156 graph;
#X obj 109 174 hsl 60 15 0 100 0 0 empty empty 0 2 8 0 10 -262144 -1
-1 3363 1;
#X obj 109 191 hsl 60 15 0 100 0 0 empty empty 1 2 8 0 10 -262144 -1
-1 944 1;
#X obj 109 208 hsl 60 15 0 100 0 0 empty empty 2 2 8 0 10 -262144 -1
-1 1416 1;
#X obj 109 225 hsl 60 15 0 100 0 0 empty empty 3 2 8 0 10 -262144 -1
-1 3658 1;
#X obj 109 242 hsl 60 15 0 100 0 0 empty empty 4 2 8 0 10 -262144 -1
-1 4897 1;
#X obj 109 259 hsl 60 15 0 100 0 0 empty empty 5 2 8 0 10 -262144 -1
-1 5310 1;
#X obj 109 276 hsl 60 15 0 100 0 0 empty empty 6 2 8 0 10 -262144 -1
-1 5487 1;
#X obj 109 293 hsl 60 15 0 100 0 0 empty empty 7 2 8 0 10 -262144 -1
-1 3009 1;
#X obj 3 62 b;
#X obj 3 41 bng 15 250 50 0 empty empty empty 17 7 0 10 -262144 -1
-1;
#X obj 3 17 r all-radius;
#X floatatom 145 24 5 0 0 0 - - -;
#X obj 145 -3 v forcex;
#X obj 145 -47 r mouseright;
#X obj 145 -25 sel 0;
#X obj 145 49 moses 0.0001;
#N canvas 375 103 1052 517 force-other=========================== 0
;
#X obj 42 346 outlet;
#X msg 306 62 1 0 0 0 0 0 0 0 0;
#X obj 123 17 inlet;
#X obj 42 314 spigot;
#X obj 93 346 outlet;
#X obj 93 314 spigot;
#X obj 143 348 outlet;
#X obj 143 316 spigot;
#X obj 194 348 outlet;
#X obj 194 316 spigot;
#X obj 243 350 outlet;
#X obj 243 318 spigot;
#X obj 294 350 outlet;
#X obj 294 318 spigot;
#X obj 344 352 outlet;
#X obj 344 320 spigot;
#X obj 395 352 outlet;
#X obj 395 320 spigot;
#X obj 103 242 unpack f f f f f f f f f==================;
#X msg 317 85 0 1 0 0 0 0 0 0 0;
#X msg 337 108 0 0 1 0 0 0 0 0 0;
#X msg 348 131 0 0 0 1 0 0 0 0 0;
#X msg 376 154 0 0 0 0 1 0 0 0 0;
#X msg 387 177 0 0 0 0 0 1 0 0 0;
#X msg 407 200 0 0 0 0 0 0 1 0 0;
#X msg 424 222 0 0 0 0 0 0 0 1 0;
#X msg 443 248 0 0 0 0 0 0 0 0 1;
#X obj 47 -91 r toallcolor;
#X obj 47 -60 sel 0 1;
#X msg 66 -32 1 1 1 1 1 1 1 1 1;
#X msg 47 -8 0 0 0 0 0 0 0 0 0;
#X obj 291 -84 route key_39 key_30 key_31 key_32 key_33 key_34;
#X obj 291 -61 sel 1;
#X obj 337 -58 sel 1;
#X obj 384 -58 sel 1;
#X obj 430 -56 sel 1;
#X obj 477 -58 sel 1;
#X obj 523 -57 sel 1;
#X obj 570 -63 route key_35 key_36 key_37;
#X obj 570 -36 sel 1;
#X obj 621 -38 sel 1;
#X obj 672 -37 sel 1;
#X obj 291 -108 r gemkey;
#X obj 610 89 r touchosc;
#X obj 610 113 routeOSC /m-u;
#X obj 610 160 * 100;
#X obj 647 181 * 100;
#X obj 688 164 * 100;
#X obj 725 185 * 100;
#X obj 770 169 * 100;
#X obj 807 190 * 100;
#X obj 848 173 * 100;
#X obj 885 194 * 100;
#X obj 610 136 route /16/8 /16/7 /16/6 /16/5 /16/4 /16/3 /16/2 /16/1
;
#X connect 1 0 18 0;
#X connect 2 0 3 0;
#X connect 2 0 5 0;
#X connect 2 0 7 0;
#X connect 2 0 9 0;
#X connect 2 0 11 0;
#X connect 2 0 13 0;
#X connect 2 0 15 0;
#X connect 2 0 17 0;
#X connect 3 0 0 0;
#X connect 5 0 4 0;
#X connect 7 0 6 0;
#X connect 9 0 8 0;
#X connect 11 0 10 0;
#X connect 13 0 12 0;
#X connect 15 0 14 0;
#X connect 17 0 16 0;
#X connect 18 0 3 1;
#X connect 18 1 5 1;
#X connect 18 2 7 1;
#X connect 18 3 9 1;
#X connect 18 4 11 1;
#X connect 18 5 13 1;
#X connect 18 6 15 1;
#X connect 18 7 17 1;
#X connect 19 0 18 0;
#X connect 20 0 18 0;
#X connect 21 0 18 0;
#X connect 22 0 18 0;
#X connect 23 0 18 0;
#X connect 24 0 18 0;
#X connect 25 0 18 0;
#X connect 26 0 18 0;
#X connect 27 0 28 0;
#X connect 28 0 30 0;
#X connect 28 1 29 0;
#X connect 29 0 18 0;
#X connect 30 0 18 0;
#X connect 31 0 32 0;
#X connect 31 1 33 0;
#X connect 31 2 34 0;
#X connect 31 3 35 0;
#X connect 31 4 36 0;
#X connect 31 5 37 0;
#X connect 31 6 38 0;
#X connect 32 0 1 0;
#X connect 33 0 19 0;
#X connect 34 0 20 0;
#X connect 35 0 21 0;
#X connect 36 0 22 0;
#X connect 37 0 23 0;
#X connect 38 0 39 0;
#X connect 38 1 40 0;
#X connect 38 2 41 0;
#X connect 39 0 24 0;
#X connect 40 0 25 0;
#X connect 41 0 26 0;
#X connect 42 0 31 0;
#X connect 43 0 44 0;
#X connect 44 0 53 0;
#X connect 45 0 0 0;
#X connect 46 0 4 0;
#X connect 47 0 6 0;
#X connect 48 0 8 0;
#X connect 49 0 10 0;
#X connect 50 0 12 0;
#X connect 51 0 14 0;
#X connect 52 0 16 0;
#X connect 53 0 45 0;
#X connect 53 1 46 0;
#X connect 53 2 47 0;
#X connect 53 3 48 0;
#X connect 53 4 49 0;
#X connect 53 5 50 0;
#X connect 53 6 51 0;
#X connect 53 7 52 0;
#X restore 214 95 pd force-other===========================;
#X obj 214 72 expr (($f1/2.62)*100);
#X obj 32 142 random 100;
#X obj 31 167 random 100;
#X obj 31 191 random 100;
#X obj 30 216 random 100;
#X obj 31 238 random 100;
#X obj 30 263 random 100;
#X obj 30 287 random 100;
#X obj 29 312 random 100;
#X obj 64 398 each-radius 6;
#X obj 106 122 tgl 30 0 empty empty Auto 3 13 0 10 -262144 -1 -1 1
1;
#X obj 29 112 metro 2000;
#X obj 256 399 each-radius 0;
#X obj 156 399 each-radius 3;
#X obj 256 422 each-radius 1;
#X obj 256 444 each-radius 2;
#X obj 157 422 each-radius 4;
#X obj 156 444 each-radius 5;
#X obj 63 420 each-radius 7;
#X obj 249 -61 r touchosc;
#X obj 249 -37 routeOSC /m-u;
#X obj 249 -14 route /15;
#N canvas 728 179 909 405 sendtouchosc 0;
#X obj 93 351 s totouch;
#X obj 93 328 packOSC;
#X obj 87 44 inlet;
#X obj 128 49 inlet;
#X obj 174 50 inlet;
#X obj 215 55 inlet;
#X obj 261 57 inlet;
#X obj 308 54 inlet;
#X obj 349 59 inlet;
#X obj 395 60 inlet;
#X obj 436 65 inlet;
#X obj 71 146 / 100;
#X obj 115 147 / 100;
#X obj 166 148 / 100;
#X obj 210 149 / 100;
#X obj 258 151 / 100;
#X obj 302 152 / 100;
#X obj 353 153 / 100;
#X obj 397 154 / 100;
#X obj 441 157 / 100;
#X msg 16 224 send /m-u/16/9 \$1;
#X msg 54 263 send /m-u/16/8 \$1;
#X msg 108 290 send /m-u/16/7 \$1;
#X msg 176 259 send /m-u/16/6 \$1;
#X msg 237 295 send /m-u/16/5 \$1;
#X msg 304 266 send /m-u/16/4 \$1;
#X msg 358 294 send /m-u/16/3 \$1;
#X msg 426 262 send /m-u/16/2 \$1;
#X msg 486 299 send /m-u/16/1 \$1;
#X floatatom 66 178 5 0 0 0 - - -;
#X connect 1 0 0 0;
#X connect 2 0 11 0;
#X connect 3 0 12 0;
#X connect 4 0 13 0;
#X connect 5 0 14 0;
#X connect 6 0 15 0;
#X connect 7 0 16 0;
#X connect 8 0 17 0;
#X connect 9 0 18 0;
#X connect 10 0 19 0;
#X connect 11 0 20 0;
#X connect 11 0 29 0;
#X connect 12 0 21 0;
#X connect 13 0 22 0;
#X connect 14 0 23 0;
#X connect 15 0 24 0;
#X connect 16 0 25 0;
#X connect 17 0 26 0;
#X connect 18 0 27 0;
#X connect 19 0 28 0;
#X connect 21 0 1 0;
#X connect 22 0 1 0;
#X connect 23 0 1 0;
#X connect 24 0 1 0;
#X connect 25 0 1 0;
#X connect 26 0 1 0;
#X connect 27 0 1 0;
#X connect 28 0 1 0;
#X restore 251 320 pd sendtouchosc;
#X connect 0 0 1 0;
#X connect 0 0 2 0;
#X connect 0 0 3 0;
#X connect 0 0 5 0;
#X connect 0 0 6 0;
#X connect 0 0 7 0;
#X connect 0 0 8 0;
#X connect 0 0 4 0;
#X connect 0 0 40 0;
#X connect 1 0 30 0;
#X connect 1 0 40 1;
#X connect 2 0 32 0;
#X connect 2 0 40 2;
#X connect 3 0 33 0;
#X connect 3 0 40 3;
#X connect 4 0 31 0;
#X connect 4 0 40 4;
#X connect 5 0 34 0;
#X connect 5 0 40 5;
#X connect 6 0 35 0;
#X connect 6 0 40 6;
#X connect 7 0 27 0;
#X connect 7 0 40 7;
#X connect 8 0 36 0;
#X connect 8 0 40 8;
#X connect 9 0 19 0;
#X connect 9 0 20 0;
#X connect 9 0 21 0;
#X connect 9 0 22 0;
#X connect 9 0 23 0;
#X connect 9 0 24 0;
#X connect 9 0 25 0;
#X connect 9 0 26 0;
#X connect 10 0 9 0;
#X connect 11 0 10 0;
#X connect 12 0 16 0;
#X connect 13 0 12 0;
#X connect 14 0 15 0;
#X connect 15 0 13 0;
#X connect 16 1 18 0;
#X connect 17 0 1 0;
#X connect 17 1 2 0;
#X connect 17 2 3 0;
#X connect 17 3 4 0;
#X connect 17 4 5 0;
#X connect 17 5 6 0;
#X connect 17 6 7 0;
#X connect 17 7 8 0;
#X connect 18 0 17 0;
#X connect 19 0 1 0;
#X connect 20 0 2 0;
#X connect 21 0 3 0;
#X connect 22 0 4 0;
#X connect 23 0 5 0;
#X connect 24 0 6 0;
#X connect 25 0 7 0;
#X connect 26 0 8 0;
#X connect 28 0 29 0;
#X connect 29 0 10 0;
#X connect 37 0 38 0;
#X connect 38 0 39 0;
#X connect 39 0 28 0;
#X coords 0 -1 1 1 80 210 1 100 100;
#X restore 405 100 pd radius;
#X obj 100 340 gemhead 30000;
#X obj 100 479 sphere 0.1 100;
#X obj 140 457 + 0.1;
#X obj 471 508 f;
#X obj 427 608 s \$0-gemhead;
#X obj 427 507 t a b;
#X obj 348 511 s tobbb;
#X obj 101 555 t a a a;
#N canvas 699 22 817 733 motion 0;
#X obj 34 486 translateXYZ;
#X obj 210 328 expr cos($f1);
#X obj 186 226 t f f;
#X obj 87 360 expr sin($f1)*sin($f2);
#X obj 57 333 expr sin($f1)*cos($f2);
#X obj 57 437 * 2;
#X obj 87 437 * 2;
#X obj 112 437 * 2;
#X obj 103 98 f 1;
#X obj 129 98 +;
#X obj 34 107 separator;
#X obj 186 202 tabread phi_motion;
#X obj 57 276 tabread theta_motion;
#X obj 57 305 t f f f===================;
#X obj 34 176 separator;
#X obj 329 570 pack f f f;
#X obj 34 -86 inlet;
#X obj 33 536 separator;
#X obj 56 460 * 1;
#X obj 86 460 * 1;
#X obj 111 460 * 1;
#N canvas 638 71 928 693 line================= 0;
#X obj 344 1 inlet;
#X obj 344 21 separator;
#X obj 269 224 separator;
#X obj 672 446 expr cos($f1);
#X obj 648 400 t f f;
#X obj 549 478 expr sin($f1)*sin($f2);
#X obj 519 451 expr sin($f1)*cos($f2);
#X obj 519 502 * 2;
#X obj 549 502 * 2;
#X obj 574 502 * 2;
#X obj 519 423 t f f f===================;
#X obj 496 569 translateXYZ;
#X obj 573 321 -;
#X obj 561 237 tabread theta_start;
#X obj 573 299 tabread theta_end;
#X obj 534 214 t f f;
#X obj 519 330 f;
#X obj 726 324 -;
#X obj 726 302 tabread phi_end;
#X obj 705 225 t f f;
#X obj 647 324 f;
#X obj 647 350 *;
#X obj 519 356 *;
#X obj 519 381 +;
#X obj 647 377 +;
#X obj 561 261 t f f;
#X obj 732 272 t f f;
#X obj 732 250 tabread phi_start;
#X obj 269 267 alpha;
#X obj 371 97 f 0;
#X obj 398 97 + 1;
#X obj 426 96 % 30;
#X obj 344 42 repeat 30;
#X obj 371 127 / 30;
#X obj 519 542 * 1;
#X obj 549 542 * 1;
#X obj 574 542 * 1;
#X obj 222 199 loadbang;
#X obj 534 129 inlet;
#X obj 344 70 t a b;
#X obj 371 152 t f f f f f=====;
#X msg 740 386 \$1 \$1 \$1;
#X obj 740 407 unpack f f f;
#X text 787 352 ******;
#N canvas 871 142 536 466 color========================= 0;
#X obj 56 19 inlet;
#X obj 154 58 inlet;
#X obj 106 409 outlet;
#X obj 76 79 inlet;
#X floatatom 75 174 5 0 0 0 - - -;
#X floatatom 154 203 5 0 0 0 - - -;
#X obj 75 234 gate 2;
#X obj 121 233 gate 2;
#X obj 154 177 expr (2*abs($f1-0.5));
#X obj 75 150 expr abs(1-(2*abs($f1-0.5)));
#X obj 75 114 t f f f f;
#X obj 210 121 inlet;
#X obj 228 217 inlet;
#X obj 228 241 tabread each-color;
#X obj 48 50 t a a;
#X obj 106 381 colorRGB 0 0 0 0;
#X obj 52 286 colorRGB 0 0 0 0;
#X obj 151 85 expr if($f1<15 \, 1 \, 2);
#X obj 229 267 sel 0 1;
#X obj 111 338 unpack f f f;
#X msg 229 296 1 1 1;
#X msg 274 297 0.1 0.3 0.8;
#X obj 199 353 * 0.6;
#X connect 0 0 14 0;
#X connect 1 0 17 0;
#X connect 3 0 10 0;
#X connect 4 0 6 1;
#X connect 5 0 7 1;
#X connect 6 0 16 1;
#X connect 6 1 16 2;
#X connect 7 0 16 2;
#X connect 7 1 16 3;
#X connect 8 0 5 0;
#X connect 9 0 4 0;
#X connect 10 0 9 0;
#X connect 10 1 8 0;
#X connect 11 0 22 0;
#X connect 12 0 13 0;
#X connect 13 0 18 0;
#X connect 14 0 16 0;
#X connect 14 1 15 0;
#X connect 15 0 2 0;
#X connect 17 0 6 0;
#X connect 17 0 7 0;
#X connect 18 0 20 0;
#X connect 18 1 21 0;
#X connect 19 0 15 1;
#X connect 19 1 15 2;
#X connect 19 2 15 3;
#X connect 20 0 19 0;
#X connect 21 0 19 0;
#X connect 22 0 15 4;
#X connect 22 0 16 4;
#X restore 236 313 pd color=========================;
#X obj 397 381 tabread each-radius;
#X obj 740 364 expr if($f1>5 \, 1.6 \, 1);
#X msg 222 224 auto 1;
#X obj 136 398 expr abs(1-(abs(($f1)-0.5)*2))*4+0;
#X obj 496 594 scale 1;
#X obj 848 123 inlet;
#X obj 447 19 tabread each-res;
#X obj 534 154 t f f f f f f f;
#X obj 296 247 tgl 15 0 empty empty empty 17 7 0 10 -262144 -1 -1 1
1;
#X obj 496 650 sphere 0.02 8;
#X obj 275 588 pix_image ../img/dot.png;
#X obj 275 617 pix_texture;
#X obj 275 647 scale 1;
#X obj 286 548 facing;
#X obj 275 672 square 0.02;
#X obj 160 633 scale 1;
#X obj 160 658 circle 0.02;
#X connect 0 0 1 0;
#X connect 1 0 32 0;
#X connect 2 0 28 0;
#X connect 3 0 9 0;
#X connect 4 0 6 1;
#X connect 4 1 5 1;
#X connect 5 0 8 0;
#X connect 6 0 7 0;
#X connect 7 0 34 0;
#X connect 8 0 35 0;
#X connect 9 0 36 0;
#X connect 10 0 6 0;
#X connect 10 1 5 0;
#X connect 10 2 3 0;
#X connect 11 0 58 0;
#X connect 12 0 22 1;
#X connect 13 0 25 0;
#X connect 14 0 12 0;
#X connect 15 0 14 0;
#X connect 15 1 13 0;
#X connect 16 0 22 0;
#X connect 17 0 21 1;
#X connect 18 0 17 0;
#X connect 19 0 18 0;
#X connect 19 1 27 0;
#X connect 20 0 21 0;
#X connect 21 0 24 0;
#X connect 22 0 23 0;
#X connect 23 0 10 0;
#X connect 24 0 4 0;
#X connect 25 0 23 1;
#X connect 25 1 12 1;
#X connect 26 0 24 1;
#X connect 26 1 17 1;
#X connect 27 0 26 0;
#X connect 28 0 44 0;
#X connect 29 0 30 0;
#X connect 29 0 33 0;
#X connect 30 0 31 0;
#X connect 31 0 29 1;
#X connect 32 0 39 0;
#X connect 33 0 40 0;
#X connect 34 0 11 1;
#X connect 35 0 11 2;
#X connect 36 0 11 3;
#X connect 37 0 47 0;
#X connect 37 0 53 0;
#X connect 38 0 52 0;
#X connect 39 0 2 0;
#X connect 39 1 29 0;
#X connect 40 0 48 0;
#X connect 40 1 44 1;
#X connect 40 2 16 0;
#X connect 40 3 20 0;
#X connect 41 0 42 0;
#X connect 42 0 34 1;
#X connect 42 1 35 1;
#X connect 42 2 36 1;
#X connect 44 0 11 0;
#X connect 45 0 7 1;
#X connect 45 0 8 1;
#X connect 45 0 9 1;
#X connect 46 0 41 0;
#X connect 47 0 28 0;
#X connect 48 0 60 1;
#X connect 50 0 44 3;
#X connect 51 0 32 1;
#X connect 51 0 31 1;
#X connect 51 0 33 1;
#X connect 52 0 15 0;
#X connect 52 1 19 0;
#X connect 52 2 46 0;
#X connect 52 3 44 2;
#X connect 52 4 45 0;
#X connect 52 5 44 4;
#X connect 52 6 51 0;
#X connect 53 0 28 1;
#X connect 55 0 56 0;
#X connect 56 0 57 0;
#X connect 57 0 59 0;
#X connect 58 0 60 0;
#X connect 60 0 61 0;
#X restore 154 166 pd line=================;
#N canvas 755 409 311 368 text================= 0;
#X obj 37 273 loadbang;
#X msg -17 234 text N-\$1;
#X obj -41 117 separator;
#X obj -17 270 text2d;
#X obj -17 209 inlet;
#X obj -41 29 inlet;
#X obj -41 53 t a b;
#X obj -41 139 translateXYZ 0 0.3 0;
#X obj 52 36 inlet;
#X obj -41 187 colorRGB 1 1 1 1;
#X obj 52 76 / 0.7;
#X msg 37 296 14;
#X connect 0 0 11 0;
#X connect 1 0 3 0;
#X connect 2 0 7 0;
#X connect 4 0 1 0;
#X connect 5 0 6 0;
#X connect 6 0 2 0;
#X connect 7 0 9 0;
#X connect 8 0 10 0;
#X connect 9 0 3 0;
#X connect 10 0 9 4;
#X connect 11 0 3 1;
#X restore -124 590 pd text=================;
#X obj 34 147 t a a;
#N canvas 660 278 450 300 center-line========== 0;
#X obj 163 27 inlet;
#X obj 287 46 inlet;
#X obj 163 67 separator;
#X obj 83 118 loadbang;
#X msg 328 138 0 0 0;
#X obj 327 117 t b;
#X obj 226 31 inlet;
#X obj 163 96 alpha;
#X obj 163 200 curve 2;
#X obj 17 16 inlet;
#X obj 163 152 GEMglPointSize 2;
#X obj 163 124 colorRGB 1 1 1 0;
#X msg 83 141 draw line;
#X msg 19 178 width 2;
#X connect 0 0 2 0;
#X connect 1 0 5 0;
#X connect 1 0 8 1;
#X connect 2 0 7 0;
#X connect 3 0 12 0;
#X connect 4 0 8 2;
#X connect 5 0 4 0;
#X connect 6 0 11 4;
#X connect 7 0 11 0;
#X connect 10 0 8 0;
#X connect 11 0 10 0;
#X connect 12 0 8 0;
#X connect 13 0 8 0;
#X restore 188 622 pd center-line==========;
#X obj 34 74 t a a b=====;
#X msg 312 356 \$1 \$1 \$1;
#X obj 312 377 unpack f f f;
#X obj 128 28 r \$0-track;
#X text 263 151 ******;
#X obj 61 -9 s ch-viewpoint;
#X obj -56 429 loadbang;
#X msg -55 473 auto \$1;
#X obj -55 455 tgl 15 0 empty empty empty 0 -6 0 8 -262144 -1 -1 1
1;
#X obj 33 508 alpha;
#X obj 30 241 t f f f;
#X obj 71 392 tabread each-radius;
#X obj 312 332 expr if($f1>5 \, 1.6 \, 1);
#X obj 34 50 repeat 2;
#X obj 157 98 % 2;
#X obj 314 140 t f f;
#X obj 138 535 r ch-targat;
#X obj 416 539 r target-color;
#X floatatom 482 571 5 0 0 0 - - -;
#X obj 416 564 sel 0 1;
#X obj 59 561 expr if($f1==$f2 \, $f3 \, 0.3);
#X obj 157 122 t f f f f f f f f;
#X obj 370 136 r \$0-alpha;
#X obj 355 111 tabread each-alpha;
#X obj 355 166 *;
#X msg 434 614 0.8;
#X msg 416 589 0.2;
#X obj 34 -62 separator;
#X obj 34 -39 t a b;
#X obj 33 585 colorRGB 1 1 1 0;
#X obj -65 639 sphere 0.05 20;
#X obj 3 477 tgl 15 0 empty empty empty 0 -6 0 8 -262144 -1 -1 1 1
;
#X floatatom 410 178 5 0 0 0 - - -;
#N canvas 760 185 417 532 target 0;
#X msg -141 261 draw line;
#X obj -141 233 loadbang;
#X obj -46 404 separator;
#X obj 16 294 separator;
#X obj -121 332 separator;
#X obj -46 480 cube 0.1;
#X obj 17 359 cube 0.1;
#X obj -121 400 cube 0.1;
#X obj -121 376 color 1 1 1;
#X obj 17 336 color 1 1 1;
#X obj -46 455 color 1 1 1;
#X obj -72 129 separator;
#X obj -72 221 t a a a a;
#X obj -72 94 inlet;
#X obj -72 310 cube 0.07;
#X obj 16 316 scaleXYZ 0.05 2 0.05;
#X obj -72 252 separator;
#X obj -121 356 scaleXYZ 2 0.05 0.05;
#X obj -46 430 scaleXYZ 0.05 0.05 2;
#X connect 0 0 14 0;
#X connect 1 0 0 0;
#X connect 2 0 18 0;
#X connect 3 0 15 0;
#X connect 4 0 17 0;
#X connect 8 0 7 0;
#X connect 9 0 6 0;
#X connect 10 0 5 0;
#X connect 11 0 12 0;
#X connect 12 0 16 0;
#X connect 12 1 4 0;
#X connect 12 2 2 0;
#X connect 12 3 3 0;
#X connect 13 0 11 0;
#X connect 15 0 9 0;
#X connect 16 0 14 0;
#X connect 17 0 8 0;
#X connect 18 0 10 0;
#X restore 33 612 pd target;
#X connect 0 0 34 0;
#X connect 1 0 7 0;
#X connect 2 0 4 1;
#X connect 2 1 3 1;
#X connect 3 0 6 0;
#X connect 4 0 5 0;
#X connect 5 0 18 0;
#X connect 6 0 19 0;
#X connect 7 0 20 0;
#X connect 8 0 9 0;
#X connect 9 0 39 0;
#X connect 10 0 23 0;
#X connect 11 0 2 0;
#X connect 12 0 13 0;
#X connect 13 0 4 0;
#X connect 13 1 3 0;
#X connect 13 2 1 0;
#X connect 14 0 0 0;
#X connect 15 0 24 3;
#X connect 16 0 52 0;
#X connect 17 0 54 0;
#X connect 18 0 0 1;
#X connect 18 0 15 0;
#X connect 19 0 0 2;
#X connect 19 0 15 1;
#X connect 20 0 0 3;
#X connect 20 0 15 2;
#X connect 23 0 14 0;
#X connect 23 1 24 1;
#X connect 25 0 10 0;
#X connect 25 1 21 0;
#X connect 25 2 8 0;
#X connect 26 0 27 0;
#X connect 27 0 18 1;
#X connect 27 1 19 1;
#X connect 27 2 20 1;
#X connect 28 0 38 1;
#X connect 28 0 39 1;
#X connect 31 0 33 0;
#X connect 31 0 56 0;
#X connect 32 0 34 0;
#X connect 33 0 32 0;
#X connect 34 0 17 0;
#X connect 34 0 22 0;
#X connect 35 0 22 1;
#X connect 35 1 12 0;
#X connect 36 0 5 1;
#X connect 36 0 6 1;
#X connect 36 0 7 1;
#X connect 36 0 24 0;
#X connect 37 0 26 0;
#X connect 38 0 25 0;
#X connect 39 0 9 1;
#X connect 39 0 46 0;
#X connect 40 0 45 0;
#X connect 40 1 48 0;
#X connect 41 0 45 1;
#X connect 42 0 43 0;
#X connect 42 0 44 0;
#X connect 44 0 51 0;
#X connect 44 1 50 0;
#X connect 45 0 54 1;
#X connect 46 0 35 0;
#X connect 46 1 11 0;
#X connect 46 2 21 1;
#X connect 46 3 37 0;
#X connect 46 5 36 0;
#X connect 46 6 40 0;
#X connect 47 0 49 1;
#X connect 47 0 57 0;
#X connect 48 0 49 0;
#X connect 49 0 24 2;
#X connect 49 0 22 2;
#X connect 49 0 21 2;
#X connect 49 0 54 4;
#X connect 50 0 45 2;
#X connect 51 0 45 2;
#X connect 52 0 53 0;
#X connect 53 0 38 0;
#X connect 53 1 30 0;
#X connect 54 0 55 0;
#X connect 56 0 34 1;
#X restore 140 577 pd motion;
#N canvas 546 63 728 742 distance 0;
#N canvas 716 119 450 300 (subpatch) 0;
#X obj 3 0 hsl 60 15 0.05 0.9 0 0 empty empty distance 2 8 0 10 -262144
-1 -1 1600 1;
#X obj 0 36 outlet;
#X obj 11 -118 r touchosc;
#X obj 11 -94 routeOSC /m-u;
#X obj 11 -71 route /14/9;
#X obj 108 21 line;
#X msg 107 0 \$1 500;
#X obj 10 -42 k_range 0 1 0.1 0.9;
#X connect 0 0 1 0;
#X connect 2 0 3 0;
#X connect 3 0 4 0;
#X connect 4 0 7 0;
#X connect 5 0 0 0;
#X connect 6 0 5 0;
#X connect 7 0 6 0;
#X coords 0 1 100 -1 65 15 1 0 0;
#X restore 126 151 graph;
#X obj 129 170 hsl 60 15 0.1 0.9 0 0 empty empty 0 2 8 0 10 -262144
-1 -1 4304 1;
#X obj 128 189 hsl 60 15 0.1 0.9 0 0 empty empty 1 2 8 0 10 -262144
-1 -1 1743 1;
#X obj 128 206 hsl 60 15 0.1 0.9 0 0 empty empty 2 2 8 0 10 -262144
-1 -1 1765 1;
#X obj 128 224 hsl 60 15 0.1 0.9 0 0 empty empty 3 2 8 0 10 -262144
-1 -1 3488 1;
#X obj 128 241 hsl 60 15 0.1 0.9 0 0 empty empty 4 2 8 0 10 -262144
-1 -1 1614 1;
#X obj 128 258 hsl 60 15 0.1 0.9 0 0 empty empty 5 2 8 0 10 -262144
-1 -1 2767 1;
#X obj 128 275 hsl 60 15 0.1 0.9 0 0 empty empty 6 2 8 0 10 -262144
-1 -1 5180 1;
#X obj 128 292 hsl 60 15 0.1 0.9 0 0 empty empty 7 2 8 0 10 -262144
-1 -1 3105 1;
#N canvas 0 22 152 301 random 0;
#X obj 16 142 randomF 0.85;
#X obj 16 171 + 0.05;
#X obj 16 111 inlet;
#X obj 16 202 outlet;
#X connect 0 0 1 0;
#X connect 1 0 3 0;
#X connect 2 0 0 0;
#X restore 15 139 pd random;
#N canvas 0 22 152 301 random 0;
#X obj 16 142 randomF 0.85;
#X obj 16 171 + 0.05;
#X obj 16 111 inlet;
#X obj 16 202 outlet;
#X connect 0 0 1 0;
#X connect 1 0 3 0;
#X connect 2 0 0 0;
#X restore -6 171 pd random;
#N canvas 0 22 152 301 random 0;
#X obj 16 142 randomF 0.85;
#X obj 16 171 + 0.05;
#X obj 16 111 inlet;
#X obj 16 202 outlet;
#X connect 0 0 1 0;
#X connect 1 0 3 0;
#X connect 2 0 0 0;
#X restore -11 196 pd random;
#N canvas 0 22 152 301 random 0;
#X obj 16 142 randomF 0.85;
#X obj 16 171 + 0.05;
#X obj 16 111 inlet;
#X obj 16 202 outlet;
#X connect 0 0 1 0;
#X connect 1 0 3 0;
#X connect 2 0 0 0;
#X restore -13 220 pd random;
#N canvas 0 22 152 301 random 0;
#X obj 16 142 randomF 0.85;
#X obj 16 171 + 0.05;
#X obj 16 111 inlet;
#X obj 16 202 outlet;
#X connect 0 0 1 0;
#X connect 1 0 3 0;
#X connect 2 0 0 0;
#X restore -22 250 pd random;
#N canvas 0 22 152 301 random 0;
#X obj 16 142 randomF 0.85;
#X obj 16 171 + 0.05;
#X obj 16 111 inlet;
#X obj 16 202 outlet;
#X connect 0 0 1 0;
#X connect 1 0 3 0;
#X connect 2 0 0 0;
#X restore -28 271 pd random;
#N canvas 0 22 152 301 random 0;
#X obj 16 142 randomF 0.85;
#X obj 16 171 + 0.05;
#X obj 16 111 inlet;
#X obj 16 202 outlet;
#X connect 0 0 1 0;
#X connect 1 0 3 0;
#X connect 2 0 0 0;
#X restore -36 292 pd random;
#N canvas 0 22 152 301 random 0;
#X obj 16 142 randomF 0.85;
#X obj 16 171 + 0.05;
#X obj 16 111 inlet;
#X obj 16 202 outlet;
#X connect 0 0 1 0;
#X connect 1 0 3 0;
#X connect 2 0 0 0;
#X restore -48 316 pd random;
#X obj 339 229 line-phi-theta 0;
#X obj 106 169 bng 15 250 50 0 empty empty empty 17 7 0 10 -262144
-1 -1;
#X obj 105 190 bng 15 250 50 0 empty empty empty 17 7 0 10 -262144
-1 -1;
#X obj 437 167 r \$0-all-pos;
#X obj 437 190 t b b b b b b b b b========;
#X obj 105 207 bng 15 250 50 0 empty empty empty 17 7 0 10 -262144
-1 -1;
#X obj 105 224 bng 15 250 50 0 empty empty empty 17 7 0 10 -262144
-1 -1;
#X obj 105 241 bng 15 250 50 0 empty empty empty 17 7 0 10 -262144
-1 -1;
#X obj 104 259 bng 15 250 50 0 empty empty empty 17 7 0 10 -262144
-1 -1;
#X obj 104 274 bng 15 250 50 0 empty empty empty 17 7 0 10 -262144
-1 -1;
#X obj 104 292 bng 15 250 50 0 empty empty empty 17 7 0 10 -262144
-1 -1;
#X floatatom 78 -84 5 0 0 0 - - -;
#X obj 78 -104 v forcey;
#X obj 9 -124 r mouseright;
#X obj 9 -102 sel 0;
#X obj 147 70 t b f;
#N canvas 418 78 1140 609 force-other=========================== 0
;
#X obj -90 396 outlet;
#X msg 93 42 1 0 0 0 0 0 0 0 0;
#X obj -14 35 inlet;
#X obj -95 332 spigot;
#X obj -39 396 outlet;
#X obj -44 332 spigot;
#X obj 11 398 outlet;
#X obj 6 334 spigot;
#X obj 62 398 outlet;
#X obj 57 334 spigot;
#X obj 111 400 outlet;
#X obj 106 336 spigot;
#X obj 166 434 outlet;
#X obj 157 336 spigot;
#X obj 216 436 outlet;
#X obj 207 338 spigot;
#X obj 267 436 outlet;
#X obj 258 338 spigot;
#X obj -34 260 unpack f f f f f f f f f==================;
#X msg 128 81 0 1 0 0 0 0 0 0 0;
#X msg 163 113 0 0 1 0 0 0 0 0 0;
#X msg 178 143 0 0 0 1 0 0 0 0 0;
#X msg 239 172 0 0 0 0 1 0 0 0 0;
#X msg 250 195 0 0 0 0 0 1 0 0 0;
#X msg 270 218 0 0 0 0 0 0 1 0 0;
#X msg 287 240 0 0 0 0 0 0 0 1 0;
#X msg 306 266 0 0 0 0 0 0 0 0 1;
#X obj -132 52 r toallcolor;
#X obj -132 83 sel 0 1;
#X msg -113 111 1 1 1 1 1 1 1 1 1;
#X msg -132 135 0 0 0 0 0 0 0 0 0;
#X obj 438 134 s data-info;
#X msg 438 91 3;
#X obj 64 -63 route key_39 key_30 key_31 key_32 key_33 key_34;
#X obj 64 -40 sel 1;
#X obj 110 -37 sel 1;
#X obj 157 -37 sel 1;
#X obj 203 -35 sel 1;
#X obj 250 -37 sel 1;
#X obj 297 -33 sel 1;
#X obj 343 -15 sel 1;
#X obj 394 -17 sel 1;
#X obj 445 -16 sel 1;
#X obj 64 -87 r gemkey;
#X obj 343 -42 route key_35 key_36 key_37 key_19;
#X obj 492 -16 sel 1;
#X obj 423 206 r touchosc;
#X obj 424 226 routeOSC /m-u;
#X obj 423 252 route /14/8 /14/7 /14/6 /14/5 /14/4 /14/3 /14/2 /14/1
;
#X floatatom 426 309 5 0 0 0 - - -;
#X floatatom 541 185 5 0 0 0 - - -;
#X obj 422 282 k_range 0 1 0.1 0.9;
#X obj 454 303 k_range 0 1 0.1 0.9;
#X obj 490 324 k_range 0 1 0.1 0.9;
#X obj 522 345 k_range 0 1 0.1 0.9;
#X obj 567 370 k_range 0 1 0.1 0.9;
#X obj 599 391 k_range 0 1 0.1 0.9;
#X obj 635 412 k_range 0 1 0.1 0.9;
#X obj 668 433 k_range 0 1 0.1 0.9;
#X connect 1 0 18 0;
#X connect 2 0 3 0;
#X connect 2 0 5 0;
#X connect 2 0 7 0;
#X connect 2 0 9 0;
#X connect 2 0 11 0;
#X connect 2 0 13 0;
#X connect 2 0 15 0;
#X connect 2 0 17 0;
#X connect 3 0 0 0;
#X connect 5 0 4 0;
#X connect 7 0 6 0;
#X connect 9 0 8 0;
#X connect 11 0 10 0;
#X connect 13 0 12 0;
#X connect 15 0 14 0;
#X connect 17 0 16 0;
#X connect 18 0 3 1;
#X connect 18 1 5 1;
#X connect 18 2 7 1;
#X connect 18 3 9 1;
#X connect 18 4 11 1;
#X connect 18 5 13 1;
#X connect 18 6 15 1;
#X connect 18 7 17 1;
#X connect 19 0 18 0;
#X connect 20 0 18 0;
#X connect 21 0 18 0;
#X connect 22 0 18 0;
#X connect 23 0 18 0;
#X connect 24 0 18 0;
#X connect 25 0 18 0;
#X connect 26 0 18 0;
#X connect 27 0 28 0;
#X connect 28 0 30 0;
#X connect 28 1 29 0;
#X connect 29 0 18 0;
#X connect 30 0 18 0;
#X connect 32 0 31 0;
#X connect 33 0 34 0;
#X connect 33 1 35 0;
#X connect 33 2 36 0;
#X connect 33 3 37 0;
#X connect 33 4 38 0;
#X connect 33 5 39 0;
#X connect 33 6 44 0;
#X connect 34 0 1 0;
#X connect 34 0 32 0;
#X connect 35 0 19 0;
#X connect 35 0 32 0;
#X connect 36 0 20 0;
#X connect 36 0 32 0;
#X connect 37 0 21 0;
#X connect 37 0 32 0;
#X connect 38 0 22 0;
#X connect 38 0 32 0;
#X connect 39 0 23 0;
#X connect 39 0 32 0;
#X connect 40 0 24 0;
#X connect 40 0 32 0;
#X connect 41 0 25 0;
#X connect 41 0 32 0;
#X connect 42 0 26 0;
#X connect 42 0 32 0;
#X connect 43 0 33 0;
#X connect 44 0 40 0;
#X connect 44 1 41 0;
#X connect 44 2 42 0;
#X connect 44 3 45 0;
#X connect 45 0 32 0;
#X connect 46 0 47 0;
#X connect 47 0 48 0;
#X connect 48 0 50 0;
#X connect 48 0 51 0;
#X connect 48 1 52 0;
#X connect 48 2 53 0;
#X connect 48 3 54 0;
#X connect 48 4 55 0;
#X connect 48 5 56 0;
#X connect 48 6 57 0;
#X connect 48 7 58 0;
#X connect 51 0 0 0;
#X connect 51 0 49 0;
#X connect 52 0 4 0;
#X connect 53 0 6 0;
#X connect 54 0 8 0;
#X connect 55 0 10 0;
#X connect 56 0 12 0;
#X connect 57 0 14 0;
#X connect 58 0 16 0;
#X restore 147 43 pd force-other===========================;
#X obj 187 71 t b f;
#X obj 228 71 t b f;
#X obj 268 72 t b f;
#X obj 310 73 t b f;
#X obj 350 74 t b f;
#X obj 391 74 t b f;
#X obj 431 75 t b f;
#X obj 472 75 t b f;
#X obj 78 -9 moses 0.0001;
#X obj 147 14 expr 0.9-($f1/2);
#X obj 352 251 line-phi-theta 1;
#X obj 366 276 line-phi-theta 2;
#X obj 380 298 line-phi-theta 3;
#X obj 393 322 line-phi-theta 4;
#X obj 407 344 line-phi-theta 5;
#X obj 421 369 line-phi-theta 6;
#X obj 436 391 line-phi-theta 7;
#X obj 78 -62 moses 1.77;
#X msg 135 -40 1.77;
#X obj 107 117 tgl 30 0 empty empty Auto 3 13 0 10 -262144 -1 -1 1
1;
#X obj -66 35 metro 2000;
#X obj 161 117 tgl 30 0 empty show-tgl-2 sel 5 15 0 10 -1 -1 -262144
0 1;
#X obj 375 -65 sel 0 1;
#X msg 405 -41 13;
#X msg 375 -42 22;
#X msg 375 -15 \; show-tgl-2 color \$1;
#X obj 375 -90 r \$0-line-ctl;
#X obj 176 -99 r touchosc;
#X obj 176 -75 routeOSC /m-u;
#X obj 176 -52 route /13;
#N canvas 51 344 909 405 sendtouchosc=============== 0;
#X obj 93 351 s totouch;
#X obj 93 328 packOSC;
#X obj -137 86 inlet;
#X obj 0 107 inlet;
#X obj 130 146 inlet;
#X obj 215 55 inlet;
#X obj 261 57 inlet;
#X obj 308 54 inlet;
#X obj 349 59 inlet;
#X obj 395 60 inlet;
#X obj 436 65 inlet;
#X msg -134 228 send /m-u/14/9 \$1;
#X msg -10 194 send /m-u/14/8 \$1;
#X msg 78 232 send /m-u/14/7 \$1;
#X msg 176 259 send /m-u/14/6 \$1;
#X msg 237 295 send /m-u/14/5 \$1;
#X msg 304 266 send /m-u/14/4 \$1;
#X msg 358 294 send /m-u/14/3 \$1;
#X msg 426 262 send /m-u/14/2 \$1;
#X msg 486 299 send /m-u/14/1 \$1;
#X obj -13 152 k_range 0.1 0.9 0 1;
#X obj 134 181 k_range 0.1 0.9 0 1;
#X obj 207 100 k_range 0.1 0.9 0 1;
#X obj 255 126 k_range 0.1 0.9 0 1;
#X obj 340 168 k_range 0.1 0.9 0 1;
#X obj 305 196 k_range 0.1 0.9 0 1;
#X obj 441 141 k_range 0.1 0.9 0 1;
#X obj 388 105 k_range 0.1 0.9 0 1;
#X obj -139 115 k_range 0.1 0.9 0 1;
#X connect 1 0 0 0;
#X connect 2 0 28 0;
#X connect 3 0 20 0;
#X connect 4 0 21 0;
#X connect 5 0 22 0;
#X connect 6 0 23 0;
#X connect 7 0 25 0;
#X connect 8 0 24 0;
#X connect 9 0 27 0;
#X connect 10 0 26 0;
#X connect 12 0 1 0;
#X connect 13 0 1 0;
#X connect 14 0 1 0;
#X connect 15 0 1 0;
#X connect 16 0 1 0;
#X connect 17 0 1 0;
#X connect 18 0 1 0;
#X connect 19 0 1 0;
#X connect 20 0 12 0;
#X connect 21 0 13 0;
#X connect 22 0 14 0;
#X connect 23 0 15 0;
#X connect 24 0 17 0;
#X connect 25 0 16 0;
#X connect 26 0 19 0;
#X connect 27 0 18 0;
#X connect 28 0 11 0;
#X restore 112 483 pd sendtouchosc===============;
#X obj -66 59 bng 15 250 50 0 empty empty empty 17 7 0 10 -262144 -1
-1;
#X floatatom 94 409 5 0 0 0 - - -;
#X obj -66 79 t b b b b b b b b;
#X connect 0 0 1 0;
#X connect 0 0 2 0;
#X connect 0 0 3 0;
#X connect 0 0 5 0;
#X connect 0 0 6 0;
#X connect 0 0 7 0;
#X connect 0 0 8 0;
#X connect 0 0 4 0;
#X connect 0 0 64 0;
#X connect 0 0 66 0;
#X connect 1 0 17 0;
#X connect 1 0 64 1;
#X connect 2 0 44 0;
#X connect 2 0 64 2;
#X connect 3 0 45 0;
#X connect 3 0 64 3;
#X connect 4 0 46 0;
#X connect 4 0 64 4;
#X connect 5 0 47 0;
#X connect 5 0 64 5;
#X connect 6 0 48 0;
#X connect 6 0 64 6;
#X connect 7 0 49 0;
#X connect 7 0 64 7;
#X connect 8 0 50 0;
#X connect 8 0 64 8;
#X connect 9 0 1 0;
#X connect 10 0 2 0;
#X connect 11 0 3 0;
#X connect 12 0 4 0;
#X connect 13 0 5 0;
#X connect 14 0 6 0;
#X connect 15 0 7 0;
#X connect 16 0 8 0;
#X connect 18 0 17 1;
#X connect 19 0 44 1;
#X connect 20 0 21 0;
#X connect 21 0 17 1;
#X connect 21 1 44 1;
#X connect 21 2 45 1;
#X connect 21 3 46 1;
#X connect 21 4 47 1;
#X connect 21 5 48 1;
#X connect 21 6 49 1;
#X connect 21 7 50 1;
#X connect 22 0 45 1;
#X connect 23 0 46 1;
#X connect 24 0 47 1;
#X connect 25 0 48 1;
#X connect 26 0 49 1;
#X connect 27 0 50 1;
#X connect 28 0 51 0;
#X connect 29 0 28 0;
#X connect 30 0 31 0;
#X connect 31 0 29 0;
#X connect 32 0 18 0;
#X connect 32 1 1 0;
#X connect 33 0 32 0;
#X connect 33 1 34 0;
#X connect 33 2 35 0;
#X connect 33 3 36 0;
#X connect 33 4 37 0;
#X connect 33 5 38 0;
#X connect 33 6 39 0;
#X connect 33 7 40 0;
#X connect 34 0 19 0;
#X connect 34 1 2 0;
#X connect 35 0 22 0;
#X connect 35 1 3 0;
#X connect 36 0 23 0;
#X connect 36 1 4 0;
#X connect 37 0 24 0;
#X connect 37 1 5 0;
#X connect 38 0 25 0;
#X connect 38 1 6 0;
#X connect 39 0 26 0;
#X connect 39 1 7 0;
#X connect 40 0 27 0;
#X connect 40 1 8 0;
#X connect 42 1 43 0;
#X connect 43 0 33 0;
#X connect 51 0 42 0;
#X connect 51 1 52 0;
#X connect 52 0 42 0;
#X connect 53 0 54 0;
#X connect 54 0 65 0;
#X connect 56 0 58 0;
#X connect 56 1 57 0;
#X connect 57 0 59 0;
#X connect 58 0 59 0;
#X connect 60 0 56 0;
#X connect 61 0 62 0;
#X connect 62 0 63 0;
#X connect 63 0 53 0;
#X connect 65 0 67 0;
#X connect 67 0 16 0;
#X connect 67 1 15 0;
#X connect 67 2 14 0;
#X connect 67 3 13 0;
#X connect 67 4 12 0;
#X connect 67 5 11 0;
#X connect 67 6 10 0;
#X connect 67 7 9 0;
#X coords 0 -1 1 1 100 210 1 100 100;
#X restore 305 100 pd distance;
#N canvas 799 387 450 300 (subpatch) 0;
#X obj 0 0 bng 30 250 50 0 empty empty Ra-dis 0 -10 0 10 -191407 -262144
-162280;
#X obj 0 38 s all-dis;
#X obj 177 21 r toallcolor;
#X obj 107 72 spigot;
#X obj 80 -8 route key_12;
#X obj 80 17 sel 1;
#X obj 0 -34 loadbang;
#X msg -122 36 0;
#X obj -122 62 s resetcolor;
#X obj 80 -102 r gemkey;
#X obj 80 -76 t a a;
#X obj 80 -34 spigot;
#X text 201 -56 shift;
#X text 159 -8 key i;
#X obj 115 -55 route key_226;
#X text 4 6 [i];
#X connect 0 0 1 0;
#X connect 0 0 7 0;
#X connect 2 0 3 1;
#X connect 3 0 0 0;
#X connect 4 0 5 0;
#X connect 5 0 3 0;
#X connect 6 0 0 0;
#X connect 7 0 8 0;
#X connect 9 0 10 0;
#X connect 10 0 11 0;
#X connect 10 1 14 0;
#X connect 11 0 4 0;
#X connect 14 0 11 1;
#X coords 0 1 100 -1 30 30 1 0 0;
#X restore 214 130 graph;
#X obj 427 457 r \$0-gemhead-tgl;
#X obj -84 276 table each-color;
#X obj -83 299 table each-res;
#X obj 290 435 t f f;
#X obj 290 413 r \$0-start;
#X obj 290 482 t b b;
#N canvas 499 425 790 339 color=========== 0;
#X obj 50 121 each-color 0;
#X obj 96 100 each-color 1;
#X obj 143 124 each-color 2;
#X obj 189 100 each-color 3;
#X obj 236 123 each-color 4;
#X obj 282 102 each-color 5;
#X obj 329 150 each-color 6;
#X obj 380 176 each-color 7;
#X obj 431 146 each-color 8;
#X floatatom -50 143 5 0 0 0 - - -;
#N canvas 561 434 450 300 all-color 0;
#X obj 157 11 inlet;
#X obj 154 242 tabwrite each-color;
#X msg 154 215 0;
#X obj 157 95 repeat 9;
#X obj 157 118 f;
#X obj 186 118 + 1;
#X obj 217 118 % 9;
#X obj 157 34 t b f;
#X msg 225 65 set \$1;
#X obj 154 191 t b f;
#X obj 277 64 s toallcolor;
#X connect 0 0 7 0;
#X connect 2 0 1 0;
#X connect 3 0 4 0;
#X connect 4 0 5 0;
#X connect 4 0 9 0;
#X connect 5 0 6 0;
#X connect 6 0 4 1;
#X connect 7 0 3 0;
#X connect 7 1 8 0;
#X connect 7 1 10 0;
#X connect 8 0 2 0;
#X connect 9 0 2 0;
#X connect 9 1 1 1;
#X restore -50 167 pd all-color;
#X obj -148 -2 r mouseright;
#X obj -148 20 sel 0;
#X msg -148 62 0;
#X obj -148 41 del 10;
#X obj 50 24 r gemkey;
#X obj -93 192 s \$0-line-ctl;
#X obj -50 94 sel 1;
#X obj -50 73 route key_19;
#X obj -50 118 tgl 15 0 empty empty empty 17 7 0 10 -262144 -1 -1 0
1;
#X obj 50 51 route key_39 key_30 key_31 key_32 key_33 key_34;
#X obj 50 74 sel 1;
#X obj 96 77 sel 1;
#X obj 143 77 sel 1;
#X obj 189 79 sel 1;
#X obj 236 77 sel 1;
#X obj 282 78 sel 1;
#X obj 329 72 route key_35 key_36 key_37;
#X obj 329 124 sel 1;
#X obj 380 122 sel 1;
#X obj 431 123 sel 1;
#X obj -23 115 r resetcolor;
#X obj -50 -62 r gemkey;
#X obj -50 -36 t a a;
#X obj -50 6 spigot;
#X text 71 -16 shift;
#X obj -15 -16 route key_226;
#X connect 9 0 10 0;
#X connect 9 0 16 0;
#X connect 11 0 12 0;
#X connect 12 0 14 0;
#X connect 13 0 19 0;
#X connect 14 0 13 0;
#X connect 15 0 20 0;
#X connect 17 0 19 0;
#X connect 18 0 17 0;
#X connect 19 0 9 0;
#X connect 20 0 21 0;
#X connect 20 1 22 0;
#X connect 20 2 23 0;
#X connect 20 3 24 0;
#X connect 20 4 25 0;
#X connect 20 5 26 0;
#X connect 20 6 27 0;
#X connect 21 0 0 0;
#X connect 22 0 1 0;
#X connect 23 0 2 0;
#X connect 24 0 3 0;
#X connect 25 0 4 0;
#X connect 26 0 5 0;
#X connect 27 0 28 0;
#X connect 27 1 29 0;
#X connect 27 2 30 0;
#X connect 28 0 6 0;
#X connect 29 0 7 0;
#X connect 30 0 8 0;
#X connect 31 0 19 0;
#X connect 32 0 33 0;
#X connect 33 0 34 0;
#X connect 33 1 36 0;
#X connect 34 0 18 0;
#X connect 36 0 34 1;
#X restore 289 588 pd color===========;
#N canvas 243 406 776 360 preset========== 0;
#X obj 170 91 tgl 15 0 empty empty empty 17 7 0 10 -262144 -1 -1 0
1;
#X obj -8 -87 loadbang;
#X obj -8 -1 t b b b b b b b b b b b b b;
#X obj 170 120 s gem-ro;
#X obj 93 167 s gem-z-dis;
#X obj -8 -32 del 1000;
#X obj 14 -57 bng 15 250 50 0 empty empty empty 17 7 0 10 -262144 -1
-1;
#X msg 93 140 745.2;
#X msg 170 68 0;
#X obj 236 23 loadbang;
#X msg 237 45 \; theta_start const 0 \; theta_end const 0 \; theta_motion
const 0 \; phi_start const 0 \; phi_end const 0 \; phi_motion const
0 \; end_size const 0.01 \; start_size const 0.01 \; each-alpha const
0 \; each-radius const 0 \; each-res const 100 \;;
#X connect 0 0 3 0;
#X connect 1 0 5 0;
#X connect 2 9 7 0;
#X connect 2 12 8 0;
#X connect 5 0 2 0;
#X connect 6 0 5 0;
#X connect 7 0 4 0;
#X connect 8 0 0 0;
#X connect 9 0 10 0;
#X restore 289 613 pd preset==========;
#X obj 140 435 randomF 0.05;
#N canvas 646 182 720 535 (subpatch) 0;
#X obj 3 0 hsl 128 15 20 2 0 0 empty empty line-num_[f] 15 7 0 10 -262144
-1 -1 0 1;
#X obj -31 145 s partline;
#X obj -31 100 int;
#X floatatom -31 122 5 0 0 0 - - -;
#X obj 0 -51 loadbang;
#X obj 79 138 s toudp;
#X obj 79 112 packOSC;
#X floatatom 79 63 5 0 0 0 - - -;
#X msg 79 87 send /line-num \$1;
#X floatatom 137 -229 5 0 0 0 - - -;
#X obj 137 -295 r mouseright;
#X obj 137 -273 sel 0;
#X obj 137 -249 v forcex;
#X floatatom 194 -128 5 0 0 0 - - -;
#X obj 194 -44 spigot;
#X obj 137 -154 moses 0.05;
#X msg 194 -185 2.517;
#X obj 194 -105 expr ($f1/2.517);
#X floatatom 194 -76 5 0 0 0 - - -;
#X obj 194 -21 expr ($f1*-298)+300;
#X obj 235 -77 r line-num-tgl;
#X obj -157 47 t b;
#X msg -157 73 0;
#X obj -157 102 s \$0-line-action;
#X floatatom 267 -223 5 0 0 0 - - -;
#X obj 267 -267 sel 0;
#X obj 267 -148 moses 0.0001;
#X obj 377 -96 spigot;
#X floatatom 377 -73 5 0 0 0 - - -;
#X obj 267 -244 v forcey;
#X obj 267 -201 moses 1.77;
#X msg 324 -181 1.77;
#X obj 336 -126 expr ($f1/1.77);
#X obj 137 -207 moses 2.517;
#X obj 442 -126 r line-num-tgl;
#X obj 377 -49 expr ($f1*-298)+300;
#X obj -31 74 line;
#X msg -31 50 \$1 100;
#X msg 0 -29 20;
#X obj 77 40 expr (($f1-2)/18)*-10+12;
#X floatatom 11 30 5 0 0 0 - - -;
#X obj 62 -100 inlet;
#X obj 65 -67 k_range 0 1 20 2;
#X obj 250 133 s totouch;
#X obj 250 110 packOSC;
#X msg 248 81 send /m-u/9 \$1;
#X obj 245 55 k_range 20 2 0 1;
#X connect 0 0 21 0;
#X connect 0 0 37 0;
#X connect 0 0 39 0;
#X connect 0 0 40 0;
#X connect 0 0 46 0;
#X connect 2 0 3 0;
#X connect 3 0 1 0;
#X connect 4 0 38 0;
#X connect 6 0 5 0;
#X connect 7 0 8 0;
#X connect 8 0 6 0;
#X connect 9 0 33 0;
#X connect 10 0 11 0;
#X connect 10 0 25 0;
#X connect 11 0 12 0;
#X connect 12 0 9 0;
#X connect 13 0 17 0;
#X connect 14 0 19 0;
#X connect 15 1 13 0;
#X connect 16 0 15 0;
#X connect 17 0 18 0;
#X connect 18 0 14 0;
#X connect 19 0 0 0;
#X connect 20 0 14 1;
#X connect 21 0 22 0;
#X connect 22 0 23 0;
#X connect 24 0 30 0;
#X connect 25 0 29 0;
#X connect 26 1 32 0;
#X connect 27 0 28 0;
#X connect 28 0 35 0;
#X connect 29 0 24 0;
#X connect 30 0 26 0;
#X connect 30 1 31 0;
#X connect 31 0 26 0;
#X connect 32 0 27 0;
#X connect 33 0 15 0;
#X connect 33 1 16 0;
#X connect 34 0 27 1;
#X connect 35 0 0 0;
#X connect 36 0 2 0;
#X connect 37 0 36 0;
#X connect 38 0 0 0;
#X connect 39 0 7 0;
#X connect 41 0 42 0;
#X connect 42 0 0 0;
#X connect 44 0 43 0;
#X connect 45 0 44 0;
#X connect 46 0 45 0;
#X coords 0 1 100 -1 133 15 1 0 0;
#X restore 157 236 graph;
#X floatatom 209 381 5 0 0 0 - - -;
#N canvas 216 194 682 464 (subpatch) 0;
#X obj 3 0 hsl 128 15 0.05 2 0 0 empty empty hole-size_[h] 15 8 0 10
-262144 -1 -1 0 1;
#X floatatom 0 30 5 0 0 0 - - -;
#X obj 0 51 s randomback;
#X obj 92 133 s toudp;
#X obj 92 107 packOSC;
#X floatatom 92 59 5 0 0 0 - - -;
#X msg 92 82 send /black \$1;
#X obj 92 34 expr (($f1-0.05)/0.95)*0.9 +0.1;
#X floatatom -110 -160 5 0 0 0 - - -;
#X obj -110 -226 r mouseright;
#X obj -110 -204 sel 0;
#X obj -110 -85 moses 0.0001;
#X obj 65 -63 r hole-size-tgl;
#X obj 0 -33 spigot;
#X obj -66 50 t b;
#X msg -66 76 0;
#X obj -66 105 s \$0-stop-action;
#X obj -110 -181 v forcex;
#X msg -53 -118 2.517;
#X obj -110 -138 moses 2.517;
#X obj -41 -63 expr ($f1/2.517);
#X floatatom 133 -172 5 0 0 0 - - -;
#X obj 133 -216 sel 0;
#X obj 133 -97 moses 0.0001;
#X obj 308 -75 r hole-size-tgl;
#X obj 243 -45 spigot;
#X floatatom 243 -22 5 0 0 0 - - -;
#X floatatom 79 -32 5 0 0 0 - - -;
#X obj 133 -193 v forcey;
#X obj 133 -150 moses 1.77;
#X msg 190 -130 1.77;
#X obj 202 -75 expr ($f1/1.77);
#X obj -4 -131 inlet;
#X obj -3 -109 k_range 0 1 0.05 2;
#X obj 232 159 s totouch;
#X obj 232 136 packOSC;
#X obj 227 81 k_range 0.05 2 0 1;
#X msg 231 107 send /m-u/5 \$1;
#X connect 0 0 1 0;
#X connect 0 0 7 0;
#X connect 0 0 36 0;
#X connect 1 0 2 0;
#X connect 1 0 14 0;
#X connect 4 0 3 0;
#X connect 5 0 6 0;
#X connect 6 0 4 0;
#X connect 7 0 5 0;
#X connect 8 0 19 0;
#X connect 9 0 10 0;
#X connect 9 0 22 0;
#X connect 10 0 17 0;
#X connect 11 1 20 0;
#X connect 12 0 13 1;
#X connect 13 0 0 0;
#X connect 13 0 27 0;
#X connect 14 0 15 0;
#X connect 15 0 16 0;
#X connect 17 0 8 0;
#X connect 18 0 11 0;
#X connect 19 0 11 0;
#X connect 19 1 18 0;
#X connect 20 0 13 0;
#X connect 21 0 29 0;
#X connect 22 0 28 0;
#X connect 23 1 31 0;
#X connect 24 0 25 1;
#X connect 25 0 26 0;
#X connect 26 0 0 0;
#X connect 28 0 21 0;
#X connect 29 0 23 0;
#X connect 29 1 30 0;
#X connect 30 0 23 0;
#X connect 31 0 25 0;
#X connect 32 0 33 0;
#X connect 33 0 0 0;
#X connect 35 0 34 0;
#X connect 36 0 37 0;
#X connect 37 0 35 0;
#X coords 0 1 100 -1 133 15 1 0 0;
#X restore 157 196 graph;
#X obj 209 359 r randomback;
#N canvas 756 222 450 300 (subpatch) 0;
#X obj 0 21 s \$0-partline-tgl;
#X obj 0 0 tgl 15 0 empty empty line 17 7 0 10 -258113 -1 -162280 0
1;
#X obj 123 70 s toudp;
#X obj 123 44 packOSC;
#X msg 123 19 send /part-bomb \$1;
#X obj 0 -108 loadbang;
#X msg 0 -22 0;
#X obj 0 -87 t b b;
#X obj 0 -60 del 50;
#X obj 75 -57 inlet;
#X connect 1 0 0 0;
#X connect 1 0 4 0;
#X connect 3 0 2 0;
#X connect 4 0 3 0;
#X connect 5 0 7 0;
#X connect 6 0 1 0;
#X connect 7 0 8 0;
#X connect 8 0 6 0;
#X connect 9 0 1 0;
#X coords 0 1 100 -1 15 15 1 0 0;
#X restore 108 237 graph;
#N canvas 587 485 450 300 (subpatch) 0;
#X obj 0 0 tgl 15 0 empty empty part 17 7 0 10 -258113 -1 -162280 0
1;
#X obj 0 20 s \$0-part-tgl;
#X obj 0 -114 loadbang;
#X msg 0 -28 0;
#X obj 102 72 s toudp;
#X obj 102 46 packOSC;
#X msg 102 21 send /part-tgl \$1;
#X obj 0 -66 del 50;
#X obj 0 -93 t b;
#X obj 70 -72 inlet;
#X connect 0 0 1 0;
#X connect 0 0 6 0;
#X connect 2 0 8 0;
#X connect 3 0 0 0;
#X connect 5 0 4 0;
#X connect 6 0 5 0;
#X connect 7 0 3 0;
#X connect 8 0 7 0;
#X connect 9 0 0 0;
#X coords 0 1 100 -1 15 15 1 0 0;
#X restore 108 217 graph;
#N canvas 277 396 555 348 color 0;
#X obj 112 147 inlet;
#X obj 111 257 outlet;
#X obj 112 200 alpha;
#X obj 45 149 loadbang;
#X msg 45 172 auto 1;
#X floatatom 215 102 5 0 0 0 - - -;
#X obj 215 123 sel 0 1;
#X obj 187 176 unpack f f f;
#X obj 405 203 s hole-size-tgl;
#X obj 332 257 s data-info;
#X msg 332 233 1;
#X obj 343 22 r \$0-stop-action;
#X msg 257 146 1 0 0;
#X msg 174 145 0.05 0.1 0.2;
#X obj 139 177 tgl 15 0 empty empty empty 17 7 0 10 -262144 -1 -1 1
1;
#X obj 122 102 s data-info;
#X msg 122 78 5;
#X obj 111 227 colorRGB 0.1 0.1 0.1 0.8;
#X obj 215 27 route key_11;
#X obj 215 55 sel 1;
#X obj 215 80 tgl 15 0 empty empty empty 17 7 0 10 -262144 -1 -1 0
1;
#X obj 272 205 * 0.8;
#X obj 344 57 r \$0-hole-tgl;
#X obj 344 109 line;
#X msg 344 83 \$1 8000;
#X obj 214 -67 r gemkey;
#X obj 214 -41 t a a;
#X obj 214 1 spigot;
#X obj 249 -20 route key_226;
#X obj 272 236 > 0;
#X obj 272 262 outlet;
#X connect 0 0 2 0;
#X connect 2 0 17 0;
#X connect 3 0 4 0;
#X connect 3 0 14 0;
#X connect 4 0 2 0;
#X connect 5 0 6 0;
#X connect 5 0 8 0;
#X connect 6 0 13 0;
#X connect 6 1 12 0;
#X connect 6 1 10 0;
#X connect 7 0 17 1;
#X connect 7 1 17 2;
#X connect 7 2 17 3;
#X connect 10 0 9 0;
#X connect 11 0 20 0;
#X connect 12 0 7 0;
#X connect 13 0 7 0;
#X connect 14 0 2 1;
#X connect 16 0 15 0;
#X connect 17 0 1 0;
#X connect 18 0 19 0;
#X connect 19 0 16 0;
#X connect 19 0 20 0;
#X connect 20 0 5 0;
#X connect 21 0 17 4;
#X connect 21 0 29 0;
#X connect 22 0 24 0;
#X connect 23 0 21 0;
#X connect 24 0 23 0;
#X connect 25 0 26 0;
#X connect 26 0 27 0;
#X connect 26 1 28 0;
#X connect 27 0 18 0;
#X connect 28 0 27 1;
#X connect 29 0 30 0;
#X restore 100 389 pd color;
#N canvas 114 285 666 497 (subpatch) 0;
#X obj 0 -48 loadbang;
#X obj 3 0 hsl 128 15 0.1 0.5 0 0 empty empty part-speed_[g] 8 8 0
10 -262144 -1 -1 0 1;
#X floatatom 0 26 5 0 0 0 - - -;
#X msg 0 -27 0.1;
#X obj 89 185 s \$0-part-speed;
#X obj 0 119 s toudp;
#X obj 0 93 packOSC;
#X msg 0 68 send /part-speed \$1;
#X floatatom 176 -111 5 0 0 0 - - -;
#X obj 176 -177 r mouseright;
#X obj 176 -155 sel 0;
#X obj 176 -131 v forcex;
#X floatatom 233 -10 5 0 0 0 - - -;
#X obj 233 74 spigot;
#X obj 176 -36 moses 0.05;
#X obj 89 162 * 1.5;
#X msg 239 -64 2.517;
#X obj 233 13 expr ($f1/2.517);
#X floatatom 233 42 5 0 0 0 - - -;
#X obj 233 99 + 0.05;
#X obj 266 44 r part-speed-tgl;
#X obj -78 106 t b;
#X msg -78 132 0;
#X obj -78 161 s \$0-stop-speed;
#X obj 176 -89 moses 2.517;
#X floatatom 336 -106 5 0 0 0 - - -;
#X obj 336 -150 sel 0;
#X floatatom 393 -5 5 0 0 0 - - -;
#X obj 393 79 spigot;
#X obj 336 -31 moses 0.05;
#X floatatom 393 47 5 0 0 0 - - -;
#X obj 393 104 + 0.05;
#X obj 426 49 r part-speed-tgl;
#X obj 336 -126 v forcey;
#X obj 336 -84 moses 1.77;
#X msg 399 -59 1.77;
#X obj 393 18 expr ($f1/1.77);
#X obj 89 141 line;
#X msg 89 119 \$1 100;
#X obj -21 -101 inlet;
#X obj -20 -75 k_range 0 1 0.1 0.5;
#X obj 203 226 s totouch;
#X obj 203 203 packOSC;
#X msg 201 174 send /m-u/7 \$1;
#X obj 198 148 k_range 0.1 0.5 0 1;
#X connect 0 0 3 0;
#X connect 1 0 2 0;
#X connect 1 0 21 0;
#X connect 1 0 38 0;
#X connect 1 0 44 0;
#X connect 2 0 7 0;
#X connect 3 0 1 0;
#X connect 6 0 5 0;
#X connect 7 0 6 0;
#X connect 8 0 24 0;
#X connect 9 0 10 0;
#X connect 9 0 26 0;
#X connect 10 0 11 0;
#X connect 11 0 8 0;
#X connect 12 0 17 0;
#X connect 13 0 19 0;
#X connect 14 1 12 0;
#X connect 15 0 4 0;
#X connect 16 0 14 0;
#X connect 17 0 18 0;
#X connect 18 0 13 0;
#X connect 19 0 1 0;
#X connect 20 0 13 1;
#X connect 21 0 22 0;
#X connect 22 0 23 0;
#X connect 24 0 14 0;
#X connect 24 1 16 0;
#X connect 25 0 34 0;
#X connect 26 0 33 0;
#X connect 27 0 36 0;
#X connect 28 0 31 0;
#X connect 29 1 27 0;
#X connect 30 0 28 0;
#X connect 31 0 1 0;
#X connect 32 0 28 1;
#X connect 33 0 25 0;
#X connect 34 0 29 0;
#X connect 34 1 35 0;
#X connect 35 0 29 0;
#X connect 36 0 30 0;
#X connect 37 0 15 0;
#X connect 38 0 37 0;
#X connect 39 0 40 0;
#X connect 40 0 1 0;
#X connect 42 0 41 0;
#X connect 43 0 42 0;
#X connect 44 0 43 0;
#X coords 0 1 100 -1 133 15 1 0 0;
#X restore 157 216 graph;
#X obj -25 457 table tempo;
#N canvas 66 269 514 495 track=========== 0;
#X obj 91 369 -;
#X obj 76 401 *;
#X obj 76 437 +;
#X obj 271 361 -;
#X obj 256 393 *;
#X obj 256 428 +;
#X obj 21 11 inlet;
#X obj 256 258 f;
#X obj 21 88 f 1;
#X obj 48 88 +;
#X obj 76 463 tabwrite theta_motion;
#X obj 256 463 tabwrite phi_motion;
#X obj 271 284 t f f f;
#X obj 91 279 t f f f;
#X obj 76 250 f;
#X obj 21 65 repeat 10;
#X obj 76 88 % 10;
#X obj 76 221 t b f;
#X obj 256 231 t b f;
#X obj 110 310 tabread theta_end;
#X obj 91 347 tabread theta_start;
#X obj 290 309 tabread phi_end;
#X obj 271 339 tabread phi_start;
#X obj 198 189 expr abs($f1-0.5)*2;
#X obj 198 144 tabread pos;
#X obj 76 117 t f f f f======================;
#X text 322 191 1 0 1;
#X obj 198 166 / 400;
#X obj 72 31 r \$0-track;
#X obj 397 87 track 0;
#X obj 397 114 track 1;
#X obj 397 139 track 2;
#X obj 397 191 track 4;
#X obj 397 165 track 3;
#X obj 397 217 track 5;
#X obj 397 242 track 6;
#X obj 397 268 track 7;
#X obj 397 294 track 8;
#X connect 0 0 1 1;
#X connect 1 0 2 0;
#X connect 2 0 10 0;
#X connect 3 0 4 1;
#X connect 4 0 5 0;
#X connect 5 0 11 0;
#X connect 6 0 15 0;
#X connect 7 0 4 0;
#X connect 8 0 9 0;
#X connect 9 0 16 0;
#X connect 12 0 22 0;
#X connect 12 1 21 0;
#X connect 12 2 11 1;
#X connect 13 0 20 0;
#X connect 13 1 19 0;
#X connect 13 2 10 1;
#X connect 14 0 1 0;
#X connect 15 0 8 0;
#X connect 16 0 9 1;
#X connect 16 0 25 0;
#X connect 17 0 14 0;
#X connect 17 1 13 0;
#X connect 18 0 7 0;
#X connect 18 1 12 0;
#X connect 19 0 2 1;
#X connect 19 0 0 1;
#X connect 20 0 0 0;
#X connect 21 0 5 1;
#X connect 21 0 3 1;
#X connect 22 0 3 0;
#X connect 23 0 14 1;
#X connect 23 0 7 1;
#X connect 24 0 27 0;
#X connect 25 0 17 0;
#X connect 25 1 18 0;
#X connect 25 2 24 0;
#X connect 27 0 23 0;
#X connect 28 0 15 1;
#X connect 28 0 16 1;
#X restore 290 535 pd track===========;
#X obj -25 479 table xxx 3000;
#X obj -24 502 table yyy 3000;
#X obj -23 524 table zzz 3000;
#X text 270 78 6.drag on center-line;
#X obj 100 365 t a b;
#X obj 162 34 r \$0-gemhead-tgl;
#X obj 110 55 spigot;
#X text 421 3 7.key h selet hole-size;
#X text 421 22 8.key + add sphere obj;
#X obj 209 404 * 2;
#N canvas 861 113 667 721 particle======== 0;
#X obj -293 188 part_color;
#X msg -360 378 auto 1;
#X obj -360 354 loadbang;
#X obj -293 217 t a b;
#X obj -293 406 alpha;
#X obj -293 251 part_size 0.02;
#X obj -293 357 part_orbitpoint 0 0 0 0.01;
#X msg -372 70 speed \$1;
#X obj -212 227 + 0.01;
#X obj -102 211 r \$0-alpha;
#X msg -101 120 \$1 \$1 \$1;
#X obj -101 40 r particle-alpha;
#X obj -211 205 randomF 0.03;
#X floatatom -101 71 5 0 0 0 - - -;
#X obj -101 95 expr 1-($f1/0.7);
#X obj -266 386 tgl 15 0 empty empty empty 17 7 0 10 -262144 -1 -1
1 1;
#X obj -372 32 r \$0-part-speed;
#X floatatom -102 257 5 0 0 0 - - -;
#X obj -102 236 moses 0.5;
#X msg -51 257 0.5;
#X floatatom -140 335 5 0 0 0 - - -;
#X obj -102 281 expr $f1*0.5;
#X floatatom -456 70 5 0 0 0 - - -;
#X obj -456 97 t b;
#X msg -456 123 0;
#X obj -456 152 s \$0-stop-action;
#X obj -195 106 loadbang;
#N canvas 765 141 877 556 sphere 0;
#X obj 172 50 inlet;
#X obj 227 36 inlet;
#X obj 272 36 inlet;
#X obj 127 149 separator;
#X obj 127 212 translateXYZ 0 0 0;
#X obj 162 182 unpack f f f;
#X obj 128 36 inlet;
#X obj 172 81 t f f;
#X obj 246 268 * 1;
#X obj 127 321 colorRGB 1 1 1 0;
#N canvas 0 22 450 300 alpha 0;
#X obj 197 180 inlet;
#X obj 197 278 outlet;
#X msg 130 207 auto 1;
#X obj 130 146 loadbang;
#X obj 197 251 alpha;
#X obj 224 231 tgl 15 0 empty empty empty 17 7 0 10 -262144 -1 -1 1
1;
#X connect 0 0 4 0;
#X connect 2 0 4 0;
#X connect 3 0 2 0;
#X connect 3 0 5 0;
#X connect 4 0 1 0;
#X connect 5 0 4 1;
#X restore 127 236 pd alpha;
#X obj 127 348 scale 1;
#X obj 257 148 t f b;
#X obj 155 383 expr if($f1%$f2==0 \, 2 \, 1);
#X floatatom 555 150 5 0 0 0 - - -;
#X obj 555 205 sel 0 1;
#X msg 574 254 1 0 0;
#X obj 630 231 s part-speed-tgl;
#X obj 519 11 r \$0-stop-speed;
#X obj 595 155 s data-info;
#X msg 595 131 7;
#X msg 555 236 1 1 1;
#X obj 555 60 route key_10;
#X obj 555 82 sel 1;
#X obj 555 125 tgl 15 0 empty empty empty 17 7 0 10 -262144 -1 -1 0
1;
#X obj 555 104 t b b;
#X obj 555 176 t f f;
#X obj 150 294 unpack f f f;
#X obj 127 410 sphere 1.5 8;
#X obj 319 20 r \$0-part-tgl;
#X obj 319 71 line;
#X msg 319 47 \$1 10000;
#X obj 417 215 + 10;
#X obj 417 191 random 10;
#X obj 246 243 expr if($f1%$f2==0 \, 0.6 \, 0.3);
#X obj 557 -87 r gemkey;
#X obj 557 -61 t a a;
#X obj 557 -19 spigot;
#X obj 592 -41 route key_226;
#X obj 137 111 spigot;
#X obj 337 114 > 0;
#X connect 0 0 7 0;
#X connect 1 0 5 0;
#X connect 2 0 11 1;
#X connect 3 0 4 0;
#X connect 4 0 10 0;
#X connect 5 0 4 1;
#X connect 5 1 4 2;
#X connect 5 2 4 3;
#X connect 6 0 39 0;
#X connect 7 0 13 0;
#X connect 7 1 12 0;
#X connect 8 0 9 4;
#X connect 9 0 11 0;
#X connect 10 0 9 0;
#X connect 11 0 28 0;
#X connect 12 0 34 0;
#X connect 12 1 33 0;
#X connect 14 0 26 0;
#X connect 15 0 21 0;
#X connect 15 1 16 0;
#X connect 16 0 27 0;
#X connect 18 0 24 0;
#X connect 20 0 19 0;
#X connect 21 0 27 0;
#X connect 22 0 23 0;
#X connect 23 0 25 0;
#X connect 24 0 14 0;
#X connect 25 0 24 0;
#X connect 25 1 20 0;
#X connect 26 0 15 0;
#X connect 26 1 17 0;
#X connect 27 0 9 1;
#X connect 27 1 9 2;
#X connect 27 2 9 3;
#X connect 29 0 31 0;
#X connect 30 0 8 1;
#X connect 30 0 40 0;
#X connect 31 0 30 0;
#X connect 32 0 34 1;
#X connect 33 0 32 0;
#X connect 34 0 8 0;
#X connect 35 0 36 0;
#X connect 36 0 37 0;
#X connect 36 1 38 0;
#X connect 37 0 22 0;
#X connect 38 0 37 1;
#X connect 39 0 3 0;
#X connect 40 0 39 1;
#X restore -266 610 pd sphere 0 0 0 0;
#X msg -195 134 1 1 1;
#X obj -293 455 part_info 0 0 0 0 0 0 0 0;
#X obj -293 509 t a a;
#X obj -269 481 t f f;
#N canvas 311 52 899 721 line 0;
#X obj -39 129 separator;
#X obj -41 41 inlet;
#X obj -41 424 curve 2;
#X obj 5 -13 inlet id;
#X obj 123 -9 inlet xyz;
#X obj 381 193 tabwrite \$0-line_x;
#X obj 381 268 table \$0-line_x 600;
#X obj 382 289 table \$0-line_y 600;
#X obj 382 313 table \$0-line_z 600;
#X obj 381 217 tabwrite \$0-line_y;
#X obj 381 242 tabwrite \$0-line_z;
#X obj 381 165 unpack f f f;
#X obj 486 167 t f f f;
#X obj -41 208 spigot;
#X obj -113 300 loadbang;
#N canvas 0 22 450 300 alpha 0;
#X obj 163 104 inlet;
#X obj 163 202 outlet;
#X msg 96 131 auto 1;
#X obj 96 70 loadbang;
#X obj 163 175 alpha;
#X obj 190 155 tgl 15 0 empty empty empty 17 7 0 10 -262144 -1 -1 1
1;
#X connect 0 0 4 0;
#X connect 2 0 4 0;
#X connect 3 0 2 0;
#X connect 3 0 5 0;
#X connect 4 0 1 0;
#X connect 5 0 4 1;
#X restore -41 238 pd alpha;
#X obj 92 382 t f f b;
#X msg 195 368 0 0 0;
#X obj 256 217 tgl 15 0 empty empty empty 17 7 0 10 -262144 -1 -1 0
1;
#X obj 233 325 sel 0 1;
#X msg 233 346 1 0;
#X msg 261 346 0 1;
#X obj 243 375 unpack f f;
#X obj 151 415 spigot;
#X obj 195 415 spigot;
#X obj 151 367 + 1;
#X obj 256 300 s toudp;
#X obj 256 274 packOSC;
#X msg 256 249 send /part-ch \$1;
#X obj 256 188 r \$0-line-ch;
#N canvas 0 22 450 300 pos 0;
#X obj 192 91 inlet;
#X obj 190 114 t f f f;
#X obj 184 217 pack f f f;
#X obj 183 251 outlet;
#X obj 189 149 tabread \$0-line_x;
#X obj 211 172 tabread \$0-line_y;
#X obj 234 193 tabread \$0-line_z;
#X connect 0 0 1 0;
#X connect 1 0 4 0;
#X connect 1 1 5 0;
#X connect 1 2 6 0;
#X connect 2 0 3 0;
#X connect 4 0 2 0;
#X connect 5 0 2 1;
#X connect 6 0 2 2;
#X restore 92 434 pd pos;
#N canvas 0 22 450 300 pos 0;
#X obj 192 91 inlet;
#X obj 190 114 t f f f;
#X obj 184 217 pack f f f;
#X obj 183 251 outlet;
#X obj 189 149 tabread \$0-line_x;
#X obj 211 172 tabread \$0-line_y;
#X obj 234 193 tabread \$0-line_z;
#X connect 0 0 1 0;
#X connect 1 0 4 0;
#X connect 1 1 5 0;
#X connect 1 2 6 0;
#X connect 2 0 3 0;
#X connect 4 0 2 0;
#X connect 5 0 2 1;
#X connect 6 0 2 2;
#X restore 151 391 pd pos;
#X obj 205 31 line;
#X obj 205 -20 r \$0-partline-tgl;
#X obj 259 92 s toudp;
#X obj 259 66 packOSC;
#X msg 259 41 send /partline-tgl \$1;
#X msg 205 7 \$1 10000;
#X obj 15 238 unpack f f f;
#X floatatom -186 75 5 0 0 0 - - -;
#X obj -186 96 sel 0 1;
#X msg -168 151 1 0 0;
#X obj -225 -97 r \$0-line-action;
#X obj -148 73 s line-num-tgl;
#X obj -146 44 s data-info;
#X obj -187 -26 sel 1;
#X obj -187 -48 route key_9;
#X obj -186 16 tgl 15 0 empty empty empty 17 7 0 10 -262144 -1 -1 0
1;
#X obj -186 -5 t b b;
#X msg -146 22 6;
#X obj -186 41 t f f;
#X msg -186 127 1 1 1;
#X obj -8 173 expr if($f1%$f2==0 \, 1 \, 0);
#X obj -41 387 GEMglPointSize 1;
#X obj -2 306 % 30;
#X obj 156 83 r partline;
#X floatatom 156 113 5 0 0 0 - - -;
#X obj 89 137 + 10;
#X obj 89 113 random 10;
#X obj 5 13 t f f f f b;
#X obj -2 327 sel 15 23 28 3 7 11;
#X obj 99 235 * 0.7;
#X obj -41 266 colorRGB 1 1 1 0.7;
#X msg 96 351 2;
#X msg 35 357 4;
#X msg -19 355 6;
#X msg -113 324 draw point;
#X obj -187 -197 r gemkey;
#X obj -187 -171 t a a;
#X obj -187 -129 spigot;
#X obj -152 -150 route key_226;
#X obj -45 83 spigot;
#X obj 142 -66 > 0;
#X connect 0 0 13 0;
#X connect 1 0 71 0;
#X connect 3 0 59 0;
#X connect 4 0 11 0;
#X connect 11 0 5 0;
#X connect 11 1 9 0;
#X connect 11 2 10 0;
#X connect 12 0 5 1;
#X connect 12 1 9 1;
#X connect 12 2 10 1;
#X connect 13 0 15 0;
#X connect 14 0 66 0;
#X connect 15 0 62 0;
#X connect 16 0 30 0;
#X connect 16 1 25 0;
#X connect 16 2 17 0;
#X connect 17 0 24 0;
#X connect 18 0 19 0;
#X connect 18 0 28 0;
#X connect 19 0 20 0;
#X connect 19 1 21 0;
#X connect 20 0 22 0;
#X connect 21 0 22 0;
#X connect 22 0 23 1;
#X connect 22 1 24 1;
#X connect 23 0 2 2;
#X connect 24 0 2 2;
#X connect 25 0 31 0;
#X connect 27 0 26 0;
#X connect 28 0 27 0;
#X connect 29 0 18 0;
#X connect 30 0 2 1;
#X connect 31 0 23 0;
#X connect 32 0 61 0;
#X connect 32 0 72 0;
#X connect 33 0 37 0;
#X connect 33 0 36 0;
#X connect 35 0 34 0;
#X connect 36 0 35 0;
#X connect 37 0 32 0;
#X connect 38 0 62 1;
#X connect 38 1 62 2;
#X connect 38 2 62 3;
#X connect 39 0 40 0;
#X connect 40 0 51 0;
#X connect 40 1 41 0;
#X connect 41 0 38 0;
#X connect 42 0 47 0;
#X connect 45 0 48 0;
#X connect 46 0 45 0;
#X connect 47 0 50 0;
#X connect 48 0 47 0;
#X connect 48 1 49 0;
#X connect 49 0 44 0;
#X connect 50 0 39 0;
#X connect 50 1 43 0;
#X connect 51 0 38 0;
#X connect 52 0 13 1;
#X connect 53 0 2 0;
#X connect 54 0 60 0;
#X connect 55 0 56 0;
#X connect 56 0 58 1;
#X connect 56 0 57 1;
#X connect 57 0 52 1;
#X connect 58 0 57 0;
#X connect 59 0 16 0;
#X connect 59 1 12 0;
#X connect 59 2 52 0;
#X connect 59 3 54 0;
#X connect 59 4 58 0;
#X connect 60 0 65 0;
#X connect 60 1 64 0;
#X connect 60 2 64 0;
#X connect 60 3 64 0;
#X connect 60 4 64 0;
#X connect 60 5 64 0;
#X connect 60 6 63 0;
#X connect 61 0 62 4;
#X connect 62 0 53 0;
#X connect 63 0 53 1;
#X connect 64 0 53 1;
#X connect 65 0 53 1;
#X connect 66 0 2 0;
#X connect 67 0 68 0;
#X connect 68 0 69 0;
#X connect 68 1 70 0;
#X connect 69 0 46 0;
#X connect 70 0 69 1;
#X connect 71 0 0 0;
#X connect 72 0 71 1;
#X restore -366 612 pd line 0 0 0 0;
#X obj -293 282 part_velocity blob 0 0 0 0.2;
#X obj -293 310 part_source 10;
#X obj -293 71 r \$0-gemhead;
#X obj -293 94 separator;
#X obj -293 128 part_head 2000;
#X obj -293 431 part_killold 25;
#X connect 0 0 3 0;
#X connect 1 0 4 0;
#X connect 2 0 1 0;
#X connect 2 0 15 0;
#X connect 3 0 5 0;
#X connect 3 1 12 0;
#X connect 4 0 38 0;
#X connect 5 0 33 0;
#X connect 6 0 4 0;
#X connect 7 0 37 0;
#X connect 8 0 5 1;
#X connect 9 0 18 0;
#X connect 11 0 13 0;
#X connect 12 0 8 0;
#X connect 13 0 14 0;
#X connect 14 0 10 0;
#X connect 15 0 4 1;
#X connect 16 0 7 0;
#X connect 16 0 22 0;
#X connect 17 0 21 0;
#X connect 18 0 17 0;
#X connect 18 1 19 0;
#X connect 19 0 21 0;
#X connect 20 0 6 2;
#X connect 21 0 20 0;
#X connect 22 0 23 0;
#X connect 23 0 24 0;
#X connect 24 0 25 0;
#X connect 26 0 28 0;
#X connect 28 0 0 1;
#X connect 28 0 0 2;
#X connect 29 0 30 0;
#X connect 29 1 31 0;
#X connect 29 2 27 2;
#X connect 29 2 32 2;
#X connect 29 5 27 3;
#X connect 30 0 32 0;
#X connect 30 1 27 0;
#X connect 31 0 32 1;
#X connect 31 1 27 1;
#X connect 33 0 34 0;
#X connect 34 0 6 0;
#X connect 35 0 36 0;
#X connect 36 0 37 0;
#X connect 37 0 0 0;
#X connect 38 0 29 0;
#X restore 291 557 pd particle========;
#X obj 143 35 tgl 15 0 empty empty empty 17 7 0 10 -262144 -1 -1 1
1;
#X obj 110 7 r hid;
#N canvas 967 222 494 345 (subpatch) 0;
#X obj 0 -55 route key_29;
#X obj 0 -31 sel 1;
#X obj 0 21 s \$0-line-ch;
#X obj 0 0 tgl 15 0 empty empty CH 17 7 0 10 -262144 -1 -162280 0 1
;
#X obj 0 -155 r gemkey;
#X obj 0 -129 t a a;
#X obj 0 -87 spigot;
#X obj 35 -108 route key_226;
#X obj -40 -34 inlet;
#X obj 76 97 s totouch;
#X obj 76 74 packOSC;
#X msg 75 45 send /m-u/1 \$1;
#X connect 0 0 1 0;
#X connect 1 0 3 0;
#X connect 3 0 2 0;
#X connect 3 0 11 0;
#X connect 4 0 5 0;
#X connect 5 0 6 0;
#X connect 5 1 7 0;
#X connect 6 0 0 0;
#X connect 7 0 6 1;
#X connect 8 0 2 0;
#X connect 10 0 9 0;
#X connect 11 0 10 0;
#X coords 0 1 100 -1 15 15 1 0 0;
#X restore 108 262 graph;
#X obj 110 80 s gemkey;
#X obj 427 585 rotateXYZ 0 0 0;
#X obj 470 532 expr fmod($f1 \, 360);
#X floatatom 485 562 5 0 0 0 - - -;
#X obj 497 507 + 0.2;
#X obj 101 503 r \$0-gemhead;
#X obj 164 524 r \$0-alpha;
#X obj 164 546 > 0;
#X obj 101 528 spigot;
#N canvas 193 499 450 300 (subpatch) 0;
#X obj 0 0 tgl 15 0 empty empty hole 17 7 0 10 -258113 -1 -162280 1
1;
#X obj 0 -108 loadbang;
#X msg 0 -22 0;
#X obj 0 27 s \$0-hole-tgl;
#X obj 112 82 s toudp;
#X obj 112 56 packOSC;
#X msg 112 31 send /hole-tgl \$1;
#X obj 0 -60 del 50;
#X obj 0 -87 t b;
#X obj 64 -59 inlet;
#X connect 0 0 3 0;
#X connect 0 0 6 0;
#X connect 1 0 8 0;
#X connect 2 0 0 0;
#X connect 5 0 4 0;
#X connect 6 0 5 0;
#X connect 7 0 2 0;
#X connect 8 0 7 0;
#X connect 9 0 0 0;
#X coords 0 1 100 -1 15 15 1 0 0;
#X restore 108 197 graph;
#X obj 427 483 gemhead 800;
#X obj 513 238 r \$0-gemhead;
#X text 138 110 Ttrack;
#X obj 513 298 alpha;
#X obj 503 202 loadbang;
#X msg 541 268 1;
#X msg 503 268 auto 1;
#X obj 513 322 colorRGB 1 1 1 0.4;
#X obj 290 458 metro 30;
#X obj 582 275 r \$0-alpha;
#X text 155 273 0;
#X text 173 273 1;
#X text 187 273 2;
#X text 203 273 3;
#X text 218 273 4;
#X text 233 273 5;
#X text 249 273 6;
#X text 264 273 7;
#X obj 177 86 > 0;
#X obj 179 64 ctlin 35;
#X obj 161 -34 r touchosc;
#X obj 161 -10 routeOSC /m-u;
#X obj 161 13 route /1;
#N canvas 24 226 920 408 touch========== 0;
#X obj 119 -190 r touchosc;
#X obj 118 -84 outlet;
#X obj 139 -57 outlet;
#X obj 119 -166 routeOSC /m-u;
#X obj 159 -24 outlet;
#X obj 180 3 outlet;
#X obj 211 -19 outlet;
#X obj 232 8 outlet;
#X obj 277 12 outlet;
#X obj 298 39 outlet;
#X obj 119 -143 route /2 /3 /4 /5 /6 /7 /8 /9;
#X obj 369 -116 sel 1;
#X msg 369 -93 0;
#X floatatom 392 -27 5 0 0 0 - - -;
#X obj 369 -150 route /10/1/1 /10/1/2 /10/1/3 /10/1/4 /10/1/5 /10/1/6
/10/1/7 /10/1/8;
#X obj 412 -116 sel 1;
#X obj 454 -115 sel 1;
#X obj 497 -115 sel 1;
#X obj 538 -114 sel 1;
#X obj 581 -114 sel 1;
#X obj 623 -113 sel 1;
#X obj 666 -113 sel 1;
#X msg 412 -93 1;
#X msg 454 -92 2;
#X msg 497 -92 3;
#X msg 538 -91 4;
#X msg 581 -91 5;
#X msg 623 -90 6;
#X msg 666 -90 7;
#X obj 391 -3 outlet;
#X obj 485 26 outlet;
#X obj 485 -14 route /11 /12/1/1 /12/1/2 /12/1/3 /12/1/4 /12/1/5 /12/1/6
/12/1/7 /12/1/8;
#X obj 531 28 sel 1;
#X msg 531 51 0;
#X floatatom 554 117 5 0 0 0 - - -;
#X obj 574 28 sel 1;
#X obj 616 29 sel 1;
#X obj 659 29 sel 1;
#X obj 700 30 sel 1;
#X obj 743 30 sel 1;
#X obj 785 31 sel 1;
#X obj 828 31 sel 1;
#X msg 574 51 1;
#X msg 616 52 2;
#X msg 659 52 3;
#X msg 700 53 4;
#X msg 743 53 5;
#X msg 785 54 6;
#X msg 828 54 7;
#X obj 553 141 outlet;
#X connect 0 0 3 0;
#X connect 3 0 10 0;
#X connect 10 0 1 0;
#X connect 10 1 2 0;
#X connect 10 2 4 0;
#X connect 10 3 5 0;
#X connect 10 4 6 0;
#X connect 10 5 7 0;
#X connect 10 6 8 0;
#X connect 10 7 9 0;
#X connect 10 8 14 0;
#X connect 10 8 31 0;
#X connect 11 0 12 0;
#X connect 12 0 13 0;
#X connect 13 0 29 0;
#X connect 14 0 11 0;
#X connect 14 1 15 0;
#X connect 14 2 16 0;
#X connect 14 3 17 0;
#X connect 14 4 18 0;
#X connect 14 5 19 0;
#X connect 14 6 20 0;
#X connect 14 7 21 0;
#X connect 15 0 22 0;
#X connect 16 0 23 0;
#X connect 17 0 24 0;
#X connect 18 0 25 0;
#X connect 19 0 26 0;
#X connect 20 0 27 0;
#X connect 21 0 28 0;
#X connect 22 0 13 0;
#X connect 23 0 13 0;
#X connect 24 0 13 0;
#X connect 25 0 13 0;
#X connect 26 0 13 0;
#X connect 27 0 13 0;
#X connect 28 0 13 0;
#X connect 31 0 30 0;
#X connect 31 1 32 0;
#X connect 31 2 35 0;
#X connect 31 3 36 0;
#X connect 31 4 37 0;
#X connect 31 5 38 0;
#X connect 31 6 39 0;
#X connect 31 7 40 0;
#X connect 31 8 41 0;
#X connect 32 0 33 0;
#X connect 33 0 34 0;
#X connect 34 0 49 0;
#X connect 35 0 42 0;
#X connect 36 0 43 0;
#X connect 37 0 44 0;
#X connect 38 0 45 0;
#X connect 39 0 46 0;
#X connect 40 0 47 0;
#X connect 41 0 48 0;
#X connect 42 0 34 0;
#X connect 43 0 34 0;
#X connect 44 0 34 0;
#X connect 45 0 34 0;
#X connect 46 0 34 0;
#X connect 47 0 34 0;
#X connect 48 0 34 0;
#X restore 23 140 pd touch==========;
#X obj 98 318 tgl 15 0 empty empty empty 17 7 0 10 -262144 -1 -1 1
1;
#X obj 513 347 facing;
#X obj 513 369 scale 1;
#X obj 513 394 circle 0.06;
#X connect 33 0 67 0;
#X connect 35 0 34 1;
#X connect 36 0 79 0;
#X connect 36 0 81 0;
#X connect 38 0 78 0;
#X connect 38 1 36 0;
#X connect 40 0 7 0;
#X connect 40 1 8 0;
#X connect 40 2 41 0;
#X connect 44 0 87 0;
#X connect 47 0 95 0;
#X connect 47 1 13 0;
#X connect 48 0 47 0;
#X connect 49 0 62 0;
#X connect 49 1 39 0;
#X connect 52 0 35 0;
#X connect 54 0 72 0;
#X connect 56 0 54 0;
#X connect 59 0 34 0;
#X connect 59 1 111 0;
#X connect 67 0 59 0;
#X connect 67 1 52 0;
#X connect 68 0 74 0;
#X connect 69 0 77 0;
#X connect 72 0 52 1;
#X connect 74 0 69 1;
#X connect 75 0 69 0;
#X connect 78 0 37 0;
#X connect 79 0 80 0;
#X connect 80 0 78 2;
#X connect 81 0 36 1;
#X connect 82 0 85 0;
#X connect 83 0 84 0;
#X connect 84 0 85 1;
#X connect 85 0 40 0;
#X connect 87 0 38 0;
#X connect 88 0 90 0;
#X connect 90 0 94 0;
#X connect 91 0 92 0;
#X connect 91 0 93 0;
#X connect 92 0 90 1;
#X connect 93 0 90 0;
#X connect 94 0 112 0;
#X connect 95 0 49 0;
#X connect 96 0 94 4;
#X connect 105 0 11 0;
#X connect 106 0 105 0;
#X connect 107 0 108 0;
#X connect 108 0 109 0;
#X connect 109 0 11 0;
#X connect 110 0 76 0;
#X connect 110 1 9 0;
#X connect 110 2 86 0;
#X connect 110 3 55 0;
#X connect 110 4 58 0;
#X connect 110 5 60 0;
#X connect 110 6 57 0;
#X connect 110 7 53 0;
#X connect 110 8 10 0;
#X connect 110 9 27 0;
#X connect 110 10 14 0;
#X connect 111 0 33 0;
#X connect 112 0 113 0;
#X connect 113 0 114 0;
#X coords 0 -1 1 1 385 210 1 100 100;
