#N canvas 235 182 872 498 10;
#X obj 101 119 cnv 15 118 100 empty empty empty 20 12 0 14 -1985 -66577
0;
#N canvas 504 200 564 589 end 0;
#X obj 24 352 deg2rad;
#X obj 305 333 * 360;
#X obj 305 354 deg2rad;
#X obj 24 327 * 360;
#X obj 191 23 inlet;
#X obj 191 79 f 1;
#X obj 191 99 +;
#X obj 305 230 t b f f;
#X obj 305 381 +;
#X obj 180 193 t b f f;
#X obj 24 422 +;
#X obj 191 127 % 50;
#X obj 242 28 r \$0-size;
#X obj 191 55 repeat 50;
#X obj 191 147 t f f f;
#X obj 293 127 sel 0 1;
#X msg 293 156 1;
#X obj 24 273 randomF 0.2;
#X obj 305 258 randomF 0.2;
#X obj 24 377 * 2;
#X msg 312 184 -1;
#X obj 24 300 * 0;
#X obj 305 301 * 0;
#X obj 293 100 tabread \$0-dir;
#X obj 375 332 tabread \$0-phi_start;
#X obj 305 413 tabwrite \$0-phi_end;
#X obj 24 454 tabwrite \$0-theta_end;
#X obj 39 400 tabread \$0-theta_start;
#X connect 0 0 19 0;
#X connect 1 0 2 0;
#X connect 2 0 8 0;
#X connect 3 0 0 0;
#X connect 4 0 13 0;
#X connect 5 0 6 0;
#X connect 6 0 11 0;
#X connect 7 0 18 0;
#X connect 7 1 25 1;
#X connect 7 2 24 0;
#X connect 8 0 25 0;
#X connect 9 0 17 0;
#X connect 9 1 26 1;
#X connect 9 2 27 0;
#X connect 10 0 26 0;
#X connect 11 0 6 1;
#X connect 11 0 14 0;
#X connect 12 0 11 1;
#X connect 12 0 13 1;
#X connect 13 0 5 0;
#X connect 14 0 9 0;
#X connect 14 1 7 0;
#X connect 14 2 23 0;
#X connect 15 0 16 0;
#X connect 15 1 20 0;
#X connect 16 0 21 1;
#X connect 16 0 22 1;
#X connect 17 0 21 0;
#X connect 18 0 22 0;
#X connect 19 0 10 0;
#X connect 20 0 21 1;
#X connect 20 0 22 1;
#X connect 21 0 3 0;
#X connect 22 0 1 0;
#X connect 23 0 15 0;
#X connect 24 0 8 1;
#X connect 27 0 10 1;
#X restore 408 353 pd end;
#N canvas 784 395 535 425 copy_end 0;
#X obj 79 37 inlet;
#X obj 79 90 f 1;
#X obj 79 110 +;
#X obj 106 189 t f f f;
#X obj 79 164 t f f;
#X obj 40 242 t f f f;
#X obj 79 138 % 50;
#X obj 130 38 r \$0-size;
#X obj 79 66 repeat 50;
#X obj 125 217 tabread \$0-theta_end;
#X obj 125 242 tabwrite \$0-theta_start;
#X obj 59 286 tabread \$0-phi_end;
#X obj 59 308 tabwrite \$0-phi_start;
#X connect 0 0 8 0;
#X connect 1 0 2 0;
#X connect 2 0 6 0;
#X connect 3 1 9 0;
#X connect 3 2 10 1;
#X connect 4 0 5 0;
#X connect 4 1 3 0;
#X connect 5 1 11 0;
#X connect 5 2 12 1;
#X connect 6 0 2 1;
#X connect 6 0 4 0;
#X connect 7 0 6 1;
#X connect 7 0 8 1;
#X connect 8 0 1 0;
#X connect 9 0 10 0;
#X connect 11 0 12 0;
#X restore 428 378 pd copy_end;
#X obj 320 305 tgl 30 0 empty empty G 10 15 0 15 -191407 -1 -1 0 1
;
#X obj 195 71 loadbang;
#N canvas 607 122 921 630 loadbang 0;
#X obj 50 491 deg2rad;
#X obj 173 359 deg2rad;
#X obj 124 173 repeat 100;
#X obj 124 197 f 1;
#X obj 124 217 +;
#X obj 124 245 % 100;
#X obj 124 266 t f f;
#X obj 173 246 t b f f;
#X obj 50 380 t b f f;
#X obj 100 74 loadbang;
#X obj 100 100 bng 20 250 50 0 empty empty empty 17 7 0 10 -262144
-1 -1;
#X obj 173 284 randomF 0.1;
#X obj 50 407 randomF 0.1;
#X obj 341 520 deg2rad;
#X obj 391 374 * 360;
#X obj 391 395 deg2rad;
#X obj 341 492 * 360;
#X obj 341 155 repeat 100;
#X obj 341 179 f 1;
#X obj 341 199 +;
#X obj 341 227 % 100;
#X obj 341 248 t f f;
#X obj 391 296 t b f f;
#X obj 341 409 t b f f;
#X obj 254 209 bng 15 250 50 0 empty empty empty 17 7 0 10 -262144
-1 -1;
#X obj 391 325 f 0;
#X obj 341 436 f 0;
#X obj 181 137 r \$0-size;
#X obj 50 433 + 0;
#X obj 173 313 + 0;
#X obj 105 131 t b b b;
#X obj 173 338 * 360;
#X obj 50 462 * 360;
#X obj 50 516 * 2;
#X obj 493 194 f 1;
#X obj 493 214 +;
#X obj 493 146 bng 15 250 50 0 empty empty empty 17 7 0 10 -262144
-1 -1;
#X obj 493 170 repeat 100;
#X obj 493 242 % 100;
#X obj 493 263 t b f;
#X obj 493 121 loadbang;
#X obj 65 314 randomF 0.5;
#X obj 487 297 random 2;
#X obj 50 540 tabwrite \$0-theta_end;
#X obj 173 384 tabwrite \$0-phi_end;
#X obj 341 545 tabwrite \$0-theta_end;
#X obj 391 418 tabwrite \$0-phi_end;
#X obj 486 354 tabwrite \$0-dir;
#X obj 398 121 r \$0-size;
#X obj 550 142 r \$0-size;
#X obj 832 332 s \$0-radius;
#X obj 750 333 s \$0-length;
#X obj 621 335 s \$0-link;
#X obj 687 334 s \$0-face;
#X msg 621 305 0;
#X msg 750 306 0;
#X msg 832 307 1;
#X obj 621 249 loadbang;
#X obj 621 270 t b b b b;
#X msg 687 305 0.1;
#X obj 594 438 f 1;
#X obj 594 458 +;
#X obj 594 390 bng 15 250 50 0 empty empty empty 17 7 0 10 -262144
-1 -1;
#X obj 594 414 repeat 100;
#X obj 594 486 % 100;
#X obj 594 507 t b f;
#X obj 588 598 tabwrite \$0-kk;
#X obj 588 570 + 0.1;
#X obj 588 540 randomF 0.2;
#X obj 651 386 init 100;
#X obj 594 363 loadbang;
#X obj 65 75 inlet;
#X connect 0 0 33 0;
#X connect 1 0 44 0;
#X connect 2 0 3 0;
#X connect 3 0 4 0;
#X connect 4 0 5 0;
#X connect 5 0 4 1;
#X connect 5 0 6 0;
#X connect 6 0 8 0;
#X connect 6 1 7 0;
#X connect 7 0 11 0;
#X connect 7 1 44 1;
#X connect 8 0 12 0;
#X connect 8 1 43 1;
#X connect 9 0 10 0;
#X connect 9 0 24 0;
#X connect 10 0 30 0;
#X connect 11 0 29 0;
#X connect 12 0 28 0;
#X connect 13 0 45 0;
#X connect 14 0 15 0;
#X connect 15 0 46 0;
#X connect 16 0 13 0;
#X connect 17 0 18 0;
#X connect 18 0 19 0;
#X connect 19 0 20 0;
#X connect 20 0 19 1;
#X connect 20 0 21 0;
#X connect 21 0 23 0;
#X connect 21 1 22 0;
#X connect 22 0 25 0;
#X connect 22 1 46 1;
#X connect 23 0 26 0;
#X connect 23 1 45 1;
#X connect 24 0 17 0;
#X connect 25 0 14 0;
#X connect 26 0 16 0;
#X connect 27 0 2 1;
#X connect 27 0 5 1;
#X connect 28 0 32 0;
#X connect 29 0 31 0;
#X connect 30 1 2 0;
#X connect 30 2 41 0;
#X connect 31 0 1 0;
#X connect 32 0 0 0;
#X connect 33 0 43 0;
#X connect 34 0 35 0;
#X connect 35 0 38 0;
#X connect 36 0 37 0;
#X connect 37 0 34 0;
#X connect 38 0 35 1;
#X connect 38 0 39 0;
#X connect 39 0 42 0;
#X connect 39 1 47 1;
#X connect 40 0 36 0;
#X connect 41 0 28 1;
#X connect 41 0 29 1;
#X connect 42 0 47 0;
#X connect 48 0 17 1;
#X connect 48 0 20 1;
#X connect 49 0 37 1;
#X connect 49 0 38 1;
#X connect 54 0 52 0;
#X connect 55 0 51 0;
#X connect 56 0 50 0;
#X connect 57 0 58 0;
#X connect 58 0 54 0;
#X connect 58 1 59 0;
#X connect 58 2 55 0;
#X connect 58 3 56 0;
#X connect 59 0 53 0;
#X connect 60 0 61 0;
#X connect 61 0 64 0;
#X connect 62 0 63 0;
#X connect 63 0 60 0;
#X connect 64 0 61 1;
#X connect 64 0 65 0;
#X connect 65 0 68 0;
#X connect 65 1 66 1;
#X connect 67 0 66 0;
#X connect 68 0 67 0;
#X connect 69 0 63 1;
#X connect 69 0 64 1;
#X connect 70 0 62 0;
#X connect 71 0 10 0;
#X coords 0 -1 1 1 20 20 2 100 100;
#X restore 195 196 pd loadbang;
#X obj 108 183 hsl 80 15 0.05 1 0 0 empty empty face 5 7 0 10 -262144
-1 -1 0 1;
#X obj 108 201 hsl 80 15 0.1 4 0 0 empty empty connect 5 6 0 10 -262144
-1 -1 0 1;
#X obj 108 165 hsl 80 15 0 0.8 0 0 empty empty length 5 6 0 10 -262144
-1 -1 0 1;
#X obj 389 298 metro 2000;
#X obj 451 38 table \$0-theta_start 200;
#X obj 451 58 table \$0-theta_end 200;
#X obj 451 77 table \$0-phi_start 200;
#X obj 451 99 table \$0-phi_end 200;
#X obj 451 120 table \$0-phi_motion 200;
#X obj 451 138 table \$0-theta_motion 200;
#X obj 453 181 table \$0-dir 100;
#X obj 453 160 table \$0-kk 1000;
#N canvas 336 175 544 477 (subpatch) 1;
#X obj 1 88 s \$0-size;
#X obj 3 0 hsl 80 15 1 40 0 0 empty empty N=2 8 8 0 10 -262144 -1 -1
0 1;
#X obj 0 33 int;
#X obj -36 115 outlet;
#X msg 69 61 label N=\$1;
#X obj 86 -79 f;
#X obj 0 -263 r mouseleft3;
#X obj 0 -180 sel 1;
#X obj 90 -180 sel 1;
#X obj 94 -260 r mouseright3;
#X obj 0 -155 t b b;
#X msg 131 -106 1;
#X msg 164 -107 -1;
#X obj 90 -157 t b b;
#X floatatom 0 -26 5 0 0 0 - - -;
#X obj 116 -79 + 1;
#X obj 94 -204 spigot;
#X obj 0 -206 spigot;
#X msg -61 -170 1;
#X obj 127 -237 r \$0-show;
#X obj 33 -239 r \$0-show;
#X obj -61 -218 r \$0-show;
#X obj -61 -195 sel 1;
#X obj 195 6 line;
#X obj 0 -65 r \$0-m-r-num;
#X obj 195 -41 r \$0-m-r-num1;
#X msg 195 -18 \$1 2000;
#X obj 161 41 t f f;
#X obj 164 74 -;
#X floatatom 166 100 5 0 0 0 - - -;
#X obj 165 128 > 0;
#X obj 161 164 s toclicksound;
#X connect 1 0 2 0;
#X connect 1 0 5 1;
#X connect 1 0 3 0;
#X connect 1 0 27 0;
#X connect 2 0 0 0;
#X connect 2 0 4 0;
#X connect 4 0 1 0;
#X connect 5 0 15 0;
#X connect 6 0 17 0;
#X connect 7 0 10 0;
#X connect 8 0 13 0;
#X connect 9 0 16 0;
#X connect 10 0 5 0;
#X connect 10 1 11 0;
#X connect 11 0 15 1;
#X connect 12 0 15 1;
#X connect 13 0 5 0;
#X connect 13 1 12 0;
#X connect 14 0 1 0;
#X connect 15 0 14 0;
#X connect 16 0 8 0;
#X connect 17 0 7 0;
#X connect 18 0 14 0;
#X connect 18 0 5 1;
#X connect 19 0 16 1;
#X connect 20 0 17 1;
#X connect 21 0 22 0;
#X connect 22 0 18 0;
#X connect 23 0 14 0;
#X connect 24 0 14 0;
#X connect 25 0 26 0;
#X connect 26 0 23 0;
#X connect 27 0 28 1;
#X connect 27 1 28 0;
#X connect 28 0 29 0;
#X connect 29 0 30 0;
#X connect 30 0 31 0;
#X coords 0 1 100 -1 85 15 1 0 0;
#X restore 105 125 graph;
#X obj 108 145 hsl 80 15 0.01 8 0 0 empty empty radius 5 6 0 10 -262144
-1 -1 0 1;
#X msg 195 94 0;
#X floatatom 63 262 5 0 0 0 - - -;
#X floatatom 63 241 5 0 0 0 - - -;
#X floatatom 62 281 5 0 0 0 - - -;
#X floatatom 62 300 5 0 0 0 - - -;
#X obj 389 321 t b b b;
#X obj 320 342 s \$0-go;
#X obj 389 246 r \$0-go;
#X obj 195 122 tgl 20 0 empty empty H 6 10 0 14 -258113 -1 -1 0 1;
#X obj 249 125 s \$0-show;
#X obj 389 274 tgl 15 0 empty empty empty 17 7 0 10 -262144 -1 -1 0
1;
#X obj 389 400 s \$0-start;
#N canvas 558 24 1105 780 motion============ 0;
#X obj 404 322 -;
#X obj 386 352 *;
#X obj 386 374 +;
#X obj 607 312 -;
#X obj 592 344 *;
#X obj 586 369 +;
#X obj 421 220 f;
#X obj 387 124 f 1;
#X obj 387 146 +;
#X obj 607 238 t f f f;
#X obj 404 248 t f f f;
#X obj 387 196 t b f b f;
#X obj 371 309 f;
#X obj 387 74 t b f f;
#X obj -20 133 separator;
#X obj -20 74 repeat 50;
#X obj 387 101 repeat 50;
#X obj 387 170 % 50;
#X obj 281 333 distance_n;
#X obj -20 105 t a a b;
#X obj 156 205 repeat;
#X obj 121 277 separator;
#X obj 156 179 separator;
#X obj 121 453 curve 2;
#X obj 121 305 spigot;
#X obj 247 260 + 1;
#X obj 189 153 t f f;
#X obj 189 128 expr $f2-$f1;
#X obj 444 47 r \$0-size;
#X obj 123 -42 r \$0-size;
#X floatatom -74 450 5 0 0 0 - - -;
#N canvas 803 241 551 556 circle 0;
#X obj -87 367 alpha;
#X obj -174 248 loadbang;
#X obj 24 342 inlet;
#X floatatom 24 370 5 0 0 0 - - -;
#X obj -123 100 inlet;
#X msg -174 288 auto 1;
#X obj -121 194 separator;
#X obj -121 214 translateXYZ 0 0 0.001;
#X obj -87 393 circle 0.1;
#X obj 85 173 r \$0-show;
#X obj 85 197 sel 0 1;
#X msg 77 243 0;
#X obj 114 299 line;
#X obj -125 289 tgl 15 0 empty empty empty 17 7 0 10 -262144 -1 -1
1 1;
#X obj -87 338 colorRGB 1 1 1 0;
#X msg -256 367 draw fill;
#X obj -283 343 sel 0;
#X obj -296 96 inlet;
#X obj -283 311 f;
#X obj -255 313 + 1;
#X msg -281 398 draw line;
#X obj -286 252 t b;
#X msg -298 422 width 3;
#X obj -222 313 % 15;
#X obj -98 259 t a b;
#X msg 114 247 1;
#X obj 4 305 *;
#X obj 4 256 randomF 0.4;
#X obj 4 280 + 0.3;
#X obj -34 155 unpack f f f;
#X msg -66 120 1 1 1;
#X msg -14 121 0.2 0.4 1;
#X obj -14 69 r \$0-data;
#X obj -14 92 sel 2 4;
#X msg 114 279 \$1 10000;
#X connect 0 0 8 0;
#X connect 1 0 5 0;
#X connect 1 0 13 0;
#X connect 2 0 3 0;
#X connect 3 0 8 1;
#X connect 4 0 6 0;
#X connect 5 0 0 0;
#X connect 6 0 7 0;
#X connect 7 0 24 0;
#X connect 9 0 10 0;
#X connect 10 0 11 0;
#X connect 10 1 25 0;
#X connect 11 0 34 0;
#X connect 12 0 26 1;
#X connect 13 0 0 1;
#X connect 14 0 0 0;
#X connect 15 0 8 0;
#X connect 16 0 20 0;
#X connect 16 0 22 0;
#X connect 16 1 15 0;
#X connect 17 0 21 0;
#X connect 18 0 19 0;
#X connect 18 0 16 0;
#X connect 19 0 23 0;
#X connect 20 0 8 0;
#X connect 21 0 18 0;
#X connect 22 0 8 0;
#X connect 23 0 18 1;
#X connect 24 0 14 0;
#X connect 24 1 27 0;
#X connect 25 0 34 0;
#X connect 26 0 14 4;
#X connect 27 0 28 0;
#X connect 28 0 26 0;
#X connect 29 0 14 1;
#X connect 29 1 14 2;
#X connect 29 2 14 3;
#X connect 30 0 29 0;
#X connect 31 0 29 0;
#X connect 32 0 33 0;
#X connect 33 0 31 0;
#X connect 33 1 30 0;
#X connect 34 0 12 0;
#X restore -99 507 pd circle;
#N canvas 712 358 658 460 cone 0;
#X obj 113 49 inlet;
#X obj 113 80 separator;
#X obj 61 170 loadbang;
#X obj 143 303 scaleXYZ 0.02 0.02 0.5;
#X msg 62 194 auto 1;
#X obj 143 247 alpha;
#X obj 114 119 translateXYZ 0 0 1;
#X floatatom 219 73 5 0 0 0 - - -;
#X obj 191 164 inlet;
#X obj 284 254 * 2;
#X obj 219 95 + 0.01;
#X obj 143 329 cone 1 20;
#X obj 159 184 tgl 15 0 empty empty empty 17 7 0 10 -262144 -1 -1 1
1;
#X obj 389 13 inlet;
#X obj 476 31 r \$0-show;
#X obj 476 55 sel 0 1;
#X msg 468 101 0;
#X obj 495 153 line;
#X obj 322 -35 inlet;
#X obj 322 -8 tabread \$0-kk;
#X obj 322 48 * 1;
#X msg 495 102 0.5;
#X obj 191 256 * 0.2;
#X obj 143 219 colorRGB 0.5 0.5 0.5 0;
#X obj 292 169 unpack f f f;
#X msg 338 132 0.2 0.4 1;
#X obj 312 83 r \$0-data;
#X msg 260 134 0.5 0.5 0.5;
#X obj 312 105 sel 1 4;
#X obj 389 40 * 1;
#X msg 495 133 \$1 10000;
#X connect 0 0 1 0;
#X connect 1 0 6 0;
#X connect 2 0 4 0;
#X connect 2 0 12 0;
#X connect 3 0 11 0;
#X connect 4 0 5 0;
#X connect 5 0 3 0;
#X connect 6 0 23 0;
#X connect 7 0 10 0;
#X connect 8 0 22 0;
#X connect 9 0 3 3;
#X connect 9 0 7 0;
#X connect 10 0 6 3;
#X connect 12 0 5 1;
#X connect 13 0 29 0;
#X connect 14 0 15 0;
#X connect 15 0 16 0;
#X connect 15 1 21 0;
#X connect 16 0 30 0;
#X connect 17 0 23 4;
#X connect 18 0 19 0;
#X connect 19 0 20 0;
#X connect 20 0 9 0;
#X connect 21 0 30 0;
#X connect 22 0 3 1;
#X connect 22 0 3 2;
#X connect 23 0 5 0;
#X connect 24 0 23 1;
#X connect 24 1 23 2;
#X connect 24 2 23 3;
#X connect 25 0 24 0;
#X connect 26 0 28 0;
#X connect 27 0 24 0;
#X connect 28 0 25 0;
#X connect 28 1 27 0;
#X connect 29 0 20 1;
#X connect 30 0 17 0;
#X restore -198 511 pd cone;
#X obj 3 176 unpack f f f;
#X obj -20 203 translateXYZ;
#X obj 622 262 tabread \$0-phi_start;
#X obj 586 404 tabwrite \$0-phi_motion;
#X obj 607 290 tabread \$0-phi_end;
#X obj 386 402 tabwrite \$0-theta_motion;
#X obj 423 273 tabread \$0-theta_start;
#X obj 404 300 tabread \$0-theta_end;
#N canvas 742 217 642 497 ran-pos 0;
#X obj 72 202 inlet;
#X obj 72 261 outlet;
#X obj 204 263 outlet;
#X obj 72 230 translateXYZ 0 0 0;
#X obj 103 114 unpack f f f;
#X obj 103 60 loadbang;
#X msg 103 87 0 0 0;
#X obj 213 -15 inlet;
#X obj 232 68 t b b b;
#X obj 204 235 pack f f f;
#X obj 213 14 tgl 15 0 empty empty empty 17 7 0 10 -262144 -1 -1 0
1;
#X obj 213 37 sel 0 1;
#X obj 217 117 randomF 2;
#X obj 306 118 randomF 2;
#X obj 393 116 randomF 2;
#X obj 393 140 - 1;
#X obj 306 142 - 1;
#X obj 217 142 - 1;
#X obj 184 170 k_spring 0.3;
#X obj 293 168 k_spring 0.3;
#X obj 393 167 k_spring 0.3;
#X connect 0 0 3 0;
#X connect 3 0 1 0;
#X connect 4 0 18 0;
#X connect 4 1 19 0;
#X connect 4 2 20 0;
#X connect 5 0 6 0;
#X connect 6 0 4 0;
#X connect 7 0 10 0;
#X connect 8 0 12 0;
#X connect 8 1 13 0;
#X connect 8 2 14 0;
#X connect 9 0 2 0;
#X connect 10 0 11 0;
#X connect 11 0 6 0;
#X connect 11 1 8 0;
#X connect 12 0 17 0;
#X connect 13 0 16 0;
#X connect 14 0 15 0;
#X connect 15 0 20 0;
#X connect 16 0 19 0;
#X connect 17 0 18 0;
#X connect 18 0 3 1;
#X connect 18 0 9 0;
#X connect 19 0 3 2;
#X connect 19 0 9 1;
#X connect 20 0 3 3;
#X connect 20 0 9 2;
#X restore -20 -20 pd ran-pos;
#X obj -145 180 r \$0-radius;
#X obj -142 33 unpack f f f;
#X obj -177 11 gemhead 1;
#N canvas 533 247 452 413 ro-angle 0;
#X msg 107 174 \$1 4000;
#X obj 107 197 line;
#X msg 176 173 \$1 4000;
#X obj 176 196 line;
#X msg 244 172 \$1 4000;
#X obj 244 195 line;
#X obj 55 187 inlet;
#X obj 77 285 outlet;
#X obj 173 45 inlet;
#X obj 217 251 pack f f f;
#X obj 227 283 outlet;
#X obj 72 230 rotateXYZ 0 0 0;
#X obj 107 117 randomF 360;
#X obj 181 117 randomF 360;
#X obj 270 118 randomF 360;
#X msg 60 69 0;
#X connect 0 0 1 0;
#X connect 1 0 9 0;
#X connect 1 0 11 1;
#X connect 2 0 3 0;
#X connect 3 0 9 1;
#X connect 3 0 11 2;
#X connect 4 0 5 0;
#X connect 5 0 9 2;
#X connect 5 0 11 3;
#X connect 6 0 11 0;
#X connect 8 0 12 0;
#X connect 8 0 13 0;
#X connect 8 0 14 0;
#X connect 9 0 10 0;
#X connect 11 0 7 0;
#X connect 12 0 0 0;
#X connect 13 0 2 0;
#X connect 14 0 4 0;
#X connect 15 0 0 0;
#X connect 15 0 2 0;
#X connect 15 0 4 0;
#X restore -20 20 pd ro-angle;
#X obj -176 103 rotateXYZ 0 1 0;
#X obj -146 76 unpack f f f;
#X obj 121 397 separator;
#X obj -145 202 expr ($f1*2)-0.05;
#N canvas 383 398 476 320 color 0;
#X obj 214 85 loadbang;
#X obj 159 160 alpha;
#X obj 33 79 inlet;
#X obj 159 189 outlet;
#X obj 199 -54 r \$0-show;
#X obj 199 -30 sel 0 1;
#X msg 199 -3 0;
#X obj 228 43 line;
#X obj 78 33 r buffercolor;
#X obj 78 59 unpack f f f;
#X obj 33 102 colorRGB 0 0 0 0;
#X msg 228 -5 0.1;
#X obj 272 115 r \$0-blend;
#X msg 176 131 auto \$1;
#X msg 228 23 \$1 10000;
#X connect 1 0 3 0;
#X connect 2 0 10 0;
#X connect 4 0 5 0;
#X connect 5 0 6 0;
#X connect 5 1 11 0;
#X connect 6 0 14 0;
#X connect 7 0 10 4;
#X connect 8 0 9 0;
#X connect 9 0 10 1;
#X connect 9 1 10 2;
#X connect 9 2 10 3;
#X connect 10 0 1 0;
#X connect 11 0 14 0;
#X connect 12 0 1 1;
#X connect 12 0 13 0;
#X connect 13 0 1 0;
#X connect 14 0 7 0;
#X restore -176 157 pd color;
#X obj 56 -70 t b b;
#X obj -238 322 t a a;
#X obj -75 474 t f f;
#X obj 218 362 t a a;
#N canvas 764 326 505 468 color&shape 0;
#X obj 189 104 loadbang;
#X msg 189 129 auto 1;
#X obj 159 160 alpha;
#X obj 66 -47 inlet;
#X obj 159 198 outlet;
#X obj 323 -74 r \$0-show;
#X obj 323 -50 sel 0 1;
#X msg 312 -5 0;
#X obj 342 43 line;
#X msg 91 191 draw line;
#X obj 66 -21 t a b;
#X msg 65 147 width 1;
#X msg 239 130 1;
#X obj 93 32 sel 0;
#X msg 11 145 width 4;
#X obj 93 3 random 5;
#X msg 342 -6 0.2;
#X obj 117 69 colorRGB 1 1 1 0.2;
#X obj 191 19 unpack f f f;
#X msg 159 -16 1 1 1;
#X msg 211 -15 0.2 0.4 1;
#X obj 211 -67 r \$0-data;
#X obj 211 -44 sel 3 4;
#X msg 342 23 \$1 10000;
#X connect 0 0 1 0;
#X connect 0 0 12 0;
#X connect 0 0 9 0;
#X connect 1 0 2 0;
#X connect 2 0 4 0;
#X connect 3 0 10 0;
#X connect 5 0 6 0;
#X connect 6 0 7 0;
#X connect 6 1 16 0;
#X connect 7 0 23 0;
#X connect 8 0 17 4;
#X connect 9 0 4 0;
#X connect 10 0 17 0;
#X connect 10 1 15 0;
#X connect 11 0 4 0;
#X connect 12 0 2 1;
#X connect 13 0 14 0;
#X connect 13 1 11 0;
#X connect 14 0 4 0;
#X connect 15 0 13 0;
#X connect 16 0 23 0;
#X connect 17 0 2 0;
#X connect 18 0 17 1;
#X connect 18 1 17 2;
#X connect 18 2 17 3;
#X connect 19 0 18 0;
#X connect 20 0 18 0;
#X connect 21 0 22 0;
#X connect 22 0 20 0;
#X connect 22 1 19 0;
#X connect 23 0 8 0;
#X restore 121 422 pd color&shape;
#N canvas 762 25 617 659 pos_1=== 0;
#X obj 107 -10 inlet;
#X obj 104 342 expr cos($f1);
#X obj 78 290 expr sin($f1)*sin($f2);
#X obj 48 314 expr sin($f1)*cos($f2);
#X obj -33 514 pack f f f;
#X obj -33 542 outlet;
#X obj 130 591 outlet;
#X obj 406 361 expr -1*sin($f1);
#X obj 434 335 expr 1*cos($f1);
#X obj 319 551 rad2deg;
#X obj 190 265 t f f f f;
#X obj 406 422 pack f f 0;
#X obj 107 140 tabread \$0-theta_motion;
#X obj 190 207 tabread \$0-phi_motion;
#X obj 25 402 * 2;
#X obj -4 405 * 2;
#X obj -32 408 * 2;
#X obj 130 564 pack f f f;
#X obj 189 510 * 2;
#X obj 160 510 * 2;
#X obj 130 509 * 2;
#X obj 257 324 r \$0-length;
#X obj 257 358 * 4;
#X obj 107 202 t f f f f f;
#X obj 107 116 t f f f;
#X obj 261 248 tabread \$0-kk;
#X obj 211 390 * 1;
#X obj 211 446 + 2;
#N canvas 0 22 450 300 radius 0;
#X obj 85 61 r \$0-radius;
#X obj 70 86 *;
#X obj 104 118 *;
#X obj 145 145 *;
#X obj 65 13 inlet;
#X obj 104 24 inlet;
#X obj 151 30 inlet;
#X obj 38 176 outlet;
#X obj 83 200 outlet;
#X obj 163 219 outlet;
#X connect 0 0 1 1;
#X connect 0 0 2 1;
#X connect 0 0 3 1;
#X connect 1 0 7 0;
#X connect 2 0 8 0;
#X connect 3 0 9 0;
#X connect 4 0 1 0;
#X connect 5 0 2 0;
#X connect 6 0 3 0;
#X restore -30 452 pd radius;
#N canvas 455 492 450 300 radius 0;
#X obj 70 86 *;
#X obj 38 176 outlet;
#X obj 75 33 t b f;
#X obj 75 6 r \$0-radius;
#X msg 75 54 2;
#X connect 0 0 1 0;
#X connect 2 0 4 0;
#X connect 2 1 0 1;
#X connect 3 0 2 0;
#X connect 4 0 0 0;
#X restore 226 420 pd radius;
#X obj 319 576 s \$0-r1;
#X obj 406 449 s \$0-r2;
#X obj 49 543 outlet;
#X obj 49 513 pack f f f;
#X connect 0 0 24 0;
#X connect 1 0 14 0;
#X connect 1 0 18 0;
#X connect 2 0 15 0;
#X connect 2 0 19 0;
#X connect 3 0 16 0;
#X connect 3 0 20 0;
#X connect 4 0 5 0;
#X connect 7 0 11 0;
#X connect 8 0 11 1;
#X connect 9 0 30 0;
#X connect 10 0 3 1;
#X connect 10 1 2 1;
#X connect 10 2 7 0;
#X connect 10 3 8 0;
#X connect 11 0 31 0;
#X connect 12 0 23 0;
#X connect 13 0 10 0;
#X connect 14 0 28 2;
#X connect 14 0 33 2;
#X connect 15 0 28 1;
#X connect 15 0 33 1;
#X connect 16 0 28 0;
#X connect 16 0 33 0;
#X connect 17 0 6 0;
#X connect 18 0 17 2;
#X connect 19 0 17 1;
#X connect 20 0 17 0;
#X connect 21 0 22 0;
#X connect 22 0 26 1;
#X connect 23 0 3 0;
#X connect 23 1 2 0;
#X connect 23 2 1 0;
#X connect 23 3 9 0;
#X connect 24 0 12 0;
#X connect 24 1 13 0;
#X connect 24 2 25 0;
#X connect 25 0 26 0;
#X connect 26 0 27 0;
#X connect 27 0 18 1;
#X connect 27 0 19 1;
#X connect 27 0 20 1;
#X connect 28 0 4 0;
#X connect 28 1 4 1;
#X connect 28 2 4 2;
#X connect 29 0 27 1;
#X connect 33 0 32 0;
#X restore 113 132 pd pos_1===;
#N canvas 734 133 601 579 pos_2=== 0;
#X obj 154 395 expr cos($f1);
#X obj 107 202 t f f f;
#X obj 136 261 t f f;
#X obj 47 366 expr sin($f1)*sin($f2);
#X obj -73 324 expr sin($f1)*cos($f2);
#X obj 46 461 pack f f f;
#X obj 108 148 t f f f;
#X obj 47 494 outlet;
#X obj 108 115 inlet;
#X obj 107 173 tabread \$0-theta_motion;
#X obj 136 236 tabread \$0-phi_motion;
#X obj 154 420 * 2;
#X obj 47 423 * 2;
#X obj -73 357 * 2;
#X obj 325 163 r \$0-length;
#X obj 325 195 * 4;
#X obj 310 143 tabread \$0-kk;
#X obj 310 220 * 1;
#X obj 218 319 + 2;
#N canvas 455 492 450 300 radius 0;
#X obj 70 86 *;
#X obj 38 176 outlet;
#X obj 75 33 t b f;
#X obj 75 6 r \$0-radius;
#X msg 75 54 2;
#X connect 0 0 1 0;
#X connect 2 0 4 0;
#X connect 2 1 0 1;
#X connect 3 0 2 0;
#X connect 4 0 0 0;
#X restore 254 294 pd radius;
#X obj 149 491 pack f f f;
#X obj 150 524 outlet;
#X obj 215 452 * 2;
#X obj 181 457 * 2;
#X obj 145 457 * 2;
#X connect 0 0 11 0;
#X connect 0 0 22 0;
#X connect 1 0 4 0;
#X connect 1 1 3 0;
#X connect 1 2 0 0;
#X connect 2 0 4 1;
#X connect 2 1 3 1;
#X connect 3 0 12 0;
#X connect 3 0 23 0;
#X connect 4 0 13 0;
#X connect 5 0 7 0;
#X connect 6 0 9 0;
#X connect 6 1 10 0;
#X connect 6 2 16 0;
#X connect 8 0 6 0;
#X connect 9 0 1 0;
#X connect 10 0 2 0;
#X connect 11 0 5 2;
#X connect 12 0 5 1;
#X connect 13 0 5 0;
#X connect 13 0 24 0;
#X connect 14 0 15 0;
#X connect 15 0 17 1;
#X connect 16 0 17 0;
#X connect 17 0 18 0;
#X connect 18 0 11 1;
#X connect 18 0 12 1;
#X connect 18 0 13 1;
#X connect 19 0 18 1;
#X connect 20 0 21 0;
#X connect 22 0 20 2;
#X connect 23 0 20 1;
#X connect 24 0 20 0;
#X restore 218 306 pd pos_2===;
#X obj 444 74 t f f;
#X obj 387 39 line;
#X msg 387 17 0 \, 1 2000;
#X obj 56 -118 r \$0-go;
#X obj 49 393 r \$0-face;
#X obj -159 436 r \$0-length;
#X obj 387 -9 r \$0-start;
#X obj 123 0 t f f f f;
#N canvas 455 492 309 201 radius 0;
#X obj 11 122 outlet;
#X obj 11 18 r \$0-link;
#X floatatom 11 57 5 0 0 0 - - -;
#X connect 1 0 2 0;
#X connect 2 0 0 0;
#X restore 296 356 pd radius;
#X obj 281 380 < 1;
#X obj -20 269 rotate;
#X obj -4 234 r \$0-r1;
#X obj 49 234 r \$0-r2;
#X obj -176 132 separator;
#X obj 33 331 tabread \$0-kk;
#X obj 34 422 *;
#X obj -72 419 tabwrite \$0-kk;
#X obj -104 344 +;
#X obj -91 375 split 0.1 0.6;
#X obj -104 297 randomF 0.2;
#X obj -104 319 - 0.1;
#X obj -104 270 t b b f f;
#X obj 113 104 t f f f f f;
#X obj -176 224 sphere 1 40;
#X obj -254 175 sphere 1 16;
#X obj -172 -158 sel 0 1;
#X obj -177 -38 v \$0-tgl-gem;
#X obj -100 -88 t b b;
#X msg -68 -71 1;
#X obj -172 -183 r \$0-show;
#X obj -20 -60 gemhead 400;
#N canvas 72 355 560 337 point 0;
#X obj 130 149 loadbang;
#X msg 130 174 auto 1;
#X obj 113 203 alpha;
#X obj 113 67 inlet;
#X obj 113 254 outlet;
#X obj 268 -35 r \$0-show;
#X obj 268 -11 sel 0 1;
#X msg 260 35 0;
#X obj 297 91 line;
#X obj 113 92 separator;
#X msg 26 210 draw point;
#X obj 113 228 GEMglPointSize 2;
#X obj 181 176 tgl 15 0 empty empty empty 17 7 0 10 -262144 -1 -1 1
1;
#X obj 113 119 colorRGB 1 1 1 0;
#X msg 287 34 0.2;
#X obj 156 56 unpack f f f;
#X msg 124 21 1 1 1;
#X msg 176 22 0.2 0.4 1;
#X obj 176 -30 r \$0-data;
#X obj 176 -7 sel 0 4;
#X msg 297 71 \$1 10000;
#X connect 0 0 1 0;
#X connect 0 0 10 0;
#X connect 0 0 12 0;
#X connect 1 0 2 0;
#X connect 2 0 11 0;
#X connect 3 0 9 0;
#X connect 5 0 6 0;
#X connect 6 0 7 0;
#X connect 6 1 14 0;
#X connect 7 0 20 0;
#X connect 8 0 13 4;
#X connect 9 0 13 0;
#X connect 10 0 4 0;
#X connect 11 0 4 0;
#X connect 12 0 2 1;
#X connect 13 0 2 0;
#X connect 14 0 20 0;
#X connect 15 0 13 1;
#X connect 15 1 13 2;
#X connect 15 2 13 3;
#X connect 16 0 15 0;
#X connect 17 0 15 0;
#X connect 18 0 19 0;
#X connect 19 0 17 0;
#X connect 19 1 16 0;
#X connect 20 0 8 0;
#X restore -254 144 pd point;
#X obj -177 60 translateXYZ 0 0 0;
#X obj 56 -92 metro 1000;
#X obj 312 198 f;
#X floatatom 312 245 5 0 0 0 repeat-num - -;
#X obj 312 167 t b f;
#X msg 328 145 0;
#X obj 156 236 t a b b;
#X obj 341 197 + 1;
#X floatatom 123 -21 5 0 0 0 - - -;
#X obj 143 70 + 1;
#X obj 175 69 % 50;
#X obj 258 96 - 1;
#X obj 113 69 f 0;
#X obj 261 481 f;
#X floatatom 290 508 5 0 0 0 repeat-num - -;
#X obj 261 450 t b f;
#X obj 290 480 + 1;
#X obj -20 45 t a b b;
#X msg 275 430 0;
#X obj 218 259 f 0;
#X obj 276 260 % 3;
#X obj 218 282 + 0;
#X obj 233 197 + 1;
#X obj 431 547 text2d;
#X obj 659 427 r \$0-show;
#X obj 659 451 sel 0 1;
#X msg 659 478 0;
#X obj 688 524 line;
#X msg 688 504 \$1 2000;
#X obj 430 484 colorRGB 1 1 1 0;
#X obj 483 549 loadbang;
#X obj 312 221 + 1;
#X obj 312 272 outlet;
#X obj 290 532 outlet;
#X obj 430 435 gemhead -1;
#X obj 347 462 pack f f;
#X obj 343 420 t b f;
#X msg 467 509 text - Particle=\$2 | Connect=\$1 -;
#X obj 416 516 alpha;
#X msg 688 475 1;
#X obj 430 459 translateXYZ 0 -2.5 0;
#X obj -200 -128 del 10000;
#X obj -200 -107 t b b;
#X msg -168 -90 0;
#X msg 483 573 10;
#X obj -254 -48 loadbang;
#X msg -255 -26 0;
#X obj -13 -126 loadbang;
#X msg -14 -104 0;
#X connect 0 0 1 1;
#X connect 1 0 2 0;
#X connect 2 0 38 0;
#X connect 3 0 4 1;
#X connect 4 0 5 0;
#X connect 5 0 36 0;
#X connect 6 0 4 0;
#X connect 6 0 9 0;
#X connect 7 0 8 0;
#X connect 8 0 17 0;
#X connect 9 0 37 0;
#X connect 9 1 35 0;
#X connect 9 2 36 1;
#X connect 10 0 40 0;
#X connect 10 1 39 0;
#X connect 10 2 38 1;
#X connect 11 0 12 0;
#X connect 11 1 10 0;
#X connect 11 2 6 0;
#X connect 11 3 9 0;
#X connect 12 0 1 0;
#X connect 13 0 16 0;
#X connect 13 1 12 1;
#X connect 13 2 6 1;
#X connect 14 0 34 0;
#X connect 15 0 19 0;
#X connect 16 0 7 0;
#X connect 17 0 8 1;
#X connect 17 0 11 0;
#X connect 18 0 67 0;
#X connect 19 0 14 0;
#X connect 19 1 22 0;
#X connect 19 2 102 0;
#X connect 20 0 96 0;
#X connect 21 0 24 0;
#X connect 22 0 20 0;
#X connect 24 0 48 0;
#X connect 25 0 110 0;
#X connect 26 0 20 1;
#X connect 26 1 110 1;
#X connect 27 0 26 0;
#X connect 28 0 58 0;
#X connect 29 0 98 0;
#X connect 30 0 53 0;
#X connect 33 0 34 1;
#X connect 33 1 34 2;
#X connect 33 2 34 3;
#X connect 34 0 68 0;
#X connect 35 0 5 1;
#X connect 35 0 3 1;
#X connect 37 0 3 0;
#X connect 39 0 2 1;
#X connect 39 0 0 1;
#X connect 40 0 0 0;
#X connect 41 0 45 0;
#X connect 41 1 43 0;
#X connect 42 0 49 0;
#X connect 43 0 90 1;
#X connect 43 1 90 2;
#X connect 43 2 90 3;
#X connect 44 0 90 0;
#X connect 45 0 107 0;
#X connect 45 1 47 0;
#X connect 46 0 89 0;
#X connect 46 0 71 0;
#X connect 47 0 46 1;
#X connect 47 1 46 2;
#X connect 47 2 46 3;
#X connect 48 0 55 0;
#X connect 49 0 81 1;
#X connect 49 0 82 1;
#X connect 50 0 81 0;
#X connect 51 1 45 1;
#X connect 52 0 32 0;
#X connect 52 1 31 1;
#X connect 53 0 32 1;
#X connect 53 1 31 2;
#X connect 54 0 23 2;
#X connect 55 0 23 0;
#X connect 56 0 33 0;
#X connect 56 1 18 1;
#X connect 56 2 23 1;
#X connect 57 0 54 0;
#X connect 57 1 18 0;
#X connect 58 0 16 1;
#X connect 58 1 17 1;
#X connect 59 0 13 0;
#X connect 60 0 59 0;
#X connect 61 0 91 0;
#X connect 62 0 73 1;
#X connect 63 0 32 3;
#X connect 64 0 60 0;
#X connect 65 0 15 1;
#X connect 65 1 126 0;
#X connect 65 2 101 0;
#X connect 65 3 100 1;
#X connect 66 0 67 1;
#X connect 67 0 24 1;
#X connect 67 0 105 0;
#X connect 68 0 52 0;
#X connect 69 0 68 1;
#X connect 70 0 68 2;
#X connect 71 0 50 0;
#X connect 72 0 73 0;
#X connect 72 0 75 1;
#X connect 73 0 30 0;
#X connect 75 0 76 0;
#X connect 76 0 74 0;
#X connect 77 0 78 0;
#X connect 78 0 75 0;
#X connect 79 0 77 0;
#X connect 79 1 31 0;
#X connect 79 2 72 0;
#X connect 79 3 74 1;
#X connect 80 0 56 0;
#X connect 80 1 32 2;
#X connect 80 2 27 0;
#X connect 80 3 79 0;
#X connect 80 4 112 0;
#X connect 83 0 131 0;
#X connect 83 1 85 0;
#X connect 84 0 44 0;
#X connect 84 0 88 0;
#X connect 84 0 124 0;
#X connect 85 0 84 0;
#X connect 85 1 86 0;
#X connect 86 0 84 0;
#X connect 87 0 83 0;
#X connect 88 0 41 0;
#X connect 89 0 82 0;
#X connect 90 0 46 0;
#X connect 91 0 51 0;
#X connect 92 0 97 0;
#X connect 92 0 121 0;
#X connect 93 0 122 0;
#X connect 94 0 92 0;
#X connect 95 0 92 1;
#X connect 96 0 21 0;
#X connect 96 1 109 0;
#X connect 96 2 94 0;
#X connect 97 0 92 1;
#X connect 98 0 65 0;
#X connect 99 0 100 0;
#X connect 100 0 102 1;
#X connect 101 0 27 1;
#X connect 102 0 99 0;
#X connect 102 0 80 0;
#X connect 103 0 106 0;
#X connect 104 0 123 0;
#X connect 104 0 125 0;
#X connect 105 0 103 0;
#X connect 105 1 106 1;
#X connect 106 0 103 1;
#X connect 106 0 104 0;
#X connect 107 0 15 0;
#X connect 107 1 95 0;
#X connect 107 2 108 0;
#X connect 108 0 103 1;
#X connect 109 0 25 0;
#X connect 109 0 111 0;
#X connect 110 0 109 1;
#X connect 111 0 57 0;
#X connect 112 0 111 1;
#X connect 114 0 115 0;
#X connect 115 0 116 0;
#X connect 115 1 129 0;
#X connect 116 0 118 0;
#X connect 117 0 119 4;
#X connect 118 0 117 0;
#X connect 119 0 128 0;
#X connect 120 0 134 0;
#X connect 121 0 93 0;
#X connect 124 0 130 0;
#X connect 125 0 127 0;
#X connect 126 0 125 0;
#X connect 126 1 125 1;
#X connect 127 0 113 0;
#X connect 128 0 113 0;
#X connect 129 0 118 0;
#X connect 130 0 119 0;
#X connect 131 0 132 0;
#X connect 132 0 84 0;
#X connect 132 1 133 0;
#X connect 133 0 84 0;
#X connect 134 0 113 1;
#X connect 135 0 136 0;
#X connect 136 0 44 0;
#X connect 137 0 138 0;
#X connect 138 0 88 0;
#X restore 113 4 pd motion============;
#N canvas 150 215 621 563 net======================= 0;
#X obj 34 129 s toudp;
#X obj 34 103 packOSC;
#X obj 127 130 s toudp;
#X obj 127 104 packOSC;
#X obj 222 130 s toudp;
#X obj 222 104 packOSC;
#X obj 26 254 s toudp;
#X obj 26 228 packOSC;
#X obj 123 255 s toudp;
#X obj 123 229 packOSC;
#X obj 34 35 r \$0-show;
#X obj 237 159 r \$0-size;
#X obj 237 252 s toudp;
#X obj 237 226 packOSC;
#X obj 127 35 r mr-2;
#X obj 222 36 r mr-3;
#X obj 26 162 r mr-4;
#X obj 123 164 r mr-5;
#X msg 34 76 send /mr-1 \$1;
#X msg 127 77 send /mr-2 \$1;
#X msg 222 77 send /mr-3 \$1;
#X msg 26 201 send /mr-4 \$1;
#X msg 123 201 send /mr-5 \$1;
#X msg 237 197 send /mr-6 \$1;
#X text 266 35 legnth;
#X text 73 162 face;
#X text 171 33 radius;
#X text 167 167 link-num;
#X obj 26 309 tgl 15 0 empty empty empty 17 7 0 10 -262144 -1 -1 0
1;
#X obj 26 364 f;
#X obj 56 364 + 1;
#X obj 90 364 % 100;
#X obj 117 335 r \$0-size;
#N canvas 355 88 617 659 pos_1=== 0;
#X obj 31 65 inlet;
#X obj 0 269 expr sin($f1)*sin($f2);
#X obj -28 293 expr sin($f1)*cos($f2);
#X obj 25 446 outlet;
#X obj 114 244 t f f f f;
#X obj 48 134 tabread \$0-theta_motion;
#X obj 114 186 tabread \$0-phi_motion;
#X obj 0 364 * 2;
#X obj -28 363 * 2;
#X obj 267 127 r \$0-length;
#X obj 267 161 * 4;
#X obj 252 104 tabread \$0-kk;
#X obj 252 186 * 1;
#X obj 252 233 + 2;
#X obj 31 95 t f f f f;
#X obj -28 241 t f f f;
#X obj 36 349 expr cos($f1);
#X obj 36 375 * 2;
#X obj 345 132 *;
#X obj 345 85 t b f;
#X obj 345 63 r \$0-radius;
#X msg 345 106 2;
#X floatatom 345 157 5 0 0 0 - - -;
#X obj 51 320 t f f f f;
#X obj 25 418 pack f f f f f;
#X connect 0 0 14 0;
#X connect 1 0 7 0;
#X connect 2 0 8 0;
#X connect 4 0 2 1;
#X connect 4 1 1 1;
#X connect 5 0 15 0;
#X connect 6 0 4 0;
#X connect 7 0 24 2;
#X connect 8 0 24 1;
#X connect 9 0 10 0;
#X connect 10 0 12 1;
#X connect 11 0 12 0;
#X connect 12 0 13 0;
#X connect 13 0 23 0;
#X connect 14 0 24 0;
#X connect 14 1 5 0;
#X connect 14 2 6 0;
#X connect 14 3 11 0;
#X connect 15 0 2 0;
#X connect 15 1 1 0;
#X connect 15 2 16 0;
#X connect 16 0 17 0;
#X connect 17 0 24 3;
#X connect 18 0 22 0;
#X connect 19 0 21 0;
#X connect 19 1 18 1;
#X connect 20 0 19 0;
#X connect 21 0 18 0;
#X connect 22 0 13 1;
#X connect 23 0 8 1;
#X connect 23 1 7 1;
#X connect 23 2 17 1;
#X connect 23 3 24 4;
#X connect 24 0 3 0;
#X restore 26 393 pd pos_1===;
#X obj 26 473 s toudp;
#X obj 26 447 packOSC;
#X obj 26 281 r \$0-go;
#X obj 406 177 inlet;
#X msg 26 418 send /mr \$1 \$2 \$3 \$4 \$5;
#X obj 406 297 s toudp;
#X obj 406 271 packOSC;
#X obj 406 210 v \$0-link-num;
#X msg 406 242 send /mr-7 \$1;
#X obj 460 153 tgl 15 0 empty empty empty 17 7 0 10 -262144 -1 -1 0
1;
#X obj 460 125 r \$0-go;
#X obj 460 176 metro 50;
#X obj 26 338 metro 5;
#X connect 1 0 0 0;
#X connect 3 0 2 0;
#X connect 5 0 4 0;
#X connect 7 0 6 0;
#X connect 9 0 8 0;
#X connect 10 0 18 0;
#X connect 11 0 23 0;
#X connect 13 0 12 0;
#X connect 14 0 19 0;
#X connect 15 0 20 0;
#X connect 16 0 21 0;
#X connect 17 0 22 0;
#X connect 18 0 1 0;
#X connect 19 0 3 0;
#X connect 20 0 5 0;
#X connect 21 0 7 0;
#X connect 22 0 9 0;
#X connect 23 0 13 0;
#X connect 28 0 46 0;
#X connect 29 0 30 0;
#X connect 29 0 33 0;
#X connect 30 0 31 0;
#X connect 31 0 29 1;
#X connect 32 0 31 1;
#X connect 33 0 38 0;
#X connect 35 0 34 0;
#X connect 36 0 28 0;
#X connect 37 0 41 0;
#X connect 38 0 35 0;
#X connect 40 0 39 0;
#X connect 41 0 42 0;
#X connect 42 0 40 0;
#X connect 43 0 45 0;
#X connect 44 0 43 0;
#X connect 45 0 41 0;
#X connect 46 0 29 0;
#X restore 113 32 pd net=======================;
#X floatatom 256 6 5 0 0 0 - - -;
#N canvas 25 22 994 792 tempo 0;
#X obj 442 -26 t b b b b;
#X msg 442 69 0.1;
#X msg 459 46 0.15;
#X msg 476 19 0.01;
#X obj 442 108 outlet;
#X obj 490 107 outlet;
#X obj 541 107 outlet;
#X obj 590 110 outlet;
#X msg 493 -3 1;
#X obj 192 193 text2d;
#X obj 323 -130 r \$0-show;
#X obj 323 -106 sel 0 1;
#X msg 323 -79 0;
#X obj 352 -33 line;
#X msg 352 -53 \$1 2000;
#X obj 192 77 colorRGB 1 1 1 0;
#X obj 192 28 gemhead -1;
#X msg 68 -32 text Radius=\$1;
#X obj 192 53 translateXYZ 0 -2.2 0;
#X obj 192 104 alpha;
#X obj -75 -367 r hid;
#X obj -75 -317 t a a;
#X obj -81 -272 spigot;
#X obj -81 -226 change;
#X obj -81 -204 sel 1;
#X obj -81 -181 tgl 15 0 empty empty empty 17 7 0 10 -262144 -1 -1
0 1;
#X obj -48 -294 route key_226;
#X obj -81 -248 route key_21 key_15 key_9 key_6;
#X obj -36 -226 change;
#X obj -36 -204 sel 1;
#X obj -36 -181 tgl 15 0 empty empty empty 17 7 0 10 -262144 -1 -1
0 1;
#X obj 10 -226 change;
#X obj 10 -204 sel 1;
#X obj 10 -181 tgl 15 0 empty empty empty 17 7 0 10 -262144 -1 -1 0
1;
#X obj 56 -226 change;
#X obj 56 -204 sel 1;
#X obj 56 -181 tgl 15 0 empty empty empty 17 7 0 10 -262144 -1 -1 0
1;
#X msg -58 -153 0;
#X msg -19 -151 1;
#X msg 22 -152 2;
#X msg 72 -152 3;
#X obj -58 -120 s \$0-data;
#X obj 142 -369 r \$0-data;
#X msg 241 -191 0 0 0 1;
#X msg 225 -216 0 0 1 0;
#X msg 209 -239 0 1 0 0;
#X msg 194 -264 1 0 0 0;
#X msg 121 -59 text Length=\$1;
#X msg 225 -62 text Face=\$1;
#X msg 290 -12 text Connect=\$1;
#X obj 194 -155 unpack f f f f;
#X obj 68 -58 spigot;
#X obj 121 -83 spigot;
#X obj 225 -82 spigot;
#X obj 290 -35 spigot;
#X floatatom 46 -321 5 0 0 0 - - -;
#X obj 332 -510 r mouseright;
#X obj 332 -437 sel 0;
#X obj 46 -301 moses 0.0001;
#X floatatom 115 -272 5 0 0 0 - - -;
#X floatatom 217 -413 5 0 0 0 - - -;
#X obj 217 -389 moses 0.0001;
#X floatatom 286 -367 5 0 0 0 - - -;
#X obj 286 -347 / 4;
#X floatatom 153 -154 5 0 0 0 - - -;
#X obj 115 -252 / 2;
#X floatatom 142 -349 5 0 0 0 - - -;
#X obj 46 -367 r forceytext;
#X obj 217 -458 r forcextext;
#X obj 441 -462 v forcey;
#X obj 359 -384 v forcex;
#X obj 359 -361 / 2;
#X obj 580 -340 r \$0-data;
#X msg 627 -200 0 0 0 1;
#X msg 611 -225 0 0 1 0;
#X msg 595 -248 0 1 0 0;
#X msg 580 -273 1 0 0 0;
#X obj 580 -164 unpack f f f f;
#X floatatom 580 -320 5 0 0 0 - - -;
#X floatatom 526 -222 5 0 0 0 - - -;
#X obj 547 -134 spigot;
#X obj 574 -112 spigot;
#X obj 601 -137 spigot;
#X obj 628 -112 spigot;
#X obj 580 -297 sel 0 1 2 3 4;
#X msg 640 -274 0 0 0 0;
#X obj 194 -288 sel 0 1 2 3 4;
#X msg 254 -267 0 0 0 0;
#X obj 574 -64 * 0.8;
#X obj 601 -38 * 1;
#X obj 628 -85 * 4;
#X msg 315 -244 4;
#X obj 314 -199 s \$0-data;
#X obj 306 80 r \$0-data;
#X obj 306 106 sel 4;
#X msg 306 130 0;
#X msg 334 130 1;
#X obj 192 134 k_tgl;
#X floatatom 545 -29 5 0 0 0 - - -;
#X floatatom 574 8 5 0 0 0 - - -;
#X floatatom 601 -14 5 0 0 0 - - -;
#X floatatom 628 -61 5 0 0 0 - - -;
#X obj 315 -268 del 100;
#X obj 332 -415 t b b b;
#X obj 363 -274 spigot;
#X obj 396 -294 tgl 15 0 empty empty empty 17 7 0 10 -262144 -1 -1
0 1;
#X obj 359 -338 t f f;
#X floatatom 363 -248 5 0 0 0 - - -;
#X obj 445 -359 spigot;
#X obj 478 -376 tgl 15 0 empty empty empty 17 7 0 10 -262144 -1 -1
0 1;
#X obj 441 -420 t f f;
#X floatatom 445 -337 5 0 0 0 - - -;
#X obj 142 -326 t b f;
#X obj 478 -397 expr if(abs($f1)>0.01 \, 1 \, 0);
#X obj 386 -316 expr if(abs($f1)>0.01 \, 1 \, 0);
#X msg 352 -81 1;
#X obj 442 -76 r \$0-show;
#X obj 442 -53 sel 1;
#X obj 332 -477 spigot;
#X obj 381 -478 r \$0-go;
#X obj 699 -276 s mousestate;
#X obj 700 -321 t b;
#X msg 700 -299 1;
#X obj -75 -341 spigot;
#X obj -26 -342 r \$0-go;
#X obj 532 -485 r x_size;
#X obj 532 -463 / 2;
#X floatatom 528 -440 5 0 0 0 - - -;
#X obj 441 -440 / 2;
#X obj 546 -88 * 8;
#X obj 710 72 sel 0 1;
#X msg 710 98 0.1;
#X msg 745 98 3;
#X obj 239 217 loadbang;
#X msg -11 156 font ACaslonPro-BoldItalic.otf;
#X msg 239 241 25;
#X obj 710 154 line;
#X obj 651 74 loadbang;
#X obj 715 45 r \$0-2color;
#X msg 710 128 \$1 2000;
#X connect 0 0 1 0;
#X connect 0 1 2 0;
#X connect 0 2 3 0;
#X connect 0 3 8 0;
#X connect 1 0 4 0;
#X connect 2 0 5 0;
#X connect 3 0 6 0;
#X connect 8 0 7 0;
#X connect 10 0 11 0;
#X connect 11 0 12 0;
#X connect 11 1 115 0;
#X connect 12 0 14 0;
#X connect 13 0 15 4;
#X connect 14 0 13 0;
#X connect 15 0 19 0;
#X connect 16 0 18 0;
#X connect 17 0 9 0;
#X connect 18 0 15 0;
#X connect 19 0 97 0;
#X connect 20 0 123 0;
#X connect 21 0 22 0;
#X connect 21 1 26 0;
#X connect 22 0 27 0;
#X connect 23 0 24 0;
#X connect 24 0 25 0;
#X connect 24 0 37 0;
#X connect 26 0 22 1;
#X connect 27 0 23 0;
#X connect 27 1 28 0;
#X connect 27 2 31 0;
#X connect 27 3 34 0;
#X connect 28 0 29 0;
#X connect 29 0 30 0;
#X connect 29 0 38 0;
#X connect 31 0 32 0;
#X connect 32 0 33 0;
#X connect 32 0 39 0;
#X connect 34 0 35 0;
#X connect 35 0 36 0;
#X connect 35 0 40 0;
#X connect 37 0 41 0;
#X connect 38 0 41 0;
#X connect 39 0 41 0;
#X connect 40 0 41 0;
#X connect 42 0 66 0;
#X connect 43 0 50 0;
#X connect 44 0 50 0;
#X connect 45 0 50 0;
#X connect 46 0 50 0;
#X connect 47 0 9 0;
#X connect 48 0 9 0;
#X connect 49 0 9 0;
#X connect 50 0 51 1;
#X connect 50 1 52 1;
#X connect 50 2 53 1;
#X connect 50 3 54 1;
#X connect 51 0 17 0;
#X connect 52 0 47 0;
#X connect 53 0 48 0;
#X connect 54 0 49 0;
#X connect 55 0 58 0;
#X connect 56 0 118 0;
#X connect 57 0 103 0;
#X connect 58 1 59 0;
#X connect 59 0 65 0;
#X connect 60 0 61 0;
#X connect 61 1 62 0;
#X connect 62 0 63 0;
#X connect 63 0 64 0;
#X connect 64 0 51 0;
#X connect 64 0 52 0;
#X connect 64 0 53 0;
#X connect 64 0 54 0;
#X connect 65 0 64 0;
#X connect 66 0 112 0;
#X connect 67 0 55 0;
#X connect 68 0 60 0;
#X connect 69 0 128 0;
#X connect 70 0 71 0;
#X connect 71 0 106 0;
#X connect 72 0 78 0;
#X connect 72 0 121 0;
#X connect 73 0 77 0;
#X connect 74 0 77 0;
#X connect 75 0 77 0;
#X connect 76 0 77 0;
#X connect 77 0 80 1;
#X connect 77 1 81 1;
#X connect 77 2 82 1;
#X connect 77 3 83 1;
#X connect 78 0 84 0;
#X connect 79 0 80 0;
#X connect 79 0 81 0;
#X connect 79 0 82 0;
#X connect 79 0 83 0;
#X connect 80 0 129 0;
#X connect 81 0 88 0;
#X connect 82 0 89 0;
#X connect 83 0 90 0;
#X connect 84 0 76 0;
#X connect 84 1 75 0;
#X connect 84 2 74 0;
#X connect 84 3 73 0;
#X connect 84 4 85 0;
#X connect 85 0 77 0;
#X connect 86 0 46 0;
#X connect 86 1 45 0;
#X connect 86 2 44 0;
#X connect 86 3 43 0;
#X connect 86 4 87 0;
#X connect 87 0 50 0;
#X connect 88 0 99 0;
#X connect 89 0 100 0;
#X connect 90 0 101 0;
#X connect 91 0 92 0;
#X connect 93 0 94 0;
#X connect 94 0 95 0;
#X connect 94 1 96 0;
#X connect 95 0 97 1;
#X connect 96 0 97 1;
#X connect 97 0 9 0;
#X connect 98 0 7 0;
#X connect 99 0 6 0;
#X connect 100 0 5 0;
#X connect 101 0 4 0;
#X connect 102 0 91 0;
#X connect 103 0 102 0;
#X connect 103 1 70 0;
#X connect 103 2 69 0;
#X connect 104 0 107 0;
#X connect 105 0 104 1;
#X connect 106 0 104 0;
#X connect 106 1 114 0;
#X connect 107 0 79 0;
#X connect 108 0 111 0;
#X connect 109 0 108 1;
#X connect 110 0 108 0;
#X connect 110 1 113 0;
#X connect 111 0 79 0;
#X connect 112 0 64 0;
#X connect 112 1 86 0;
#X connect 113 0 109 0;
#X connect 114 0 105 0;
#X connect 115 0 14 0;
#X connect 116 0 117 0;
#X connect 117 0 0 0;
#X connect 118 0 57 0;
#X connect 119 0 118 1;
#X connect 121 0 122 0;
#X connect 122 0 120 0;
#X connect 123 0 21 0;
#X connect 124 0 123 1;
#X connect 125 0 126 0;
#X connect 126 0 127 0;
#X connect 127 0 71 1;
#X connect 128 0 110 0;
#X connect 129 0 98 0;
#X connect 130 0 131 0;
#X connect 130 1 132 0;
#X connect 131 0 139 0;
#X connect 132 0 139 0;
#X connect 133 0 135 0;
#X connect 133 0 134 0;
#X connect 134 0 9 0;
#X connect 135 0 9 1;
#X connect 136 0 4 0;
#X connect 137 0 131 0;
#X connect 138 0 130 0;
#X connect 139 0 136 0;
#X restore 4 119 pd tempo;
#N canvas 0 22 450 300 mr5 0;
#X obj 207 184 s \$0-link;
#N canvas 263 186 450 300 line 0;
#X obj 118 95 inlet;
#X obj 118 156 line;
#X obj 118 184 outlet;
#X msg 118 127 \$1 300;
#X connect 0 0 3 0;
#X connect 1 0 2 0;
#X connect 3 0 1 0;
#X restore 155 138 pd line;
#X obj 119 184 s mr-5;
#X obj 155 101 inlet;
#X connect 1 0 0 0;
#X connect 3 0 1 0;
#X connect 3 0 2 0;
#X restore 62 333 pd mr5;
#N canvas 0 22 450 300 mr4 0;
#X obj 171 112 inlet;
#X obj 171 167 s \$0-face;
#N canvas 263 186 450 300 line 0;
#X obj 118 95 inlet;
#X msg 118 127 \$1 1000;
#X obj 118 156 line;
#X obj 118 184 outlet;
#X connect 0 0 1 0;
#X connect 1 0 2 0;
#X connect 2 0 3 0;
#X restore 170 139 pd line;
#X obj 127 167 s mr-4;
#X connect 0 0 2 0;
#X connect 0 0 3 0;
#X connect 2 0 1 0;
#X restore 108 333 pd mr4;
#N canvas 302 352 450 300 mr2 0;
#X obj 158 106 inlet;
#X obj 239 189 s \$0-radius;
#X obj 158 130 / 2;
#X obj 113 180 s mr-2;
#X obj 239 159 k_spring 0.6;
#X connect 0 0 2 0;
#X connect 0 0 3 0;
#X connect 2 0 4 0;
#X connect 4 0 1 0;
#X restore 112 257 pd mr2;
#N canvas 0 22 450 300 mr3 0;
#X obj 171 125 s \$0-length;
#X obj 116 126 s mr-3;
#X obj 116 34 inlet;
#X obj 171 89 k_spring 0.3;
#X connect 2 0 1 0;
#X connect 2 0 3 0;
#X connect 3 0 0 0;
#X restore 113 285 pd mr3;
#X obj 262 447 s data-info;
#X obj 262 368 r \$0-show;
#X obj 262 395 sel 1;
#X msg 262 421 8;
#X obj 315 127 s \$0-blend;
#X obj 315 106 tgl 15 0 empty empty blend 17 7 0 10 -262144 -1 -162280
1 1;
#X obj 320 184 sel 0 1;
#X obj 320 159 r \$0-show;
#X msg 320 215 0;
#X obj 320 249 pipe 10000;
#X msg 350 215 1;
#X floatatom 320 275 5 0 0 0 - - -;
#X floatatom 306 22 5 0 0 0 - - -;
#X obj 306 43 > 0;
#X obj 306 -2 ctlin 48;
#N canvas 391 189 512 573 touchosc======= 0;
#X obj 76 108 r touchosc;
#X floatatom 76 188 5 0 0 0 - - -;
#X floatatom 112 190 5 0 0 0 - - -;
#X floatatom 148 189 5 0 0 0 - - -;
#X floatatom 188 191 5 0 0 0 - - -;
#X floatatom 224 191 5 0 0 0 - - -;
#X floatatom 76 271 5 0 0 0 - - -;
#X floatatom 118 295 5 0 0 0 - - -;
#X obj 118 247 k_range 0 1 0.01 8;
#X floatatom 161 320 5 0 0 0 - - -;
#X floatatom 207 345 5 0 0 0 - - -;
#X floatatom 259 370 5 0 0 0 - - -;
#X obj 105 426 outlet;
#X obj 162 445 outlet;
#X obj 191 478 outlet;
#X obj 243 500 outlet;
#X floatatom 280 226 5 0 0 0 - - -;
#X floatatom 425 205 5 0 0 0 - - -;
#X obj 280 252 outlet;
#X obj 424 258 outlet;
#X obj 425 230 sel 1;
#X obj 76 156 route /1 /2 /3 /4 /5 /6 /7 /8 /9;
#X obj 328 252 outlet;
#X obj 377 251 outlet;
#X obj 76 393 s \$0-m-r-num;
#X obj 76 132 routeOSC /m-r;
#X obj 161 272 k_range 0 1 0 0.8;
#X obj 207 297 k_range 0 1 0.05 1;
#X obj 259 322 k_range 0 1 0.1 4;
#X obj 76 223 k_range 0 1 2 40;
#X connect 0 0 25 0;
#X connect 1 0 29 0;
#X connect 2 0 8 0;
#X connect 3 0 26 0;
#X connect 4 0 27 0;
#X connect 5 0 28 0;
#X connect 6 0 24 0;
#X connect 7 0 12 0;
#X connect 8 0 7 0;
#X connect 9 0 13 0;
#X connect 10 0 14 0;
#X connect 11 0 15 0;
#X connect 16 0 18 0;
#X connect 17 0 20 0;
#X connect 20 0 19 0;
#X connect 21 0 1 0;
#X connect 21 1 2 0;
#X connect 21 2 3 0;
#X connect 21 3 4 0;
#X connect 21 4 5 0;
#X connect 21 5 16 0;
#X connect 21 6 22 0;
#X connect 21 7 23 0;
#X connect 21 8 17 0;
#X connect 25 0 21 0;
#X connect 26 0 9 0;
#X connect 27 0 10 0;
#X connect 28 0 11 0;
#X connect 29 0 6 0;
#X restore 8 63 pd touchosc=======;
#N canvas 608 372 473 404 2color 0;
#X obj 100 146 s \$0-2color;
#X obj 100 100 tgl 20 0 empty empty empty 17 7 0 10 -262144 -1 -1 0
1;
#X obj 41 74 inlet;
#X obj 129 -88 r hid;
#X obj 129 -38 t a a;
#X obj 123 7 spigot;
#X obj 156 -15 route key_226;
#X obj 129 -62 spigot;
#X obj 178 -63 r \$0-go;
#X obj 123 55 sel 1;
#X obj 124 77 f;
#X obj 152 78 + 1;
#X obj 180 78 % 2;
#X obj 123 32 route key_25;
#X connect 1 0 0 0;
#X connect 2 0 1 0;
#X connect 3 0 7 0;
#X connect 4 0 5 0;
#X connect 4 1 6 0;
#X connect 5 0 13 0;
#X connect 6 0 5 1;
#X connect 7 0 4 0;
#X connect 8 0 7 1;
#X connect 9 0 10 0;
#X connect 10 0 11 0;
#X connect 10 0 1 0;
#X connect 11 0 12 0;
#X connect 12 0 10 1;
#X connect 13 0 9 0;
#X coords 0 -1 1 1 20 20 2 100 100;
#X restore 195 172 pd 2color;
#N canvas 598 92 582 525 num 0;
#X obj 106 -50 r hid;
#X obj 106 0 t a a;
#X obj 100 45 spigot;
#X obj 133 23 route key_226;
#X obj 106 -24 spigot;
#X obj 155 -25 r \$0-go;
#X obj 100 70 route key_29;
#X msg 100 195 2;
#X obj 100 169 sel 0 1 2;
#X msg 135 195 40;
#X obj 23 53 inlet;
#X obj 141 96 sel 1;
#X obj 142 118 f;
#X obj 170 119 + 1;
#X obj 198 119 % 2;
#X obj 100 100 tgl 20 0 empty empty empty 17 7 0 10 -262144 -1 -1 0
1;
#X obj 109 233 s \$0-m-r-num1;
#X connect 0 0 4 0;
#X connect 1 0 2 0;
#X connect 1 1 3 0;
#X connect 2 0 6 0;
#X connect 3 0 2 1;
#X connect 4 0 1 0;
#X connect 5 0 4 1;
#X connect 6 0 11 0;
#X connect 7 0 16 0;
#X connect 8 0 7 0;
#X connect 8 1 9 0;
#X connect 9 0 16 0;
#X connect 10 0 15 0;
#X connect 11 0 12 0;
#X connect 12 0 13 0;
#X connect 12 0 15 0;
#X connect 13 0 14 0;
#X connect 14 0 12 1;
#X connect 15 0 8 0;
#X coords 0 -1 1 1 20 20 2 100 100;
#X restore 195 148 pd num;
#X text 221 149 c-num;
#X text 220 173 c-connect;
#N canvas 107 292 811 510 sendtouchosc 0;
#X obj 93 351 s totouch;
#X obj 93 328 packOSC;
#X obj 87 44 inlet;
#X obj 128 49 inlet;
#X obj 174 50 inlet;
#X obj 215 55 inlet;
#X obj 273 67 inlet;
#X obj 86 85 k_range 2 40 0 1;
#X obj 128 109 k_range 0.01 8 0 1;
#X obj 171 134 k_range 0 0.8 0 1;
#X obj 217 159 k_range 0.05 1 0 1;
#X obj 269 184 k_range 0.1 4 0 1;
#X msg 93 304 send /m-r/1 \$1;
#X msg 125 281 send /m-r/2 \$1;
#X msg 178 255 send /m-r/3 \$1;
#X msg 210 231 send /m-r/4 \$1;
#X msg 263 271 send /m-r/5 \$1;
#X connect 1 0 0 0;
#X connect 2 0 7 0;
#X connect 3 0 8 0;
#X connect 4 0 9 0;
#X connect 5 0 10 0;
#X connect 6 0 11 0;
#X connect 7 0 12 0;
#X connect 8 0 13 0;
#X connect 9 0 14 0;
#X connect 10 0 15 0;
#X connect 11 0 16 0;
#X connect 12 0 1 0;
#X connect 13 0 1 0;
#X connect 14 0 1 0;
#X connect 15 0 1 0;
#X connect 16 0 1 0;
#X restore 188 265 pd sendtouchosc;
#X connect 3 0 26 0;
#X connect 4 0 20 0;
#X connect 4 0 45 0;
#X connect 6 0 23 0;
#X connect 6 0 60 3;
#X connect 7 0 24 0;
#X connect 7 0 60 4;
#X connect 8 0 21 0;
#X connect 8 0 60 2;
#X connect 9 0 25 0;
#X connect 18 0 60 0;
#X connect 19 0 22 0;
#X connect 19 0 60 1;
#X connect 20 0 28 0;
#X connect 21 0 39 0;
#X connect 22 0 38 0;
#X connect 23 0 37 0;
#X connect 24 0 36 0;
#X connect 25 0 31 0;
#X connect 25 1 1 0;
#X connect 25 2 2 0;
#X connect 27 0 30 0;
#X connect 28 0 29 0;
#X connect 30 0 9 0;
#X connect 32 0 33 0;
#X connect 32 1 34 0;
#X connect 35 0 7 0;
#X connect 35 1 6 0;
#X connect 35 2 8 0;
#X connect 35 3 19 0;
#X connect 41 0 42 0;
#X connect 42 0 43 0;
#X connect 43 0 40 0;
#X connect 45 0 44 0;
#X connect 46 0 48 0;
#X connect 46 1 50 0;
#X connect 47 0 46 0;
#X connect 48 0 49 0;
#X connect 49 0 51 0;
#X connect 50 0 3 0;
#X connect 51 0 3 0;
#X connect 52 0 53 0;
#X connect 53 0 28 0;
#X connect 54 0 52 0;
#X connect 55 0 19 0;
#X connect 55 1 8 0;
#X connect 55 2 6 0;
#X connect 55 3 7 0;
#X connect 55 4 28 0;
#X connect 55 5 57 0;
#X connect 55 6 56 0;
#X connect 55 7 5 0;
#X coords 0 -1 1 1 120 120 1 100 100;
