#N canvas 575 281 865 619 10;
#X obj 275 411 s \$0-div;
#X obj 8 108 hsl 100 15 1 2 0 0 empty empty two 8 8 0 10 -262144 -1
-1 2256 1;
#X obj 8 127 hsl 100 15 1 2 0 0 empty empty one 8 8 0 10 -262144 -1
-1 3100 1;
#X obj -152 262 bng 15 250 50 0 empty empty empty 17 7 0 10 -262144
-1 -1;
#X obj 5 18 tgl 30 0 empty empty not 5 15 0 10 -262144 -1 -1 0 1;
#N canvas 221 46 726 763 (subpatch) 0;
#X obj -48 104 s \$0-pos;
#X obj 35 7 hsl 90 15 0 2 0 0 empty empty noise=1.55 8 8 0 10 -262144
-1 -1 6906 1;
#X obj -75 150 s \$0-pos;
#X obj 0 0 tgl 30 0 empty empty empty 17 7 0 10 -262144 -1 -1 0 1;
#X floatatom 45 39 10 0 0 0 - - -;
#X obj -75 55 t b b;
#X obj -91 12 s \$0-bangbang;
#X obj -76 34 r \$0-bangbang;
#X obj -91 -12 metro 20;
#X floatatom 321 49 5 0 0 0 - - -;
#X obj 253 -250 r mouseright;
#X obj 253 -203 sel 0;
#X obj 67 -64 r \$0-u-r;
#X floatatom 0 -49 5 0 0 0 - - -;
#N canvas 310 45 541 719 random-pos-go 0;
#X obj 31 -205 inlet;
#X obj -75 420 pack f f f f f;
#X msg -75 442 setCartesian \$1 \$2 \$3 \$4 \$5;
#X obj -75 464 outlet;
#X obj 55 235 t f b;
#X obj 55 310 +;
#X obj 163 240 t f b;
#X obj 163 315 +;
#X obj 270 243 t f b;
#X obj 270 318 +;
#X obj 93 -182 r \$0-div;
#X obj 31 -154 repeat 10;
#X obj 31 -23 t b f;
#X obj 31 5 repeat 10;
#X obj 114 -50 r \$0-div;
#X obj 114 -27 + 1;
#X obj 31 -123 t b b;
#X obj 31 73 pack f f;
#X obj 31 -89 f 0;
#X obj 59 -90 + 1;
#X msg 71 -122 0;
#X obj 31 38 f 0;
#X obj 59 38 + 1;
#X msg 95 5 0;
#X msg 31 95 \$2 \$1;
#X obj 31 115 unpack;
#X obj 125 51 *;
#X obj 140 0 r \$0-div;
#X obj 140 23 + 1;
#X obj 62 139 t f f;
#X obj 124 81 +;
#X obj 11 141 t f f;
#X obj 89 -90 t b;
#X obj 31 -183 t b b b b;
#X obj 271 45 inlet;
#X obj 271 76 t f f;
#X obj 294 103 / 2;
#X obj 190 263 randomF 0.01;
#X obj 297 266 randomF 0.01;
#X obj 82 258 randomF 0.01;
#X obj 82 281 - 0.005;
#X obj 191 286 - 0.005;
#X obj 298 289 - 0.005;
#X obj 52 185 t f f f f;
#X obj 44 389 + 0;
#X obj 16 379 + 0;
#X obj -27 385 + 0;
#X obj 160 154 tabread \$0-y;
#X obj 267 219 tabread \$0-z;
#X obj 268 348 tabwrite \$0-z;
#X obj 160 344 tabwrite \$0-y;
#X obj 52 347 tabwrite \$0-x;
#X obj 52 211 tabread \$0-x;
#X connect 0 0 33 0;
#X connect 1 0 2 0;
#X connect 2 0 3 0;
#X connect 4 0 5 0;
#X connect 4 1 39 0;
#X connect 5 0 51 0;
#X connect 6 0 7 0;
#X connect 6 1 37 0;
#X connect 7 0 50 0;
#X connect 8 0 9 0;
#X connect 8 1 38 0;
#X connect 9 0 49 0;
#X connect 10 0 11 1;
#X connect 11 0 16 0;
#X connect 12 0 13 0;
#X connect 12 1 17 1;
#X connect 13 0 21 0;
#X connect 14 0 15 0;
#X connect 15 0 13 1;
#X connect 16 0 18 0;
#X connect 16 1 23 0;
#X connect 17 0 24 0;
#X connect 18 0 19 0;
#X connect 18 0 12 0;
#X connect 19 0 18 1;
#X connect 20 0 18 1;
#X connect 21 0 22 0;
#X connect 21 0 17 0;
#X connect 22 0 21 1;
#X connect 23 0 21 1;
#X connect 24 0 25 0;
#X connect 25 0 31 0;
#X connect 25 1 29 0;
#X connect 26 0 30 0;
#X connect 27 0 28 0;
#X connect 28 0 26 1;
#X connect 29 0 1 1;
#X connect 29 1 30 1;
#X connect 30 0 43 0;
#X connect 31 0 1 0;
#X connect 31 1 26 0;
#X connect 33 0 11 0;
#X connect 33 2 20 0;
#X connect 34 0 35 0;
#X connect 35 0 37 1;
#X connect 35 0 38 1;
#X connect 35 0 39 1;
#X connect 35 1 36 0;
#X connect 36 0 40 1;
#X connect 36 0 41 1;
#X connect 36 0 42 1;
#X connect 37 0 41 0;
#X connect 38 0 42 0;
#X connect 39 0 40 0;
#X connect 40 0 5 1;
#X connect 41 0 7 1;
#X connect 42 0 9 1;
#X connect 43 0 52 0;
#X connect 43 1 47 0;
#X connect 43 2 48 0;
#X connect 43 3 49 1;
#X connect 43 3 50 1;
#X connect 43 3 51 1;
#X connect 44 0 1 4;
#X connect 45 0 1 3;
#X connect 46 0 1 2;
#X connect 47 0 6 0;
#X connect 47 0 45 0;
#X connect 48 0 8 0;
#X connect 48 0 44 0;
#X connect 52 0 4 0;
#X connect 52 0 46 0;
#X restore -48 82 pd random-pos-go;
#N canvas 716 22 521 757 random-pos-back 0;
#X obj 31 -205 inlet;
#X obj 6 457 pack f f f f f;
#X msg 6 479 setCartesian \$1 \$2 \$3 \$4 \$5;
#X obj 6 501 outlet;
#X obj 107 -170 r \$0-div;
#X obj 31 -154 repeat 10;
#X obj 31 -23 t b f;
#X obj 31 5 repeat 10;
#X obj 114 -50 r \$0-div;
#X obj 114 -27 + 1;
#X obj 31 -123 t b b;
#X obj 31 73 pack f f;
#X obj 31 -89 f 0;
#X obj 59 -90 + 1;
#X msg 71 -122 0;
#X obj 31 38 f 0;
#X obj 59 38 + 1;
#X msg 95 5 0;
#X msg 31 95 \$2 \$1;
#X obj 31 115 unpack;
#X obj 107 114 *;
#X obj 122 63 r \$0-div;
#X obj 122 86 + 1;
#X obj 62 139 t f f;
#X obj 107 139 +;
#X obj 11 141 t f f;
#X obj 89 -90 t b;
#X obj 31 -183 t b b b b;
#X obj 133 168 t f f;
#X obj 133 272 -;
#X obj 196 275 -;
#X obj 259 276 -;
#X obj 133 327 +;
#X obj 196 327 +;
#X obj 259 326 +;
#X obj 207 143 t f f f;
#X obj 270 162 t f f f;
#X obj 333 149 t f f f;
#X obj 207 95 t f f f f;
#X obj 133 198 t f f f;
#X obj 133 298 * 0.1;
#X obj 196 298 * 0.1;
#X obj 259 298 * 0.1;
#X obj 119 437 + 0;
#X obj 83 435 + 0;
#X obj 52 432 + 0;
#X obj 196 387 tabwrite \$0-y;
#X obj 259 361 tabwrite \$0-z;
#X obj 133 361 tabwrite \$0-x;
#X obj 259 227 tabread \$0-zz;
#X obj 196 242 tabread \$0-yy;
#X obj 133 224 tabread \$0-xx;
#X obj 207 121 tabread \$0-x;
#X obj 333 125 tabread \$0-z;
#X obj 270 139 tabread \$0-y;
#X connect 0 0 27 0;
#X connect 1 0 2 0;
#X connect 2 0 3 0;
#X connect 4 0 5 1;
#X connect 5 0 10 0;
#X connect 6 0 7 0;
#X connect 6 1 11 1;
#X connect 7 0 15 0;
#X connect 8 0 9 0;
#X connect 9 0 7 1;
#X connect 10 0 12 0;
#X connect 10 1 17 0;
#X connect 11 0 18 0;
#X connect 12 0 13 0;
#X connect 12 0 6 0;
#X connect 13 0 12 1;
#X connect 14 0 12 1;
#X connect 15 0 16 0;
#X connect 15 0 11 0;
#X connect 16 0 15 1;
#X connect 17 0 15 1;
#X connect 18 0 19 0;
#X connect 19 0 25 0;
#X connect 19 1 23 0;
#X connect 20 0 24 0;
#X connect 21 0 22 0;
#X connect 22 0 20 1;
#X connect 23 0 1 1;
#X connect 23 1 24 1;
#X connect 24 0 28 0;
#X connect 25 0 1 0;
#X connect 25 1 20 0;
#X connect 27 0 5 0;
#X connect 27 2 14 0;
#X connect 28 0 39 0;
#X connect 28 1 38 0;
#X connect 29 0 40 0;
#X connect 30 0 41 0;
#X connect 31 0 42 0;
#X connect 32 0 48 0;
#X connect 33 0 46 0;
#X connect 34 0 47 0;
#X connect 35 0 29 1;
#X connect 35 1 32 1;
#X connect 35 2 45 0;
#X connect 36 0 30 1;
#X connect 36 1 33 1;
#X connect 36 2 44 0;
#X connect 37 0 31 1;
#X connect 37 1 34 1;
#X connect 37 2 43 0;
#X connect 38 0 52 0;
#X connect 38 1 54 0;
#X connect 38 2 53 0;
#X connect 38 3 46 1;
#X connect 38 3 47 1;
#X connect 38 3 48 1;
#X connect 39 0 51 0;
#X connect 39 1 50 0;
#X connect 39 2 49 0;
#X connect 40 0 32 0;
#X connect 41 0 33 0;
#X connect 42 0 34 0;
#X connect 43 0 1 4;
#X connect 44 0 1 3;
#X connect 45 0 1 2;
#X connect 49 0 31 0;
#X connect 50 0 30 0;
#X connect 51 0 29 0;
#X connect 52 0 35 0;
#X connect 53 0 37 0;
#X connect 54 0 36 0;
#X restore -75 128 pd random-pos-back;
#X msg 0 -76 1;
#X obj 0 -22 spigot;
#X obj 302 20 t b f b;
#X obj 67 -42 tgl 15 0 empty empty empty 17 7 0 10 -262144 -1 -1 0
1;
#X obj 321 96 spigot;
#X obj 341 146 s reset-sphere;
#X obj 255 141 r \$0-u-r;
#X obj 222 211 expr $f1/-2;
#X floatatom 222 231 5 0 0 0 - - -;
#X obj 222 250 + 1;
#X obj 39 278 s sphere-go;
#X obj 249 347 s reset-sphere;
#X obj 253 -181 v forceww;
#X obj 255 165 tgl 15 0 empty empty empty 17 7 0 10 -262144 -1 -1 0
1;
#X obj 222 187 spigot;
#X obj -49 252 s toudp;
#X obj -49 226 packOSC;
#X msg -49 200 send /s-a1 \$1;
#X obj 253 -226 spigot;
#X obj 300 -226 r sphere-signal;
#X obj 388 171 r midi-19;
#X obj 387 193 expr ($f1/127)*0.999+0.001;
#X obj 57 -157 r sphere-signal;
#X obj 24 -132 spigot;
#X obj 24 -107 / 127;
#X obj 24 -181 r midi-48;
#X msg 39 246 0;
#X obj 45 61 t f b f;
#X obj 84 92 sel 0;
#X msg 84 116 0;
#X msg 111 116 1;
#X obj 84 141 change;
#X obj 341 122 del 10;
#X obj 249 325 del 10;
#X obj 222 277 t f b;
#X msg 222 371 \$1 200;
#X obj 222 394 line;
#X obj 222 417 s \$0-one;
#X floatatom 151 -120 5 0 0 0 - - -;
#X obj 151 -96 expr (int($f1*100))/100;
#X msg 151 -70 label noise=\$1;
#X obj 321 70 expr ($f1/2.5)*1;
#X floatatom 253 -158 5 0 0 0 - - -;
#X obj 253 -138 t f f;
#X obj 280 -112 expr if(abs($f1)>0.1 \, 1 \, 0);
#X obj 254 -54 spigot;
#X obj 284 -75 tgl 15 0 empty empty empty 17 7 0 10 -262144 -1 -1 1
1;
#X obj 306 -23 moses 0.11;
#X obj 230 -22 moses -0.11;
#X obj -119 -129 r \$0-stop-noise;
#X connect 1 0 33 0;
#X connect 1 0 54 0;
#X connect 3 0 8 0;
#X connect 4 0 43 0;
#X connect 5 0 15 0;
#X connect 5 1 14 0;
#X connect 7 0 5 0;
#X connect 8 0 6 0;
#X connect 9 0 57 0;
#X connect 10 0 34 0;
#X connect 11 0 28 0;
#X connect 12 0 19 0;
#X connect 13 0 17 0;
#X connect 14 0 0 0;
#X connect 15 0 2 0;
#X connect 16 0 13 0;
#X connect 17 0 3 0;
#X connect 18 0 16 0;
#X connect 18 1 9 0;
#X connect 18 2 48 0;
#X connect 19 0 17 1;
#X connect 19 0 20 1;
#X connect 20 0 1 0;
#X connect 22 0 29 0;
#X connect 23 0 24 0;
#X connect 24 0 25 0;
#X connect 25 0 50 0;
#X connect 28 0 58 0;
#X connect 29 0 30 1;
#X connect 30 0 23 0;
#X connect 32 0 31 0;
#X connect 33 0 32 0;
#X connect 34 0 11 0;
#X connect 35 0 34 1;
#X connect 36 0 37 0;
#X connect 37 0 1 0;
#X connect 38 0 39 1;
#X connect 39 0 40 0;
#X connect 40 0 3 0;
#X connect 41 0 39 0;
#X connect 42 0 26 0;
#X connect 43 0 14 1;
#X connect 43 1 42 0;
#X connect 43 2 44 0;
#X connect 44 0 45 0;
#X connect 44 1 46 0;
#X connect 45 0 47 0;
#X connect 46 0 47 0;
#X connect 47 0 3 0;
#X connect 48 0 21 0;
#X connect 49 0 27 0;
#X connect 50 0 51 0;
#X connect 50 1 49 0;
#X connect 51 0 52 0;
#X connect 52 0 53 0;
#X connect 54 0 55 0;
#X connect 55 0 56 0;
#X connect 55 0 4 0;
#X connect 56 0 1 0;
#X connect 57 0 20 0;
#X connect 58 0 59 0;
#X connect 59 0 61 0;
#X connect 59 1 60 0;
#X connect 60 0 62 0;
#X connect 61 0 64 0;
#X connect 61 0 63 0;
#X connect 62 0 61 1;
#X connect 63 1 18 0;
#X connect 64 0 30 0;
#X connect 65 0 3 0;
#X coords 0 1 100 -1 130 30 2 0 0;
#X restore 5 166 graph;
#X floatatom 275 387 3 0 0 0 - - -;
#X obj 275 365 expr (($f1+1)*3)+5;
#X obj 5 -79 r sphere-go;
#N canvas 534 22 906 789 (subpatch) 0;
#X obj 328 191 t a a a;
#X obj 241 360 sphere3d 1 10;
#X obj 328 168 r \$0-div;
#X obj 193 6 r \$0-pos;
#N canvas 612 187 733 500 line 0;
#X obj 157 -65 inlet;
#X obj 155 171 outlet;
#X obj 155 94 alpha;
#X obj 155 72 separator;
#X msg 73 138 draw line;
#X obj 301 -60 sel 0 1 2;
#X obj 298 -83 r \$0-u-r;
#X obj 297 43 unpack f f f f;
#X obj 356 120 t b f;
#X obj 317 152 * 1;
#X obj 356 89 inlet;
#X obj 317 117 f;
#X obj 73 116 loadbang;
#X obj 156 -44 t a b;
#X obj 183 -21 f;
#X obj 208 -22 + 1;
#X obj 237 -20 % 5;
#X obj 183 2 sel 0;
#X obj 302 177 *;
#X obj 155 115 colorRGB 1 1 1 0.1;
#X obj 379 -78 loadbang;
#X msg 313 -9 1 1 1 0.5;
#X obj 155 141 GEMglLineWidth 1;
#X msg 298 17 1 1 1 0.5;
#X obj 183 23 randomF 0.8;
#X msg 111 35 auto 1;
#X connect 0 0 13 0;
#X connect 2 0 19 0;
#X connect 3 0 2 0;
#X connect 4 0 1 0;
#X connect 5 0 23 0;
#X connect 5 1 21 0;
#X connect 6 0 5 0;
#X connect 7 0 19 1;
#X connect 7 1 19 2;
#X connect 7 2 19 3;
#X connect 7 3 11 0;
#X connect 8 0 11 0;
#X connect 8 1 9 1;
#X connect 9 0 18 1;
#X connect 10 0 8 0;
#X connect 11 0 9 0;
#X connect 12 0 4 0;
#X connect 12 0 25 0;
#X connect 13 0 3 0;
#X connect 13 1 14 0;
#X connect 14 0 15 0;
#X connect 14 0 17 0;
#X connect 15 0 16 0;
#X connect 16 0 14 1;
#X connect 17 0 24 0;
#X connect 18 0 19 4;
#X connect 19 0 22 0;
#X connect 20 0 23 0;
#X connect 21 0 7 0;
#X connect 22 0 1 0;
#X connect 23 0 7 0;
#X connect 24 0 18 0;
#X connect 25 0 2 0;
#X restore 229 326 pd line;
#X obj -97 351 sphere3d 1 10;
#X obj 193 31 t a a a;
#N canvas 567 257 689 551 fill 1;
#X obj 100 -75 inlet;
#X obj 149 198 outlet;
#X obj 149 125 alpha;
#X obj 149 103 separator;
#X msg 67 169 draw fill;
#X msg -11 65 auto 1;
#X obj 149 146 colorRGB 0 0 0 0.1;
#X obj 322 -148 s \$0-u-r;
#X obj 263 -121 sel 0 1 2;
#X obj 396 73 t b f;
#X obj 357 105 * 1;
#X obj 396 42 inlet;
#X obj 357 70 f;
#X obj 167 -223 r reset-sphere;
#X msg 167 -199 0;
#X msg 222 11 \$1 500;
#X obj 222 31 line;
#X obj 159 -98 s data-info;
#X obj 263 -181 sel 1;
#X obj 263 -154 tgl 15 0 empty empty empty 17 7 0 10 -262144 -1 -1
0 1;
#X obj 67 147 loadbang;
#X obj -11 15 loadbang;
#X obj 269 -297 r \$0-gemkey;
#X obj 222 -11 unpack f f f f;
#X msg 255 32 \$1 500;
#X obj 255 52 line;
#X msg 298 25 \$1 500;
#X obj 298 45 line;
#X msg 37 39 1;
#X obj 101 -45 t a b;
#X obj 128 -22 f;
#X obj 153 -23 + 1;
#X obj 182 -21 % 5;
#X obj 128 1 sel 0;
#X obj 342 127 *;
#X obj 326 -122 loadbang;
#X msg 256 -67 1 1 1 0.3;
#X obj 129 22 randomF 0.4;
#X obj 269 -274 t a a;
#X obj 263 -229 spigot;
#X obj 296 -251 route key_226;
#X obj 263 -205 route key_17;
#X msg 272 -44 0.2 0.4 0.7 0.3;
#X msg 159 -123 1;
#X connect 0 0 29 0;
#X connect 2 0 6 0;
#X connect 3 0 2 0;
#X connect 4 0 1 0;
#X connect 5 0 2 0;
#X connect 6 0 1 0;
#X connect 8 0 36 0;
#X connect 8 1 42 0;
#X connect 9 0 12 0;
#X connect 9 1 10 1;
#X connect 10 0 34 1;
#X connect 11 0 9 0;
#X connect 12 0 10 0;
#X connect 13 0 14 0;
#X connect 14 0 19 0;
#X connect 15 0 16 0;
#X connect 16 0 6 1;
#X connect 18 0 43 0;
#X connect 18 0 19 0;
#X connect 19 0 8 0;
#X connect 19 0 7 0;
#X connect 20 0 4 0;
#X connect 21 0 5 0;
#X connect 21 0 28 0;
#X connect 22 0 38 0;
#X connect 23 0 15 0;
#X connect 23 1 24 0;
#X connect 23 2 26 0;
#X connect 23 3 12 0;
#X connect 24 0 25 0;
#X connect 25 0 6 2;
#X connect 26 0 27 0;
#X connect 27 0 6 3;
#X connect 28 0 2 1;
#X connect 29 0 3 0;
#X connect 29 1 30 0;
#X connect 30 0 31 0;
#X connect 30 0 33 0;
#X connect 31 0 32 0;
#X connect 32 0 30 1;
#X connect 33 0 37 0;
#X connect 34 0 6 4;
#X connect 35 0 36 0;
#X connect 36 0 23 0;
#X connect 37 0 34 0;
#X connect 38 0 39 0;
#X connect 38 1 40 0;
#X connect 39 0 41 0;
#X connect 40 0 39 1;
#X connect 41 0 18 0;
#X connect 42 0 23 0;
#X connect 43 0 17 0;
#X restore -97 318 pd fill;
#X obj 33 0 k_tgl;
#X obj 0 0 tgl 30 0 empty empty empty 17 7 0 10 -258113 -1 -1 0 1;
#X obj 34 99 line;
#X obj -148 168 s toudp;
#X obj -148 142 packOSC;
#X obj 0 38 t f f f f;
#X obj -148 86 s sphere-signal;
#X obj -97 293 scale;
#X obj 229 300 scale;
#X msg 0 -39 0;
#X obj 193 -155 f;
#X obj 149 -156 t a b;
#X obj 192 -131 expr fmod($f1 \, 360);
#X floatatom 192 -109 5 0 0 0 - - -;
#X obj 219 -156 + 0.2;
#X obj 66 0 k_tgl;
#X obj 99 0 k_tgl;
#X obj 34 121 s \$0-sphere-show;
#X obj -58 269 r \$0-sphere-show;
#X obj 268 266 r \$0-sphere-show;
#X obj 149 -52 t a a a a;
#X obj 53 342 separator;
#N canvas 419 176 659 572 pos_1 0;
#X obj 54 481 outlet;
#X obj 328 405 outlet;
#X obj 69 206 tabread \$0-x;
#X obj 96 244 tabread \$0-y;
#X obj 123 275 tabread \$0-z;
#X obj 212 378 tabread \$0-r1;
#X obj 328 336 tabread \$0-r2;
#X obj 356 356 tabread \$0-r3;
#X obj 328 381 pack f f 0;
#X obj 212 408 outlet;
#X obj 107 116 t f f f f f f;
#X obj 54 444 pack f f f;
#X obj 107 80 t f f;
#X obj 107 51 inlet;
#N canvas 366 338 450 300 tran 0;
#X obj -15 132 r \$0-radius;
#X obj -114 87 inlet;
#X obj -104 231 outlet;
#X obj -56 233 outlet;
#X obj -15 231 outlet;
#X obj -76 88 inlet;
#X obj -30 94 inlet;
#X obj -36 181 * 1;
#X obj -84 180 * 1;
#X obj -115 179 * 1;
#X connect 0 0 7 1;
#X connect 0 0 8 1;
#X connect 0 0 9 1;
#X connect 1 0 9 0;
#X connect 5 0 8 0;
#X connect 6 0 7 0;
#X connect 7 0 4 0;
#X connect 8 0 3 0;
#X connect 9 0 2 0;
#X restore 69 351 pd tran;
#X connect 2 0 14 0;
#X connect 3 0 14 1;
#X connect 4 0 14 2;
#X connect 5 0 9 0;
#X connect 6 0 8 0;
#X connect 7 0 8 1;
#X connect 8 0 1 0;
#X connect 10 0 2 0;
#X connect 10 1 3 0;
#X connect 10 2 4 0;
#X connect 10 3 5 0;
#X connect 10 4 6 0;
#X connect 10 5 7 0;
#X connect 11 0 0 0;
#X connect 12 0 10 0;
#X connect 13 0 12 0;
#X connect 14 0 11 0;
#X connect 14 1 11 1;
#X connect 14 2 11 2;
#X restore 117 359 pd pos_1;
#X floatatom 219 460 5 0 0 0 - - -;
#X obj 53 465 rotate 0 0 0 0;
#X obj 53 439 translateXYZ;
#X obj 219 436 r \$0-face;
#N canvas 929 207 337 540 counter 0;
#X obj -144 61 t a b;
#X obj -144 33 repeat 10;
#X obj -117 84 f 0;
#X obj -89 85 + 1;
#X obj -153 152 repeat 11;
#X obj -126 201 f 0;
#X obj -99 201 + 1;
#X obj -153 177 t a b;
#X obj -126 225 pack f f;
#X msg -126 252 \$2 \$1;
#X obj -126 272 unpack;
#X obj -91 335 *;
#X obj -76 284 r \$0-div;
#X obj -76 307 + 1;
#X obj -91 360 +;
#X obj -146 -66 inlet;
#X obj -192 352 separator;
#X obj -192 377 outlet;
#X obj -91 410 outlet;
#X obj -93 8 r \$0-div;
#X obj -64 83 r \$0-div;
#X obj -64 106 + 1;
#X msg -79 32 0;
#X obj -145 -21 t a b;
#X obj -151 115 t a b;
#X msg -87 151 0;
#X connect 0 0 24 0;
#X connect 0 1 2 0;
#X connect 1 0 0 0;
#X connect 2 0 3 0;
#X connect 2 0 8 1;
#X connect 3 0 2 1;
#X connect 4 0 7 0;
#X connect 5 0 6 0;
#X connect 5 0 8 0;
#X connect 6 0 5 1;
#X connect 7 0 16 0;
#X connect 7 1 5 0;
#X connect 8 0 9 0;
#X connect 9 0 10 0;
#X connect 10 0 11 0;
#X connect 10 1 14 1;
#X connect 11 0 14 0;
#X connect 12 0 13 0;
#X connect 13 0 11 1;
#X connect 14 0 18 0;
#X connect 15 0 23 0;
#X connect 16 0 17 0;
#X connect 19 0 1 1;
#X connect 20 0 21 0;
#X connect 21 0 4 1;
#X connect 22 0 2 1;
#X connect 23 0 1 0;
#X connect 23 1 22 0;
#X connect 24 0 4 0;
#X connect 24 1 25 0;
#X connect 25 0 5 1;
#X restore 53 304 pd counter;
#X obj 117 332 t f f;
#X obj 76 413 unpack f f f;
#X obj 53 265 separator;
#N canvas 1201 518 661 431 rectaangle=============== 0;
#X obj 87 353 alpha;
#X obj -216 346 alpha;
#X obj 22 125 t f f f;
#X obj 22 72 inlet;
#X floatatom 22 100 5 0 0 0 - - -;
#X obj -216 123 inlet;
#X msg 1 259 auto 1;
#X msg -109 342 auto 1;
#X obj 87 218 separator;
#X obj -216 180 separator;
#X obj -216 146 t a a a;
#X obj -91 367 tgl 15 0 empty empty empty 17 7 0 10 -262144 -1 -1 1
1;
#X obj 48 260 tgl 15 0 empty empty empty 17 7 0 10 -262144 -1 -1 1
1;
#X obj 87 379 scale;
#X obj -216 382 scale;
#X obj -174 384 * 1;
#X obj 150 354 * 1;
#X obj 1 219 loadbang;
#X obj -109 320 loadbang;
#X obj 87 328 colorRGB 1 1 1 0.3;
#X obj -216 319 colorRGB 1 1 1 0;
#X obj 88 401 rectangle 0.2 1;
#X obj -216 404 rectangle 1 0.2;
#X obj -129 174 inlet;
#X obj -123 286 * 0.3;
#X obj 141 115 r \$0-c-face;
#X obj 141 142 sel 0 1;
#X msg 141 166 1 1 1;
#X obj 113 271 unpack f f f;
#X obj -193 261 unpack f f f;
#X msg 159 189 0.1 0.4 0.9;
#X connect 0 0 13 0;
#X connect 1 0 14 0;
#X connect 2 0 15 0;
#X connect 2 1 16 0;
#X connect 3 0 4 0;
#X connect 4 0 2 0;
#X connect 5 0 10 0;
#X connect 6 0 0 0;
#X connect 7 0 1 0;
#X connect 8 0 19 0;
#X connect 9 0 20 0;
#X connect 10 0 9 0;
#X connect 10 1 8 0;
#X connect 11 0 1 1;
#X connect 12 0 0 1;
#X connect 13 0 21 0;
#X connect 14 0 22 0;
#X connect 15 0 14 1;
#X connect 16 0 13 1;
#X connect 17 0 6 0;
#X connect 17 0 12 0;
#X connect 18 0 7 0;
#X connect 18 0 11 0;
#X connect 19 0 0 0;
#X connect 20 0 1 0;
#X connect 23 0 24 0;
#X connect 24 0 20 4;
#X connect 24 0 19 4;
#X connect 25 0 26 0;
#X connect 26 0 27 0;
#X connect 26 1 30 0;
#X connect 27 0 28 0;
#X connect 27 0 29 0;
#X connect 28 0 19 1;
#X connect 28 1 19 2;
#X connect 28 2 19 3;
#X connect 29 0 20 1;
#X connect 29 1 20 2;
#X connect 29 2 20 3;
#X connect 30 0 28 0;
#X connect 30 0 29 0;
#X restore 53 488 pd rectaangle===============;
#X obj 282 429 loadbang;
#X obj 178 396 r \$0-sphere-show;
#X msg 283 452 0.1;
#X obj 0 -69 loadbang;
#X obj 200 -26 s \$0-gemhead;
#X obj 149 -78 rotateXYZ 0 0 0;
#X msg 34 75 \$1 5000;
#X obj 83 -32 t f f f;
#X obj 12 -244 sel 0 1;
#X obj 12 -169 del 6000;
#X obj 12 -127 v \$0-tgl-gem;
#X obj 89 -177 t b b;
#X obj 12 -215 t b b;
#X msg 116 -157 1;
#X msg 39 -195 0;
#X msg -148 117 send /s-a6 \$1;
#X obj 149 -180 gemhead 2;
#X obj -107 -95 s \$0-stop-noise;
#X msg -107 -125 0;
#X connect 0 0 5 2;
#X connect 0 2 1 2;
#X connect 2 0 0 0;
#X connect 3 0 6 0;
#X connect 4 0 1 0;
#X connect 6 0 5 0;
#X connect 6 2 1 0;
#X connect 7 0 5 0;
#X connect 8 0 15 0;
#X connect 9 0 13 0;
#X connect 10 0 25 0;
#X connect 12 0 11 0;
#X connect 13 0 14 0;
#X connect 13 1 46 0;
#X connect 13 2 55 0;
#X connect 13 3 48 0;
#X connect 15 0 7 0;
#X connect 16 0 4 0;
#X connect 17 0 9 0;
#X connect 18 0 20 0;
#X connect 18 0 22 0;
#X connect 19 0 45 0;
#X connect 19 1 18 0;
#X connect 20 0 21 0;
#X connect 21 0 45 1;
#X connect 21 0 45 2;
#X connect 21 0 45 3;
#X connect 22 0 18 1;
#X connect 23 0 38 0;
#X connect 24 0 16 0;
#X connect 26 0 15 1;
#X connect 26 0 7 1;
#X connect 27 0 16 1;
#X connect 27 0 4 1;
#X connect 28 0 8 0;
#X connect 28 1 23 0;
#X connect 28 2 24 0;
#X connect 28 3 44 0;
#X connect 29 0 33 0;
#X connect 30 0 37 0;
#X connect 30 1 32 1;
#X connect 30 2 32 2;
#X connect 31 0 39 2;
#X connect 32 0 39 0;
#X connect 33 0 32 0;
#X connect 34 0 31 0;
#X connect 35 0 29 0;
#X connect 35 1 36 0;
#X connect 36 0 30 0;
#X connect 37 0 33 1;
#X connect 37 1 33 2;
#X connect 37 2 33 3;
#X connect 38 0 35 0;
#X connect 40 0 42 0;
#X connect 41 0 39 1;
#X connect 42 0 31 0;
#X connect 43 0 17 0;
#X connect 45 0 28 0;
#X connect 46 0 10 0;
#X connect 47 0 8 1;
#X connect 47 1 23 1;
#X connect 47 2 24 1;
#X connect 48 0 52 0;
#X connect 48 1 51 0;
#X connect 49 0 50 0;
#X connect 49 0 58 0;
#X connect 50 0 47 0;
#X connect 51 0 50 0;
#X connect 51 1 53 0;
#X connect 52 0 49 0;
#X connect 52 1 54 0;
#X connect 53 0 50 0;
#X connect 54 0 50 0;
#X connect 55 0 12 0;
#X connect 56 0 19 0;
#X connect 58 0 57 0;
#X coords 0 1 100 -1 130 30 1 0 0;
#X restore 5 53 graph;
#N canvas 998 159 349 575 set-origon 0;
#X obj -84 -223 r \$0-div;
#X obj -150 -194 repeat 10;
#X obj -187 191 s \$0-pos;
#X obj -150 -95 t b f;
#X obj -150 -67 repeat 10;
#X obj -67 -122 r \$0-div;
#X obj -67 -99 + 1;
#X obj -150 -163 t b b;
#X obj -150 1 pack f f;
#X obj -150 -129 f 0;
#X obj -122 -130 + 1;
#X msg -110 -162 0;
#X obj -150 -34 f 0;
#X obj -122 -34 + 1;
#X msg -86 -67 0;
#X msg -150 23 \$2 \$1;
#X obj -150 43 unpack;
#X obj -66 0 *;
#X obj -51 -51 r \$0-div;
#X obj -51 -28 + 1;
#X obj -119 67 t f f;
#X obj -66 25 +;
#X obj -170 69 t f f;
#X floatatom -66 48 5 0 0 0 - - -;
#X floatatom -119 91 5 0 0 0 - - -;
#X floatatom -170 91 5 0 0 0 - - -;
#N canvas 9 166 1217 623 math-pos======== 0;
#X obj 108 69 inlet;
#X obj 224 66 inlet;
#X obj 332 41 r \$0-div;
#X obj 332 66 expr 1/ $f1;
#X floatatom 332 91 5 0 0 0 - - -;
#X obj 263 120 expr $f1*$f2;
#X obj 234 154 f;
#X obj 354 147 expr ($f1+1)*$f2;
#X obj 354 174 f;
#X obj 450 351 expr cos($f1);
#X obj 252 310 expr sin($f1)*sin($f2);
#X obj 233 348 expr sin($f1)*cos($f2);
#X obj 101 560 outlet;
#X obj 234 220 deg2rad;
#X obj 234 247 / 2;
#X obj 234 197 * 360;
#X obj 354 217 * 360;
#X obj 354 239 deg2rad;
#X floatatom 354 194 5 0 0 0 - - -;
#X floatatom 234 176 5 0 0 0 - - -;
#X obj 448 377 * 1;
#X obj 344 371 * 1;
#X obj 233 379 * 1;
#X msg 101 522 setCartesian \$1 \$2 \$3 \$4 \$5;
#X obj 233 403 t f f;
#X obj 344 399 t f f;
#X obj 448 406 t f f;
#X obj 108 91 t f b f;
#X obj 224 90 t f b f;
#X obj 101 496 pack f f f f f f;
#X obj 494 421 buddy 2;
#X obj 372 424 buddy 2;
#X obj 260 427 buddy 2;
#X obj 676 155 inlet radius;
#X obj 473 147 inlet index;
#X obj 745 470 expr -1*sin($f1);
#X obj 865 465 expr 1*cos($f1);
#X obj 649 455 rad2deg;
#X obj 745 431 t f f;
#X obj 649 482 buddy 2;
#X obj 649 513 tabwrite \$0-r1;
#X obj 745 503 buddy 2;
#X obj 865 504 buddy 2;
#X obj 745 531 tabwrite \$0-r2;
#X obj 865 533 tabwrite \$0-r3;
#X obj 473 197 t f f f f f f f;
#X obj 676 178 t f f f;
#X obj 354 273 t f f f;
#X text 257 245 \$0-theta_motion;
#X text 398 218 \$0-phi_motion;
#X obj 233 274 t f f f f;
#X obj 260 452 t f f;
#X obj 304 449 t f f;
#X obj 287 511 tabwrite \$0-xx;
#X obj 260 485 tabwrite \$0-x;
#X obj 375 461 t f f;
#X obj 419 458 t f f;
#X obj 494 447 t f f;
#X obj 538 444 t f f;
#X obj 375 494 tabwrite \$0-y;
#X obj 402 520 tabwrite \$0-yy;
#X obj 494 480 tabwrite \$0-z;
#X obj 521 506 tabwrite \$0-zz;
#X connect 0 0 27 0;
#X connect 1 0 28 0;
#X connect 2 0 3 0;
#X connect 3 0 4 0;
#X connect 4 0 5 1;
#X connect 4 0 7 1;
#X connect 5 0 6 0;
#X connect 6 0 19 0;
#X connect 7 0 8 0;
#X connect 8 0 18 0;
#X connect 9 0 20 0;
#X connect 10 0 21 0;
#X connect 11 0 22 0;
#X connect 13 0 14 0;
#X connect 14 0 50 0;
#X connect 15 0 13 0;
#X connect 16 0 17 0;
#X connect 17 0 47 0;
#X connect 18 0 16 0;
#X connect 19 0 15 0;
#X connect 20 0 26 0;
#X connect 21 0 25 0;
#X connect 22 0 24 0;
#X connect 23 0 12 0;
#X connect 24 0 29 2;
#X connect 24 1 32 0;
#X connect 25 0 29 3;
#X connect 25 1 31 0;
#X connect 26 0 29 4;
#X connect 26 1 30 0;
#X connect 27 0 29 0;
#X connect 27 2 7 0;
#X connect 28 0 29 1;
#X connect 28 2 5 0;
#X connect 29 0 23 0;
#X connect 30 0 57 0;
#X connect 30 1 58 0;
#X connect 31 0 55 0;
#X connect 31 1 56 0;
#X connect 32 0 51 0;
#X connect 32 1 52 0;
#X connect 33 0 46 0;
#X connect 34 0 45 0;
#X connect 35 0 41 0;
#X connect 36 0 42 0;
#X connect 37 0 39 0;
#X connect 38 0 35 0;
#X connect 38 1 36 0;
#X connect 39 0 40 0;
#X connect 39 1 40 1;
#X connect 41 0 43 0;
#X connect 41 1 43 1;
#X connect 42 0 44 0;
#X connect 42 1 44 1;
#X connect 45 0 29 5;
#X connect 45 1 32 1;
#X connect 45 2 31 1;
#X connect 45 3 30 1;
#X connect 45 4 39 1;
#X connect 45 5 41 1;
#X connect 45 6 42 1;
#X connect 46 0 22 1;
#X connect 46 1 21 1;
#X connect 46 2 20 1;
#X connect 47 0 11 1;
#X connect 47 1 10 1;
#X connect 47 2 38 0;
#X connect 50 0 11 0;
#X connect 50 1 10 0;
#X connect 50 2 9 0;
#X connect 50 3 37 0;
#X connect 51 0 54 0;
#X connect 51 1 53 0;
#X connect 52 0 54 1;
#X connect 52 1 53 1;
#X connect 55 0 59 0;
#X connect 55 1 60 0;
#X connect 56 0 59 1;
#X connect 56 1 60 1;
#X connect 57 0 61 0;
#X connect 57 1 62 0;
#X connect 58 0 61 1;
#X connect 58 1 62 1;
#X restore -187 153 pd math-pos========;
#X obj -150 -223 t b b;
#X obj -66 68 t f f;
#X obj -150 -256 inlet;
#X obj -15 130 outlet;
#X obj -75 121 inlet;
#X connect 0 0 1 1;
#X connect 1 0 7 0;
#X connect 3 0 4 0;
#X connect 3 1 8 1;
#X connect 4 0 12 0;
#X connect 5 0 6 0;
#X connect 6 0 4 1;
#X connect 7 0 9 0;
#X connect 7 1 14 0;
#X connect 8 0 15 0;
#X connect 9 0 10 0;
#X connect 9 0 3 0;
#X connect 10 0 9 1;
#X connect 11 0 9 1;
#X connect 12 0 13 0;
#X connect 12 0 8 0;
#X connect 13 0 12 1;
#X connect 14 0 12 1;
#X connect 15 0 16 0;
#X connect 16 0 22 0;
#X connect 16 1 20 0;
#X connect 17 0 21 0;
#X connect 18 0 19 0;
#X connect 19 0 17 1;
#X connect 20 0 24 0;
#X connect 20 1 21 1;
#X connect 21 0 23 0;
#X connect 22 0 25 0;
#X connect 22 1 17 0;
#X connect 23 0 28 0;
#X connect 24 0 26 1;
#X connect 25 0 26 0;
#X connect 26 0 2 0;
#X connect 27 0 1 0;
#X connect 27 1 11 0;
#X connect 28 0 26 2;
#X connect 28 1 30 0;
#X connect 29 0 27 0;
#X connect 31 0 26 3;
#X restore -152 281 pd set-origon;
#N canvas 742 64 557 726 (subpatch) 0;
#X obj 3 0 hsl 100 15 0.05 8 0 0 empty empty radius=1.77812 8 8 0 10
-262144 -1 -1 2152 1;
#X floatatom 0 22 5 0 0 0 - - -;
#X floatatom 84 -415 5 0 0 0 - - -;
#X obj 84 -529 r mouseright;
#X obj 84 -461 sel 0;
#X obj 171 -258 expr $f1*2;
#X obj 204 -317 r \$0-u-r;
#X obj 171 -283 spigot;
#X obj 84 -440 v forcehh;
#X obj 29 -308 r \$0-u-r;
#X obj -4 -277 spigot;
#X obj -4 -252 expr $f1/-2;
#X floatatom -4 -232 5 0 0 0 - - -;
#X obj -4 -213 + 1;
#X obj 198 -159 s reset-sphere;
#X obj -77 161 s toudp;
#X obj -77 135 packOSC;
#X msg -77 109 send /s-a2 \$1;
#X obj 84 -501 spigot;
#X obj 131 -501 r sphere-signal;
#X floatatom 65 -62 5 0 0 0 - - -;
#X obj 65 -37 expr ($f1+0.01)*2;
#X obj 122 -125 r midi-16;
#X floatatom 122 -80 5 0 0 0 - - -;
#X obj 122 -102 expr ($f1/127)*7.95+0.05;
#X obj 1 44 t f b;
#X obj 86 129 s sphere-go;
#X msg 28 71 1;
#X msg -103 21 label radius=\$1;
#X floatatom 17 131 5 0 0 0 - - -;
#X obj 17 95 k_spring 0.6;
#X obj 198 -181 del 10;
#X obj 171 -229 t f b;
#X obj -4 -188 t f b;
#X msg 65 -141 \$1 200;
#X obj 65 -118 line;
#X msg -224 -119 \$1 200;
#X obj -224 -96 line;
#X obj 17 155 outlet;
#X obj -224 -68 s \$0-two;
#X obj 84 -390 t f f;
#X obj 111 -364 expr if(abs($f1)>0.1 \, 1 \, 0);
#X obj 85 -306 spigot;
#X obj 115 -327 tgl 15 0 empty empty empty 17 7 0 10 -262144 -1 -1
1 1;
#X obj 171 -340 moses 0.11;
#X obj -10 -359 moses -0.11;
#X obj -41 -105 r sphere-signal;
#X obj -41 -80 sel 1;
#X msg 0 -36 1;
#X connect 0 0 1 0;
#X connect 1 0 25 0;
#X connect 2 0 40 0;
#X connect 3 0 18 0;
#X connect 4 0 8 0;
#X connect 5 0 32 0;
#X connect 6 0 7 1;
#X connect 7 0 5 0;
#X connect 8 0 2 0;
#X connect 9 0 10 1;
#X connect 10 0 11 0;
#X connect 11 0 12 0;
#X connect 12 0 13 0;
#X connect 13 0 33 0;
#X connect 16 0 15 0;
#X connect 17 0 16 0;
#X connect 18 0 4 0;
#X connect 19 0 18 1;
#X connect 20 0 21 0;
#X connect 21 0 0 0;
#X connect 22 0 24 0;
#X connect 23 0 0 0;
#X connect 24 0 23 0;
#X connect 25 0 17 0;
#X connect 25 0 28 0;
#X connect 25 0 30 0;
#X connect 25 1 27 0;
#X connect 27 0 26 0;
#X connect 28 0 0 0;
#X connect 29 0 38 0;
#X connect 30 0 29 0;
#X connect 30 1 26 0;
#X connect 31 0 14 0;
#X connect 32 0 34 0;
#X connect 32 1 31 0;
#X connect 33 0 36 0;
#X connect 33 1 31 0;
#X connect 34 0 35 0;
#X connect 35 0 20 0;
#X connect 36 0 37 0;
#X connect 37 0 39 0;
#X connect 40 0 42 0;
#X connect 40 1 41 0;
#X connect 41 0 43 0;
#X connect 42 0 44 0;
#X connect 42 0 45 0;
#X connect 43 0 42 1;
#X connect 44 1 7 0;
#X connect 45 0 10 0;
#X connect 46 0 47 0;
#X connect 47 0 48 0;
#X connect 48 0 0 0;
#X coords 0 1 100 -1 105 15 1 0 0;
#X restore 5 88 graph;
#X obj 174 -55 r \$0-u-r;
#X msg 174 19 \; show-tgl color \$1;
#X obj 38 19 tgl 30 0 empty show-tgl sel 5 15 0 10 -1 -1 -262144 0
1;
#X obj 174 -31 sel 0 1;
#X msg 206 -10 13;
#X msg 174 -8 22;
#X obj 60 345 s toudp;
#X obj 60 319 packOSC;
#X msg 60 293 send /s-a3 \$1;
#X obj 161 344 s toudp;
#X obj 161 318 packOSC;
#X msg 161 291 send /s-a4 \$1;
#X obj 53 -57 r sphere-signal;
#X obj 5 -31 change;
#X obj 275 94 table \$0-x 3000;
#X obj 276 118 table \$0-y 3000;
#X obj 277 140 table \$0-z 3000;
#X obj 277 166 table \$0-xx 3000;
#X obj 278 188 table \$0-yy 3000;
#X obj 279 211 table \$0-zz 3000;
#X obj 272 242 table \$0-r1 1000;
#X obj 274 261 table \$0-r2 1000;
#X obj 275 284 table \$0-r3 1000;
#X obj 275 311 loadbang;
#N canvas 811 179 622 526 radius==== 0;
#X obj 79 -15 inlet;
#X obj 79 368 outlet;
#X obj 160 78 r \$0-div;
#X obj 137 153 % 4;
#X obj 160 103 + 1;
#X floatatom 137 178 5 0 0 0 - - -;
#X obj 79 58 t f f f;
#X obj 97 145 > 5;
#X obj 79 168 *;
#X obj 79 122 / 3;
#X obj 79 190 i;
#X floatatom 79 212 5 0 0 0 - - -;
#X obj 79 305 *;
#X obj 245 52 inlet;
#X floatatom 245 79 5 0 0 0 - - -;
#X obj 302 54 inlet;
#X floatatom 302 81 5 0 0 0 - - -;
#X obj 378 57 inlet;
#X obj 79 335 * 10;
#X obj 136 200 expr if($f1%2==0 \, 1 \, $f2);
#X obj 79 242 expr if($f1%2==0 \, 1 \, $f2);
#X floatatom 321 129 5 0 0 0 - - -;
#X connect 0 0 6 0;
#X connect 2 0 4 0;
#X connect 2 0 7 1;
#X connect 3 0 5 0;
#X connect 4 0 3 1;
#X connect 4 0 9 1;
#X connect 5 0 19 0;
#X connect 6 0 9 0;
#X connect 6 1 3 0;
#X connect 6 2 7 0;
#X connect 7 0 8 1;
#X connect 8 0 10 0;
#X connect 9 0 8 0;
#X connect 10 0 11 0;
#X connect 11 0 20 0;
#X connect 12 0 18 0;
#X connect 13 0 14 0;
#X connect 14 0 20 1;
#X connect 15 0 16 0;
#X connect 16 0 19 1;
#X connect 17 0 21 0;
#X connect 18 0 1 0;
#X connect 19 0 12 1;
#X connect 20 0 12 0;
#X connect 21 0 18 1;
#X restore -152 317 pd radius====;
#X obj 5 -56 spigot;
#X obj 355 -33 spigot;
#X obj 388 -53 tgl 15 0 empty empty empty 17 7 0 10 -262144 -1 -1 0
1;
#X obj 355 -81 r hid;
#X obj 407 -54 r sphere-signal;
#X obj 355 -8 s \$0-gemkey;
#N canvas 626 152 507 591 control 0;
#X obj 102 103 tgl 20 0 empty empty empty 17 7 0 10 -262144 -1 -1 0
1;
#X obj 46 308 + 1;
#X obj 104 43 loadbang;
#X obj 104 176 metro 500;
#X floatatom 125 106 4 0 0 0 - - -;
#X obj 253 118 / 2;
#X obj 237 144 +;
#X floatatom 237 165 5 0 0 0 - - -;
#N canvas 920 253 520 526 target 0;
#X obj -72 157 translateXYZ;
#N canvas 589 109 339 585 pos 0;
#X floatatom 85 87 5 0 0 0 - - -;
#X obj 85 63 inlet;
#X obj 85 116 t f f f f;
#X obj 44 270 tabread \$0-x;
#X obj 71 308 tabread \$0-y;
#X obj 98 339 tabread \$0-z;
#N canvas 366 338 450 300 tran 0;
#X obj -15 132 r \$0-radius;
#X obj -114 87 inlet;
#X obj -104 231 outlet;
#X obj -56 233 outlet;
#X obj -15 231 outlet;
#X obj -76 88 inlet;
#X obj -30 94 inlet;
#X obj -36 181 * 1;
#X obj -84 180 * 1;
#X obj -115 179 * 1;
#X connect 0 0 7 1;
#X connect 0 0 8 1;
#X connect 0 0 9 1;
#X connect 1 0 9 0;
#X connect 5 0 8 0;
#X connect 6 0 7 0;
#X connect 7 0 4 0;
#X connect 8 0 3 0;
#X connect 9 0 2 0;
#X restore 44 415 pd tran;
#X obj 54 555 outlet;
#X obj 109 555 outlet;
#X obj 170 551 outlet;
#X obj 57 522 line;
#X obj 102 523 line;
#X obj 151 520 line;
#X obj 51 466 t f b;
#X floatatom 78 489 5 0 0 0 - - -;
#X obj 104 463 t f b;
#X floatatom 131 486 5 0 0 0 - - -;
#X obj 153 463 t f b;
#X floatatom 180 486 5 0 0 0 - - -;
#X obj 206 390 inlet;
#X obj 98 374 * 1;
#X obj 71 374 * 1;
#X obj 44 374 * 1;
#X connect 0 0 2 0;
#X connect 1 0 0 0;
#X connect 2 0 3 0;
#X connect 2 1 4 0;
#X connect 2 2 5 0;
#X connect 3 0 22 0;
#X connect 4 0 21 0;
#X connect 5 0 20 0;
#X connect 6 0 13 0;
#X connect 6 1 15 0;
#X connect 6 2 17 0;
#X connect 10 0 7 0;
#X connect 11 0 8 0;
#X connect 12 0 9 0;
#X connect 13 0 10 0;
#X connect 13 1 14 0;
#X connect 14 0 10 1;
#X connect 15 0 11 0;
#X connect 15 1 16 0;
#X connect 16 0 11 1;
#X connect 17 0 12 0;
#X connect 17 1 18 0;
#X connect 18 0 12 1;
#X connect 19 0 14 0;
#X connect 19 0 16 0;
#X connect 19 0 18 0;
#X connect 20 0 6 2;
#X connect 21 0 6 1;
#X connect 22 0 6 0;
#X restore 52 90 pd pos;
#X floatatom 52 56 5 0 0 0 - - -;
#X msg -141 261 draw line;
#X obj -141 233 loadbang;
#X obj -72 252 separator;
#X obj -46 404 separator;
#X obj 16 294 separator;
#X obj -121 332 separator;
#X obj -46 480 cube 0.1;
#X obj 17 359 cube 0.1;
#X obj -121 400 cube 0.1;
#X obj -121 376 color 1 1 1;
#X obj 17 336 color 1 1 1;
#X obj -46 455 color 1 1 1;
#X obj -72 129 separator;
#X obj -72 276 color 1 1 1;
#X obj -72 310 cube 0.05;
#X obj 52 119 pack f f f;
#N canvas 717 269 452 413 ro-angle 0;
#X msg 88 137 \$1 4000;
#X obj 88 160 line;
#X msg 176 173 \$1 4000;
#X obj 176 196 line;
#X msg 264 155 \$1 4000;
#X obj 264 178 line;
#X obj 55 187 inlet;
#X obj 77 285 outlet;
#X obj 173 45 inlet;
#X obj 72 230 rotateXYZ 0 0 0;
#X obj 88 113 randomF 360;
#X obj 176 145 randomF 360;
#X obj 264 133 randomF 360;
#X connect 0 0 1 0;
#X connect 1 0 9 1;
#X connect 2 0 3 0;
#X connect 3 0 9 2;
#X connect 4 0 5 0;
#X connect 5 0 9 3;
#X connect 6 0 9 0;
#X connect 8 0 10 0;
#X connect 8 0 11 0;
#X connect 8 0 12 0;
#X connect 9 0 7 0;
#X connect 10 0 0 0;
#X connect 11 0 2 0;
#X connect 12 0 4 0;
#X restore -72 189 pd ro-angle;
#X obj -72 221 t a a a a;
#X obj 168 249 outlet;
#X obj 52 23 inlet;
#X obj 122 33 inlet;
#X obj 16 316 scaleXYZ 0.02 4 0.02;
#X obj -46 431 scaleXYZ 0.02 0.02 4;
#X obj -121 356 scaleXYZ 4 0.02 0.02;
#X obj 188 54 inlet;
#X obj -81 90 spigot;
#X obj -42 50 inlet;
#X obj -121 30 r \$0-gemhead;
#X connect 0 0 19 0;
#X connect 1 0 0 1;
#X connect 1 0 18 0;
#X connect 1 1 0 2;
#X connect 1 1 18 1;
#X connect 1 2 0 3;
#X connect 1 2 18 2;
#X connect 2 0 1 0;
#X connect 3 0 17 0;
#X connect 4 0 3 0;
#X connect 5 0 16 0;
#X connect 6 0 25 0;
#X connect 7 0 24 0;
#X connect 8 0 26 0;
#X connect 12 0 11 0;
#X connect 13 0 10 0;
#X connect 14 0 9 0;
#X connect 15 0 0 0;
#X connect 16 0 17 0;
#X connect 18 0 21 0;
#X connect 19 0 20 0;
#X connect 20 0 5 0;
#X connect 20 1 8 0;
#X connect 20 2 6 0;
#X connect 20 3 7 0;
#X connect 22 0 2 0;
#X connect 23 0 1 1;
#X connect 24 0 13 0;
#X connect 25 0 14 0;
#X connect 26 0 12 0;
#X connect 27 0 19 1;
#X connect 28 0 15 0;
#X connect 29 0 28 1;
#X connect 30 0 28 0;
#X restore 14 433 pd target;
#N canvas 687 206 520 526 target 0;
#X obj -72 157 translateXYZ;
#N canvas 589 109 339 585 pos 0;
#X floatatom 85 87 5 0 0 0 - - -;
#X obj 85 63 inlet;
#X obj 85 116 t f f f f;
#X obj 44 270 tabread \$0-x;
#X obj 71 308 tabread \$0-y;
#X obj 98 339 tabread \$0-z;
#N canvas 366 338 450 300 tran 0;
#X obj -15 132 r \$0-radius;
#X obj -114 87 inlet;
#X obj -104 231 outlet;
#X obj -56 233 outlet;
#X obj -15 231 outlet;
#X obj -76 88 inlet;
#X obj -30 94 inlet;
#X obj -36 181 * 1;
#X obj -84 180 * 1;
#X obj -115 179 * 1;
#X connect 0 0 7 1;
#X connect 0 0 8 1;
#X connect 0 0 9 1;
#X connect 1 0 9 0;
#X connect 5 0 8 0;
#X connect 6 0 7 0;
#X connect 7 0 4 0;
#X connect 8 0 3 0;
#X connect 9 0 2 0;
#X restore 44 415 pd tran;
#X obj 54 555 outlet;
#X obj 109 555 outlet;
#X obj 170 551 outlet;
#X obj 57 522 line;
#X obj 102 523 line;
#X obj 151 520 line;
#X obj 51 466 t f b;
#X floatatom 78 489 5 0 0 0 - - -;
#X obj 104 463 t f b;
#X floatatom 131 486 5 0 0 0 - - -;
#X obj 153 463 t f b;
#X floatatom 180 486 5 0 0 0 - - -;
#X obj 206 390 inlet;
#X obj 98 374 * 1;
#X obj 71 374 * 1;
#X obj 44 374 * 1;
#X connect 0 0 2 0;
#X connect 1 0 0 0;
#X connect 2 0 3 0;
#X connect 2 1 4 0;
#X connect 2 2 5 0;
#X connect 3 0 22 0;
#X connect 4 0 21 0;
#X connect 5 0 20 0;
#X connect 6 0 13 0;
#X connect 6 1 15 0;
#X connect 6 2 17 0;
#X connect 10 0 7 0;
#X connect 11 0 8 0;
#X connect 12 0 9 0;
#X connect 13 0 10 0;
#X connect 13 1 14 0;
#X connect 14 0 10 1;
#X connect 15 0 11 0;
#X connect 15 1 16 0;
#X connect 16 0 11 1;
#X connect 17 0 12 0;
#X connect 17 1 18 0;
#X connect 18 0 12 1;
#X connect 19 0 14 0;
#X connect 19 0 16 0;
#X connect 19 0 18 0;
#X connect 20 0 6 2;
#X connect 21 0 6 1;
#X connect 22 0 6 0;
#X restore 52 90 pd pos;
#X floatatom 52 56 5 0 0 0 - - -;
#X msg -141 261 draw line;
#X obj -141 233 loadbang;
#X obj -72 252 separator;
#X obj -46 404 separator;
#X obj 16 294 separator;
#X obj -121 332 separator;
#X obj -46 480 cube 0.1;
#X obj 17 359 cube 0.1;
#X obj -121 400 cube 0.1;
#X obj -121 376 color 1 1 1;
#X obj 17 336 color 1 1 1;
#X obj -46 455 color 1 1 1;
#X obj -72 129 separator;
#X obj -72 276 color 1 1 1;
#X obj -72 298 cube 0.05;
#X obj 52 119 pack f f f;
#N canvas 717 269 452 413 ro-angle 0;
#X msg 88 137 \$1 4000;
#X obj 88 160 line;
#X msg 176 173 \$1 4000;
#X obj 176 196 line;
#X msg 264 155 \$1 4000;
#X obj 264 178 line;
#X obj 55 187 inlet;
#X obj 77 285 outlet;
#X obj 173 45 inlet;
#X obj 72 230 rotateXYZ 0 0 0;
#X obj 88 113 randomF 360;
#X obj 176 145 randomF 360;
#X obj 264 133 randomF 360;
#X connect 0 0 1 0;
#X connect 1 0 9 1;
#X connect 2 0 3 0;
#X connect 3 0 9 2;
#X connect 4 0 5 0;
#X connect 5 0 9 3;
#X connect 6 0 9 0;
#X connect 8 0 10 0;
#X connect 8 0 11 0;
#X connect 8 0 12 0;
#X connect 9 0 7 0;
#X connect 10 0 0 0;
#X connect 11 0 2 0;
#X connect 12 0 4 0;
#X restore -72 189 pd ro-angle;
#X obj -72 221 t a a a a;
#X obj 168 249 outlet;
#X obj 52 23 inlet;
#X obj 122 33 inlet;
#X obj 16 316 scaleXYZ 0.02 4 0.02;
#X obj -46 431 scaleXYZ 0.02 0.02 4;
#X obj -121 356 scaleXYZ 4 0.02 0.02;
#X obj 178 44 inlet;
#X obj -84 96 spigot;
#X obj -45 56 inlet;
#X obj -124 36 r \$0-gemhead;
#X connect 0 0 19 0;
#X connect 1 0 0 1;
#X connect 1 0 18 0;
#X connect 1 1 0 2;
#X connect 1 1 18 1;
#X connect 1 2 0 3;
#X connect 1 2 18 2;
#X connect 2 0 1 0;
#X connect 3 0 17 0;
#X connect 4 0 3 0;
#X connect 5 0 16 0;
#X connect 6 0 25 0;
#X connect 7 0 24 0;
#X connect 8 0 26 0;
#X connect 12 0 11 0;
#X connect 13 0 10 0;
#X connect 14 0 9 0;
#X connect 15 0 0 0;
#X connect 16 0 17 0;
#X connect 18 0 21 0;
#X connect 19 0 20 0;
#X connect 20 0 5 0;
#X connect 20 1 8 0;
#X connect 20 2 6 0;
#X connect 20 3 7 0;
#X connect 22 0 2 0;
#X connect 23 0 1 1;
#X connect 24 0 13 0;
#X connect 25 0 14 0;
#X connect 26 0 12 0;
#X connect 27 0 19 1;
#X connect 28 0 15 0;
#X connect 29 0 28 1;
#X connect 30 0 28 0;
#X restore 85 434 pd target;
#N canvas 758 206 520 526 target 0;
#X obj -72 157 translateXYZ;
#N canvas 589 109 339 585 pos 0;
#X floatatom 85 87 5 0 0 0 - - -;
#X obj 85 63 inlet;
#X obj 85 116 t f f f f;
#X obj 44 270 tabread \$0-x;
#X obj 71 308 tabread \$0-y;
#X obj 98 339 tabread \$0-z;
#N canvas 366 338 450 300 tran 0;
#X obj -15 132 r \$0-radius;
#X obj -114 87 inlet;
#X obj -104 231 outlet;
#X obj -56 233 outlet;
#X obj -15 231 outlet;
#X obj -76 88 inlet;
#X obj -30 94 inlet;
#X obj -36 181 * 1;
#X obj -84 180 * 1;
#X obj -115 179 * 1;
#X connect 0 0 7 1;
#X connect 0 0 8 1;
#X connect 0 0 9 1;
#X connect 1 0 9 0;
#X connect 5 0 8 0;
#X connect 6 0 7 0;
#X connect 7 0 4 0;
#X connect 8 0 3 0;
#X connect 9 0 2 0;
#X restore 44 415 pd tran;
#X obj 54 555 outlet;
#X obj 109 555 outlet;
#X obj 170 551 outlet;
#X obj 57 522 line;
#X obj 102 523 line;
#X obj 151 520 line;
#X obj 51 466 t f b;
#X floatatom 78 489 5 0 0 0 - - -;
#X obj 104 463 t f b;
#X floatatom 131 486 5 0 0 0 - - -;
#X obj 153 463 t f b;
#X floatatom 180 486 5 0 0 0 - - -;
#X obj 206 390 inlet;
#X obj 98 374 * 1;
#X obj 71 374 * 1;
#X obj 44 374 * 1;
#X connect 0 0 2 0;
#X connect 1 0 0 0;
#X connect 2 0 3 0;
#X connect 2 1 4 0;
#X connect 2 2 5 0;
#X connect 3 0 22 0;
#X connect 4 0 21 0;
#X connect 5 0 20 0;
#X connect 6 0 13 0;
#X connect 6 1 15 0;
#X connect 6 2 17 0;
#X connect 10 0 7 0;
#X connect 11 0 8 0;
#X connect 12 0 9 0;
#X connect 13 0 10 0;
#X connect 13 1 14 0;
#X connect 14 0 10 1;
#X connect 15 0 11 0;
#X connect 15 1 16 0;
#X connect 16 0 11 1;
#X connect 17 0 12 0;
#X connect 17 1 18 0;
#X connect 18 0 12 1;
#X connect 19 0 14 0;
#X connect 19 0 16 0;
#X connect 19 0 18 0;
#X connect 20 0 6 2;
#X connect 21 0 6 1;
#X connect 22 0 6 0;
#X restore 52 90 pd pos;
#X floatatom 52 56 5 0 0 0 - - -;
#X msg -141 261 draw line;
#X obj -141 233 loadbang;
#X obj -72 252 separator;
#X obj -46 404 separator;
#X obj 16 294 separator;
#X obj -121 332 separator;
#X obj -46 480 cube 0.1;
#X obj 17 359 cube 0.1;
#X obj -121 400 cube 0.1;
#X obj -121 376 color 1 1 1;
#X obj 17 336 color 1 1 1;
#X obj -46 455 color 1 1 1;
#X obj -72 129 separator;
#X obj -72 276 color 1 1 1;
#X obj -72 298 cube 0.05;
#X obj 52 119 pack f f f;
#N canvas 717 269 452 413 ro-angle 0;
#X msg 88 137 \$1 4000;
#X obj 88 160 line;
#X msg 176 173 \$1 4000;
#X obj 176 196 line;
#X msg 264 155 \$1 4000;
#X obj 264 178 line;
#X obj 55 187 inlet;
#X obj 77 285 outlet;
#X obj 173 45 inlet;
#X obj 72 230 rotateXYZ 0 0 0;
#X obj 88 113 randomF 360;
#X obj 176 145 randomF 360;
#X obj 264 133 randomF 360;
#X connect 0 0 1 0;
#X connect 1 0 9 1;
#X connect 2 0 3 0;
#X connect 3 0 9 2;
#X connect 4 0 5 0;
#X connect 5 0 9 3;
#X connect 6 0 9 0;
#X connect 8 0 10 0;
#X connect 8 0 11 0;
#X connect 8 0 12 0;
#X connect 9 0 7 0;
#X connect 10 0 0 0;
#X connect 11 0 2 0;
#X connect 12 0 4 0;
#X restore -72 189 pd ro-angle;
#X obj -72 221 t a a a a;
#X obj 168 249 outlet;
#X obj 52 23 inlet;
#X obj 122 33 inlet;
#X obj 15 316 scaleXYZ 0.02 4 0.02;
#X obj -46 431 scaleXYZ 0.02 0.02 4;
#X obj -121 356 scaleXYZ 4 0.02 0.02;
#X obj 168 34 inlet;
#X obj -86 88 spigot;
#X obj -47 48 inlet;
#X obj -126 28 r \$0-gemhead;
#X connect 0 0 19 0;
#X connect 1 0 0 1;
#X connect 1 0 18 0;
#X connect 1 1 0 2;
#X connect 1 1 18 1;
#X connect 1 2 0 3;
#X connect 1 2 18 2;
#X connect 2 0 1 0;
#X connect 3 0 17 0;
#X connect 4 0 3 0;
#X connect 5 0 16 0;
#X connect 6 0 25 0;
#X connect 7 0 24 0;
#X connect 8 0 26 0;
#X connect 12 0 11 0;
#X connect 13 0 10 0;
#X connect 14 0 9 0;
#X connect 15 0 0 0;
#X connect 16 0 17 0;
#X connect 18 0 21 0;
#X connect 19 0 20 0;
#X connect 20 0 5 0;
#X connect 20 1 8 0;
#X connect 20 2 6 0;
#X connect 20 3 7 0;
#X connect 22 0 2 0;
#X connect 23 0 1 1;
#X connect 24 0 13 0;
#X connect 25 0 14 0;
#X connect 26 0 12 0;
#X connect 27 0 19 1;
#X connect 28 0 15 0;
#X connect 29 0 28 1;
#X connect 30 0 28 0;
#X restore 153 433 pd target;
#X obj 13 308 f 15;
#X obj 33 343 f 67;
#X obj 126 305 f 93;
#X obj 187 304 % 109;
#X obj 92 342 % 109;
#X obj 75 307 % 109;
#X obj 63 343 + 2;
#X obj 158 305 + 5;
#X obj 237 60 t f f;
#X floatatom 268 335 5 0 0 0 - - -;
#N canvas 756 247 450 300 curve 0;
#X obj 63 165 separator;
#X obj 63 216 curve 2;
#X obj -29 136 loadbang;
#X msg -29 164 draw point;
#X msg -55 194 res 15;
#X obj 63 140 alpha;
#X obj 111 188 inlet;
#X obj 151 188 inlet;
#X obj 65 60 spigot;
#X obj 104 20 inlet;
#X obj 25 0 r \$0-gemhead;
#X obj 63 114 colorRGB 1 1 1;
#X connect 0 0 1 0;
#X connect 2 0 3 0;
#X connect 2 0 4 0;
#X connect 3 0 1 0;
#X connect 4 0 1 0;
#X connect 5 0 0 0;
#X connect 6 0 1 1;
#X connect 7 0 1 2;
#X connect 8 0 11 0;
#X connect 9 0 8 1;
#X connect 10 0 8 0;
#X connect 11 0 5 0;
#X restore -52 513 pd curve;
#N canvas 241 160 450 300 curve 0;
#X obj 63 165 separator;
#X obj 63 216 curve 2;
#X obj -29 136 loadbang;
#X msg -29 164 draw point;
#X msg -55 194 res 15;
#X obj 63 140 alpha;
#X obj 111 188 inlet;
#X obj 151 188 inlet;
#X obj 10 85 spigot;
#X obj 49 45 inlet;
#X obj -30 25 r \$0-gemhead;
#X obj 63 115 colorRGB 1 1 1;
#X connect 0 0 1 0;
#X connect 2 0 3 0;
#X connect 2 0 4 0;
#X connect 3 0 1 0;
#X connect 4 0 1 0;
#X connect 5 0 0 0;
#X connect 6 0 1 1;
#X connect 7 0 1 2;
#X connect 8 0 11 0;
#X connect 9 0 8 1;
#X connect 10 0 8 0;
#X connect 11 0 5 0;
#X restore 63 495 pd curve;
#N canvas 241 160 450 300 curve 0;
#X obj 63 165 separator;
#X obj 63 216 curve 2;
#X obj -29 136 loadbang;
#X msg -29 164 draw point;
#X msg -55 194 res 15;
#X obj 63 140 alpha;
#X obj 111 188 inlet;
#X obj 151 188 inlet;
#X obj 75 70 spigot;
#X obj 91 38 inlet;
#X obj 35 10 r \$0-gemhead;
#X obj 63 114 colorRGB 1 1 1;
#X connect 0 0 1 0;
#X connect 2 0 3 0;
#X connect 2 0 4 0;
#X connect 3 0 1 0;
#X connect 4 0 1 0;
#X connect 5 0 0 0;
#X connect 6 0 1 1;
#X connect 7 0 1 2;
#X connect 8 0 11 0;
#X connect 9 0 8 1;
#X connect 10 0 8 0;
#X connect 11 0 5 0;
#X restore 23 546 pd curve;
#X obj 104 199 t b b b;
#X obj 126 252 del 0;
#X obj 152 227 del 0;
#X obj 216 193 / 3;
#X obj 216 216 * 2;
#X obj 251 194 / 3;
#X obj 237 84 t f f;
#N canvas 916 315 450 300 curve 0;
#X obj 63 165 separator;
#X obj -29 136 loadbang;
#X obj 63 140 alpha;
#X obj 111 188 inlet;
#X obj 151 188 inlet;
#X msg -30 163 draw fill;
#X obj 198 187 inlet;
#X msg -3 97 auto 1;
#X obj 66 242 polygon 3;
#X obj 28 62 spigot;
#X obj 67 22 inlet;
#X obj -12 2 r \$0-gemhead;
#X obj 63 113 colorRGB 0.2 0.2 0.9 0.6;
#X connect 0 0 8 0;
#X connect 1 0 5 0;
#X connect 1 0 7 0;
#X connect 2 0 0 0;
#X connect 3 0 8 1;
#X connect 4 0 8 2;
#X connect 5 0 8 0;
#X connect 6 0 8 3;
#X connect 7 0 2 0;
#X connect 9 0 12 0;
#X connect 10 0 9 1;
#X connect 11 0 9 0;
#X connect 12 0 2 0;
#X restore 106 533 pd curve;
#X obj 7 65 r sphere-signal;
#X obj -53 379 t f f;
#X msg 104 65 150;
#X connect 0 0 3 0;
#X connect 0 0 33 0;
#X connect 1 0 16 0;
#X connect 2 0 34 0;
#X connect 3 0 24 0;
#X connect 4 0 19 0;
#X connect 5 0 6 1;
#X connect 6 0 7 0;
#X connect 7 0 3 1;
#X connect 7 0 27 0;
#X connect 7 0 29 0;
#X connect 8 0 21 1;
#X connect 8 0 23 1;
#X connect 8 0 31 1;
#X connect 9 0 21 2;
#X connect 9 0 22 1;
#X connect 9 0 31 2;
#X connect 10 0 22 2;
#X connect 10 0 23 2;
#X connect 10 0 31 3;
#X connect 11 0 1 0;
#X connect 11 0 8 1;
#X connect 12 0 17 0;
#X connect 12 0 9 1;
#X connect 13 0 18 0;
#X connect 13 0 10 1;
#X connect 14 0 13 1;
#X connect 15 0 12 1;
#X connect 16 0 11 1;
#X connect 17 0 15 0;
#X connect 18 0 14 0;
#X connect 19 0 30 0;
#X connect 19 1 20 0;
#X connect 20 0 8 2;
#X connect 20 0 9 2;
#X connect 20 0 10 2;
#X connect 24 0 11 0;
#X connect 24 0 8 3;
#X connect 24 1 25 0;
#X connect 24 2 26 0;
#X connect 25 0 13 0;
#X connect 25 0 10 3;
#X connect 26 0 12 0;
#X connect 26 0 9 3;
#X connect 27 0 28 0;
#X connect 28 0 26 1;
#X connect 29 0 25 1;
#X connect 30 0 6 0;
#X connect 30 1 5 0;
#X connect 33 0 21 0;
#X connect 33 0 23 0;
#X connect 33 0 22 0;
#X connect 33 0 31 0;
#X connect 33 1 8 0;
#X connect 33 1 9 0;
#X connect 33 1 10 0;
#X connect 34 0 4 0;
#X coords 0 -1 1 1 55 25 2 100 100;
#X restore 70 24 pd control;
#X obj -33 294 s sphere-go;
#X obj -70 -13 r \$0-two;
#X obj -133 21 r \$0-one;
#X obj -127 220 k_spring 0.4;
#X obj -102 260 k_spring 0.4;
#X msg 275 338 2;
#N canvas 574 102 866 798 (subpatch) 1;
#X obj 3 0 hsl 100 15 0.04 1 0 0 empty empty face=0.04 5 7 0 10 -262144
-1 -1 0 1;
#X obj 109 0 tgl 14 0 empty show-tgl2 sel 0 -6 0 10 -1 -1 -262144 0
1;
#X floatatom 126 103 5 0 0 0 - - -;
#X obj 126 152 s \$0-face;
#X obj 29 154 s toudp;
#X obj 29 128 packOSC;
#X msg 29 99 send /s-a5 \$1;
#X floatatom 0 -34 5 0 0 0 - - -;
#X msg -151 130 label face=\$1;
#X obj 0 28 t f f;
#X obj -151 101 expr (int($f1*100))/100;
#X obj 0 -114 r sphere-signal;
#X obj 0 -89 sel 1;
#X obj 120 -129 r reset-sphere;
#X msg 120 -105 0;
#X obj 216 -87 sel 1;
#X obj 216 -60 tgl 15 0 empty empty empty 17 7 0 10 -262144 -1 -1 0
1;
#X obj 222 -203 r \$0-gemkey;
#X obj 222 -180 t a a;
#X obj 216 -135 spigot;
#X obj 249 -157 route key_226;
#X obj 216 -111 route key_16;
#X obj 155 -22 spigot;
#X floatatom 155 1 5 0 0 0 - - -;
#X obj -21 -451 r mouseright;
#X obj -21 -429 sel 0;
#X obj 80 -433 v forcey;
#X obj -2 -355 v forcex;
#X floatatom -2 -185 5 0 0 0 - - -;
#X obj -21 -407 t b b b;
#X obj -2 -245 spigot;
#X obj 25 -265 tgl 15 0 empty empty empty 17 7 0 10 -262144 -1 -1 0
1;
#X obj -2 -309 t f f;
#X floatatom -2 -219 5 0 0 0 - - -;
#X obj 84 -330 spigot;
#X obj 117 -347 tgl 15 0 empty empty empty 17 7 0 10 -262144 -1 -1
1 1;
#X obj 80 -391 t f f;
#X floatatom 84 -308 5 0 0 0 - - -;
#X obj 117 -368 expr if(abs($f1)>0.01 \, 1 \, 0);
#X obj 25 -287 expr if(abs($f1)>0.01 \, 1 \, 0);
#X obj 292 -31 sel 0 1;
#X msg 324 -9 13;
#X msg 292 -8 22;
#X msg 292 19 \; show-tgl2 color \$1;
#X obj 220 77 s \$0-c-face;
#X obj -2 -333 / 4;
#X obj 80 -411 / 2;
#X obj 126 76 k_spring 0.6;
#X obj 324 -54 s data-info;
#X msg 324 -80 1;
#X msg 0 -68 0.04;
#X connect 0 0 9 0;
#X connect 2 0 3 0;
#X connect 5 0 4 0;
#X connect 6 0 5 0;
#X connect 7 0 0 0;
#X connect 8 0 0 0;
#X connect 9 0 10 0;
#X connect 9 1 6 0;
#X connect 9 1 47 0;
#X connect 10 0 8 0;
#X connect 11 0 12 0;
#X connect 12 0 50 0;
#X connect 13 0 14 0;
#X connect 14 0 16 0;
#X connect 15 0 16 0;
#X connect 15 0 49 0;
#X connect 16 0 22 1;
#X connect 16 0 40 0;
#X connect 16 0 44 0;
#X connect 17 0 18 0;
#X connect 18 0 19 0;
#X connect 18 1 20 0;
#X connect 19 0 21 0;
#X connect 20 0 19 1;
#X connect 21 0 15 0;
#X connect 22 0 23 0;
#X connect 23 0 0 0;
#X connect 24 0 25 0;
#X connect 25 0 29 0;
#X connect 26 0 46 0;
#X connect 27 0 45 0;
#X connect 28 0 22 0;
#X connect 29 1 27 0;
#X connect 29 2 26 0;
#X connect 30 0 33 0;
#X connect 31 0 30 1;
#X connect 32 0 30 0;
#X connect 32 1 39 0;
#X connect 33 0 28 0;
#X connect 34 0 37 0;
#X connect 35 0 34 1;
#X connect 36 0 34 0;
#X connect 36 1 38 0;
#X connect 37 0 28 0;
#X connect 38 0 35 0;
#X connect 39 0 31 0;
#X connect 40 0 42 0;
#X connect 40 1 41 0;
#X connect 41 0 43 0;
#X connect 42 0 43 0;
#X connect 45 0 32 0;
#X connect 46 0 36 0;
#X connect 47 0 2 0;
#X connect 49 0 48 0;
#X connect 50 0 7 0;
#X coords 0 1 100 -1 130 15 1 0 0;
#X restore 5 147 graph;
#X obj -115 -64 r sphere-signal;
#X obj -115 -39 sel 1;
#X obj -152 241 metro 50;
#X obj -232 52 r sphere-signal;
#X obj -265 182 spigot;
#X obj -232 155 pipe 1000;
#X msg -232 127 1;
#X obj -232 77 sel 1 0;
#X msg -213 102 0;
#X msg -115 -17 1;
#X connect 1 0 23 0;
#X connect 1 0 47 0;
#X connect 2 0 20 0;
#X connect 2 0 48 0;
#X connect 3 0 10 0;
#X connect 4 0 55 0;
#X connect 6 0 0 0;
#X connect 7 0 6 0;
#X connect 8 0 37 0;
#X connect 10 0 36 0;
#X connect 11 0 36 3;
#X connect 12 0 15 0;
#X connect 15 0 17 0;
#X connect 15 1 16 0;
#X connect 16 0 13 0;
#X connect 17 0 13 0;
#X connect 19 0 18 0;
#X connect 20 0 19 0;
#X connect 22 0 21 0;
#X connect 23 0 22 0;
#X connect 24 0 37 1;
#X connect 25 0 4 0;
#X connect 35 0 49 0;
#X connect 36 0 10 1;
#X connect 37 0 25 0;
#X connect 38 0 42 0;
#X connect 39 0 38 1;
#X connect 40 0 38 0;
#X connect 41 0 39 0;
#X connect 45 0 1 0;
#X connect 46 0 2 0;
#X connect 47 0 36 1;
#X connect 47 1 44 0;
#X connect 48 0 36 2;
#X connect 48 1 44 0;
#X connect 49 0 7 0;
#X connect 51 0 52 0;
#X connect 52 0 60 0;
#X connect 53 0 3 0;
#X connect 54 0 58 0;
#X connect 55 0 53 0;
#X connect 56 0 55 1;
#X connect 57 0 56 0;
#X connect 58 0 57 0;
#X connect 58 1 59 0;
#X connect 59 0 55 1;
#X connect 60 0 1 0;
#X connect 60 0 2 0;
#X coords 0 -1 1 1 140 200 1 0 0;
