#N canvas 264 323 825 458 10;
#X obj 101 119 cnv 15 118 100 empty empty empty 20 12 0 14 -160200
-66577 0;
#N canvas 759 196 564 589 end 0;
#X obj 24 352 deg2rad;
#X obj 305 333 * 360;
#X obj 305 354 deg2rad;
#X obj 24 327 * 360;
#X obj 191 23 inlet;
#X obj 191 79 f 1;
#X obj 191 99 +;
#X obj 305 230 t b f f;
#X obj 305 381 +;
#X obj 180 193 t b f f;
#X obj 24 422 +;
#X obj 191 147 t f f f;
#X obj 293 127 sel 0 1;
#X msg 293 156 1;
#X obj 24 273 randomF 0.2;
#X obj 305 258 randomF 0.2;
#X obj 24 377 * 2;
#X msg 312 184 -1;
#X obj 24 300 * 0;
#X obj 305 301 * 0;
#X obj 293 100 tabread \$0-dir;
#X obj 375 332 tabread \$0-phi_start;
#X obj 305 413 tabwrite \$0-phi_end;
#X obj 24 454 tabwrite \$0-theta_end;
#X obj 39 400 tabread \$0-theta_start;
#X obj 191 55 repeat 50;
#X obj 191 127 % 50;
#X obj 241 22 r \$0-size;
#X connect 0 0 16 0;
#X connect 1 0 2 0;
#X connect 2 0 8 0;
#X connect 3 0 0 0;
#X connect 4 0 25 0;
#X connect 5 0 6 0;
#X connect 6 0 26 0;
#X connect 7 0 15 0;
#X connect 7 1 22 1;
#X connect 7 2 21 0;
#X connect 8 0 22 0;
#X connect 9 0 14 0;
#X connect 9 1 23 1;
#X connect 9 2 24 0;
#X connect 10 0 23 0;
#X connect 11 0 9 0;
#X connect 11 1 7 0;
#X connect 11 2 20 0;
#X connect 12 0 13 0;
#X connect 12 1 17 0;
#X connect 13 0 18 1;
#X connect 13 0 19 1;
#X connect 14 0 18 0;
#X connect 15 0 19 0;
#X connect 16 0 10 0;
#X connect 17 0 18 1;
#X connect 17 0 19 1;
#X connect 18 0 3 0;
#X connect 19 0 1 0;
#X connect 20 0 12 0;
#X connect 21 0 8 1;
#X connect 24 0 10 1;
#X connect 25 0 5 0;
#X connect 26 0 6 1;
#X connect 26 0 11 0;
#X connect 27 0 25 1;
#X connect 27 0 26 1;
#X restore 430 229 pd end;
#X obj 411 197 t b b b;
#N canvas 416 313 355 347 copy_end 0;
#X obj 79 37 inlet;
#X obj 79 90 f 1;
#X obj 79 110 +;
#X obj 106 189 t f f f;
#X obj 79 164 t f f;
#X obj 40 242 t f f f;
#X obj 125 217 tabread \$0-theta_end;
#X obj 125 242 tabwrite \$0-theta_start;
#X obj 59 286 tabread \$0-phi_end;
#X obj 59 308 tabwrite \$0-phi_start;
#X obj 79 65 repeat 50;
#X obj 79 138 % 50;
#X obj 130 36 r \$0-size;
#X connect 0 0 10 0;
#X connect 1 0 2 0;
#X connect 2 0 11 0;
#X connect 3 1 6 0;
#X connect 3 2 7 1;
#X connect 4 0 5 0;
#X connect 4 1 3 0;
#X connect 5 1 8 0;
#X connect 5 2 9 1;
#X connect 6 0 7 0;
#X connect 8 0 9 0;
#X connect 10 0 1 0;
#X connect 11 0 2 1;
#X connect 11 0 4 0;
#X connect 12 0 10 1;
#X connect 12 0 11 1;
#X restore 450 254 pd copy_end;
#X obj 350 254 tgl 30 0 empty empty G 10 15 0 15 -191407 -1 -1 1 1
;
#X obj 204 36 loadbang;
#X obj 110 181 hsl 80 15 0.05 0.4 0 0 empty empty face 5 7 0 10 -262144
-1 -1 6409 1;
#X obj 110 163 hsl 80 15 0 5 0 0 empty empty length 5 6 0 10 -262144
-1 -1 3073 1;
#X obj 558 7 table \$0-theta_start 200;
#X obj 558 27 table \$0-theta_end 200;
#X obj 558 46 table \$0-phi_start 200;
#X obj 558 68 table \$0-phi_end 200;
#X obj 558 89 table \$0-phi_motion 200;
#X obj 558 107 table \$0-theta_motion 200;
#N canvas 349 292 517 470 (subpatch) 0;
#X obj 0 39 s \$0-size;
#X obj 3 0 hsl 80 15 2 50 0 0 empty empty N=17 8 8 0 10 -262144 -1
-1 2631 1;
#X obj 0 19 int;
#X obj -43 74 outlet;
#X msg 96 54 label N=\$1;
#X obj 86 -87 f;
#X obj 0 -271 r mouseleft3;
#X obj 1 -188 sel 1;
#X obj 94 -189 sel 1;
#X obj 94 -268 r mouseright3;
#X obj 1 -163 t b b;
#X msg 131 -114 1;
#X msg 164 -115 -1;
#X obj 94 -166 t b b;
#X floatatom 0 -34 5 0 0 0 - - -;
#X obj 116 -87 + 1;
#X obj 94 -212 spigot;
#X obj 0 -214 spigot;
#X obj 127 -245 r \$0-show;
#X obj 33 -247 r \$0-show;
#X msg 0 -71 2;
#X obj 0 -121 r \$0-show;
#X obj 0 -97 sel 1;
#X obj 62 -36 r \$0-m-b-num;
#X obj 185 -14 t f f;
#X obj 188 19 -;
#X floatatom 190 45 5 0 0 0 - - -;
#X obj 189 73 > 0;
#X obj 185 109 s toclicksound;
#X connect 1 0 2 0;
#X connect 1 0 5 1;
#X connect 1 0 3 0;
#X connect 2 0 0 0;
#X connect 2 0 4 0;
#X connect 2 0 24 0;
#X connect 4 0 1 0;
#X connect 5 0 15 0;
#X connect 6 0 17 0;
#X connect 7 0 10 0;
#X connect 8 0 13 0;
#X connect 9 0 16 0;
#X connect 10 0 5 0;
#X connect 10 1 11 0;
#X connect 11 0 15 1;
#X connect 12 0 15 1;
#X connect 13 0 5 0;
#X connect 13 1 12 0;
#X connect 14 0 1 0;
#X connect 15 0 14 0;
#X connect 16 0 8 0;
#X connect 17 0 7 0;
#X connect 18 0 16 1;
#X connect 19 0 17 1;
#X connect 20 0 14 0;
#X connect 20 0 5 1;
#X connect 21 0 22 0;
#X connect 22 0 20 0;
#X connect 23 0 14 0;
#X connect 24 0 25 1;
#X connect 24 1 25 0;
#X connect 25 0 26 0;
#X connect 26 0 27 0;
#X connect 27 0 28 0;
#X coords 0 1 100 -1 85 15 1 0 0;
#X restore 106 122 graph;
#X obj 110 143 hsl 80 15 0.001 8 0 0 empty empty radius 5 6 0 10 -262144
-1 -1 3627 1;
#X msg 204 59 0;
#X obj 560 128 table \$0-kk 200;
#X obj 560 150 table \$0-dir 200;
#X floatatom 52 192 5 0 0 0 - - -;
#X floatatom 52 211 5 0 0 0 - - -;
#X floatatom 52 230 5 0 0 0 - - -;
#X obj 196 122 tgl 20 0 empty empty H 6 10 0 14 -258113 -1 -1 1 1;
#X obj 258 108 s \$0-show;
#X obj 411 277 s \$0-start;
#X obj 412 124 r \$0-go;
#X obj 412 152 tgl 15 0 empty empty empty 17 7 0 10 -262144 -1 -1 1
1;
#X obj 350 291 s \$0-go;
#N canvas 503 149 921 630 loadbang 0;
#X obj 45 491 deg2rad;
#X obj 168 359 deg2rad;
#X obj 119 197 f 1;
#X obj 119 217 +;
#X obj 119 266 t f f;
#X obj 168 246 t b f f;
#X obj 45 380 t b f f;
#X obj 100 74 loadbang;
#X obj 100 100 bng 20 250 50 0 empty empty empty 0 30 0 10 -262144
-1 -162280;
#X obj 168 284 randomF 0.1;
#X obj 45 407 randomF 0.1;
#X obj 341 520 deg2rad;
#X obj 391 374 * 360;
#X obj 391 395 deg2rad;
#X obj 341 492 * 360;
#X obj 341 179 f 1;
#X obj 341 199 +;
#X obj 341 248 t f f;
#X obj 391 296 t b f f;
#X obj 341 409 t b f f;
#X obj 341 133 bng 15 250 50 0 empty empty empty 17 7 0 10 -262144
-1 -1;
#X obj 391 325 f 0;
#X obj 341 436 f 0;
#X obj 45 433 + 0;
#X obj 168 313 + 0;
#X obj 100 139 t b b b;
#X obj 168 338 * 360;
#X obj 45 462 * 360;
#X obj 45 516 * 2;
#X obj 493 194 f 1;
#X obj 493 214 +;
#X obj 493 146 bng 15 250 50 0 empty empty empty 17 7 0 10 -262144
-1 -1;
#X obj 493 263 t b f;
#X obj 493 121 loadbang;
#X obj 60 314 randomF 0.5;
#X obj 487 297 random 2;
#X obj 45 540 tabwrite \$0-theta_end;
#X obj 168 384 tabwrite \$0-phi_end;
#X obj 341 545 tabwrite \$0-theta_end;
#X obj 391 418 tabwrite \$0-phi_end;
#X obj 486 354 tabwrite \$0-dir;
#X obj 600 433 f 1;
#X obj 600 453 +;
#X obj 600 385 bng 15 250 50 0 empty empty empty 17 7 0 10 -262144
-1 -1;
#X obj 600 502 t b f;
#X obj 600 533 randomF 4;
#X obj 594 593 tabwrite \$0-kk;
#X obj 600 555 + 0.1;
#X obj 598 356 loadbang;
#X obj 493 170 repeat 50;
#X obj 600 409 repeat 50;
#X obj 600 481 % 50;
#X obj 493 242 % 50;
#X obj 341 155 repeat 50;
#X obj 341 227 % 50;
#X obj 119 173 repeat 50;
#X obj 119 244 % 50;
#X obj 170 148 r \$0-size;
#X obj 392 122 r \$0-size;
#X obj 560 172 r \$0-size;
#X obj 667 409 r \$0-size;
#X obj 163 73 inlet;
#X connect 0 0 28 0;
#X connect 1 0 37 0;
#X connect 2 0 3 0;
#X connect 3 0 56 0;
#X connect 4 0 6 0;
#X connect 4 1 5 0;
#X connect 5 0 9 0;
#X connect 5 1 37 1;
#X connect 6 0 10 0;
#X connect 6 1 36 1;
#X connect 7 0 8 0;
#X connect 8 0 25 0;
#X connect 9 0 24 0;
#X connect 10 0 23 0;
#X connect 11 0 38 0;
#X connect 12 0 13 0;
#X connect 13 0 39 0;
#X connect 14 0 11 0;
#X connect 15 0 16 0;
#X connect 16 0 54 0;
#X connect 17 0 19 0;
#X connect 17 1 18 0;
#X connect 18 0 21 0;
#X connect 18 1 39 1;
#X connect 19 0 22 0;
#X connect 19 1 38 1;
#X connect 20 0 53 0;
#X connect 21 0 12 0;
#X connect 22 0 14 0;
#X connect 23 0 27 0;
#X connect 24 0 26 0;
#X connect 25 1 55 0;
#X connect 25 2 34 0;
#X connect 26 0 1 0;
#X connect 27 0 0 0;
#X connect 28 0 36 0;
#X connect 29 0 30 0;
#X connect 30 0 52 0;
#X connect 31 0 49 0;
#X connect 32 0 35 0;
#X connect 32 1 40 1;
#X connect 33 0 31 0;
#X connect 34 0 23 1;
#X connect 34 0 24 1;
#X connect 35 0 40 0;
#X connect 41 0 42 0;
#X connect 42 0 51 0;
#X connect 43 0 50 0;
#X connect 44 0 45 0;
#X connect 44 1 46 1;
#X connect 45 0 47 0;
#X connect 47 0 46 0;
#X connect 48 0 43 0;
#X connect 49 0 29 0;
#X connect 50 0 41 0;
#X connect 51 0 42 1;
#X connect 51 0 44 0;
#X connect 52 0 30 1;
#X connect 52 0 32 0;
#X connect 53 0 15 0;
#X connect 54 0 16 1;
#X connect 54 0 17 0;
#X connect 55 0 2 0;
#X connect 56 0 3 1;
#X connect 56 0 4 0;
#X connect 57 0 55 1;
#X connect 57 0 56 1;
#X connect 58 0 53 1;
#X connect 58 0 54 1;
#X connect 59 0 49 1;
#X connect 59 0 52 1;
#X connect 60 0 50 1;
#X connect 60 0 51 1;
#X connect 61 0 8 0;
#X coords 0 -1 1 1 20 20 2 100 100;
#X restore 196 197 pd loadbang;
#N canvas 667 150 685 601 motion==================== 1;
#X obj 53 48 f 1;
#X obj 80 48 +;
#X obj 26 123 separator;
#N canvas 105 194 584 559 pos_1 0;
#X obj 107 -10 inlet;
#X obj 104 342 expr cos($f1);
#X obj 78 290 expr sin($f1)*sin($f2);
#X obj 48 314 expr sin($f1)*cos($f2);
#X obj 47 393 pack f f f;
#X obj 47 420 outlet;
#X obj 107 202 t f f f f;
#X obj 369 354 expr -1*sin($f1);
#X obj 397 328 expr 1*cos($f1);
#X obj 292 412 rad2deg;
#X obj 190 265 t f f f f;
#X obj 292 437 outlet;
#X obj 369 442 outlet;
#X obj 369 415 pack f f 0;
#X obj 104 367 * 2;
#X obj 78 347 * 2;
#X obj 48 347 * 2;
#X obj 107 173 tabread \$0-theta_motion;
#X obj 190 241 tabread \$0-phi_motion;
#X obj 188 346 r \$0-radius;
#X obj 107 116 t f f f;
#X connect 0 0 20 0;
#X connect 1 0 14 0;
#X connect 2 0 15 0;
#X connect 3 0 16 0;
#X connect 4 0 5 0;
#X connect 6 0 3 0;
#X connect 6 1 2 0;
#X connect 6 2 1 0;
#X connect 6 3 9 0;
#X connect 7 0 13 0;
#X connect 8 0 13 1;
#X connect 9 0 11 0;
#X connect 10 0 3 1;
#X connect 10 1 2 1;
#X connect 10 2 7 0;
#X connect 10 3 8 0;
#X connect 13 0 12 0;
#X connect 14 0 4 2;
#X connect 15 0 4 1;
#X connect 16 0 4 0;
#X connect 17 0 6 0;
#X connect 18 0 10 0;
#X connect 19 0 14 1;
#X connect 19 0 15 1;
#X connect 19 0 16 1;
#X connect 20 0 17 0;
#X connect 20 1 18 0;
#X restore 109 106 pd pos_1;
#X obj 181 33 r \$0-size;
#X floatatom 77 251 5 0 0 0 - - -;
#X obj 26 206 rotate 0 0 0 0;
#X obj 49 156 unpack f f f;
#X obj 26 180 translateXYZ;
#N canvas 120 95 919 673 line 0;
#X obj 285 129 inlet;
#X obj 327 356 cube 0.1;
#X obj 327 269 translateXYZ 0 0 0.4;
#X obj 429 239 / 10;
#X obj 339 42 inlet;
#X obj 429 115 tabread \$0-kk;
#X obj 429 173 * 1;
#X floatatom 429 196 5 0 0 0 - - -;
#X obj 327 297 separator;
#X obj 444 142 r \$0-length;
#X obj 12 290 separator;
#X obj 12 408 translateXYZ 0 0 0.4;
#X obj 129 384 * 2;
#X obj 327 326 scaleXYZ 0.1 0.1 5;
#X obj 78 109 inlet;
#X obj 327 198 separator;
#X obj 429 218 t f f;
#X obj -72 363 loadbang;
#N canvas 24 328 865 423 color 0;
#X obj 37 233 loadbang;
#X msg 37 257 auto 1;
#X obj 95 308 alpha;
#X obj 308 111 r \$0-show;
#X obj 308 135 sel 0 1;
#X msg 308 181 0;
#X obj 308 228 line;
#X obj 136 234 unpack f f f;
#X msg 122 285 1;
#X floatatom 308 252 5 0 0 0 - - -;
#X obj 95 228 inlet;
#X obj 95 341 outlet;
#X obj 136 126 sel 0;
#X obj 136 97 inlet;
#X obj 200 99 sel 0 1;
#X msg 219 167 0.4 0.4 0.4;
#X msg 200 132 0.4 0 0;
#X msg 136 189 0 0 0.4;
#X obj 95 264 colorRGB 0.4 0.4 0.4 0.7;
#X msg 327 159 0.7;
#X obj 407 72 sel 1;
#X obj 436 95 + 1;
#X obj 464 95 % 2;
#X obj 404 151 sel 0 1;
#X obj 200 74 expr if($f1%$f2==$f3 \, 0 \, 1);
#X obj 277 32 unpack f f;
#X msg 396 204 4 3;
#X floatatom 453 232 5 0 0 0 - - -;
#X msg 423 187 1 0;
#X obj 333 -17 loadbang;
#X obj 445 257 s \$0-tbang;
#X msg 308 208 \$1 10000;
#X obj 408 94 f 1;
#X obj 408 121 tgl 15 0 empty empty empty 17 7 0 10 -262144 -1 -1 0
1;
#X obj 521 -14 r hid;
#X obj 521 36 t a a;
#X obj 515 81 spigot;
#X obj 548 59 route key_226;
#X obj 521 12 spigot;
#X obj 570 11 r \$0-go;
#X obj 515 106 route key_25;
#X obj 470 135 r \$0-2color;
#X connect 0 0 1 0;
#X connect 0 0 8 0;
#X connect 1 0 2 0;
#X connect 2 0 11 0;
#X connect 3 0 4 0;
#X connect 4 0 5 0;
#X connect 4 1 19 0;
#X connect 5 0 31 0;
#X connect 6 0 9 0;
#X connect 7 0 18 1;
#X connect 7 1 18 2;
#X connect 7 2 18 3;
#X connect 8 0 2 1;
#X connect 9 0 18 4;
#X connect 10 0 18 0;
#X connect 12 0 17 0;
#X connect 12 1 24 0;
#X connect 13 0 12 0;
#X connect 14 0 16 0;
#X connect 14 1 15 0;
#X connect 15 0 7 0;
#X connect 16 0 7 0;
#X connect 17 0 7 0;
#X connect 18 0 2 0;
#X connect 19 0 31 0;
#X connect 20 0 32 0;
#X connect 21 0 22 0;
#X connect 22 0 32 1;
#X connect 23 0 26 0;
#X connect 23 1 28 0;
#X connect 24 0 14 0;
#X connect 25 0 24 1;
#X connect 25 1 24 2;
#X connect 26 0 25 0;
#X connect 27 0 30 0;
#X connect 28 0 25 0;
#X connect 29 0 26 0;
#X connect 31 0 6 0;
#X connect 32 0 21 0;
#X connect 32 0 33 0;
#X connect 33 0 23 0;
#X connect 33 0 27 0;
#X connect 34 0 38 0;
#X connect 35 0 36 0;
#X connect 35 1 37 0;
#X connect 36 0 40 0;
#X connect 37 0 36 1;
#X connect 38 0 35 0;
#X connect 39 0 38 1;
#X connect 40 0 20 0;
#X connect 41 0 33 0;
#X restore 12 323 pd color;
#N canvas 0 22 481 313 color 0;
#X obj 9 171 loadbang;
#X msg 9 195 auto 1;
#X obj 67 246 alpha;
#X obj 335 70 r \$0-show;
#X obj 335 94 sel 0 1;
#X msg 335 140 0;
#X obj 335 187 line;
#X obj 127 137 unpack f f f;
#X msg 127 93 0.2 0.4 1;
#X obj 127 46 r \$0-data;
#X msg 106 247 1;
#X obj 127 68 sel 1 4;
#X floatatom 269 194 5 0 0 0 - - -;
#X obj 237 195 *;
#X obj 236 144 randomF 0.5;
#X obj 67 202 colorRGB 0.5 0.5 0.5;
#X msg 148 115 0.9 0.9 0.9;
#X obj 50 54 inlet;
#X obj 57 97 t a b;
#X obj 67 279 outlet;
#X msg 354 117 0.7;
#X obj 237 171 + 0.4;
#X msg 335 167 \$1 10000;
#X connect 0 0 1 0;
#X connect 0 0 10 0;
#X connect 1 0 2 0;
#X connect 2 0 19 0;
#X connect 3 0 4 0;
#X connect 4 0 5 0;
#X connect 4 1 20 0;
#X connect 5 0 22 0;
#X connect 6 0 12 0;
#X connect 7 0 15 1;
#X connect 7 1 15 2;
#X connect 7 2 15 3;
#X connect 8 0 7 0;
#X connect 9 0 11 0;
#X connect 10 0 2 1;
#X connect 11 0 8 0;
#X connect 11 1 16 0;
#X connect 12 0 13 1;
#X connect 13 0 15 4;
#X connect 14 0 21 0;
#X connect 15 0 2 0;
#X connect 16 0 7 0;
#X connect 17 0 18 0;
#X connect 18 0 15 0;
#X connect 18 1 14 0;
#X connect 20 0 22 0;
#X connect 21 0 13 0;
#X connect 22 0 6 0;
#X restore 327 226 pd color;
#X obj 45 155 sel 15;
#X msg -72 391 draw point;
#X obj 211 485 separator;
#X obj 210 601 translateXYZ 0 0 0.4;
#X obj 211 458 spigot;
#X obj 385 464 r \$0-target;
#X obj 385 537 line;
#X obj 385 488 sel 0;
#X obj 385 560 outelastic;
#X obj 12 378 GEMglPointSize 3;
#X obj 12 432 circle 0.1;
#X text 8 186 click;
#X obj 45 184 t b b b b;
#X text 137 163 else;
#X obj 111 184 t b f f f;
#X msg 45 213 0.2;
#X msg 111 213 0.1;
#X msg 128 238 2;
#X msg 62 236 6;
#X obj 244 429 == 0;
#X obj 211 400 separator;
#X obj 152 497 loadbang;
#X msg 152 521 auto 1;
#X obj 210 572 alpha;
#X msg 237 549 1;
#X obj 211 514 colorRGB 0.1 0.7 0.9 1;
#X obj 327 577 * 2;
#X obj 385 583 * 1;
#X obj 385 607 expr 1-$f1;
#X msg 385 512 0 \, 1 700;
#X obj 210 627 circle 0.4;
#X obj 285 162 t a a a a;
#X obj 339 68 t f f f f f;
#X connect 0 0 51 0;
#X connect 2 0 8 0;
#X connect 3 0 2 3;
#X connect 3 0 12 0;
#X connect 3 0 46 0;
#X connect 4 0 52 0;
#X connect 5 0 6 0;
#X connect 6 0 7 0;
#X connect 7 0 16 0;
#X connect 8 0 13 0;
#X connect 9 0 6 1;
#X connect 10 0 18 0;
#X connect 11 0 30 0;
#X connect 12 0 11 3;
#X connect 13 0 1 0;
#X connect 14 0 20 1;
#X connect 15 0 19 0;
#X connect 16 0 3 0;
#X connect 16 1 13 3;
#X connect 17 0 21 0;
#X connect 18 0 29 0;
#X connect 19 0 2 0;
#X connect 20 0 32 0;
#X connect 20 1 34 0;
#X connect 21 0 30 0;
#X connect 22 0 45 0;
#X connect 23 0 50 0;
#X connect 24 0 22 0;
#X connect 25 0 27 0;
#X connect 26 0 28 0;
#X connect 27 0 49 0;
#X connect 28 0 47 0;
#X connect 29 0 11 0;
#X connect 32 0 35 0;
#X connect 32 1 38 0;
#X connect 34 0 36 0;
#X connect 34 1 37 0;
#X connect 35 0 30 1;
#X connect 36 0 30 1;
#X connect 37 0 29 1;
#X connect 38 0 29 1;
#X connect 39 0 24 1;
#X connect 40 0 24 0;
#X connect 41 0 42 0;
#X connect 41 0 44 0;
#X connect 42 0 43 0;
#X connect 43 0 23 0;
#X connect 44 0 43 1;
#X connect 45 0 43 0;
#X connect 46 0 23 3;
#X connect 47 0 48 0;
#X connect 48 0 45 4;
#X connect 49 0 26 0;
#X connect 51 0 10 0;
#X connect 51 1 40 0;
#X connect 51 2 15 0;
#X connect 52 0 20 0;
#X connect 52 1 18 1;
#X connect 52 2 5 0;
#X connect 52 3 39 0;
#X restore 91 312 pd line;
#X obj 26 -35 separator;
#X obj 26 24 t a b;
#X obj -234 2 gemhead 3;
#N canvas 338 276 661 399 color 0;
#X obj 99 -28 inlet;
#X obj 155 167 outlet;
#X obj 155 72 separator;
#X msg 73 138 draw fill;
#X obj 73 116 loadbang;
#X obj 155 94 alpha;
#X obj 284 -10 r \$0-show;
#X obj 284 14 sel 0 1;
#X msg 284 42 0;
#X obj 284 90 line;
#X obj 250 162 colorRGB 0 0 0 0;
#X obj 155 115 colorRGB 0 0 0 0;
#X msg 99 49 auto 1;
#X obj 229 -69 unpack f f f;
#X obj 229 -160 r \$0-data;
#X obj 229 -139 sel 0 4;
#X msg 179 -107 0.2 0.4 1;
#X obj 99 -5 t a b;
#N canvas 0 22 537 434 random 0;
#X obj 119 67 inlet;
#X obj 262 87 inlet;
#X obj 159 119 t b b b;
#X obj 158 159 randomF 0.2;
#X obj 182 183 randomF 0.2;
#X obj 207 206 randomF 0.2;
#X obj 154 234 +;
#X obj 180 254 +;
#X obj 210 270 +;
#X obj 302 88 inlet;
#X obj 344 90 inlet;
#X obj 151 305 outlet;
#X obj 178 333 outlet;
#X obj 217 307 outlet;
#X obj 210 55 inlet;
#X obj 184 91 spigot;
#X connect 0 0 15 0;
#X connect 1 0 6 1;
#X connect 2 0 3 0;
#X connect 2 1 4 0;
#X connect 2 2 5 0;
#X connect 3 0 6 0;
#X connect 4 0 7 0;
#X connect 5 0 8 0;
#X connect 6 0 11 0;
#X connect 7 0 12 0;
#X connect 8 0 13 0;
#X connect 9 0 7 1;
#X connect 10 0 8 1;
#X connect 14 0 15 1;
#X connect 15 0 2 0;
#X restore 152 15 pd random;
#X msg 311 44 0.2;
#X msg 143 -108 1;
#X msg 192 -63 0;
#X msg 250 -91 0 0 0;
#X obj 352 -150 r buffercolor;
#X msg 348 -122 set \$1 \$2 \$3;
#X obj 54 139 tgl 15 0 empty empty empty 17 7 0 10 -262144 -1 -1 1
1;
#X msg 284 70 \$1 10000;
#X connect 0 0 17 0;
#X connect 2 0 5 0;
#X connect 3 0 1 0;
#X connect 4 0 3 0;
#X connect 4 0 12 0;
#X connect 4 0 25 0;
#X connect 5 0 11 0;
#X connect 6 0 7 0;
#X connect 7 0 8 0;
#X connect 7 1 19 0;
#X connect 8 0 26 0;
#X connect 9 0 11 4;
#X connect 11 0 1 0;
#X connect 12 0 5 0;
#X connect 13 0 11 1;
#X connect 13 0 18 2;
#X connect 13 1 11 2;
#X connect 13 1 18 3;
#X connect 13 2 11 3;
#X connect 13 2 18 4;
#X connect 14 0 15 0;
#X connect 15 0 16 0;
#X connect 15 0 20 0;
#X connect 15 1 22 0;
#X connect 15 1 21 0;
#X connect 16 0 13 0;
#X connect 17 0 2 0;
#X connect 17 1 18 0;
#X connect 18 0 11 1;
#X connect 18 1 11 2;
#X connect 18 2 11 3;
#X connect 19 0 26 0;
#X connect 20 0 18 1;
#X connect 21 0 18 1;
#X connect 22 0 13 0;
#X connect 23 0 24 0;
#X connect 24 0 22 0;
#X connect 25 0 5 1;
#X connect 26 0 9 0;
#X restore -235 269 pd color;
#X obj -235 223 t a a a;
#N canvas 332 278 452 413 ro-angle 0;
#X obj 107 197 line;
#X obj 176 196 line;
#X obj 244 195 line;
#X obj 55 187 inlet;
#X obj 77 285 outlet;
#X obj 173 45 inlet;
#X obj 217 251 pack f f f;
#X obj 227 283 outlet;
#X obj 72 230 rotateXYZ 0 0 0;
#X obj 107 117 randomF 360;
#X obj 181 117 randomF 360;
#X obj 270 118 randomF 360;
#X obj 106 140 t f b;
#X msg 132 165 9444.45;
#X obj 176 142 t f b;
#X msg 202 167 9444.45;
#X obj 259 142 t f b;
#X msg 285 167 9444.45;
#X obj 368 85 inlet;
#X msg 368 113 set \$1;
#X connect 0 0 6 0;
#X connect 0 0 8 1;
#X connect 1 0 6 1;
#X connect 1 0 8 2;
#X connect 2 0 6 2;
#X connect 2 0 8 3;
#X connect 3 0 8 0;
#X connect 5 0 9 0;
#X connect 5 0 10 0;
#X connect 5 0 11 0;
#X connect 6 0 7 0;
#X connect 8 0 4 0;
#X connect 9 0 12 0;
#X connect 10 0 14 0;
#X connect 11 0 16 0;
#X connect 12 0 0 0;
#X connect 12 1 13 0;
#X connect 13 0 0 1;
#X connect 14 0 1 0;
#X connect 14 1 15 0;
#X connect 15 0 1 1;
#X connect 16 0 2 0;
#X connect 16 1 17 0;
#X connect 17 0 2 1;
#X connect 18 0 19 0;
#X connect 19 0 17 0;
#X connect 19 0 15 0;
#X connect 19 0 13 0;
#X restore 26 -88 pd ro-angle;
#X obj -235 136 rotateXYZ 0 1 0;
#X obj -202 106 unpack f f f;
#X obj -235 197 scale 1;
#X obj -122 106 r \$0-radius;
#X obj -122 130 - 0.01;
#N canvas 724 391 518 338 point 0;
#X obj 155 49 inlet;
#X obj 155 167 outlet;
#X obj 155 94 alpha;
#X obj 155 72 separator;
#X msg 73 138 draw point;
#X obj 73 116 loadbang;
#X obj 218 -33 r \$0-show;
#X obj 218 -9 sel 0 1;
#X msg 218 37 0;
#X obj 260 81 line;
#X obj 154 138 GEMglPointSize 2;
#X msg 83 87 1;
#X obj 155 114 colorRGB 1 1 1 0;
#X msg 237 15 0.4;
#X msg 260 61 \$1 10000;
#X connect 0 0 3 0;
#X connect 2 0 12 0;
#X connect 3 0 2 0;
#X connect 4 0 1 0;
#X connect 5 0 4 0;
#X connect 5 0 11 0;
#X connect 6 0 7 0;
#X connect 7 0 8 0;
#X connect 7 1 13 0;
#X connect 8 0 14 0;
#X connect 9 0 12 4;
#X connect 10 0 1 0;
#X connect 11 0 2 1;
#X connect 12 0 10 0;
#X connect 13 0 14 0;
#X connect 14 0 9 0;
#X restore -149 269 pd point;
#X obj 128 -105 r \$0-go;
#X obj 77 227 r \$0-face;
#X obj -149 300 sphere 1 12;
#X obj -234 -145 sel 0 1;
#X obj -234 -28 v \$0-tgl-gem;
#X obj -157 -78 t b b;
#X msg -130 -58 1;
#X obj -234 -170 r \$0-show;
#X floatatom 144 208 5 0 0 0 - - -;
#N canvas 742 217 642 497 ran-pos 0;
#X obj 72 202 inlet;
#X obj 72 261 outlet;
#X obj 204 263 outlet;
#X obj 72 230 translateXYZ 0 0 0;
#X obj 103 114 unpack f f f;
#X obj 103 60 loadbang;
#X msg 103 87 0 0 0;
#X obj 213 -15 inlet;
#X obj 232 68 t b b b;
#X obj 204 235 pack f f f;
#X obj 213 14 tgl 15 0 empty empty empty 17 7 0 10 -262144 -1 -1 0
1;
#X obj 213 37 sel 0 1;
#X obj 217 117 randomF 2;
#X obj 321 117 randomF 2;
#X obj 450 114 randomF 2;
#X obj 450 138 - 1;
#X obj 319 138 - 1;
#X obj 217 142 - 1;
#X obj 217 169 k_spring 0.3;
#X obj 321 168 k_spring 0.3;
#X obj 448 165 k_spring 0.3;
#X connect 0 0 3 0;
#X connect 3 0 1 0;
#X connect 4 0 18 0;
#X connect 4 1 19 0;
#X connect 4 2 20 0;
#X connect 5 0 6 0;
#X connect 6 0 4 0;
#X connect 7 0 10 0;
#X connect 8 0 12 0;
#X connect 8 1 13 0;
#X connect 8 2 14 0;
#X connect 9 0 2 0;
#X connect 10 0 11 0;
#X connect 11 0 6 0;
#X connect 11 1 8 0;
#X connect 12 0 17 0;
#X connect 13 0 16 0;
#X connect 14 0 15 0;
#X connect 15 0 20 0;
#X connect 16 0 19 0;
#X connect 17 0 18 0;
#X connect 18 0 3 1;
#X connect 18 0 9 0;
#X connect 19 0 3 2;
#X connect 19 0 9 1;
#X connect 20 0 3 3;
#X connect 20 0 9 2;
#X restore 26 -116 pd ran-pos;
#X obj -199 39 unpack f f f;
#X obj -234 66 translateXYZ 0 0 0;
#X obj 128 -79 metro 1000;
#N canvas 264 66 866 751 link======= 0;
#N canvas 433 142 599 613 pos_1 0;
#X obj 107 -10 inlet;
#X obj 104 342 expr cos($f1);
#X obj 78 290 expr sin($f1)*sin($f2);
#X obj 48 314 expr sin($f1)*cos($f2);
#X obj 107 202 t f f f f;
#X obj 190 265 t f f f f;
#X obj 91 423 * 2;
#X obj 62 424 * 2;
#X obj 34 419 * 2;
#X obj 107 173 tabread \$0-theta_motion;
#X obj 190 241 tabread \$0-phi_motion;
#X obj 287 56 r \$0-length;
#X obj 272 36 tabread \$0-kk;
#X obj 272 80 * 1;
#X obj 272 161 + 2;
#X obj 299 130 r \$0-radius;
#X floatatom 299 153 5 0 0 0 - - -;
#X floatatom 272 185 5 0 0 0 - - -;
#X obj 272 105 / 5;
#X obj 34 456 pack f f f;
#X obj 107 116 t f f f f;
#X obj 34 480 s \$0-l-1;
#X connect 0 0 20 0;
#X connect 1 0 6 0;
#X connect 2 0 7 0;
#X connect 3 0 8 0;
#X connect 4 0 3 0;
#X connect 4 1 2 0;
#X connect 4 2 1 0;
#X connect 5 0 3 1;
#X connect 5 1 2 1;
#X connect 6 0 19 2;
#X connect 7 0 19 1;
#X connect 8 0 19 0;
#X connect 9 0 4 0;
#X connect 10 0 5 0;
#X connect 11 0 13 1;
#X connect 12 0 13 0;
#X connect 13 0 18 0;
#X connect 14 0 17 0;
#X connect 15 0 16 0;
#X connect 16 0 14 1;
#X connect 17 0 8 1;
#X connect 17 0 7 1;
#X connect 17 0 6 1;
#X connect 18 0 14 0;
#X connect 19 0 21 0;
#X connect 20 0 9 0;
#X connect 20 1 10 0;
#X connect 20 2 12 0;
#X restore 377 145 pd pos_1;
#X obj 59 277 loadbang;
#X obj 27 143 separator;
#X msg 59 303 draw point;
#X obj 384 -129 r \$0-size;
#X floatatom 342 75 5 0 0 0 - - -;
#X floatatom 384 -104 5 0 0 0 - - -;
#X obj 151 140 separator;
#X obj 27 166 translateXYZ;
#X obj 151 166 translateXYZ;
#X obj 342 48 v target;
#X obj 146 427 curve 2;
#X obj 146 270 separator;
#X obj 391 325 k_line;
#X obj 402 223 line;
#X obj 440 326 k_line;
#X obj 489 326 k_line;
#X obj 336 374 translateXYZ;
#X obj 336 217 separator;
#X obj 458 264 unpack f f f;
#X obj 458 289 unpack f f f;
#X obj 342 24 abs;
#X obj 428 84 + 1;
#X obj 443 34 sel 0 1;
#X obj 377 74 t f f;
#X floatatom 428 104 5 0 0 0 - - -;
#X obj 443 10 tgl 15 0 empty empty empty 17 7 0 10 -262144 -1 -1 0
1;
#X msg 443 57 -1;
#X msg 463 77 1;
#X obj 443 -11 > -1;
#X obj 146 329 alpha;
#X obj 146 301 colorRGB 1 1 1 1;
#X floatatom 239 270 5 0 0 0 - - -;
#X obj 58 -135 inlet;
#X obj 47 87 r \$0-l-1;
#X obj 160 83 r \$0-l-2;
#X obj 47 111 unpack f f f;
#X obj 160 108 unpack f f f;
#X obj 165 355 r \$0-l-1;
#X obj 185 330 r \$0-l-2;
#X obj 458 237 r \$0-l-1;
#X obj 515 236 r \$0-l-2;
#N canvas 252 345 450 300 alpha 0;
#X obj 242 125 k_event 0.8 1;
#X floatatom 82 56 5 0 0 0 - - -;
#X floatatom 82 106 5 0 0 0 - - -;
#X floatatom 242 150 5 0 0 0 - - -;
#X obj 242 171 k_range 0.8 0.99 1 0;
#X floatatom 83 166 5 0 0 0 - - -;
#X obj 82 82 k_event 0 0.3;
#X obj 155 104 k_event 0.3 0.8;
#X obj 82 25 inlet;
#X obj 83 192 outlet;
#X obj 82 132 k_range 0 0.3 0 1;
#X connect 0 0 3 0;
#X connect 1 0 6 0;
#X connect 2 0 10 0;
#X connect 3 0 4 0;
#X connect 4 0 5 0;
#X connect 5 0 9 0;
#X connect 6 0 2 0;
#X connect 6 1 7 0;
#X connect 7 1 0 0;
#X connect 8 0 1 0;
#X connect 10 0 5 0;
#X restore 239 246 pd alpha;
#X obj 94 326 tgl 15 0 empty empty empty 17 7 0 10 -262144 -1 -1 1
1;
#X obj 146 402 GEMglPointSize 3;
#N canvas 0 22 450 300 msg-line 0;
#X obj 192 136 t b b;
#X msg 192 159 0;
#X msg 221 160 0;
#X obj 165 107 t b b;
#X obj 127 135 t b b;
#X msg 153 158 2000;
#X obj 219 76 r \$0-go-speed;
#X msg 219 99 set \$1;
#X msg 127 158 1;
#X obj 170 34 inlet;
#X obj 137 198 outlet;
#X obj 200 197 outlet;
#X connect 0 0 1 0;
#X connect 0 1 2 0;
#X connect 1 0 10 0;
#X connect 2 0 11 0;
#X connect 3 0 4 0;
#X connect 3 1 0 0;
#X connect 4 0 8 0;
#X connect 4 1 5 0;
#X connect 5 0 11 0;
#X connect 6 0 7 0;
#X connect 7 0 5 0;
#X connect 8 0 10 0;
#X connect 9 0 3 0;
#X restore 402 193 pd msg-line;
#X obj 288 -144 metro 2000;
#X obj 345 -170 r \$0-go-speed;
#X obj 58 -107 separator;
#X obj 255 299 r \$0-data;
#X obj 255 321 sel 3 4;
#X msg 275 368 1 1 1;
#X obj 252 395 unpack f f f;
#X msg 255 346 0.2 0.6 0.9;
#N canvas 0 22 450 300 color 0;
#X obj 166 60 inlet;
#X obj 163 247 outlet;
#X obj 211 27 r \$0-data;
#X obj 211 49 sel 3 4;
#X msg 231 96 1 1 1;
#X msg 211 74 0.2 0.6 0.9;
#X obj 301 9 r \$0-show;
#X obj 301 33 sel 0 1;
#X msg 301 61 0;
#X obj 301 109 line;
#X obj 211 126 unpack f f f;
#X obj 163 213 alpha;
#X obj 74 113 loadbang;
#X obj 145 117 tgl 15 0 empty empty empty 17 7 0 10 -262144 -1 -1 1
1;
#X msg 74 139 auto 1;
#X msg 328 63 1;
#X obj 163 184 colorRGB 1 1 1;
#X msg 301 89 \$1 10000;
#X connect 0 0 16 0;
#X connect 2 0 3 0;
#X connect 3 0 5 0;
#X connect 3 1 4 0;
#X connect 4 0 10 0;
#X connect 5 0 10 0;
#X connect 6 0 7 0;
#X connect 7 0 8 0;
#X connect 7 1 15 0;
#X connect 8 0 17 0;
#X connect 9 0 16 4;
#X connect 10 0 16 1;
#X connect 10 1 16 2;
#X connect 10 2 16 3;
#X connect 11 0 1 0;
#X connect 12 0 14 0;
#X connect 12 0 13 0;
#X connect 13 0 11 1;
#X connect 14 0 11 0;
#X connect 15 0 17 0;
#X connect 16 0 11 0;
#X connect 17 0 9 0;
#X restore 58 -76 pd color;
#X obj 151 232 sphere 0.02 20;
#X obj 27 232 sphere 0.02 20;
#X obj 288 -188 r \$0-go;
#X obj 342 -10 t f f;
#N canvas 815 129 599 613 pos_2 0;
#X obj 107 -10 inlet;
#X obj 104 342 expr cos($f1);
#X obj 78 290 expr sin($f1)*sin($f2);
#X obj 48 314 expr sin($f1)*cos($f2);
#X obj 107 202 t f f f f;
#X obj 190 265 t f f f f;
#X obj 139 420 * 2;
#X obj 62 424 * 2;
#X obj 2 397 * 2;
#X obj 107 173 tabread \$0-theta_motion;
#X obj 190 241 tabread \$0-phi_motion;
#X obj 107 116 t f f f;
#X obj 287 56 r \$0-length;
#X obj 272 36 tabread \$0-kk;
#X obj 272 80 * 1;
#X obj 272 161 + 2;
#X obj 299 130 r \$0-radius;
#X floatatom 299 153 5 0 0 0 - - -;
#X floatatom 272 185 5 0 0 0 - - -;
#X obj 272 105 / 5;
#X obj 43 472 pack f f f;
#X obj 43 496 s \$0-l-2;
#X connect 0 0 11 0;
#X connect 1 0 6 0;
#X connect 2 0 7 0;
#X connect 3 0 8 0;
#X connect 4 0 3 0;
#X connect 4 1 2 0;
#X connect 4 2 1 0;
#X connect 5 0 3 1;
#X connect 5 1 2 1;
#X connect 6 0 20 2;
#X connect 7 0 20 1;
#X connect 8 0 20 0;
#X connect 9 0 4 0;
#X connect 10 0 5 0;
#X connect 11 0 9 0;
#X connect 11 1 10 0;
#X connect 11 2 13 0;
#X connect 12 0 14 1;
#X connect 13 0 14 0;
#X connect 14 0 19 0;
#X connect 15 0 18 0;
#X connect 16 0 17 0;
#X connect 17 0 15 1;
#X connect 18 0 8 1;
#X connect 18 0 7 1;
#X connect 18 0 6 1;
#X connect 19 0 15 0;
#X connect 20 0 21 0;
#X restore 428 129 pd pos_2;
#X obj 58 -42 t a a a a b;
#X obj 288 -113 t b b b;
#X obj 341 172 outlet;
#X obj 215 -41 s \$0-click;
#X obj 336 282 color 1 1 0;
#X obj 336 423 sphere 0.08 30;
#X obj 577 -77 % 15;
#X floatatom 632 -124 5 0 0 0 - - -;
#X obj 577 -14 -;
#X obj 632 -93 - 1;
#X obj 523 -105 bng 15 250 50 0 empty empty empty 17 7 0 10 -262144
-1 -1;
#X obj 669 -40 * 2;
#X floatatom 577 -43 5 0 0 0 - - -;
#X floatatom 577 40 5 0 0 0 - - -;
#X obj 523 -78 f 0;
#X obj 549 -77 + 1;
#X obj 577 15 spigot;
#X msg 684 -8 0;
#X obj 632 -67 t b b f f b;
#X msg 630 -11 1;
#X obj 669 -107 loadbang;
#X connect 1 0 3 0;
#X connect 1 0 43 0;
#X connect 2 0 8 0;
#X connect 3 0 11 0;
#X connect 4 0 6 0;
#X connect 5 0 24 0;
#X connect 5 0 62 0;
#X connect 6 0 67 0;
#X connect 7 0 9 0;
#X connect 8 0 56 0;
#X connect 9 0 55 0;
#X connect 10 0 5 0;
#X connect 12 0 31 0;
#X connect 13 0 17 1;
#X connect 14 0 13 0;
#X connect 14 0 15 0;
#X connect 14 0 16 0;
#X connect 14 0 42 0;
#X connect 15 0 17 2;
#X connect 16 0 17 3;
#X connect 17 0 65 0;
#X connect 18 0 64 0;
#X connect 19 0 13 1;
#X connect 19 1 15 1;
#X connect 19 2 16 1;
#X connect 20 0 13 2;
#X connect 20 1 15 2;
#X connect 20 2 16 2;
#X connect 21 0 10 0;
#X connect 22 0 25 0;
#X connect 23 0 27 0;
#X connect 23 1 28 0;
#X connect 24 0 0 0;
#X connect 24 1 22 0;
#X connect 25 0 59 0;
#X connect 26 0 23 0;
#X connect 27 0 22 1;
#X connect 28 0 22 1;
#X connect 29 0 26 0;
#X connect 30 0 44 0;
#X connect 31 0 30 0;
#X connect 32 0 31 4;
#X connect 33 0 48 0;
#X connect 34 0 36 0;
#X connect 35 0 37 0;
#X connect 36 0 8 1;
#X connect 36 1 8 2;
#X connect 36 2 8 3;
#X connect 37 0 9 1;
#X connect 37 1 9 2;
#X connect 37 2 9 3;
#X connect 38 0 11 1;
#X connect 39 0 11 2;
#X connect 40 0 19 0;
#X connect 41 0 20 0;
#X connect 42 0 32 0;
#X connect 43 0 30 1;
#X connect 44 0 11 0;
#X connect 45 0 14 0;
#X connect 45 1 14 1;
#X connect 46 0 61 0;
#X connect 47 0 46 1;
#X connect 48 0 54 0;
#X connect 49 0 50 0;
#X connect 50 0 53 0;
#X connect 50 1 51 0;
#X connect 51 0 52 0;
#X connect 52 0 31 1;
#X connect 52 1 31 2;
#X connect 52 2 31 3;
#X connect 53 0 52 0;
#X connect 54 0 60 0;
#X connect 57 0 46 0;
#X connect 58 0 21 0;
#X connect 58 1 29 0;
#X connect 60 0 12 0;
#X connect 60 1 2 0;
#X connect 60 2 7 0;
#X connect 60 3 18 0;
#X connect 60 4 10 0;
#X connect 61 0 63 0;
#X connect 61 1 70 0;
#X connect 61 2 45 0;
#X connect 64 0 17 0;
#X connect 66 0 72 0;
#X connect 66 0 74 1;
#X connect 67 0 69 0;
#X connect 68 0 76 0;
#X connect 69 0 78 0;
#X connect 70 0 74 0;
#X connect 71 0 66 1;
#X connect 72 0 68 0;
#X connect 73 0 58 0;
#X connect 74 0 75 0;
#X connect 75 0 66 0;
#X connect 76 0 73 0;
#X connect 77 0 76 1;
#X connect 78 0 79 0;
#X connect 78 1 70 0;
#X connect 78 2 68 1;
#X connect 78 3 71 0;
#X connect 78 4 77 0;
#X connect 79 0 76 1;
#X connect 80 0 79 0;
#X restore 144 177 pd link=======;
#X obj 26 -63 t a a a;
#X obj 26 -145 gemhead 800;
#X obj 185 -136 r \$0-go-speed;
#X obj 109 85 t f f f;
#X obj 26 -6 repeat 50;
#X obj 109 48 % 50;
#X floatatom 181 61 5 0 0 0 - - -;
#X obj 26 77 spigot;
#X obj 166 85 < 2;
#N canvas 131 164 599 613 text 0;
#X obj 92 -5 inlet;
#X obj 164 75 r \$0-length;
#X obj 147 55 tabread \$0-kk;
#X obj 147 99 * 1;
#X floatatom 147 188 5 0 0 0 - - -;
#X obj 147 124 / 5;
#X obj 147 211 abs;
#X floatatom 131 287 5 0 0 0 - - -;
#X obj 158 368 s \$0-pitch;
#X floatatom 92 24 5 0 0 0 - - -;
#X obj 92 50 t f f;
#X obj 131 311 t f f;
#X obj 86 351 pack f f f;
#X obj 147 236 / 4;
#X obj 173 283 r \$0-size;
#X floatatom 173 311 5 0 0 0 - - -;
#X obj -79 462 text2d;
#X obj -16 256 r \$0-show;
#X obj -16 280 sel 0 1;
#X msg -16 307 0;
#X obj 13 353 line;
#X msg 13 305 1;
#X obj -80 399 colorRGB 1 1 1 0;
#X obj -27 464 loadbang;
#X obj -80 375 translateXYZ 0 2.6 0;
#X msg -42 424 text [ Particle=\$3 | No=\$1 ];
#X msg 14 333 \$1 10000;
#X msg -27 488 10;
#X obj -78 -58 loadbang;
#X msg -79 -36 0;
#X obj -80 350 gemhead -1;
#X connect 0 0 9 0;
#X connect 1 0 3 1;
#X connect 2 0 3 0;
#X connect 3 0 5 0;
#X connect 4 0 6 0;
#X connect 5 0 4 0;
#X connect 6 0 13 0;
#X connect 7 0 11 0;
#X connect 9 0 10 0;
#X connect 10 0 12 0;
#X connect 10 1 2 0;
#X connect 11 0 12 1;
#X connect 11 1 8 0;
#X connect 12 0 25 0;
#X connect 13 0 7 0;
#X connect 14 0 15 0;
#X connect 15 0 12 2;
#X connect 17 0 18 0;
#X connect 18 0 19 0;
#X connect 18 1 21 0;
#X connect 19 0 26 0;
#X connect 20 0 22 4;
#X connect 21 0 26 0;
#X connect 22 0 16 0;
#X connect 23 0 27 0;
#X connect 24 0 22 0;
#X connect 25 0 16 0;
#X connect 26 0 20 0;
#X connect 27 0 16 1;
#X connect 28 0 29 0;
#X connect 30 0 24 0;
#X restore 183 252 pd text;
#N canvas 456 171 566 542 face 0;
#X obj 7 440 alpha;
#X obj 28 341 loadbang;
#X obj -227 410 alpha;
#X obj -285 255 loadbang;
#X obj 22 125 t f f f;
#X obj 22 72 inlet;
#X floatatom 22 100 5 0 0 0 - - -;
#X obj -216 123 inlet;
#X msg 28 381 auto 1;
#X msg -285 277 auto 1;
#X obj 7 305 separator;
#X obj -216 180 separator;
#X msg -72 433 draw line;
#X obj -72 409 loadbang;
#X obj 75 382 tgl 15 0 empty empty empty 17 7 0 10 -262144 -1 -1 1
1;
#X obj 90 270 r \$0-show;
#X obj 90 294 sel 0 1;
#X msg 90 340 0;
#X obj 132 384 line;
#X obj 7 415 colorRGB 1 1 1 0.3;
#X obj -176 320 unpack f f f;
#X msg -176 276 0.2 0.4 1;
#X obj -176 229 r \$0-data;
#X obj -176 251 sel 2 4;
#X obj -227 435 circle 0.07;
#X obj 7 466 circle 0.05;
#X msg -90 454 width 2;
#X msg -155 298 0.9 0.9 0.9;
#X obj -216 146 t a a b;
#N canvas 653 410 450 300 4random 0;
#X obj -23 209 *;
#X obj 56 206 *;
#X obj 124 206 *;
#X obj 193 205 *;
#X obj -21 46 inlet;
#X obj -17 258 outlet;
#X obj 44 257 outlet;
#X obj 123 255 outlet;
#X obj 184 254 outlet;
#X obj 27 48 inlet;
#X obj 77 46 inlet;
#X obj 125 48 inlet;
#X obj 282 66 r \$0-show;
#X msg 282 136 0;
#X obj 282 183 line;
#X obj 282 90 sel 0 1;
#X obj -21 88 randomF 0.5;
#X obj -21 118 + 0.5;
#X msg 301 114 0.4;
#X msg 282 163 \$1 10000;
#X connect 0 0 5 0;
#X connect 1 0 6 0;
#X connect 2 0 7 0;
#X connect 3 0 8 0;
#X connect 4 0 16 0;
#X connect 9 0 0 1;
#X connect 10 0 1 1;
#X connect 11 0 2 1;
#X connect 12 0 15 0;
#X connect 13 0 19 0;
#X connect 14 0 3 1;
#X connect 15 0 13 0;
#X connect 15 1 18 0;
#X connect 16 0 17 0;
#X connect 17 0 3 0;
#X connect 17 0 2 0;
#X connect 17 0 1 0;
#X connect 17 0 0 0;
#X connect 18 0 19 0;
#X connect 19 0 14 0;
#X restore -204 353 pd 4random;
#X floatatom 143 415 5 0 0 0 - - -;
#X obj -227 384 colorRGB 0.9 0.9 0.9 0.8;
#X obj -254 313 tgl 15 0 empty empty empty 17 7 0 10 -262144 -1 -1
1 1;
#X msg 109 318 0.3;
#X msg 132 364 \$1 10000;
#X obj 82 439 * 1;
#X obj 22 151 * 1.2;
#X connect 0 0 25 0;
#X connect 1 0 8 0;
#X connect 1 0 14 0;
#X connect 2 0 24 0;
#X connect 3 0 9 0;
#X connect 3 0 32 0;
#X connect 4 0 36 0;
#X connect 4 1 35 0;
#X connect 5 0 6 0;
#X connect 6 0 4 0;
#X connect 7 0 28 0;
#X connect 8 0 0 0;
#X connect 9 0 2 0;
#X connect 10 0 19 0;
#X connect 11 0 31 0;
#X connect 12 0 25 0;
#X connect 13 0 12 0;
#X connect 13 0 26 0;
#X connect 14 0 0 1;
#X connect 15 0 16 0;
#X connect 16 0 17 0;
#X connect 16 1 33 0;
#X connect 17 0 34 0;
#X connect 18 0 19 4;
#X connect 18 0 30 0;
#X connect 19 0 0 0;
#X connect 20 0 29 1;
#X connect 20 1 29 2;
#X connect 20 2 29 3;
#X connect 21 0 20 0;
#X connect 22 0 23 0;
#X connect 23 0 21 0;
#X connect 23 1 27 0;
#X connect 26 0 25 0;
#X connect 27 0 20 0;
#X connect 28 0 11 0;
#X connect 28 1 10 0;
#X connect 28 2 29 0;
#X connect 29 0 31 1;
#X connect 29 1 31 2;
#X connect 29 2 31 3;
#X connect 29 3 31 4;
#X connect 31 0 2 0;
#X connect 32 0 2 1;
#X connect 33 0 34 0;
#X connect 34 0 18 0;
#X connect 35 0 25 1;
#X connect 36 0 24 1;
#X restore 26 279 pd face;
#X obj 163 303 s \$0-target;
#X obj 144 230 t f f f;
#X obj 163 278 change;
#X obj 185 -108 k_range 1000 100 5000 1000;
#X obj 112 -17 r \$0-size;
#X obj -235 -101 del 10000;
#X obj -235 -80 t b b;
#X msg -208 -57 0;
#X obj -235 299 sphere 1 50;
#X obj -88 -68 loadbang;
#X msg -89 -46 0;
#X connect 0 0 1 0;
#X connect 1 0 41 0;
#X connect 2 0 8 0;
#X connect 3 0 7 0;
#X connect 3 1 6 1;
#X connect 3 2 6 2;
#X connect 4 0 42 0;
#X connect 5 0 46 1;
#X connect 6 0 46 0;
#X connect 6 0 9 1;
#X connect 7 0 8 1;
#X connect 7 1 8 2;
#X connect 7 2 8 3;
#X connect 8 0 6 0;
#X connect 10 0 40 0;
#X connect 11 0 43 0;
#X connect 11 1 0 0;
#X connect 12 0 33 0;
#X connect 13 0 55 0;
#X connect 14 0 13 0;
#X connect 14 1 21 0;
#X connect 15 0 36 0;
#X connect 15 1 17 0;
#X connect 16 0 18 0;
#X connect 17 0 16 1;
#X connect 17 1 16 2;
#X connect 17 2 16 3;
#X connect 18 0 14 0;
#X connect 19 0 20 0;
#X connect 20 0 18 1;
#X connect 21 0 24 0;
#X connect 22 0 34 0;
#X connect 23 0 5 0;
#X connect 25 0 52 0;
#X connect 25 1 27 0;
#X connect 26 0 12 0;
#X connect 26 0 37 0;
#X connect 27 0 26 0;
#X connect 27 1 28 0;
#X connect 28 0 26 0;
#X connect 29 0 25 0;
#X connect 30 0 48 0;
#X connect 31 0 15 0;
#X connect 31 1 32 0;
#X connect 32 0 33 1;
#X connect 32 1 33 2;
#X connect 32 2 33 3;
#X connect 33 0 16 0;
#X connect 34 0 15 1;
#X connect 35 0 30 0;
#X connect 36 0 10 0;
#X connect 36 2 35 0;
#X connect 37 0 31 0;
#X connect 38 0 50 0;
#X connect 39 0 3 0;
#X connect 39 1 9 2;
#X connect 39 2 44 0;
#X connect 40 0 11 0;
#X connect 41 0 1 1;
#X connect 41 0 39 0;
#X connect 42 0 44 1;
#X connect 43 0 2 0;
#X connect 44 0 43 1;
#X connect 48 0 9 0;
#X connect 48 1 49 0;
#X connect 48 2 45 0;
#X connect 49 0 47 0;
#X connect 50 0 34 1;
#X connect 50 0 15 2;
#X connect 51 0 40 1;
#X connect 51 0 41 1;
#X connect 52 0 53 0;
#X connect 53 0 26 0;
#X connect 53 1 54 0;
#X connect 54 0 26 0;
#X connect 56 0 57 0;
#X connect 57 0 12 0;
#X connect 57 0 37 0;
#X restore 346 -9 pd motion====================;
#N canvas 374 275 528 454 move====================== 0;
#X obj 134 306 -;
#X obj 116 336 *;
#X obj 116 358 +;
#X obj 337 296 -;
#X obj 322 328 *;
#X obj 316 353 +;
#X obj 151 206 f;
#X obj 117 108 f 1;
#X obj 117 130 +;
#X obj 337 222 t f f f;
#X obj 134 232 t f f f;
#X obj 117 180 t b f b f;
#X obj 101 293 f;
#X obj 117 58 t b f f;
#X obj 352 246 tabread \$0-phi_start;
#X obj 316 388 tabwrite \$0-phi_motion;
#X obj 337 274 tabread \$0-phi_end;
#X obj 116 386 tabwrite \$0-theta_motion;
#X obj 153 257 tabread \$0-theta_start;
#X obj 134 284 tabread \$0-theta_end;
#X obj 117 32 line;
#X obj 117 -16 r \$0-start;
#X msg 117 9 0 \, 1 3000;
#X obj 117 85 repeat 50;
#X obj 117 154 % 50;
#X obj 193 55 r \$0-size;
#X connect 0 0 1 1;
#X connect 1 0 2 0;
#X connect 2 0 17 0;
#X connect 3 0 4 1;
#X connect 4 0 5 0;
#X connect 5 0 15 0;
#X connect 6 0 4 0;
#X connect 6 0 9 0;
#X connect 7 0 8 0;
#X connect 8 0 24 0;
#X connect 9 0 16 0;
#X connect 9 1 14 0;
#X connect 9 2 15 1;
#X connect 10 0 19 0;
#X connect 10 1 18 0;
#X connect 10 2 17 1;
#X connect 11 0 12 0;
#X connect 11 1 10 0;
#X connect 11 2 6 0;
#X connect 11 3 9 0;
#X connect 12 0 1 0;
#X connect 13 0 23 0;
#X connect 13 1 12 1;
#X connect 13 2 6 1;
#X connect 14 0 5 1;
#X connect 14 0 3 1;
#X connect 16 0 3 0;
#X connect 18 0 2 1;
#X connect 18 0 0 1;
#X connect 19 0 0 0;
#X connect 20 0 13 0;
#X connect 21 0 22 0;
#X connect 22 0 20 0;
#X connect 23 0 7 0;
#X connect 24 0 8 1;
#X connect 24 0 11 0;
#X connect 25 0 23 1;
#X connect 25 0 24 1;
#X restore 347 49 pd move======================;
#X obj 110 202 hsl 80 15 2000 75 0 0 empty empty speed 5 7 0 10 -262144
-1 -1 0 1;
#X floatatom 53 251 5 0 0 0 - - -;
#X obj 53 317 s \$0-go-speed;
#N canvas 667 285 578 356 net======================= 0;
#X obj 36 131 s toudp;
#X obj 36 105 packOSC;
#X msg 36 78 send /mb-1 \$1;
#X obj 129 132 s toudp;
#X obj 129 106 packOSC;
#X obj 224 132 s toudp;
#X obj 224 106 packOSC;
#X obj 33 253 s toudp;
#X obj 33 227 packOSC;
#X obj 130 254 s toudp;
#X obj 130 228 packOSC;
#X msg 129 79 send /mb-2 \$1;
#X msg 224 79 send /mb-3 \$1;
#X msg 33 200 send /mb-4 \$1;
#X msg 130 200 send /mb-5 \$1;
#X obj 36 37 r \$0-show;
#X obj 130 160 r \$0-go-speed;
#X obj 244 158 r \$0-size;
#X obj 244 251 s toudp;
#X obj 244 225 packOSC;
#X msg 244 196 send /mb-6 \$1;
#X obj 129 37 r mb-2;
#X obj 223 36 r mb-3;
#X obj 33 161 r mb-4;
#X obj 340 283 s toudp;
#X obj 340 257 packOSC;
#X obj 340 141 r \$0-pitch;
#X obj 340 166 v \$0-send-pitch;
#X obj 340 200 pack f f;
#X msg 340 228 send /mb-7 \$1 \$2;
#X obj 355 113 t b f;
#X obj 355 63 r \$0-click;
#X obj 355 86 v target;
#X obj 471 191 r \$0-tbang;
#X obj 471 278 s toudp;
#X obj 471 252 packOSC;
#X msg 471 223 send /mb-9 \$1;
#X connect 1 0 0 0;
#X connect 2 0 1 0;
#X connect 4 0 3 0;
#X connect 6 0 5 0;
#X connect 8 0 7 0;
#X connect 10 0 9 0;
#X connect 11 0 4 0;
#X connect 12 0 6 0;
#X connect 13 0 8 0;
#X connect 14 0 10 0;
#X connect 15 0 2 0;
#X connect 16 0 14 0;
#X connect 17 0 20 0;
#X connect 19 0 18 0;
#X connect 20 0 19 0;
#X connect 21 0 11 0;
#X connect 22 0 12 0;
#X connect 23 0 13 0;
#X connect 25 0 24 0;
#X connect 26 0 27 0;
#X connect 27 0 28 0;
#X connect 28 0 29 0;
#X connect 29 0 25 0;
#X connect 30 0 27 0;
#X connect 30 1 28 1;
#X connect 31 0 32 0;
#X connect 32 0 30 0;
#X connect 33 0 36 0;
#X connect 35 0 34 0;
#X connect 36 0 35 0;
#X restore 348 23 pd net=======================;
#N canvas 0 22 450 300 mb3 0;
#X obj 157 192 s \$0-length;
#X obj 157 169 k_spring 0.3;
#X obj 89 171 s mb-3;
#X obj 89 111 t f f;
#X obj 89 78 inlet;
#X connect 1 0 0 0;
#X connect 3 0 2 0;
#X connect 3 1 1 0;
#X connect 4 0 3 0;
#X restore -1 239 pd mb3;
#N canvas 0 22 450 300 mb2 0;
#X obj 319 247 s \$0-radius;
#X obj 319 216 k_spring 0.5;
#X obj 267 216 s mb-2;
#X obj 270 138 inlet;
#X obj 270 168 t f f;
#X connect 1 0 0 0;
#X connect 3 0 4 0;
#X connect 4 0 2 0;
#X connect 4 1 1 0;
#X restore -2 217 pd mb2;
#N canvas 0 22 450 300 mb4 0;
#X obj 206 148 s \$0-face;
#X obj 206 119 k_spring 0.3;
#X obj 160 116 s mb-4;
#X obj 160 54 inlet;
#X obj 160 83 t f f;
#X connect 1 0 0 0;
#X connect 3 0 4 0;
#X connect 4 0 2 0;
#X connect 4 1 1 0;
#X restore 0 261 pd mb4;
#N canvas 506 22 934 747 tempo 0;
#X obj 442 -26 t b b b b;
#X msg 459 46 0.15;
#X msg 476 19 0.01;
#X obj 442 108 outlet;
#X obj 490 107 outlet;
#X obj 541 107 outlet;
#X obj 590 110 outlet;
#X msg 493 -3 1;
#X obj 192 193 text2d;
#X obj 323 -130 r \$0-show;
#X obj 323 -106 sel 0 1;
#X msg 323 -79 0;
#X obj 352 -33 line;
#X obj 192 77 colorRGB 1 1 1 0;
#X obj -6 118 loadbang;
#X msg 68 -32 text Radius=\$1;
#X obj 192 104 alpha;
#X obj -75 -317 t a a;
#X obj -81 -272 spigot;
#X obj -81 -226 change;
#X obj -81 -204 sel 1;
#X obj -81 -181 tgl 15 0 empty empty empty 17 7 0 10 -262144 -1 -1
0 1;
#X obj -48 -294 route key_226;
#X obj -36 -226 change;
#X obj -36 -204 sel 1;
#X obj -36 -181 tgl 15 0 empty empty empty 17 7 0 10 -262144 -1 -1
0 1;
#X obj 10 -226 change;
#X obj 10 -204 sel 1;
#X obj 10 -181 tgl 15 0 empty empty empty 17 7 0 10 -262144 -1 -1 0
1;
#X obj 56 -226 change;
#X obj 56 -204 sel 1;
#X obj 56 -181 tgl 15 0 empty empty empty 17 7 0 10 -262144 -1 -1 0
1;
#X msg -58 -153 0;
#X msg -19 -151 1;
#X msg 22 -152 2;
#X msg 72 -152 3;
#X obj -58 -120 s \$0-data;
#X obj 139 -414 r \$0-data;
#X msg 241 -191 0 0 0 1;
#X msg 225 -216 0 0 1 0;
#X msg 209 -239 0 1 0 0;
#X msg 194 -264 1 0 0 0;
#X msg 121 -59 text Length=\$1;
#X msg 225 -62 text Face=\$1;
#X obj 194 -155 unpack f f f f;
#X obj 68 -58 spigot;
#X obj 121 -83 spigot;
#X obj 225 -82 spigot;
#X obj 290 -35 spigot;
#X floatatom -24 -388 5 0 0 0 - - -;
#X obj 332 -437 sel 0;
#X obj -24 -368 moses 0.0001;
#X floatatom 45 -339 5 0 0 0 - - -;
#X floatatom 217 -413 5 0 0 0 - - -;
#X obj 217 -389 moses 0.0001;
#X floatatom 286 -367 5 0 0 0 - - -;
#X obj 286 -347 / 4;
#X floatatom 153 -154 5 0 0 0 - - -;
#X obj 45 -319 / 2;
#X floatatom 142 -349 5 0 0 0 - - -;
#X obj -24 -467 r forceytext;
#X obj 212 -488 r forcextext;
#X obj 441 -462 v forcey;
#X obj 359 -384 v forcex;
#X obj 580 -340 r \$0-data;
#X msg 627 -200 0 0 0 1;
#X msg 611 -225 0 0 1 0;
#X msg 595 -248 0 1 0 0;
#X msg 580 -273 1 0 0 0;
#X obj 580 -164 unpack f f f f;
#X floatatom 580 -320 5 0 0 0 - - -;
#X floatatom 520 -219 5 0 0 0 - - -;
#X obj 547 -134 spigot;
#X obj 574 -112 spigot;
#X obj 601 -137 spigot;
#X obj 628 -112 spigot;
#X obj 580 -297 sel 0 1 2 3 4;
#X msg 640 -274 0 0 0 0;
#X obj 194 -288 sel 0 1 2 3 4;
#X msg 254 -267 0 0 0 0;
#X msg 315 -244 4;
#X obj 314 -199 s \$0-data;
#X obj 306 80 r \$0-data;
#X obj 306 106 sel 4;
#X msg 306 130 0;
#X msg 334 130 1;
#X obj 192 134 k_tgl;
#X floatatom 545 -29 5 0 0 0 - - -;
#X floatatom 574 8 5 0 0 0 - - -;
#X floatatom 601 -14 5 0 0 0 - - -;
#X floatatom 628 -61 5 0 0 0 - - -;
#X obj 315 -268 del 100;
#X obj 332 -415 t b b b;
#X obj 363 -274 spigot;
#X obj 396 -294 tgl 15 0 empty empty empty 17 7 0 10 -262144 -1 -1
0 1;
#X obj 359 -338 t f f;
#X floatatom 363 -248 5 0 0 0 - - -;
#X obj 445 -359 spigot;
#X obj 478 -376 tgl 15 0 empty empty empty 17 7 0 10 -262144 -1 -1
0 1;
#X obj 441 -420 t f f;
#X floatatom 445 -337 5 0 0 0 - - -;
#X obj 142 -326 t b f;
#X obj 478 -397 expr if(abs($f1)>0.01 \, 1 \, 0);
#X obj 386 -316 expr if(abs($f1)>0.01 \, 1 \, 0);
#X msg 352 -81 1;
#X msg 290 -13 text Speed=\$1;
#X obj 9 -441 r \$0-show;
#X obj -24 -415 spigot;
#X obj 245 -468 r \$0-show;
#X obj 212 -442 spigot;
#X obj 601 -38 * 0.4;
#X obj 574 -64 * 5;
#X obj -81 -248 route key_21 key_15 key_9 key_22;
#X obj 191 52 translateXYZ 0 2.9 0;
#X obj 332 -465 spigot;
#X obj 381 -466 r \$0-go;
#X obj 332 -491 r mouseright;
#X obj 709 -266 s mousestate;
#X obj 710 -311 t b;
#X msg 710 -289 1;
#X obj -77 -388 r \$0-go;
#X obj -110 -361 spigot;
#X obj -110 -413 r hid;
#X obj 359 -361 / 3;
#X obj 441 -441 / 2;
#X obj 532 -471 r x_size;
#X obj 532 -449 / 2;
#X floatatom 528 -426 5 0 0 0 - - -;
#X obj 547 -87 * 8;
#X obj 442 -84 r \$0-show;
#X obj 442 -60 sel 1;
#X text -72 192 font /Library/Fonts/ACaslonPro-Bold.otf;
#X msg -10 143 font ACaslonPro-BoldItalic.otf;
#X msg 442 68 2000;
#X msg 352 -53 \$1 10000;
#X obj 655 -21 k_range 0 1 2000 75;
#X obj -68 -48 loadbang;
#X msg -69 -26 0;
#X obj 192 28 gemhead -1;
#N canvas 493 477 469 340 control-in 0;
#X obj 147 -222 r mb-2;
#X msg 174 -170 0;
#X obj 209 -218 r mb-3;
#X obj 255 -217 r mb-4;
#X obj 304 -216 r mb-5;
#X obj 147 -200 t f b;
#X obj 209 -196 t f b;
#X obj 255 -195 t f b;
#X obj 304 -194 t f b;
#X obj 237 -83 outlet;
#X floatatom 149 -109 5 0 0 0 - - -;
#X obj 148 -85 outlet;
#X msg 329 -165 3;
#X msg 280 -166 2;
#X msg 236 -166 1;
#X obj 130 62 s \$0-showtxt;
#X obj 131 -48 t b b;
#X msg 158 -23 1;
#X msg 128 28 0;
#X obj 128 5 del 500;
#X connect 0 0 5 0;
#X connect 1 0 9 0;
#X connect 2 0 6 0;
#X connect 3 0 7 0;
#X connect 4 0 8 0;
#X connect 5 0 10 0;
#X connect 5 1 1 0;
#X connect 6 0 10 0;
#X connect 6 1 14 0;
#X connect 7 0 10 0;
#X connect 7 1 13 0;
#X connect 8 0 10 0;
#X connect 8 1 12 0;
#X connect 10 0 11 0;
#X connect 10 0 16 0;
#X connect 12 0 9 0;
#X connect 13 0 9 0;
#X connect 14 0 9 0;
#X connect 16 0 19 0;
#X connect 16 1 17 0;
#X connect 17 0 15 0;
#X connect 18 0 15 0;
#X connect 19 0 18 0;
#X restore 108 -373 pd control-in;
#X floatatom 201 -343 5 0 0 0 - - -;
#N canvas 761 260 641 524 scale 0;
#X obj 355 151 sel 0 1;
#X obj 352 208 line;
#X obj 359 120 change;
#X floatatom 351 268 5 0 0 0 - - -;
#X obj 352 345 > 0;
#X obj 351 382 outlet;
#X obj 363 72 r \$0-showtxt;
#X obj 353 300 * 25;
#X obj 437 381 outlet;
#X msg 355 179 1 \, 0 300;
#X msg 437 178 0 \, 1 300;
#X obj 437 206 line;
#X obj 436 236 outbounce;
#X obj 351 238 inbounce;
#X connect 0 0 9 0;
#X connect 0 1 10 0;
#X connect 1 0 13 0;
#X connect 2 0 0 0;
#X connect 3 0 7 0;
#X connect 4 0 5 0;
#X connect 6 0 2 0;
#X connect 7 0 4 0;
#X connect 7 0 8 0;
#X connect 9 0 1 0;
#X connect 10 0 11 0;
#X connect 11 0 12 0;
#X connect 12 0 3 0;
#X connect 13 0 3 0;
#X restore 315 168 pd scale;
#X connect 0 0 133 0;
#X connect 0 1 1 0;
#X connect 0 2 2 0;
#X connect 0 3 7 0;
#X connect 1 0 4 0;
#X connect 2 0 5 0;
#X connect 7 0 6 0;
#X connect 9 0 10 0;
#X connect 10 0 11 0;
#X connect 10 1 104 0;
#X connect 11 0 134 0;
#X connect 12 0 13 4;
#X connect 13 0 16 0;
#X connect 14 0 132 0;
#X connect 15 0 8 0;
#X connect 16 0 86 0;
#X connect 17 0 18 0;
#X connect 17 1 22 0;
#X connect 18 0 112 0;
#X connect 19 0 20 0;
#X connect 20 0 21 0;
#X connect 20 0 32 0;
#X connect 22 0 18 1;
#X connect 23 0 24 0;
#X connect 24 0 25 0;
#X connect 24 0 33 0;
#X connect 26 0 27 0;
#X connect 27 0 28 0;
#X connect 27 0 34 0;
#X connect 29 0 30 0;
#X connect 30 0 31 0;
#X connect 30 0 35 0;
#X connect 32 0 36 0;
#X connect 33 0 36 0;
#X connect 34 0 36 0;
#X connect 35 0 36 0;
#X connect 37 0 59 0;
#X connect 38 0 44 0;
#X connect 39 0 44 0;
#X connect 40 0 44 0;
#X connect 41 0 44 0;
#X connect 42 0 8 0;
#X connect 43 0 8 0;
#X connect 44 0 45 1;
#X connect 44 1 46 1;
#X connect 44 2 47 1;
#X connect 44 3 48 1;
#X connect 45 0 15 0;
#X connect 46 0 42 0;
#X connect 47 0 43 0;
#X connect 48 0 105 0;
#X connect 49 0 51 0;
#X connect 50 0 92 0;
#X connect 51 1 52 0;
#X connect 52 0 58 0;
#X connect 53 0 54 0;
#X connect 54 1 55 0;
#X connect 55 0 56 0;
#X connect 56 0 57 0;
#X connect 57 0 45 0;
#X connect 57 0 46 0;
#X connect 57 0 47 0;
#X connect 57 0 48 0;
#X connect 58 0 57 0;
#X connect 59 0 101 0;
#X connect 60 0 107 0;
#X connect 61 0 109 0;
#X connect 62 0 124 0;
#X connect 63 0 123 0;
#X connect 64 0 70 0;
#X connect 64 0 118 0;
#X connect 65 0 69 0;
#X connect 66 0 69 0;
#X connect 67 0 69 0;
#X connect 68 0 69 0;
#X connect 69 0 72 1;
#X connect 69 1 73 1;
#X connect 69 2 74 1;
#X connect 69 3 75 1;
#X connect 70 0 76 0;
#X connect 71 0 72 0;
#X connect 71 0 73 0;
#X connect 71 0 74 0;
#X connect 71 0 75 0;
#X connect 72 0 128 0;
#X connect 73 0 111 0;
#X connect 74 0 110 0;
#X connect 75 0 90 0;
#X connect 76 0 68 0;
#X connect 76 1 67 0;
#X connect 76 2 66 0;
#X connect 76 3 65 0;
#X connect 76 4 77 0;
#X connect 77 0 69 0;
#X connect 78 0 41 0;
#X connect 78 1 40 0;
#X connect 78 2 39 0;
#X connect 78 3 38 0;
#X connect 78 4 79 0;
#X connect 79 0 44 0;
#X connect 80 0 81 0;
#X connect 82 0 83 0;
#X connect 83 0 84 0;
#X connect 83 1 85 0;
#X connect 84 0 86 1;
#X connect 85 0 86 1;
#X connect 86 0 8 0;
#X connect 87 0 6 0;
#X connect 88 0 5 0;
#X connect 89 0 4 0;
#X connect 90 0 135 0;
#X connect 91 0 80 0;
#X connect 92 0 91 0;
#X connect 92 1 63 0;
#X connect 92 2 62 0;
#X connect 93 0 96 0;
#X connect 94 0 93 1;
#X connect 95 0 93 0;
#X connect 95 1 103 0;
#X connect 96 0 71 0;
#X connect 97 0 100 0;
#X connect 98 0 97 1;
#X connect 99 0 97 0;
#X connect 99 1 102 0;
#X connect 100 0 71 0;
#X connect 101 0 57 0;
#X connect 101 1 78 0;
#X connect 102 0 98 0;
#X connect 103 0 94 0;
#X connect 104 0 134 0;
#X connect 105 0 8 0;
#X connect 106 0 107 1;
#X connect 107 0 49 0;
#X connect 108 0 109 1;
#X connect 109 0 53 0;
#X connect 110 0 89 0;
#X connect 111 0 88 0;
#X connect 112 0 19 0;
#X connect 112 1 23 0;
#X connect 112 2 26 0;
#X connect 112 3 29 0;
#X connect 113 0 13 0;
#X connect 114 0 50 0;
#X connect 115 0 114 1;
#X connect 116 0 114 0;
#X connect 118 0 119 0;
#X connect 119 0 117 0;
#X connect 120 0 121 1;
#X connect 121 0 17 0;
#X connect 122 0 121 0;
#X connect 123 0 95 0;
#X connect 124 0 99 0;
#X connect 125 0 126 0;
#X connect 126 0 127 0;
#X connect 127 0 123 1;
#X connect 128 0 87 0;
#X connect 129 0 130 0;
#X connect 130 0 0 0;
#X connect 132 0 8 0;
#X connect 133 0 3 0;
#X connect 134 0 12 0;
#X connect 135 0 3 0;
#X connect 136 0 137 0;
#X connect 138 0 113 0;
#X connect 139 0 57 0;
#X connect 139 1 140 0;
#X connect 140 0 78 0;
#X connect 141 0 86 1;
#X connect 141 1 8 1;
#X restore 14 64 pd tempo;
#X obj 218 388 s data-info;
#X obj 218 309 r \$0-show;
#X obj 218 336 sel 1;
#X msg 218 363 8;
#X obj 412 175 metro 3000;
#X obj 171 310 bng 15 250 50 0 empty empty data 17 7 0 10 -262144 -1
-162280;
#X obj 53 295 line;
#X msg 53 272 \$1 2000;
#X obj 316 123 sel 0 1;
#X obj 316 98 r \$0-show;
#X msg 316 154 0;
#X obj 316 188 pipe 10000;
#X msg 346 154 1;
#X floatatom 316 214 5 0 0 0 - - -;
#X obj 297 388 s gem-drop;
#X msg 297 367 2;
#X obj 182 15 > 0;
#X obj 182 -9 ctlin 32;
#N canvas 608 372 450 300 2color 0;
#X obj 100 146 s \$0-2color;
#X obj 100 100 tgl 20 0 empty empty empty 17 7 0 10 -262144 -1 -1 0
1;
#X obj 41 74 inlet;
#X connect 1 0 0 0;
#X connect 2 0 1 0;
#X coords 0 -1 1 1 20 20 2 100 100;
#X restore 196 172 pd 2color;
#N canvas 598 92 582 525 num 0;
#X obj 106 -50 r hid;
#X obj 106 0 t a a;
#X obj 100 45 spigot;
#X obj 133 23 route key_226;
#X obj 106 -24 spigot;
#X obj 155 -25 r \$0-go;
#X obj 100 70 route key_29;
#X msg 100 195 2;
#X obj 100 169 sel 0 1 2;
#X msg 135 195 40;
#X obj 23 53 inlet;
#X obj 108 233 s \$0-m-b-num;
#X obj 141 96 sel 1;
#X obj 142 118 f;
#X obj 170 119 + 1;
#X obj 198 119 % 2;
#X obj 100 100 tgl 20 0 empty empty empty 17 7 0 10 -262144 -1 -1 0
1;
#X connect 0 0 4 0;
#X connect 1 0 2 0;
#X connect 1 1 3 0;
#X connect 2 0 6 0;
#X connect 3 0 2 1;
#X connect 4 0 1 0;
#X connect 5 0 4 1;
#X connect 6 0 12 0;
#X connect 7 0 11 0;
#X connect 8 0 7 0;
#X connect 8 1 9 0;
#X connect 9 0 11 0;
#X connect 10 0 16 0;
#X connect 12 0 13 0;
#X connect 13 0 14 0;
#X connect 13 0 16 0;
#X connect 14 0 15 0;
#X connect 15 0 13 1;
#X connect 16 0 8 0;
#X coords 0 -1 1 1 20 20 2 100 100;
#X restore 196 147 pd num;
#N canvas 839 188 512 573 touchosc======= 0;
#X obj 76 108 r touchosc;
#X obj 76 132 routeOSC /m-b;
#X floatatom 76 188 5 0 0 0 - - -;
#X floatatom 112 190 5 0 0 0 - - -;
#X floatatom 148 189 5 0 0 0 - - -;
#X floatatom 188 191 5 0 0 0 - - -;
#X floatatom 224 191 5 0 0 0 - - -;
#X obj 76 223 k_range 0 1 2 50;
#X floatatom 76 271 5 0 0 0 - - -;
#X floatatom 118 295 5 0 0 0 - - -;
#X obj 118 247 k_range 0 1 0.01 8;
#X floatatom 161 320 5 0 0 0 - - -;
#X obj 161 272 k_range 0 1 0 5;
#X floatatom 207 345 5 0 0 0 - - -;
#X floatatom 259 370 5 0 0 0 - - -;
#X obj 259 322 k_range 0 1 2000 75;
#X obj 207 297 k_range 0 1 0.05 0.4;
#X obj 105 426 outlet;
#X obj 162 445 outlet;
#X obj 191 478 outlet;
#X obj 243 500 outlet;
#X floatatom 280 226 5 0 0 0 - - -;
#X floatatom 425 205 5 0 0 0 - - -;
#X obj 280 252 outlet;
#X obj 424 258 outlet;
#X obj 425 230 sel 1;
#X obj 76 156 route /1 /2 /3 /4 /5 /6 /7 /8 /9;
#X obj 328 252 outlet;
#X obj 377 251 outlet;
#X obj 76 393 s \$0-m-b-num;
#X connect 0 0 1 0;
#X connect 1 0 26 0;
#X connect 2 0 7 0;
#X connect 3 0 10 0;
#X connect 4 0 12 0;
#X connect 5 0 16 0;
#X connect 6 0 15 0;
#X connect 7 0 8 0;
#X connect 8 0 29 0;
#X connect 9 0 17 0;
#X connect 10 0 9 0;
#X connect 11 0 18 0;
#X connect 12 0 11 0;
#X connect 13 0 19 0;
#X connect 14 0 20 0;
#X connect 15 0 14 0;
#X connect 16 0 13 0;
#X connect 21 0 23 0;
#X connect 22 0 25 0;
#X connect 25 0 24 0;
#X connect 26 0 2 0;
#X connect 26 1 3 0;
#X connect 26 2 4 0;
#X connect 26 3 5 0;
#X connect 26 4 6 0;
#X connect 26 5 21 0;
#X connect 26 6 27 0;
#X connect 26 7 28 0;
#X connect 26 8 22 0;
#X restore 47 33 pd touchosc=======;
#X text 221 172 c-drum;
#X text 222 148 c-num;
#X text 221 199 c-walk;
#N canvas 226 243 540 557 sendtouchosc 0;
#X obj 93 351 s totouch;
#X obj 93 328 packOSC;
#X msg 93 305 send /m-b/1 \$1;
#X obj 86 85 k_range 2 50 0 1;
#X obj 128 109 k_range 0.01 8 0 1;
#X obj 171 134 k_range 0 5 0 1;
#X obj 217 159 k_range 0.05 0.4 0 1;
#X obj 269 184 k_range 2000 75 0 1;
#X obj 87 44 inlet;
#X obj 128 49 inlet;
#X obj 174 50 inlet;
#X obj 215 55 inlet;
#X obj 273 67 inlet;
#X msg 125 281 send /m-b/2 \$1;
#X msg 178 255 send /m-b/3 \$1;
#X msg 210 231 send /m-b/4 \$1;
#X msg 263 271 send /m-b/5 \$1;
#X connect 1 0 0 0;
#X connect 2 0 1 0;
#X connect 3 0 2 0;
#X connect 4 0 13 0;
#X connect 5 0 14 0;
#X connect 6 0 15 0;
#X connect 7 0 16 0;
#X connect 8 0 3 0;
#X connect 9 0 4 0;
#X connect 10 0 5 0;
#X connect 11 0 6 0;
#X connect 12 0 7 0;
#X connect 13 0 1 0;
#X connect 14 0 1 0;
#X connect 15 0 1 0;
#X connect 16 0 1 0;
#X restore 117 245 pd sendtouchosc;
#X obj 106 286 s mb-5;
#X connect 2 0 24 0;
#X connect 2 1 1 0;
#X connect 2 2 3 0;
#X connect 4 0 27 0;
#X connect 5 0 16 0;
#X connect 6 0 21 0;
#X connect 6 0 63 3;
#X connect 7 0 20 0;
#X connect 7 0 63 2;
#X connect 14 0 63 0;
#X connect 15 0 19 0;
#X connect 15 0 63 1;
#X connect 16 0 22 0;
#X connect 19 0 36 0;
#X connect 20 0 35 0;
#X connect 21 0 37 0;
#X connect 22 0 23 0;
#X connect 25 0 26 0;
#X connect 26 0 43 0;
#X connect 31 0 32 0;
#X connect 31 0 63 4;
#X connect 32 0 46 0;
#X connect 32 0 64 0;
#X connect 38 0 31 0;
#X connect 38 1 6 0;
#X connect 38 2 7 0;
#X connect 38 3 15 0;
#X connect 40 0 41 0;
#X connect 41 0 42 0;
#X connect 41 0 54 0;
#X connect 42 0 39 0;
#X connect 43 0 2 0;
#X connect 44 0 42 0;
#X connect 45 0 33 0;
#X connect 46 0 45 0;
#X connect 47 0 49 0;
#X connect 47 1 51 0;
#X connect 48 0 47 0;
#X connect 49 0 50 0;
#X connect 50 0 4 0;
#X connect 50 0 52 0;
#X connect 51 0 4 0;
#X connect 54 0 53 0;
#X connect 55 0 22 0;
#X connect 56 0 55 0;
#X connect 59 0 15 0;
#X connect 59 1 7 0;
#X connect 59 2 6 0;
#X connect 59 3 31 0;
#X connect 59 4 22 0;
#X connect 59 5 58 0;
#X connect 59 6 57 0;
#X connect 59 7 28 0;
#X coords 0 -1 1 1 120 120 1 100 100;
