#N canvas 876 134 564 606 10;
#X obj 209 161 tgl 30 0 empty empty run 0 -8 0 10 -262144 -1 -1 1 1
;
#X obj 112 232 hsl 80 15 0.02 0.5 0 0 empty empty face 5 7 0 10 -262144
-1 -1 0 1;
#X obj 112 214 hsl 80 15 0 0.4 0 0 empty empty length 5 6 0 10 -262144
-1 -1 7900 1;
#X obj 112 194 hsl 80 15 0.001 10 0 0 empty empty radius 5 6 0 10 -262144
-1 -1 2789 1;
#X msg 186 69 0;
#X floatatom 197 194 5 0 0 0 - - -;
#X floatatom 197 213 5 0 0 0 - - -;
#X floatatom 197 232 5 0 0 0 - - -;
#X obj 210 117 tgl 30 0 empty empty head 0 -8 0 10 -258113 -1 -1 1
1;
#X obj 297 107 s \$0-show;
#X obj 258 161 s \$0-go;
#X obj 266 208 s \$0-radius;
#X obj 129 331 s \$0-length;
#X obj 269 254 s \$0-face;
#N canvas 594 268 846 553 motion==================================
0;
#X obj 242 271 -;
#X obj 224 301 *;
#X obj 224 323 +;
#X obj 445 261 -;
#X obj 430 293 *;
#X obj 424 318 +;
#X obj 259 171 f;
#X obj 225 73 f 1;
#X obj 225 95 +;
#X obj 445 187 t f f f;
#X obj 242 197 t f f f;
#X obj 225 145 t b f b f;
#X obj 209 258 f;
#X obj 225 23 t b f f;
#X obj 26 121 separator;
#X obj 225 50 repeat 50;
#X obj 225 119 % 50;
#N canvas 838 244 659 572 pos_1 0;
#X obj 54 481 outlet;
#X obj 328 405 outlet;
#X obj 69 206 tabread \$0-x;
#X obj 96 244 tabread \$0-y;
#X obj 123 275 tabread \$0-z;
#X obj 212 378 tabread \$0-r1;
#X obj 328 336 tabread \$0-r2;
#X obj 356 356 tabread \$0-r3;
#X obj 328 381 pack f f 0;
#X obj 212 408 outlet;
#X obj 107 116 t f f f f f f;
#X obj 54 444 pack f f f;
#X obj 107 80 t f f;
#X obj 200 117 tabread \$0-kk;
#X obj 200 149 * 1;
#X obj 69 310 * 0;
#X obj 96 310 * 0;
#X obj 123 310 * 0;
#X obj 293 116 r \$0-length;
#X obj 200 177 + 1;
#X obj 107 51 inlet;
#X obj -115 362 inlet;
#X obj -95 393 inlet;
#N canvas 366 338 450 300 tran 0;
#X obj -15 132 r \$0-radius;
#X obj -114 87 inlet;
#X obj -104 231 outlet;
#X obj -56 233 outlet;
#X obj -15 231 outlet;
#X obj -76 88 inlet;
#X obj -30 94 inlet;
#X obj -36 181 * 1;
#X obj -84 180 * 1;
#X obj -115 179 * 1;
#X connect 0 0 7 1;
#X connect 0 0 8 1;
#X connect 0 0 9 1;
#X connect 1 0 9 0;
#X connect 5 0 8 0;
#X connect 6 0 7 0;
#X connect 7 0 4 0;
#X connect 8 0 3 0;
#X connect 9 0 2 0;
#X restore 69 351 pd tran;
#X msg -116 454 setCartesian \$1 \$2 \$3 \$4 \$5;
#X obj -115 433 pack f f f f f;
#X obj -118 486 s \$0-sphose-pos;
#X connect 2 0 15 0;
#X connect 3 0 16 0;
#X connect 4 0 17 0;
#X connect 5 0 9 0;
#X connect 6 0 8 0;
#X connect 7 0 8 1;
#X connect 8 0 1 0;
#X connect 10 0 2 0;
#X connect 10 1 3 0;
#X connect 10 2 4 0;
#X connect 10 3 5 0;
#X connect 10 4 6 0;
#X connect 10 5 7 0;
#X connect 11 0 0 0;
#X connect 12 0 10 0;
#X connect 12 1 13 0;
#X connect 13 0 14 0;
#X connect 14 0 19 0;
#X connect 15 0 23 0;
#X connect 16 0 23 1;
#X connect 17 0 23 2;
#X connect 18 0 14 1;
#X connect 19 0 15 1;
#X connect 19 0 16 1;
#X connect 19 0 17 1;
#X connect 20 0 12 0;
#X connect 21 0 25 0;
#X connect 22 0 25 1;
#X connect 23 0 11 0;
#X connect 23 0 25 2;
#X connect 23 1 11 1;
#X connect 23 1 25 3;
#X connect 23 2 11 2;
#X connect 23 2 25 4;
#X connect 24 0 26 0;
#X connect 25 0 24 0;
#X restore 89 121 pd pos_1;
#X obj 284 22 r \$0-size;
#X floatatom 77 289 5 0 0 0 - - -;
#X obj 26 244 rotate 0 0 0 0;
#X obj 26 218 translateXYZ;
#X obj 460 211 tabread \$0-phi_start;
#X obj 424 353 tabwrite \$0-phi_motion;
#X obj 445 239 tabread \$0-phi_end;
#X obj 224 351 tabwrite \$0-theta_motion;
#X obj 261 222 tabread \$0-theta_start;
#X obj 242 249 tabread \$0-theta_end;
#N canvas 962 343 452 413 ran-pos 0;
#X obj 72 201 inlet;
#X obj 72 261 outlet;
#X obj 72 230 translateXYZ 0 0 0;
#X connect 0 0 2 0;
#X connect 2 0 1 0;
#X restore 26 -15 pd ran-pos;
#X obj 26 -43 gemhead 100;
#N canvas 717 269 452 413 ro-angle 0;
#X msg 107 174 \$1 4000;
#X obj 107 197 line;
#X msg 176 173 \$1 4000;
#X obj 176 196 line;
#X msg 244 172 \$1 4000;
#X obj 244 195 line;
#X obj 55 187 inlet;
#X obj 77 285 outlet;
#X obj 173 45 inlet;
#X obj 72 230 rotateXYZ 0 0 0;
#X obj 85 116 randomF 180;
#X obj 181 118 randomF 180;
#X obj 270 118 randomF 180;
#X connect 0 0 1 0;
#X connect 1 0 9 1;
#X connect 2 0 3 0;
#X connect 3 0 9 2;
#X connect 4 0 5 0;
#X connect 5 0 9 3;
#X connect 6 0 9 0;
#X connect 8 0 10 0;
#X connect 8 0 11 0;
#X connect 8 0 12 0;
#X connect 9 0 7 0;
#X connect 10 0 0 0;
#X connect 11 0 2 0;
#X connect 12 0 4 0;
#X restore 26 11 pd ro-angle;
#X obj 225 -3 line;
#X obj 225 -51 r \$0-start;
#X obj 104 -81 metro 4000;
#X obj 104 -59 t b b;
#X obj 104 -107 r \$0-go;
#X obj -227 -120 r \$0-show;
#X obj -227 -96 sel 0 1;
#X obj -227 -73 del 2000;
#X msg -158 -29 1;
#X msg -235 -50 0;
#X obj 77 265 r \$0-face;
#X msg 225 -25 0 \, 1 3000;
#N canvas 763 520 636 311 color 0;
#X obj 155 -44 inlet;
#X obj 155 167 outlet;
#X obj 155 72 separator;
#X msg 126 45 auto 1;
#X obj 155 94 alpha;
#X obj 384 -39 r \$0-show;
#X obj 384 -15 sel 0 1;
#X msg 384 19 0;
#X obj 382 74 line;
#X msg 382 54 \$1 2000;
#X obj 260 31 f;
#X obj 288 31 + 1;
#X obj 260 54 sel 0;
#X obj 260 111 *;
#X obj 316 31 % 2;
#X msg 36 118 draw line;
#X obj 7 -4 loadbang;
#X obj 155 132 colorRGB 0.8 0.8 0.8 0;
#X obj 36 85 sel 0 1;
#X msg 49 150 draw fill;
#X msg 8 26 0;
#X obj 101 44 tgl 15 0 empty empty empty 17 7 0 10 -262144 -1 -1 1
1;
#X msg 411 18 0.5;
#X obj 260 82 randomF 0.8;
#X msg 30 190 0.9;
#X floatatom 49 215 5 0 0 0 - - -;
#X msg 73 188 0.3;
#X obj 155 -2 t a b b;
#X obj 219 -53 f;
#X obj 247 -53 + 1;
#X obj 275 -53 % 20;
#X obj 219 -28 sel 0;
#X obj 219 -3 f;
#X obj 247 -3 + 1;
#X obj 275 -3 % 2;
#X connect 0 0 27 0;
#X connect 2 0 4 0;
#X connect 3 0 4 0;
#X connect 4 0 17 0;
#X connect 5 0 6 0;
#X connect 6 0 7 0;
#X connect 6 1 22 0;
#X connect 7 0 9 0;
#X connect 8 0 13 1;
#X connect 9 0 8 0;
#X connect 10 0 11 0;
#X connect 10 0 12 0;
#X connect 11 0 14 0;
#X connect 12 0 23 0;
#X connect 13 0 17 4;
#X connect 14 0 10 1;
#X connect 15 0 1 0;
#X connect 16 0 3 0;
#X connect 16 0 20 0;
#X connect 16 0 21 0;
#X connect 17 0 1 0;
#X connect 18 0 15 0;
#X connect 18 0 24 0;
#X connect 18 1 19 0;
#X connect 18 1 26 0;
#X connect 19 0 1 0;
#X connect 20 0 18 0;
#X connect 21 0 4 1;
#X connect 22 0 9 0;
#X connect 23 0 13 0;
#X connect 24 0 25 0;
#X connect 25 0 23 1;
#X connect 26 0 25 0;
#X connect 27 0 2 0;
#X connect 27 1 10 0;
#X connect 27 2 28 0;
#X connect 28 0 29 0;
#X connect 28 0 31 0;
#X connect 29 0 30 0;
#X connect 30 0 28 1;
#X connect 31 0 32 0;
#X connect 32 0 33 0;
#X connect 32 0 18 0;
#X connect 33 0 34 0;
#X connect 34 0 32 1;
#X restore -235 193 pd color;
#N canvas 829 222 478 494 counter 0;
#X obj -153 86 t a b;
#X obj -153 58 repeat 10;
#X obj -126 109 f 0;
#X obj -98 110 + 1;
#X obj -69 109 % 10;
#X obj -153 152 repeat 11;
#X obj -126 201 f 0;
#X obj -99 201 + 1;
#X obj -153 177 t a b;
#X obj -72 201 % 11;
#X obj -126 225 pack f f;
#X msg -126 252 \$2 \$1;
#X obj -126 272 unpack;
#X obj -35 306 *;
#X obj -20 255 r \$0-div;
#X obj -20 278 + 1;
#X obj -95 296 t f f;
#X obj -35 331 +;
#X obj -146 298 t f f;
#X floatatom -35 354 5 0 0 0 - - -;
#X floatatom -95 320 5 0 0 0 - - -;
#X floatatom -146 320 5 0 0 0 - - -;
#X obj -153 26 inlet;
#X obj -192 352 separator;
#X obj -192 377 outlet;
#X obj -35 381 outlet;
#X obj -148 404 outlet;
#X obj -92 406 outlet;
#X connect 0 0 5 0;
#X connect 0 1 2 0;
#X connect 1 0 0 0;
#X connect 2 0 3 0;
#X connect 2 0 10 1;
#X connect 3 0 4 0;
#X connect 4 0 2 1;
#X connect 5 0 8 0;
#X connect 6 0 7 0;
#X connect 6 0 10 0;
#X connect 7 0 9 0;
#X connect 8 0 23 0;
#X connect 8 1 6 0;
#X connect 9 0 6 1;
#X connect 10 0 11 0;
#X connect 11 0 12 0;
#X connect 12 0 18 0;
#X connect 12 1 16 0;
#X connect 13 0 17 0;
#X connect 14 0 15 0;
#X connect 15 0 13 1;
#X connect 16 0 20 0;
#X connect 16 1 17 1;
#X connect 17 0 19 0;
#X connect 18 0 21 0;
#X connect 18 1 13 0;
#X connect 19 0 25 0;
#X connect 20 0 27 0;
#X connect 21 0 26 0;
#X connect 22 0 1 0;
#X connect 23 0 24 0;
#X restore 26 83 pd counter;
#X obj 139 95 t f f;
#N canvas 605 289 661 431 rectaangle 0;
#X obj 87 353 alpha;
#X obj -216 346 alpha;
#X obj 22 125 t f f f;
#X obj 22 72 inlet;
#X floatatom 22 100 5 0 0 0 - - -;
#X obj -216 123 inlet;
#X msg 1 259 auto 1;
#X msg -201 248 auto 1;
#X obj 87 218 separator;
#X obj -216 180 separator;
#X obj -216 146 t a a a;
#X obj 87 328 colorRGB 1 1 1 0.3;
#X obj -174 348 tgl 15 0 empty empty empty 17 7 0 10 -262144 -1 -1
1 1;
#X obj 48 260 tgl 15 0 empty empty empty 17 7 0 10 -262144 -1 -1 1
1;
#X obj -129 174 r \$0-show;
#X obj -129 198 sel 0 1;
#X msg -129 244 0;
#X obj -87 288 line;
#X msg -87 268 \$1 2000;
#X obj 170 182 r \$0-show;
#X obj 170 207 sel 0 1;
#X msg 173 248 0;
#X obj 212 297 line;
#X msg 212 277 \$1 2000;
#X obj 87 379 scale;
#X obj 88 401 rectangle 0.2 1;
#X obj -216 382 scale;
#X obj -216 404 rectangle 1 0.2;
#X obj -216 319 colorRGB 1 1 1 0;
#X obj 105 21 inlet;
#X obj 105 48 tabread \$0-kk;
#X obj 105 105 sel 0 1;
#X msg 105 128 1 1 1;
#X msg 145 128 1 0 0;
#X obj -188 286 unpack f f f;
#X obj 109 291 unpack f f f;
#X msg -110 222 0.6;
#X msg 189 231 0.6;
#X obj -153 357 * 1;
#X obj 150 354 * 1;
#X obj 1 219 loadbang;
#X obj -201 226 loadbang;
#X obj 105 73 expr if(abs($f1)> 30 \, 1 \, 0);
#X connect 0 0 24 0;
#X connect 1 0 26 0;
#X connect 2 0 38 0;
#X connect 2 1 39 0;
#X connect 3 0 4 0;
#X connect 4 0 2 0;
#X connect 5 0 10 0;
#X connect 6 0 0 0;
#X connect 7 0 1 0;
#X connect 8 0 11 0;
#X connect 9 0 28 0;
#X connect 10 0 9 0;
#X connect 10 1 8 0;
#X connect 11 0 0 0;
#X connect 12 0 1 1;
#X connect 13 0 0 1;
#X connect 14 0 15 0;
#X connect 15 0 16 0;
#X connect 15 1 36 0;
#X connect 16 0 18 0;
#X connect 17 0 28 4;
#X connect 18 0 17 0;
#X connect 19 0 20 0;
#X connect 20 0 21 0;
#X connect 20 1 37 0;
#X connect 21 0 23 0;
#X connect 22 0 11 4;
#X connect 23 0 22 0;
#X connect 24 0 25 0;
#X connect 26 0 27 0;
#X connect 28 0 1 0;
#X connect 29 0 30 0;
#X connect 30 0 42 0;
#X connect 31 0 32 0;
#X connect 31 1 33 0;
#X connect 32 0 35 0;
#X connect 32 0 34 0;
#X connect 33 0 35 0;
#X connect 33 0 34 0;
#X connect 34 0 28 1;
#X connect 34 1 28 2;
#X connect 34 2 28 3;
#X connect 35 0 11 1;
#X connect 35 1 11 2;
#X connect 35 2 11 3;
#X connect 36 0 18 0;
#X connect 37 0 23 0;
#X connect 38 0 26 1;
#X connect 39 0 24 1;
#X connect 40 0 6 0;
#X connect 40 0 13 0;
#X connect 41 0 7 0;
#X connect 41 0 12 0;
#X connect 42 0 31 0;
#X restore 28 334 pd rectaangle;
#X obj 49 192 unpack f f f;
#X obj -235 162 separator;
#X obj -158 -54 del 100;
#X obj -235 221 sphere3d 1 10;
#X obj -158 116 r \$0-sphose-pos;
#X obj -158 140 spigot;
#X obj -100 145 r \$0-mophin;
#N canvas 639 505 450 300 color 0;
#X obj 158 -28 inlet;
#X obj 155 167 outlet;
#X obj 155 72 separator;
#X msg 99 49 auto 1;
#X obj 155 94 alpha;
#X obj 351 -53 r \$0-show;
#X obj 351 -29 sel 0 1;
#X msg 343 17 0;
#X obj 341 72 line;
#X msg 341 52 \$1 2000;
#X obj 158 -2 t a b;
#X obj 185 21 f;
#X obj 213 21 + 1;
#X obj 232 44 sel 0;
#X obj 289 111 *;
#X obj 241 21 % 2;
#X obj 73 115 loadbang;
#X msg 73 138 draw fill;
#X obj 105 94 tgl 15 0 empty empty empty 17 7 0 10 -262144 -1 -1 1
1;
#X obj 155 119 colorRGB 0 0 0 0;
#X obj 232 67 randomF 0.5;
#X msg 371 16 0.5;
#X connect 0 0 10 0;
#X connect 2 0 4 0;
#X connect 3 0 4 0;
#X connect 4 0 19 0;
#X connect 5 0 6 0;
#X connect 6 0 7 0;
#X connect 6 1 21 0;
#X connect 7 0 9 0;
#X connect 8 0 14 1;
#X connect 9 0 8 0;
#X connect 10 0 2 0;
#X connect 10 1 11 0;
#X connect 11 0 12 0;
#X connect 11 0 13 0;
#X connect 12 0 15 0;
#X connect 13 0 20 0;
#X connect 14 0 19 4;
#X connect 15 0 11 1;
#X connect 16 0 17 0;
#X connect 16 0 3 0;
#X connect 16 0 18 0;
#X connect 17 0 1 0;
#X connect 18 0 4 1;
#X connect 19 0 1 0;
#X connect 20 0 14 0;
#X connect 21 0 9 0;
#X restore -124 232 pd color;
#X obj -124 201 separator;
#X obj -124 260 sphere3d 1 10;
#X obj -235 136 t a a;
#X obj 26 44 separator;
#X obj -61 46 s \$0-gemhead;
#X obj -235 108 separator;
#X obj -235 82 r \$0-gemhead;
#X connect 0 0 1 1;
#X connect 1 0 2 0;
#X connect 2 0 25 0;
#X connect 3 0 4 1;
#X connect 4 0 5 0;
#X connect 5 0 23 0;
#X connect 6 0 4 0;
#X connect 6 0 9 0;
#X connect 7 0 8 0;
#X connect 8 0 16 0;
#X connect 9 0 24 0;
#X connect 9 1 22 0;
#X connect 9 2 23 1;
#X connect 10 0 27 0;
#X connect 10 1 26 0;
#X connect 10 2 25 1;
#X connect 11 0 12 0;
#X connect 11 1 10 0;
#X connect 11 2 6 0;
#X connect 11 3 9 0;
#X connect 12 0 1 0;
#X connect 13 0 15 0;
#X connect 13 1 12 1;
#X connect 13 2 6 1;
#X connect 14 0 21 0;
#X connect 15 0 7 0;
#X connect 16 0 8 1;
#X connect 16 0 11 0;
#X connect 17 0 47 0;
#X connect 17 1 20 1;
#X connect 17 2 20 2;
#X connect 18 0 15 1;
#X connect 18 0 16 1;
#X connect 19 0 46 1;
#X connect 20 0 46 0;
#X connect 21 0 20 0;
#X connect 22 0 5 1;
#X connect 22 0 3 1;
#X connect 24 0 3 0;
#X connect 26 0 2 1;
#X connect 26 0 0 1;
#X connect 27 0 0 0;
#X connect 28 0 30 0;
#X connect 29 0 28 0;
#X connect 30 0 58 0;
#X connect 30 0 59 0;
#X connect 31 0 13 0;
#X connect 32 0 42 0;
#X connect 33 0 34 0;
#X connect 34 1 30 1;
#X connect 35 0 33 0;
#X connect 36 0 37 0;
#X connect 37 0 38 0;
#X connect 37 1 49 0;
#X connect 38 0 40 0;
#X connect 39 0 29 0;
#X connect 40 0 29 0;
#X connect 41 0 19 0;
#X connect 42 0 31 0;
#X connect 43 0 50 0;
#X connect 44 0 14 0;
#X connect 44 1 17 0;
#X connect 44 2 17 1;
#X connect 44 3 45 0;
#X connect 45 0 17 2;
#X connect 45 1 46 2;
#X connect 47 0 21 1;
#X connect 47 1 21 2;
#X connect 47 2 21 3;
#X connect 48 0 43 0;
#X connect 49 0 39 0;
#X connect 51 0 52 0;
#X connect 52 0 50 0;
#X connect 52 0 56 0;
#X connect 53 0 52 1;
#X connect 54 0 56 0;
#X connect 55 0 54 0;
#X connect 57 0 48 0;
#X connect 57 1 55 0;
#X connect 58 0 44 0;
#X connect 60 0 57 0;
#X connect 61 0 60 0;
#X restore 36 437 pd motion==================================;
#X obj 341 184 table \$0-x 110;
#X obj 342 207 table \$0-y 110;
#X obj 343 229 table \$0-z 110;
#X obj 344 257 table \$0-x1 110;
#X obj 345 280 table \$0-y1 110;
#X obj 346 302 table \$0-z1 110;
#X obj 343 324 table \$0-r1 110;
#X obj 343 350 table \$0-r2 110;
#X obj 344 373 table \$0-r3 110;
#X obj 106 150 tgl 15 0 empty empty noise 16 7 0 10 -262144 -1 -1 0
1;
#X obj 341 156 table \$0-kk 110;
#X obj 106 170 tgl 15 0 empty empty return 16 7 0 10 -262144 -1 -1
0 1;
#X obj 186 45 loadbang;
#X obj 16 112 s \$0-mophin;
#X obj 106 127 tgl 15 0 empty empty togle 16 7 0 10 -262144 -1 -1 1
1;
#N canvas 930 119 507 591 control 0;
#X obj 104 126 tgl 30 0 empty empty empty 17 7 0 10 -262144 -1 -1 1
1;
#X obj 46 308 + 1;
#X obj 104 43 loadbang;
#X obj 104 176 metro 500;
#X floatatom 104 105 5 0 0 0 - - -;
#X msg 104 66 2000;
#X obj 253 118 / 2;
#X obj 237 144 +;
#X floatatom 237 165 5 0 0 0 - - -;
#N canvas 920 253 520 526 target 0;
#X obj -72 157 translateXYZ;
#N canvas 589 109 339 585 pos 0;
#X floatatom 85 87 5 0 0 0 - - -;
#X obj 85 63 inlet;
#X obj 85 116 t f f f f;
#X obj 44 270 tabread \$0-x;
#X obj 71 308 tabread \$0-y;
#X obj 98 339 tabread \$0-z;
#X obj 160 213 tabread \$0-kk;
#X obj 160 245 * 1;
#X obj 44 374 * 0;
#X obj 71 374 * 0;
#X obj 98 374 * 0;
#X obj 253 212 r \$0-length;
#X obj 160 273 + 1;
#N canvas 366 338 450 300 tran 0;
#X obj -15 132 r \$0-radius;
#X obj -114 87 inlet;
#X obj -104 231 outlet;
#X obj -56 233 outlet;
#X obj -15 231 outlet;
#X obj -76 88 inlet;
#X obj -30 94 inlet;
#X obj -36 181 * 1;
#X obj -84 180 * 1;
#X obj -115 179 * 1;
#X connect 0 0 7 1;
#X connect 0 0 8 1;
#X connect 0 0 9 1;
#X connect 1 0 9 0;
#X connect 5 0 8 0;
#X connect 6 0 7 0;
#X connect 7 0 4 0;
#X connect 8 0 3 0;
#X connect 9 0 2 0;
#X restore 44 415 pd tran;
#X obj 54 555 outlet;
#X obj 109 555 outlet;
#X obj 170 551 outlet;
#X obj 57 522 line;
#X obj 102 523 line;
#X obj 151 520 line;
#X obj 51 466 t f b;
#X floatatom 78 489 5 0 0 0 - - -;
#X obj 104 463 t f b;
#X floatatom 131 486 5 0 0 0 - - -;
#X obj 153 463 t f b;
#X floatatom 180 486 5 0 0 0 - - -;
#X obj 206 390 inlet;
#X connect 0 0 2 0;
#X connect 1 0 0 0;
#X connect 2 0 3 0;
#X connect 2 1 4 0;
#X connect 2 2 5 0;
#X connect 2 3 6 0;
#X connect 3 0 8 0;
#X connect 4 0 9 0;
#X connect 5 0 10 0;
#X connect 6 0 7 0;
#X connect 7 0 12 0;
#X connect 8 0 13 0;
#X connect 9 0 13 1;
#X connect 10 0 13 2;
#X connect 11 0 7 1;
#X connect 12 0 8 1;
#X connect 12 0 9 1;
#X connect 12 0 10 1;
#X connect 13 0 20 0;
#X connect 13 1 22 0;
#X connect 13 2 24 0;
#X connect 17 0 14 0;
#X connect 18 0 15 0;
#X connect 19 0 16 0;
#X connect 20 0 17 0;
#X connect 20 1 21 0;
#X connect 21 0 17 1;
#X connect 22 0 18 0;
#X connect 22 1 23 0;
#X connect 23 0 18 1;
#X connect 24 0 19 0;
#X connect 24 1 25 0;
#X connect 25 0 19 1;
#X connect 26 0 21 0;
#X connect 26 0 23 0;
#X connect 26 0 25 0;
#X restore 52 90 pd pos;
#X floatatom 52 56 5 0 0 0 - - -;
#X msg -141 261 draw line;
#X obj -141 233 loadbang;
#X obj -72 252 separator;
#X obj -46 404 separator;
#X obj 16 294 separator;
#X obj -121 332 separator;
#X obj -46 480 cube 0.1;
#X obj 17 359 cube 0.1;
#X obj -121 400 cube 0.1;
#X obj -121 376 color 1 1 1;
#X obj 17 336 color 1 1 1;
#X obj -46 455 color 1 1 1;
#X obj -72 129 separator;
#X obj -72 103 r \$0-gemhead;
#X obj -72 276 color 1 1 1;
#X obj -72 310 cube 0.05;
#X obj 52 119 pack f f f;
#N canvas 717 269 452 413 ro-angle 0;
#X msg 88 137 \$1 4000;
#X obj 88 160 line;
#X msg 176 173 \$1 4000;
#X obj 176 196 line;
#X msg 264 155 \$1 4000;
#X obj 264 178 line;
#X obj 55 187 inlet;
#X obj 77 285 outlet;
#X obj 173 45 inlet;
#X obj 72 230 rotateXYZ 0 0 0;
#X obj 88 113 randomF 360;
#X obj 176 145 randomF 360;
#X obj 264 133 randomF 360;
#X connect 0 0 1 0;
#X connect 1 0 9 1;
#X connect 2 0 3 0;
#X connect 3 0 9 2;
#X connect 4 0 5 0;
#X connect 5 0 9 3;
#X connect 6 0 9 0;
#X connect 8 0 10 0;
#X connect 8 0 11 0;
#X connect 8 0 12 0;
#X connect 9 0 7 0;
#X connect 10 0 0 0;
#X connect 11 0 2 0;
#X connect 12 0 4 0;
#X restore -72 189 pd ro-angle;
#X obj -72 221 t a a a a;
#X obj 168 249 outlet;
#X obj 52 23 inlet;
#X obj 122 33 inlet;
#X obj 16 316 scaleXYZ 0.02 4 0.02;
#X obj -46 431 scaleXYZ 0.02 0.02 4;
#X obj -121 356 scaleXYZ 4 0.02 0.02;
#X obj 188 54 inlet;
#X connect 0 0 20 0;
#X connect 1 0 0 1;
#X connect 1 0 19 0;
#X connect 1 1 0 2;
#X connect 1 1 19 1;
#X connect 1 2 0 3;
#X connect 1 2 19 2;
#X connect 2 0 1 0;
#X connect 3 0 18 0;
#X connect 4 0 3 0;
#X connect 5 0 17 0;
#X connect 6 0 26 0;
#X connect 7 0 25 0;
#X connect 8 0 27 0;
#X connect 12 0 11 0;
#X connect 13 0 10 0;
#X connect 14 0 9 0;
#X connect 15 0 0 0;
#X connect 16 0 15 0;
#X connect 17 0 18 0;
#X connect 19 0 22 0;
#X connect 20 0 21 0;
#X connect 21 0 5 0;
#X connect 21 1 8 0;
#X connect 21 2 6 0;
#X connect 21 3 7 0;
#X connect 23 0 2 0;
#X connect 24 0 1 1;
#X connect 25 0 13 0;
#X connect 26 0 14 0;
#X connect 27 0 12 0;
#X connect 28 0 20 1;
#X restore 14 433 pd target;
#N canvas 687 206 520 526 target 0;
#X obj -72 157 translateXYZ;
#N canvas 589 109 339 585 pos 0;
#X floatatom 85 87 5 0 0 0 - - -;
#X obj 85 63 inlet;
#X obj 85 116 t f f f f;
#X obj 44 270 tabread \$0-x;
#X obj 71 308 tabread \$0-y;
#X obj 98 339 tabread \$0-z;
#X obj 160 213 tabread \$0-kk;
#X obj 160 245 * 1;
#X obj 44 374 * 0;
#X obj 71 374 * 0;
#X obj 98 374 * 0;
#X obj 253 212 r \$0-length;
#X obj 160 273 + 1;
#N canvas 366 338 450 300 tran 0;
#X obj -15 132 r \$0-radius;
#X obj -114 87 inlet;
#X obj -104 231 outlet;
#X obj -56 233 outlet;
#X obj -15 231 outlet;
#X obj -76 88 inlet;
#X obj -30 94 inlet;
#X obj -36 181 * 1;
#X obj -84 180 * 1;
#X obj -115 179 * 1;
#X connect 0 0 7 1;
#X connect 0 0 8 1;
#X connect 0 0 9 1;
#X connect 1 0 9 0;
#X connect 5 0 8 0;
#X connect 6 0 7 0;
#X connect 7 0 4 0;
#X connect 8 0 3 0;
#X connect 9 0 2 0;
#X restore 44 415 pd tran;
#X obj 54 555 outlet;
#X obj 109 555 outlet;
#X obj 170 551 outlet;
#X obj 57 522 line;
#X obj 102 523 line;
#X obj 151 520 line;
#X obj 51 466 t f b;
#X floatatom 78 489 5 0 0 0 - - -;
#X obj 104 463 t f b;
#X floatatom 131 486 5 0 0 0 - - -;
#X obj 153 463 t f b;
#X floatatom 180 486 5 0 0 0 - - -;
#X obj 206 390 inlet;
#X connect 0 0 2 0;
#X connect 1 0 0 0;
#X connect 2 0 3 0;
#X connect 2 1 4 0;
#X connect 2 2 5 0;
#X connect 2 3 6 0;
#X connect 3 0 8 0;
#X connect 4 0 9 0;
#X connect 5 0 10 0;
#X connect 6 0 7 0;
#X connect 7 0 12 0;
#X connect 8 0 13 0;
#X connect 9 0 13 1;
#X connect 10 0 13 2;
#X connect 11 0 7 1;
#X connect 12 0 8 1;
#X connect 12 0 9 1;
#X connect 12 0 10 1;
#X connect 13 0 20 0;
#X connect 13 1 22 0;
#X connect 13 2 24 0;
#X connect 17 0 14 0;
#X connect 18 0 15 0;
#X connect 19 0 16 0;
#X connect 20 0 17 0;
#X connect 20 1 21 0;
#X connect 21 0 17 1;
#X connect 22 0 18 0;
#X connect 22 1 23 0;
#X connect 23 0 18 1;
#X connect 24 0 19 0;
#X connect 24 1 25 0;
#X connect 25 0 19 1;
#X connect 26 0 21 0;
#X connect 26 0 23 0;
#X connect 26 0 25 0;
#X restore 52 90 pd pos;
#X floatatom 52 56 5 0 0 0 - - -;
#X msg -141 261 draw line;
#X obj -141 233 loadbang;
#X obj -72 252 separator;
#X obj -46 404 separator;
#X obj 16 294 separator;
#X obj -121 332 separator;
#X obj -46 480 cube 0.1;
#X obj 17 359 cube 0.1;
#X obj -121 400 cube 0.1;
#X obj -121 376 color 1 1 1;
#X obj 17 336 color 1 1 1;
#X obj -46 455 color 1 1 1;
#X obj -72 129 separator;
#X obj -72 103 r \$0-gemhead;
#X obj -72 276 color 1 1 1;
#X obj -72 298 cube 0.05;
#X obj 52 119 pack f f f;
#N canvas 717 269 452 413 ro-angle 0;
#X msg 88 137 \$1 4000;
#X obj 88 160 line;
#X msg 176 173 \$1 4000;
#X obj 176 196 line;
#X msg 264 155 \$1 4000;
#X obj 264 178 line;
#X obj 55 187 inlet;
#X obj 77 285 outlet;
#X obj 173 45 inlet;
#X obj 72 230 rotateXYZ 0 0 0;
#X obj 88 113 randomF 360;
#X obj 176 145 randomF 360;
#X obj 264 133 randomF 360;
#X connect 0 0 1 0;
#X connect 1 0 9 1;
#X connect 2 0 3 0;
#X connect 3 0 9 2;
#X connect 4 0 5 0;
#X connect 5 0 9 3;
#X connect 6 0 9 0;
#X connect 8 0 10 0;
#X connect 8 0 11 0;
#X connect 8 0 12 0;
#X connect 9 0 7 0;
#X connect 10 0 0 0;
#X connect 11 0 2 0;
#X connect 12 0 4 0;
#X restore -72 189 pd ro-angle;
#X obj -72 221 t a a a a;
#X obj 168 249 outlet;
#X obj 52 23 inlet;
#X obj 122 33 inlet;
#X obj 16 316 scaleXYZ 0.02 4 0.02;
#X obj -46 431 scaleXYZ 0.02 0.02 4;
#X obj -121 356 scaleXYZ 4 0.02 0.02;
#X obj 178 44 inlet;
#X connect 0 0 20 0;
#X connect 1 0 0 1;
#X connect 1 0 19 0;
#X connect 1 1 0 2;
#X connect 1 1 19 1;
#X connect 1 2 0 3;
#X connect 1 2 19 2;
#X connect 2 0 1 0;
#X connect 3 0 18 0;
#X connect 4 0 3 0;
#X connect 5 0 17 0;
#X connect 6 0 26 0;
#X connect 7 0 25 0;
#X connect 8 0 27 0;
#X connect 12 0 11 0;
#X connect 13 0 10 0;
#X connect 14 0 9 0;
#X connect 15 0 0 0;
#X connect 16 0 15 0;
#X connect 17 0 18 0;
#X connect 19 0 22 0;
#X connect 20 0 21 0;
#X connect 21 0 5 0;
#X connect 21 1 8 0;
#X connect 21 2 6 0;
#X connect 21 3 7 0;
#X connect 23 0 2 0;
#X connect 24 0 1 1;
#X connect 25 0 13 0;
#X connect 26 0 14 0;
#X connect 27 0 12 0;
#X connect 28 0 20 1;
#X restore 85 434 pd target;
#N canvas 758 206 520 526 target 0;
#X obj -72 157 translateXYZ;
#N canvas 589 109 339 585 pos 0;
#X floatatom 85 87 5 0 0 0 - - -;
#X obj 85 63 inlet;
#X obj 85 116 t f f f f;
#X obj 44 270 tabread \$0-x;
#X obj 71 308 tabread \$0-y;
#X obj 98 339 tabread \$0-z;
#X obj 160 213 tabread \$0-kk;
#X obj 160 245 * 1;
#X obj 44 374 * 0;
#X obj 71 374 * 0;
#X obj 98 374 * 0;
#X obj 253 212 r \$0-length;
#X obj 160 273 + 1;
#N canvas 366 338 450 300 tran 0;
#X obj -15 132 r \$0-radius;
#X obj -114 87 inlet;
#X obj -104 231 outlet;
#X obj -56 233 outlet;
#X obj -15 231 outlet;
#X obj -76 88 inlet;
#X obj -30 94 inlet;
#X obj -36 181 * 1;
#X obj -84 180 * 1;
#X obj -115 179 * 1;
#X connect 0 0 7 1;
#X connect 0 0 8 1;
#X connect 0 0 9 1;
#X connect 1 0 9 0;
#X connect 5 0 8 0;
#X connect 6 0 7 0;
#X connect 7 0 4 0;
#X connect 8 0 3 0;
#X connect 9 0 2 0;
#X restore 44 415 pd tran;
#X obj 54 555 outlet;
#X obj 109 555 outlet;
#X obj 170 551 outlet;
#X obj 57 522 line;
#X obj 102 523 line;
#X obj 151 520 line;
#X obj 51 466 t f b;
#X floatatom 78 489 5 0 0 0 - - -;
#X obj 104 463 t f b;
#X floatatom 131 486 5 0 0 0 - - -;
#X obj 153 463 t f b;
#X floatatom 180 486 5 0 0 0 - - -;
#X obj 206 390 inlet;
#X connect 0 0 2 0;
#X connect 1 0 0 0;
#X connect 2 0 3 0;
#X connect 2 1 4 0;
#X connect 2 2 5 0;
#X connect 2 3 6 0;
#X connect 3 0 8 0;
#X connect 4 0 9 0;
#X connect 5 0 10 0;
#X connect 6 0 7 0;
#X connect 7 0 12 0;
#X connect 8 0 13 0;
#X connect 9 0 13 1;
#X connect 10 0 13 2;
#X connect 11 0 7 1;
#X connect 12 0 8 1;
#X connect 12 0 9 1;
#X connect 12 0 10 1;
#X connect 13 0 20 0;
#X connect 13 1 22 0;
#X connect 13 2 24 0;
#X connect 17 0 14 0;
#X connect 18 0 15 0;
#X connect 19 0 16 0;
#X connect 20 0 17 0;
#X connect 20 1 21 0;
#X connect 21 0 17 1;
#X connect 22 0 18 0;
#X connect 22 1 23 0;
#X connect 23 0 18 1;
#X connect 24 0 19 0;
#X connect 24 1 25 0;
#X connect 25 0 19 1;
#X connect 26 0 21 0;
#X connect 26 0 23 0;
#X connect 26 0 25 0;
#X restore 52 90 pd pos;
#X floatatom 52 56 5 0 0 0 - - -;
#X msg -141 261 draw line;
#X obj -141 233 loadbang;
#X obj -72 252 separator;
#X obj -46 404 separator;
#X obj 16 294 separator;
#X obj -121 332 separator;
#X obj -46 480 cube 0.1;
#X obj 17 359 cube 0.1;
#X obj -121 400 cube 0.1;
#X obj -121 376 color 1 1 1;
#X obj 17 336 color 1 1 1;
#X obj -46 455 color 1 1 1;
#X obj -72 129 separator;
#X obj -72 103 r \$0-gemhead;
#X obj -72 276 color 1 1 1;
#X obj -72 298 cube 0.05;
#X obj 52 119 pack f f f;
#N canvas 717 269 452 413 ro-angle 0;
#X msg 88 137 \$1 4000;
#X obj 88 160 line;
#X msg 176 173 \$1 4000;
#X obj 176 196 line;
#X msg 264 155 \$1 4000;
#X obj 264 178 line;
#X obj 55 187 inlet;
#X obj 77 285 outlet;
#X obj 173 45 inlet;
#X obj 72 230 rotateXYZ 0 0 0;
#X obj 88 113 randomF 360;
#X obj 176 145 randomF 360;
#X obj 264 133 randomF 360;
#X connect 0 0 1 0;
#X connect 1 0 9 1;
#X connect 2 0 3 0;
#X connect 3 0 9 2;
#X connect 4 0 5 0;
#X connect 5 0 9 3;
#X connect 6 0 9 0;
#X connect 8 0 10 0;
#X connect 8 0 11 0;
#X connect 8 0 12 0;
#X connect 9 0 7 0;
#X connect 10 0 0 0;
#X connect 11 0 2 0;
#X connect 12 0 4 0;
#X restore -72 189 pd ro-angle;
#X obj -72 221 t a a a a;
#X obj 168 249 outlet;
#X obj 52 23 inlet;
#X obj 122 33 inlet;
#X obj 15 316 scaleXYZ 0.02 4 0.02;
#X obj -46 431 scaleXYZ 0.02 0.02 4;
#X obj -121 356 scaleXYZ 4 0.02 0.02;
#X obj 168 34 inlet;
#X connect 0 0 20 0;
#X connect 1 0 0 1;
#X connect 1 0 19 0;
#X connect 1 1 0 2;
#X connect 1 1 19 1;
#X connect 1 2 0 3;
#X connect 1 2 19 2;
#X connect 2 0 1 0;
#X connect 3 0 18 0;
#X connect 4 0 3 0;
#X connect 5 0 17 0;
#X connect 6 0 26 0;
#X connect 7 0 25 0;
#X connect 8 0 27 0;
#X connect 12 0 11 0;
#X connect 13 0 10 0;
#X connect 14 0 9 0;
#X connect 15 0 0 0;
#X connect 16 0 15 0;
#X connect 17 0 18 0;
#X connect 19 0 22 0;
#X connect 20 0 21 0;
#X connect 21 0 5 0;
#X connect 21 1 8 0;
#X connect 21 2 6 0;
#X connect 21 3 7 0;
#X connect 23 0 2 0;
#X connect 24 0 1 1;
#X connect 25 0 13 0;
#X connect 26 0 14 0;
#X connect 27 0 12 0;
#X connect 28 0 20 1;
#X restore 153 433 pd target;
#X obj 13 308 f 15;
#X obj 33 343 f 67;
#X obj 126 305 f 93;
#X obj 187 304 % 109;
#X obj 92 342 % 109;
#X obj 75 307 % 109;
#X obj 63 343 + 2;
#X obj 158 305 + 5;
#X obj 237 60 t f f;
#X floatatom 268 335 5 0 0 0 - - -;
#N canvas 756 247 450 300 curve 0;
#X obj 63 165 separator;
#X obj 63 92 r \$0-gemhead;
#X obj 63 216 curve 2;
#X obj -29 136 loadbang;
#X msg -29 164 draw point;
#X msg -55 194 res 15;
#X obj 63 140 alpha;
#X obj 111 188 inlet;
#X obj 151 188 inlet;
#X obj 63 114 colorRGB 0.4 1 0;
#X connect 0 0 2 0;
#X connect 1 0 9 0;
#X connect 3 0 4 0;
#X connect 3 0 5 0;
#X connect 4 0 2 0;
#X connect 5 0 2 0;
#X connect 6 0 0 0;
#X connect 7 0 2 1;
#X connect 8 0 2 2;
#X connect 9 0 6 0;
#X restore 14 481 pd curve;
#N canvas 241 160 450 300 curve 0;
#X obj 63 165 separator;
#X obj 63 92 r \$0-gemhead;
#X obj 63 216 curve 2;
#X obj -29 136 loadbang;
#X msg -29 164 draw point;
#X msg -55 194 res 15;
#X obj 63 140 alpha;
#X obj 111 188 inlet;
#X obj 151 188 inlet;
#X obj 63 115 colorRGB 0.4 1 0;
#X connect 0 0 2 0;
#X connect 1 0 9 0;
#X connect 3 0 4 0;
#X connect 3 0 5 0;
#X connect 4 0 2 0;
#X connect 5 0 2 0;
#X connect 6 0 0 0;
#X connect 7 0 2 1;
#X connect 8 0 2 2;
#X connect 9 0 6 0;
#X restore 85 481 pd curve;
#N canvas 241 160 450 300 curve 0;
#X obj 63 165 separator;
#X obj 63 92 r \$0-gemhead;
#X obj 63 216 curve 2;
#X obj -29 136 loadbang;
#X msg -29 164 draw point;
#X msg -55 194 res 15;
#X obj 63 140 alpha;
#X obj 111 188 inlet;
#X obj 151 188 inlet;
#X obj 63 114 colorRGB 0.4 1 0;
#X connect 0 0 2 0;
#X connect 1 0 9 0;
#X connect 3 0 4 0;
#X connect 3 0 5 0;
#X connect 4 0 2 0;
#X connect 5 0 2 0;
#X connect 6 0 0 0;
#X connect 7 0 2 1;
#X connect 8 0 2 2;
#X connect 9 0 6 0;
#X restore 55 528 pd curve;
#X obj 104 199 t b b b;
#X obj 126 252 del 0;
#X obj 152 227 del 0;
#X obj 216 193 / 3;
#X obj 216 216 * 2;
#X obj 251 194 / 3;
#X obj 237 84 t f f;
#N canvas 916 315 450 300 curve 0;
#X obj 63 165 separator;
#X obj 63 92 r \$0-gemhead;
#X obj -29 136 loadbang;
#X obj 63 140 alpha;
#X obj 111 188 inlet;
#X obj 151 188 inlet;
#X msg -30 163 draw fill;
#X obj 198 187 inlet;
#X msg -3 97 auto 1;
#X obj 66 242 polygon 3;
#X obj 63 113 colorRGB 0.4 0.9 0 0.5;
#X connect 0 0 9 0;
#X connect 1 0 10 0;
#X connect 2 0 6 0;
#X connect 2 0 8 0;
#X connect 3 0 0 0;
#X connect 4 0 9 1;
#X connect 5 0 9 2;
#X connect 6 0 9 0;
#X connect 7 0 9 3;
#X connect 8 0 3 0;
#X connect 10 0 3 0;
#X restore 157 511 pd curve;
#X obj 46 100 r \$0-go;
#X connect 0 0 3 0;
#X connect 1 0 17 0;
#X connect 2 0 5 0;
#X connect 3 0 25 0;
#X connect 4 0 20 0;
#X connect 5 0 4 0;
#X connect 6 0 7 1;
#X connect 7 0 8 0;
#X connect 8 0 3 1;
#X connect 8 0 28 0;
#X connect 8 0 30 0;
#X connect 9 0 22 0;
#X connect 9 0 24 0;
#X connect 9 0 32 0;
#X connect 10 0 22 1;
#X connect 10 0 23 0;
#X connect 10 0 32 1;
#X connect 11 0 23 1;
#X connect 11 0 24 1;
#X connect 11 0 32 2;
#X connect 12 0 1 0;
#X connect 12 0 9 0;
#X connect 13 0 18 0;
#X connect 13 0 10 0;
#X connect 14 0 19 0;
#X connect 14 0 11 0;
#X connect 15 0 14 1;
#X connect 16 0 13 1;
#X connect 17 0 12 1;
#X connect 18 0 16 0;
#X connect 19 0 15 0;
#X connect 20 0 31 0;
#X connect 20 1 21 0;
#X connect 21 0 9 1;
#X connect 21 0 10 1;
#X connect 21 0 11 1;
#X connect 25 0 12 0;
#X connect 25 0 9 2;
#X connect 25 1 26 0;
#X connect 25 2 27 0;
#X connect 26 0 14 0;
#X connect 26 0 11 2;
#X connect 27 0 13 0;
#X connect 27 0 10 2;
#X connect 28 0 29 0;
#X connect 29 0 27 1;
#X connect 30 0 26 1;
#X connect 31 0 7 0;
#X connect 31 1 6 0;
#X connect 33 0 0 0;
#X coords 0 -1 1 1 40 60 2 100 100;
#X restore 162 129 pd control;
#N canvas 861 38 480 695 loadbang================================ 0
;
#X obj -96 226 repeat 10;
#X obj -96 325 t b f;
#X obj -96 353 repeat 10;
#X obj -45 289 r \$0-div;
#X obj -45 312 + 1;
#X obj -96 257 t b b;
#X obj -96 421 pack f f;
#X obj -96 291 f 0;
#X obj -68 290 + 1;
#X msg -56 258 0;
#X obj -96 386 f 0;
#X obj -68 386 + 1;
#X msg -32 353 0;
#X msg -96 443 \$2 \$1;
#X obj -96 463 unpack;
#X obj -5 497 *;
#X obj 10 446 r \$0-div;
#X obj 10 469 + 1;
#X obj -65 487 t f f;
#X obj -5 522 +;
#X obj -116 489 t f f;
#X floatatom -5 545 5 0 0 0 - - -;
#X floatatom -65 511 5 0 0 0 - - -;
#X floatatom -116 511 5 0 0 0 - - -;
#N canvas 295 100 1145 680 math-pos======== 0;
#X obj 108 69 inlet;
#X obj 224 66 inlet;
#X obj 332 36 r \$0-div;
#X floatatom 332 86 5 0 0 0 - - -;
#X obj 263 120 expr $f1*$f2;
#X obj 233 154 f;
#X obj 147 119 expr ($f1+1)*$f2;
#X obj 362 174 f;
#X obj 484 344 expr cos($f1);
#X obj 252 302 expr sin($f1)*sin($f2);
#X obj 233 344 expr sin($f1)*cos($f2);
#X obj 49 558 outlet;
#X obj 233 220 deg2rad;
#X obj 233 243 / 2;
#X obj 233 197 * 360;
#X obj 362 217 * 360;
#X obj 362 239 deg2rad;
#X floatatom 362 194 5 0 0 0 - - -;
#X floatatom 233 176 5 0 0 0 - - -;
#X obj 484 370 * 1;
#X obj 365 371 * 1;
#X obj 233 379 * 1;
#X msg 49 520 setCartesian \$1 \$2 \$3 \$4 \$5;
#X obj 233 403 t f f;
#X obj 365 399 t f f;
#X obj 484 399 t f f;
#X obj 108 91 t f b f;
#X obj 224 90 t f b f;
#X obj 511 485 buddy 2;
#X obj 392 486 buddy 2;
#X obj 260 488 buddy 2;
#X obj 260 513 t f f;
#X obj 335 528 t f f;
#X obj 260 554 tabwrite \$0-x;
#X obj 260 580 tabwrite \$0-x1;
#X obj 392 516 t f f;
#X obj 467 527 t f f;
#X obj 511 513 t f f;
#X obj 586 528 t f f;
#X obj 562 397 inlet index;
#X obj 460 279 r \$0-radius;
#X obj 460 301 t f f f;
#X obj 332 61 expr 1/$f1;
#X obj 392 557 tabwrite \$0-y;
#X obj 392 583 tabwrite \$0-y1;
#X obj 511 554 tabwrite \$0-z;
#X obj 511 578 tabwrite \$0-z1;
#X obj 760 493 expr -1*sin($f1);
#X obj 880 488 expr 1*cos($f1);
#X obj 664 478 rad2deg;
#X text 259 244 \$0-theta_motion;
#X text 414 238 \$0-phi_motion;
#X obj 233 269 t f f f f;
#X obj 362 263 t f f f;
#X obj 760 454 t f f;
#X obj 562 424 t f f f f f f f;
#X obj 664 505 buddy 2;
#X obj 664 536 tabwrite \$0-r1;
#X obj 760 526 buddy 2;
#X obj 880 527 buddy 2;
#X obj 760 554 tabwrite \$0-r2;
#X obj 880 556 tabwrite \$0-r3;
#X obj 49 494 pack f f f f f;
#X connect 0 0 26 0;
#X connect 1 0 27 0;
#X connect 2 0 42 0;
#X connect 3 0 4 1;
#X connect 3 0 6 1;
#X connect 4 0 5 0;
#X connect 5 0 18 0;
#X connect 6 0 7 0;
#X connect 7 0 17 0;
#X connect 8 0 19 0;
#X connect 9 0 20 0;
#X connect 10 0 21 0;
#X connect 12 0 13 0;
#X connect 13 0 52 0;
#X connect 14 0 12 0;
#X connect 15 0 16 0;
#X connect 16 0 53 0;
#X connect 17 0 15 0;
#X connect 18 0 14 0;
#X connect 19 0 25 0;
#X connect 20 0 24 0;
#X connect 21 0 23 0;
#X connect 22 0 11 0;
#X connect 23 0 62 2;
#X connect 23 1 30 0;
#X connect 24 0 62 3;
#X connect 24 1 29 0;
#X connect 25 0 62 4;
#X connect 25 1 28 0;
#X connect 26 0 62 0;
#X connect 26 2 6 0;
#X connect 27 0 62 1;
#X connect 27 2 4 0;
#X connect 28 0 37 0;
#X connect 28 1 38 0;
#X connect 29 0 35 0;
#X connect 29 1 36 0;
#X connect 30 0 31 0;
#X connect 30 1 32 0;
#X connect 31 0 33 0;
#X connect 31 1 34 0;
#X connect 32 0 33 1;
#X connect 32 1 34 1;
#X connect 35 0 43 0;
#X connect 35 1 44 0;
#X connect 36 0 43 1;
#X connect 36 1 44 1;
#X connect 37 0 45 0;
#X connect 37 1 46 0;
#X connect 38 0 45 1;
#X connect 38 1 46 1;
#X connect 39 0 55 0;
#X connect 40 0 41 0;
#X connect 41 0 21 1;
#X connect 41 1 20 1;
#X connect 41 2 19 1;
#X connect 42 0 3 0;
#X connect 47 0 58 0;
#X connect 48 0 59 0;
#X connect 49 0 56 0;
#X connect 52 0 10 0;
#X connect 52 1 9 0;
#X connect 52 2 8 0;
#X connect 52 3 49 0;
#X connect 53 0 10 1;
#X connect 53 1 9 1;
#X connect 53 2 54 0;
#X connect 54 0 47 0;
#X connect 54 1 48 0;
#X connect 55 1 30 1;
#X connect 55 2 29 1;
#X connect 55 3 28 1;
#X connect 55 4 56 1;
#X connect 55 5 58 1;
#X connect 55 6 59 1;
#X connect 56 0 57 0;
#X connect 56 1 57 1;
#X connect 58 0 60 0;
#X connect 58 1 60 1;
#X connect 59 0 61 0;
#X connect 59 1 61 1;
#X connect 62 0 22 0;
#X restore -116 573 pd math-pos========;
#X obj -96 173 bng 15 250 50 0 empty empty empty 17 7 0 10 -262144
-1 -1;
#X obj -96 197 t b b;
#X obj 15 572 s \$0-size;
#X obj 215 320 s \$0-radius;
#X obj 133 321 s \$0-length;
#X obj 70 322 s \$0-face;
#X msg 215 295 1;
#X obj 53 261 t b b b b;
#X msg 70 292 0.05;
#X msg 133 294 0.4;
#X obj -116 600 s \$0-sphose-pos;
#X obj -32 98 loadbang;
#X obj 46 139 t b b b b b;
#X obj -45 201 r \$0-div;
#X obj 108 211 s \$0-div;
#X floatatom 108 185 5 3 20 0 - - -;
#X msg 108 163 10;
#X connect 0 0 5 0;
#X connect 1 0 2 0;
#X connect 1 1 6 1;
#X connect 2 0 10 0;
#X connect 3 0 4 0;
#X connect 4 0 2 1;
#X connect 5 0 7 0;
#X connect 5 1 12 0;
#X connect 6 0 13 0;
#X connect 7 0 8 0;
#X connect 7 0 1 0;
#X connect 8 0 7 1;
#X connect 9 0 7 1;
#X connect 10 0 11 0;
#X connect 10 0 6 0;
#X connect 11 0 10 1;
#X connect 12 0 10 1;
#X connect 13 0 14 0;
#X connect 14 0 20 0;
#X connect 14 1 18 0;
#X connect 15 0 19 0;
#X connect 16 0 17 0;
#X connect 17 0 15 1;
#X connect 18 0 22 0;
#X connect 18 1 19 1;
#X connect 19 0 21 0;
#X connect 20 0 23 0;
#X connect 20 1 15 0;
#X connect 21 0 24 2;
#X connect 21 0 27 0;
#X connect 22 0 24 1;
#X connect 23 0 24 0;
#X connect 24 0 35 0;
#X connect 25 0 26 0;
#X connect 26 0 0 0;
#X connect 26 1 9 0;
#X connect 31 0 28 0;
#X connect 32 1 33 0;
#X connect 32 2 34 0;
#X connect 32 3 31 0;
#X connect 33 0 30 0;
#X connect 34 0 29 0;
#X connect 36 0 37 0;
#X connect 37 2 25 0;
#X connect 37 3 32 0;
#X connect 37 4 41 0;
#X connect 38 0 0 1;
#X connect 40 0 39 0;
#X connect 41 0 40 0;
#X restore 35 410 pd loadbang================================;
#X obj 25 142 loadbang;
#X msg 44 212 0.4;
#X msg 25 239 0.02;
#X obj 25 167 t b b b;
#N canvas 0 22 450 300 noise 0;
#X obj 129 32 inlet;
#X obj 129 140 f 1;
#X obj 129 160 +;
#X obj 129 116 repeat 100;
#X obj 129 188 % 100;
#X obj 186 88 r \$0-size;
#X obj 129 336 tabwrite \$0-kk;
#X obj 129 284 tabread \$0-kk;
#X obj 129 313 +;
#X obj 129 209 t f b f;
#X obj 129 62 metro 20;
#X obj 148 232 randomF 0.1;
#X obj 148 257 - 0.05;
#X connect 0 0 10 0;
#X connect 1 0 2 0;
#X connect 2 0 4 0;
#X connect 3 0 1 0;
#X connect 4 0 2 1;
#X connect 4 0 9 0;
#X connect 5 0 3 1;
#X connect 5 0 4 1;
#X connect 7 0 8 0;
#X connect 8 0 6 0;
#X connect 9 0 7 0;
#X connect 9 1 11 0;
#X connect 9 2 6 1;
#X connect 10 0 3 0;
#X connect 11 0 12 0;
#X connect 12 0 8 1;
#X restore -10 303 pd noise;
#N canvas 0 22 450 300 return 0;
#X obj 121 33 inlet;
#X obj 121 137 f 1;
#X obj 121 157 +;
#X obj 121 113 repeat 100;
#X obj 121 185 % 100;
#X obj 178 85 r \$0-size;
#X obj 121 312 tabwrite \$0-kk;
#X obj 121 239 tabread \$0-kk;
#X obj 121 206 t f b f;
#X obj 121 59 metro 20;
#X obj 121 289 * 0.99;
#X connect 0 0 9 0;
#X connect 1 0 2 0;
#X connect 2 0 4 0;
#X connect 3 0 1 0;
#X connect 4 0 2 1;
#X connect 4 0 8 0;
#X connect 5 0 3 1;
#X connect 5 0 4 1;
#X connect 7 0 10 0;
#X connect 8 0 7 0;
#X connect 8 2 6 1;
#X connect 9 0 3 0;
#X connect 10 0 6 0;
#X restore 47 304 pd return;
#X obj 258 78 t f f f;
#N canvas 263 186 450 300 line 0;
#X obj 118 95 inlet;
#X msg 118 127 \$1 1000;
#X obj 118 156 line;
#X obj 118 184 outlet;
#X connect 0 0 1 0;
#X connect 1 0 2 0;
#X connect 2 0 3 0;
#X restore 129 308 pd line;
#N canvas 263 186 450 300 line 0;
#X obj 118 95 inlet;
#X msg 118 127 \$1 1000;
#X obj 118 156 line;
#X obj 118 184 outlet;
#X connect 0 0 1 0;
#X connect 1 0 2 0;
#X connect 2 0 3 0;
#X restore 266 185 pd line;
#N canvas 263 186 450 300 line 0;
#X obj 118 95 inlet;
#X msg 118 127 \$1 1000;
#X obj 118 156 line;
#X obj 118 184 outlet;
#X connect 0 0 1 0;
#X connect 1 0 2 0;
#X connect 2 0 3 0;
#X restore 269 231 pd line;
#X obj 44 359 outlet;
#X obj 73 42 inlet;
#X obj 105 72 pipe 1000;
#X msg 64 190 1;
#X connect 0 0 10 0;
#X connect 1 0 7 0;
#X connect 2 0 6 0;
#X connect 3 0 5 0;
#X connect 4 0 8 0;
#X connect 5 0 40 0;
#X connect 5 0 42 0;
#X connect 6 0 39 0;
#X connect 7 0 41 0;
#X connect 8 0 38 0;
#X connect 24 0 36 0;
#X connect 26 0 37 0;
#X connect 27 0 4 0;
#X connect 29 0 28 0;
#X connect 32 0 35 0;
#X connect 33 0 2 0;
#X connect 34 0 1 0;
#X connect 35 0 34 0;
#X connect 35 1 33 0;
#X connect 35 2 45 0;
#X connect 38 0 44 0;
#X connect 38 1 0 0;
#X connect 38 2 9 0;
#X connect 39 0 12 0;
#X connect 40 0 11 0;
#X connect 41 0 13 0;
#X connect 43 0 3 0;
#X connect 44 0 29 0;
#X connect 45 0 3 0;
#X coords 0 -1 1 1 150 150 1 100 100;
