#N canvas 255 74 645 647 10;
#X obj -82 -65 inlet;
#X obj -58 -6 tgl 15 0 empty empty empty 17 7 0 10 -262144 -1 -1 1
1;
#X floatatom -13 343 5 0 0 0 - - -;
#X obj -58 55 s \$0-t-vol;
#X obj 150 338 r \$0-t-vol;
#X floatatom -147 32 5 0 0 0 - - -;
#X obj -58 35 line;
#X msg -58 15 \$1 4000;
#X obj -66 508 *~ 1;
#X obj 129 510 *~ 1;
#X obj -13 296 mtof;
#X obj -68 182 sel 0 1 2 3;
#X obj -13 247 +;
#X floatatom 12 182 5 0 0 0 - - -;
#X floatatom -13 272 5 0 0 0 - - -;
#X msg -68 213 0;
#X msg -41 213 4;
#X msg -13 213 7;
#X msg 17 213 11;
#X obj -68 137 random 4;
#X floatatom -68 162 5 0 0 0 - - -;
#X obj 12 139 i;
#X obj 4 409 r s-alpha;
#X obj 12 119 / 4;
#X obj -13 320 + \$1;
#X obj -68 115 t b f;
#X obj -147 6 change;
#X obj -147 55 expr 20-$f1;
#X obj 4 478 f;
#X floatatom -68 89 5 0 0 0 - - -;
#X floatatom 4 433 5 0 0 0 - - -;
#X obj -66 534 throw~ u-left-a;
#X obj 129 535 throw~ u-right-b;
#X obj 150 366 tgl 15 0 empty empty empty 17 7 0 10 -262144 -1 -1 1
1;
#X obj -82 -32 route /1 /2 /3 /4 /5;
#N canvas 173 315 956 546 sound 0;
#X obj 81 252 perk-bassdrum /key;
#X msg 472 87 1 0;
#X msg 491 67 0 1;
#X obj 82 202 spigot;
#X obj 308 170 unpack f f;
#X obj 472 46 sel 0 1;
#X obj 275 207 spigot;
#X obj 472 -19 init \$1;
#X obj 472 14 % 2;
#X obj 56 -36 inlet;
#X obj 284 -35 inlet;
#X obj 284 -1 sel 1;
#X obj 56 2 sel 1;
#X obj 295 463 outlet~;
#X obj 357 466 outlet~;
#X msg -10 157 0 \$1;
#X obj 441 -21 bng 15 250 50 0 empty empty empty 17 7 0 10 -262144
-1 -1;
#X obj 56 27 t b b;
#X obj 284 27 t b b;
#X obj 276 254 perk-bassdrum /key;
#X obj 521 164 loadbang;
#X obj -11 74 inlet;
#X obj -10 104 k_range 1 18 1 0;
#X obj 464 253 perk-gunshot /key;
#X obj 664 251 perk-gunshot /key;
#X obj 463 217 spigot;
#X obj 663 220 spigot;
#X msg 521 188 1 0.49;
#X floatatom -7 128 5 0 0 0 - - -;
#X floatatom 128 152 5 0 0 0 - - -;
#X msg 128 174 1 \$1;
#X obj 128 130 expr fmod($f1+0.1 \, 1);
#X connect 0 0 13 0;
#X connect 1 0 4 0;
#X connect 2 0 4 0;
#X connect 3 0 0 0;
#X connect 4 0 3 1;
#X connect 4 0 6 1;
#X connect 4 1 25 1;
#X connect 4 1 26 1;
#X connect 5 0 1 0;
#X connect 5 1 2 0;
#X connect 6 0 19 0;
#X connect 7 0 8 0;
#X connect 8 0 5 0;
#X connect 9 0 12 0;
#X connect 10 0 11 0;
#X connect 11 0 18 0;
#X connect 12 0 17 0;
#X connect 15 0 0 1;
#X connect 15 0 19 1;
#X connect 15 0 23 1;
#X connect 15 0 24 1;
#X connect 16 0 7 0;
#X connect 17 0 3 0;
#X connect 17 1 25 0;
#X connect 18 0 6 0;
#X connect 18 1 26 0;
#X connect 19 0 14 0;
#X connect 20 0 27 0;
#X connect 21 0 22 0;
#X connect 22 0 28 0;
#X connect 23 0 13 0;
#X connect 24 0 14 0;
#X connect 25 0 23 0;
#X connect 26 0 24 0;
#X connect 27 0 23 1;
#X connect 27 0 24 1;
#X connect 28 0 15 0;
#X connect 28 0 31 0;
#X connect 29 0 30 0;
#X connect 30 0 0 1;
#X connect 30 0 19 1;
#X connect 31 0 29 0;
#X restore -13 374 pd sound;
#X obj 12 161 expr $f1*12+32;
#X obj 171 195 s tomain;
#X obj 199 9 loadbang;
#X msg 171 111 adddollar 1;
#X msg 253 112 set send /main /\$1;
#X msg 171 145 send /main /0 \$1;
#X msg 92 56 1;
#X obj 199 80 t b f;
#X obj 199 52 init \$1;
#X obj 199 32 bng 15 250 50 0 empty empty empty 17 7 0 10 -262144 -1
-1;
#X obj 92 26 metro 2000;
#X obj 129 468 *~ 1;
#X obj -66 466 *~ 1;
#X floatatom -18 89 5 0 0 0 - - -;
#X obj 4 454 expr $f1/0.7;
#X connect 0 0 34 0;
#X connect 1 0 7 0;
#X connect 4 0 33 0;
#X connect 5 0 27 0;
#X connect 5 0 35 0;
#X connect 6 0 3 0;
#X connect 7 0 6 0;
#X connect 8 0 31 0;
#X connect 9 0 32 0;
#X connect 10 0 24 0;
#X connect 11 0 15 0;
#X connect 11 1 16 0;
#X connect 11 2 17 0;
#X connect 11 3 18 0;
#X connect 12 0 14 0;
#X connect 13 0 12 1;
#X connect 14 0 10 0;
#X connect 15 0 12 0;
#X connect 16 0 12 0;
#X connect 17 0 12 0;
#X connect 18 0 12 0;
#X connect 19 0 20 0;
#X connect 20 0 11 0;
#X connect 21 0 36 0;
#X connect 22 0 30 0;
#X connect 23 0 21 0;
#X connect 24 0 2 0;
#X connect 25 0 19 0;
#X connect 25 1 23 0;
#X connect 26 0 5 0;
#X connect 27 0 29 0;
#X connect 28 0 8 1;
#X connect 28 0 9 1;
#X connect 29 0 25 0;
#X connect 30 0 50 0;
#X connect 33 0 47 1;
#X connect 33 0 48 1;
#X connect 34 0 26 0;
#X connect 34 1 1 0;
#X connect 34 2 35 1;
#X connect 34 2 49 0;
#X connect 34 3 35 2;
#X connect 34 4 46 1;
#X connect 35 0 48 0;
#X connect 35 1 47 0;
#X connect 36 0 13 0;
#X connect 38 0 45 0;
#X connect 39 0 41 0;
#X connect 40 0 41 0;
#X connect 42 0 41 0;
#X connect 43 0 39 0;
#X connect 43 1 40 0;
#X connect 44 0 43 0;
#X connect 45 0 44 0;
#X connect 46 0 42 0;
#X connect 47 0 9 0;
#X connect 48 0 8 0;
#X connect 50 0 28 0;
