#N canvas 654 296 403 413 10;
#X obj -82 -65 inlet;
#X obj -58 -6 tgl 15 0 empty empty empty 17 7 0 10 -262144 -1 -1 1
1;
#X obj -58 55 s \$0-t-vol;
#X floatatom -147 32 5 0 0 0 - - -;
#X obj -58 35 line;
#X msg -58 15 \$1 4000;
#X obj -56 148 r s-alpha;
#X obj -147 6 change;
#X floatatom -56 172 5 0 0 0 - - -;
#X obj -82 -32 route /1 /2 /3 /4 /5;
#N canvas 683 62 757 706 sound 0;
#X obj 73 322 perk-bassdrum /key;
#X obj 327 125 init \$1;
#X obj 73 207 inlet;
#X obj 214 64 inlet;
#X obj 214 98 sel 1;
#X obj 73 245 sel 1;
#X obj 79 618 outlet~;
#X obj 124 594 outlet~;
#X msg -45 353 0 \$1;
#X obj 327 101 bng 15 250 50 0 empty empty empty 17 7 0 10 -262144
-1 -1;
#X obj 265 357 loadbang;
#X obj -46 270 inlet;
#X obj -45 300 k_range 1 18 1 0;
#X obj 208 446 perk-gunshot /key;
#X floatatom -45 324 5 0 0 0 - - -;
#X msg 327 231 1 0 0;
#X msg 346 211 0 1 0;
#X obj 73 270 t b b b b;
#X obj 214 126 t b b b b;
#X obj 109 486 unpack f f;
#X msg 109 458 1 0;
#X msg 139 458 0 1;
#X obj 79 562 *~ 0;
#X obj 124 563 *~ 0;
#X obj 321 267 unpack f f f;
#X obj 73 298 spigot;
#X obj 322 320 spigot;
#X obj 357 340 spigot;
#X obj 327 190 sel 0 1;
#X obj 327 158 % 2;
#X obj 157 206 loadbang;
#X obj 158 236 randomF 1;
#X msg 158 263 1 \$1;
#X msg 195 263 3 \$1;
#X obj 222 236 randomF 1;
#X msg 265 381 1 0.3;
#X msg 238 264 7 0.4;
#X connect 0 0 22 0;
#X connect 0 0 23 0;
#X connect 1 0 29 0;
#X connect 2 0 5 0;
#X connect 3 0 4 0;
#X connect 4 0 18 0;
#X connect 5 0 17 0;
#X connect 8 0 0 1;
#X connect 8 0 13 1;
#X connect 9 0 1 0;
#X connect 10 0 35 0;
#X connect 11 0 12 0;
#X connect 12 0 14 0;
#X connect 13 0 22 0;
#X connect 13 0 23 0;
#X connect 14 0 8 0;
#X connect 15 0 24 0;
#X connect 16 0 24 0;
#X connect 17 0 25 0;
#X connect 17 1 26 0;
#X connect 17 2 27 0;
#X connect 17 3 20 0;
#X connect 18 0 25 0;
#X connect 18 1 26 0;
#X connect 18 2 27 0;
#X connect 18 3 21 0;
#X connect 19 0 22 1;
#X connect 19 1 23 1;
#X connect 20 0 19 0;
#X connect 21 0 19 0;
#X connect 22 0 6 0;
#X connect 23 0 7 0;
#X connect 24 0 25 1;
#X connect 24 1 26 1;
#X connect 24 2 27 1;
#X connect 25 0 0 0;
#X connect 26 0 13 0;
#X connect 28 0 15 0;
#X connect 28 1 16 0;
#X connect 29 0 28 0;
#X connect 30 0 31 0;
#X connect 30 0 34 0;
#X connect 30 0 36 0;
#X connect 31 0 32 0;
#X connect 32 0 0 1;
#X connect 33 0 0 1;
#X connect 34 0 33 0;
#X connect 35 0 13 1;
#X connect 36 0 0 1;
#X restore -73 113 pd sound;
#X obj -56 193 expr $f1/0.7;
#X obj -126 273 outlet~;
#X obj 69 274 outlet~;
#X obj -56 225 sig~;
#X obj -126 247 *~;
#X obj 69 249 *~;
#X obj 69 207 *~;
#X obj -126 205 *~;
#X msg 64 120 \$1 1000;
#X obj 64 145 line~;
#X connect 0 0 9 0;
#X connect 1 0 5 0;
#X connect 3 0 10 0;
#X connect 4 0 2 0;
#X connect 4 0 19 0;
#X connect 5 0 4 0;
#X connect 6 0 8 0;
#X connect 7 0 3 0;
#X connect 8 0 11 0;
#X connect 9 0 7 0;
#X connect 9 1 1 0;
#X connect 9 2 10 1;
#X connect 9 3 10 2;
#X connect 10 0 18 0;
#X connect 10 1 17 0;
#X connect 11 0 14 0;
#X connect 14 0 15 1;
#X connect 14 0 16 1;
#X connect 15 0 12 0;
#X connect 16 0 13 0;
#X connect 17 0 16 0;
#X connect 18 0 15 0;
#X connect 19 0 20 0;
#X connect 20 0 18 1;
#X connect 20 0 17 1;
