#N canvas 302 51 969 719 10;
#X obj 8 59 sphere3d 1 10;
#X obj -87 59 sphere3d 1 10;
#X obj 56 -33 r \$0-div;
#X obj -378 -24 s \$0-div;
#X floatatom -378 -50 5 3 20 0 - - -;
#X obj -51 -51 r \$0-pos;
#X obj -380 78 r \$0-div;
#X obj -446 107 repeat 10;
#X obj -466 492 s \$0-pos;
#N canvas 557 49 771 710 random-pos 0;
#X obj 31 -205 inlet;
#X obj 52 211 tabread x;
#X obj 52 347 tabwrite x;
#X obj 268 348 tabwrite z;
#X obj 160 344 tabwrite y;
#X obj 160 216 tabread y;
#X obj 267 219 tabread z;
#X obj -20 387 pack f f f f f;
#X msg -20 409 setCartesian \$1 \$2 \$3 \$4 \$5;
#X obj -20 431 outlet;
#X obj 420 230 t f b;
#X obj 420 305 +;
#X obj 528 235 t f b;
#X obj 528 310 +;
#X obj 635 238 t f b;
#X obj 635 313 +;
#X msg 430 411 setCartesian 0 0 \$3 \$4 \$5;
#X obj 416 205 tabread x;
#X obj 416 341 tabwrite x;
#X obj 632 342 tabwrite z;
#X obj 524 338 tabwrite y;
#X obj 524 210 tabread y;
#X obj 631 213 tabread z;
#X obj 447 253 randomF 0.1;
#X obj 555 258 randomF 0.1;
#X obj 662 261 randomF 0.1;
#X obj 447 276 - 0.05;
#X obj 555 281 - 0.05;
#X obj 662 284 - 0.05;
#X floatatom 389 122 5 0 0 0 - - -;
#X obj 430 389 pack f 0 f f f;
#X obj 416 175 t f f f f;
#X obj 384 145 t f f;
#X obj 385 96 bng 15 250 50 0 empty empty empty 17 7 0 10 -262144 -1
-1;
#X obj 55 235 t f b;
#X obj 55 310 +;
#X obj 163 240 t f b;
#X obj 163 315 +;
#X obj 270 243 t f b;
#X obj 270 318 +;
#X obj 107 -170 r \$0-div;
#X obj 31 -154 repeat 10;
#X obj 31 -23 t b f;
#X obj 31 5 repeat 10;
#X obj 114 -50 r \$0-div;
#X obj 114 -27 + 1;
#X obj 31 -123 t b b;
#X obj 31 73 pack f f;
#X obj 31 -89 f 0;
#X obj 59 -90 + 1;
#X msg 71 -122 0;
#X obj 31 38 f 0;
#X obj 59 38 + 1;
#X msg 95 5 0;
#X msg 31 95 \$2 \$1;
#X obj 31 115 unpack;
#X obj 125 51 *;
#X obj 140 0 r \$0-div;
#X obj 140 23 + 1;
#X obj 62 139 t f f;
#X obj 125 76 +;
#X obj 11 141 t f f;
#X obj 89 -90 t b;
#X obj 31 -183 t b b b b;
#X obj 273 30 inlet;
#X obj 271 76 t f f;
#X obj 294 103 / 2;
#X obj 190 263 randomF 0.01;
#X obj 297 266 randomF 0.01;
#X obj 82 258 randomF 0.01;
#X obj 82 281 - 0.005;
#X obj 191 286 - 0.005;
#X obj 298 289 - 0.005;
#X obj 130 102 t f f;
#X obj 159 131 expr if($f1%5==1 \, 1 \, 0);
#X obj 52 185 t f f f f;
#X connect 0 0 63 0;
#X connect 1 0 7 2;
#X connect 1 0 34 0;
#X connect 5 0 7 3;
#X connect 5 0 36 0;
#X connect 6 0 7 4;
#X connect 6 0 38 0;
#X connect 7 0 8 0;
#X connect 8 0 9 0;
#X connect 10 0 11 0;
#X connect 10 1 23 0;
#X connect 11 0 18 0;
#X connect 11 0 30 2;
#X connect 12 0 13 0;
#X connect 12 1 24 0;
#X connect 13 0 20 0;
#X connect 13 0 30 3;
#X connect 14 0 15 0;
#X connect 14 1 25 0;
#X connect 15 0 19 0;
#X connect 15 0 30 4;
#X connect 17 0 10 0;
#X connect 21 0 12 0;
#X connect 22 0 14 0;
#X connect 23 0 26 0;
#X connect 24 0 27 0;
#X connect 25 0 28 0;
#X connect 26 0 11 1;
#X connect 27 0 13 1;
#X connect 28 0 15 1;
#X connect 29 0 32 0;
#X connect 30 0 16 0;
#X connect 31 0 17 0;
#X connect 31 1 21 0;
#X connect 31 2 22 0;
#X connect 31 3 18 1;
#X connect 31 3 20 1;
#X connect 31 3 19 1;
#X connect 32 0 30 0;
#X connect 32 1 31 0;
#X connect 33 0 29 0;
#X connect 34 0 35 0;
#X connect 34 1 69 0;
#X connect 35 0 2 0;
#X connect 36 0 37 0;
#X connect 36 1 67 0;
#X connect 37 0 4 0;
#X connect 38 0 39 0;
#X connect 38 1 68 0;
#X connect 39 0 3 0;
#X connect 40 0 41 1;
#X connect 41 0 46 0;
#X connect 42 0 43 0;
#X connect 42 1 47 1;
#X connect 43 0 51 0;
#X connect 44 0 45 0;
#X connect 45 0 43 1;
#X connect 46 0 48 0;
#X connect 46 1 53 0;
#X connect 47 0 54 0;
#X connect 48 0 49 0;
#X connect 48 0 42 0;
#X connect 49 0 48 1;
#X connect 50 0 48 1;
#X connect 51 0 52 0;
#X connect 51 0 47 0;
#X connect 52 0 51 1;
#X connect 53 0 51 1;
#X connect 54 0 55 0;
#X connect 55 0 61 0;
#X connect 55 1 59 0;
#X connect 56 0 60 0;
#X connect 57 0 58 0;
#X connect 58 0 56 1;
#X connect 59 0 7 1;
#X connect 59 1 60 1;
#X connect 60 0 73 0;
#X connect 61 0 7 0;
#X connect 61 1 56 0;
#X connect 63 0 41 0;
#X connect 63 2 50 0;
#X connect 64 0 65 0;
#X connect 65 0 67 1;
#X connect 65 0 68 1;
#X connect 65 0 69 1;
#X connect 65 1 66 0;
#X connect 66 0 70 1;
#X connect 66 0 71 1;
#X connect 66 0 72 1;
#X connect 67 0 71 0;
#X connect 68 0 72 0;
#X connect 69 0 70 0;
#X connect 70 0 35 1;
#X connect 71 0 37 1;
#X connect 72 0 39 1;
#X connect 73 0 75 0;
#X connect 73 1 74 0;
#X connect 75 0 1 0;
#X connect 75 1 5 0;
#X connect 75 2 6 0;
#X connect 75 3 2 1;
#X connect 75 3 3 1;
#X connect 75 3 4 1;
#X restore 65 256 pd random-pos;
#X obj 65 278 s \$0-pos;
#X obj -446 206 t b f;
#X obj -446 234 repeat 10;
#X obj -363 179 r \$0-div;
#X obj -363 202 + 1;
#X obj -446 138 t b b;
#X obj -446 302 pack f f;
#X obj -446 172 f 0;
#X obj -418 171 + 1;
#X msg -406 139 0;
#X obj -446 267 f 0;
#X obj -418 267 + 1;
#X msg -382 234 0;
#X msg -446 324 \$2 \$1;
#X obj -446 344 unpack;
#X obj -316 291 *;
#X obj -301 240 r \$0-div;
#X obj -301 263 + 1;
#X obj -415 368 t f f;
#X obj -316 316 +;
#X obj -466 370 t f f;
#X obj 143 178 hsl 100 15 0.001 1 0 0 empty empty empty -2 -8 0 10
-262144 -1 -1 0 1;
#N canvas 548 85 462 686 random-pos 0;
#X obj 31 -205 inlet;
#X obj 207 121 tabread x;
#X obj 270 139 tabread y;
#X obj 333 125 tabread z;
#X obj -20 387 pack f f f f f;
#X msg -20 409 setCartesian \$1 \$2 \$3 \$4 \$5;
#X obj -20 431 outlet;
#X obj 107 -170 r \$0-div;
#X obj 31 -154 repeat 10;
#X obj 31 -23 t b f;
#X obj 31 5 repeat 10;
#X obj 114 -50 r \$0-div;
#X obj 114 -27 + 1;
#X obj 31 -123 t b b;
#X obj 31 73 pack f f;
#X obj 31 -89 f 0;
#X obj 59 -90 + 1;
#X msg 71 -122 0;
#X obj 31 38 f 0;
#X obj 59 38 + 1;
#X msg 95 5 0;
#X msg 31 95 \$2 \$1;
#X obj 31 115 unpack;
#X obj 107 114 *;
#X obj 122 63 r \$0-div;
#X obj 122 86 + 1;
#X obj 62 139 t f f;
#X obj 107 139 +;
#X obj 11 141 t f f;
#X obj 89 -90 t b;
#X obj 31 -183 t b b b b;
#X obj 133 168 t f f;
#X obj 133 224 tabread x1;
#X obj 196 242 tabread y1;
#X obj 259 228 tabread z1;
#X obj 133 272 -;
#X obj 196 275 -;
#X obj 259 276 -;
#X obj 133 327 +;
#X obj 196 327 +;
#X obj 259 326 +;
#X obj 133 361 tabwrite x;
#X obj 196 387 tabwrite y;
#X obj 259 361 tabwrite z;
#X obj 207 143 t f f f;
#X obj 270 162 t f f f;
#X obj 333 149 t f f f;
#X obj 207 95 t f f f f;
#X obj 133 198 t f f f;
#X obj 133 298 * 0.1;
#X obj 196 298 * 0.1;
#X obj 259 298 * 0.1;
#X connect 0 0 30 0;
#X connect 1 0 44 0;
#X connect 2 0 45 0;
#X connect 3 0 46 0;
#X connect 4 0 5 0;
#X connect 5 0 6 0;
#X connect 7 0 8 1;
#X connect 8 0 13 0;
#X connect 9 0 10 0;
#X connect 9 1 14 1;
#X connect 10 0 18 0;
#X connect 11 0 12 0;
#X connect 12 0 10 1;
#X connect 13 0 15 0;
#X connect 13 1 20 0;
#X connect 14 0 21 0;
#X connect 15 0 16 0;
#X connect 15 0 9 0;
#X connect 16 0 15 1;
#X connect 17 0 15 1;
#X connect 18 0 19 0;
#X connect 18 0 14 0;
#X connect 19 0 18 1;
#X connect 20 0 18 1;
#X connect 21 0 22 0;
#X connect 22 0 28 0;
#X connect 22 1 26 0;
#X connect 23 0 27 0;
#X connect 24 0 25 0;
#X connect 25 0 23 1;
#X connect 26 0 4 1;
#X connect 26 1 27 1;
#X connect 27 0 31 0;
#X connect 28 0 4 0;
#X connect 28 1 23 0;
#X connect 30 0 8 0;
#X connect 30 2 17 0;
#X connect 31 0 48 0;
#X connect 31 1 47 0;
#X connect 32 0 35 0;
#X connect 33 0 36 0;
#X connect 34 0 37 0;
#X connect 35 0 49 0;
#X connect 36 0 50 0;
#X connect 37 0 51 0;
#X connect 38 0 41 0;
#X connect 39 0 42 0;
#X connect 40 0 43 0;
#X connect 44 0 35 1;
#X connect 44 1 38 1;
#X connect 44 2 4 2;
#X connect 45 0 36 1;
#X connect 45 1 39 1;
#X connect 45 2 4 3;
#X connect 46 0 37 1;
#X connect 46 1 40 1;
#X connect 46 2 4 4;
#X connect 47 0 1 0;
#X connect 47 1 2 0;
#X connect 47 2 3 0;
#X connect 47 3 43 1;
#X connect 47 3 42 1;
#X connect 47 3 41 1;
#X connect 48 0 32 0;
#X connect 48 1 33 0;
#X connect 48 2 34 0;
#X connect 49 0 38 0;
#X connect 50 0 39 0;
#X connect 51 0 40 0;
#X restore 38 302 pd random-pos;
#X obj 38 324 s \$0-pos;
#X floatatom -316 339 5 0 0 0 - - -;
#X obj -277 387 s total-array;
#N canvas 747 235 529 500 radius 0;
#X obj 79 -15 inlet;
#X obj 79 368 outlet;
#X obj 160 78 r \$0-div;
#X obj 137 153 % 4;
#X obj 160 103 + 1;
#X floatatom 137 178 5 0 0 0 - - -;
#X obj 79 58 t f f f;
#X obj 97 145 > 5;
#X obj 79 168 *;
#X obj 79 122 / 3;
#X obj 79 190 i;
#X floatatom 79 212 5 0 0 0 - - -;
#X obj 79 305 *;
#X obj 368 48 inlet;
#X floatatom 368 75 5 0 0 0 - - -;
#X obj 239 43 inlet;
#X obj 419 50 inlet;
#X floatatom 419 77 5 0 0 0 - - -;
#X obj 398 -6 loadbang;
#X msg 398 18 1;
#X obj 137 201 expr if($f1%$f3==0 \, 1 \, $f2);
#X obj 79 242 expr if($f1%$f3==0 \, 1 \, $f2);
#X obj 325 42 inlet;
#X floatatom 239 75 5 0 0 0 - - -;
#X floatatom 325 74 5 0 0 0 - - -;
#X obj 279 3 loadbang;
#X msg 279 27 0;
#X obj 466 53 inlet;
#X obj 239 99 + 2;
#X obj 325 96 + 2;
#X obj 79 335 * 10;
#X connect 0 0 6 0;
#X connect 2 0 4 0;
#X connect 2 0 7 1;
#X connect 3 0 5 0;
#X connect 4 0 3 1;
#X connect 4 0 9 1;
#X connect 5 0 20 0;
#X connect 6 0 9 0;
#X connect 6 1 3 0;
#X connect 6 2 7 0;
#X connect 7 0 8 1;
#X connect 8 0 10 0;
#X connect 9 0 8 0;
#X connect 10 0 11 0;
#X connect 11 0 21 0;
#X connect 12 0 30 0;
#X connect 13 0 14 0;
#X connect 14 0 21 1;
#X connect 15 0 23 0;
#X connect 16 0 17 0;
#X connect 17 0 20 1;
#X connect 18 0 19 0;
#X connect 19 0 14 0;
#X connect 19 0 17 0;
#X connect 20 0 12 1;
#X connect 21 0 12 0;
#X connect 22 0 24 0;
#X connect 23 0 28 0;
#X connect 24 0 29 0;
#X connect 25 0 26 0;
#X connect 26 0 23 0;
#X connect 26 0 24 0;
#X connect 27 0 30 1;
#X connect 28 0 21 2;
#X connect 29 0 20 2;
#X connect 30 0 1 0;
#X restore -297 507 pd radius;
#X obj -316 359 t f f f;
#X obj -243 453 hsl 50 15 1 2 0 0 empty empty empty -2 -8 0 10 -262144
-1 -1 0 1;
#X obj -243 471 hsl 50 15 1 2 0 0 empty empty empty -2 -8 0 10 -262144
-1 -1 0 1;
#X obj -272 416 hradio 15 1 0 4 empty empty empty 0 -8 0 10 -262144
-1 -1 1;
#X obj -272 436 hradio 15 1 0 4 empty empty empty 0 -8 0 10 -262144
-1 -1 1;
#X floatatom -415 392 5 0 0 0 - - -;
#X floatatom -466 392 5 0 0 0 - - -;
#X obj -106 -26 t a a a;
#X obj -106 -50 gemhead;
#X obj -574 361 table x 2000;
#X obj -573 384 table y 2000;
#X obj -572 406 table z 2000;
#X obj -572 432 table x1 2000;
#X obj -571 455 table y1 2000;
#X obj -570 477 table z1 2000;
#N canvas 580 259 788 624 math-pos======== 0;
#X obj 108 69 inlet;
#X obj 224 66 inlet;
#X obj 330 36 r \$0-div;
#X obj 330 61 expr 1/ $f1;
#X floatatom 330 86 5 0 0 0 - - -;
#X obj 263 120 expr $f1*$f2;
#X obj 135 151 f;
#X obj 147 119 expr ($f1+1)*$f2;
#X obj 256 159 f;
#X obj 450 351 expr cos($f1);
#X obj 233 315 t f f f;
#X obj 362 288 t f f;
#X obj 285 316 expr sin($f1)*sin($f2);
#X obj 233 348 expr sin($f1)*cos($f2);
#X obj 146 543 outlet;
#X obj 135 217 deg2rad;
#X obj 135 244 / 2;
#X obj 135 194 * 360;
#X obj 256 202 * 360;
#X obj 256 224 deg2rad;
#X floatatom 256 179 5 0 0 0 - - -;
#X floatatom 135 173 5 0 0 0 - - -;
#X obj 448 377 * 1;
#X obj 344 371 * 1;
#X obj 233 379 * 1;
#X msg 146 505 setCartesian \$1 \$2 \$3 \$4 \$5;
#X obj 260 453 tabwrite x;
#X obj 475 457 tabwrite z;
#X obj 233 403 t f f;
#X obj 344 399 t f f;
#X obj 448 406 t f f;
#X obj 108 91 t f b f;
#X obj 224 90 t f b f;
#X obj 146 479 pack f f f f f f;
#X obj 449 146 inlet;
#X obj 449 196 f 0;
#X obj 502 405 buddy 2;
#X obj 372 424 buddy 2;
#X obj 260 427 buddy 2;
#X obj 281 477 tabwrite x1;
#X obj 371 449 tabwrite y;
#X obj 380 473 tabwrite y1;
#X obj 496 481 tabwrite z1;
#X obj 534 236 inlet;
#X connect 0 0 31 0;
#X connect 1 0 32 0;
#X connect 2 0 3 0;
#X connect 3 0 4 0;
#X connect 4 0 5 1;
#X connect 4 0 7 1;
#X connect 5 0 6 0;
#X connect 6 0 21 0;
#X connect 7 0 8 0;
#X connect 8 0 20 0;
#X connect 9 0 22 0;
#X connect 10 0 13 0;
#X connect 10 1 12 0;
#X connect 10 2 9 0;
#X connect 11 0 13 1;
#X connect 11 1 12 1;
#X connect 12 0 23 0;
#X connect 13 0 24 0;
#X connect 15 0 16 0;
#X connect 16 0 10 0;
#X connect 17 0 15 0;
#X connect 18 0 19 0;
#X connect 19 0 11 0;
#X connect 20 0 18 0;
#X connect 21 0 17 0;
#X connect 22 0 30 0;
#X connect 23 0 29 0;
#X connect 24 0 28 0;
#X connect 25 0 14 0;
#X connect 28 0 33 2;
#X connect 28 1 38 0;
#X connect 29 0 33 3;
#X connect 29 1 37 0;
#X connect 30 0 33 4;
#X connect 30 1 36 0;
#X connect 31 0 33 0;
#X connect 31 2 7 0;
#X connect 32 0 33 1;
#X connect 32 2 5 0;
#X connect 33 0 25 0;
#X connect 34 0 35 0;
#X connect 35 0 33 5;
#X connect 35 0 36 1;
#X connect 35 0 37 1;
#X connect 35 0 38 1;
#X connect 36 0 27 0;
#X connect 36 0 42 0;
#X connect 36 1 27 1;
#X connect 36 1 42 1;
#X connect 37 0 40 0;
#X connect 37 0 41 0;
#X connect 37 1 40 1;
#X connect 37 1 41 1;
#X connect 38 0 26 0;
#X connect 38 0 39 0;
#X connect 38 1 26 1;
#X connect 38 1 39 1;
#X connect 43 0 24 1;
#X connect 43 0 23 1;
#X connect 43 0 22 1;
#X restore -466 454 pd math-pos========;
#X obj -378 -96 loadbang;
#X obj 114 178 tgl 15 0 empty empty empty 17 7 0 10 -262144 -1 -1 1
1;
#X floatatom 140 205 10 0 0 0 - - -;
#X obj 38 229 t b b;
#X obj 152 280 s \$0-bangbang;
#X obj 37 208 r \$0-bangbang;
#X obj -446 54 bng 15 250 50 0 empty empty empty 17 7 0 10 -262144
-1 -1;
#X obj -183 396 tgl 15 0 empty empty empty 17 7 0 10 -262144 -1 -1
1 1;
#X obj -183 461 line;
#X msg -183 439 0 \, 1 10000;
#X obj -183 416 metro 10000;
#X obj -183 482 inoutsine;
#X obj -445 5 tgl 15 0 empty empty empty 17 7 0 10 -262144 -1 -1 0
1;
#X floatatom -183 524 5 0 0 0 - - -;
#X obj -445 29 metro 20;
#X obj 152 256 metro 20;
#X obj -87 6 k_tgl;
#X obj -446 78 t b b;
#N canvas 625 287 352 245 line 0;
#X obj 158 -40 inlet;
#X obj 155 171 outlet;
#X obj 155 94 alpha;
#X obj 155 72 separator;
#X msg 73 138 draw line;
#X obj 73 116 loadbang;
#X obj 155 141 GEMglLineWidth 1;
#X obj 155 115 colorRGB 0 0 0 0.2;
#X connect 0 0 3 0;
#X connect 2 0 7 0;
#X connect 3 0 2 0;
#X connect 4 0 1 0;
#X connect 5 0 4 0;
#X connect 6 0 1 0;
#X connect 7 0 6 0;
#X restore 8 28 pd line;
#N canvas 566 357 450 300 point 0;
#X obj 155 49 inlet;
#X obj 155 167 outlet;
#X obj 155 94 alpha;
#X obj 155 72 separator;
#X msg 73 138 draw point;
#X obj 155 115 colorRGB 1 1 1 1;
#X obj 73 116 loadbang;
#X obj 155 139 GEMglPointSize 3;
#X connect 0 0 3 0;
#X connect 2 0 5 0;
#X connect 3 0 2 0;
#X connect 4 0 1 0;
#X connect 5 0 7 0;
#X connect 6 0 4 0;
#X connect 7 0 1 0;
#X restore -87 28 pd point;
#X obj 9 7 k_tgl;
#X obj -128 131 sphere3d 1 10;
#X obj -128 78 k_tgl;
#X obj -51 -26 t a a a;
#X obj 56 -10 t a a a;
#N canvas 566 357 450 300 fill 0;
#X obj 155 49 inlet;
#X obj 155 167 outlet;
#X obj 155 94 alpha;
#X obj 155 72 separator;
#X obj 73 116 loadbang;
#X msg 73 138 draw fill;
#X obj 105 0 loadbang;
#X msg 220 69 0;
#X msg 105 50 auto 1;
#X obj 155 115 colorRGB 0 0 0 0.3;
#X connect 0 0 3 0;
#X connect 2 0 9 0;
#X connect 3 0 2 0;
#X connect 4 0 5 0;
#X connect 5 0 1 0;
#X connect 6 0 8 0;
#X connect 6 0 7 0;
#X connect 7 0 2 1;
#X connect 8 0 2 0;
#X connect 9 0 1 0;
#X restore -128 100 pd fill;
#X msg -378 -72 10;
#X obj -183 503 expr $f2*abs($f1-0.5);
#X obj -57 464 hsl 100 15 1 20 0 0 empty empty empty -2 -8 0 10 -262144
-1 -1 2800 1;
#X floatatom -60 483 5 0 0 0 - - -;
#X connect 2 0 77 0;
#X connect 4 0 3 0;
#X connect 5 0 76 0;
#X connect 6 0 7 1;
#X connect 7 0 15 0;
#X connect 9 0 10 0;
#X connect 11 0 12 0;
#X connect 11 1 16 1;
#X connect 12 0 20 0;
#X connect 13 0 14 0;
#X connect 14 0 12 1;
#X connect 15 0 17 0;
#X connect 15 1 22 0;
#X connect 16 0 23 0;
#X connect 17 0 18 0;
#X connect 17 0 11 0;
#X connect 18 0 17 1;
#X connect 19 0 17 1;
#X connect 20 0 21 0;
#X connect 20 0 16 0;
#X connect 21 0 20 1;
#X connect 22 0 20 1;
#X connect 23 0 24 0;
#X connect 24 0 30 0;
#X connect 24 1 28 0;
#X connect 25 0 29 0;
#X connect 26 0 27 0;
#X connect 27 0 25 1;
#X connect 28 0 42 0;
#X connect 28 1 29 1;
#X connect 29 0 34 0;
#X connect 30 0 43 0;
#X connect 30 1 25 0;
#X connect 31 0 55 0;
#X connect 32 0 33 0;
#X connect 34 0 37 0;
#X connect 36 0 52 3;
#X connect 37 0 52 2;
#X connect 37 1 36 0;
#X connect 37 2 35 0;
#X connect 38 0 36 3;
#X connect 39 0 36 4;
#X connect 40 0 36 1;
#X connect 41 0 36 2;
#X connect 42 0 52 1;
#X connect 43 0 52 0;
#X connect 44 0 75 0;
#X connect 44 1 69 0;
#X connect 44 2 73 0;
#X connect 45 0 44 0;
#X connect 52 0 8 0;
#X connect 53 0 79 0;
#X connect 54 0 68 0;
#X connect 55 0 9 1;
#X connect 56 0 32 0;
#X connect 56 1 9 0;
#X connect 58 0 56 0;
#X connect 59 0 70 0;
#X connect 60 0 63 0;
#X connect 61 0 64 0;
#X connect 62 0 61 0;
#X connect 63 0 62 0;
#X connect 64 0 80 0;
#X connect 65 0 67 0;
#X connect 66 0 36 5;
#X connect 67 0 59 0;
#X connect 68 0 57 0;
#X connect 69 0 72 0;
#X connect 70 0 7 0;
#X connect 70 1 19 0;
#X connect 71 0 0 0;
#X connect 72 0 1 0;
#X connect 73 0 71 0;
#X connect 75 0 78 0;
#X connect 76 0 1 0;
#X connect 76 1 0 0;
#X connect 76 2 74 0;
#X connect 77 0 1 2;
#X connect 77 1 0 2;
#X connect 77 2 74 2;
#X connect 78 0 74 0;
#X connect 79 0 4 0;
#X connect 80 0 66 0;
#X connect 81 0 82 0;
#X connect 82 0 80 1;
#X coords 0 -1 1 1 150 100 1 100 100;
