#N canvas 119 233 688 660 10;
#X obj 124 -222 loadbang;
#X msg -311 -128 set \$1;
#X msg 50 -10 0;
#X floatatom -54 -202 5 0 0 0 - - -;
#X obj -54 -224 r totrack;
#X obj -88 -73 tgl 15 0 empty empty empty 17 7 0 10 -262144 -1 -1 1
1;
#N canvas 545 110 895 505 sound========== 0;
#X obj -173 351 s toudp;
#X obj -173 325 packOSC;
#X obj -173 125 t b f;
#X msg -173 182 adddollar 1;
#X obj -84 181 t b f;
#X msg -84 267 send /0 /2 \$1;
#X msg -84 233 adddollar 1;
#X obj -66 44 inlet;
#X msg -173 300 send /0 /1 \$1;
#X msg -146 149 set send /\$1 /1;
#X msg -57 205 set send /\$1 /2;
#X obj -173 45 t f f f f f f;
#X obj 1 233 inlet;
#X obj 61 181 t b f;
#X msg 61 267 send /0 /3 \$1;
#X msg 61 233 adddollar 1;
#X obj 146 233 inlet;
#X msg 88 205 set send /\$1 /3;
#X obj 206 183 t b f;
#X msg 206 269 send /0 /4 \$1;
#X msg 206 235 adddollar 1;
#X obj 291 235 inlet;
#X msg 233 207 set send /\$1 /4;
#X obj 356 177 t b f;
#X msg 356 229 adddollar 1;
#X obj 441 229 inlet;
#X msg 356 263 send /0 /5 \$1;
#X msg 383 201 set send /\$1 /5;
#X obj -173 15 init \$1;
#X connect 1 0 0 0;
#X connect 2 0 3 0;
#X connect 2 1 9 0;
#X connect 3 0 8 0;
#X connect 4 0 6 0;
#X connect 4 1 10 0;
#X connect 5 0 1 0;
#X connect 6 0 5 0;
#X connect 7 0 8 0;
#X connect 8 0 1 0;
#X connect 9 0 8 0;
#X connect 10 0 5 0;
#X connect 11 0 2 0;
#X connect 11 1 4 0;
#X connect 11 2 13 0;
#X connect 11 3 18 0;
#X connect 11 4 23 0;
#X connect 12 0 5 0;
#X connect 13 0 15 0;
#X connect 13 1 17 0;
#X connect 14 0 1 0;
#X connect 15 0 14 0;
#X connect 16 0 14 0;
#X connect 17 0 14 0;
#X connect 18 0 20 0;
#X connect 18 1 22 0;
#X connect 19 0 1 0;
#X connect 20 0 19 0;
#X connect 21 0 19 0;
#X connect 22 0 19 0;
#X connect 23 0 24 0;
#X connect 23 1 27 0;
#X connect 24 0 26 0;
#X connect 25 0 26 0;
#X connect 26 0 1 0;
#X connect 27 0 26 0;
#X connect 28 0 11 0;
#X restore -239 406 pd sound==========;
#X obj 84 -243 r allbang;
#X obj 97 82 i;
#X obj -157 87 metro 900;
#X obj -311 -106 s \$0-name;
#X obj 162 -165 r \$0-name;
#X obj -157 59 tgl 15 0 empty empty empty 17 7 0 10 -262144 -1 -1 1
1;
#X msg 131 222 set \$1;
#X floatatom -9 63 5 0 0 0 - - -;
#X obj 131 202 * 200;
#X obj 114 250 * 200;
#X floatatom 97 155 5 0 0 0 - - -;
#X obj -24 -183 r stopkick;
#X obj -24 -159 sel 1 0;
#X msg -5 -137 0;
#X floatatom 50 40 5 0 0 0 - - -;
#X text 145 106 sound-also;
#X obj 97 131 expr (20-$f1)+1;
#X floatatom 215 57 5 0 0 0 - - -;
#X obj 215 78 moses 5.9;
#X obj 266 102 moses 15.9;
#X floatatom 215 129 5 0 0 0 - - -;
#X msg -187 375 1;
#X obj 50 -40 r tobbb;
#X obj -161 342 del 400;
#X msg -161 366 1;
#X floatatom -122 296 5 0 0 0 - - -;
#X obj -122 317 / 2;
#X floatatom -55 -72 5 0 0 0 - - -;
#X obj -88 -47 pipe 0;
#X obj -55 -95 expr $f1*100;
#X msg 162 -110 0;
#X obj 50 -80 tabwrite each-alpha;
#X msg 50 -153 \$1 4000;
#X obj 50 -130 line;
#X obj 50 -184 change;
#X obj 162 -140 t b a;
#X obj -88 -24 sel 1 0;
#X msg -88 41 1;
#X floatatom 155 -13 5 0 0 0 - - -;
#X obj 155 -40 tabread each-radius;
#X obj 155 35 i;
#X floatatom 155 55 5 0 0 0 - - -;
#X obj 97 179 t b f f f;
#X obj 97 105 change;
#X obj -223 95 t b b;
#X floatatom 50 -107 5 0 0 0 - - -;
#X obj 155 80 change;
#X obj 155 12 expr ($f1/3.6)*20;
#X obj 50 13 tabread tempo;
#X obj -308 -64 r sound-main;
#X obj -308 -34 route /main;
#X obj -308 -4 route /\$1;
#X obj -308 24 sel 1;
#X obj -308 49 spigot;
#X floatatom -134 374 5 0 0 0 - - -;
#N canvas 162 294 771 502 bomb 0;
#X obj 133 50 inlet;
#X obj 199 47 inlet;
#X obj 247 47 inlet;
#X obj 149 182 * 400;
#X msg 245 215 0;
#X obj 262 279 change;
#X obj 262 304 sel 1;
#X obj 445 277 change;
#X obj 262 430 tabwrite start_size;
#X msg 373 359 0;
#X obj 262 353 line;
#X msg 509 358 0;
#X obj 445 300 sel 1;
#X obj 400 438 tabwrite end_size;
#X obj 399 363 line;
#X obj 149 136 line;
#X obj 133 84 t b b;
#X msg 161 107 1100;
#X floatatom 149 157 5 0 0 0 - - -;
#X msg 133 108 1;
#X obj 149 204 t f f;
#X obj 509 323 r \$0-name;
#X obj 373 309 r \$0-name;
#X obj 245 172 r \$0-name;
#X obj 245 193 t b a;
#X msg 199 106 0 0;
#X msg 262 327 0 \, 1 500;
#X msg 399 337 0 \, 1 500;
#X obj 262 374 outsine;
#X obj 400 384 outsine;
#X obj 262 240 expr if($f1==0 \, 1 \, 0) \; if($f1>199 && $f1<200.1
\, 1 \, 0) \;;
#X obj 176 241 tabwrite pos;
#X obj 262 406 expr ($f1*-0.19)+0.2;
#X obj 400 412 expr ($f1*-0.19)+0.2;
#X connect 0 0 16 0;
#X connect 1 0 25 0;
#X connect 2 0 17 0;
#X connect 3 0 20 0;
#X connect 4 0 31 1;
#X connect 5 0 6 0;
#X connect 6 0 26 0;
#X connect 6 0 9 0;
#X connect 7 0 12 0;
#X connect 9 0 8 1;
#X connect 10 0 28 0;
#X connect 11 0 13 1;
#X connect 12 0 27 0;
#X connect 12 0 11 0;
#X connect 14 0 29 0;
#X connect 15 0 18 0;
#X connect 16 0 19 0;
#X connect 16 1 17 0;
#X connect 17 0 15 1;
#X connect 18 0 3 0;
#X connect 19 0 15 0;
#X connect 20 0 30 0;
#X connect 20 1 31 0;
#X connect 21 0 11 0;
#X connect 22 0 9 0;
#X connect 23 0 24 0;
#X connect 24 0 4 0;
#X connect 24 1 4 0;
#X connect 25 0 15 0;
#X connect 26 0 10 0;
#X connect 27 0 14 0;
#X connect 28 0 32 0;
#X connect 29 0 33 0;
#X connect 30 0 5 0;
#X connect 30 1 7 0;
#X connect 32 0 8 0;
#X connect 33 0 13 0;
#X restore -204 160 pd bomb;
#X obj -223 122 t b b b;
#X obj -157 32 t f f;
#X msg 215 104 100;
#X msg 266 125 100;
#X msg 323 126 200;
#X obj -169 -207 init \$1;
#X msg 124 -200 0;
#X obj -169 -230 r allbang;
#X msg -69 28 0;
#X obj -69 5 delay 1000;
#X obj -219 -108 expr if($f1<$f2 \, 0 \, 1);
#X connect 0 0 69 0;
#X connect 1 0 10 0;
#X connect 2 0 46 0;
#X connect 2 0 55 0;
#X connect 3 0 73 0;
#X connect 4 0 3 0;
#X connect 5 0 35 0;
#X connect 7 0 69 0;
#X connect 8 0 50 0;
#X connect 9 0 51 0;
#X connect 11 0 2 0;
#X connect 11 0 42 0;
#X connect 12 0 9 0;
#X connect 13 0 62 2;
#X connect 14 0 9 1;
#X connect 15 0 13 0;
#X connect 16 0 14 0;
#X connect 16 0 32 0;
#X connect 16 0 61 0;
#X connect 17 0 49 0;
#X connect 18 0 19 0;
#X connect 19 0 3 0;
#X connect 19 1 20 0;
#X connect 20 0 5 0;
#X connect 21 0 8 0;
#X connect 23 0 17 0;
#X connect 24 0 25 0;
#X connect 25 0 65 0;
#X connect 25 1 26 0;
#X connect 26 0 66 0;
#X connect 26 1 67 0;
#X connect 27 0 15 1;
#X connect 27 0 16 1;
#X connect 28 0 6 2;
#X connect 29 0 2 0;
#X connect 30 0 31 0;
#X connect 31 0 6 3;
#X connect 32 0 33 0;
#X connect 33 0 30 1;
#X connect 34 0 35 1;
#X connect 35 0 41 0;
#X connect 35 0 43 0;
#X connect 36 0 34 0;
#X connect 37 0 38 1;
#X connect 39 0 40 0;
#X connect 40 0 52 0;
#X connect 41 0 39 0;
#X connect 42 0 37 0;
#X connect 42 1 37 0;
#X connect 43 0 44 0;
#X connect 43 1 72 0;
#X connect 44 0 64 0;
#X connect 45 0 54 0;
#X connect 46 0 45 0;
#X connect 47 0 48 0;
#X connect 48 0 53 0;
#X connect 49 1 16 0;
#X connect 49 2 15 0;
#X connect 49 3 24 0;
#X connect 50 0 23 0;
#X connect 51 0 63 0;
#X connect 51 1 28 0;
#X connect 52 0 38 0;
#X connect 53 0 6 0;
#X connect 54 0 47 0;
#X connect 55 0 21 0;
#X connect 56 0 57 0;
#X connect 57 0 58 0;
#X connect 58 0 59 0;
#X connect 59 0 60 0;
#X connect 61 0 6 4;
#X connect 63 0 30 0;
#X connect 63 1 62 0;
#X connect 63 2 62 1;
#X connect 64 0 12 0;
#X connect 64 1 6 1;
#X connect 65 0 27 0;
#X connect 66 0 27 0;
#X connect 67 0 27 0;
#X connect 68 0 1 0;
#X connect 68 0 36 0;
#X connect 68 0 73 1;
#X connect 69 0 40 0;
#X connect 70 0 68 0;
#X connect 71 0 64 0;
#X connect 72 0 71 0;
#X connect 73 0 5 0;
