#N canvas 795 360 578 478 10;
#X obj 119 76 line;
#X obj 119 101 insine;
#X obj 150 216 tabwrite;
#X obj 150 181 r ch-array;
#X obj 119 126 t f b;
#X obj 147 157 f \$1;
#X floatatom 222 201 5 0 0 0 - - -;
#X obj 119 -34 r t_ui5;
#X obj 119 -6 sel \$1;
#X msg 119 44 1 \, 0 \$1;
#X obj 83 20 bng 15 250 50 0 empty empty empty 17 7 0 10 -262144 -1
-1;
#X floatatom 96 154 5 0 0 0 - - -;
#X obj 182 21 r t_ui5speed;
#X obj 119 19 f 500;
#X connect 0 0 1 0;
#X connect 1 0 4 0;
#X connect 3 0 2 0;
#X connect 4 0 11 0;
#X connect 4 1 5 0;
#X connect 5 0 6 0;
#X connect 6 0 2 1;
#X connect 7 0 8 0;
#X connect 8 0 10 0;
#X connect 9 0 0 0;
#X connect 10 0 13 0;
#X connect 11 0 2 0;
#X connect 12 0 13 1;
#X connect 13 0 9 0;
