#N canvas 340 196 884 727 10;
#X obj 101 114 cnv 15 78 55 empty empty empty 20 12 0 14 -189697 -66577
0;
#X obj 104 192 gemhead;
#X obj 105 623 glsl_program;
#X obj 179 532 pack 0 0;
#X obj 200 512 t b f;
#X obj 200 467 change;
#X obj 138 483 change;
#X msg 179 555 link \$1 \$2;
#X floatatom 200 493 2 0 0 0 ID - -;
#X floatatom 138 506 2 0 0 0 ID - -;
#X obj 106 447 glsl_fragment;
#X obj 106 384 glsl_vertex;
#X obj 106 363 alpha;
#X obj 133 339 tgl 15 0 empty empty empty 17 7 0 10 -262144 -1 -1 1
1;
#X msg 173 341 auto 1;
#X obj 173 315 loadbang;
#X msg -42 170 open noiseshape.vert;
#X msg 117 417 open noiseshape.frag;
#X obj -42 138 t b b;
#X obj -42 101 bng 30 250 50 0 empty empty empty 17 7 0 10 -262144
-1 -1;
#X obj -42 73 loadbang;
#X obj -180 340 GEMglPolygonMode;
#X obj -134 235 loadbang;
#X obj -180 615 GEMglPolygonMode;
#X obj -134 512 loadbang;
#X obj -134 532 bng 15 250 50 0 empty empty empty 17 7 0 10 -262144
-1 -1;
#X obj -134 258 bng 15 250 50 0 empty empty empty 17 7 0 10 -262144
-1 -1;
#X obj -134 558 GLdefine GL_FRONT;
#X obj -134 283 GLdefine GL_FRONT;
#X obj 103 117 tgl 15 0 empty empty empty 17 7 0 10 -262144 -1 -1 1
1;
#X obj 126 116 hsl 50 15 0 0.05 0 0 empty empty jump 3 8 0 10 -262144
-1 -1 4900 1;
#X obj 102 249 t a b;
#X obj 148 249 f;
#X obj 102 288 rotateXYZ 0 0 0;
#X obj 214 250 fmod 360;
#X floatatom 73 568 5 0 0 0 - - -;
#X msg 73 589 K \$1;
#X obj 247 462 + 10;
#X obj 281 486 + 10;
#X obj 316 513 + 10;
#X obj 350 537 + 10;
#X obj 249 543 pack f f f f;
#X obj 102 311 t a b;
#X obj 245 396 t b b b b;
#X msg 246 573 noise \$1 \$2 \$3 \$4;
#X obj 247 439 randomF 20;
#X obj 281 463 randomF 20;
#X obj 316 490 randomF 20;
#X obj 350 514 randomF 20;
#X obj 234 598 sel 0 1;
#X obj 229 706 > 0;
#X obj 230 682 line;
#X obj -87 580 GLdefine GL_FILL;
#X obj -180 465 model;
#X obj 126 134 hsl 50 15 0.3 25 0 0 empty empty size 3 8 0 10 -262144
-1 -1 365 1;
#X obj -39 463 line;
#X obj -180 432 scale 15;
#X obj -24 377 loadbang;
#X msg 336 316 create \, 1;
#X obj 335 348 gemwin;
#X msg 319 272 color 0.5 0.5 0.5;
#X msg -24 399 open ball.obj;
#X obj -87 305 GLdefine GL_LINE;
#X obj -180 395 GEMglLineWidth 2;
#X obj 174 250 + 1;
#X msg 81 695 color 0.2 0.25 0.6 \$1;
#X obj 126 151 hsl 50 15 0.1 10 0 0 empty empty rotate 3 8 0 10 -262144
-1 -1 4118 1;
#X floatatom 305 224 5 0 0 0 - - -;
#X obj 305 248 k_range 0 127 0 0.1;
#X obj 305 199 ctlin 7;
#X obj 214 8 r touchosc;
#X obj 214 32 routeOSC /vj;
#X obj 306 89 k_range 0 1 0.1 10;
#X obj 244 87 * 0.05;
#X obj 214 56 route /12 /13 /14 /15;
#X msg -39 442 \$1 1000;
#X obj 421 441 s toudp;
#X obj 421 414 packOSC;
#X msg 420 373 send /gh /11 \$1;
#X msg 523 376 send /gh /11-1 \$1;
#X msg 524 404 send /gh /11-2 \$1;
#X msg 524 430 send /gh /11-3 \$1;
#X msg 107 67 0;
#X obj 106 9 sel 1;
#X obj 106 33 t b b b;
#X msg 137 68 0.6;
#X msg 169 68 1;
#X obj 465 679 s totouch;
#X obj 465 656 packOSC;
#X obj 322 609 k_range 0 0.05 0 1;
#X obj 537 587 k_range 0.1 10 0 1;
#X msg 320 636 send /vj/13 \$1;
#X msg 409 578 send /vj/14 \$1;
#X msg 538 612 send /vj/15 \$1;
#X msg 235 631 0 10000;
#X msg 251 652 0.2 10000;
#X obj 275 116 k_range 0 1 0.3 25;
#X obj 410 554 k_range 0.3 25 0 1;
#X connect 1 0 31 0;
#X connect 2 0 21 0;
#X connect 3 0 7 0;
#X connect 4 0 3 0;
#X connect 4 1 3 1;
#X connect 5 0 8 0;
#X connect 6 0 9 0;
#X connect 7 0 2 0;
#X connect 8 0 4 0;
#X connect 9 0 3 0;
#X connect 10 0 2 0;
#X connect 10 1 5 0;
#X connect 11 0 10 0;
#X connect 11 1 6 0;
#X connect 12 0 11 0;
#X connect 13 0 12 1;
#X connect 14 0 12 0;
#X connect 15 0 14 0;
#X connect 15 0 13 0;
#X connect 16 0 11 0;
#X connect 17 0 10 0;
#X connect 18 0 16 0;
#X connect 18 1 17 0;
#X connect 19 0 18 0;
#X connect 20 0 19 0;
#X connect 21 0 63 0;
#X connect 22 0 26 0;
#X connect 24 0 25 0;
#X connect 25 0 27 0;
#X connect 25 0 52 0;
#X connect 26 0 28 0;
#X connect 26 0 62 0;
#X connect 27 0 23 1;
#X connect 28 0 21 1;
#X connect 29 0 49 0;
#X connect 29 0 83 0;
#X connect 30 0 35 0;
#X connect 30 0 89 0;
#X connect 31 0 33 0;
#X connect 31 1 32 0;
#X connect 32 0 33 2;
#X connect 32 0 33 1;
#X connect 32 0 33 3;
#X connect 32 0 64 0;
#X connect 33 0 42 0;
#X connect 34 0 32 1;
#X connect 35 0 36 0;
#X connect 36 0 2 0;
#X connect 37 0 41 0;
#X connect 38 0 41 1;
#X connect 39 0 41 2;
#X connect 40 0 41 3;
#X connect 41 0 44 0;
#X connect 42 0 12 0;
#X connect 42 1 43 0;
#X connect 43 0 45 0;
#X connect 43 1 46 0;
#X connect 43 2 47 0;
#X connect 43 3 48 0;
#X connect 44 0 2 0;
#X connect 45 0 37 0;
#X connect 46 0 38 0;
#X connect 47 0 39 0;
#X connect 48 0 40 0;
#X connect 49 0 94 0;
#X connect 49 1 95 0;
#X connect 50 0 1 0;
#X connect 51 0 50 0;
#X connect 51 0 65 0;
#X connect 52 0 23 2;
#X connect 53 0 23 0;
#X connect 54 0 75 0;
#X connect 54 0 97 0;
#X connect 55 0 56 1;
#X connect 56 0 53 0;
#X connect 57 0 61 0;
#X connect 58 0 59 0;
#X connect 60 0 59 0;
#X connect 61 0 53 0;
#X connect 62 0 21 2;
#X connect 63 0 56 0;
#X connect 64 0 34 0;
#X connect 65 0 2 0;
#X connect 66 0 64 1;
#X connect 66 0 90 0;
#X connect 67 0 68 0;
#X connect 68 0 30 0;
#X connect 69 0 67 0;
#X connect 70 0 71 0;
#X connect 71 0 74 0;
#X connect 72 0 66 0;
#X connect 73 0 30 0;
#X connect 74 0 29 0;
#X connect 74 0 78 0;
#X connect 74 1 73 0;
#X connect 74 1 79 0;
#X connect 74 2 80 0;
#X connect 74 2 96 0;
#X connect 74 3 72 0;
#X connect 74 3 81 0;
#X connect 75 0 55 0;
#X connect 77 0 76 0;
#X connect 78 0 77 0;
#X connect 79 0 77 0;
#X connect 80 0 77 0;
#X connect 81 0 77 0;
#X connect 82 0 30 0;
#X connect 83 0 84 0;
#X connect 84 0 82 0;
#X connect 84 1 85 0;
#X connect 84 2 86 0;
#X connect 85 0 54 0;
#X connect 86 0 66 0;
#X connect 88 0 87 0;
#X connect 89 0 91 0;
#X connect 90 0 93 0;
#X connect 91 0 88 0;
#X connect 92 0 88 0;
#X connect 93 0 88 0;
#X connect 94 0 51 0;
#X connect 95 0 51 0;
#X connect 96 0 54 0;
#X connect 97 0 92 0;
#X coords 0 -1 1 1 80 70 1 100 100;
