#N canvas 507 43 884 727 10;
#X obj 101 114 cnv 15 78 55 empty empty empty 20 12 0 14 -189697 -66577
0;
#X obj 103 174 gemhead;
#X obj 105 636 glsl_program;
#X obj 178 514 pack 0 0;
#X obj 199 494 t b f;
#X obj 199 449 change;
#X obj 137 465 change;
#X msg 178 537 link \$1 \$2;
#X floatatom 199 475 2 0 0 0 ID - -;
#X floatatom 137 488 2 0 0 0 ID - -;
#X obj 105 429 glsl_fragment;
#X obj 105 366 glsl_vertex;
#X obj 105 334 alpha;
#X obj 132 321 tgl 15 0 empty empty empty 17 7 0 10 -262144 -1 -1 1
1;
#X msg 172 323 auto 1;
#X obj 172 297 loadbang;
#X msg -42 183 open noiseshape.vert;
#X msg 116 399 open noiseshape.frag;
#X obj -42 151 t b b;
#X obj -42 114 bng 30 250 50 0 empty empty empty 17 7 0 10 -262144
-1 -1;
#X obj -42 86 loadbang;
#X obj -180 353 GEMglPolygonMode;
#X obj -134 248 loadbang;
#X obj -180 628 GEMglPolygonMode;
#X obj -134 525 loadbang;
#X obj -134 545 bng 15 250 50 0 empty empty empty 17 7 0 10 -262144
-1 -1;
#X obj -134 271 bng 15 250 50 0 empty empty empty 17 7 0 10 -262144
-1 -1;
#X obj -134 571 GLdefine GL_FRONT;
#X obj -134 296 GLdefine GL_FRONT;
#X obj 102 117 tgl 15 0 empty empty empty 17 7 0 10 -262144 -1 -1 1
1;
#X obj 126 117 hsl 50 15 0 0.05 0 0 empty empty jump 3 8 0 10 -262144
-1 -1 4900 1;
#X obj 101 231 t a b;
#X obj 161 216 f;
#X obj 227 217 fmod 360;
#X floatatom 72 550 5 0 0 0 - - -;
#X msg 72 571 K \$1;
#X obj 246 444 + 10;
#X obj 280 468 + 10;
#X obj 315 495 + 10;
#X obj 349 519 + 10;
#X obj 248 525 pack f f f f;
#X obj 101 293 t a b;
#X obj 244 378 t b b b b;
#X msg 245 555 noise \$1 \$2 \$3 \$4;
#X obj 246 421 randomF 20;
#X obj 280 445 randomF 20;
#X obj 315 472 randomF 20;
#X obj 349 496 randomF 20;
#X obj 234 611 sel 0 1;
#X obj 229 719 > 0;
#X obj -87 593 GLdefine GL_FILL;
#X obj -180 478 model;
#X obj 126 134 hsl 50 15 1 20 0 0 empty empty size 3 8 0 10 -262144
-1 -1 1050 1;
#X obj -39 476 line;
#X obj -180 445 scale 15;
#X obj -24 390 loadbang;
#X msg -24 412 open planet.obj;
#X msg 122 580 color 0.3 0.4 0.7 \$1;
#X obj 127 152 hsl 50 15 0.1 5 0 0 empty empty rotate 3 8 0 10 -262144
-1 -1 4900 1;
#X obj 240 18 r touchosc;
#X obj 240 42 routeOSC /vj;
#X obj 240 66 route /8 /9 /10 /11;
#X obj 411 431 s toudp;
#X obj 411 404 packOSC;
#X msg 410 363 send /gh /10 \$1;
#X msg 427 326 send /gh /10-1 \$1;
#X msg 514 394 send /gh /10-2 \$1;
#X msg 514 420 send /gh /10-3 \$1;
#X obj -180 408 GEMglPointSize 2;
#X obj -87 318 GLdefine GL_POINT;
#X msg 64 68 0;
#X obj 63 10 sel 1;
#X obj 63 34 t b b b;
#X obj 455 696 s totouch;
#X obj 455 646 packOSC;
#X msg 310 626 send /vj/9 \$1;
#X msg 399 568 send /vj/10 \$1;
#X msg 528 602 send /vj/11 \$1;
#X obj 206 108 k_range 0 1 0 0.05;
#X obj 312 599 k_range 0 0.05 0 1;
#X obj 400 544 k_range 0.3 40 0 1;
#X obj 527 577 k_range 0.1 10 0 1;
#X msg 235 644 0 10000;
#X obj 331 124 k_range 0 1 0.1 5;
#X msg 126 69 0.1;
#X msg 94 69 10;
#X msg -39 455 \$1 5000;
#X obj 403 75 sel 1;
#X msg 405 97 0;
#X obj 301 150 k_range 0 1 1 20;
#X floatatom 3 492 5 0 0 0 - - -;
#X obj 230 695 line;
#X obj 307 216 r targetpoint;
#X obj 307 239 unpack f f f;
#X msg 251 665 0.3 10000;
#X obj 101 270 rotateXYZ 0 0 0;
#X obj 187 217 + 0.5;
#X obj 297 282 translateXYZ 0 0 0;
#X floatatom 238 186 5 0 0 0 - - -;
#X connect 1 0 97 0;
#X connect 2 0 21 0;
#X connect 3 0 7 0;
#X connect 4 0 3 0;
#X connect 4 1 3 1;
#X connect 5 0 8 0;
#X connect 6 0 9 0;
#X connect 7 0 2 0;
#X connect 8 0 4 0;
#X connect 9 0 3 0;
#X connect 10 0 2 0;
#X connect 10 1 5 0;
#X connect 11 0 10 0;
#X connect 11 1 6 0;
#X connect 12 0 11 0;
#X connect 13 0 12 1;
#X connect 14 0 12 0;
#X connect 15 0 14 0;
#X connect 15 0 13 0;
#X connect 16 0 11 0;
#X connect 17 0 10 0;
#X connect 18 0 16 0;
#X connect 18 1 17 0;
#X connect 19 0 18 0;
#X connect 20 0 19 0;
#X connect 21 0 68 0;
#X connect 22 0 26 0;
#X connect 24 0 25 0;
#X connect 25 0 27 0;
#X connect 25 0 50 0;
#X connect 26 0 28 0;
#X connect 26 0 69 0;
#X connect 27 0 23 1;
#X connect 28 0 21 1;
#X connect 29 0 48 0;
#X connect 29 0 71 0;
#X connect 29 0 87 0;
#X connect 30 0 34 0;
#X connect 30 0 79 0;
#X connect 31 0 95 0;
#X connect 31 1 32 0;
#X connect 32 0 95 1;
#X connect 32 0 95 3;
#X connect 32 0 96 0;
#X connect 33 0 32 1;
#X connect 34 0 35 0;
#X connect 35 0 2 0;
#X connect 36 0 40 0;
#X connect 37 0 40 1;
#X connect 38 0 40 2;
#X connect 39 0 40 3;
#X connect 40 0 43 0;
#X connect 41 0 12 0;
#X connect 41 1 42 0;
#X connect 42 0 44 0;
#X connect 42 1 45 0;
#X connect 42 2 46 0;
#X connect 42 3 47 0;
#X connect 43 0 2 0;
#X connect 44 0 36 0;
#X connect 45 0 37 0;
#X connect 46 0 38 0;
#X connect 47 0 39 0;
#X connect 48 0 82 0;
#X connect 48 1 94 0;
#X connect 49 0 1 0;
#X connect 50 0 23 2;
#X connect 51 0 23 0;
#X connect 52 0 86 0;
#X connect 52 0 80 0;
#X connect 53 0 54 1;
#X connect 53 0 90 0;
#X connect 54 0 51 0;
#X connect 55 0 56 0;
#X connect 56 0 51 0;
#X connect 57 0 2 0;
#X connect 58 0 81 0;
#X connect 58 0 98 0;
#X connect 59 0 60 0;
#X connect 60 0 61 0;
#X connect 61 0 29 0;
#X connect 61 0 64 0;
#X connect 61 1 65 0;
#X connect 61 1 78 0;
#X connect 61 2 66 0;
#X connect 61 2 89 0;
#X connect 61 3 67 0;
#X connect 61 3 83 0;
#X connect 63 0 62 0;
#X connect 64 0 63 0;
#X connect 65 0 63 0;
#X connect 66 0 63 0;
#X connect 67 0 63 0;
#X connect 68 0 54 0;
#X connect 69 0 21 2;
#X connect 70 0 30 0;
#X connect 71 0 72 0;
#X connect 72 0 70 0;
#X connect 72 1 85 0;
#X connect 72 2 84 0;
#X connect 75 0 74 0;
#X connect 76 0 74 0;
#X connect 77 0 74 0;
#X connect 78 0 30 0;
#X connect 79 0 75 0;
#X connect 80 0 76 0;
#X connect 81 0 77 0;
#X connect 82 0 91 0;
#X connect 83 0 58 0;
#X connect 84 0 58 0;
#X connect 85 0 52 0;
#X connect 86 0 53 0;
#X connect 87 0 88 0;
#X connect 88 0 83 0;
#X connect 89 0 52 0;
#X connect 91 0 49 0;
#X connect 91 0 57 0;
#X connect 92 0 93 0;
#X connect 94 0 91 0;
#X connect 95 0 41 0;
#X connect 96 0 33 0;
#X connect 97 0 31 0;
#X connect 98 0 96 1;
#X coords 0 -1 1 1 80 70 1 100 100;
