#N canvas 502 46 884 727 10;
#X obj 101 114 cnv 15 78 55 empty empty empty 20 12 0 14 -189697 -66577
0;
#X obj 104 117 tgl 15 0 empty empty empty 17 7 0 10 -262144 -1 -1 1
1;
#X obj 103 179 gemhead;
#X obj 105 641 glsl_program;
#X obj 178 519 pack 0 0;
#X obj 199 499 t b f;
#X obj 199 454 change;
#X obj 137 470 change;
#X msg 178 542 link \$1 \$2;
#X floatatom 199 480 2 0 0 0 ID - -;
#X floatatom 137 493 2 0 0 0 ID - -;
#X obj 105 434 glsl_fragment;
#X obj 105 371 glsl_vertex;
#X obj 105 350 alpha;
#X obj 132 326 tgl 15 0 empty empty empty 17 7 0 10 -262144 -1 -1 1
1;
#X msg 172 328 auto 1;
#X obj 172 302 loadbang;
#X msg -42 170 open noiseshape.vert;
#X msg 116 404 open noiseshape.frag;
#X obj -42 138 t b b;
#X obj -42 101 bng 30 250 50 0 empty empty empty 17 7 0 10 -262144
-1 -1;
#X obj -42 73 loadbang;
#X obj -180 340 GEMglPolygonMode;
#X obj -134 235 loadbang;
#X obj -180 615 GEMglPolygonMode;
#X obj -134 512 loadbang;
#X obj -134 532 bng 15 250 50 0 empty empty empty 17 7 0 10 -262144
-1 -1;
#X obj -134 258 bng 15 250 50 0 empty empty empty 17 7 0 10 -262144
-1 -1;
#X obj -134 558 GLdefine GL_FRONT;
#X obj -134 283 GLdefine GL_FRONT;
#X msg 54 58 0;
#X obj 126 116 hsl 50 15 0 0.02 0 0 empty empty jump 3 8 0 10 -262144
-1 -1 0 1;
#X obj 101 236 t a b;
#X obj 147 236 f;
#X obj 101 275 rotateXYZ 0 0 0;
#X obj 213 237 fmod 360;
#X obj 173 236 + 0.5;
#X floatatom 72 555 5 0 0 0 - - -;
#X msg 72 576 K \$1;
#X obj 246 449 + 10;
#X obj 280 473 + 10;
#X obj 315 500 + 10;
#X obj 349 524 + 10;
#X obj 248 530 pack f f f f;
#X obj 101 298 t a b;
#X obj 244 383 t b b b b;
#X msg 245 560 noise \$1 \$2 \$3 \$4;
#X obj -180 485 GEMglPointSize 3;
#X obj 246 426 randomF 20;
#X obj 280 450 randomF 20;
#X obj 315 477 randomF 20;
#X obj 349 501 randomF 20;
#X obj 234 616 sel 0 1;
#X obj 229 724 > 0;
#X obj 230 700 line;
#X obj -180 465 model;
#X obj 126 133 hsl 50 15 5 30 0 0 empty empty size 3 8 0 10 -262144
-1 -1 0 1;
#X obj -39 463 line;
#X obj -24 369 loadbang;
#X obj 126 151 hsl 50 15 0.1 5 0 0 empty empty rotate 3 8 0 10 -262144
-1 -1 500 1;
#X floatatom 293 183 5 0 0 0 - - -;
#X obj 293 208 k_range 0 127 0 0.1;
#X obj 293 158 ctlin 6;
#X obj 230 8 r touchosc;
#X obj 230 32 routeOSC /vj;
#X obj 230 56 route /4 /5 /6 /7;
#X obj 300 328 s toudp;
#X obj 300 301 packOSC;
#X msg 300 260 send /gh /9 \$1;
#X msg 433 203 send /gh /9-1 \$1;
#X msg 412 288 send /gh /9-2 \$1;
#X msg 359 319 send /gh /9-3 \$1;
#X obj -87 580 GLdefine GL_FILL;
#X obj -180 404 GEMglPointSize 2;
#X obj 53 0 sel 1;
#X obj 159 22 loadbang;
#X msg 159 43 0;
#X obj 53 24 t b b b;
#X msg 235 649 0 10000;
#X floatatom 189 161 5 0 0 0 - - -;
#X obj 190 185 / 2.5;
#X obj 373 34 sel 1;
#X msg 373 58 0;
#X obj 222 102 k_range 0 1 0 0.02;
#X obj 360 85 k_range 0 1 0.1 5;
#X msg -39 442 \$1 6000;
#X obj -180 432 scale 10;
#X msg 84 59 10;
#X msg 116 59 0.1;
#X floatatom 1 463 5 0 0 0 - - -;
#X obj 268 122 k_range 0 1 5 30;
#X obj -87 305 GLdefine GL_LINE;
#X obj -180 374 scale 0.5;
#X msg 251 670 0.4 10000;
#X obj 103 203 translateXYZ 0 0 0;
#X msg -26 399 open planet_b.obj;
#X obj 433 177 k_range 0 0.02 0 1;
#X obj 413 254 k_range 5 30 0 1;
#X msg 114 591 color 0.9 0.1 0.05 \$1;
#X obj 49 517 * 1;
#X obj -1 334 * 0.6;
#X connect 1 0 52 0;
#X connect 1 0 68 0;
#X connect 1 0 74 0;
#X connect 1 0 81 0;
#X connect 2 0 94 0;
#X connect 3 0 22 0;
#X connect 4 0 8 0;
#X connect 5 0 4 0;
#X connect 5 1 4 1;
#X connect 6 0 9 0;
#X connect 7 0 10 0;
#X connect 8 0 3 0;
#X connect 9 0 5 0;
#X connect 10 0 4 0;
#X connect 11 0 3 0;
#X connect 11 1 6 0;
#X connect 12 0 11 0;
#X connect 12 1 7 0;
#X connect 13 0 12 0;
#X connect 14 0 13 1;
#X connect 15 0 13 0;
#X connect 16 0 15 0;
#X connect 16 0 14 0;
#X connect 17 0 12 0;
#X connect 18 0 11 0;
#X connect 19 0 17 0;
#X connect 19 1 18 0;
#X connect 20 0 19 0;
#X connect 21 0 20 0;
#X connect 22 0 92 0;
#X connect 23 0 27 0;
#X connect 25 0 26 0;
#X connect 26 0 28 0;
#X connect 26 0 72 0;
#X connect 27 0 29 0;
#X connect 27 0 91 0;
#X connect 28 0 24 1;
#X connect 29 0 22 1;
#X connect 30 0 31 0;
#X connect 31 0 96 0;
#X connect 31 0 99 0;
#X connect 32 0 34 0;
#X connect 32 1 33 0;
#X connect 33 0 34 2;
#X connect 33 0 36 0;
#X connect 33 0 34 1;
#X connect 34 0 44 0;
#X connect 35 0 33 1;
#X connect 36 0 35 0;
#X connect 37 0 38 0;
#X connect 38 0 3 0;
#X connect 39 0 43 0;
#X connect 40 0 43 1;
#X connect 41 0 43 2;
#X connect 42 0 43 3;
#X connect 43 0 46 0;
#X connect 44 0 13 0;
#X connect 44 1 45 0;
#X connect 45 0 48 0;
#X connect 45 1 49 0;
#X connect 45 2 50 0;
#X connect 45 3 51 0;
#X connect 46 0 3 0;
#X connect 47 0 24 0;
#X connect 48 0 39 0;
#X connect 49 0 40 0;
#X connect 50 0 41 0;
#X connect 51 0 42 0;
#X connect 52 0 78 0;
#X connect 52 1 93 0;
#X connect 53 0 2 0;
#X connect 54 0 53 0;
#X connect 54 0 98 0;
#X connect 55 0 47 0;
#X connect 56 0 89 0;
#X connect 56 0 97 0;
#X connect 56 0 100 0;
#X connect 57 0 86 1;
#X connect 58 0 95 0;
#X connect 59 0 79 0;
#X connect 59 0 71 0;
#X connect 60 0 61 0;
#X connect 61 0 31 0;
#X connect 62 0 60 0;
#X connect 63 0 64 0;
#X connect 64 0 65 0;
#X connect 65 0 1 0;
#X connect 65 1 83 0;
#X connect 65 2 90 0;
#X connect 65 3 84 0;
#X connect 67 0 66 0;
#X connect 68 0 67 0;
#X connect 69 0 67 0;
#X connect 70 0 67 0;
#X connect 71 0 67 0;
#X connect 72 0 24 2;
#X connect 73 0 86 0;
#X connect 74 0 77 0;
#X connect 75 0 76 0;
#X connect 76 0 1 0;
#X connect 77 0 30 0;
#X connect 77 1 87 0;
#X connect 77 2 88 0;
#X connect 78 0 54 0;
#X connect 79 0 80 0;
#X connect 80 0 36 1;
#X connect 81 0 82 0;
#X connect 82 0 84 0;
#X connect 83 0 31 0;
#X connect 84 0 59 0;
#X connect 85 0 57 0;
#X connect 86 0 55 0;
#X connect 87 0 56 0;
#X connect 88 0 59 0;
#X connect 90 0 56 0;
#X connect 91 0 22 2;
#X connect 92 0 73 0;
#X connect 93 0 54 0;
#X connect 94 0 32 0;
#X connect 95 0 55 0;
#X connect 96 0 69 0;
#X connect 97 0 70 0;
#X connect 98 0 3 0;
#X connect 99 0 37 0;
#X connect 100 0 85 0;
#X coords 0 -1 1 1 80 70 1 100 100;
