#N canvas 428 22 412 301 10;
#X obj 301 194 bng 15 250 50 0 empty empty empty 17 7 0 10 -262144
-1 -1;
#N canvas 511 242 576 443 gloomShader 1;
#X obj 86 377 glsl_program;
#X obj 159 292 pack 0 0;
#X obj 180 272 t b f;
#X obj 176 227 change;
#X obj 149 111 change;
#X msg 159 318 link \$1 \$2;
#X floatatom 180 253 2 0 0 0 ID - -;
#X floatatom 149 134 2 0 0 0 ID - -;
#X obj 152 37 bng 15 250 50 0 empty empty empty 0 -6 0 8 -262144 -1
-1;
#X obj 86 89 glsl_vertex;
#X obj 86 207 glsl_fragment;
#X text 334 75 <-load an other shader;
#X text 338 89 (using rectangular texturing);
#X obj 86 13 inlet;
#X obj 87 416 outlet;
#X obj 269 11 inlet;
#X obj 185 10 inlet;
#X msg 97 66 open bloom.vert;
#X msg 102 177 open bloom.frag;
#X msg 222 197 glowSize \$1;
#X msg 246 160 0.25;
#X obj 365 214 / 100;
#X connect 0 0 14 0;
#X connect 1 0 5 0;
#X connect 2 0 1 0;
#X connect 2 1 1 1;
#X connect 3 0 6 0;
#X connect 4 0 7 0;
#X connect 5 0 0 0;
#X connect 6 0 2 0;
#X connect 7 0 1 0;
#X connect 8 0 17 0;
#X connect 8 0 18 0;
#X connect 8 0 20 0;
#X connect 9 0 10 0;
#X connect 9 1 4 0;
#X connect 10 0 0 0;
#X connect 10 1 3 0;
#X connect 13 0 9 0;
#X connect 15 0 8 0;
#X connect 16 0 21 0;
#X connect 17 0 9 0;
#X connect 18 0 10 0;
#X connect 19 0 0 0;
#X connect 20 0 19 0;
#X connect 21 0 19 0;
#X restore 97 172 pd gloomShader;
#X obj 97 67 inlet;
#X obj 97 226 outlet;
#X obj 136 68 inlet;
#X text 151 136 (0 to 100 glow size);
#X obj 195 43 loadbang;
#X msg 195 66 0;
#X obj 195 90 + \$1;
#X floatatom 196 115 5 0 0 0 - - -;
#X obj 301 169 inlet;
#X connect 0 0 1 2;
#X connect 1 0 3 0;
#X connect 2 0 1 0;
#X connect 4 0 9 0;
#X connect 6 0 7 0;
#X connect 7 0 8 0;
#X connect 8 0 9 0;
#X connect 9 0 1 1;
#X connect 10 0 0 0;
