#N canvas 609 103 831 689 10;
#X obj 311 447 glsl_program;
#X obj 384 362 pack 0 0;
#X obj 405 342 t b f;
#X obj 401 297 change;
#X obj 374 181 change;
#X msg 384 388 link \$1 \$2;
#X floatatom 405 323 2 0 0 0 ID - -;
#X floatatom 374 204 2 0 0 0 ID - -;
#X obj 384 414 print linking;
#X obj 363 107 bng 15 250 50 0 empty empty empty 0 -6 0 8 -262144 -1
-1;
#X obj 311 159 glsl_vertex;
#X obj 311 277 glsl_fragment;
#X obj 311 83 inlet;
#X obj 312 486 outlet;
#X obj 362 79 loadbang;
#X msg 211 330 amount 5 0;
#X msg 211 395 print;
#X msg 322 135 open bokeh.vert;
#X msg 327 247 open bokeh.frag;
#X msg 499 309 focus \$1;
#X msg 507 347 bias \$1;
#X floatatom 500 275 5 0 0 0 - - -;
#X floatatom 561 288 5 0 0 0 - - -;
#X obj 502 241 inlet;
#X obj 559 259 inlet;
#X connect 0 0 13 0;
#X connect 1 0 5 0;
#X connect 2 0 1 0;
#X connect 2 1 1 1;
#X connect 3 0 6 0;
#X connect 4 0 7 0;
#X connect 5 0 0 0;
#X connect 5 0 8 0;
#X connect 6 0 2 0;
#X connect 7 0 1 0;
#X connect 9 0 17 0;
#X connect 9 0 18 0;
#X connect 10 0 11 0;
#X connect 10 1 4 0;
#X connect 11 0 0 0;
#X connect 11 1 3 0;
#X connect 12 0 10 0;
#X connect 14 0 9 0;
#X connect 15 0 0 0;
#X connect 16 0 0 0;
#X connect 17 0 10 0;
#X connect 18 0 11 0;
#X connect 19 0 0 0;
#X connect 20 0 0 0;
#X connect 21 0 19 0;
#X connect 22 0 20 0;
#X connect 23 0 21 0;
#X connect 24 0 22 0;
