#N canvas 485 132 831 689 10;
#X obj 311 447 glsl_program;
#X obj 384 362 pack 0 0;
#X obj 405 342 t b f;
#X obj 401 297 change;
#X obj 374 181 change;
#X msg 384 388 link \$1 \$2;
#X floatatom 405 323 2 0 0 0 ID - -;
#X floatatom 374 204 2 0 0 0 ID - -;
#X obj 384 414 print linking;
#X obj 363 107 bng 15 250 50 0 empty empty empty 0 -6 0 8 -262144 -1
-1;
#X obj 311 159 glsl_vertex;
#X obj 311 277 glsl_fragment;
#X obj 311 83 inlet;
#X obj 312 486 outlet;
#X msg 322 135 open vBlur.vert;
#X msg 327 247 open vBlur.frag;
#X obj 362 79 loadbang;
#X msg 211 395 print;
#X msg 211 330 amount 10 0;
#X connect 0 0 13 0;
#X connect 1 0 5 0;
#X connect 2 0 1 0;
#X connect 2 1 1 1;
#X connect 3 0 6 0;
#X connect 4 0 7 0;
#X connect 5 0 0 0;
#X connect 5 0 8 0;
#X connect 6 0 2 0;
#X connect 7 0 1 0;
#X connect 9 0 14 0;
#X connect 9 0 15 0;
#X connect 10 0 11 0;
#X connect 10 1 4 0;
#X connect 11 0 0 0;
#X connect 11 1 3 0;
#X connect 12 0 10 0;
#X connect 14 0 10 0;
#X connect 15 0 11 0;
#X connect 16 0 9 0;
#X connect 17 0 0 0;
#X connect 18 0 0 0;
